<svg width="154" height="50" viewBox="0 0 154 50" fill="none" xmlns="http://www.w3.org/2000/svg">
<path d="M67.9311 19.7109V28.7759C67.9311 32.0659 66.6361 33.6409 63.9411 33.6409C61.5611 33.6409 60.2661 32.3109 60.2661 29.0209V19.7109H55.9961V30.5259C55.9961 34.7609 58.3411 37.4559 62.3311 37.4559C64.6411 37.4559 66.8811 36.3359 67.9311 34.6909L68.2461 37.0009H72.2011V19.7109H67.9311ZM74.9396 31.7509C74.9396 35.1459 77.6696 37.4559 81.9746 37.4559C86.2446 37.4559 89.2196 35.2859 89.2196 31.7859C89.2196 29.1259 87.7496 27.7959 84.8446 27.1309L81.7296 26.3959C80.2596 26.0459 79.4896 25.4159 79.4896 24.4359C79.4896 23.1409 80.4696 22.3709 82.1496 22.3709C83.7946 22.3709 84.7746 23.3159 84.8096 24.7859H88.8696C88.8346 21.4259 86.2096 19.1859 82.3246 19.1859C78.3346 19.1859 75.4646 21.2159 75.4646 24.6109C75.4646 27.3759 76.9696 28.8459 80.0846 29.5459L83.1996 30.2809C84.7396 30.6309 85.1946 31.2609 85.1946 32.1359C85.1946 33.3959 84.1096 34.2009 82.1146 34.2009C80.1546 34.2009 79.0346 33.2559 78.9996 31.7509H74.9396ZM100.206 37.4559C104.721 37.4559 107.871 35.1809 108.606 31.4009H104.651C104.161 33.0459 102.621 33.9559 100.276 33.9559C97.4408 33.9559 95.8308 32.4159 95.5158 29.3709L108.536 29.3359V28.0409C108.536 22.6509 105.246 19.1859 100.066 19.1859C94.9908 19.1859 91.4558 22.9309 91.4558 28.3559C91.4558 33.7109 95.0608 37.4559 100.206 37.4559ZM100.101 22.6859C102.656 22.6859 104.301 24.2609 104.301 26.6409H95.6208C96.0408 24.0509 97.5808 22.6859 100.101 22.6859ZM110.238 19.7109V23.2809H112.723V37.0009H116.958V23.2809H121.088V19.7109H116.958V17.6109C116.958 15.8959 117.483 14.7759 119.653 14.7759H121.158V11.1359C120.423 10.9959 119.618 10.9609 118.953 10.9609C115.208 10.9609 112.723 12.9209 112.723 17.6109V19.7109H110.238ZM135.539 19.7109V28.7759C135.539 32.0659 134.244 33.6409 131.549 33.6409C129.169 33.6409 127.874 32.3109 127.874 29.0209V19.7109H123.604V30.5259C123.604 34.7609 125.949 37.4559 129.939 37.4559C132.249 37.4559 134.489 36.3359 135.539 34.6909L135.854 37.0009H139.809V19.7109H135.539ZM148.524 37.0009V10.9609H144.289V37.0009H148.524Z" fill="#6F2DE7"/>
<path d="M11.7243 0C16.5312 0 20.4467 3.91552 20.4467 8.72237V28.2607C20.4467 30.6262 22.3731 32.558 24.7438 32.558H26.8375V36.978H24.7438C19.937 36.978 16.0267 33.0675 16.0267 28.2607V8.72237C16.0267 6.35162 14.0951 4.42 11.7243 4.42C9.35355 4.42 7.42195 6.35162 7.42195 8.72237V28.2607C7.42195 35.671 12.0981 42.012 18.6614 44.4743C20.5591 45.1905 22.6057 45.58 24.7464 45.58C27.1172 45.58 29.0487 43.6535 29.0487 41.2827V8.72237C29.0487 3.91552 32.9592 0 37.766 0C42.5727 0 46.4935 3.91552 46.4935 8.72237V28.2607C46.4935 33.0675 42.5727 36.978 37.766 36.978H35.6775V32.558H37.766C40.142 32.558 42.0735 30.6262 42.0735 28.2607V8.72237C42.0735 6.35162 40.142 4.42 37.766 4.42C35.4005 4.42 33.4687 6.35162 33.4687 8.72237V41.2827C33.4687 46.0897 29.5585 50 24.7464 50C22.6318 50 20.5957 49.6968 18.6614 49.1323C9.6254 46.4923 3.00195 38.1333 3.00195 28.2607V8.72237C3.00195 3.91292 6.91225 0 11.7243 0Z" fill="#6F2DE7"/>
<path d="M3.00195 8.72365V28.262C3.00195 38.1345 9.6254 46.4935 18.6614 49.1335V44.4783C12.0981 42.016 7.42195 35.6748 7.42195 28.2645V8.72625C7.42195 6.3555 9.35355 4.42391 11.7243 4.42391V0.00390756C6.91225 0.00129372 3.00195 3.91421 3.00195 8.72365Z" fill="url(#paint0_linear_1662_13426)"/>
<path d="M11.7246 0V4.42C14.0954 4.42 16.027 6.35163 16.027 8.72238V28.2608C16.027 33.0675 19.9373 36.978 24.7441 36.978H26.8378V32.558H24.7441C22.3734 32.558 20.447 30.6263 20.447 28.2608V8.72238C20.447 3.91293 16.5314 0 11.7246 0Z" fill="url(#paint1_linear_1662_13426)"/>
<path d="M18.6621 44.4742V49.1295C20.5937 49.6942 22.6325 49.9975 24.7471 49.9975C29.5592 49.9975 33.4694 46.087 33.4694 41.2802V8.72237C33.4694 6.35162 35.4012 4.42 37.7667 4.42V0C32.9597 0 29.0494 3.91552 29.0494 8.72237V41.2827C29.0494 43.6535 27.1179 45.58 24.7471 45.58C22.6064 45.58 20.5598 45.1905 18.6621 44.4742Z" fill="url(#paint2_linear_1662_13426)"/>
<path d="M35.6777 32.558V36.978H37.7662C42.573 36.978 46.4937 33.0675 46.4937 28.2608V8.72238C46.4937 3.91553 42.573 0 37.7662 0V4.42C40.1422 4.42 42.0737 6.35163 42.0737 8.72238V28.2608C42.0737 30.6263 40.1422 32.558 37.7662 32.558H35.6777Z" fill="url(#paint3_linear_1662_13426)"/>
<defs>
<linearGradient id="paint0_linear_1662_13426" x1="13.559" y1="43.091" x2="4.56824" y2="2.81205" gradientUnits="userSpaceOnUse">
<stop stop-color="#9B6DEE"/>
<stop offset="1" stop-color="#6F2DE7"/>
</linearGradient>
<linearGradient id="paint1_linear_1662_13426" x1="36.2588" y1="44.1055" x2="20.2551" y2="21.3586" gradientUnits="userSpaceOnUse">
<stop stop-color="#43129C"/>
<stop offset="1" stop-color="#6F2DE7"/>
</linearGradient>
<linearGradient id="paint2_linear_1662_13426" x1="23.7576" y1="45.6917" x2="34.5467" y2="15.9322" gradientUnits="userSpaceOnUse">
<stop stop-color="#9B6DEE"/>
<stop offset="1" stop-color="#6F2DE7"/>
</linearGradient>
<linearGradient id="paint3_linear_1662_13426" x1="23.7489" y1="45.3738" x2="41.6407" y2="16.1535" gradientUnits="userSpaceOnUse">
<stop stop-color="#43129C"/>
<stop offset="1" stop-color="#6F2DE7"/>
</linearGradient>
</defs>
</svg>
