<svg width="41" height="40" viewBox="0 0 41 40" fill="none" xmlns="http://www.w3.org/2000/svg">
<g clip-path="url(#clip0_1651_23620)">
<path d="M22.834 10C22.834 11.3807 21.7147 12.5 20.334 12.5C18.9533 12.5 17.834 11.3807 17.834 10C17.834 8.61929 18.9533 7.5 20.334 7.5C21.7147 7.5 22.834 8.61929 22.834 10ZM22.834 10H29.084M29.084 10C29.084 11.3807 30.2033 12.5 31.584 12.5C32.9647 12.5 34.084 11.3807 34.084 10C34.084 8.61929 32.9647 7.5 31.584 7.5C30.2033 7.5 29.084 8.61929 29.084 10ZM21.6847 12.1012L24.6071 16.6471M30.2341 12.0999L27.3085 16.6507M9.08398 32.1875V37.8125C9.08398 38.3303 8.66425 38.75 8.14648 38.75H2.52148C2.00372 38.75 1.58398 38.3303 1.58398 37.8125V32.1875C1.58398 31.6697 2.00372 31.25 2.52148 31.25H8.14648C8.66425 31.25 9.08398 31.6697 9.08398 32.1875ZM20.334 32.1875V37.8125C20.334 38.3303 19.9143 38.75 19.3965 38.75H13.7715C13.2537 38.75 12.834 38.3303 12.834 37.8125V32.1875C12.834 31.6697 13.2537 31.25 13.7715 31.25H19.3965C19.9143 31.25 20.334 31.6697 20.334 32.1875ZM9.08398 20.9375V26.5625C9.08398 27.0803 8.66425 27.5 8.14648 27.5H2.52148C2.00372 27.5 1.58398 27.0803 1.58398 26.5625V20.9375C1.58398 20.4197 2.00372 20 2.52148 20H8.14648C8.66425 20 9.08398 20.4197 9.08398 20.9375ZM39.084 2.70838V26.0416C39.084 26.8471 38.431 27.5 37.6256 27.5H14.2924C13.4869 27.5 12.834 26.8471 12.834 26.0416V2.70838C12.834 1.90294 13.4869 1.25 14.2924 1.25H37.6256C38.431 1.25 39.084 1.90294 39.084 2.70838ZM28.459 18.75C28.459 20.1307 27.3397 21.25 25.959 21.25C24.5783 21.25 23.459 20.1307 23.459 18.75C23.459 17.3693 24.5783 16.25 25.959 16.25C27.3397 16.25 28.459 17.3693 28.459 18.75Z" stroke="#481B97" stroke-width="2" stroke-miterlimit="10"/>
</g>
<defs>
<clipPath id="clip0_1651_23620">
<rect width="40" height="40" fill="white" transform="translate(0.333984)"/>
</clipPath>
</defs>
</svg>
