<svg width="41" height="40" viewBox="0 0 41 40" fill="none" xmlns="http://www.w3.org/2000/svg">
<g clip-path="url(#clip0_1651_23626)">
<path d="M24.416 7.5H33.166M24.416 13.75H33.166M24.416 20H33.166M9.41602 32.1875V37.8125C9.41602 38.3303 8.99628 38.75 8.47852 38.75H2.85352C2.33575 38.75 1.91602 38.3303 1.91602 37.8125V32.1875C1.91602 31.6697 2.33575 31.25 2.85352 31.25H8.47852C8.99628 31.25 9.41602 31.6697 9.41602 32.1875ZM20.666 32.1875V37.8125C20.666 38.3303 20.2463 38.75 19.7285 38.75H14.1035C13.5857 38.75 13.166 38.3303 13.166 37.8125V32.1875C13.166 31.6697 13.5857 31.25 14.1035 31.25H19.7285C20.2463 31.25 20.666 31.6697 20.666 32.1875ZM9.41602 20.9375V26.5625C9.41602 27.0803 8.99628 27.5 8.47852 27.5H2.85352C2.33575 27.5 1.91602 27.0803 1.91602 26.5625V20.9375C1.91602 20.4197 2.33575 20 2.85352 20H8.47852C8.99628 20 9.41602 20.4197 9.41602 20.9375ZM39.416 2.70838V26.0416C39.416 26.8471 38.7631 27.5 37.9576 27.5H14.6244C13.819 27.5 13.166 26.8471 13.166 26.0416V2.70838C13.166 1.90294 13.819 1.25 14.6244 1.25H37.9576C38.7631 1.25 39.416 1.90294 39.416 2.70838ZM21.916 7.5C21.916 8.19036 21.3564 8.75 20.666 8.75C19.9757 8.75 19.416 8.19036 19.416 7.5C19.416 6.80964 19.9757 6.25 20.666 6.25C21.3564 6.25 21.916 6.80964 21.916 7.5ZM21.916 13.75C21.916 14.4404 21.3564 15 20.666 15C19.9757 15 19.416 14.4404 19.416 13.75C19.416 13.0596 19.9757 12.5 20.666 12.5C21.3564 12.5 21.916 13.0596 21.916 13.75ZM21.916 20C21.916 20.6904 21.3564 21.25 20.666 21.25C19.9757 21.25 19.416 20.6904 19.416 20C19.416 19.3096 19.9757 18.75 20.666 18.75C21.3564 18.75 21.916 19.3096 21.916 20Z" stroke="currentColor" stroke-width="2" stroke-miterlimit="10"/>
</g>
<defs>
<clipPath id="clip0_1651_23626">
<rect width="40" height="40" fill="white" transform="translate(0.666016)"/>
</clipPath>
</defs>
</svg>
