<svg width="40" height="40" viewBox="0 0 40 40" fill="none" xmlns="http://www.w3.org/2000/svg">
<g clip-path="url(#clip0_1651_23612)">
<path d="M32.5008 10.3649V18.3851L25.6261 22.3953M32.5008 10.3649L25.6029 6.35475L18.7516 10.3649M32.5008 10.3649L25.625 14.375M18.7516 10.3649V18.3851L25.6261 22.3953M18.7516 10.3649L25.625 14.375M25.6261 22.3953L25.625 14.375M8.75 32.1875V37.8125C8.75 38.3303 8.33027 38.75 7.8125 38.75H2.1875C1.66973 38.75 1.25 38.3303 1.25 37.8125V32.1875C1.25 31.6697 1.66973 31.25 2.1875 31.25H7.8125C8.33027 31.25 8.75 31.6697 8.75 32.1875ZM20 32.1875V37.8125C20 38.3303 19.5803 38.75 19.0625 38.75H13.4375C12.9197 38.75 12.5 38.3303 12.5 37.8125V32.1875C12.5 31.6697 12.9197 31.25 13.4375 31.25H19.0625C19.5803 31.25 20 31.6697 20 32.1875ZM8.75 20.9375V26.5625C8.75 27.0803 8.33027 27.5 7.8125 27.5H2.1875C1.66973 27.5 1.25 27.0803 1.25 26.5625V20.9375C1.25 20.4197 1.66973 20 2.1875 20H7.8125C8.33027 20 8.75 20.4197 8.75 20.9375ZM38.75 2.70838V26.0416C38.75 26.8471 38.0971 27.5 37.2916 27.5H13.9584C13.1529 27.5 12.5 26.8471 12.5 26.0416V2.70838C12.5 1.90294 13.1529 1.25 13.9584 1.25H37.2916C38.0971 1.25 38.75 1.90294 38.75 2.70838Z" stroke="#481B97" stroke-width="2" stroke-miterlimit="10"/>
</g>
<defs>
<clipPath id="clip0_1651_23612">
<rect width="40" height="40" fill="white"/>
</clipPath>
</defs>
</svg>
