<svg width="536" height="245" viewBox="0 0 536 245" fill="none" xmlns="http://www.w3.org/2000/svg">
<mask id="mask0_1664_12891" style="mask-type:alpha" maskUnits="userSpaceOnUse" x="0" y="0" width="536" height="240">
<rect width="536" height="240" fill="url(#paint0_linear_1664_12891)"/>
</mask>
<g mask="url(#mask0_1664_12891)">
<circle cx="268" cy="128" r="163.5" fill="white" fill-opacity="0.32" stroke="#D8DFE5"/>
<circle cx="268" cy="128" r="99.5" fill="white"/>
<circle cx="268" cy="128" r="99.5" fill="#481B97" fill-opacity="0.12"/>
<circle cx="268" cy="128" r="99.5" stroke="#481B97"/>
<path d="M312 216C281.624 216 257 191.6 257 161.5C257 131.4 281.624 107 312 107C333.883 107 352.782 119.664 361.638 138" stroke="#C8B9DF"/>
<path d="M223.999 216C254.375 216 278.999 191.6 278.999 161.5C278.999 131.4 254.375 107 223.999 107C202.315 107 183.562 119.434 174.605 137.5" stroke="#C8B9DF"/>
<path d="M312 40C281.624 40 257 64.8482 257 95.5C257 126.152 281.624 151 312 151C334.438 151 353.738 137.441 362.293 118" stroke="#C8B9DF"/>
<path d="M223.999 40C254.375 40 278.999 64.8482 278.999 95.5C278.999 126.152 254.375 151 223.999 151C201.754 151 182.593 137.673 173.93 118.5" stroke="#C8B9DF"/>
<g filter="url(#filter0_f_1664_12891)">
<path d="M362.293 118C353.738 137.441 334.438 151 312 151C290.537 151 271.945 138.594 262.883 120.5" stroke="url(#paint1_linear_1664_12891)"/>
</g>
<g filter="url(#filter1_f_1664_12891)">
<path d="M174.605 137.5C183.562 119.434 202.315 107 223.999 107C244.253 107 261.949 117.848 271.494 134" stroke="url(#paint2_linear_1664_12891)"/>
</g>
<g filter="url(#filter2_f_1664_12891)">
<path d="M312 216C281.624 216 257 191.6 257 161.5C257 148.869 261.336 137.242 268.614 128" stroke="url(#paint3_linear_1664_12891)"/>
</g>
<g filter="url(#filter3_f_1664_12891)">
<path d="M224 40C254.376 40 279 64.8482 279 95.5C279 108.31 274.699 120.107 267.474 129.5" stroke="url(#paint4_linear_1664_12891)"/>
</g>
</g>
<g filter="url(#filter4_dd_1664_12891)">
<rect x="196" y="192" width="48" height="48" rx="24" fill="white" shape-rendering="crispEdges"/>
<g clip-path="url(#clip0_1664_12891)">
<path d="M219.022 208.905C219.117 209.108 219.205 209.314 219.288 209.522C219.371 209.73 219.447 209.94 219.518 210.153C219.589 210.365 219.654 210.58 219.712 210.796C220.043 211.831 220.396 213.114 220.775 214.611C219.341 214.588 217.893 214.571 216.488 214.556L215.777 214.546C216.58 211.278 217.56 208.799 218.276 208.214C218.29 208.203 218.305 208.194 218.32 208.185C218.336 208.178 218.352 208.172 218.368 208.166C218.385 208.16 218.402 208.155 218.42 208.152C218.436 208.148 218.453 208.146 218.471 208.146C218.497 208.148 218.522 208.152 218.545 208.161C218.57 208.169 218.594 208.18 218.616 208.193C218.639 208.207 218.659 208.223 218.677 208.242C218.694 208.26 218.71 208.28 218.724 208.302C218.83 208.501 218.929 208.702 219.022 208.905Z" fill="#1E61F0"/>
<path fill-rule="evenodd" clip-rule="evenodd" d="M233.764 215.996C233.764 223.725 227.744 229.991 220.319 229.991C212.895 229.991 206.875 223.727 206.875 215.996C206.875 208.266 212.895 202 220.319 202C227.744 202 233.764 208.266 233.764 215.996ZM230.122 216.096C230.161 216.037 230.193 215.975 230.214 215.908C230.236 215.842 230.25 215.773 230.251 215.704C230.255 215.635 230.25 215.564 230.234 215.497C230.218 215.429 230.195 215.364 230.161 215.304C230.127 215.243 230.087 215.188 230.037 215.141C229.989 215.091 229.932 215.05 229.872 215.016C229.812 214.983 229.748 214.958 229.681 214.944H229.651C229.641 214.943 229.632 214.941 229.622 214.94C229.614 214.939 229.605 214.938 229.596 214.937C229.587 214.937 229.579 214.936 229.569 214.935C229.56 214.935 229.551 214.935 229.543 214.935L229.447 214.926C227.196 214.756 224.88 214.689 222.706 214.643L222.702 214.627C221.644 210.496 220.324 206.273 218.543 206.273C216.882 206.278 215.383 209.057 214.093 214.52C213.182 214.51 212.347 214.497 211.562 214.483H211.442C211.418 214.482 211.394 214.481 211.369 214.481C211.346 214.482 211.322 214.484 211.298 214.485C211.273 214.485 211.249 214.486 211.226 214.488C211.201 214.491 211.177 214.493 211.153 214.495C210.933 214.545 210.738 214.669 210.6 214.845C210.46 215.022 210.387 215.242 210.391 215.467C210.394 215.692 210.476 215.908 210.62 216.08C210.765 216.252 210.963 216.369 211.185 216.411L211.194 216.422H213.664C213.434 217.515 213.233 218.596 213.065 219.638L212.991 220.095V220.118C212.991 220.186 213.001 220.255 213.023 220.319C213.042 220.384 213.074 220.445 213.115 220.499C213.154 220.554 213.203 220.604 213.258 220.643C213.313 220.684 213.373 220.714 213.439 220.735C213.503 220.753 213.57 220.762 213.638 220.758C213.705 220.755 213.77 220.741 213.832 220.716C213.894 220.693 213.953 220.657 214.003 220.613C214.054 220.57 214.098 220.519 214.132 220.461L214.151 220.476L215.367 216.424H221.228C221.674 218.185 222.14 220.005 222.753 221.712C223.083 222.624 223.85 224.762 225.135 224.772H225.149C227.138 224.772 227.912 221.43 228.424 219.216C228.536 218.74 228.63 218.329 228.72 218.027L228.756 217.902C228.758 217.894 228.76 217.887 228.763 217.88C228.764 217.872 228.765 217.864 228.766 217.857C228.768 217.849 228.768 217.841 228.768 217.834C228.769 217.826 228.77 217.818 228.77 217.811C228.77 217.774 228.763 217.738 228.75 217.705C228.738 217.669 228.72 217.639 228.697 217.611C228.674 217.583 228.648 217.558 228.616 217.54C228.586 217.521 228.552 217.508 228.517 217.501C228.481 217.494 228.446 217.494 228.41 217.501C228.377 217.508 228.343 217.521 228.311 217.538C228.281 217.556 228.254 217.579 228.231 217.606C228.208 217.634 228.19 217.664 228.178 217.698L228.136 217.822C227.965 218.307 227.811 218.768 227.671 219.176L227.661 219.208C226.801 221.744 226.409 222.901 225.639 222.901H225.587C224.604 222.901 223.677 218.731 223.328 217.161C223.266 216.89 223.211 216.64 223.158 216.42H229.53C229.559 216.42 229.587 216.418 229.615 216.415C229.644 216.411 229.672 216.406 229.7 216.399C229.727 216.392 229.755 216.383 229.782 216.372C229.809 216.362 229.835 216.349 229.86 216.335C229.862 216.334 229.865 216.333 229.867 216.331C229.869 216.33 229.872 216.328 229.874 216.326C229.878 216.325 229.88 216.324 229.883 216.323C229.885 216.321 229.888 216.32 229.89 216.317L229.922 216.298L229.936 216.287C229.952 216.276 229.966 216.264 229.98 216.253L229.984 216.25C230.037 216.204 230.083 216.152 230.122 216.096Z" fill="#1E61F0"/>
</g>
<rect x="196.5" y="192.5" width="47" height="47" rx="23.5" stroke="#D8DFE5" shape-rendering="crispEdges"/>
</g>
<g filter="url(#filter5_dd_1664_12891)">
<rect x="292" y="192" width="48" height="48" rx="24" fill="white" shape-rendering="crispEdges"/>
<g clip-path="url(#clip1_1664_12891)">
<path d="M323.025 211.479V208.191C323.46 207.988 323.828 207.665 324.086 207.261C324.345 206.857 324.483 206.388 324.485 205.908V205.833C324.485 204.434 323.352 203.301 321.953 203.301H321.878C320.479 203.301 319.346 204.434 319.346 205.833V205.908C319.348 206.388 319.486 206.857 319.745 207.261C320.003 207.665 320.371 207.988 320.806 208.191V211.479C319.557 211.67 318.38 212.188 317.396 212.98L308.378 205.956C308.442 205.724 308.476 205.485 308.479 205.245C308.48 204.681 308.314 204.129 308.002 203.659C307.689 203.189 307.244 202.823 306.723 202.606C306.202 202.389 305.628 202.331 305.075 202.441C304.521 202.55 304.012 202.821 303.612 203.219C303.213 203.617 302.94 204.125 302.829 204.679C302.718 205.232 302.774 205.806 302.989 206.328C303.204 206.849 303.569 207.295 304.038 207.61C304.507 207.924 305.058 208.092 305.623 208.093C306.116 208.09 306.601 207.959 307.028 207.71L315.908 214.621C314.275 217.087 314.319 220.301 316.018 222.723L313.317 225.424C313.099 225.355 312.871 225.318 312.642 225.314C311.349 225.316 310.301 226.365 310.301 227.658C310.301 228.952 311.35 230 312.643 230C313.937 230.001 314.986 228.953 314.987 227.659C314.984 227.43 314.947 227.203 314.877 226.984L317.549 224.311C319.936 226.149 323.215 226.308 325.769 224.708C328.322 223.109 329.611 220.089 328.999 217.139C328.387 214.189 326.004 211.931 323.025 211.479ZM321.918 222.294C321.424 222.307 320.933 222.221 320.473 222.042C320.013 221.862 319.594 221.592 319.24 221.247C318.886 220.903 318.605 220.491 318.413 220.036C318.221 219.581 318.122 219.092 318.122 218.598C318.122 218.105 318.221 217.616 318.413 217.161C318.605 216.706 318.886 216.294 319.24 215.95C319.594 215.605 320.013 215.335 320.473 215.155C320.933 214.976 321.424 214.89 321.918 214.903C323.907 214.973 325.484 216.605 325.485 218.596C325.486 220.586 323.911 222.22 321.922 222.292" fill="#FF7A59"/>
</g>
<rect x="292.5" y="192.5" width="47" height="47" rx="23.5" stroke="#D8DFE5" shape-rendering="crispEdges"/>
</g>
<g filter="url(#filter6_dd_1664_12891)">
<rect x="144" y="104" width="48" height="48" rx="24" fill="white" shape-rendering="crispEdges"/>
<g clip-path="url(#clip2_1664_12891)">
<path d="M174.977 127.23C175.169 127.208 175.365 127.208 175.556 127.23C175.661 126.993 175.679 126.579 175.583 126.132C175.446 125.467 175.259 125.061 174.867 125.125C174.479 125.189 174.466 125.672 174.603 126.337C174.685 126.711 174.822 127.034 174.976 127.23H174.977ZM171.641 127.759C171.919 127.882 172.087 127.964 172.156 127.891C172.197 127.846 172.188 127.763 172.12 127.654C171.983 127.431 171.7 127.202 171.399 127.076C170.77 126.811 170.046 126.898 169.495 127.303C169.307 127.44 169.135 127.631 169.158 127.745C169.166 127.782 169.194 127.809 169.258 127.818C169.413 127.836 169.946 127.567 170.566 127.526C171 127.499 171.364 127.636 171.642 127.759H171.641ZM171.081 128.078C170.716 128.138 170.52 128.256 170.393 128.365C170.279 128.461 170.216 128.57 170.216 128.644L170.243 128.712L170.302 128.735C170.384 128.735 170.566 128.657 170.566 128.657C170.94 128.52 171.341 128.475 171.733 128.539C171.915 128.557 172.001 128.57 172.043 128.507C172.051 128.489 172.065 128.452 172.029 128.393C171.946 128.252 171.577 128.019 171.081 128.078ZM173.852 129.253C174.098 129.372 174.367 129.326 174.454 129.148C174.545 128.966 174.417 128.72 174.171 128.602C173.926 128.478 173.656 128.529 173.565 128.707C173.478 128.889 173.606 129.13 173.852 129.253ZM175.433 127.868C175.233 127.864 175.064 128.083 175.064 128.36C175.06 128.634 175.214 128.857 175.415 128.861C175.615 128.866 175.78 128.647 175.784 128.374C175.788 128.1 175.629 127.873 175.433 127.868ZM162.012 132.817C161.962 132.758 161.879 132.776 161.802 132.795C161.738 132.809 161.674 132.817 161.614 132.822C161.478 132.822 161.35 132.758 161.272 132.648C161.181 132.508 161.186 132.298 161.286 132.06L161.332 131.951C161.496 131.591 161.76 130.989 161.459 130.415C161.236 129.982 160.867 129.714 160.42 129.659C159.991 129.603 159.568 129.754 159.271 130.069C158.829 130.556 158.761 131.222 158.848 131.459C158.879 131.546 158.93 131.569 158.966 131.573C159.038 131.582 159.148 131.528 159.221 131.34L159.24 131.281C159.271 131.18 159.331 130.994 159.422 130.848C159.667 130.474 160.164 130.369 160.534 130.615C160.843 130.815 160.967 131.199 160.835 131.558C160.766 131.75 160.653 132.105 160.68 132.402C160.73 132.998 161.095 133.236 161.423 133.263C161.742 133.277 161.965 133.094 162.025 132.962C162.056 132.884 162.029 132.838 162.011 132.816L162.012 132.817ZM180.473 131.728C180.459 131.682 180.382 131.391 180.273 131.045L180.05 130.448C180.487 129.792 180.496 129.204 180.437 128.871C180.373 128.461 180.205 128.11 179.859 127.75C179.517 127.385 178.811 127.012 177.818 126.734L177.298 126.593C177.298 126.571 177.271 125.363 177.248 124.848C177.234 124.474 177.202 123.886 177.02 123.312C176.806 122.533 176.428 121.849 175.958 121.412C177.252 120.068 178.063 118.586 178.059 117.319C178.055 114.872 175.06 114.133 171.369 115.665L170.585 115.997C170.106 115.528 169.632 115.058 169.149 114.589C164.938 110.912 151.777 125.564 155.983 129.127L156.903 129.907C156.657 130.572 156.571 131.288 156.648 131.999C156.748 132.979 157.25 133.918 158.07 134.643C158.844 135.33 159.865 135.768 160.859 135.768C162.495 139.546 166.237 141.866 170.621 141.998C175.328 142.134 179.28 139.924 180.933 135.951C181.043 135.672 181.503 134.415 181.503 133.307C181.503 132.191 180.874 131.731 180.473 131.731V131.728ZM161.219 134.699C161.078 134.727 160.927 134.736 160.781 134.731C159.364 134.694 157.828 133.414 157.673 131.892C157.504 130.21 158.361 128.92 159.879 128.615C160.089 128.569 160.303 128.555 160.517 128.565C161.369 128.615 162.622 129.267 162.905 131.122C163.16 132.767 162.759 134.44 161.219 134.704V134.699ZM159.633 127.608C158.69 127.79 157.856 128.329 157.345 129.067C157.04 128.817 156.475 128.324 156.375 128.133C155.564 126.583 157.264 123.58 158.449 121.88C161.383 117.687 165.981 114.511 168.11 115.085C168.457 115.185 169.6 116.515 169.6 116.515C169.6 116.515 167.472 117.696 165.498 119.345C162.842 121.396 160.836 124.372 159.633 127.608V127.608ZM174.549 134.076C174.58 134.062 174.604 134.026 174.598 133.993C174.594 133.948 174.557 133.915 174.512 133.921C174.512 133.921 172.288 134.253 170.182 133.479C170.41 132.736 171.021 133.005 171.941 133.078C173.372 133.165 174.808 133.01 176.188 132.618C177.141 132.344 178.39 131.807 179.365 131.037C179.693 131.757 179.806 132.55 179.806 132.55C179.806 132.55 180.062 132.504 180.271 132.636C180.471 132.76 180.618 133.019 180.517 133.68C180.317 134.92 179.788 135.927 178.903 136.856C178.352 137.453 177.696 137.946 176.962 138.305C176.556 138.52 176.132 138.697 175.699 138.843C172.363 139.933 168.949 138.734 167.847 136.159C167.76 135.963 167.688 135.758 167.628 135.548C167.159 133.852 167.556 131.815 168.804 130.535C168.877 130.453 168.955 130.358 168.955 130.234C168.955 130.134 168.891 130.03 168.837 129.952C168.403 129.318 166.895 128.243 167.196 126.155C167.415 124.655 168.723 123.603 169.944 123.662L170.254 123.681C170.783 123.712 171.243 123.781 171.676 123.799C172.405 123.83 173.061 123.726 173.836 123.079C174.096 122.86 174.305 122.668 174.661 122.61C174.698 122.605 174.794 122.568 174.976 122.578C175.167 122.587 175.349 122.646 175.508 122.751C176.133 123.166 176.22 124.169 176.251 124.902C176.27 125.321 176.32 126.333 176.338 126.625C176.379 127.29 176.552 127.386 176.903 127.5C177.104 127.568 177.291 127.618 177.559 127.692C178.385 127.924 178.872 128.161 179.177 128.462C179.365 128.649 179.446 128.849 179.474 129.04C179.575 129.751 178.927 130.626 177.214 131.423C175.34 132.294 173.072 132.513 171.504 132.34L170.952 132.276C169.699 132.107 168.984 133.729 169.735 134.846C170.218 135.562 171.545 136.031 172.866 136.031C175.897 136.031 178.23 134.733 179.096 133.611L179.164 133.51C179.21 133.446 179.173 133.415 179.119 133.451C178.413 133.934 175.263 135.861 171.9 135.283C171.9 135.283 171.49 135.215 171.116 135.069C170.819 134.955 170.2 134.668 170.123 134.029C172.839 134.873 174.548 134.075 174.548 134.075L174.549 134.076ZM165.051 121.861C166.095 120.654 167.38 119.606 168.529 119.018C168.57 118.995 168.611 119.04 168.592 119.077C168.501 119.242 168.324 119.601 168.269 119.866C168.26 119.907 168.305 119.938 168.337 119.915C169.057 119.428 170.301 118.904 171.395 118.836C171.441 118.836 171.463 118.895 171.427 118.922C171.245 119.063 171.084 119.223 170.944 119.405C170.921 119.437 170.944 119.478 170.98 119.478C171.75 119.487 172.831 119.756 173.533 120.153C173.583 120.18 173.551 120.271 173.496 120.258C172.429 120.012 170.684 119.824 168.871 120.272C167.253 120.668 166.018 121.274 165.115 121.935C165.07 121.966 165.015 121.907 165.051 121.861Z" fill="black"/>
</g>
<rect x="144.5" y="104.5" width="47" height="47" rx="23.5" stroke="#D8DFE5" shape-rendering="crispEdges"/>
</g>
<g filter="url(#filter7_dd_1664_12891)">
<rect x="344" y="104" width="48" height="48" rx="24" fill="white" shape-rendering="crispEdges"/>
<path fill-rule="evenodd" clip-rule="evenodd" d="M366.975 123.753V136.998H356L366.975 123.753ZM356.002 119C356.002 120.453 356.58 121.849 357.61 122.877C358.637 123.907 360.034 124.485 361.49 124.485C362.942 124.485 364.339 123.907 365.369 122.877C366.397 121.849 366.975 120.453 366.975 119H356.002ZM379.757 137C379.757 135.546 379.179 134.151 378.15 133.12C377.12 132.091 375.726 131.513 374.271 131.513C372.815 131.513 371.42 132.091 370.391 133.12C369.361 134.151 368.783 135.546 368.783 137H379.757ZM368.784 132.244L379.76 119H368.784V132.244Z" fill="#03363D"/>
<rect x="344.5" y="104.5" width="47" height="47" rx="23.5" stroke="#D8DFE5" shape-rendering="crispEdges"/>
</g>
<g filter="url(#filter8_dd_1664_12891)">
<rect x="196" y="16" width="48" height="48" rx="24" fill="white" shape-rendering="crispEdges"/>
<g clip-path="url(#clip3_1664_12891)">
<path fill-rule="evenodd" clip-rule="evenodd" d="M215.352 40.4485C215.227 40.8511 214.955 41.2087 214.555 41.4374L208.627 44.8341C207.789 45.3118 206.723 45.0285 206.242 44.2023C205.758 43.3714 206.043 42.3144 206.88 41.8353L210.193 39.9404L206.88 38.0405C206.043 37.5621 205.757 36.5049 206.242 35.6771C206.723 34.8487 207.789 34.5646 208.627 35.0423L214.555 38.4368C214.972 38.6753 215.25 39.0535 215.367 39.4765C215.407 39.6125 215.424 39.7484 215.431 39.8851C215.436 40.0734 215.411 40.2641 215.352 40.4485ZM216.961 43.6298C217.864 43.6942 218.576 44.4431 218.576 45.3543V52.1457C218.576 53.1035 217.793 53.8787 216.831 53.8787C215.865 53.8787 215.084 53.1035 215.084 52.1457V48.3472L211.76 50.248C210.926 50.7295 209.86 50.4446 209.376 49.6177C208.895 48.7891 209.179 47.7267 210.014 47.2483L215.947 43.8559C216.266 43.6715 216.62 43.6008 216.961 43.6298ZM223.037 36.2491C222.132 36.1829 221.421 35.4327 221.421 34.5222V27.7299C221.421 26.7754 222.2 26 223.167 26C224.133 26 224.914 26.7754 224.914 27.7299V31.5308L228.236 29.6269C229.071 29.1485 230.138 29.4325 230.619 30.2596C231.1 31.0912 230.817 32.1489 229.981 32.6273L224.048 36.0227C223.73 36.2049 223.377 36.2763 223.037 36.2491ZM210.014 32.6273C209.179 32.1489 208.895 31.0912 209.376 30.2596C209.86 29.4325 210.926 29.1485 211.76 29.6269L215.084 31.5308V27.7299C215.084 26.7754 215.865 26 216.831 26C217.793 26 218.576 26.7754 218.576 27.7299V34.5222C218.576 35.4327 217.864 36.1829 216.961 36.2491C216.62 36.2763 216.266 36.2049 215.947 36.0227L210.014 32.6273ZM220.669 43.0458C220.599 43.1179 220.463 43.1764 220.36 43.1764H219.635C219.535 43.1764 219.397 43.1179 219.325 43.0458L216.861 40.6042C216.79 40.5351 216.733 40.3968 216.733 40.2997V39.579C216.733 39.4795 216.79 39.3414 216.861 39.2715L219.325 36.8291C219.397 36.7579 219.535 36.7008 219.635 36.7008H220.36C220.461 36.7008 220.599 36.7579 220.669 36.8291L223.135 39.2715C223.206 39.3414 223.263 39.4795 223.263 39.579V40.2997C223.263 40.3968 223.206 40.5351 223.135 40.6042L220.669 43.0458ZM221.164 39.9261C221.164 39.8273 221.104 39.6899 221.034 39.6169L220.319 38.9122C220.25 38.8424 220.111 38.7846 220.011 38.7846H219.983C219.884 38.7846 219.746 38.8424 219.676 38.9122L218.962 39.6169C218.891 39.6899 218.836 39.8273 218.836 39.9261V39.9542C218.836 40.0513 218.891 40.1873 218.962 40.2587L219.676 40.9649C219.746 41.0348 219.884 41.0924 219.983 41.0924H220.011C220.111 41.0924 220.25 41.0348 220.319 40.9649L221.034 40.2587C221.104 40.1873 221.164 40.0513 221.164 39.9542V39.9261ZM229.981 47.2483C230.817 47.7267 231.1 48.7891 230.619 49.6177C230.138 50.4446 229.07 50.7295 228.236 50.248L224.914 48.3472V52.1457C224.914 53.1035 224.133 53.8787 223.167 53.8787C222.2 53.8787 221.421 53.1035 221.421 52.1457V45.3543C221.421 44.4431 222.132 43.6942 223.037 43.6298C223.377 43.6008 223.73 43.6715 224.048 43.8559L229.981 47.2483ZM229.804 39.9404L233.117 41.8353C233.953 42.3144 234.24 43.3714 233.756 44.2023C233.273 45.0285 232.205 45.3118 231.372 44.8341L225.439 41.4374C225.042 41.2087 224.768 40.8511 224.646 40.4485C224.588 40.2641 224.561 40.0734 224.568 39.8851C224.571 39.7484 224.591 39.6125 224.629 39.4765C224.748 39.0535 225.026 38.6753 225.439 38.4368L231.372 35.0423C232.205 34.5646 233.273 34.8487 233.756 35.6771C234.24 36.5049 233.953 37.5621 233.117 38.0405L229.804 39.9404Z" fill="#29B5E8"/>
</g>
<rect x="196.5" y="16.5" width="47" height="47" rx="23.5" stroke="#D8DFE5" shape-rendering="crispEdges"/>
</g>
<g filter="url(#filter9_dd_1664_12891)">
<rect x="292" y="16" width="48" height="48" rx="24" fill="white" shape-rendering="crispEdges"/>
<path d="M319.454 44.8371H303.345C302.602 44.8371 302 44.2354 302 43.4925C302 42.7497 302.602 42.148 303.345 42.148H319.454C320.197 42.148 320.799 42.7497 320.799 43.4925C320.799 44.2354 320.197 44.8371 319.454 44.8371ZM328.655 38.0061H312.547C311.804 38.0061 311.202 37.4045 311.202 36.6616C311.202 35.9187 311.804 35.3171 312.547 35.3171H328.655C329.398 35.3171 330 35.9187 330 36.6616C330 37.4045 329.398 38.0061 328.655 38.0061ZM325.325 31.5379C325.325 32.2805 324.723 32.8824 323.981 32.8824C323.238 32.8824 322.636 32.2805 322.636 31.5379C322.636 30.7953 323.238 30.1934 323.981 30.1934C324.723 30.1934 325.325 30.7953 325.325 31.5379ZM309.364 48.6182C309.364 49.3608 308.762 49.9628 308.019 49.9628C307.277 49.9628 306.675 49.3608 306.675 48.6182C306.675 47.8757 307.277 47.2737 308.019 47.2737C308.762 47.2737 309.364 47.8757 309.364 48.6182Z" fill="#93C8A2"/>
<path d="M315.993 53.0551C314.681 53.0551 313.386 52.8603 312.143 52.4749C311.434 52.2553 311.037 51.5027 311.257 50.7938C311.476 50.0816 312.231 49.6851 312.938 49.9069C313.923 50.2126 314.951 50.3671 315.993 50.3671C320.553 50.3671 324.512 47.4409 325.845 43.0836C325.95 42.7428 326.185 42.4575 326.5 42.2905C326.815 42.1235 327.183 42.0885 327.524 42.1933C328.233 42.4083 328.632 43.1608 328.415 43.8697C326.734 49.363 321.742 53.0551 315.993 53.0551ZM304.856 37.9962C304.43 37.9962 304.029 37.7941 303.775 37.4514C303.522 37.1087 303.446 36.6661 303.571 36.2586C305.252 30.7657 310.245 27.0762 315.993 27.0762C317.305 27.0762 318.601 27.271 319.843 27.6567C320.183 27.7622 320.468 27.9986 320.634 28.3139C320.8 28.6293 320.834 28.9977 320.729 29.3382C320.624 29.6788 320.387 29.9637 320.072 30.1298C319.756 30.296 319.388 30.3298 319.047 30.2238C318.063 29.9214 317.035 29.7669 315.993 29.7669C311.434 29.7669 307.474 32.6931 306.14 37.0504C305.967 37.6149 305.446 38.0006 304.856 38.0012L304.856 37.9962Z" fill="#43AF79"/>
<rect x="292.5" y="16.5" width="47" height="47" rx="23.5" stroke="#D8DFE5" shape-rendering="crispEdges"/>
</g>
<g filter="url(#filter10_dd_1664_12891)">
<rect x="236" y="96" width="64" height="64" rx="32" fill="#481B97" shape-rendering="crispEdges"/>
<rect x="236" y="96" width="64" height="64" rx="32" fill="url(#paint5_radial_1664_12891)" style="mix-blend-mode:overlay" shape-rendering="crispEdges"/>
<path d="M273.924 114.514C273.981 114.232 274.38 114.232 274.437 114.514L275.435 119.438C275.456 119.542 275.536 119.623 275.639 119.644L280.521 120.65C280.8 120.708 280.8 121.11 280.521 121.168L275.639 122.174C275.536 122.195 275.456 122.277 275.435 122.38L274.437 127.304C274.38 127.586 273.981 127.586 273.924 127.304L272.926 122.38C272.905 122.277 272.825 122.195 272.722 122.174L267.84 121.168C267.561 121.11 267.561 120.708 267.84 120.65L272.722 119.644C272.825 119.623 272.905 119.542 272.926 119.438L273.924 114.514Z" fill="white"/>
<path fill-rule="evenodd" clip-rule="evenodd" d="M273.201 118.074C273.713 118.373 274.197 118.714 274.649 119.093V116.09C274.344 115.903 274.03 115.729 273.709 115.567L273.201 118.074ZM272.393 114.995C271.004 114.481 269.504 114.201 267.94 114.201C260.793 114.201 255 120.045 255 127.253C255 131.374 256.893 135.048 259.85 137.44C260.012 137.571 260.064 137.799 259.968 137.985L258.019 141.746C257.724 142.317 258.134 143.001 258.773 143.001H277.106C277.745 143.001 278.156 142.317 277.86 141.746L275.912 137.985C275.815 137.799 275.867 137.571 276.029 137.44C278.986 135.048 280.879 131.374 280.879 127.253C280.879 125.653 280.594 124.121 280.072 122.705L277.655 123.203C278.167 124.451 278.449 125.819 278.449 127.253C278.449 130.704 276.817 133.77 274.278 135.71L273.213 136.523C272.882 136.776 272.78 137.233 272.973 137.604L274.173 139.922C274.321 140.208 274.116 140.55 273.797 140.55H262.083C261.763 140.55 261.558 140.208 261.706 139.922L262.906 137.604C263.099 137.233 262.997 136.776 262.666 136.523L261.601 135.71C259.062 133.77 257.43 130.704 257.43 127.253C257.43 121.398 262.135 116.652 267.94 116.652C269.34 116.652 270.677 116.929 271.899 117.43L272.393 114.995ZM277.008 121.892L279.497 121.378C279.418 121.22 279.336 121.064 279.251 120.91H276.361C276.594 121.224 276.81 121.552 277.008 121.892Z" fill="white"/>
<path d="M280.602 111.106C280.63 110.965 280.83 110.965 280.858 111.106L281.357 113.568C281.368 113.619 281.408 113.66 281.459 113.671L283.9 114.174C284.04 114.203 284.04 114.404 283.9 114.433L281.459 114.936C281.408 114.946 281.368 114.987 281.357 115.039L280.858 117.501C280.83 117.642 280.63 117.642 280.602 117.501L280.103 115.039C280.092 114.987 280.052 114.946 280.001 114.936L277.56 114.433C277.42 114.404 277.42 114.203 277.56 114.174L280.001 113.671C280.052 113.66 280.092 113.619 280.103 113.568L280.602 111.106Z" fill="white"/>
<rect x="236.5" y="96.5" width="63" height="63" rx="31.5" stroke="black" stroke-opacity="0.24" style="mix-blend-mode:overlay" shape-rendering="crispEdges"/>
</g>
<defs>
<filter id="filter0_f_1664_12891" x="261.436" y="116.799" width="102.314" height="35.7012" filterUnits="userSpaceOnUse" color-interpolation-filters="sRGB">
<feFlood flood-opacity="0" result="BackgroundImageFix"/>
<feBlend mode="normal" in="SourceGraphic" in2="BackgroundImageFix" result="shape"/>
<feGaussianBlur stdDeviation="0.5" result="effect1_foregroundBlur_1664_12891"/>
</filter>
<filter id="filter1_f_1664_12891" x="173.158" y="105.5" width="99.7676" height="33.2227" filterUnits="userSpaceOnUse" color-interpolation-filters="sRGB">
<feFlood flood-opacity="0" result="BackgroundImageFix"/>
<feBlend mode="normal" in="SourceGraphic" in2="BackgroundImageFix" result="shape"/>
<feGaussianBlur stdDeviation="0.5" result="effect1_foregroundBlur_1664_12891"/>
</filter>
<filter id="filter2_f_1664_12891" x="255.5" y="126.691" width="57.5" height="90.8086" filterUnits="userSpaceOnUse" color-interpolation-filters="sRGB">
<feFlood flood-opacity="0" result="BackgroundImageFix"/>
<feBlend mode="normal" in="SourceGraphic" in2="BackgroundImageFix" result="shape"/>
<feGaussianBlur stdDeviation="0.5" result="effect1_foregroundBlur_1664_12891"/>
</filter>
<filter id="filter3_f_1664_12891" x="223" y="38.5" width="57.5" height="92.3047" filterUnits="userSpaceOnUse" color-interpolation-filters="sRGB">
<feFlood flood-opacity="0" result="BackgroundImageFix"/>
<feBlend mode="normal" in="SourceGraphic" in2="BackgroundImageFix" result="shape"/>
<feGaussianBlur stdDeviation="0.5" result="effect1_foregroundBlur_1664_12891"/>
</filter>
<filter id="filter4_dd_1664_12891" x="192" y="189" width="56" height="56" filterUnits="userSpaceOnUse" color-interpolation-filters="sRGB">
<feFlood flood-opacity="0" result="BackgroundImageFix"/>
<feColorMatrix in="SourceAlpha" type="matrix" values="0 0 0 0 0 0 0 0 0 0 0 0 0 0 0 0 0 0 127 0" result="hardAlpha"/>
<feOffset dy="1"/>
<feGaussianBlur stdDeviation="2"/>
<feColorMatrix type="matrix" values="0 0 0 0 0.0666667 0 0 0 0 0.0941176 0 0 0 0 0.109804 0 0 0 0.16 0"/>
<feBlend mode="normal" in2="BackgroundImageFix" result="effect1_dropShadow_1664_12891"/>
<feColorMatrix in="SourceAlpha" type="matrix" values="0 0 0 0 0 0 0 0 0 0 0 0 0 0 0 0 0 0 127 0" result="hardAlpha"/>
<feOffset/>
<feGaussianBlur stdDeviation="0.5"/>
<feComposite in2="hardAlpha" operator="out"/>
<feColorMatrix type="matrix" values="0 0 0 0 0.0666667 0 0 0 0 0.0941176 0 0 0 0 0.109804 0 0 0 0.16 0"/>
<feBlend mode="normal" in2="effect1_dropShadow_1664_12891" result="effect2_dropShadow_1664_12891"/>
<feBlend mode="normal" in="SourceGraphic" in2="effect2_dropShadow_1664_12891" result="shape"/>
</filter>
<filter id="filter5_dd_1664_12891" x="288" y="189" width="56" height="56" filterUnits="userSpaceOnUse" color-interpolation-filters="sRGB">
<feFlood flood-opacity="0" result="BackgroundImageFix"/>
<feColorMatrix in="SourceAlpha" type="matrix" values="0 0 0 0 0 0 0 0 0 0 0 0 0 0 0 0 0 0 127 0" result="hardAlpha"/>
<feOffset dy="1"/>
<feGaussianBlur stdDeviation="2"/>
<feColorMatrix type="matrix" values="0 0 0 0 0.0666667 0 0 0 0 0.0941176 0 0 0 0 0.109804 0 0 0 0.16 0"/>
<feBlend mode="normal" in2="BackgroundImageFix" result="effect1_dropShadow_1664_12891"/>
<feColorMatrix in="SourceAlpha" type="matrix" values="0 0 0 0 0 0 0 0 0 0 0 0 0 0 0 0 0 0 127 0" result="hardAlpha"/>
<feOffset/>
<feGaussianBlur stdDeviation="0.5"/>
<feComposite in2="hardAlpha" operator="out"/>
<feColorMatrix type="matrix" values="0 0 0 0 0.0666667 0 0 0 0 0.0941176 0 0 0 0 0.109804 0 0 0 0.16 0"/>
<feBlend mode="normal" in2="effect1_dropShadow_1664_12891" result="effect2_dropShadow_1664_12891"/>
<feBlend mode="normal" in="SourceGraphic" in2="effect2_dropShadow_1664_12891" result="shape"/>
</filter>
<filter id="filter6_dd_1664_12891" x="140" y="101" width="56" height="56" filterUnits="userSpaceOnUse" color-interpolation-filters="sRGB">
<feFlood flood-opacity="0" result="BackgroundImageFix"/>
<feColorMatrix in="SourceAlpha" type="matrix" values="0 0 0 0 0 0 0 0 0 0 0 0 0 0 0 0 0 0 127 0" result="hardAlpha"/>
<feOffset dy="1"/>
<feGaussianBlur stdDeviation="2"/>
<feColorMatrix type="matrix" values="0 0 0 0 0.0666667 0 0 0 0 0.0941176 0 0 0 0 0.109804 0 0 0 0.16 0"/>
<feBlend mode="normal" in2="BackgroundImageFix" result="effect1_dropShadow_1664_12891"/>
<feColorMatrix in="SourceAlpha" type="matrix" values="0 0 0 0 0 0 0 0 0 0 0 0 0 0 0 0 0 0 127 0" result="hardAlpha"/>
<feOffset/>
<feGaussianBlur stdDeviation="0.5"/>
<feComposite in2="hardAlpha" operator="out"/>
<feColorMatrix type="matrix" values="0 0 0 0 0.0666667 0 0 0 0 0.0941176 0 0 0 0 0.109804 0 0 0 0.16 0"/>
<feBlend mode="normal" in2="effect1_dropShadow_1664_12891" result="effect2_dropShadow_1664_12891"/>
<feBlend mode="normal" in="SourceGraphic" in2="effect2_dropShadow_1664_12891" result="shape"/>
</filter>
<filter id="filter7_dd_1664_12891" x="340" y="101" width="56" height="56" filterUnits="userSpaceOnUse" color-interpolation-filters="sRGB">
<feFlood flood-opacity="0" result="BackgroundImageFix"/>
<feColorMatrix in="SourceAlpha" type="matrix" values="0 0 0 0 0 0 0 0 0 0 0 0 0 0 0 0 0 0 127 0" result="hardAlpha"/>
<feOffset dy="1"/>
<feGaussianBlur stdDeviation="2"/>
<feColorMatrix type="matrix" values="0 0 0 0 0.0666667 0 0 0 0 0.0941176 0 0 0 0 0.109804 0 0 0 0.16 0"/>
<feBlend mode="normal" in2="BackgroundImageFix" result="effect1_dropShadow_1664_12891"/>
<feColorMatrix in="SourceAlpha" type="matrix" values="0 0 0 0 0 0 0 0 0 0 0 0 0 0 0 0 0 0 127 0" result="hardAlpha"/>
<feOffset/>
<feGaussianBlur stdDeviation="0.5"/>
<feComposite in2="hardAlpha" operator="out"/>
<feColorMatrix type="matrix" values="0 0 0 0 0.0666667 0 0 0 0 0.0941176 0 0 0 0 0.109804 0 0 0 0.16 0"/>
<feBlend mode="normal" in2="effect1_dropShadow_1664_12891" result="effect2_dropShadow_1664_12891"/>
<feBlend mode="normal" in="SourceGraphic" in2="effect2_dropShadow_1664_12891" result="shape"/>
</filter>
<filter id="filter8_dd_1664_12891" x="192" y="13" width="56" height="56" filterUnits="userSpaceOnUse" color-interpolation-filters="sRGB">
<feFlood flood-opacity="0" result="BackgroundImageFix"/>
<feColorMatrix in="SourceAlpha" type="matrix" values="0 0 0 0 0 0 0 0 0 0 0 0 0 0 0 0 0 0 127 0" result="hardAlpha"/>
<feOffset dy="1"/>
<feGaussianBlur stdDeviation="2"/>
<feColorMatrix type="matrix" values="0 0 0 0 0.0666667 0 0 0 0 0.0941176 0 0 0 0 0.109804 0 0 0 0.16 0"/>
<feBlend mode="normal" in2="BackgroundImageFix" result="effect1_dropShadow_1664_12891"/>
<feColorMatrix in="SourceAlpha" type="matrix" values="0 0 0 0 0 0 0 0 0 0 0 0 0 0 0 0 0 0 127 0" result="hardAlpha"/>
<feOffset/>
<feGaussianBlur stdDeviation="0.5"/>
<feComposite in2="hardAlpha" operator="out"/>
<feColorMatrix type="matrix" values="0 0 0 0 0.0666667 0 0 0 0 0.0941176 0 0 0 0 0.109804 0 0 0 0.16 0"/>
<feBlend mode="normal" in2="effect1_dropShadow_1664_12891" result="effect2_dropShadow_1664_12891"/>
<feBlend mode="normal" in="SourceGraphic" in2="effect2_dropShadow_1664_12891" result="shape"/>
</filter>
<filter id="filter9_dd_1664_12891" x="288" y="13" width="56" height="56" filterUnits="userSpaceOnUse" color-interpolation-filters="sRGB">
<feFlood flood-opacity="0" result="BackgroundImageFix"/>
<feColorMatrix in="SourceAlpha" type="matrix" values="0 0 0 0 0 0 0 0 0 0 0 0 0 0 0 0 0 0 127 0" result="hardAlpha"/>
<feOffset dy="1"/>
<feGaussianBlur stdDeviation="2"/>
<feColorMatrix type="matrix" values="0 0 0 0 0.0666667 0 0 0 0 0.0941176 0 0 0 0 0.109804 0 0 0 0.16 0"/>
<feBlend mode="normal" in2="BackgroundImageFix" result="effect1_dropShadow_1664_12891"/>
<feColorMatrix in="SourceAlpha" type="matrix" values="0 0 0 0 0 0 0 0 0 0 0 0 0 0 0 0 0 0 127 0" result="hardAlpha"/>
<feOffset/>
<feGaussianBlur stdDeviation="0.5"/>
<feComposite in2="hardAlpha" operator="out"/>
<feColorMatrix type="matrix" values="0 0 0 0 0.0666667 0 0 0 0 0.0941176 0 0 0 0 0.109804 0 0 0 0.16 0"/>
<feBlend mode="normal" in2="effect1_dropShadow_1664_12891" result="effect2_dropShadow_1664_12891"/>
<feBlend mode="normal" in="SourceGraphic" in2="effect2_dropShadow_1664_12891" result="shape"/>
</filter>
<filter id="filter10_dd_1664_12891" x="232" y="93" width="72" height="72" filterUnits="userSpaceOnUse" color-interpolation-filters="sRGB">
<feFlood flood-opacity="0" result="BackgroundImageFix"/>
<feColorMatrix in="SourceAlpha" type="matrix" values="0 0 0 0 0 0 0 0 0 0 0 0 0 0 0 0 0 0 127 0" result="hardAlpha"/>
<feOffset dy="1"/>
<feGaussianBlur stdDeviation="2"/>
<feColorMatrix type="matrix" values="0 0 0 0 0.0666667 0 0 0 0 0.0941176 0 0 0 0 0.109804 0 0 0 0.16 0"/>
<feBlend mode="normal" in2="BackgroundImageFix" result="effect1_dropShadow_1664_12891"/>
<feColorMatrix in="SourceAlpha" type="matrix" values="0 0 0 0 0 0 0 0 0 0 0 0 0 0 0 0 0 0 127 0" result="hardAlpha"/>
<feOffset/>
<feGaussianBlur stdDeviation="0.5"/>
<feComposite in2="hardAlpha" operator="out"/>
<feColorMatrix type="matrix" values="0 0 0 0 0.0666667 0 0 0 0 0.0941176 0 0 0 0 0.109804 0 0 0 0.16 0"/>
<feBlend mode="normal" in2="effect1_dropShadow_1664_12891" result="effect2_dropShadow_1664_12891"/>
<feBlend mode="normal" in="SourceGraphic" in2="effect2_dropShadow_1664_12891" result="shape"/>
</filter>
<linearGradient id="paint0_linear_1664_12891" x1="268" y1="149.5" x2="268" y2="240" gradientUnits="userSpaceOnUse">
<stop stop-color="#D9D9D9"/>
<stop offset="1" stop-color="#D9D9D9" stop-opacity="0"/>
</linearGradient>
<linearGradient id="paint1_linear_1664_12891" x1="292.5" y1="147" x2="318.206" y2="170.519" gradientUnits="userSpaceOnUse">
<stop stop-color="#481B97"/>
<stop offset="0.927083" stop-color="#481B97" stop-opacity="0"/>
</linearGradient>
<linearGradient id="paint2_linear_1664_12891" x1="242" y1="110.5" x2="218.933" y2="88.5687" gradientUnits="userSpaceOnUse">
<stop stop-color="#481B97"/>
<stop offset="0.927083" stop-color="#481B97" stop-opacity="0"/>
</linearGradient>
<linearGradient id="paint3_linear_1664_12891" x1="296.5" y1="208.5" x2="260.563" y2="145.678" gradientUnits="userSpaceOnUse">
<stop stop-color="#481B97" stop-opacity="0"/>
<stop offset="1" stop-color="#481B97"/>
</linearGradient>
<linearGradient id="paint4_linear_1664_12891" x1="279" y1="101.5" x2="262.5" y2="44" gradientUnits="userSpaceOnUse">
<stop stop-color="#481B97"/>
<stop offset="0.927083" stop-color="#481B97" stop-opacity="0"/>
</linearGradient>
<radialGradient id="paint5_radial_1664_12891" cx="0" cy="0" r="1" gradientUnits="userSpaceOnUse" gradientTransform="translate(300 96) rotate(116.419) scale(55.0142 43.9317)">
<stop stop-color="white"/>
<stop offset="1" stop-color="white" stop-opacity="0"/>
</radialGradient>
<clipPath id="clip0_1664_12891">
<rect width="28" height="28" fill="white" transform="translate(206 202)"/>
</clipPath>
<clipPath id="clip1_1664_12891">
<rect width="28" height="28" fill="white" transform="translate(302 202)"/>
</clipPath>
<clipPath id="clip2_1664_12891">
<rect width="28" height="28" fill="white" transform="translate(154 114)"/>
</clipPath>
<clipPath id="clip3_1664_12891">
<rect width="28" height="28" fill="white" transform="translate(206 26)"/>
</clipPath>
</defs>
</svg>
