<svg width="1104" height="345" viewBox="0 0 1104 345" fill="none" xmlns="http://www.w3.org/2000/svg">
<mask id="mask0_1651_23328" style="mask-type:alpha" maskUnits="userSpaceOnUse" x="0" y="0" width="1104" height="345">
<rect width="1104" height="345" fill="url(#paint0_radial_1651_23328)"/>
</mask>
<g mask="url(#mask0_1651_23328)">
<rect width="69" height="69" stroke="#D8DFE5"/>
<rect x="69" width="69" height="69" stroke="#D8DFE5"/>
<rect x="138" width="69" height="69" stroke="#D8DFE5"/>
<rect x="207" width="69" height="69" stroke="#D8DFE5"/>
<rect x="276" width="69" height="69" stroke="#D8DFE5"/>
<rect x="345" width="69" height="69" stroke="#D8DFE5"/>
<rect x="414" width="69" height="69" stroke="#D8DFE5"/>
<rect x="483" width="69" height="69" stroke="#D8DFE5"/>
<rect x="552" width="69" height="69" stroke="#D8DFE5"/>
<rect x="621" width="69" height="69" stroke="#D8DFE5"/>
<rect x="690" width="69" height="69" stroke="#D8DFE5"/>
<rect x="759" width="69" height="69" stroke="#D8DFE5"/>
<rect x="828" width="69" height="69" stroke="#D8DFE5"/>
<rect x="897" width="69" height="69" stroke="#D8DFE5"/>
<rect x="966" width="69" height="69" stroke="#D8DFE5"/>
<rect x="1035" width="69" height="69" stroke="#D8DFE5"/>
<rect y="69" width="69" height="69" stroke="#D8DFE5"/>
<rect x="69" y="69" width="69" height="69" stroke="#D8DFE5"/>
<rect x="138" y="69" width="69" height="69" stroke="#D8DFE5"/>
<rect x="207" y="69" width="69" height="69" stroke="#D8DFE5"/>
<rect x="276" y="69" width="69" height="69" stroke="#D8DFE5"/>
<rect x="345" y="69" width="69" height="69" stroke="#D8DFE5"/>
<rect x="414" y="69" width="69" height="69" stroke="#D8DFE5"/>
<rect x="483" y="69" width="69" height="69" stroke="#D8DFE5"/>
<rect x="552" y="69" width="69" height="69" stroke="#D8DFE5"/>
<rect x="621" y="69" width="69" height="69" stroke="#D8DFE5"/>
<rect x="690" y="69" width="69" height="69" stroke="#D8DFE5"/>
<rect x="759" y="69" width="69" height="69" stroke="#D8DFE5"/>
<rect x="828" y="69" width="69" height="69" stroke="#D8DFE5"/>
<rect x="897" y="69" width="69" height="69" stroke="#D8DFE5"/>
<rect x="966" y="69" width="69" height="69" stroke="#D8DFE5"/>
<rect x="1035" y="69" width="69" height="69" stroke="#D8DFE5"/>
<rect y="138" width="69" height="69" stroke="#D8DFE5"/>
<rect x="69" y="138" width="69" height="69" stroke="#D8DFE5"/>
<rect x="138" y="138" width="69" height="69" stroke="#D8DFE5"/>
<rect x="207" y="138" width="69" height="69" stroke="#D8DFE5"/>
<rect x="276" y="138" width="69" height="69" stroke="#D8DFE5"/>
<rect x="345" y="138" width="69" height="69" stroke="#D8DFE5"/>
<rect x="414" y="138" width="69" height="69" stroke="#D8DFE5"/>
<rect x="483" y="138" width="69" height="69" stroke="#D8DFE5"/>
<rect x="552" y="138" width="69" height="69" stroke="#D8DFE5"/>
<rect x="621" y="138" width="69" height="69" stroke="#D8DFE5"/>
<rect x="690" y="138" width="69" height="69" stroke="#D8DFE5"/>
<rect x="759" y="138" width="69" height="69" stroke="#D8DFE5"/>
<rect x="828" y="138" width="69" height="69" stroke="#D8DFE5"/>
<rect x="897" y="138" width="69" height="69" stroke="#D8DFE5"/>
<rect x="966" y="138" width="69" height="69" stroke="#D8DFE5"/>
<rect x="1035" y="138" width="69" height="69" stroke="#D8DFE5"/>
<rect y="207" width="69" height="69" stroke="#D8DFE5"/>
<rect x="69" y="207" width="69" height="69" stroke="#D8DFE5"/>
<rect x="138" y="207" width="69" height="69" stroke="#D8DFE5"/>
<rect x="207" y="207" width="69" height="69" stroke="#D8DFE5"/>
<rect x="276" y="207" width="69" height="69" stroke="#D8DFE5"/>
<rect x="345" y="207" width="69" height="69" stroke="#D8DFE5"/>
<rect x="414" y="207" width="69" height="69" stroke="#D8DFE5"/>
<rect x="483" y="207" width="69" height="69" stroke="#D8DFE5"/>
<rect x="552" y="207" width="69" height="69" stroke="#D8DFE5"/>
<rect x="621" y="207" width="69" height="69" stroke="#D8DFE5"/>
<rect x="690" y="207" width="69" height="69" stroke="#D8DFE5"/>
<rect x="759" y="207" width="69" height="69" stroke="#D8DFE5"/>
<rect x="828" y="207" width="69" height="69" stroke="#D8DFE5"/>
<rect x="897" y="207" width="69" height="69" stroke="#D8DFE5"/>
<rect x="966" y="207" width="69" height="69" stroke="#D8DFE5"/>
<rect x="1035" y="207" width="69" height="69" stroke="#D8DFE5"/>
<rect y="276" width="69" height="69" stroke="#D8DFE5"/>
<rect x="69" y="276" width="69" height="69" stroke="#D8DFE5"/>
<rect x="138" y="276" width="69" height="69" stroke="#D8DFE5"/>
<rect x="207" y="276" width="69" height="69" stroke="#D8DFE5"/>
<rect x="276" y="276" width="69" height="69" stroke="#D8DFE5"/>
<rect x="345" y="276" width="69" height="69" stroke="#D8DFE5"/>
<rect x="414" y="276" width="69" height="69" stroke="#D8DFE5"/>
<rect x="483" y="276" width="69" height="69" stroke="#D8DFE5"/>
<rect x="552" y="276" width="69" height="69" stroke="#D8DFE5"/>
<rect x="621" y="276" width="69" height="69" stroke="#D8DFE5"/>
<rect x="690" y="276" width="69" height="69" stroke="#D8DFE5"/>
<rect x="759" y="276" width="69" height="69" stroke="#D8DFE5"/>
<rect x="828" y="276" width="69" height="69" stroke="#D8DFE5"/>
<rect x="897" y="276" width="69" height="69" stroke="#D8DFE5"/>
<rect x="966" y="276" width="69" height="69" stroke="#D8DFE5"/>
<rect x="1035" y="276" width="69" height="69" stroke="#D8DFE5"/>
</g>
<g filter="url(#filter0_dd_1651_23328)">
<g clip-path="url(#clip0_1651_23328)">
<rect x="192" y="127" width="720" height="270" rx="12" fill="white"/>
<rect x="208.5" y="143.5" width="687" height="55" rx="5.5" fill="white"/>
<rect x="224" y="155" width="211" height="32" rx="6" fill="white"/>
<rect x="224" y="155" width="211" height="32" rx="6" fill="black" fill-opacity="0.06"/>
<g clip-path="url(#clip1_1651_23328)">
<path d="M250.023 167.123V164.305C250.395 164.131 250.711 163.854 250.932 163.508C251.154 163.162 251.272 162.76 251.274 162.349V162.284C251.274 161.085 250.303 160.113 249.104 160.113H249.039C247.84 160.113 246.869 161.085 246.869 162.284V162.349C246.871 162.76 246.989 163.162 247.211 163.508C247.432 163.854 247.748 164.131 248.12 164.305V167.123C247.05 167.287 246.041 167.731 245.198 168.41L237.468 162.389C237.523 162.19 237.552 161.986 237.555 161.78C237.556 161.297 237.413 160.823 237.145 160.421C236.877 160.018 236.496 159.704 236.049 159.518C235.603 159.332 235.111 159.283 234.636 159.376C234.162 159.47 233.726 159.702 233.383 160.044C233.041 160.385 232.807 160.82 232.712 161.295C232.617 161.769 232.664 162.261 232.849 162.708C233.033 163.155 233.346 163.538 233.748 163.807C234.15 164.076 234.623 164.22 235.106 164.221C235.529 164.219 235.945 164.106 236.311 163.893L243.922 169.816C242.523 171.93 242.56 174.686 244.017 176.761L241.702 179.077C241.514 179.017 241.319 178.985 241.123 178.982C240.014 178.983 239.116 179.883 239.116 180.991C239.117 182.1 240.015 182.999 241.124 182.999C242.233 182.999 243.132 182.101 243.133 180.992C243.13 180.796 243.098 180.601 243.038 180.414L245.329 178.123C247.375 179.698 250.186 179.834 252.374 178.463C254.563 177.092 255.668 174.504 255.143 171.975C254.619 169.446 252.576 167.511 250.023 167.123V167.123ZM249.074 176.393C248.65 176.405 248.229 176.331 247.835 176.177C247.441 176.023 247.081 175.792 246.778 175.496C246.475 175.201 246.234 174.848 246.069 174.458C245.905 174.068 245.82 173.649 245.82 173.226C245.82 172.803 245.905 172.384 246.069 171.994C246.234 171.604 246.475 171.251 246.778 170.955C247.081 170.66 247.441 170.429 247.835 170.275C248.229 170.121 248.65 170.047 249.074 170.059C250.779 170.118 252.13 171.517 252.131 173.224C252.132 174.93 250.782 176.33 249.077 176.392" fill="#FF7A59"/>
</g>
<path d="M265.979 176H264.348L268.012 165.818H269.787L273.451 176H271.82L268.942 167.668H268.862L265.979 176ZM266.252 172.013H271.542V173.305H266.252V172.013ZM277.896 176.154C277.156 176.154 276.52 175.987 275.987 175.652C275.456 175.314 275.049 174.848 274.763 174.255C274.478 173.662 274.336 172.982 274.336 172.217C274.336 171.441 274.482 170.757 274.773 170.163C275.065 169.567 275.476 169.101 276.006 168.766C276.537 168.432 277.161 168.264 277.881 168.264C278.461 168.264 278.978 168.372 279.432 168.587C279.886 168.799 280.252 169.098 280.531 169.482C280.812 169.867 280.98 170.316 281.033 170.83H279.586C279.506 170.472 279.324 170.163 279.039 169.905C278.757 169.646 278.379 169.517 277.906 169.517C277.491 169.517 277.128 169.626 276.817 169.845C276.509 170.061 276.268 170.369 276.096 170.77C275.924 171.168 275.837 171.638 275.837 172.182C275.837 172.739 275.922 173.219 276.091 173.624C276.26 174.028 276.499 174.341 276.807 174.563C277.118 174.785 277.485 174.896 277.906 174.896C278.187 174.896 278.442 174.845 278.671 174.742C278.903 174.636 279.097 174.485 279.253 174.29C279.412 174.094 279.523 173.859 279.586 173.584H281.033C280.98 174.078 280.819 174.518 280.55 174.906C280.282 175.294 279.922 175.599 279.472 175.821C279.024 176.043 278.499 176.154 277.896 176.154ZM285.839 176.154C285.1 176.154 284.463 175.987 283.93 175.652C283.4 175.314 282.992 174.848 282.707 174.255C282.422 173.662 282.279 172.982 282.279 172.217C282.279 171.441 282.425 170.757 282.717 170.163C283.008 169.567 283.419 169.101 283.95 168.766C284.48 168.432 285.105 168.264 285.824 168.264C286.404 168.264 286.921 168.372 287.375 168.587C287.829 168.799 288.195 169.098 288.474 169.482C288.756 169.867 288.923 170.316 288.976 170.83H287.529C287.45 170.472 287.267 170.163 286.982 169.905C286.701 169.646 286.323 169.517 285.849 169.517C285.435 169.517 285.072 169.626 284.76 169.845C284.452 170.061 284.212 170.369 284.039 170.77C283.867 171.168 283.781 171.638 283.781 172.182C283.781 172.739 283.865 173.219 284.034 173.624C284.203 174.028 284.442 174.341 284.75 174.563C285.062 174.785 285.428 174.896 285.849 174.896C286.131 174.896 286.386 174.845 286.615 174.742C286.847 174.636 287.04 174.485 287.196 174.29C287.355 174.094 287.466 173.859 287.529 173.584H288.976C288.923 174.078 288.762 174.518 288.494 174.906C288.225 175.294 287.866 175.599 287.415 175.821C286.968 176.043 286.442 176.154 285.839 176.154ZM293.782 176.154C293.066 176.154 292.442 175.99 291.908 175.662C291.374 175.334 290.96 174.875 290.665 174.285C290.37 173.695 290.223 173.005 290.223 172.217C290.223 171.424 290.37 170.732 290.665 170.138C290.96 169.545 291.374 169.085 291.908 168.756C292.442 168.428 293.066 168.264 293.782 168.264C294.498 168.264 295.123 168.428 295.657 168.756C296.19 169.085 296.605 169.545 296.9 170.138C297.194 170.732 297.342 171.424 297.342 172.217C297.342 173.005 297.194 173.695 296.9 174.285C296.605 174.875 296.19 175.334 295.657 175.662C295.123 175.99 294.498 176.154 293.782 176.154ZM293.787 174.906C294.251 174.906 294.636 174.784 294.941 174.538C295.246 174.293 295.471 173.967 295.617 173.559C295.766 173.151 295.841 172.702 295.841 172.212C295.841 171.724 295.766 171.277 295.617 170.869C295.471 170.458 295.246 170.129 294.941 169.88C294.636 169.631 294.251 169.507 293.787 169.507C293.32 169.507 292.932 169.631 292.624 169.88C292.319 170.129 292.092 170.458 291.943 170.869C291.797 171.277 291.724 171.724 291.724 172.212C291.724 172.702 291.797 173.151 291.943 173.559C292.092 173.967 292.319 174.293 292.624 174.538C292.932 174.784 293.32 174.906 293.787 174.906ZM303.839 172.833V168.364H305.33V176H303.868V174.678H303.789C303.613 175.085 303.331 175.425 302.944 175.697C302.559 175.965 302.08 176.099 301.507 176.099C301.016 176.099 300.582 175.992 300.204 175.776C299.83 175.558 299.535 175.234 299.319 174.807C299.107 174.379 299.001 173.851 299.001 173.221V168.364H300.488V173.042C300.488 173.562 300.632 173.977 300.92 174.285C301.209 174.593 301.583 174.747 302.044 174.747C302.322 174.747 302.599 174.678 302.874 174.538C303.153 174.399 303.383 174.189 303.565 173.907C303.751 173.625 303.842 173.267 303.839 172.833ZM308.814 171.466V176H307.327V168.364H308.754V169.607H308.849C309.024 169.202 309.299 168.877 309.674 168.632C310.052 168.387 310.527 168.264 311.101 168.264C311.621 168.264 312.077 168.374 312.468 168.592C312.859 168.808 313.162 169.129 313.378 169.557C313.593 169.984 313.701 170.513 313.701 171.143V176H312.214V171.322C312.214 170.768 312.07 170.336 311.782 170.024C311.494 169.709 311.098 169.552 310.594 169.552C310.249 169.552 309.942 169.626 309.674 169.776C309.409 169.925 309.198 170.143 309.043 170.432C308.89 170.717 308.814 171.062 308.814 171.466ZM319.259 168.364V169.557H315.088V168.364H319.259ZM316.207 166.534H317.693V173.758C317.693 174.046 317.736 174.263 317.822 174.409C317.909 174.552 318.02 174.649 318.156 174.702C318.295 174.752 318.446 174.777 318.608 174.777C318.727 174.777 318.832 174.769 318.921 174.752C319.011 174.736 319.08 174.722 319.13 174.712L319.398 175.94C319.312 175.973 319.19 176.007 319.031 176.04C318.871 176.076 318.673 176.096 318.434 176.099C318.043 176.106 317.678 176.036 317.34 175.891C317.002 175.745 316.729 175.519 316.52 175.214C316.311 174.91 316.207 174.527 316.207 174.066V166.534ZM329.108 171.053V172.341H324.594V171.053H329.108ZM338.011 176.154C337.272 176.154 336.635 175.987 336.102 175.652C335.571 175.314 335.164 174.848 334.879 174.255C334.594 173.662 334.451 172.982 334.451 172.217C334.451 171.441 334.597 170.757 334.889 170.163C335.18 169.567 335.591 169.101 336.122 168.766C336.652 168.432 337.277 168.264 337.996 168.264C338.576 168.264 339.093 168.372 339.547 168.587C340.001 168.799 340.367 169.098 340.646 169.482C340.927 169.867 341.095 170.316 341.148 170.83H339.701C339.622 170.472 339.439 170.163 339.154 169.905C338.873 169.646 338.495 169.517 338.021 169.517C337.606 169.517 337.244 169.626 336.932 169.845C336.624 170.061 336.383 170.369 336.211 170.77C336.039 171.168 335.953 171.638 335.953 172.182C335.953 172.739 336.037 173.219 336.206 173.624C336.375 174.028 336.614 174.341 336.922 174.563C337.234 174.785 337.6 174.896 338.021 174.896C338.302 174.896 338.558 174.845 338.786 174.742C339.018 174.636 339.212 174.485 339.368 174.29C339.527 174.094 339.638 173.859 339.701 173.584H341.148C341.095 174.078 340.934 174.518 340.666 174.906C340.397 175.294 340.038 175.599 339.587 175.821C339.139 176.043 338.614 176.154 338.011 176.154ZM342.738 176V168.364H344.174V169.577H344.254C344.393 169.166 344.638 168.843 344.99 168.607C345.344 168.369 345.745 168.249 346.193 168.249C346.286 168.249 346.395 168.253 346.521 168.259C346.65 168.266 346.751 168.274 346.824 168.284V169.706C346.765 169.689 346.658 169.671 346.506 169.651C346.354 169.628 346.201 169.616 346.049 169.616C345.697 169.616 345.384 169.691 345.109 169.84C344.837 169.986 344.622 170.19 344.463 170.452C344.304 170.71 344.224 171.005 344.224 171.337V176H342.738ZM351.128 176.154C350.376 176.154 349.728 175.993 349.184 175.672C348.644 175.347 348.227 174.891 347.932 174.305C347.64 173.715 347.494 173.024 347.494 172.232C347.494 171.449 347.64 170.76 347.932 170.163C348.227 169.567 348.638 169.101 349.165 168.766C349.695 168.432 350.315 168.264 351.024 168.264C351.455 168.264 351.872 168.335 352.277 168.478C352.681 168.621 353.044 168.844 353.366 169.149C353.687 169.454 353.941 169.85 354.126 170.337C354.312 170.821 354.405 171.41 354.405 172.102V172.629H348.334V171.516H352.948C352.948 171.125 352.868 170.778 352.709 170.477C352.55 170.172 352.327 169.931 352.038 169.756C351.753 169.58 351.418 169.492 351.034 169.492C350.616 169.492 350.252 169.595 349.94 169.8C349.632 170.003 349.393 170.268 349.224 170.596C349.059 170.921 348.976 171.274 348.976 171.655V172.525C348.976 173.035 349.065 173.469 349.244 173.827C349.426 174.185 349.68 174.459 350.005 174.648C350.33 174.833 350.709 174.926 351.143 174.926C351.425 174.926 351.682 174.886 351.914 174.807C352.146 174.724 352.346 174.601 352.515 174.439C352.684 174.277 352.814 174.076 352.903 173.837L354.31 174.091C354.198 174.505 353.995 174.868 353.704 175.18C353.415 175.488 353.052 175.728 352.615 175.901C352.181 176.07 351.685 176.154 351.128 176.154ZM358.276 176.169C357.792 176.169 357.355 176.08 356.964 175.901C356.573 175.718 356.263 175.455 356.034 175.11C355.809 174.765 355.696 174.343 355.696 173.842C355.696 173.411 355.779 173.057 355.945 172.778C356.11 172.5 356.334 172.28 356.616 172.117C356.897 171.955 357.212 171.832 357.56 171.749C357.908 171.666 358.263 171.603 358.624 171.56C359.082 171.507 359.453 171.464 359.738 171.431C360.023 171.395 360.23 171.337 360.359 171.257C360.489 171.178 360.553 171.048 360.553 170.869V170.835C360.553 170.4 360.431 170.064 360.185 169.825C359.943 169.587 359.582 169.467 359.102 169.467C358.601 169.467 358.207 169.578 357.918 169.8C357.633 170.019 357.436 170.263 357.327 170.531L355.93 170.213C356.095 169.749 356.337 169.375 356.656 169.089C356.977 168.801 357.347 168.592 357.764 168.463C358.182 168.33 358.621 168.264 359.082 168.264C359.387 168.264 359.71 168.301 360.051 168.374C360.396 168.443 360.717 168.572 361.016 168.761C361.317 168.95 361.564 169.22 361.756 169.572C361.949 169.92 362.045 170.372 362.045 170.929V176H360.593V174.956H360.533C360.437 175.148 360.293 175.337 360.101 175.523C359.909 175.708 359.662 175.862 359.36 175.985C359.058 176.108 358.697 176.169 358.276 176.169ZM358.599 174.976C359.01 174.976 359.362 174.895 359.653 174.732C359.948 174.57 360.172 174.358 360.325 174.096C360.48 173.831 360.558 173.547 360.558 173.246V172.261C360.505 172.314 360.402 172.364 360.25 172.411C360.101 172.454 359.93 172.492 359.738 172.525C359.546 172.555 359.358 172.583 359.176 172.609C358.994 172.633 358.841 172.652 358.719 172.669C358.43 172.705 358.167 172.767 357.928 172.853C357.693 172.939 357.504 173.063 357.362 173.226C357.222 173.385 357.153 173.597 357.153 173.862C357.153 174.23 357.289 174.509 357.56 174.697C357.832 174.883 358.179 174.976 358.599 174.976ZM367.589 168.364V169.557H363.418V168.364H367.589ZM364.537 166.534H366.023V173.758C366.023 174.046 366.066 174.263 366.153 174.409C366.239 174.552 366.35 174.649 366.486 174.702C366.625 174.752 366.776 174.777 366.938 174.777C367.057 174.777 367.162 174.769 367.251 174.752C367.341 174.736 367.41 174.722 367.46 174.712L367.729 175.94C367.642 175.973 367.52 176.007 367.361 176.04C367.202 176.076 367.003 176.096 366.764 176.099C366.373 176.106 366.008 176.036 365.67 175.891C365.332 175.745 365.059 175.519 364.85 175.214C364.641 174.91 364.537 174.527 364.537 174.066V166.534ZM372.443 176.154C371.69 176.154 371.042 175.993 370.499 175.672C369.959 175.347 369.541 174.891 369.246 174.305C368.954 173.715 368.809 173.024 368.809 172.232C368.809 171.449 368.954 170.76 369.246 170.163C369.541 169.567 369.952 169.101 370.479 168.766C371.009 168.432 371.629 168.264 372.338 168.264C372.769 168.264 373.187 168.335 373.591 168.478C373.996 168.621 374.359 168.844 374.68 169.149C375.002 169.454 375.255 169.85 375.441 170.337C375.626 170.821 375.719 171.41 375.719 172.102V172.629H369.649V171.516H374.262C374.262 171.125 374.183 170.778 374.024 170.477C373.865 170.172 373.641 169.931 373.353 169.756C373.068 169.58 372.733 169.492 372.348 169.492C371.931 169.492 371.566 169.595 371.255 169.8C370.946 170.003 370.708 170.268 370.539 170.596C370.373 170.921 370.29 171.274 370.29 171.655V172.525C370.29 173.035 370.38 173.469 370.559 173.827C370.741 174.185 370.994 174.459 371.319 174.648C371.644 174.833 372.024 174.926 372.458 174.926C372.739 174.926 372.996 174.886 373.228 174.807C373.46 174.724 373.661 174.601 373.83 174.439C373.999 174.277 374.128 174.076 374.218 173.837L375.625 174.091C375.512 174.505 375.31 174.868 375.018 175.18C374.73 175.488 374.367 175.728 373.929 175.901C373.495 176.07 373 176.154 372.443 176.154ZM380.227 176.149C379.611 176.149 379.06 175.992 378.577 175.677C378.096 175.359 377.718 174.906 377.443 174.32C377.171 173.73 377.035 173.022 377.035 172.197C377.035 171.371 377.173 170.665 377.448 170.079C377.726 169.492 378.108 169.043 378.591 168.732C379.075 168.42 379.624 168.264 380.237 168.264C380.711 168.264 381.092 168.344 381.381 168.503C381.672 168.659 381.898 168.841 382.057 169.05C382.219 169.259 382.345 169.442 382.434 169.602H382.524V165.818H384.01V176H382.559V174.812H382.434C382.345 174.974 382.216 175.16 382.047 175.369C381.881 175.577 381.652 175.76 381.361 175.915C381.069 176.071 380.691 176.149 380.227 176.149ZM380.555 174.881C380.983 174.881 381.344 174.769 381.639 174.543C381.937 174.315 382.163 173.998 382.315 173.594C382.471 173.189 382.549 172.719 382.549 172.182C382.549 171.652 382.473 171.187 382.32 170.79C382.168 170.392 381.944 170.082 381.649 169.86C381.354 169.638 380.989 169.527 380.555 169.527C380.108 169.527 379.735 169.643 379.437 169.875C379.138 170.107 378.913 170.424 378.76 170.825C378.611 171.226 378.537 171.678 378.537 172.182C378.537 172.692 378.613 173.151 378.765 173.559C378.918 173.967 379.143 174.29 379.442 174.528C379.743 174.764 380.114 174.881 380.555 174.881ZM388.354 176.169C387.871 176.169 387.433 176.08 387.042 175.901C386.651 175.718 386.341 175.455 386.112 175.11C385.887 174.765 385.774 174.343 385.774 173.842C385.774 173.411 385.857 173.057 386.023 172.778C386.188 172.5 386.412 172.28 386.694 172.117C386.976 171.955 387.29 171.832 387.638 171.749C387.987 171.666 388.341 171.603 388.702 171.56C389.16 171.507 389.531 171.464 389.816 171.431C390.101 171.395 390.308 171.337 390.438 171.257C390.567 171.178 390.631 171.048 390.631 170.869V170.835C390.631 170.4 390.509 170.064 390.263 169.825C390.022 169.587 389.66 169.467 389.18 169.467C388.679 169.467 388.285 169.578 387.996 169.8C387.711 170.019 387.514 170.263 387.405 170.531L386.008 170.213C386.174 169.749 386.415 169.375 386.734 169.089C387.055 168.801 387.425 168.592 387.842 168.463C388.26 168.33 388.699 168.264 389.16 168.264C389.465 168.264 389.788 168.301 390.129 168.374C390.474 168.443 390.795 168.572 391.094 168.761C391.395 168.95 391.642 169.22 391.835 169.572C392.027 169.92 392.123 170.372 392.123 170.929V176H390.671V174.956H390.612C390.515 175.148 390.371 175.337 390.179 175.523C389.987 175.708 389.74 175.862 389.438 175.985C389.137 176.108 388.775 176.169 388.354 176.169ZM388.678 174.976C389.089 174.976 389.44 174.895 389.732 174.732C390.027 174.57 390.25 174.358 390.403 174.096C390.558 173.831 390.636 173.547 390.636 173.246V172.261C390.583 172.314 390.481 172.364 390.328 172.411C390.179 172.454 390.008 172.492 389.816 172.525C389.624 172.555 389.437 172.583 389.254 172.609C389.072 172.633 388.92 172.652 388.797 172.669C388.509 172.705 388.245 172.767 388.006 172.853C387.771 172.939 387.582 173.063 387.44 173.226C387.3 173.385 387.231 173.597 387.231 173.862C387.231 174.23 387.367 174.509 387.638 174.697C387.91 174.883 388.257 174.976 388.678 174.976ZM397.667 168.364V169.557H393.496V168.364H397.667ZM394.615 166.534H396.101V173.758C396.101 174.046 396.144 174.263 396.231 174.409C396.317 174.552 396.428 174.649 396.564 174.702C396.703 174.752 396.854 174.777 397.016 174.777C397.135 174.777 397.24 174.769 397.329 174.752C397.419 174.736 397.488 174.722 397.538 174.712L397.807 175.94C397.72 175.973 397.598 176.007 397.439 176.04C397.28 176.076 397.081 176.096 396.842 176.099C396.451 176.106 396.086 176.036 395.748 175.891C395.41 175.745 395.137 175.519 394.928 175.214C394.719 174.91 394.615 174.527 394.615 174.066V166.534ZM402.521 176.154C401.769 176.154 401.121 175.993 400.577 175.672C400.037 175.347 399.619 174.891 399.324 174.305C399.033 173.715 398.887 173.024 398.887 172.232C398.887 171.449 399.033 170.76 399.324 170.163C399.619 169.567 400.03 169.101 400.557 168.766C401.087 168.432 401.707 168.264 402.417 168.264C402.847 168.264 403.265 168.335 403.669 168.478C404.074 168.621 404.437 168.844 404.758 169.149C405.08 169.454 405.333 169.85 405.519 170.337C405.704 170.821 405.797 171.41 405.797 172.102V172.629H399.727V171.516H404.341C404.341 171.125 404.261 170.778 404.102 170.477C403.943 170.172 403.719 169.931 403.431 169.756C403.146 169.58 402.811 169.492 402.426 169.492C402.009 169.492 401.644 169.595 401.333 169.8C401.025 170.003 400.786 170.268 400.617 170.596C400.451 170.921 400.368 171.274 400.368 171.655V172.525C400.368 173.035 400.458 173.469 400.637 173.827C400.819 174.185 401.073 174.459 401.397 174.648C401.722 174.833 402.102 174.926 402.536 174.926C402.818 174.926 403.074 174.886 403.306 174.807C403.538 174.724 403.739 174.601 403.908 174.439C404.077 174.277 404.206 174.076 404.296 173.837L405.703 174.091C405.59 174.505 405.388 174.868 405.096 175.18C404.808 175.488 404.445 175.728 404.007 175.901C403.573 176.07 403.078 176.154 402.521 176.154Z" fill="#171923"/>
<path fill-rule="evenodd" clip-rule="evenodd" d="M424.22 168.97C424.513 168.677 424.987 168.677 425.28 168.97C425.573 169.263 425.573 169.737 425.28 170.03L421.53 173.78C421.237 174.073 420.763 174.073 420.47 173.78L416.72 170.03C416.427 169.737 416.427 169.263 416.72 168.97C417.013 168.677 417.487 168.677 417.78 168.97L421 172.189L424.22 168.97Z" fill="#26282C"/>
<rect x="443" y="155" width="119" height="32" rx="6" fill="white"/>
<rect x="443" y="155" width="119" height="32" rx="6" fill="black" fill-opacity="0.06"/>
<path d="M453.486 171.466V176H451.999V165.818H453.466V169.607H453.56C453.739 169.196 454.013 168.869 454.381 168.627C454.749 168.385 455.229 168.264 455.822 168.264C456.346 168.264 456.804 168.372 457.195 168.587C457.589 168.803 457.894 169.124 458.109 169.552C458.328 169.976 458.438 170.506 458.438 171.143V176H456.951V171.322C456.951 170.762 456.807 170.327 456.518 170.019C456.23 169.708 455.829 169.552 455.315 169.552C454.964 169.552 454.649 169.626 454.371 169.776C454.096 169.925 453.879 170.143 453.719 170.432C453.564 170.717 453.486 171.062 453.486 171.466ZM462.643 176.169C462.16 176.169 461.722 176.08 461.331 175.901C460.94 175.718 460.63 175.455 460.401 175.11C460.176 174.765 460.063 174.343 460.063 173.842C460.063 173.411 460.146 173.057 460.312 172.778C460.478 172.5 460.701 172.28 460.983 172.117C461.265 171.955 461.58 171.832 461.928 171.749C462.276 171.666 462.63 171.603 462.991 171.56C463.449 171.507 463.82 171.464 464.105 171.431C464.39 171.395 464.597 171.337 464.727 171.257C464.856 171.178 464.92 171.048 464.92 170.869V170.835C464.92 170.4 464.798 170.064 464.553 169.825C464.311 169.587 463.949 169.467 463.469 169.467C462.968 169.467 462.574 169.578 462.286 169.8C462 170.019 461.803 170.263 461.694 170.531L460.297 170.213C460.463 169.749 460.705 169.375 461.023 169.089C461.344 168.801 461.714 168.592 462.131 168.463C462.549 168.33 462.988 168.264 463.449 168.264C463.754 168.264 464.077 168.301 464.418 168.374C464.763 168.443 465.085 168.572 465.383 168.761C465.684 168.95 465.931 169.22 466.124 169.572C466.316 169.92 466.412 170.372 466.412 170.929V176H464.96V174.956H464.901C464.804 175.148 464.66 175.337 464.468 175.523C464.276 175.708 464.029 175.862 463.727 175.985C463.426 176.108 463.064 176.169 462.643 176.169ZM462.967 174.976C463.378 174.976 463.729 174.895 464.021 174.732C464.316 174.57 464.539 174.358 464.692 174.096C464.848 173.831 464.925 173.547 464.925 173.246V172.261C464.872 172.314 464.77 172.364 464.617 172.411C464.468 172.454 464.297 172.492 464.105 172.525C463.913 172.555 463.726 172.583 463.543 172.609C463.361 172.633 463.209 172.652 463.086 172.669C462.798 172.705 462.534 172.767 462.295 172.853C462.06 172.939 461.871 173.063 461.729 173.226C461.589 173.385 461.52 173.597 461.52 173.862C461.52 174.23 461.656 174.509 461.928 174.697C462.199 174.883 462.546 174.976 462.967 174.976ZM474.114 170.228L472.767 170.467C472.711 170.294 472.621 170.13 472.498 169.974C472.379 169.819 472.217 169.691 472.011 169.592C471.806 169.492 471.549 169.442 471.241 169.442C470.82 169.442 470.468 169.537 470.187 169.726C469.905 169.911 469.764 170.152 469.764 170.447C469.764 170.702 469.858 170.907 470.047 171.063C470.236 171.219 470.541 171.347 470.962 171.446L472.175 171.724C472.878 171.887 473.402 172.137 473.746 172.475C474.091 172.813 474.263 173.252 474.263 173.793C474.263 174.25 474.131 174.658 473.866 175.016C473.604 175.37 473.238 175.649 472.767 175.851C472.3 176.053 471.758 176.154 471.141 176.154C470.286 176.154 469.588 175.972 469.048 175.607C468.508 175.239 468.176 174.717 468.054 174.041L469.491 173.822C469.58 174.197 469.764 174.48 470.042 174.673C470.321 174.862 470.684 174.956 471.131 174.956C471.618 174.956 472.008 174.855 472.3 174.653C472.591 174.447 472.737 174.197 472.737 173.902C472.737 173.663 472.648 173.463 472.469 173.3C472.293 173.138 472.023 173.015 471.658 172.933L470.366 172.649C469.653 172.487 469.126 172.228 468.785 171.874C468.447 171.519 468.278 171.07 468.278 170.526C468.278 170.076 468.403 169.681 468.655 169.343C468.907 169.005 469.255 168.741 469.699 168.553C470.144 168.36 470.652 168.264 471.226 168.264C472.051 168.264 472.701 168.443 473.175 168.801C473.648 169.156 473.962 169.631 474.114 170.228ZM482.819 176.154C482.104 176.154 481.479 175.99 480.945 175.662C480.412 175.334 479.997 174.875 479.702 174.285C479.407 173.695 479.26 173.005 479.26 172.217C479.26 171.424 479.407 170.732 479.702 170.138C479.997 169.545 480.412 169.085 480.945 168.756C481.479 168.428 482.104 168.264 482.819 168.264C483.535 168.264 484.16 168.428 484.694 168.756C485.227 169.085 485.642 169.545 485.937 170.138C486.232 170.732 486.379 171.424 486.379 172.217C486.379 173.005 486.232 173.695 485.937 174.285C485.642 174.875 485.227 175.334 484.694 175.662C484.16 175.99 483.535 176.154 482.819 176.154ZM482.824 174.906C483.288 174.906 483.673 174.784 483.978 174.538C484.283 174.293 484.508 173.967 484.654 173.559C484.803 173.151 484.878 172.702 484.878 172.212C484.878 171.724 484.803 171.277 484.654 170.869C484.508 170.458 484.283 170.129 483.978 169.88C483.673 169.631 483.288 169.507 482.824 169.507C482.357 169.507 481.969 169.631 481.661 169.88C481.356 170.129 481.129 170.458 480.98 170.869C480.834 171.277 480.761 171.724 480.761 172.212C480.761 172.702 480.834 173.151 480.98 173.559C481.129 173.967 481.356 174.293 481.661 174.538C481.969 174.784 482.357 174.906 482.824 174.906ZM491.255 176.154C490.516 176.154 489.879 175.987 489.346 175.652C488.816 175.314 488.408 174.848 488.123 174.255C487.838 173.662 487.695 172.982 487.695 172.217C487.695 171.441 487.841 170.757 488.133 170.163C488.424 169.567 488.835 169.101 489.366 168.766C489.896 168.432 490.521 168.264 491.24 168.264C491.82 168.264 492.337 168.372 492.791 168.587C493.245 168.799 493.612 169.098 493.89 169.482C494.172 169.867 494.339 170.316 494.392 170.83H492.945C492.866 170.472 492.683 170.163 492.398 169.905C492.117 169.646 491.739 169.517 491.265 169.517C490.851 169.517 490.488 169.626 490.176 169.845C489.868 170.061 489.628 170.369 489.455 170.77C489.283 171.168 489.197 171.638 489.197 172.182C489.197 172.739 489.281 173.219 489.45 173.624C489.619 174.028 489.858 174.341 490.166 174.563C490.478 174.785 490.844 174.896 491.265 174.896C491.547 174.896 491.802 174.845 492.031 174.742C492.263 174.636 492.456 174.485 492.612 174.29C492.771 174.094 492.882 173.859 492.945 173.584H494.392C494.339 174.078 494.178 174.518 493.91 174.906C493.641 175.294 493.282 175.599 492.831 175.821C492.384 176.043 491.858 176.154 491.255 176.154ZM499.198 176.154C498.459 176.154 497.823 175.987 497.289 175.652C496.759 175.314 496.351 174.848 496.066 174.255C495.781 173.662 495.639 172.982 495.639 172.217C495.639 171.441 495.785 170.757 496.076 170.163C496.368 169.567 496.779 169.101 497.309 168.766C497.839 168.432 498.464 168.264 499.183 168.264C499.763 168.264 500.28 168.372 500.735 168.587C501.189 168.799 501.555 169.098 501.833 169.482C502.115 169.867 502.282 170.316 502.335 170.83H500.889C500.809 170.472 500.627 170.163 500.342 169.905C500.06 169.646 499.682 169.517 499.208 169.517C498.794 169.517 498.431 169.626 498.119 169.845C497.811 170.061 497.571 170.369 497.399 170.77C497.226 171.168 497.14 171.638 497.14 172.182C497.14 172.739 497.225 173.219 497.394 173.624C497.563 174.028 497.801 174.341 498.11 174.563C498.421 174.785 498.787 174.896 499.208 174.896C499.49 174.896 499.745 174.845 499.974 174.742C500.206 174.636 500.4 174.485 500.556 174.29C500.715 174.094 500.826 173.859 500.889 173.584H502.335C502.282 174.078 502.122 174.518 501.853 174.906C501.585 175.294 501.225 175.599 500.774 175.821C500.327 176.043 499.802 176.154 499.198 176.154ZM508.762 172.833V168.364H510.254V176H508.792V174.678H508.713C508.537 175.085 508.255 175.425 507.868 175.697C507.483 175.965 507.004 176.099 506.431 176.099C505.94 176.099 505.506 175.992 505.128 175.776C504.754 175.558 504.459 175.234 504.243 174.807C504.031 174.379 503.925 173.851 503.925 173.221V168.364H505.412V173.042C505.412 173.562 505.556 173.977 505.844 174.285C506.132 174.593 506.507 174.747 506.968 174.747C507.246 174.747 507.523 174.678 507.798 174.538C508.076 174.399 508.307 174.189 508.489 173.907C508.675 173.625 508.766 173.267 508.762 172.833ZM512.251 176V168.364H513.688V169.577H513.768C513.907 169.166 514.152 168.843 514.503 168.607C514.858 168.369 515.259 168.249 515.706 168.249C515.799 168.249 515.909 168.253 516.035 168.259C516.164 168.266 516.265 168.274 516.338 168.284V169.706C516.278 169.689 516.172 169.671 516.02 169.651C515.867 169.628 515.715 169.616 515.562 169.616C515.211 169.616 514.898 169.691 514.623 169.84C514.351 169.986 514.135 170.19 513.976 170.452C513.817 170.71 513.738 171.005 513.738 171.337V176H512.251ZM520.642 176.154C519.89 176.154 519.242 175.993 518.698 175.672C518.158 175.347 517.74 174.891 517.445 174.305C517.154 173.715 517.008 173.024 517.008 172.232C517.008 171.449 517.154 170.76 517.445 170.163C517.74 169.567 518.151 169.101 518.678 168.766C519.209 168.432 519.828 168.264 520.538 168.264C520.969 168.264 521.386 168.335 521.79 168.478C522.195 168.621 522.558 168.844 522.879 169.149C523.201 169.454 523.454 169.85 523.64 170.337C523.826 170.821 523.918 171.41 523.918 172.102V172.629H517.848V171.516H522.462C522.462 171.125 522.382 170.778 522.223 170.477C522.064 170.172 521.84 169.931 521.552 169.756C521.267 169.58 520.932 169.492 520.548 169.492C520.13 169.492 519.765 169.595 519.454 169.8C519.146 170.003 518.907 170.268 518.738 170.596C518.572 170.921 518.489 171.274 518.489 171.655V172.525C518.489 173.035 518.579 173.469 518.758 173.827C518.94 174.185 519.194 174.459 519.518 174.648C519.843 174.833 520.223 174.926 520.657 174.926C520.939 174.926 521.196 174.886 521.428 174.807C521.66 174.724 521.86 174.601 522.029 174.439C522.198 174.277 522.327 174.076 522.417 173.837L523.824 174.091C523.711 174.505 523.509 174.868 523.217 175.18C522.929 175.488 522.566 175.728 522.129 175.901C521.694 176.07 521.199 176.154 520.642 176.154ZM528.426 176.149C527.81 176.149 527.26 175.992 526.776 175.677C526.295 175.359 525.917 174.906 525.642 174.32C525.37 173.73 525.235 173.022 525.235 172.197C525.235 171.371 525.372 170.665 525.647 170.079C525.926 169.492 526.307 169.043 526.791 168.732C527.275 168.42 527.823 168.264 528.436 168.264C528.91 168.264 529.291 168.344 529.58 168.503C529.871 168.659 530.097 168.841 530.256 169.05C530.418 169.259 530.544 169.442 530.634 169.602H530.723V165.818H532.21V176H530.758V174.812H530.634C530.544 174.974 530.415 175.16 530.246 175.369C530.08 175.577 529.852 175.76 529.56 175.915C529.268 176.071 528.89 176.149 528.426 176.149ZM528.754 174.881C529.182 174.881 529.543 174.769 529.838 174.543C530.137 174.315 530.362 173.998 530.514 173.594C530.67 173.189 530.748 172.719 530.748 172.182C530.748 171.652 530.672 171.187 530.519 170.79C530.367 170.392 530.143 170.082 529.848 169.86C529.553 169.638 529.189 169.527 528.754 169.527C528.307 169.527 527.934 169.643 527.636 169.875C527.338 170.107 527.112 170.424 526.96 170.825C526.811 171.226 526.736 171.678 526.736 172.182C526.736 172.692 526.812 173.151 526.965 173.559C527.117 173.967 527.343 174.29 527.641 174.528C527.942 174.764 528.314 174.881 528.754 174.881Z" fill="#171923"/>
<path fill-rule="evenodd" clip-rule="evenodd" d="M551.22 168.97C551.513 168.677 551.987 168.677 552.28 168.97C552.573 169.263 552.573 169.737 552.28 170.03L548.53 173.78C548.237 174.073 547.763 174.073 547.47 173.78L543.72 170.03C543.427 169.737 543.427 169.263 543.72 168.97C544.013 168.677 544.487 168.677 544.78 168.97L548 172.189L551.22 168.97Z" fill="#171923"/>
<rect x="570" y="155" width="107" height="32" rx="6" fill="#00B5D8"/>
<path d="M580.486 165.818V176H578.999V165.818H580.486ZM584.708 176.169C584.224 176.169 583.787 176.08 583.395 175.901C583.004 175.718 582.694 175.455 582.466 175.11C582.24 174.765 582.128 174.343 582.128 173.842C582.128 173.411 582.211 173.057 582.376 172.778C582.542 172.5 582.766 172.28 583.047 172.117C583.329 171.955 583.644 171.832 583.992 171.749C584.34 171.666 584.695 171.603 585.056 171.56C585.513 171.507 585.885 171.464 586.17 171.431C586.455 171.395 586.662 171.337 586.791 171.257C586.92 171.178 586.985 171.048 586.985 170.869V170.835C586.985 170.4 586.862 170.064 586.617 169.825C586.375 169.587 586.014 169.467 585.533 169.467C585.033 169.467 584.638 169.578 584.35 169.8C584.065 170.019 583.868 170.263 583.758 170.531L582.361 170.213C582.527 169.749 582.769 169.375 583.087 169.089C583.409 168.801 583.778 168.592 584.196 168.463C584.613 168.33 585.053 168.264 585.513 168.264C585.818 168.264 586.141 168.301 586.483 168.374C586.827 168.443 587.149 168.572 587.447 168.761C587.749 168.95 587.996 169.22 588.188 169.572C588.38 169.92 588.476 170.372 588.476 170.929V176H587.025V174.956H586.965C586.869 175.148 586.725 175.337 586.532 175.523C586.34 175.708 586.093 175.862 585.792 175.985C585.49 176.108 585.129 176.169 584.708 176.169ZM585.031 174.976C585.442 174.976 585.793 174.895 586.085 174.732C586.38 174.57 586.604 174.358 586.756 174.096C586.912 173.831 586.99 173.547 586.99 173.246V172.261C586.937 172.314 586.834 172.364 586.682 172.411C586.532 172.454 586.362 172.492 586.17 172.525C585.977 172.555 585.79 172.583 585.608 172.609C585.425 172.633 585.273 172.652 585.15 172.669C584.862 172.705 584.599 172.767 584.36 172.853C584.125 172.939 583.936 173.063 583.793 173.226C583.654 173.385 583.584 173.597 583.584 173.862C583.584 174.23 583.72 174.509 583.992 174.697C584.264 174.883 584.61 174.976 585.031 174.976ZM596.179 170.228L594.831 170.467C594.775 170.294 594.685 170.13 594.563 169.974C594.444 169.819 594.281 169.691 594.076 169.592C593.87 169.492 593.613 169.442 593.305 169.442C592.884 169.442 592.533 169.537 592.251 169.726C591.969 169.911 591.828 170.152 591.828 170.447C591.828 170.702 591.923 170.907 592.112 171.063C592.301 171.219 592.606 171.347 593.027 171.446L594.24 171.724C594.942 171.887 595.466 172.137 595.811 172.475C596.155 172.813 596.328 173.252 596.328 173.793C596.328 174.25 596.195 174.658 595.93 175.016C595.668 175.37 595.302 175.649 594.831 175.851C594.364 176.053 593.822 176.154 593.206 176.154C592.35 176.154 591.653 175.972 591.113 175.607C590.572 175.239 590.241 174.717 590.118 174.041L591.555 173.822C591.645 174.197 591.828 174.48 592.107 174.673C592.385 174.862 592.748 174.956 593.196 174.956C593.683 174.956 594.072 174.855 594.364 174.653C594.656 174.447 594.801 174.197 594.801 173.902C594.801 173.663 594.712 173.463 594.533 173.3C594.357 173.138 594.087 173.015 593.723 172.933L592.43 172.649C591.717 172.487 591.19 172.228 590.849 171.874C590.511 171.519 590.342 171.07 590.342 170.526C590.342 170.076 590.468 169.681 590.72 169.343C590.972 169.005 591.32 168.741 591.764 168.553C592.208 168.36 592.717 168.264 593.29 168.264C594.115 168.264 594.765 168.443 595.239 168.801C595.713 169.156 596.026 169.631 596.179 170.228ZM601.527 168.364V169.557H597.356V168.364H601.527ZM598.474 166.534H599.961V173.758C599.961 174.046 600.004 174.263 600.09 174.409C600.176 174.552 600.287 174.649 600.423 174.702C600.562 174.752 600.713 174.777 600.876 174.777C600.995 174.777 601.099 174.769 601.189 174.752C601.278 174.736 601.348 174.722 601.398 174.712L601.666 175.94C601.58 175.973 601.457 176.007 601.298 176.04C601.139 176.076 600.94 176.096 600.702 176.099C600.31 176.106 599.946 176.036 599.608 175.891C599.27 175.745 598.996 175.519 598.787 175.214C598.579 174.91 598.474 174.527 598.474 174.066V166.534ZM606.876 176V168.364H608.303V169.607H608.398C608.557 169.186 608.817 168.857 609.178 168.622C609.539 168.384 609.972 168.264 610.476 168.264C610.986 168.264 611.414 168.384 611.758 168.622C612.106 168.861 612.363 169.189 612.529 169.607H612.608C612.791 169.199 613.081 168.874 613.479 168.632C613.876 168.387 614.35 168.264 614.9 168.264C615.593 168.264 616.158 168.481 616.596 168.915C617.037 169.35 617.257 170.004 617.257 170.879V176H615.77V171.018C615.77 170.501 615.63 170.127 615.348 169.895C615.066 169.663 614.73 169.547 614.339 169.547C613.855 169.547 613.479 169.696 613.21 169.994C612.942 170.289 612.807 170.669 612.807 171.133V176H611.326V170.924C611.326 170.51 611.197 170.177 610.938 169.925C610.68 169.673 610.343 169.547 609.929 169.547C609.647 169.547 609.387 169.621 609.148 169.771C608.913 169.916 608.722 170.12 608.577 170.382C608.434 170.644 608.363 170.947 608.363 171.292V176H606.876ZM622.466 176.154C621.75 176.154 621.125 175.99 620.592 175.662C620.058 175.334 619.644 174.875 619.349 174.285C619.054 173.695 618.906 173.005 618.906 172.217C618.906 171.424 619.054 170.732 619.349 170.138C619.644 169.545 620.058 169.085 620.592 168.756C621.125 168.428 621.75 168.264 622.466 168.264C623.182 168.264 623.807 168.428 624.34 168.756C624.874 169.085 625.288 169.545 625.583 170.138C625.878 170.732 626.026 171.424 626.026 172.217C626.026 173.005 625.878 173.695 625.583 174.285C625.288 174.875 624.874 175.334 624.34 175.662C623.807 175.99 623.182 176.154 622.466 176.154ZM622.471 174.906C622.935 174.906 623.319 174.784 623.624 174.538C623.929 174.293 624.155 173.967 624.3 173.559C624.45 173.151 624.524 172.702 624.524 172.212C624.524 171.724 624.45 171.277 624.3 170.869C624.155 170.458 623.929 170.129 623.624 169.88C623.319 169.631 622.935 169.507 622.471 169.507C622.004 169.507 621.616 169.631 621.308 169.88C621.003 170.129 620.776 170.458 620.626 170.869C620.481 171.277 620.408 171.724 620.408 172.212C620.408 172.702 620.481 173.151 620.626 173.559C620.776 173.967 621.003 174.293 621.308 174.538C621.616 174.784 622.004 174.906 622.471 174.906ZM629.171 171.466V176H627.685V168.364H629.112V169.607H629.206C629.382 169.202 629.657 168.877 630.031 168.632C630.409 168.387 630.885 168.264 631.458 168.264C631.979 168.264 632.434 168.374 632.825 168.592C633.217 168.808 633.52 169.129 633.735 169.557C633.951 169.984 634.058 170.513 634.058 171.143V176H632.572V171.322C632.572 170.768 632.428 170.336 632.139 170.024C631.851 169.709 631.455 169.552 630.951 169.552C630.606 169.552 630.3 169.626 630.031 169.776C629.766 169.925 629.556 170.143 629.4 170.432C629.248 170.717 629.171 171.062 629.171 171.466ZM639.617 168.364V169.557H635.445V168.364H639.617ZM636.564 166.534H638.051V173.758C638.051 174.046 638.094 174.263 638.18 174.409C638.266 174.552 638.377 174.649 638.513 174.702C638.652 174.752 638.803 174.777 638.965 174.777C639.085 174.777 639.189 174.769 639.279 174.752C639.368 174.736 639.438 174.722 639.487 174.712L639.756 175.94C639.67 175.973 639.547 176.007 639.388 176.04C639.229 176.076 639.03 176.096 638.791 176.099C638.4 176.106 638.036 176.036 637.698 175.891C637.36 175.745 637.086 175.519 636.877 175.214C636.669 174.91 636.564 174.527 636.564 174.066V166.534ZM642.912 171.466V176H641.425V165.818H642.892V169.607H642.986C643.165 169.196 643.439 168.869 643.806 168.627C644.174 168.385 644.655 168.264 645.248 168.264C645.772 168.264 646.229 168.372 646.62 168.587C647.015 168.803 647.32 169.124 647.535 169.552C647.754 169.976 647.863 170.506 647.863 171.143V176H646.377V171.322C646.377 170.762 646.233 170.327 645.944 170.019C645.656 169.708 645.255 169.552 644.741 169.552C644.39 169.552 644.075 169.626 643.797 169.776C643.521 169.925 643.304 170.143 643.145 170.432C642.989 170.717 642.912 171.062 642.912 171.466Z" fill="white"/>
<path fill-rule="evenodd" clip-rule="evenodd" d="M666.22 168.97C666.513 168.677 666.987 168.677 667.28 168.97C667.573 169.263 667.573 169.737 667.28 170.03L663.53 173.78C663.237 174.073 662.763 174.073 662.47 173.78L658.72 170.03C658.427 169.737 658.427 169.263 658.72 168.97C659.013 168.677 659.487 168.677 659.78 168.97L663 172.189L666.22 168.97Z" fill="white"/>
<path d="M868 161.25C862.624 161.25 858.25 165.624 858.25 171C858.25 176.376 862.624 180.75 868 180.75C873.376 180.75 877.75 176.376 877.75 171C877.75 165.624 873.376 161.25 868 161.25ZM873.074 167.732L866.774 175.232C866.705 175.315 866.619 175.381 866.522 175.427C866.425 175.474 866.319 175.498 866.212 175.5H866.199C866.094 175.5 865.99 175.478 865.894 175.435C865.798 175.392 865.712 175.33 865.642 175.252L862.942 172.252C862.873 172.179 862.82 172.093 862.785 171.999C862.75 171.906 862.734 171.806 862.738 171.706C862.742 171.606 862.766 171.508 862.809 171.418C862.851 171.327 862.911 171.246 862.986 171.18C863.06 171.113 863.147 171.061 863.241 171.029C863.336 170.996 863.436 170.982 863.536 170.989C863.635 170.995 863.733 171.021 863.822 171.066C863.912 171.111 863.991 171.173 864.056 171.248L866.179 173.607L871.926 166.768C872.055 166.619 872.237 166.526 872.433 166.511C872.63 166.495 872.825 166.557 872.975 166.684C873.126 166.811 873.221 166.992 873.24 167.188C873.258 167.384 873.199 167.58 873.074 167.732Z" fill="#38A169"/>
<rect x="208.5" y="143.5" width="687" height="55" rx="5.5" stroke="#CBD5E0"/>
<path d="M209.979 242H208.348L212.012 231.818H213.787L217.451 242H215.82L212.942 233.668H212.862L209.979 242ZM210.252 238.013H215.542V239.305H210.252V238.013ZM227.139 231.818V242H225.727L220.552 234.533H220.458V242H218.921V231.818H220.343L225.524 239.295H225.618V231.818H227.139ZM232.676 242H229.38V231.818H232.781C233.779 231.818 234.635 232.022 235.351 232.43C236.067 232.834 236.616 233.416 236.997 234.175C237.381 234.93 237.574 235.837 237.574 236.894C237.574 237.955 237.38 238.866 236.992 239.629C236.607 240.391 236.051 240.978 235.321 241.388C234.592 241.796 233.711 242 232.676 242ZM230.917 240.658H232.592C233.368 240.658 234.012 240.512 234.526 240.22C235.04 239.925 235.424 239.499 235.679 238.942C235.935 238.382 236.062 237.7 236.062 236.894C236.062 236.095 235.935 235.418 235.679 234.861C235.427 234.304 235.051 233.881 234.551 233.593C234.05 233.305 233.429 233.161 232.686 233.161H230.917V240.658Z" fill="white"/>
<path d="M209.979 242V243H210.691L210.924 242.327L209.979 242ZM208.348 242L207.407 241.661L206.925 243H208.348V242ZM212.012 231.818V230.818H211.309L211.071 231.48L212.012 231.818ZM213.787 231.818L214.728 231.48L214.49 230.818H213.787V231.818ZM217.451 242V243H218.874L218.392 241.661L217.451 242ZM215.82 242L214.875 242.327L215.108 243H215.82V242ZM212.942 233.668L213.887 233.341L213.654 232.668H212.942V233.668ZM212.862 233.668V232.668H212.15L211.917 233.341L212.862 233.668ZM210.252 238.013V237.013H209.252V238.013H210.252ZM215.542 238.013H216.542V237.013H215.542V238.013ZM215.542 239.305V240.305H216.542V239.305H215.542ZM210.252 239.305H209.252V240.305H210.252V239.305ZM209.979 241H208.348V243H209.979V241ZM209.289 242.339L212.953 232.157L211.071 231.48L207.407 241.661L209.289 242.339ZM212.012 232.818H213.787V230.818H212.012V232.818ZM212.846 232.157L216.51 242.339L218.392 241.661L214.728 231.48L212.846 232.157ZM217.451 241H215.82V243H217.451V241ZM216.765 241.673L213.887 233.341L211.997 233.994L214.875 242.327L216.765 241.673ZM212.942 232.668H212.862V234.668H212.942V232.668ZM211.917 233.341L209.034 241.673L210.924 242.327L213.807 233.995L211.917 233.341ZM210.252 239.013H215.542V237.013H210.252V239.013ZM214.542 238.013V239.305H216.542V238.013H214.542ZM215.542 238.305H210.252V240.305H215.542V238.305ZM211.252 239.305V238.013H209.252V239.305H211.252ZM227.139 231.818H228.139V230.818H227.139V231.818ZM227.139 242V243H228.139V242H227.139ZM225.727 242L224.906 242.57L225.204 243H225.727V242ZM220.552 234.533L221.374 233.963L221.076 233.533H220.552V234.533ZM220.458 234.533V233.533H219.458V234.533H220.458ZM220.458 242V243H221.458V242H220.458ZM218.921 242H217.921V243H218.921V242ZM218.921 231.818V230.818H217.921V231.818H218.921ZM220.343 231.818L221.165 231.249L220.867 230.818H220.343V231.818ZM225.524 239.295L224.702 239.865L225 240.295H225.524V239.295ZM225.618 239.295V240.295H226.618V239.295H225.618ZM225.618 231.818V230.818H224.618V231.818H225.618ZM226.139 231.818V242H228.139V231.818H226.139ZM227.139 241H225.727V243H227.139V241ZM226.549 241.43L221.374 233.963L219.73 235.102L224.906 242.57L226.549 241.43ZM220.552 233.533H220.458V235.533H220.552V233.533ZM219.458 234.533V242H221.458V234.533H219.458ZM220.458 241H218.921V243H220.458V241ZM219.921 242V231.818H217.921V242H219.921ZM218.921 232.818H220.343V230.818H218.921V232.818ZM219.521 232.388L224.702 239.865L226.346 238.726L221.165 231.249L219.521 232.388ZM225.524 240.295H225.618V238.295H225.524V240.295ZM226.618 239.295V231.818H224.618V239.295H226.618ZM225.618 232.818H227.139V230.818H225.618V232.818ZM229.38 242H228.38V243H229.38V242ZM229.38 231.818V230.818H228.38V231.818H229.38ZM235.351 232.43L234.856 233.299L234.859 233.3L235.351 232.43ZM236.997 234.175L236.103 234.623L236.106 234.628L236.997 234.175ZM236.992 239.629L236.101 239.175L236.099 239.178L236.992 239.629ZM235.321 241.388L235.809 242.261L235.812 242.26L235.321 241.388ZM230.917 240.658H229.917V241.658H230.917V240.658ZM234.526 240.22L235.02 241.09L235.024 241.087L234.526 240.22ZM235.679 238.942L236.588 239.359L236.589 239.357L235.679 238.942ZM235.679 234.861L234.768 235.273L234.77 235.277L235.679 234.861ZM234.551 233.593L234.052 234.46V234.46L234.551 233.593ZM230.917 233.161V232.161H229.917V233.161H230.917ZM232.676 241H229.38V243H232.676V241ZM230.38 242V231.818H228.38V242H230.38ZM229.38 232.818H232.781V230.818H229.38V232.818ZM232.781 232.818C233.642 232.818 234.32 232.993 234.856 233.299L235.846 231.561C234.951 231.051 233.916 230.818 232.781 230.818V232.818ZM234.859 233.3C235.397 233.604 235.808 234.036 236.103 234.623L237.89 233.726C237.423 232.796 236.738 232.064 235.843 231.559L234.859 233.3ZM236.106 234.628C236.403 235.213 236.574 235.956 236.574 236.894H238.574C238.574 235.717 238.36 234.648 237.888 233.721L236.106 234.628ZM236.574 236.894C236.574 237.834 236.402 238.583 236.101 239.175L237.883 240.082C238.357 239.149 238.574 238.075 238.574 236.894H236.574ZM236.099 239.178C235.802 239.767 235.383 240.206 234.83 240.517L235.812 242.26C236.718 241.749 237.413 241.014 237.885 240.079L236.099 239.178ZM234.833 240.516C234.285 240.822 233.58 241 232.676 241V243C233.841 243 234.9 242.77 235.809 242.261L234.833 240.516ZM230.917 241.658H232.592V239.658H230.917V241.658ZM232.592 241.658C233.488 241.658 234.315 241.49 235.02 241.09L234.032 239.351C233.709 239.534 233.247 239.658 232.592 239.658V241.658ZM235.024 241.087C235.725 240.685 236.25 240.098 236.588 239.359L234.77 238.526C234.599 238.9 234.355 239.165 234.028 239.353L235.024 241.087ZM236.589 239.357C236.919 238.633 237.062 237.8 237.062 236.894H235.062C235.062 237.599 234.95 238.131 234.769 238.528L236.589 239.357ZM237.062 236.894C237.062 235.993 236.919 235.165 236.588 234.444L234.77 235.277C234.95 235.67 235.062 236.197 235.062 236.894H237.062ZM236.59 234.449C236.258 233.713 235.743 233.126 235.05 232.727L234.052 234.46C234.36 234.637 234.597 234.895 234.768 235.273L236.59 234.449ZM235.05 232.727C234.36 232.329 233.555 232.161 232.686 232.161V234.161C233.303 234.161 233.74 234.28 234.052 234.46L235.05 232.727ZM232.686 232.161H230.917V234.161H232.686V232.161ZM229.917 233.161V240.658H231.917V233.161H229.917Z" fill="#4A5568"/>
<path fill-rule="evenodd" clip-rule="evenodd" d="M256.22 234.97C256.513 234.677 256.987 234.677 257.28 234.97C257.573 235.263 257.573 235.737 257.28 236.03L253.53 239.78C253.237 240.073 252.763 240.073 252.47 239.78L248.72 236.03C248.427 235.737 248.427 235.263 248.72 234.97C249.013 234.677 249.487 234.677 249.78 234.97L253 238.189L256.22 234.97Z" fill="#4A5568"/>
<rect x="280.5" y="209.5" width="615" height="109" rx="5.5" fill="white"/>
<rect x="280.5" y="209.5" width="615" height="109" rx="5.5" fill="black" fill-opacity="0.04"/>
<rect x="296.5" y="221.5" width="583" height="55" rx="5.5" fill="white"/>
<rect x="312" y="233" width="143" height="32" rx="6" fill="white"/>
<rect x="312" y="233" width="143" height="32" rx="6" fill="black" fill-opacity="0.06"/>
<g clip-path="url(#clip2_1651_23328)">
<path d="M332.467 252.389H320.96C320.43 252.389 320 251.96 320 251.429C320 250.898 320.43 250.469 320.96 250.469H332.467C332.998 250.469 333.428 250.898 333.428 251.429C333.428 251.96 332.998 252.389 332.467 252.389ZM339.04 247.51H327.533C327.003 247.51 326.573 247.08 326.573 246.55C326.573 246.019 327.003 245.589 327.533 245.589H339.04C339.57 245.589 340 246.019 340 246.55C340 247.08 339.57 247.51 339.04 247.51ZM336.661 242.89C336.661 243.42 336.231 243.85 335.7 243.85C335.17 243.85 334.74 243.42 334.74 242.89C334.74 242.36 335.17 241.93 335.7 241.93C336.231 241.93 336.661 242.36 336.661 242.89ZM325.26 255.09C325.26 255.621 324.83 256.051 324.299 256.051C323.769 256.051 323.339 255.621 323.339 255.09C323.339 254.56 323.769 254.13 324.299 254.13C324.83 254.13 325.26 254.56 325.26 255.09Z" fill="#93C8A2"/>
<path d="M329.995 258.26C329.058 258.26 328.133 258.12 327.245 257.845C326.739 257.688 326.455 257.151 326.612 256.644C326.769 256.136 327.308 255.852 327.813 256.011C328.517 256.229 329.251 256.34 329.995 256.34C333.252 256.34 336.08 254.249 337.033 251.137C337.107 250.894 337.275 250.69 337.5 250.57C337.725 250.451 337.988 250.426 338.231 250.501C338.738 250.655 339.023 251.192 338.868 251.699C337.667 255.622 334.101 258.26 329.995 258.26ZM322.04 247.503C321.736 247.503 321.449 247.359 321.268 247.114C321.087 246.869 321.033 246.553 321.122 246.262C322.323 242.338 325.889 239.703 329.995 239.703C330.933 239.703 331.858 239.842 332.745 240.118C332.988 240.193 333.192 240.362 333.31 240.587C333.429 240.812 333.453 241.076 333.378 241.319C333.303 241.562 333.134 241.766 332.909 241.884C332.683 242.003 332.42 242.027 332.177 241.951C331.474 241.735 330.739 241.625 329.995 241.625C326.739 241.625 323.91 243.715 322.958 246.828C322.834 247.231 322.462 247.506 322.04 247.507L322.04 247.503Z" fill="#43AF79"/>
</g>
<path d="M349.119 254V243.818H350.655V252.678H355.268V254H349.119ZM360.118 254.154C359.402 254.154 358.778 253.99 358.244 253.662C357.71 253.334 357.296 252.875 357.001 252.285C356.706 251.695 356.559 251.005 356.559 250.217C356.559 249.424 356.706 248.732 357.001 248.138C357.296 247.545 357.71 247.085 358.244 246.756C358.778 246.428 359.402 246.264 360.118 246.264C360.834 246.264 361.459 246.428 361.993 246.756C362.526 247.085 362.94 247.545 363.235 248.138C363.53 248.732 363.678 249.424 363.678 250.217C363.678 251.005 363.53 251.695 363.235 252.285C362.94 252.875 362.526 253.334 361.993 253.662C361.459 253.99 360.834 254.154 360.118 254.154ZM360.123 252.906C360.587 252.906 360.972 252.784 361.277 252.538C361.582 252.293 361.807 251.967 361.953 251.559C362.102 251.151 362.176 250.702 362.176 250.212C362.176 249.724 362.102 249.277 361.953 248.869C361.807 248.458 361.582 248.129 361.277 247.88C360.972 247.631 360.587 247.507 360.123 247.507C359.656 247.507 359.268 247.631 358.96 247.88C358.655 248.129 358.428 248.458 358.279 248.869C358.133 249.277 358.06 249.724 358.06 250.212C358.06 250.702 358.133 251.151 358.279 251.559C358.428 251.967 358.655 252.293 358.96 252.538C359.268 252.784 359.656 252.906 360.123 252.906ZM368.539 257.023C367.932 257.023 367.41 256.943 366.973 256.784C366.539 256.625 366.184 256.415 365.909 256.153C365.634 255.891 365.428 255.604 365.292 255.293L366.57 254.766C366.66 254.911 366.779 255.066 366.928 255.228C367.081 255.394 367.286 255.535 367.545 255.651C367.806 255.767 368.143 255.825 368.554 255.825C369.117 255.825 369.583 255.687 369.951 255.412C370.319 255.14 370.503 254.706 370.503 254.109V252.608H370.408C370.319 252.77 370.189 252.951 370.02 253.15C369.855 253.349 369.626 253.521 369.334 253.667C369.043 253.813 368.663 253.886 368.196 253.886C367.593 253.886 367.049 253.745 366.565 253.463C366.085 253.178 365.703 252.759 365.422 252.205C365.143 251.648 365.004 250.964 365.004 250.152C365.004 249.34 365.142 248.644 365.417 248.064C365.695 247.484 366.076 247.04 366.56 246.732C367.044 246.42 367.593 246.264 368.206 246.264C368.68 246.264 369.063 246.344 369.354 246.503C369.646 246.659 369.873 246.841 370.035 247.05C370.201 247.259 370.329 247.442 370.418 247.602H370.528V246.364H371.984V254.169C371.984 254.825 371.832 255.364 371.527 255.785C371.222 256.206 370.809 256.517 370.289 256.719C369.772 256.922 369.189 257.023 368.539 257.023ZM368.524 252.653C368.952 252.653 369.313 252.553 369.608 252.354C369.906 252.152 370.131 251.864 370.284 251.489C370.44 251.112 370.518 250.659 370.518 250.132C370.518 249.618 370.441 249.166 370.289 248.775C370.136 248.384 369.913 248.079 369.618 247.86C369.323 247.638 368.958 247.527 368.524 247.527C368.077 247.527 367.704 247.643 367.405 247.875C367.107 248.104 366.882 248.415 366.729 248.81C366.58 249.204 366.506 249.645 366.506 250.132C366.506 250.633 366.582 251.072 366.734 251.45C366.887 251.827 367.112 252.122 367.41 252.335C367.712 252.547 368.083 252.653 368.524 252.653ZM373.978 254V246.364H375.464V254H373.978ZM374.729 245.185C374.47 245.185 374.248 245.099 374.062 244.927C373.88 244.751 373.789 244.542 373.789 244.3C373.789 244.055 373.88 243.846 374.062 243.674C374.248 243.498 374.47 243.411 374.729 243.411C374.987 243.411 375.207 243.498 375.39 243.674C375.575 243.846 375.668 244.055 375.668 244.3C375.668 244.542 375.575 244.751 375.39 244.927C375.207 245.099 374.987 245.185 374.729 245.185ZM378.951 249.466V254H377.464V246.364H378.891V247.607H378.985C379.161 247.202 379.436 246.877 379.811 246.632C380.189 246.387 380.664 246.264 381.238 246.264C381.758 246.264 382.214 246.374 382.605 246.592C382.996 246.808 383.299 247.129 383.515 247.557C383.73 247.984 383.838 248.513 383.838 249.143V254H382.351V249.322C382.351 248.768 382.207 248.336 381.919 248.024C381.63 247.709 381.234 247.552 380.73 247.552C380.386 247.552 380.079 247.626 379.811 247.776C379.546 247.925 379.335 248.143 379.179 248.432C379.027 248.717 378.951 249.062 378.951 249.466ZM392.753 254.154C392.014 254.154 391.378 253.987 390.844 253.652C390.314 253.314 389.906 252.848 389.621 252.255C389.336 251.662 389.193 250.982 389.193 250.217C389.193 249.441 389.339 248.757 389.631 248.163C389.923 247.567 390.334 247.101 390.864 246.766C391.394 246.432 392.019 246.264 392.738 246.264C393.318 246.264 393.835 246.372 394.289 246.587C394.743 246.799 395.11 247.098 395.388 247.482C395.67 247.867 395.837 248.316 395.89 248.83H394.443C394.364 248.472 394.182 248.163 393.896 247.905C393.615 247.646 393.237 247.517 392.763 247.517C392.349 247.517 391.986 247.626 391.674 247.845C391.366 248.061 391.126 248.369 390.953 248.77C390.781 249.168 390.695 249.638 390.695 250.182C390.695 250.739 390.779 251.219 390.948 251.624C391.117 252.028 391.356 252.341 391.664 252.563C391.976 252.785 392.342 252.896 392.763 252.896C393.045 252.896 393.3 252.845 393.529 252.742C393.761 252.636 393.954 252.485 394.11 252.29C394.269 252.094 394.38 251.859 394.443 251.584H395.89C395.837 252.078 395.676 252.518 395.408 252.906C395.139 253.294 394.78 253.599 394.329 253.821C393.882 254.043 393.356 254.154 392.753 254.154ZM400.696 254.154C399.98 254.154 399.356 253.99 398.822 253.662C398.288 253.334 397.874 252.875 397.579 252.285C397.284 251.695 397.137 251.005 397.137 250.217C397.137 249.424 397.284 248.732 397.579 248.138C397.874 247.545 398.288 247.085 398.822 246.756C399.356 246.428 399.98 246.264 400.696 246.264C401.412 246.264 402.037 246.428 402.571 246.756C403.104 247.085 403.519 247.545 403.814 248.138C404.109 248.732 404.256 249.424 404.256 250.217C404.256 251.005 404.109 251.695 403.814 252.285C403.519 252.875 403.104 253.334 402.571 253.662C402.037 253.99 401.412 254.154 400.696 254.154ZM400.701 252.906C401.165 252.906 401.55 252.784 401.855 252.538C402.16 252.293 402.385 251.967 402.531 251.559C402.68 251.151 402.755 250.702 402.755 250.212C402.755 249.724 402.68 249.277 402.531 248.869C402.385 248.458 402.16 248.129 401.855 247.88C401.55 247.631 401.165 247.507 400.701 247.507C400.234 247.507 399.846 247.631 399.538 247.88C399.233 248.129 399.006 248.458 398.857 248.869C398.711 249.277 398.638 249.724 398.638 250.212C398.638 250.702 398.711 251.151 398.857 251.559C399.006 251.967 399.233 252.293 399.538 252.538C399.846 252.784 400.234 252.906 400.701 252.906ZM410.753 250.833V246.364H412.244V254H410.782V252.678H410.703C410.527 253.085 410.246 253.425 409.858 253.697C409.473 253.965 408.994 254.099 408.421 254.099C407.93 254.099 407.496 253.992 407.118 253.776C406.744 253.558 406.449 253.234 406.233 252.807C406.021 252.379 405.915 251.851 405.915 251.221V246.364H407.402V251.042C407.402 251.562 407.546 251.977 407.834 252.285C408.123 252.593 408.497 252.747 408.958 252.747C409.236 252.747 409.513 252.678 409.788 252.538C410.067 252.399 410.297 252.189 410.479 251.907C410.665 251.625 410.756 251.267 410.753 250.833ZM415.728 249.466V254H414.241V246.364H415.668V247.607H415.763C415.938 247.202 416.214 246.877 416.588 246.632C416.966 246.387 417.442 246.264 418.015 246.264C418.535 246.264 418.991 246.374 419.382 246.592C419.773 246.808 420.076 247.129 420.292 247.557C420.507 247.984 420.615 248.513 420.615 249.143V254H419.129V249.322C419.129 248.768 418.984 248.336 418.696 248.024C418.408 247.709 418.012 247.552 417.508 247.552C417.163 247.552 416.857 247.626 416.588 247.776C416.323 247.925 416.112 248.143 415.957 248.432C415.804 248.717 415.728 249.062 415.728 249.466ZM426.173 246.364V247.557H422.002V246.364H426.173ZM423.121 244.534H424.607V251.758C424.607 252.046 424.65 252.263 424.737 252.409C424.823 252.552 424.934 252.649 425.07 252.702C425.209 252.752 425.36 252.777 425.522 252.777C425.641 252.777 425.746 252.769 425.835 252.752C425.925 252.736 425.994 252.722 426.044 252.712L426.312 253.94C426.226 253.973 426.104 254.007 425.945 254.04C425.786 254.076 425.587 254.096 425.348 254.099C424.957 254.106 424.592 254.036 424.254 253.891C423.916 253.745 423.643 253.519 423.434 253.214C423.225 252.91 423.121 252.527 423.121 252.066V244.534Z" fill="#171923"/>
<path fill-rule="evenodd" clip-rule="evenodd" d="M444.22 246.97C444.513 246.677 444.987 246.677 445.28 246.97C445.573 247.263 445.573 247.737 445.28 248.03L441.53 251.78C441.237 252.073 440.763 252.073 440.47 251.78L436.72 248.03C436.427 247.737 436.427 247.263 436.72 246.97C437.013 246.677 437.487 246.677 437.78 246.97L441 250.189L444.22 246.97Z" fill="#26282C"/>
<rect x="463" y="233" width="119" height="32" rx="6" fill="white"/>
<rect x="463" y="233" width="119" height="32" rx="6" fill="black" fill-opacity="0.06"/>
<path d="M471.999 254V246.364H473.486V254H471.999ZM472.75 245.185C472.491 245.185 472.269 245.099 472.084 244.927C471.902 244.751 471.81 244.542 471.81 244.3C471.81 244.055 471.902 243.846 472.084 243.674C472.269 243.498 472.491 243.411 472.75 243.411C473.009 243.411 473.229 243.498 473.411 243.674C473.597 243.846 473.69 244.055 473.69 244.3C473.69 244.542 473.597 244.751 473.411 244.927C473.229 245.099 473.009 245.185 472.75 245.185ZM481.208 248.228L479.861 248.467C479.804 248.294 479.715 248.13 479.592 247.974C479.473 247.819 479.31 247.691 479.105 247.592C478.899 247.492 478.643 247.442 478.334 247.442C477.913 247.442 477.562 247.537 477.28 247.726C476.999 247.911 476.858 248.152 476.858 248.447C476.858 248.702 476.952 248.907 477.141 249.063C477.33 249.219 477.635 249.347 478.056 249.446L479.269 249.724C479.972 249.887 480.495 250.137 480.84 250.475C481.185 250.813 481.357 251.252 481.357 251.793C481.357 252.25 481.224 252.658 480.959 253.016C480.698 253.37 480.331 253.649 479.861 253.851C479.393 254.053 478.851 254.154 478.235 254.154C477.38 254.154 476.682 253.972 476.142 253.607C475.602 253.239 475.27 252.717 475.148 252.041L476.584 251.822C476.674 252.197 476.858 252.48 477.136 252.673C477.415 252.862 477.778 252.956 478.225 252.956C478.712 252.956 479.102 252.855 479.393 252.653C479.685 252.447 479.831 252.197 479.831 251.902C479.831 251.663 479.741 251.463 479.562 251.3C479.387 251.138 479.117 251.015 478.752 250.933L477.459 250.649C476.747 250.487 476.22 250.228 475.878 249.874C475.54 249.519 475.371 249.07 475.371 248.526C475.371 248.076 475.497 247.681 475.749 247.343C476.001 247.005 476.349 246.741 476.793 246.553C477.237 246.36 477.746 246.264 478.319 246.264C479.145 246.264 479.794 246.443 480.268 246.801C480.742 247.156 481.055 247.631 481.208 248.228ZM488.183 249.466V254H486.697V246.364H488.123V247.607H488.218C488.394 247.202 488.669 246.877 489.043 246.632C489.421 246.387 489.897 246.264 490.47 246.264C490.99 246.264 491.446 246.374 491.837 246.592C492.228 246.808 492.532 247.129 492.747 247.557C492.962 247.984 493.07 248.513 493.07 249.143V254H491.584V249.322C491.584 248.768 491.439 248.336 491.151 248.024C490.863 247.709 490.467 247.552 489.963 247.552C489.618 247.552 489.312 247.626 489.043 247.776C488.778 247.925 488.568 248.143 488.412 248.432C488.259 248.717 488.183 249.062 488.183 249.466ZM498.28 254.154C497.564 254.154 496.94 253.99 496.406 253.662C495.872 253.334 495.458 252.875 495.163 252.285C494.868 251.695 494.721 251.005 494.721 250.217C494.721 249.424 494.868 248.732 495.163 248.138C495.458 247.545 495.872 247.085 496.406 246.756C496.94 246.428 497.564 246.264 498.28 246.264C498.996 246.264 499.621 246.428 500.155 246.756C500.688 247.085 501.103 247.545 501.398 248.138C501.693 248.732 501.84 249.424 501.84 250.217C501.84 251.005 501.693 251.695 501.398 252.285C501.103 252.875 500.688 253.334 500.155 253.662C499.621 253.99 498.996 254.154 498.28 254.154ZM498.285 252.906C498.749 252.906 499.134 252.784 499.439 252.538C499.744 252.293 499.969 251.967 500.115 251.559C500.264 251.151 500.339 250.702 500.339 250.212C500.339 249.724 500.264 249.277 500.115 248.869C499.969 248.458 499.744 248.129 499.439 247.88C499.134 247.631 498.749 247.507 498.285 247.507C497.818 247.507 497.43 247.631 497.122 247.88C496.817 248.129 496.59 248.458 496.441 248.869C496.295 249.277 496.222 249.724 496.222 250.212C496.222 250.702 496.295 251.151 496.441 251.559C496.59 251.967 496.817 252.293 497.122 252.538C497.43 252.784 497.818 252.906 498.285 252.906ZM507.064 246.364V247.557H502.893V246.364H507.064ZM504.011 244.534H505.498V251.758C505.498 252.046 505.541 252.263 505.627 252.409C505.713 252.552 505.824 252.649 505.96 252.702C506.099 252.752 506.25 252.777 506.413 252.777C506.532 252.777 506.636 252.769 506.726 252.752C506.815 252.736 506.885 252.722 506.935 252.712L507.203 253.94C507.117 253.973 506.994 254.007 506.835 254.04C506.676 254.076 506.477 254.096 506.239 254.099C505.848 254.106 505.483 254.036 505.145 253.891C504.807 253.745 504.533 253.519 504.325 253.214C504.116 252.91 504.011 252.527 504.011 252.066V244.534ZM515.705 254.154C514.952 254.154 514.304 253.993 513.761 253.672C513.22 253.347 512.803 252.891 512.508 252.305C512.216 251.715 512.07 251.024 512.07 250.232C512.07 249.449 512.216 248.76 512.508 248.163C512.803 247.567 513.214 247.101 513.741 246.766C514.271 246.432 514.891 246.264 515.6 246.264C516.031 246.264 516.449 246.335 516.853 246.478C517.257 246.621 517.62 246.844 517.942 247.149C518.263 247.454 518.517 247.85 518.702 248.337C518.888 248.821 518.981 249.41 518.981 250.102V250.629H512.911V249.516H517.524C517.524 249.125 517.445 248.778 517.286 248.477C517.126 248.172 516.903 247.931 516.614 247.756C516.329 247.58 515.995 247.492 515.61 247.492C515.192 247.492 514.828 247.595 514.516 247.8C514.208 248.003 513.969 248.268 513.8 248.596C513.635 248.921 513.552 249.274 513.552 249.655V250.525C513.552 251.035 513.641 251.469 513.82 251.827C514.003 252.185 514.256 252.459 514.581 252.648C514.906 252.833 515.285 252.926 515.719 252.926C516.001 252.926 516.258 252.886 516.49 252.807C516.722 252.724 516.923 252.601 517.092 252.439C517.261 252.277 517.39 252.076 517.479 251.837L518.886 252.091C518.774 252.505 518.571 252.868 518.28 253.18C517.991 253.488 517.629 253.728 517.191 253.901C516.757 254.07 516.261 254.154 515.705 254.154ZM520.63 254V246.364H522.057V247.607H522.151C522.311 247.186 522.571 246.857 522.932 246.622C523.293 246.384 523.726 246.264 524.23 246.264C524.74 246.264 525.168 246.384 525.512 246.622C525.86 246.861 526.117 247.189 526.283 247.607H526.362C526.545 247.199 526.835 246.874 527.232 246.632C527.63 246.387 528.104 246.264 528.654 246.264C529.347 246.264 529.912 246.481 530.35 246.915C530.79 247.35 531.011 248.004 531.011 248.879V254H529.524V249.018C529.524 248.501 529.383 248.127 529.102 247.895C528.82 247.663 528.484 247.547 528.093 247.547C527.609 247.547 527.232 247.696 526.964 247.994C526.695 248.289 526.561 248.669 526.561 249.133V254H525.08V248.924C525.08 248.51 524.95 248.177 524.692 247.925C524.433 247.673 524.097 247.547 523.683 247.547C523.401 247.547 523.141 247.621 522.902 247.771C522.667 247.916 522.476 248.12 522.33 248.382C522.188 248.644 522.117 248.947 522.117 249.292V254H520.63ZM533.003 256.864V246.364H534.455V247.602H534.579C534.665 247.442 534.79 247.259 534.952 247.05C535.114 246.841 535.34 246.659 535.628 246.503C535.917 246.344 536.298 246.264 536.772 246.264C537.388 246.264 537.938 246.42 538.422 246.732C538.906 247.043 539.286 247.492 539.561 248.079C539.839 248.665 539.978 249.371 539.978 250.197C539.978 251.022 539.841 251.73 539.566 252.32C539.291 252.906 538.913 253.359 538.432 253.677C537.952 253.992 537.403 254.149 536.787 254.149C536.323 254.149 535.943 254.071 535.648 253.915C535.356 253.76 535.128 253.577 534.962 253.369C534.796 253.16 534.669 252.974 534.579 252.812H534.49V256.864H533.003ZM534.46 250.182C534.46 250.719 534.538 251.189 534.694 251.594C534.849 251.998 535.075 252.315 535.37 252.543C535.665 252.769 536.026 252.881 536.453 252.881C536.898 252.881 537.269 252.764 537.567 252.528C537.865 252.29 538.091 251.967 538.243 251.559C538.399 251.151 538.477 250.692 538.477 250.182C538.477 249.678 538.401 249.226 538.248 248.825C538.099 248.424 537.874 248.107 537.572 247.875C537.274 247.643 536.901 247.527 536.453 247.527C536.023 247.527 535.658 247.638 535.36 247.86C535.065 248.082 534.841 248.392 534.689 248.79C534.536 249.187 534.46 249.652 534.46 250.182ZM545.208 246.364V247.557H541.037V246.364H545.208ZM542.156 244.534H543.642V251.758C543.642 252.046 543.685 252.263 543.772 252.409C543.858 252.552 543.969 252.649 544.105 252.702C544.244 252.752 544.395 252.777 544.557 252.777C544.676 252.777 544.781 252.769 544.87 252.752C544.96 252.736 545.029 252.722 545.079 252.712L545.348 253.94C545.261 253.973 545.139 254.007 544.98 254.04C544.821 254.076 544.622 254.096 544.383 254.099C543.992 254.106 543.627 254.036 543.289 253.891C542.951 253.745 542.678 253.519 542.469 253.214C542.26 252.91 542.156 252.527 542.156 252.066V244.534ZM547.792 256.864C547.57 256.864 547.368 256.845 547.186 256.809C547.004 256.776 546.868 256.739 546.778 256.7L547.136 255.482C547.408 255.554 547.65 255.586 547.862 255.576C548.074 255.566 548.261 255.487 548.424 255.337C548.59 255.188 548.735 254.945 548.861 254.607L549.045 254.099L546.251 246.364H547.842L549.776 252.29H549.856L551.79 246.364H553.385L550.238 255.019C550.093 255.417 549.907 255.753 549.682 256.028C549.456 256.307 549.188 256.516 548.876 256.655C548.565 256.794 548.203 256.864 547.792 256.864Z" fill="#171923"/>
<path fill-rule="evenodd" clip-rule="evenodd" d="M571.22 246.97C571.513 246.677 571.987 246.677 572.28 246.97C572.573 247.263 572.573 247.737 572.28 248.03L568.53 251.78C568.237 252.073 567.763 252.073 567.47 251.78L563.72 248.03C563.427 247.737 563.427 247.263 563.72 246.97C564.013 246.677 564.487 246.677 564.78 246.97L568 250.189L571.22 246.97Z" fill="#26282C"/>
<path d="M788 239.25C782.624 239.25 778.25 243.624 778.25 249C778.25 254.376 782.624 258.75 788 258.75C793.376 258.75 797.75 254.376 797.75 249C797.75 243.624 793.376 239.25 788 239.25ZM793.074 245.732L786.774 253.232C786.705 253.315 786.619 253.381 786.522 253.427C786.425 253.474 786.319 253.498 786.212 253.5H786.199C786.094 253.5 785.99 253.478 785.894 253.435C785.798 253.392 785.712 253.33 785.642 253.252L782.942 250.252C782.873 250.179 782.82 250.093 782.785 249.999C782.75 249.906 782.734 249.806 782.738 249.706C782.742 249.606 782.766 249.508 782.809 249.418C782.851 249.327 782.911 249.246 782.986 249.18C783.06 249.113 783.147 249.061 783.241 249.029C783.336 248.996 783.436 248.982 783.536 248.989C783.635 248.995 783.733 249.021 783.822 249.066C783.912 249.111 783.991 249.173 784.056 249.248L786.179 251.607L791.926 244.768C792.055 244.619 792.237 244.526 792.433 244.511C792.63 244.495 792.825 244.557 792.975 244.684C793.126 244.811 793.221 244.992 793.24 245.188C793.258 245.384 793.199 245.58 793.074 245.732Z" fill="#38A169"/>
<g filter="url(#filter1_i_1651_23328)">
<rect width="56" height="56" transform="translate(824 221)" fill="#EDF2F7"/>
<path fill-rule="evenodd" clip-rule="evenodd" d="M851.75 242.5C851.06 242.5 850.5 243.06 850.5 243.75V244H853.5V243.75C853.5 243.06 852.94 242.5 852.25 242.5H851.75ZM855 244V243.75C855 242.231 853.769 241 852.25 241H851.75C850.231 241 849 242.231 849 243.75V244H846.751H845C844.586 244 844.25 244.336 844.25 244.75C844.25 245.164 844.586 245.5 845 245.5H846.062L846.844 254.488C846.968 255.909 848.157 257 849.584 257H854.416C855.843 257 857.033 255.909 857.156 254.488L857.938 245.5H859C859.414 245.5 859.75 245.164 859.75 244.75C859.75 244.336 859.414 244 859 244H857.249H855ZM856.432 245.5H847.568L848.338 254.358C848.395 255.004 848.935 255.5 849.584 255.5H854.416C855.065 255.5 855.606 255.004 855.662 254.358L856.432 245.5Z" fill="black"/>
</g>
<rect x="296.5" y="221.5" width="583" height="55" rx="5.5" stroke="#CBD5E0"/>
<path d="M306 291.791V302.208" stroke="#6640BF" stroke-width="1.5" stroke-linecap="round" stroke-linejoin="round"/>
<path d="M311.208 297H300.791" stroke="#6640BF" stroke-width="1.5" stroke-linecap="round" stroke-linejoin="round"/>
<path d="M326.438 302H324.807L328.471 291.818H330.246L333.91 302H332.279L329.401 293.668H329.321L326.438 302ZM326.711 298.013H332.001V299.305H326.711V298.013ZM337.997 302.149C337.38 302.149 336.83 301.992 336.346 301.677C335.865 301.359 335.488 300.906 335.213 300.32C334.941 299.73 334.805 299.022 334.805 298.197C334.805 297.371 334.942 296.665 335.218 296.079C335.496 295.492 335.877 295.043 336.361 294.732C336.845 294.42 337.393 294.264 338.007 294.264C338.481 294.264 338.862 294.344 339.15 294.503C339.442 294.659 339.667 294.841 339.826 295.05C339.989 295.259 340.115 295.442 340.204 295.602H340.294V291.818H341.78V302H340.328V300.812H340.204C340.115 300.974 339.985 301.16 339.816 301.369C339.651 301.577 339.422 301.76 339.13 301.915C338.838 302.071 338.461 302.149 337.997 302.149ZM338.325 300.881C338.752 300.881 339.114 300.769 339.409 300.543C339.707 300.315 339.932 299.998 340.085 299.594C340.24 299.189 340.318 298.719 340.318 298.182C340.318 297.652 340.242 297.187 340.09 296.79C339.937 296.392 339.713 296.082 339.419 295.86C339.124 295.638 338.759 295.527 338.325 295.527C337.877 295.527 337.504 295.643 337.206 295.875C336.908 296.107 336.682 296.424 336.53 296.825C336.381 297.226 336.306 297.678 336.306 298.182C336.306 298.692 336.383 299.151 336.535 299.559C336.687 299.967 336.913 300.29 337.211 300.528C337.513 300.764 337.884 300.881 338.325 300.881ZM346.76 302.149C346.144 302.149 345.594 301.992 345.11 301.677C344.629 301.359 344.251 300.906 343.976 300.32C343.704 299.73 343.569 299.022 343.569 298.197C343.569 297.371 343.706 296.665 343.981 296.079C344.26 295.492 344.641 295.043 345.125 294.732C345.609 294.42 346.157 294.264 346.77 294.264C347.244 294.264 347.625 294.344 347.914 294.503C348.205 294.659 348.431 294.841 348.59 295.05C348.752 295.259 348.878 295.442 348.968 295.602H349.057V291.818H350.544V302H349.092V300.812H348.968C348.878 300.974 348.749 301.16 348.58 301.369C348.414 301.577 348.185 301.76 347.894 301.915C347.602 302.071 347.224 302.149 346.76 302.149ZM347.088 300.881C347.516 300.881 347.877 300.769 348.172 300.543C348.471 300.315 348.696 299.998 348.848 299.594C349.004 299.189 349.082 298.719 349.082 298.182C349.082 297.652 349.006 297.187 348.853 296.79C348.701 296.392 348.477 296.082 348.182 295.86C347.887 295.638 347.523 295.527 347.088 295.527C346.641 295.527 346.268 295.643 345.97 295.875C345.672 296.107 345.446 296.424 345.294 296.825C345.145 297.226 345.07 297.678 345.07 298.182C345.07 298.692 345.146 299.151 345.299 299.559C345.451 299.967 345.676 300.29 345.975 300.528C346.276 300.764 346.648 300.881 347.088 300.881ZM358.593 302.169C358.109 302.169 357.671 302.08 357.28 301.901C356.889 301.718 356.579 301.455 356.35 301.11C356.125 300.765 356.012 300.343 356.012 299.842C356.012 299.411 356.095 299.057 356.261 298.778C356.427 298.5 356.65 298.28 356.932 298.117C357.214 297.955 357.529 297.832 357.877 297.749C358.225 297.666 358.579 297.603 358.941 297.56C359.398 297.507 359.769 297.464 360.054 297.431C360.339 297.395 360.547 297.337 360.676 297.257C360.805 297.178 360.87 297.048 360.87 296.869V296.835C360.87 296.4 360.747 296.064 360.502 295.825C360.26 295.587 359.899 295.467 359.418 295.467C358.917 295.467 358.523 295.578 358.235 295.8C357.95 296.019 357.752 296.263 357.643 296.531L356.246 296.213C356.412 295.749 356.654 295.375 356.972 295.089C357.293 294.801 357.663 294.592 358.081 294.463C358.498 294.33 358.937 294.264 359.398 294.264C359.703 294.264 360.026 294.301 360.368 294.374C360.712 294.443 361.034 294.572 361.332 294.761C361.634 294.95 361.881 295.22 362.073 295.572C362.265 295.92 362.361 296.372 362.361 296.929V302H360.909V300.956H360.85C360.754 301.148 360.609 301.337 360.417 301.523C360.225 301.708 359.978 301.862 359.676 301.985C359.375 302.108 359.014 302.169 358.593 302.169ZM358.916 300.976C359.327 300.976 359.678 300.895 359.97 300.732C360.265 300.57 360.489 300.358 360.641 300.096C360.797 299.831 360.875 299.547 360.875 299.246V298.261C360.822 298.314 360.719 298.364 360.566 298.411C360.417 298.454 360.247 298.492 360.054 298.525C359.862 298.555 359.675 298.583 359.493 298.609C359.31 298.633 359.158 298.652 359.035 298.669C358.747 298.705 358.483 298.767 358.245 298.853C358.009 298.939 357.82 299.063 357.678 299.226C357.539 299.385 357.469 299.597 357.469 299.862C357.469 300.23 357.605 300.509 357.877 300.697C358.149 300.883 358.495 300.976 358.916 300.976ZM371.263 302.154C370.524 302.154 369.887 301.987 369.354 301.652C368.823 301.314 368.416 300.848 368.131 300.255C367.846 299.662 367.703 298.982 367.703 298.217C367.703 297.441 367.849 296.757 368.141 296.163C368.432 295.567 368.843 295.101 369.374 294.766C369.904 294.432 370.529 294.264 371.248 294.264C371.828 294.264 372.345 294.372 372.799 294.587C373.253 294.799 373.619 295.098 373.898 295.482C374.179 295.867 374.347 296.316 374.4 296.83H372.953C372.874 296.472 372.691 296.163 372.406 295.905C372.125 295.646 371.747 295.517 371.273 295.517C370.858 295.517 370.496 295.626 370.184 295.845C369.876 296.061 369.635 296.369 369.463 296.77C369.291 297.168 369.205 297.638 369.205 298.182C369.205 298.739 369.289 299.219 369.458 299.624C369.627 300.028 369.866 300.341 370.174 300.563C370.486 300.785 370.852 300.896 371.273 300.896C371.554 300.896 371.81 300.845 372.038 300.742C372.27 300.636 372.464 300.485 372.62 300.29C372.779 300.094 372.89 299.859 372.953 299.584H374.4C374.347 300.078 374.186 300.518 373.918 300.906C373.649 301.294 373.29 301.599 372.839 301.821C372.391 302.043 371.866 302.154 371.263 302.154ZM379.206 302.154C378.49 302.154 377.865 301.99 377.332 301.662C376.798 301.334 376.384 300.875 376.089 300.285C375.794 299.695 375.646 299.005 375.646 298.217C375.646 297.424 375.794 296.732 376.089 296.138C376.384 295.545 376.798 295.085 377.332 294.756C377.865 294.428 378.49 294.264 379.206 294.264C379.922 294.264 380.547 294.428 381.08 294.756C381.614 295.085 382.028 295.545 382.323 296.138C382.618 296.732 382.766 297.424 382.766 298.217C382.766 299.005 382.618 299.695 382.323 300.285C382.028 300.875 381.614 301.334 381.08 301.662C380.547 301.99 379.922 302.154 379.206 302.154ZM379.211 300.906C379.675 300.906 380.06 300.784 380.365 300.538C380.669 300.293 380.895 299.967 381.041 299.559C381.19 299.151 381.264 298.702 381.264 298.212C381.264 297.724 381.19 297.277 381.041 296.869C380.895 296.458 380.669 296.129 380.365 295.88C380.06 295.631 379.675 295.507 379.211 295.507C378.744 295.507 378.356 295.631 378.048 295.88C377.743 296.129 377.516 296.458 377.367 296.869C377.221 297.277 377.148 297.724 377.148 298.212C377.148 298.702 377.221 299.151 377.367 299.559C377.516 299.967 377.743 300.293 378.048 300.538C378.356 300.784 378.744 300.906 379.211 300.906ZM385.912 297.466V302H384.425V294.364H385.852V295.607H385.946C386.122 295.202 386.397 294.877 386.772 294.632C387.15 294.387 387.625 294.264 388.199 294.264C388.719 294.264 389.175 294.374 389.566 294.592C389.957 294.808 390.26 295.129 390.475 295.557C390.691 295.984 390.799 296.513 390.799 297.143V302H389.312V297.322C389.312 296.768 389.168 296.336 388.88 296.024C388.591 295.709 388.195 295.552 387.691 295.552C387.347 295.552 387.04 295.626 386.772 295.776C386.507 295.925 386.296 296.143 386.14 296.432C385.988 296.717 385.912 297.062 385.912 297.466ZM395.651 302.149C395.034 302.149 394.484 301.992 394 301.677C393.52 301.359 393.142 300.906 392.867 300.32C392.595 299.73 392.459 299.022 392.459 298.197C392.459 297.371 392.597 296.665 392.872 296.079C393.15 295.492 393.531 295.043 394.015 294.732C394.499 294.42 395.048 294.264 395.661 294.264C396.135 294.264 396.516 294.344 396.804 294.503C397.096 294.659 397.321 294.841 397.48 295.05C397.643 295.259 397.769 295.442 397.858 295.602H397.948V291.818H399.434V302H397.983V300.812H397.858C397.769 300.974 397.64 301.16 397.471 301.369C397.305 301.577 397.076 301.76 396.784 301.915C396.493 302.071 396.115 302.149 395.651 302.149ZM395.979 300.881C396.407 300.881 396.768 300.769 397.063 300.543C397.361 300.315 397.587 299.998 397.739 299.594C397.895 299.189 397.973 298.719 397.973 298.182C397.973 297.652 397.896 297.187 397.744 296.79C397.592 296.392 397.368 296.082 397.073 295.86C396.778 295.638 396.413 295.527 395.979 295.527C395.532 295.527 395.159 295.643 394.86 295.875C394.562 296.107 394.337 296.424 394.184 296.825C394.035 297.226 393.961 297.678 393.961 298.182C393.961 298.692 394.037 299.151 394.189 299.559C394.342 299.967 394.567 300.29 394.865 300.528C395.167 300.764 395.538 300.881 395.979 300.881ZM401.556 302V294.364H403.042V302H401.556ZM402.307 293.185C402.048 293.185 401.826 293.099 401.64 292.927C401.458 292.751 401.367 292.542 401.367 292.3C401.367 292.055 401.458 291.846 401.64 291.674C401.826 291.498 402.048 291.411 402.307 291.411C402.565 291.411 402.786 291.498 402.968 291.674C403.153 291.846 403.246 292.055 403.246 292.3C403.246 292.542 403.153 292.751 402.968 292.927C402.786 293.099 402.565 293.185 402.307 293.185ZM408.607 294.364V295.557H404.436V294.364H408.607ZM405.554 292.534H407.041V299.758C407.041 300.046 407.084 300.263 407.17 300.409C407.256 300.552 407.367 300.649 407.503 300.702C407.642 300.752 407.793 300.777 407.956 300.777C408.075 300.777 408.179 300.769 408.269 300.752C408.358 300.736 408.428 300.722 408.478 300.712L408.746 301.94C408.66 301.973 408.537 302.007 408.378 302.04C408.219 302.076 408.02 302.096 407.782 302.099C407.391 302.106 407.026 302.036 406.688 301.891C406.35 301.745 406.076 301.519 405.868 301.214C405.659 300.91 405.554 300.527 405.554 300.066V292.534ZM410.251 302V294.364H411.738V302H410.251ZM411.002 293.185C410.743 293.185 410.521 293.099 410.336 292.927C410.153 292.751 410.062 292.542 410.062 292.3C410.062 292.055 410.153 291.846 410.336 291.674C410.521 291.498 410.743 291.411 411.002 291.411C411.26 291.411 411.481 291.498 411.663 291.674C411.849 291.846 411.942 292.055 411.942 292.3C411.942 292.542 411.849 292.751 411.663 292.927C411.481 293.099 411.26 293.185 411.002 293.185ZM416.954 302.154C416.238 302.154 415.614 301.99 415.08 301.662C414.546 301.334 414.132 300.875 413.837 300.285C413.542 299.695 413.395 299.005 413.395 298.217C413.395 297.424 413.542 296.732 413.837 296.138C414.132 295.545 414.546 295.085 415.08 294.756C415.614 294.428 416.238 294.264 416.954 294.264C417.67 294.264 418.295 294.428 418.828 294.756C419.362 295.085 419.776 295.545 420.071 296.138C420.366 296.732 420.514 297.424 420.514 298.217C420.514 299.005 420.366 299.695 420.071 300.285C419.776 300.875 419.362 301.334 418.828 301.662C418.295 301.99 417.67 302.154 416.954 302.154ZM416.959 300.906C417.423 300.906 417.808 300.784 418.113 300.538C418.417 300.293 418.643 299.967 418.789 299.559C418.938 299.151 419.012 298.702 419.012 298.212C419.012 297.724 418.938 297.277 418.789 296.869C418.643 296.458 418.417 296.129 418.113 295.88C417.808 295.631 417.423 295.507 416.959 295.507C416.492 295.507 416.104 295.631 415.796 295.88C415.491 296.129 415.264 296.458 415.115 296.869C414.969 297.277 414.896 297.724 414.896 298.212C414.896 298.702 414.969 299.151 415.115 299.559C415.264 299.967 415.491 300.293 415.796 300.538C416.104 300.784 416.492 300.906 416.959 300.906ZM423.66 297.466V302H422.173V294.364H423.6V295.607H423.694C423.87 295.202 424.145 294.877 424.52 294.632C424.898 294.387 425.373 294.264 425.947 294.264C426.467 294.264 426.923 294.374 427.314 294.592C427.705 294.808 428.008 295.129 428.224 295.557C428.439 295.984 428.547 296.513 428.547 297.143V302H427.06V297.322C427.06 296.768 426.916 296.336 426.628 296.024C426.339 295.709 425.943 295.552 425.439 295.552C425.095 295.552 424.788 295.626 424.52 295.776C424.255 295.925 424.044 296.143 423.888 296.432C423.736 296.717 423.66 297.062 423.66 297.466Z" fill="#6640BF"/>
<rect x="280.5" y="209.5" width="615" height="109" rx="5.5" stroke="#CBD5E0"/>
</g>
<rect x="192.5" y="127.5" width="719" height="269" rx="11.5" stroke="#CBD5E0"/>
</g>
<defs>
<filter id="filter0_dd_1651_23328" x="182" y="121" width="740" height="290" filterUnits="userSpaceOnUse" color-interpolation-filters="sRGB">
<feFlood flood-opacity="0" result="BackgroundImageFix"/>
<feColorMatrix in="SourceAlpha" type="matrix" values="0 0 0 0 0 0 0 0 0 0 0 0 0 0 0 0 0 0 127 0" result="hardAlpha"/>
<feOffset dy="1"/>
<feGaussianBlur stdDeviation="1"/>
<feColorMatrix type="matrix" values="0 0 0 0 0.0745098 0 0 0 0 0.0784314 0 0 0 0 0.0862745 0 0 0 0.16 0"/>
<feBlend mode="normal" in2="BackgroundImageFix" result="effect1_dropShadow_1651_23328"/>
<feColorMatrix in="SourceAlpha" type="matrix" values="0 0 0 0 0 0 0 0 0 0 0 0 0 0 0 0 0 0 127 0" result="hardAlpha"/>
<feMorphology radius="2" operator="erode" in="SourceAlpha" result="effect2_dropShadow_1651_23328"/>
<feOffset dy="4"/>
<feGaussianBlur stdDeviation="6"/>
<feColorMatrix type="matrix" values="0 0 0 0 0.0745098 0 0 0 0 0.0784314 0 0 0 0 0.0862745 0 0 0 0.08 0"/>
<feBlend mode="normal" in2="effect1_dropShadow_1651_23328" result="effect2_dropShadow_1651_23328"/>
<feBlend mode="normal" in="SourceGraphic" in2="effect2_dropShadow_1651_23328" result="shape"/>
</filter>
<filter id="filter1_i_1651_23328" x="824" y="221" width="56" height="56" filterUnits="userSpaceOnUse" color-interpolation-filters="sRGB">
<feFlood flood-opacity="0" result="BackgroundImageFix"/>
<feBlend mode="normal" in="SourceGraphic" in2="BackgroundImageFix" result="shape"/>
<feColorMatrix in="SourceAlpha" type="matrix" values="0 0 0 0 0 0 0 0 0 0 0 0 0 0 0 0 0 0 127 0" result="hardAlpha"/>
<feOffset dx="1"/>
<feComposite in2="hardAlpha" operator="arithmetic" k2="-1" k3="1"/>
<feColorMatrix type="matrix" values="0 0 0 0 0.796078 0 0 0 0 0.835294 0 0 0 0 0.878431 0 0 0 1 0"/>
<feBlend mode="normal" in2="shape" result="effect1_innerShadow_1651_23328"/>
</filter>
<radialGradient id="paint0_radial_1651_23328" cx="0" cy="0" r="1" gradientUnits="userSpaceOnUse" gradientTransform="translate(552 196) rotate(90) scale(149 764.415)">
<stop stop-color="#D9D9D9"/>
<stop offset="1" stop-color="#D9D9D9" stop-opacity="0"/>
</radialGradient>
<clipPath id="clip0_1651_23328">
<rect x="192" y="127" width="720" height="270" rx="12" fill="white"/>
</clipPath>
<clipPath id="clip1_1651_23328">
<rect width="24" height="24" fill="white" transform="translate(232 159)"/>
</clipPath>
<clipPath id="clip2_1651_23328">
<rect width="20" height="20" fill="white" transform="translate(320 239)"/>
</clipPath>
</defs>
</svg>
