<svg width="154" height="48" viewBox="0 0 154 48" fill="none" xmlns="http://www.w3.org/2000/svg">
<path fill-rule="evenodd" clip-rule="evenodd" d="M21.6202 13.3962C22.2298 13.752 22.8068 14.1583 23.3456 14.6095V11.0441C22.9811 10.8208 22.6068 10.6124 22.2234 10.4196L21.6202 13.3962ZM20.6599 9.74051C19.0131 9.13256 17.2344 8.80078 15.3788 8.80078C6.89288 8.80078 0.0136719 15.7396 0.0136719 24.2991C0.0136719 29.1924 2.26192 33.556 5.77333 36.3963C5.96566 36.5519 6.02656 36.8225 5.91239 37.0429L3.59909 41.5085C3.24775 42.1867 3.73553 42.9989 4.49418 42.9989H26.2634C27.0221 42.9989 27.5099 42.1867 27.1585 41.5085L24.8452 37.0429C24.731 36.8225 24.7919 36.5519 24.9843 36.3963C28.4957 33.556 30.7439 29.1924 30.7439 24.2991C30.7439 22.3999 30.4053 20.5805 29.7855 18.899L26.9156 19.4906C27.5232 20.9721 27.8585 22.5961 27.8585 24.2991C27.8585 28.3973 25.9199 32.0378 22.9052 34.3411L21.6407 35.3072C21.2477 35.6075 21.1271 36.1501 21.3554 36.5909L22.7812 39.3432C22.9569 39.6823 22.713 40.0884 22.3337 40.0884H8.42395C8.04463 40.0884 7.80074 39.6823 7.97641 39.3432L9.40218 36.5909C9.63053 36.1501 9.50992 35.6075 9.11687 35.3072L7.85239 34.3411C4.83768 32.0378 2.89914 28.3973 2.89914 24.2991C2.89914 17.347 8.48648 11.7113 15.3788 11.7113C17.0396 11.7113 18.6246 12.0385 20.0739 12.6325L20.6599 9.74051ZM26.1474 17.9333L29.1035 17.3238C29.0096 17.1362 28.912 16.9507 28.8108 16.7675H25.3791C25.6558 17.1406 25.9124 17.5298 26.1474 17.9333Z" fill="#481B97"/>
<path fill-rule="evenodd" clip-rule="evenodd" d="M30.7086 5.12544C30.6747 4.95819 30.4378 4.95819 30.4039 5.12544L29.8115 8.04888C29.799 8.11045 29.7513 8.15856 29.6903 8.17114L26.792 8.76867C26.6262 8.80286 26.6262 9.04184 26.792 9.07603L29.6903 9.67355C29.7513 9.68614 29.799 9.73425 29.8115 9.79582L30.4039 12.7193C30.4378 12.8865 30.6747 12.8865 30.7086 12.7193L31.301 9.79582C31.3135 9.73425 31.3612 9.68614 31.4222 9.67355L34.3205 9.07603C34.4864 9.04184 34.4864 8.80286 34.3205 8.76867L31.4222 8.17114C31.3612 8.15856 31.3135 8.11045 31.301 8.04888L30.7086 5.12544ZM23.0996 9.16633C23.0318 8.83181 22.5579 8.83181 22.4902 9.16633L21.3054 15.0132C21.2804 15.1363 21.185 15.2326 21.0629 15.2577L15.2663 16.4528C14.9347 16.5212 14.9347 16.9991 15.2663 17.0675L21.0629 18.2625C21.185 18.2877 21.2804 18.3839 21.3054 18.5071L22.4902 24.3539C22.5579 24.6885 23.0318 24.6885 23.0996 24.3539L24.2844 18.5071C24.3093 18.3839 24.4047 18.2877 24.5268 18.2625L30.3234 17.0675C30.6551 16.9991 30.6551 16.5212 30.3234 16.4528L24.5268 15.2577C24.4047 15.2326 24.3093 15.1363 24.2844 15.0132L23.0996 9.16633Z" fill="#A379E9"/>
<path d="M40.5918 41.3851L45.6604 41.4292V29.1181H51.7428C55.3129 29.1181 61.9682 26.9559 61.9682 19.3663C61.9682 11.7766 55.3129 9.57031 51.258 9.57031H40.5918V41.3851ZM45.7045 24.4407L45.7927 14.38H51.6106C52.7125 14.38 56.8555 14.6007 56.8555 19.1898C56.8555 23.7789 53.2414 24.3084 51.5224 24.3084C50.2442 24.3084 47.5116 24.3966 45.7045 24.4407Z" fill="#481B97"/>
<path d="M61.524 30.3977C61.524 36.7519 66.5486 42.1794 73.1158 42.1794C79.6389 42.1794 84.6635 36.7519 84.6635 30.3977C84.6635 24.0436 79.6389 18.8809 73.1158 18.8809C66.5486 18.8809 61.524 24.0436 61.524 30.3977ZM66.6368 30.4419C66.6368 26.2499 69.8102 23.4258 73.1599 23.4258C76.5537 23.4258 79.683 26.2499 79.683 30.4419C79.683 34.8986 76.5537 37.5461 73.1599 37.5461C69.8102 37.5461 66.6368 34.8986 66.6368 30.4419Z" fill="#481B97"/>
<path d="M97.3984 23.6024C93.9606 24.0436 91.845 27.2207 91.889 30.3095C91.9331 34.1043 94.2691 37.1931 97.6629 37.4579C100.484 37.6785 103.04 36.0459 103.833 33.7072L108.505 35.3398C106.831 39.9289 102.776 42.4441 97.4866 42.2235C91.6246 42.0029 86.9086 37.1931 86.9086 30.2654C86.9086 23.6465 92.2416 19.0133 97.6188 18.7485C103.613 18.4837 107.095 22.2786 108.329 25.7645L103.701 27.2207C102.026 23.7347 99.1614 23.3817 97.3984 23.6024Z" fill="#481B97"/>
<path d="M126.612 38.7375L126.832 41.4292H131.724V19.5428H126.523V32.8247C126.523 34.678 124.716 37.5461 121.587 37.5461C117.753 37.5461 116.827 34.7662 116.827 32.5599V19.5869H111.582V33.1335C111.582 35.0751 112.287 42.047 119.736 42.047C123.659 42.047 126.127 40.0172 126.612 38.7375Z" fill="#481B97"/>
<path d="M149.227 25.8086L153.546 24.0436C151.96 19.5869 146.759 18.3955 143.409 18.7926C138.385 19.4104 136.004 22.7198 136.004 25.8528C136.004 28.4121 138.252 30.5301 140.72 31.3685C142.968 32.1628 149.095 32.5158 148.963 35.3398C148.874 37.6785 145.392 38.0315 143.629 37.6344C141.866 37.2373 140.236 35.6046 139.707 34.0602L135.255 35.9576C136.357 38.9582 139.398 42.1352 144.599 42.1352C150.99 42.1352 153.987 38.561 153.987 35.2957C153.987 32.604 152.533 29.8682 147.773 28.721C143.189 27.6178 140.897 27.3531 140.897 25.4115C140.897 24.0436 142.439 23.117 144.511 23.117C146.45 23.117 148.522 23.9995 149.227 25.8086Z" fill="#481B97"/>
</svg>
