<svg width="41" height="40" viewBox="0 0 41 40" fill="none" xmlns="http://www.w3.org/2000/svg">
  <g clip-path="url(#clip0_796_49720)">
    <mask id="mask0_796_49720" style="mask-type:luminance" maskUnits="userSpaceOnUse" x="0" y="0" width="41" height="40">
      <path d="M40.666 0H0.666016V40H40.666V0Z" fill="white"/>
    </mask>
    <g mask="url(#mask0_796_49720)">
      <path d="M29.416 38.75L29.4456 36.0035C29.4456 34.5341 29.8805 33.0976 30.6956 31.875C31.5106 30.6524 31.9456 29.2159 31.9456 27.7465V21.4899C31.9456 20.4544 31.1061 19.6149 30.0706 19.6149C29.0351 19.6149 28.1956 20.4544 28.1956 21.4899V22.2082V20.0159C28.1956 18.9804 27.3561 18.1409 26.3206 18.1409C25.2851 18.1409 24.4456 18.9804 24.4456 20.0159M24.4456 20.0159V22.2082M24.4456 20.0159C24.4456 18.9804 23.6061 18.1409 22.5706 18.1409C21.5351 18.1409 20.6956 18.9804 20.6956 20.0159V22.2084V11.7604C20.6956 10.7249 19.8561 9.88537 18.8206 9.88537C17.7851 9.88537 16.9456 10.7249 16.9456 11.7604V23.7501L14.5215 21.326C13.7893 20.5937 12.6021 20.5937 11.8699 21.326L11.7826 21.4132C11.1506 22.0452 11.0526 23.0355 11.5484 23.7791L18.1958 33.7501L18.1661 38.7501M4.72852 5.46875L7.54102 8.28125L13.166 2.65625M9.95177 1.25H3.04102C2.41964 1.25 1.91602 1.75362 1.91602 2.375V11.375C1.91602 11.9964 2.41964 12.5 3.04102 12.5H12.041C12.6624 12.5 13.166 11.9964 13.166 11.375V6.875M30.666 3.75L36.916 10M36.916 3.75L30.666 10M15.666 38.75H31.916M29.416 1.25H38.166C38.8564 1.25 39.416 1.80965 39.416 2.5V11.25C39.416 11.9404 38.8564 12.5 38.166 12.5H29.416C28.7256 12.5 28.166 11.9404 28.166 11.25V2.5C28.166 1.80965 28.7256 1.25 29.416 1.25Z" stroke="#54ABA3" stroke-width="2" stroke-miterlimit="10"/>
    </g>
  </g>
  <defs>
    <clipPath id="clip0_796_49720">
      <rect width="40" height="40" fill="white" transform="translate(0.666016)"/>
    </clipPath>
  </defs>
</svg>
