<svg width="40" height="40" viewBox="0 0 40 40" fill="none" xmlns="http://www.w3.org/2000/svg">
  <g clip-path="url(#clip0_796_51361)">
    <mask id="mask0_796_51361" style="mask-type:luminance" maskUnits="userSpaceOnUse" x="0" y="0" width="40" height="40">
      <path d="M0.5 0.5H39.5V39.5H0.5V0.5Z" fill="white" stroke="white"/>
    </mask>
    <g mask="url(#mask0_796_51361)">
      <path d="M20 11.25C18.7056 11.25 17.6562 10.2006 17.6562 8.90625V7.34375C17.6562 6.04937 18.7056 5 20 5C21.2944 5 22.3438 6.04937 22.3438 7.34375V8.90625C22.3438 10.2006 21.2944 11.25 20 11.25ZM20 11.25C22.4162 11.25 24.4321 12.9319 24.8984 14.3929M20 11.25C17.5838 11.25 15.5679 12.9319 15.1016 14.3929M6.25 22.5H12.5M27.5 22.5H33.75M7.5 7.49963L1.25038 1.25M7.5 11.25H0M32.5 7.49963L38.7496 1.25M32.5 11.25H40M27.5 8.75C27.5 12.8921 24.1421 16.25 20 16.25C15.8579 16.25 12.5 12.8921 12.5 8.75C12.5 4.60786 15.8579 1.25 20 1.25C24.1421 1.25 27.5 4.60786 27.5 8.75ZM33.75 25C33.75 32.6796 27.4542 38.8888 19.7424 38.7476C12.1729 38.6091 6.24987 32.1148 6.24987 24.544V17.5C6.24987 16.8096 6.8095 16.25 7.49987 16.25H11.2499C11.9402 16.25 12.4999 16.8096 12.4999 17.5V24.6855C12.4999 28.7921 15.6644 32.3733 19.7691 32.4965C24.0165 32.624 27.4999 29.2188 27.4999 25V17.5C27.4999 16.8096 28.0595 16.25 28.7499 16.25H32.4999C33.1903 16.25 33.7499 16.8096 33.7499 17.5L33.75 25Z" stroke="#54ABA3" stroke-width="2" stroke-miterlimit="10"/>
    </g>
  </g>
  <defs>
    <clipPath id="clip0_796_51361">
      <rect width="40" height="40" fill="white"/>
    </clipPath>
  </defs>
</svg>
