<svg width="41" height="40" viewBox="0 0 41 40" fill="none" xmlns="http://www.w3.org/2000/svg">
  <g clip-path="url(#clip0_780_52366)">
    <mask id="mask0_780_52366" style="mask-type:luminance" maskUnits="userSpaceOnUse" x="0" y="0" width="41" height="40">
      <path d="M40.666 0H0.666016V40H40.666V0Z" fill="white"/>
    </mask>
    <g mask="url(#mask0_780_52366)">
      <path d="M10.1436 34.3225L18.9468 38.75H24.2943C24.3943 38.7501 24.4514 38.6361 24.3915 38.556L21.1898 34.273L9.03527 28.1716C8.41839 27.8619 7.66714 28.111 7.35739 28.728L6.23577 30.9623C5.92602 31.5791 6.17514 32.3304 6.79214 32.6401L10.1436 34.3225ZM10.1436 34.3225L12.3868 29.8539M35.6669 38.7497L28.167 38.75M31.916 30V35.0026M31.916 30C30.5353 30 29.416 28.8807 29.416 27.5M31.916 30C33.2968 30 34.416 28.8807 34.416 27.5M8.02302 7.5V11.25M16.773 2.49938H13.023M23.0234 2.49938H19.273M8.02302 13.75V17.5M28.023 12.5V16.25M28.023 6.25V10M16.773 22.5H13.023M23.023 22.4999H19.273M5.66602 6.25H3.16602C2.47564 6.25 1.91602 6.80963 1.91602 7.5V37.5C1.91602 38.1904 2.47564 38.75 3.16602 38.75H20.666M34.416 17.7095V7.5C34.416 6.80963 33.8564 6.25 33.166 6.25H30.666M18.4078 6.48925L20.1991 10.1189L24.2046 10.7009C24.5566 10.752 24.6971 11.1845 24.4424 11.4328L21.5439 14.258L22.2281 18.2474C22.2883 18.5979 21.9204 18.8652 21.6055 18.6997L18.0229 16.8163L14.4403 18.6997C14.1255 18.8652 13.7575 18.598 13.8176 18.2474L14.5019 14.258L11.6034 11.4328C11.3488 11.1845 11.4893 10.752 11.8411 10.7009L15.8466 10.1189L17.638 6.48925C17.7954 6.17038 18.2504 6.17038 18.4078 6.48925ZM35.666 35.0026C35.666 30.8579 39.416 29.3817 39.416 24.9272C39.416 20.4727 36.7064 17.503 32.6418 17.503H31.1901C27.1256 17.503 24.4159 20.4727 24.4159 24.9272C24.4159 29.3817 28.1659 30.8579 28.1659 35.0026H35.666ZM7.39802 1.25H8.64802C8.99319 1.25 9.27302 1.52982 9.27302 1.875V3.125C9.27302 3.47018 8.99319 3.75 8.64802 3.75H7.39802C7.05284 3.75 6.77302 3.47018 6.77302 3.125V1.875C6.77302 1.52982 7.05284 1.25 7.39802 1.25ZM27.541 1.25H28.791C29.1361 1.25 29.416 1.52982 29.416 1.875V3.125C29.416 3.47018 29.1361 3.75 28.791 3.75H27.541C27.1959 3.75 26.916 3.47018 26.916 3.125V1.875C26.916 1.52982 27.1959 1.25 27.541 1.25ZM7.39802 21.25H8.64802C8.99319 21.25 9.27302 21.5299 9.27302 21.875V23.125C9.27302 23.4701 8.99319 23.75 8.64802 23.75H7.39802C7.05284 23.75 6.77302 23.4701 6.77302 23.125V21.875C6.77302 21.5299 7.05284 21.25 7.39802 21.25Z" stroke="#54ABA3" stroke-width="2" stroke-miterlimit="10"/>
    </g>
  </g>
  <defs>
    <clipPath id="clip0_780_52366">
      <rect width="40" height="40" fill="white" transform="translate(0.666016)"/>
    </clipPath>
  </defs>
</svg>
