<svg width="40" height="40" viewBox="0 0 40 40" fill="none" xmlns="http://www.w3.org/2000/svg">
  <g clip-path="url(#clip0_780_52360)">
    <mask id="mask0_780_52360" style="mask-type:luminance" maskUnits="userSpaceOnUse" x="0" y="0" width="40" height="40">
      <path d="M0.5 39.5V0.5H39.5V39.5H0.5Z" fill="white" stroke="white"/>
    </mask>
    <g mask="url(#mask0_780_52360)">
      <path d="M13.7464 6.25013H17.496C18.1861 6.25013 18.7456 6.80975 18.7456 7.50013V23.75M3.74938 17.5001C3.74938 17.5001 6.78174 17.5001 8.05268 17.5001C10.5945 17.5001 10.5945 13.7501 8.05268 13.7501C6.78174 13.7501 8.03143 13.7501 6.7605 13.7501C4.21864 13.7501 4.21864 10.0001 6.7605 10.0001C8.03143 10.0001 10.6227 10.0001 10.6227 10.0001M7.48594 17.5001V20.0001M7.48594 7.50013V10.0001M40.0002 30H24.994L24.9941 35L16.2462 26.25L24.994 17.5001V22.5H40.0002M18.7456 28.75V37.5M36.2512 0V2.5M36.2512 5V7.5M40.0002 3.75H37.5009M35.0015 3.75H32.5021M32.5006 7.5V17.5M37.5026 12.4939H27.5034M26.2529 1.25062V8.75M30.0041 4.99575H22.5051M13.4251 38.6535L1.25 35V6.25013L13.4041 1.38725C13.5682 1.32162 13.7469 1.4425 13.7469 1.61938V38.414C13.7469 38.5815 13.5855 38.7016 13.4251 38.6535Z" stroke="#54ABA3" stroke-width="2" stroke-miterlimit="10"/>
    </g>
  </g>
  <defs>
    <clipPath id="clip0_780_52360">
      <rect width="40" height="40" fill="white"/>
    </clipPath>
  </defs>
</svg>
