<svg width="40" height="40" viewBox="0 0 40 40" fill="none" xmlns="http://www.w3.org/2000/svg">
  <g clip-path="url(#clip0_839_51026)">
    <mask id="mask0_839_51026" style="mask-type:luminance" maskUnits="userSpaceOnUse" x="0" y="0" width="40" height="40">
      <path d="M0.5 0.5H39.5V39.5H0.5V0.5Z" fill="white" stroke="white"/>
    </mask>
    <g mask="url(#mask0_839_51026)">
      <path d="M27.5008 40L27.5003 24.9995L31.4811 28.9809C32.019 29.5188 31.9558 30.4084 31.3471 30.8647L29.1448 32.5164C28.2221 33.2082 28.0008 34.5004 28.6405 35.4599C29.3636 36.5446 30.8726 36.7526 31.8624 35.9043L34.6511 33.5138C36.8624 31.6183 36.992 28.2415 34.9325 26.1821L29.1735 20.4231C28.1025 19.3521 26.65 18.7504 25.1354 18.7503H23.7503C23.7503 18.7503 22.4998 20.0001 20.0003 20.0001C17.4998 20.0001 16.2503 18.7501 16.2503 18.7501H14.8651C13.3505 18.7504 11.898 19.3521 10.827 20.4231L5.06802 26.1821C3.00864 28.2415 3.13814 31.6183 5.34939 33.5138L8.13814 35.9043C9.12789 36.7528 10.6369 36.5446 11.36 35.4599C11.9998 34.5004 11.7784 33.2082 10.8558 32.5164L8.65339 30.8647C8.04477 30.4084 7.98152 29.5188 8.51939 28.9809L12.5003 24.9995L12.4998 40M5.81527 25.4338C4.50002 23.0873 3.75027 20.3813 3.75027 17.5C3.75027 8.52538 11.0256 1.25 20.0003 1.25C28.9749 1.25 36.2503 8.52538 36.2503 17.5C36.2503 20.3814 35.5003 23.0878 34.1849 25.4343M20.2205 23.717L21.2461 25.7952L23.5395 26.1285C23.741 26.1577 23.8215 26.4054 23.6756 26.5475L22.0161 28.1651L22.4079 30.4492C22.4423 30.65 22.2316 30.803 22.0514 30.7083L20.0001 29.6299L17.9489 30.7083C17.7686 30.803 17.558 30.65 17.5924 30.4492L17.9841 28.1651L16.3246 26.5475C16.1788 26.4054 16.2593 26.1577 16.4608 26.1285L18.7541 25.7952L19.7798 23.717C19.8699 23.5344 20.1304 23.5344 20.2205 23.717ZM15.7809 12.0312C15.7809 14.3612 17.6696 16.25 19.9996 16.25C22.3296 16.25 24.2184 14.3612 24.2184 12.0312V9.21875C24.2184 6.88875 22.3296 5 19.9996 5C17.6696 5 15.7809 6.88875 15.7809 9.21875V12.0312Z" stroke="#54ABA3" stroke-width="2" stroke-miterlimit="10"/>
    </g>
  </g>
  <defs>
    <clipPath id="clip0_839_51026">
      <rect width="40" height="40" fill="white"/>
    </clipPath>
  </defs>
</svg>
