<svg width="40" height="40" viewBox="0 0 40 40" fill="none" xmlns="http://www.w3.org/2000/svg">
  <g clip-path="url(#clip0_839_50938)">
    <mask id="mask0_839_50938" style="mask-type:luminance" maskUnits="userSpaceOnUse" x="0" y="0" width="39" height="40">
      <path d="M0.5 39.5011V0.5H38.2897V39.5011H0.5Z" fill="white" stroke="white"/>
    </mask>
    <g mask="url(#mask0_839_50938)">
      <path d="M1.21289 10H25.4553M7.2735 32.5H2.42501C1.75556 32.5 1.21289 31.9404 1.21289 31.25V2.5C1.21289 1.80963 1.75556 1.25 2.42501 1.25H36.3644C37.0339 1.25 37.5765 1.80963 37.5765 2.5V13.75M4.84635 20H20.6059M4.84695 23.7503H16.9705M32.7276 38.7511H38.7905M30.3038 32.5C29.2997 32.5 28.4856 33.3395 28.4856 34.375C28.4856 36.25 30.3038 38.125 30.3038 38.125C30.3038 38.125 32.122 36.25 32.122 34.375C32.122 33.3395 31.3079 32.5 30.3038 32.5ZM30.3038 32.5H37.5765C37.5765 32.5 37.5765 29.6875 37.5765 28.75C37.5765 26.4052 35.0712 25.9375 35.0712 25.9375M30.3038 32.5H23.0311V28.75C23.0311 26.4052 25.5364 25.9375 25.5364 25.9375M33.9402 32.5C33.9402 32.5 35.7583 23.4375 35.7583 18.75C35.7583 14.0625 30.3038 10 30.3038 10C30.3038 10 24.8493 14.0625 24.8493 18.75C24.8493 23.4375 26.6674 32.5 26.6674 32.5M27.8796 38.75H22.8341M22.8341 38.75C21.2693 38.75 20.0006 37.4417 20.0006 35.828C20.0006 34.3069 19.0335 32.8905 17.5917 32.5693C16.8141 32.396 16.0988 32.5616 15.4966 32.9101C14.9107 31.2179 13.3582 30 11.5158 30C9.09701 30 7.15119 32.0872 7.27931 34.6104C7.39944 36.9761 9.45847 38.75 11.7557 38.75H22.8341ZM6.06138 5.625C6.06138 5.97018 5.79003 6.25 5.45531 6.25C5.1206 6.25 4.84925 5.97018 4.84925 5.625C4.84925 5.27982 5.1206 5 5.45531 5C5.79003 5 6.06138 5.27982 6.06138 5.625ZM10.9099 5.625C10.9099 5.97018 10.6385 6.25 10.3038 6.25C9.96908 6.25 9.69774 5.97018 9.69774 5.625C9.69774 5.27982 9.96908 5 10.3038 5C10.6385 5 10.9099 5.27982 10.9099 5.625ZM15.7583 5.625C15.7583 5.97018 15.487 6.25 15.1523 6.25C14.8176 6.25 14.5462 5.97018 14.5462 5.625C14.5462 5.27982 14.8176 5 15.1523 5C15.487 5 15.7583 5.27982 15.7583 5.625ZM32.122 19.375C32.122 20.4105 31.3079 21.25 30.3038 21.25C29.2997 21.25 28.4856 20.4105 28.4856 19.375C28.4856 18.3395 29.2997 17.5 30.3038 17.5C31.3079 17.5 32.122 18.3395 32.122 19.375Z" stroke="#54ABA3" stroke-width="2" stroke-miterlimit="10"/>
    </g>
  </g>
  <defs>
    <clipPath id="clip0_839_50938">
      <rect width="40" height="40" fill="white"/>
    </clipPath>
  </defs>
</svg>
