<svg width="40" height="40" viewBox="0 0 40 40" fill="none" xmlns="http://www.w3.org/2000/svg">
  <g clip-path="url(#clip0_796_48937)">
    <mask id="mask0_796_48937" style="mask-type:luminance" maskUnits="userSpaceOnUse" x="0" y="0" width="40" height="40">
      <path d="M0.5 39.5V0.5H39.5V39.5H0.5Z" fill="white" stroke="white"/>
    </mask>
    <g mask="url(#mask0_796_48937)">
      <path d="M16.25 18.7536V21.2502C16.2499 21.9406 16.8095 22.5003 17.4999 22.5002H22.5006C23.1911 22.5 23.7507 21.9402 23.7506 21.2497L23.75 18.7536M16.25 18.7536C16.25 14.6088 12.4999 13.1327 12.4999 8.67816C12.4999 4.22366 15.2096 1.25391 19.2741 1.25391H20.7258C24.7904 1.25391 27.5 4.22366 27.5 8.67816C27.5 13.1327 23.75 14.6088 23.75 18.7536M16.25 18.7536H23.75M20 22.4983V40.001M11.25 27.501H8.75C6.67887 27.501 5 29.1798 5 31.251V32.501H7.5C9.57113 32.501 11.25 30.8221 11.25 28.751V27.501ZM11.25 27.501H7.91663C4.23475 27.501 1.25 24.367 1.25 20.501V18.751H4.58337C8.26525 18.751 11.25 21.885 11.25 25.751V27.501ZM11.25 27.501C16.0825 27.501 20 31.4185 20 36.251C20 31.4185 23.9175 27.501 28.75 27.501M28.75 27.501H31.75C34.2352 27.501 36.25 25.4023 36.25 22.8135V21.251H33.25C30.7648 21.251 28.75 23.3496 28.75 25.9385V27.501ZM28.75 27.501L32.0834 27.5011C35.7653 27.5011 38.75 30.6351 38.75 34.5011V36.2511H35.4166C31.7347 36.2511 28.75 33.1171 28.75 29.2511V27.501ZM20 13.751V18.751M20 13.751C18.6193 13.751 17.5 12.6317 17.5 11.2509M20 13.751C21.3807 13.751 22.5 12.6317 22.5 11.2509M8.75 10.0009L1.25 11.2509M38.75 11.2509L31.25 10.0009M8.75 5.00091L1.25 3.75091M38.75 3.75091L31.25 5.00091" stroke="#54ABA3" stroke-width="2" stroke-miterlimit="10"/>
    </g>
  </g>
  <defs>
    <clipPath id="clip0_796_48937">
      <rect width="40" height="40" fill="white"/>
    </clipPath>
  </defs>
</svg>
