<svg width="40" height="40" viewBox="0 0 40 40" fill="none" xmlns="http://www.w3.org/2000/svg">
  <g clip-path="url(#clip0_796_52702)">
    <mask id="mask0_796_52702" style="mask-type:luminance" maskUnits="userSpaceOnUse" x="0" y="0" width="40" height="40">
      <path d="M0.5 39.5V0.5H39.5V39.5H0.5Z" fill="white" stroke="white"/>
    </mask>
    <g mask="url(#mask0_796_52702)">
      <path d="M20 30.7124C17.9289 30.7124 16.25 29.1237 16.25 27.164V24.7984C16.25 22.8386 17.9289 21.25 20 21.25C22.0711 21.25 23.75 22.8386 23.75 24.7984V27.164C23.75 29.1237 22.0711 30.7124 20 30.7124ZM20 30.7124C23.6995 30.7124 27.5 32.4866 27.5 36.035V37.5C27.5 38.1904 26.9404 38.75 26.25 38.75H13.75C13.0596 38.75 12.5 38.1904 12.5 37.5V36.035C12.5 32.4866 16.3005 30.7124 20 30.7124ZM32.5 29.4333C31.1193 29.4333 30 28.3741 30 27.0676V25.4906C30 24.1841 31.1193 23.125 32.5 23.125C33.8807 23.125 35 24.1841 35 25.4906V27.0676C35 28.3741 33.8807 29.4333 32.5 29.4333ZM32.5 29.4333C34.9664 29.4333 37.5 30.616 37.5 32.9816V35C37.5 35.6904 36.9404 36.25 36.25 36.25H31.25M32.5 29.4333C30.0336 29.4333 27.5 30.616 27.5 32.9816V35.625M7.50075 29.4333C8.8815 29.4333 10.0007 28.3741 10.0007 27.0676V25.4906C10.0007 24.1841 8.8815 23.125 7.50075 23.125C6.12 23.125 5.00075 24.1841 5.00075 25.4906V27.0676C5.00075 28.3741 6.12 29.4333 7.50075 29.4333ZM7.50075 29.4333C5.03437 29.4333 2.50075 30.616 2.50075 32.9816V35C2.50075 35.6904 3.06038 36.25 3.75075 36.25H8.75075M7.50075 29.4333C9.96712 29.4333 12.5007 30.616 12.5007 32.9816V35.625M13.75 8.75L20 2.5M20 2.5L26.25 8.75M20 2.5V16.25M2.5 13.75L7.5 8.75M7.5 8.75L12.5 13.75M7.5 8.75V18.75M27.5 13.75L32.5 8.75M32.5 8.75L37.5 13.75M32.5 8.75V18.75" stroke="#54ABA3" stroke-width="2" stroke-miterlimit="10"/>
    </g>
  </g>
  <defs>
    <clipPath id="clip0_796_52702">
      <rect width="40" height="40" fill="white"/>
    </clipPath>
  </defs>
</svg>
