<svg width="41" height="40" viewBox="0 0 41 40" fill="none" xmlns="http://www.w3.org/2000/svg">
  <g clip-path="url(#clip0_796_51373)">
    <mask id="mask0_796_51373" style="mask-type:luminance" maskUnits="userSpaceOnUse" x="0" y="0" width="41" height="40">
      <path d="M0.833984 39.5V0.5H39.834V39.5H0.833984Z" fill="white" stroke="white"/>
    </mask>
    <g mask="url(#mask0_796_51373)">
      <path d="M1.58398 10H39.084M19.0834 33.75H2.83398C2.14361 33.75 1.58398 33.1904 1.58398 32.5V2.5C1.58398 1.80963 2.14361 1.25 2.83398 1.25H37.834C38.5244 1.25 39.084 1.80963 39.084 2.5V32.4997C39.084 33.19 38.5245 33.7496 37.8341 33.7497L31.5835 33.75M31.5835 33.75C31.5836 34.4405 31.0241 35.0015 30.3336 35.0017H25.2331C24.5429 35.0017 23.9834 34.4424 23.9831 33.7521L23.9824 31.2545M31.5835 33.75L31.5829 31.2506M23.9824 31.2545C23.9824 27.1097 20.2324 25.6336 20.2324 21.1791C20.2324 16.7246 22.9421 13.7549 27.0066 13.7549H28.4582C32.5229 13.7549 35.2325 16.7246 35.2325 21.1791C35.2325 25.6336 31.5829 27.1059 31.5829 31.2506M23.9824 31.2545L31.5829 31.2506M5.33436 14.9994H19.0841M5.33423 18.7499H16.5841M30.3346 38.75H25.334M27.8337 31.2549L27.834 23.7549M30.334 21.2519C30.334 22.6326 29.2147 23.7519 27.834 23.7519C26.4532 23.7519 25.334 22.6326 25.334 21.2519M6.58398 5.625C6.58398 5.97018 6.30416 6.25 5.95898 6.25C5.61381 6.25 5.33398 5.97018 5.33398 5.625C5.33398 5.27982 5.61381 5 5.95898 5C6.30416 5 6.58398 5.27982 6.58398 5.625ZM11.584 5.625C11.584 5.97018 11.3042 6.25 10.959 6.25C10.6138 6.25 10.334 5.97018 10.334 5.625C10.334 5.27982 10.6138 5 10.959 5C11.3042 5 11.584 5.27982 11.584 5.625ZM16.584 5.625C16.584 5.97018 16.3041 6.25 15.959 6.25C15.6139 6.25 15.334 5.97018 15.334 5.625C15.334 5.27982 15.6139 5 15.959 5C16.3041 5 16.584 5.27982 16.584 5.625ZM6.58398 27.5V25C6.58398 24.3096 7.07373 23.75 7.67773 23.75H14.2402C14.8442 23.75 15.334 24.3096 15.334 25V27.5C15.334 28.1904 14.8442 28.75 14.2402 28.75H7.67773C7.07373 28.75 6.58398 28.1904 6.58398 27.5Z" stroke="#54ABA3" stroke-width="2" stroke-miterlimit="10"/>
    </g>
  </g>
  <defs>
    <clipPath id="clip0_796_51373">
      <rect width="40" height="40" fill="white" transform="translate(0.333984)"/>
    </clipPath>
  </defs>
</svg>
