<svg width="41" height="40" viewBox="0 0 41 40" fill="none" xmlns="http://www.w3.org/2000/svg">
  <g clip-path="url(#clip0_796_48943)">
    <mask id="mask0_796_48943" style="mask-type:luminance" maskUnits="userSpaceOnUse" x="0" y="0" width="41" height="40">
      <path d="M40.666 0H0.666016V40H40.666V0Z" fill="white"/>
    </mask>
    <g mask="url(#mask0_796_48943)">
      <path d="M25.6658 19.9697H23.3983C22.428 19.9697 21.476 20.2335 20.644 20.7328L16.9521 22.9485C16.111 23.4534 15.1471 23.7173 14.1661 23.7115L10.666 23.6908M29.416 23.75C31.4871 23.75 33.166 22.0711 33.166 20V19.9697H28.166M10.666 36.2204L13.4125 36.25C14.8819 36.25 16.3184 36.6849 17.541 37.5C18.7636 38.3151 20.2001 38.75 21.6695 38.75H31.6761C32.7116 38.75 33.5511 37.9105 33.5511 36.875C33.5511 35.8395 32.7116 35 31.6761 35H29.416H33.1501C34.1856 35 35.0251 34.1605 35.0251 33.125C35.0251 32.0895 34.1856 31.25 33.1501 31.25M33.1501 31.25H29.416M33.1501 31.25C34.1856 31.25 35.0251 30.4105 35.0251 29.375C35.0251 28.3395 34.1856 27.5 33.1501 27.5H29.416H33.791C34.8265 27.5 35.666 26.6605 35.666 25.625C35.666 24.5895 34.8265 23.75 33.791 23.75H24.416M10.666 21.1906V38.7204M6.91602 21.1906V38.7204M28.1661 13.7485V23.7485M28.1661 13.7485L28.166 3.74963H19.4163V13.7496L28.1661 13.7485ZM19.416 11.25V1.25H8.16602L11.3803 6.25L8.16602 11.25H19.416Z" stroke="#54ABA3" stroke-width="2" stroke-miterlimit="10"/>
    </g>
  </g>
  <defs>
    <clipPath id="clip0_796_48943">
      <rect width="40" height="40" fill="white" transform="translate(0.666016)"/>
    </clipPath>
  </defs>
</svg>
