<svg width="40" height="40" viewBox="0 0 40 40" fill="none" xmlns="http://www.w3.org/2000/svg">
  <mask id="mask0_839_50976" style="mask-type:luminance" maskUnits="userSpaceOnUse" x="0" y="0" width="39" height="40">
    <path d="M0.5 39.5V0.5H38.2938V39.5H0.5Z" fill="white" stroke="white"/>
  </mask>
  <g mask="url(#mask0_839_50976)">
    <path d="M11.4541 6.26112C9.50896 6.26112 7.72399 7.08749 6.4286 8.58662C4.1406 11.2355 4.39769 15.5641 7.00181 18.2375M28.4886 32.4989C26.9197 32.4989 25.6478 31.1871 25.6478 29.5691V27.616C25.6478 25.9979 26.9197 24.6863 28.4886 24.6863C30.0576 24.6863 31.3295 25.998 31.3295 27.616V29.5691C31.3295 31.1873 30.0576 32.4989 28.4886 32.4989ZM28.4886 32.4989C31.4174 32.4989 33.8611 34.6011 34.4262 36.4275M28.4886 32.4989C25.5599 32.4989 23.1164 34.6011 22.5513 36.4275M33.63 21.6424L34.3577 20.8955C38.2668 16.884 38.7483 10.3385 35.0811 6.09312C31.0987 1.48287 24.2206 1.32362 20.0382 5.61537L19.3966 6.27374L18.7551 5.61537C14.5726 1.32362 7.69454 1.48287 3.71212 6.09312C0.0449619 10.3384 0.526538 16.8839 4.43551 20.8955L19.3966 36.2489L20.966 34.6384M37.5797 29.3739C37.5797 34.5515 33.5095 38.7489 28.4887 38.7489C23.4679 38.7489 19.3978 34.5515 19.3978 29.3739C19.3978 24.1961 23.4679 19.9989 28.4887 19.9989C33.5095 19.9989 37.5797 24.1961 37.5797 29.3739Z" stroke="#54ABA3" stroke-width="2" stroke-miterlimit="10"/>
  </g>
</svg>
