<svg width="40" height="40" viewBox="0 0 40 40" fill="none" xmlns="http://www.w3.org/2000/svg">
  <g clip-path="url(#clip0_796_49714)">
    <mask id="mask0_796_49714" style="mask-type:luminance" maskUnits="userSpaceOnUse" x="0" y="0" width="40" height="40">
      <path d="M0.5 39.5V0.5H39.5V39.5H0.5Z" fill="white" stroke="white"/>
    </mask>
    <g mask="url(#mask0_796_49714)">
      <path d="M20.0001 30.8334C17.9507 30.8334 16.2892 29.1719 16.2892 27.1224V24.6484C16.2892 22.599 17.9507 20.9375 20.0002 20.9375C22.0496 20.9375 23.7111 22.599 23.7111 24.6485V27.1225C23.7111 29.1719 22.0496 30.8334 20.0001 30.8334ZM20.0001 30.8334C23.8259 30.8334 27.0177 33.4962 27.756 35.8096M20.0001 30.8334C16.1744 30.8334 12.9825 33.4962 12.2443 35.8096M16.2501 10C16.2501 10 20.5332 10 21.8045 10C24.347 10 24.347 6.25 21.8045 6.25C20.957 6.25 20.1095 6.25 19.262 6.25C16.7195 6.25 16.7195 2.5 19.262 2.5C20.5332 2.5 23.7489 2.5 23.7489 2.5M19.9876 10V12.5M19.9876 0V2.5M31.8751 26.875C31.8751 33.4334 26.5585 38.75 20.0001 38.75C13.4417 38.75 8.12514 33.4334 8.12514 26.875C8.12514 20.3166 13.4417 15 20.0001 15C26.5585 15 31.8751 20.3166 31.8751 26.875ZM7.79388 5.18263L9.16139 7.9535L12.2193 8.39787C12.4879 8.43687 12.5952 8.76712 12.4008 8.95662L10.188 11.1135L10.7104 14.159C10.7563 14.4266 10.4754 14.6306 10.2351 14.5044L7.50001 13.0665L4.76489 14.5044C4.52451 14.6308 4.24376 14.4266 4.28964 14.159L4.81201 11.1135L2.59926 8.95662C2.40489 8.76712 2.51214 8.43687 2.78076 8.39787L5.83863 7.9535L7.20614 5.18263C7.32626 4.93913 7.67376 4.93913 7.79388 5.18263ZM32.8721 14.8392L36.8541 10.8572C37.8945 9.81687 38.0227 8.11925 37.0466 7.01813C35.9866 5.82238 34.156 5.78112 33.0429 6.89425L32.8721 7.065L32.7014 6.89425C31.5881 5.78112 29.7575 5.8225 28.6976 7.01813C27.7216 8.11913 27.8497 9.81675 28.8901 10.8572L32.8721 14.8392Z" stroke="#54ABA3" stroke-width="2" stroke-miterlimit="10"/>
    </g>
  </g>
  <defs>
    <clipPath id="clip0_796_49714">
      <rect width="40" height="40" fill="white"/>
    </clipPath>
  </defs>
</svg>
