<svg width="41" height="40" viewBox="0 0 41 40" fill="none" xmlns="http://www.w3.org/2000/svg">
  <g clip-path="url(#clip0_796_48949)">
    <path d="M5.33398 31.2519C4.41061 12.7847 13.0363 4.54866 25.1649 1.50528C31.2892 -0.0314663 35.9934 6.95385 32.1999 12.0013C32.1656 12.047 32.1314 12.0925 32.097 12.1378C30.9682 13.6317 29.2639 14.5784 27.397 14.7225L23.5312 15.0208L26.5848 18.3754C20.3757 24.284 14.788 28.795 5.33398 31.2519ZM5.33398 31.2519L1.58398 33.7519M5.33398 31.2519L7.83398 35.0019M5.33398 31.2519C4.67198 33.0338 4.08398 36.2519 4.08398 40.0019M5.33398 31.2519C9.53992 19.931 21.2489 8.88941 31.526 3.23103M39.1146 13.7519C39.1146 24.4662 30.0885 33.871 16.584 36.2519M39.084 31.2519C36.5831 36.251 30.334 38.751 26.584 38.751M14.084 17.501C13.6305 13.4185 14.2512 9.99241 15.5568 5.64897M10.2412 22.1949C13.8979 22.6504 18.0153 22.5759 22.458 22.1257" stroke="#54ABA3" stroke-width="2" stroke-miterlimit="10"/>
  </g>
  <defs>
    <clipPath id="clip0_796_48949">
      <rect width="40" height="40" fill="white" transform="translate(0.333984)"/>
    </clipPath>
  </defs>
</svg>
