<svg width="41" height="40" viewBox="0 0 41 40" fill="none" xmlns="http://www.w3.org/2000/svg">
  <g clip-path="url(#clip0_796_51367)">
    <path d="M1.91602 34.9991L7.30877 29.6064C8.02739 28.8878 9.01889 28.5109 10.0334 28.5705L14.3331 28.8234C16.5863 28.9559 18.4853 31.5148 18.1661 33.7491M10.666 33.7491H20.666L28.166 28.7491C30.2371 27.3684 33.0353 27.928 34.416 29.9991L22.8844 38.0713C22.254 38.5125 21.5033 38.7491 20.7339 38.7491H9.41602M34.9516 8.3005L34.9518 2.58625H40.666M30.666 1.42775C25.9321 1.42775 22.0946 5.26525 22.0946 9.99913C22.0946 14.733 25.9321 18.5705 30.666 18.5705C35.3999 18.5705 39.2374 14.733 39.2374 9.99913C39.2374 6.82863 37.516 4.06013 34.9568 2.57738M30.666 4.28488V9.99913L26.3803 12.8563M23.1694 5.84063C20.9968 3.04713 17.6035 1.25 13.7906 1.25C7.23252 1.25 1.91614 6.56638 1.91614 13.1245C1.91614 19.6826 7.23252 24.999 13.7906 24.999C19.1519 24.999 23.6831 21.4461 25.1586 16.5664M13.7905 17.0828C11.7411 17.0828 10.0798 15.4214 10.0798 13.372V10.8981C10.0798 8.84875 11.7411 7.18738 13.7905 7.18738C15.8399 7.18738 17.5013 8.84875 17.5013 10.8981V13.372C17.5013 15.4214 15.8399 17.0828 13.7905 17.0828ZM13.7905 17.0828C17.616 17.0828 20.808 19.7456 21.5461 22.0589M13.7905 17.0828C9.96489 17.0828 6.77327 19.7456 6.03514 22.0589" stroke="#54ABA3" stroke-width="2" stroke-miterlimit="10"/>
  </g>
  <defs>
    <clipPath id="clip0_796_51367">
      <rect width="40" height="40" fill="white" transform="translate(0.666016)"/>
    </clipPath>
  </defs>
</svg>
