<svg width="41" height="40" viewBox="0 0 41 40" fill="none" xmlns="http://www.w3.org/2000/svg">
  <g clip-path="url(#clip0_796_52714)">
    <mask id="mask0_796_52714" style="mask-type:luminance" maskUnits="userSpaceOnUse" x="0" y="0" width="41" height="40">
      <path d="M0.832031 39.5V0.5H39.832V39.5H0.832031Z" fill="white" stroke="white"/>
    </mask>
    <g mask="url(#mask0_796_52714)">
      <path d="M12.832 10V3.75M12.832 3.75H6.58203M12.832 3.75L2.83203 13.75M2.83203 13.75V7.5M2.83203 13.75H9.08203M2.83203 18.75V24.375C2.83203 28.0209 14.082 29.4791 14.082 33.125V38.75M14.082 18.75V24.375C14.082 28.0209 2.83203 29.4791 2.83203 33.125V38.75M0.332031 18.75H16.582M19.082 5V10.1451C19.082 17.2911 36.582 20.1495 36.582 27.2955V32.5M19.082 32.4406V27.2955C19.082 20.1495 36.582 17.2911 36.582 10.1451V5M16.582 36.25H37.832C38.5224 36.25 39.082 35.6904 39.082 35V33.75C39.082 33.0596 38.5224 32.5 37.832 32.5H16.5814M0.332031 38.75H16.582M17.832 1.25H37.832C38.5224 1.25 39.082 1.80965 39.082 2.5V3.75C39.082 4.44035 38.5224 5 37.832 5H17.832C17.1417 5 16.582 4.44035 16.582 3.75V2.5C16.582 1.80965 17.1417 1.25 17.832 1.25Z" stroke="#54ABA3" stroke-width="2" stroke-miterlimit="10"/>
    </g>
  </g>
  <defs>
    <clipPath id="clip0_796_52714">
      <rect width="40" height="40" fill="white" transform="translate(0.332031)"/>
    </clipPath>
  </defs>
</svg>
