<svg width="41" height="40" viewBox="0 0 41 40" fill="none" xmlns="http://www.w3.org/2000/svg">
  <g clip-path="url(#clip0_796_52708)">
    <mask id="mask0_796_52708" style="mask-type:luminance" maskUnits="userSpaceOnUse" x="0" y="0" width="41" height="40">
      <path d="M40.668 0H0.667969V40H40.668V0Z" fill="white"/>
    </mask>
    <g mask="url(#mask0_796_52708)">
      <path d="M25.668 7.5H19.418V1.25M25.668 7.5V18.75M25.668 7.5L19.418 1.25M19.418 1.25H11.918C11.2276 1.25 10.668 1.80963 10.668 2.5V6.25M29.418 18.75V6.25L24.418 1.25M33.168 16.25V5L29.418 1.25M6.29297 28.75L11.9772 23.0658C12.7346 22.3084 13.7798 21.911 14.8491 21.9739L19.3812 22.2405C21.7561 22.3803 23.5045 24.5199 23.168 26.875M15.668 26.875H26.293L32.1151 21.0529C33.7321 19.4359 36.3537 19.4359 37.9707 21.0529L38.1678 21.25L28.0162 31.4016C27.313 32.1049 26.3591 32.5 25.3646 32.5H13.7928L11.9178 34.375M13.793 36.25L4.41797 26.875M11.293 38.75L1.91797 29.375M10.6683 8.75V18.75M15.668 13.7507H5.66797" stroke="#54ABA3" stroke-width="2" stroke-miterlimit="10"/>
    </g>
  </g>
  <defs>
    <clipPath id="clip0_796_52708">
      <rect width="40" height="40" fill="white" transform="translate(0.667969)"/>
    </clipPath>
  </defs>
</svg>
