<svg width="41" height="40" viewBox="0 0 41 40" fill="none" xmlns="http://www.w3.org/2000/svg">
  <g clip-path="url(#clip0_839_50982)">
    <mask id="mask0_839_50982" style="mask-type:luminance" maskUnits="userSpaceOnUse" x="0" y="0" width="41" height="40">
      <path d="M40.666 0H0.666016V40H40.666V0Z" fill="white"/>
    </mask>
    <g mask="url(#mask0_839_50982)">
      <path d="M33.166 31.25V32.5C33.166 33.1904 32.6064 33.75 31.916 33.75H28.166M28.166 33.75C28.166 34.4404 27.6064 35 26.916 35C26.2256 35 25.666 34.4404 25.666 33.75C25.666 33.0596 26.2256 32.5 26.916 32.5C27.6064 32.5 28.166 33.0596 28.166 33.75ZM14.416 16.2496L10.6659 16.2501L5.66652 21.2501L5.66602 16.2501H3.16602C2.47564 16.2501 1.91602 15.6905 1.91602 15.0001V2.5C1.91602 1.80963 2.47564 1.25 3.16602 1.25H25.666C26.3564 1.25 26.916 1.80963 26.916 2.5V13.75M20.666 22.5C20.666 19.7386 22.9046 17.5 25.666 17.5H28.166C30.9274 17.5 33.166 19.7386 33.166 22.5M21.284 22.5H21.6069C22.4674 22.5 23.1659 23.1986 23.1659 24.059V29.691C23.1659 30.5515 22.4673 31.25 21.6069 31.25H21.284C19.5631 31.25 18.166 29.8529 18.166 28.132V25.6181C18.166 23.8972 19.5631 22.5 21.284 22.5ZM32.225 22.5H32.5479C34.2688 22.5 35.6659 23.8971 35.6659 25.618V28.1319C35.6659 29.8528 34.2688 31.2499 32.5479 31.2499H32.225C31.3645 31.2499 30.666 30.5513 30.666 29.6909V24.0589C30.666 23.1984 31.3646 22.5 32.225 22.5ZM15.8866 13.75H37.9454C38.7576 13.75 39.416 14.4084 39.416 15.2206V37.2794C39.416 38.0916 38.7576 38.75 37.9454 38.75H15.8866C15.0744 38.75 14.416 38.0916 14.416 37.2794V15.2206C14.416 14.4084 15.0744 13.75 15.8866 13.75ZM9.41602 8.75C9.41602 9.44035 8.85637 10 8.16602 10C7.47567 10 6.91602 9.44035 6.91602 8.75C6.91602 8.05965 7.47567 7.5 8.16602 7.5C8.85637 7.5 9.41602 8.05965 9.41602 8.75ZM15.666 8.75C15.666 9.44035 15.1064 10 14.416 10C13.7256 10 13.166 9.44035 13.166 8.75C13.166 8.05965 13.7256 7.5 14.416 7.5C15.1064 7.5 15.666 8.05965 15.666 8.75ZM21.916 8.75C21.916 9.44035 21.3564 10 20.666 10C19.9756 10 19.416 9.44035 19.416 8.75C19.416 8.05965 19.9756 7.5 20.666 7.5C21.3564 7.5 21.916 8.05965 21.916 8.75Z" stroke="#54ABA3" stroke-width="2" stroke-miterlimit="10"/>
    </g>
  </g>
  <defs>
    <clipPath id="clip0_839_50982">
      <rect width="40" height="40" fill="white" transform="translate(0.666016)"/>
    </clipPath>
  </defs>
</svg>
