<svg width="41" height="40" viewBox="0 0 41 40" fill="none" xmlns="http://www.w3.org/2000/svg">
  <g clip-path="url(#clip0_796_49726)">
    <mask id="mask0_796_49726" style="mask-type:luminance" maskUnits="userSpaceOnUse" x="0" y="0" width="41" height="40">
      <path d="M0.833984 39.5V0.5H39.834V39.5H0.833984Z" fill="white" stroke="white"/>
    </mask>
    <g mask="url(#mask0_796_49726)">
      <path d="M5.95861 28.75L11.6429 23.0658C12.4002 22.3084 13.4455 21.911 14.5147 21.9739L19.0469 22.2405C21.4217 22.3803 23.1701 24.5199 22.8336 26.875M15.3336 26.875H25.9586L31.7807 21.0529C33.3977 19.4359 36.0194 19.4359 37.6364 21.0529L37.8335 21.25L27.6819 31.4016C26.9786 32.1049 26.0247 32.5 25.0302 32.5H13.4585L11.5835 34.375M13.4586 36.25L4.08361 26.875M10.9586 38.75L1.58361 29.375M24.0827 13.75L20.3336 10V3.7495M5.33361 11.25V15M5.33361 17.5V21.25M10.3336 16.25H6.58361M4.08398 16.2489H0.333984M35.3336 1.25V3.75M35.3336 6.25V8.75M39.0836 5H36.5836M34.0836 5H31.5836M29.0836 10C29.0836 14.8325 25.1661 18.75 20.3336 18.75C15.5011 18.75 11.5836 14.8325 11.5836 10C11.5836 5.16751 15.5011 1.25 20.3336 1.25C25.1661 1.25 29.0836 5.16751 29.0836 10Z" stroke="#54ABA3" stroke-width="2" stroke-miterlimit="10"/>
    </g>
  </g>
  <defs>
    <clipPath id="clip0_796_49726">
      <rect width="40" height="40" fill="white" transform="translate(0.333984)"/>
    </clipPath>
  </defs>
</svg>
