<svg  viewBox="0 0 267 300" fill="none" xmlns="http://www.w3.org/2000/svg">
<g clip-path="url(#clip0_1041_16921)">
<mask id="mask0_1041_16921" style="mask-type:alpha" maskUnits="userSpaceOnUse" x="0" y="0" width="267" height="300">
<path d="M266.577 0H0.423096V300H266.577V0Z" fill="url(#paint0_radial_1041_16921)"/>
</mask>
<g mask="url(#mask0_1041_16921)">
<g style="mix-blend-mode:overlay">
<path d="M39.6538 297.308C91.2712 297.308 133.115 255.463 133.115 203.846C133.115 152.229 91.2712 110.385 39.6538 110.385C-11.9635 110.385 -53.8077 152.229 -53.8077 203.846C-53.8077 255.463 -11.9635 297.308 39.6538 297.308Z" stroke="white"/>
</g>
<g style="mix-blend-mode:overlay">
<path d="M39.6538 297.308C91.2712 297.308 133.115 255.463 133.115 203.846C133.115 152.229 91.2712 110.385 39.6538 110.385C-11.9635 110.385 -53.8077 152.229 -53.8077 203.846C-53.8077 255.463 -11.9635 297.308 39.6538 297.308Z" stroke="white"/>
</g>
<g style="mix-blend-mode:overlay">
<path d="M39.6538 297.308C91.2712 297.308 133.115 255.463 133.115 203.846C133.115 152.229 91.2712 110.385 39.6538 110.385C-11.9635 110.385 -53.8077 152.229 -53.8077 203.846C-53.8077 255.463 -11.9635 297.308 39.6538 297.308Z" stroke="white"/>
</g>
<g style="mix-blend-mode:overlay">
<path d="M227.346 297.308C278.964 297.308 320.808 255.463 320.808 203.846C320.808 152.229 278.964 110.385 227.346 110.385C175.729 110.385 133.885 152.229 133.885 203.846C133.885 255.463 175.729 297.308 227.346 297.308Z" stroke="white"/>
</g>
<g style="mix-blend-mode:overlay">
<path d="M227.346 297.308C278.964 297.308 320.808 255.463 320.808 203.846C320.808 152.229 278.964 110.385 227.346 110.385C175.729 110.385 133.885 152.229 133.885 203.846C133.885 255.463 175.729 297.308 227.346 297.308Z" stroke="white"/>
</g>
<g style="mix-blend-mode:overlay">
<path d="M227.346 297.308C278.964 297.308 320.808 255.463 320.808 203.846C320.808 152.229 278.964 110.385 227.346 110.385C175.729 110.385 133.885 152.229 133.885 203.846C133.885 255.463 175.729 297.308 227.346 297.308Z" stroke="white"/>
</g>
<g style="mix-blend-mode:overlay">
<path d="M153.5 297.308C205.117 297.308 246.961 255.463 246.961 203.846C246.961 152.229 205.117 110.385 153.5 110.385C101.883 110.385 60.0385 152.229 60.0385 203.846C60.0385 255.463 101.883 297.308 153.5 297.308Z" stroke="white"/>
</g>
<g style="mix-blend-mode:overlay">
<path d="M153.5 297.308C205.117 297.308 246.961 255.463 246.961 203.846C246.961 152.229 205.117 110.385 153.5 110.385C101.883 110.385 60.0385 152.229 60.0385 203.846C60.0385 255.463 101.883 297.308 153.5 297.308Z" stroke="white"/>
</g>
<g style="mix-blend-mode:overlay">
<path d="M113.5 297.308C165.117 297.308 206.961 255.463 206.961 203.846C206.961 152.229 165.117 110.385 113.5 110.385C61.8826 110.385 20.0385 152.229 20.0385 203.846C20.0385 255.463 61.8826 297.308 113.5 297.308Z" stroke="white"/>
</g>
<g style="mix-blend-mode:overlay">
<path d="M113.5 297.308C165.117 297.308 206.961 255.463 206.961 203.846C206.961 152.229 165.117 110.385 113.5 110.385C61.8826 110.385 20.0385 152.229 20.0385 203.846C20.0385 255.463 61.8826 297.308 113.5 297.308Z" stroke="white"/>
</g>
<g style="mix-blend-mode:overlay">
<path d="M227.346 189.615C278.964 189.615 320.808 147.771 320.808 96.1538C320.808 44.5364 278.964 2.69226 227.346 2.69226C175.729 2.69226 133.885 44.5364 133.885 96.1538C133.885 147.771 175.729 189.615 227.346 189.615Z" stroke="white"/>
</g>
<g style="mix-blend-mode:overlay">
<path d="M227.346 189.615C278.964 189.615 320.808 147.771 320.808 96.1538C320.808 44.5364 278.964 2.69226 227.346 2.69226C175.729 2.69226 133.885 44.5364 133.885 96.1538C133.885 147.771 175.729 189.615 227.346 189.615Z" stroke="white"/>
</g>
<g style="mix-blend-mode:overlay">
<path d="M227.346 189.615C278.964 189.615 320.808 147.771 320.808 96.1538C320.808 44.5364 278.964 2.69226 227.346 2.69226C175.729 2.69226 133.885 44.5364 133.885 96.1538C133.885 147.771 175.729 189.615 227.346 189.615Z" stroke="white"/>
</g>
<g style="mix-blend-mode:overlay">
<path d="M39.6538 189.615C91.2712 189.615 133.115 147.771 133.115 96.1538C133.115 44.5364 91.2712 2.69226 39.6538 2.69226C-11.9635 2.69226 -53.8077 44.5364 -53.8077 96.1538C-53.8077 147.771 -11.9635 189.615 39.6538 189.615Z" stroke="white"/>
</g>
<g style="mix-blend-mode:overlay">
<path d="M39.6538 189.615C91.2712 189.615 133.115 147.771 133.115 96.1538C133.115 44.5364 91.2712 2.69226 39.6538 2.69226C-11.9635 2.69226 -53.8077 44.5364 -53.8077 96.1538C-53.8077 147.771 -11.9635 189.615 39.6538 189.615Z" stroke="white"/>
</g>
<g style="mix-blend-mode:overlay">
<path d="M39.6538 189.615C91.2712 189.615 133.115 147.771 133.115 96.1538C133.115 44.5364 91.2712 2.69226 39.6538 2.69226C-11.9635 2.69226 -53.8077 44.5364 -53.8077 96.1538C-53.8077 147.771 -11.9635 189.615 39.6538 189.615Z" stroke="white"/>
</g>
<g style="mix-blend-mode:overlay">
<path d="M113.5 189.615C165.117 189.615 206.961 147.771 206.961 96.1538C206.961 44.5364 165.117 2.69226 113.5 2.69226C61.8826 2.69226 20.0385 44.5364 20.0385 96.1538C20.0385 147.771 61.8826 189.615 113.5 189.615Z" stroke="white"/>
</g>
<g style="mix-blend-mode:overlay">
<path d="M113.5 189.615C165.117 189.615 206.961 147.771 206.961 96.1538C206.961 44.5364 165.117 2.69226 113.5 2.69226C61.8826 2.69226 20.0385 44.5364 20.0385 96.1538C20.0385 147.771 61.8826 189.615 113.5 189.615Z" stroke="white"/>
</g>
<g style="mix-blend-mode:overlay">
<path d="M153.5 189.615C205.117 189.615 246.961 147.771 246.961 96.1538C246.961 44.5364 205.117 2.69226 153.5 2.69226C101.883 2.69226 60.0385 44.5364 60.0385 96.1538C60.0385 147.771 101.883 189.615 153.5 189.615Z" stroke="white"/>
</g>
<g style="mix-blend-mode:overlay">
<path d="M153.5 189.615C205.117 189.615 246.961 147.771 246.961 96.1538C246.961 44.5364 205.117 2.69226 153.5 2.69226C101.883 2.69226 60.0385 44.5364 60.0385 96.1538C60.0385 147.771 101.883 189.615 153.5 189.615Z" stroke="white"/>
</g>
</g>
<g style="mix-blend-mode:overlay">
<path d="M59.6539 190L134.269 233.077L207.346 190V109.231L134.269 66.9231L59.6539 109.231V190Z" stroke="white"/>
</g>
<g style="mix-blend-mode:overlay">
<path d="M59.6539 190L134.269 233.077L207.346 190V109.231L134.269 66.9231L59.6539 109.231V190Z" stroke="white"/>
</g>
<path d="M78.1154 110C78.1154 99.804 69.8499 91.5385 59.6539 91.5385C49.4578 91.5385 41.1923 99.804 41.1923 110C41.1923 120.196 49.4578 128.462 59.6539 128.462C69.8499 128.462 78.1154 120.196 78.1154 110Z" fill="white"/>
<mask id="mask1_1041_16921" style="mask-type:luminance" maskUnits="userSpaceOnUse" x="50" y="100" width="19" height="20">
<path d="M68.8846 100.769H50.4231V119.231H68.8846V100.769Z" fill="white"/>
</mask>
<g mask="url(#mask1_1041_16921)">
<path d="M56.7693 112.885C55.1762 112.885 53.8846 114.176 53.8846 115.769C53.8846 117.362 55.1762 118.654 56.7693 118.654C58.3623 118.654 59.6539 117.362 59.6539 115.769V103.654C59.6539 102.379 58.6207 101.346 57.3462 101.346C56.0716 101.346 55.0385 102.379 55.0385 103.654C55.0385 104.928 56.0716 105.962 57.3462 105.962" stroke="url(#paint1_linear_1041_16921)" stroke-width="1.5" stroke-miterlimit="10"/>
<path d="M54.0175 116.631C52.3373 116.55 51 115.162 51 113.462C51 111.709 52.4206 110.288 54.1731 110.288C54.9696 110.288 55.6154 109.643 55.6154 108.846" stroke="url(#paint2_linear_1041_16921)" stroke-width="1.5" stroke-miterlimit="10"/>
<path d="M55.0492 103.729C54.8616 103.68 54.6646 103.654 54.4615 103.654C53.187 103.654 52.1538 104.687 52.1538 105.962C52.1538 106.246 52.2054 106.519 52.2996 106.771C51.5305 107.145 51 107.933 51 108.846C51 109.752 51.5222 110.536 52.2822 110.914" stroke="url(#paint3_linear_1041_16921)" stroke-width="1.5" stroke-miterlimit="10"/>
<path d="M61.3846 118.654H64.5" stroke="url(#paint4_linear_1041_16921)" stroke-width="1.5" stroke-miterlimit="10"/>
<path d="M61.3846 116.923H65.0769" stroke="url(#paint5_linear_1041_16921)" stroke-width="1.5" stroke-miterlimit="10"/>
<path d="M64.2692 107.692C64.2692 108.967 63.236 110 61.9615 110V115.192H64.8461C64.8461 111.972 68.3077 110.577 68.3077 107.115C68.3077 103.654 66 101.346 62.5384 101.346H61.3846" stroke="url(#paint6_linear_1041_16921)" stroke-width="1.5" stroke-miterlimit="10"/>
</g>
<path d="M151.962 66.9231C151.962 56.7271 143.696 48.4615 133.5 48.4615C123.304 48.4615 115.038 56.7271 115.038 66.9231C115.038 77.1191 123.304 85.3846 133.5 85.3846C143.696 85.3846 151.962 77.1191 151.962 66.9231Z" fill="white"/>
<mask id="mask2_1041_16921" style="mask-type:luminance" maskUnits="userSpaceOnUse" x="124" y="57" width="19" height="20">
<path d="M142.731 57.6923H124.269V76.1538H142.731V57.6923Z" fill="white"/>
</mask>
<g mask="url(#mask2_1041_16921)">
<path d="M132.923 75L134.654 73.2692L132.923 71.5385" stroke="url(#paint7_linear_1041_16921)" stroke-width="1.5" stroke-miterlimit="10"/>
<path d="M128.308 65.1922C130.219 65.1922 131.769 63.6425 131.769 61.7307C131.769 59.8189 130.219 58.2692 128.308 58.2692C126.396 58.2692 124.846 59.8189 124.846 61.7307C124.846 63.6425 126.396 65.1922 128.308 65.1922Z" stroke="url(#paint8_linear_1041_16921)" stroke-width="1.5" stroke-miterlimit="10"/>
<path d="M127.226 61.8028C127.226 62.4002 127.71 62.8845 128.308 62.8845C128.905 62.8845 129.389 62.4002 129.389 61.8028V61.0816C129.389 60.4842 128.905 59.9999 128.308 59.9999C127.71 59.9999 127.226 60.4842 127.226 61.0816V61.8028Z" stroke="url(#paint9_linear_1041_16921)" stroke-width="1.5" stroke-miterlimit="10"/>
<path d="M130.569 64.3351C130.353 63.6607 129.423 62.8845 128.308 62.8845C127.192 62.8845 126.262 63.6607 126.047 64.3351" stroke="url(#paint10_linear_1041_16921)" stroke-width="1.5" stroke-miterlimit="10"/>
<path d="M135.044 65.7692H133.11C133.007 65.7692 132.923 65.8529 132.923 65.9563V67.8897C132.923 67.9931 133.007 68.0769 133.11 68.0769H135.044C135.147 68.0769 135.231 67.9931 135.231 67.8897V65.9563C135.231 65.8529 135.147 65.7692 135.044 65.7692Z" stroke="url(#paint11_linear_1041_16921)" stroke-width="1.5" stroke-miterlimit="10"/>
<path d="M141.83 58.8461H137.862C137.684 58.8461 137.538 58.9912 137.538 59.1703V61.9834C137.538 62.1625 137.684 62.3076 137.862 62.3076H141.83C142.008 62.3076 142.154 62.1625 142.154 61.9834V59.1703C142.154 58.9912 142.008 58.8461 141.83 58.8461Z" stroke="url(#paint12_linear_1041_16921)" stroke-width="1.5" stroke-miterlimit="10"/>
<path d="M129.138 71.5385H125.17C124.992 71.5385 124.846 71.6836 124.846 71.8627V74.6758C124.846 74.8548 124.992 75 125.17 75H129.138C129.316 75 129.462 74.8548 129.462 74.6758V71.8627C129.462 71.6836 129.316 71.5385 129.138 71.5385Z" stroke="url(#paint13_linear_1041_16921)" stroke-width="1.5" stroke-miterlimit="10"/>
<path d="M129.462 73.2692H134.654" stroke="url(#paint14_linear_1041_16921)" stroke-width="1.5" stroke-miterlimit="10"/>
<path d="M139.269 75.5768C140.862 75.5768 142.154 74.2854 142.154 72.6922C142.154 71.0991 140.862 69.8076 139.269 69.8076C137.676 69.8076 136.385 71.0991 136.385 72.6922C136.385 74.2854 137.676 75.5768 139.269 75.5768Z" stroke="url(#paint15_linear_1041_16921)" stroke-width="1.5" stroke-miterlimit="10"/>
<path d="M139.269 73.8461C139.906 73.8461 140.423 73.3295 140.423 72.6923C140.423 72.0551 139.906 71.5385 139.269 71.5385C138.632 71.5385 138.115 72.0551 138.115 72.6923C138.115 73.3295 138.632 73.8461 139.269 73.8461Z" stroke="url(#paint16_linear_1041_16921)" stroke-width="1.5" stroke-miterlimit="10"/>
<path d="M139.846 62.3076V66.3461C139.846 66.6647 139.588 66.923 139.269 66.923H135.231" stroke="url(#paint17_linear_1041_16921)" stroke-width="1.5" stroke-miterlimit="10"/>
<path d="M133.5 60.5769H137.538" stroke="url(#paint18_linear_1041_16921)" stroke-width="1.5" stroke-miterlimit="10"/>
<path d="M132.923 66.923H127.731C127.412 66.923 127.154 67.1813 127.154 67.4999V71.5384" stroke="url(#paint19_linear_1041_16921)" stroke-width="1.5" stroke-miterlimit="10"/>
</g>
<path d="M225.808 110C225.808 99.804 217.542 91.5385 207.346 91.5385C197.15 91.5385 188.885 99.804 188.885 110C188.885 120.196 197.15 128.462 207.346 128.462C217.542 128.462 225.808 120.196 225.808 110Z" fill="white"/>
<mask id="mask3_1041_16921" style="mask-type:luminance" maskUnits="userSpaceOnUse" x="198" y="100" width="19" height="20">
<path d="M216.577 100.769H198.115V119.231H216.577V100.769Z" fill="white"/>
</mask>
<g mask="url(#mask3_1041_16921)">
<path d="M206.769 104.808H201V111.731H206.769V104.808Z" stroke="url(#paint20_linear_1041_16921)" stroke-width="1.5" stroke-miterlimit="10"/>
<path d="M201 104.808L206.769 111.731" stroke="url(#paint21_linear_1041_16921)" stroke-width="1.5" stroke-miterlimit="10"/>
<path d="M201 104.808L206.769 111.731" stroke="url(#paint22_linear_1041_16921)" stroke-width="1.5" stroke-miterlimit="10"/>
<path d="M206.769 104.808L201 111.731" stroke="url(#paint23_linear_1041_16921)" stroke-width="1.5" stroke-miterlimit="10"/>
<path d="M208.5 107.115H212.621" stroke="url(#paint24_linear_1041_16921)" stroke-width="1.5" stroke-miterlimit="10"/>
<path d="M208.5 104.808H214.269" stroke="url(#paint25_linear_1041_16921)" stroke-width="1.5" stroke-miterlimit="10"/>
<path d="M208.5 114.038H199.269C198.951 114.038 198.692 113.78 198.692 113.462V103.077C198.692 102.758 198.951 102.5 199.269 102.5H215.423C215.742 102.5 216 102.758 216 103.077V109.423" stroke="url(#paint26_linear_1041_16921)" stroke-width="1.5" stroke-miterlimit="10"/>
<path d="M214.607 113.758L209.712 118.654H208.08V117.022L212.975 112.127L214.607 113.758Z" stroke="url(#paint27_linear_1041_16921)" stroke-width="1.5" stroke-miterlimit="10"/>
<path d="M214.607 113.758L215.831 112.535C216.056 112.309 216.056 111.944 215.831 111.718L215.015 110.903C214.79 110.678 214.425 110.678 214.199 110.903L212.975 112.127" stroke="url(#paint28_linear_1041_16921)" stroke-width="1.5" stroke-miterlimit="10"/>
<path d="M204.462 118.654H206.192" stroke="url(#paint29_linear_1041_16921)" stroke-width="1.5" stroke-miterlimit="10"/>
<path d="M201.576 115.77V114.038" stroke="url(#paint30_linear_1041_16921)" stroke-width="1.5" stroke-miterlimit="10"/>
<path d="M201.577 116.923V117.5C201.577 118.137 202.094 118.654 202.731 118.654H203.308" stroke="url(#paint31_linear_1041_16921)" stroke-width="1.5" stroke-miterlimit="10"/>
</g>
<path d="M78.1154 190C78.1154 179.804 69.8499 171.538 59.6539 171.538C49.4578 171.538 41.1923 179.804 41.1923 190C41.1923 200.196 49.4578 208.462 59.6539 208.462C69.8499 208.462 78.1154 200.196 78.1154 190Z" fill="white"/>
<mask id="mask4_1041_16921" style="mask-type:luminance" maskUnits="userSpaceOnUse" x="50" y="180" width="19" height="20">
<path d="M68.8846 180.769H50.4231V199.231H68.8846V180.769Z" fill="white"/>
</mask>
<g mask="url(#mask4_1041_16921)">
<path d="M51.8654 181.346H51.2885C51.1292 181.346 51 181.475 51 181.635V182.212C51 182.371 51.1292 182.5 51.2885 182.5H51.8654C52.0247 182.5 52.1538 182.371 52.1538 182.212V181.635C52.1538 181.475 52.0247 181.346 51.8654 181.346Z" stroke="url(#paint32_linear_1041_16921)" stroke-width="1.5" stroke-miterlimit="10"/>
<path d="M63.9807 181.346H63.4038C63.2445 181.346 63.1154 181.475 63.1154 181.635V182.212C63.1154 182.371 63.2445 182.5 63.4038 182.5H63.9807C64.14 182.5 64.2692 182.371 64.2692 182.212V181.635C64.2692 181.475 64.14 181.346 63.9807 181.346Z" stroke="url(#paint33_linear_1041_16921)" stroke-width="1.5" stroke-miterlimit="10"/>
<path d="M51.8654 193.462H51.2885C51.1292 193.462 51 193.591 51 193.75V194.327C51 194.486 51.1292 194.615 51.2885 194.615H51.8654C52.0247 194.615 52.1538 194.486 52.1538 194.327V193.75C52.1538 193.591 52.0247 193.462 51.8654 193.462Z" stroke="url(#paint34_linear_1041_16921)" stroke-width="1.5" stroke-miterlimit="10"/>
<path d="M51.5769 184.231V185.962" stroke="url(#paint35_linear_1041_16921)" stroke-width="1.5" stroke-miterlimit="10"/>
<path d="M55.6154 181.923H53.8846" stroke="url(#paint36_linear_1041_16921)" stroke-width="1.5" stroke-miterlimit="10"/>
<path d="M61.4519 181.923H59.6539" stroke="url(#paint37_linear_1041_16921)" stroke-width="1.5" stroke-miterlimit="10"/>
<path d="M58.5001 181.923H56.7692" stroke="url(#paint38_linear_1041_16921)" stroke-width="1.5" stroke-miterlimit="10"/>
<path d="M51.5769 187.115V188.846" stroke="url(#paint39_linear_1041_16921)" stroke-width="1.5" stroke-miterlimit="10"/>
<path d="M63.6923 187.115V188.846" stroke="url(#paint40_linear_1041_16921)" stroke-width="1.5" stroke-miterlimit="10"/>
<path d="M63.6923 190V191.731" stroke="url(#paint41_linear_1041_16921)" stroke-width="1.5" stroke-miterlimit="10"/>
<path d="M55.6154 194.038H53.8846" stroke="url(#paint42_linear_1041_16921)" stroke-width="1.5" stroke-miterlimit="10"/>
<path d="M58.5 194.038H56.7692" stroke="url(#paint43_linear_1041_16921)" stroke-width="1.5" stroke-miterlimit="10"/>
<path d="M61.3846 194.038H59.6539" stroke="url(#paint44_linear_1041_16921)" stroke-width="1.5" stroke-miterlimit="10"/>
<path d="M51.5769 190V191.697" stroke="url(#paint45_linear_1041_16921)" stroke-width="1.5" stroke-miterlimit="10"/>
<path d="M63.6923 184.231V185.962" stroke="url(#paint46_linear_1041_16921)" stroke-width="1.5" stroke-miterlimit="10"/>
<path d="M63.0481 192.342V197.822L64.875 195.995L67.4327 195.63L63.0481 192.342Z" stroke="url(#paint47_linear_1041_16921)" stroke-width="1.5" stroke-miterlimit="10"/>
<path d="M60.8077 184.231H54.4616C54.143 184.231 53.8846 184.489 53.8846 184.808V191.154C53.8846 191.472 54.143 191.731 54.4616 191.731H60.8077C61.1263 191.731 61.3846 191.472 61.3846 191.154V184.808C61.3846 184.489 61.1263 184.231 60.8077 184.231Z" stroke="url(#paint48_linear_1041_16921)" stroke-width="1.5" stroke-miterlimit="10"/>
<path d="M68.8846 191.731H66.5769C66.2583 191.731 66 191.472 66 191.154V184.808C66 184.489 66.2583 184.231 66.5769 184.231H68.8846" stroke="url(#paint49_linear_1041_16921)" stroke-width="1.5" stroke-miterlimit="10"/>
<path d="M53.8846 199.231V196.923C53.8846 196.605 54.143 196.346 54.4616 196.346H60.8077C61.1263 196.346 61.3846 196.605 61.3846 196.923V199.231" stroke="url(#paint50_linear_1041_16921)" stroke-width="1.5" stroke-miterlimit="10"/>
</g>
<path d="M151.962 233.077C151.962 222.881 143.696 214.615 133.5 214.615C123.304 214.615 115.038 222.881 115.038 233.077C115.038 243.273 123.304 251.538 133.5 251.538C143.696 251.538 151.962 243.273 151.962 233.077Z" fill="white"/>
<mask id="mask5_1041_16921" style="mask-type:luminance" maskUnits="userSpaceOnUse" x="124" y="223" width="19" height="20">
<path d="M142.731 223.846H124.269V242.308H142.731V223.846Z" fill="white"/>
</mask>
<g mask="url(#mask5_1041_16921)">
<path d="M127.154 240H139.846C141.121 240 142.154 238.967 142.154 237.692C142.154 236.418 141.121 235.385 139.846 235.385H127.154C125.879 235.385 124.846 236.418 124.846 237.692C124.846 238.967 125.879 240 127.154 240Z" stroke="url(#paint51_linear_1041_16921)" stroke-width="1.5" stroke-miterlimit="10"/>
<path d="M131.769 237.692H138.115" stroke="url(#paint52_linear_1041_16921)" stroke-width="1.5" stroke-miterlimit="10"/>
<path d="M128.885 238.269C129.203 238.269 129.462 238.011 129.462 237.692C129.462 237.374 129.203 237.115 128.885 237.115C128.566 237.115 128.308 237.374 128.308 237.692C128.308 238.011 128.566 238.269 128.885 238.269Z" stroke="url(#paint53_linear_1041_16921)" stroke-width="1.5" stroke-miterlimit="10"/>
<path d="M130.572 231.078C130.365 230.402 129.43 229.615 128.308 229.615C127.192 229.615 126.262 230.391 126.047 231.066" stroke="url(#paint54_linear_1041_16921)" stroke-width="1.5" stroke-miterlimit="10"/>
<path d="M128.308 231.923C130.219 231.923 131.769 230.373 131.769 228.462C131.769 226.55 130.219 225 128.308 225C126.396 225 124.846 226.55 124.846 228.462C124.846 230.373 126.396 231.923 128.308 231.923Z" stroke="url(#paint55_linear_1041_16921)" stroke-width="1.5" stroke-miterlimit="10"/>
<path d="M127.226 228.534C127.226 229.131 127.71 229.615 128.308 229.615C128.905 229.615 129.389 229.131 129.389 228.534V227.812C129.389 227.215 128.905 226.731 128.308 226.731C127.71 226.731 127.226 227.215 127.226 227.812V228.534Z" stroke="url(#paint56_linear_1041_16921)" stroke-width="1.5" stroke-miterlimit="10"/>
<path d="M138.692 228.623V230.192C138.692 230.511 138.951 230.769 139.269 230.769H140.423C141.06 230.769 141.577 230.226 141.577 229.5V228.623C141.577 227.897 141.06 227.308 140.423 227.308H138.692V228.623Z" stroke="url(#paint57_linear_1041_16921)" stroke-width="1.5" stroke-miterlimit="10"/>
<path d="M133.5 231.346C133.5 230.391 133.648 229.441 133.939 228.53L134.885 225.577H135.808L136.753 228.53C137.044 229.441 137.192 230.391 137.192 231.346" stroke="url(#paint58_linear_1041_16921)" stroke-width="1.5" stroke-miterlimit="10"/>
<path d="M133.669 229.615H137.023" stroke="url(#paint59_linear_1041_16921)" stroke-width="1.5" stroke-miterlimit="10"/>
<path d="M138.692 225V229.038" stroke="url(#paint60_linear_1041_16921)" stroke-width="1.5" stroke-miterlimit="10"/>
</g>
<path d="M225.808 190C225.808 179.804 217.542 171.538 207.346 171.538C197.15 171.538 188.885 179.804 188.885 190C188.885 200.196 197.15 208.462 207.346 208.462C217.542 208.462 225.808 200.196 225.808 190Z" fill="white"/>
<mask id="mask6_1041_16921" style="mask-type:luminance" maskUnits="userSpaceOnUse" x="198" y="180" width="19" height="20">
<path d="M216.577 180.769H198.115V199.231H216.577V180.769Z" fill="white"/>
</mask>
<g mask="url(#mask6_1041_16921)">
<path d="M210.808 181.923V187.115L212.539 185.385L214.962 185.038L210.808 181.923Z" stroke="url(#paint61_linear_1041_16921)" stroke-width="1.5" stroke-miterlimit="10"/>
<path d="M202.731 196.346H204.462" stroke="url(#paint62_linear_1041_16921)" stroke-width="1.5" stroke-miterlimit="10"/>
<path d="M205.615 196.346H207.346" stroke="url(#paint63_linear_1041_16921)" stroke-width="1.5" stroke-miterlimit="10"/>
<path d="M208.5 196.346H210.231" stroke="url(#paint64_linear_1041_16921)" stroke-width="1.5" stroke-miterlimit="10"/>
<path d="M209.645 190H211.375" stroke="url(#paint65_linear_1041_16921)" stroke-width="1.5" stroke-miterlimit="10"/>
<path d="M203.308 183.654H205.039" stroke="url(#paint66_linear_1041_16921)" stroke-width="1.5" stroke-miterlimit="10"/>
<path d="M206.192 183.654H207.923" stroke="url(#paint67_linear_1041_16921)" stroke-width="1.5" stroke-miterlimit="10"/>
<path d="M209.077 183.654H210.808" stroke="url(#paint68_linear_1041_16921)" stroke-width="1.5" stroke-miterlimit="10"/>
<path d="M206.76 190H208.491" stroke="url(#paint69_linear_1041_16921)" stroke-width="1.5" stroke-miterlimit="10"/>
<path d="M203.308 190H205.615" stroke="url(#paint70_linear_1041_16921)" stroke-width="1.5" stroke-miterlimit="10"/>
<path d="M201 198.077C201.956 198.077 202.731 197.302 202.731 196.346C202.731 195.39 201.956 194.615 201 194.615C200.044 194.615 199.269 195.39 199.269 196.346C199.269 197.302 200.044 198.077 201 198.077Z" stroke="url(#paint71_linear_1041_16921)" stroke-width="1.5" stroke-miterlimit="10"/>
<path d="M212.539 195.769L213.692 196.923L216.289 194.327" stroke="url(#paint72_linear_1041_16921)" stroke-width="1.5" stroke-miterlimit="10"/>
<path d="M214.846 194.038H211.962C211.643 194.038 211.385 194.297 211.385 194.615V198.077C211.385 198.395 211.643 198.654 211.962 198.654H215.423C215.742 198.654 216 198.395 216 198.077V196.346" stroke="url(#paint73_linear_1041_16921)" stroke-width="1.5" stroke-miterlimit="10"/>
<path d="M199.846 188.846L201 190L203.596 187.404" stroke="url(#paint74_linear_1041_16921)" stroke-width="1.5" stroke-miterlimit="10"/>
<path d="M201.989 187.115H199.269C198.951 187.115 198.692 187.374 198.692 187.692V191.154C198.692 191.472 198.951 191.731 199.269 191.731H202.731C203.049 191.731 203.308 191.472 203.308 191.154V189.423" stroke="url(#paint75_linear_1041_16921)" stroke-width="1.5" stroke-miterlimit="10"/>
<path d="M214.269 192.308V191.154C214.269 190.517 213.752 190 213.115 190H212.529" stroke="url(#paint76_linear_1041_16921)" stroke-width="1.5" stroke-miterlimit="10"/>
<path d="M200.423 185.385V184.808C200.423 184.171 200.94 183.654 201.577 183.654H202.154" stroke="url(#paint77_linear_1041_16921)" stroke-width="1.5" stroke-miterlimit="10"/>
</g>
</g>
<defs>
<radialGradient id="paint0_radial_1041_16921" cx="0" cy="0" r="1" gradientUnits="userSpaceOnUse" gradientTransform="translate(133.5 150) rotate(90) scale(150 105.915)">
<stop stop-color="#D9D9D9"/>
<stop offset="1" stop-color="#D9D9D9" stop-opacity="0"/>
</radialGradient>
<linearGradient id="paint1_linear_1041_16921" x1="59.6539" y1="101.346" x2="49.2692" y2="104.808" gradientUnits="userSpaceOnUse">
<stop stop-color="#407A7A"/>
<stop offset="1" stop-color="#002832"/>
</linearGradient>
<linearGradient id="paint2_linear_1041_16921" x1="55.6154" y1="108.846" x2="48.7854" y2="112.895" gradientUnits="userSpaceOnUse">
<stop stop-color="#407A7A"/>
<stop offset="1" stop-color="#002832"/>
</linearGradient>
<linearGradient id="paint3_linear_1041_16921" x1="55.0492" y1="103.654" x2="48.8722" y2="107.099" gradientUnits="userSpaceOnUse">
<stop stop-color="#407A7A"/>
<stop offset="1" stop-color="#002832"/>
</linearGradient>
<linearGradient id="paint4_linear_1041_16921" x1="nan" y1="nan" x2="nan" y2="nan" gradientUnits="userSpaceOnUse">
<stop stop-color="#407A7A"/>
<stop offset="1" stop-color="#002832"/>
</linearGradient>
<linearGradient id="paint5_linear_1041_16921" x1="nan" y1="nan" x2="nan" y2="nan" gradientUnits="userSpaceOnUse">
<stop stop-color="#407A7A"/>
<stop offset="1" stop-color="#002832"/>
</linearGradient>
<linearGradient id="paint6_linear_1041_16921" x1="68.3077" y1="101.346" x2="57.2307" y2="106.885" gradientUnits="userSpaceOnUse">
<stop stop-color="#407A7A"/>
<stop offset="1" stop-color="#002832"/>
</linearGradient>
<linearGradient id="paint7_linear_1041_16921" x1="134.654" y1="71.5385" x2="131.885" y2="72.9231" gradientUnits="userSpaceOnUse">
<stop stop-color="#407A7A"/>
<stop offset="1" stop-color="#002832"/>
</linearGradient>
<linearGradient id="paint8_linear_1041_16921" x1="131.769" y1="58.2692" x2="124.846" y2="65.1923" gradientUnits="userSpaceOnUse">
<stop stop-color="#407A7A"/>
<stop offset="1" stop-color="#002832"/>
</linearGradient>
<linearGradient id="paint9_linear_1041_16921" x1="129.389" y1="59.9999" x2="126.62" y2="62.0768" gradientUnits="userSpaceOnUse">
<stop stop-color="#407A7A"/>
<stop offset="1" stop-color="#002832"/>
</linearGradient>
<linearGradient id="paint10_linear_1041_16921" x1="130.569" y1="62.8845" x2="129.725" y2="65.5149" gradientUnits="userSpaceOnUse">
<stop stop-color="#407A7A"/>
<stop offset="1" stop-color="#002832"/>
</linearGradient>
<linearGradient id="paint11_linear_1041_16921" x1="135.231" y1="65.7692" x2="132.923" y2="68.0769" gradientUnits="userSpaceOnUse">
<stop stop-color="#407A7A"/>
<stop offset="1" stop-color="#002832"/>
</linearGradient>
<linearGradient id="paint12_linear_1041_16921" x1="142.154" y1="58.8461" x2="138.831" y2="63.2768" gradientUnits="userSpaceOnUse">
<stop stop-color="#407A7A"/>
<stop offset="1" stop-color="#002832"/>
</linearGradient>
<linearGradient id="paint13_linear_1041_16921" x1="129.462" y1="71.5385" x2="126.138" y2="75.9692" gradientUnits="userSpaceOnUse">
<stop stop-color="#407A7A"/>
<stop offset="1" stop-color="#002832"/>
</linearGradient>
<linearGradient id="paint14_linear_1041_16921" x1="nan" y1="nan" x2="nan" y2="nan" gradientUnits="userSpaceOnUse">
<stop stop-color="#407A7A"/>
<stop offset="1" stop-color="#002832"/>
</linearGradient>
<linearGradient id="paint15_linear_1041_16921" x1="142.154" y1="69.8076" x2="136.385" y2="75.5769" gradientUnits="userSpaceOnUse">
<stop stop-color="#407A7A"/>
<stop offset="1" stop-color="#002832"/>
</linearGradient>
<linearGradient id="paint16_linear_1041_16921" x1="140.423" y1="71.5385" x2="138.115" y2="73.8461" gradientUnits="userSpaceOnUse">
<stop stop-color="#407A7A"/>
<stop offset="1" stop-color="#002832"/>
</linearGradient>
<linearGradient id="paint17_linear_1041_16921" x1="139.846" y1="62.3076" x2="135.231" y2="66.9231" gradientUnits="userSpaceOnUse">
<stop stop-color="#407A7A"/>
<stop offset="1" stop-color="#002832"/>
</linearGradient>
<linearGradient id="paint18_linear_1041_16921" x1="nan" y1="nan" x2="nan" y2="nan" gradientUnits="userSpaceOnUse">
<stop stop-color="#407A7A"/>
<stop offset="1" stop-color="#002832"/>
</linearGradient>
<linearGradient id="paint19_linear_1041_16921" x1="132.923" y1="66.923" x2="128.42" y2="72.5515" gradientUnits="userSpaceOnUse">
<stop stop-color="#407A7A"/>
<stop offset="1" stop-color="#002832"/>
</linearGradient>
<linearGradient id="paint20_linear_1041_16921" x1="206.769" y1="104.808" x2="199.96" y2="110.482" gradientUnits="userSpaceOnUse">
<stop stop-color="#407A7A"/>
<stop offset="1" stop-color="#002832"/>
</linearGradient>
<linearGradient id="paint21_linear_1041_16921" x1="206.769" y1="104.808" x2="199.96" y2="110.482" gradientUnits="userSpaceOnUse">
<stop stop-color="#407A7A"/>
<stop offset="1" stop-color="#002832"/>
</linearGradient>
<linearGradient id="paint22_linear_1041_16921" x1="206.769" y1="104.808" x2="199.96" y2="110.482" gradientUnits="userSpaceOnUse">
<stop stop-color="#407A7A"/>
<stop offset="1" stop-color="#002832"/>
</linearGradient>
<linearGradient id="paint23_linear_1041_16921" x1="206.769" y1="104.808" x2="199.96" y2="110.482" gradientUnits="userSpaceOnUse">
<stop stop-color="#407A7A"/>
<stop offset="1" stop-color="#002832"/>
</linearGradient>
<linearGradient id="paint24_linear_1041_16921" x1="nan" y1="nan" x2="nan" y2="nan" gradientUnits="userSpaceOnUse">
<stop stop-color="#407A7A"/>
<stop offset="1" stop-color="#002832"/>
</linearGradient>
<linearGradient id="paint25_linear_1041_16921" x1="nan" y1="nan" x2="nan" y2="nan" gradientUnits="userSpaceOnUse">
<stop stop-color="#407A7A"/>
<stop offset="1" stop-color="#002832"/>
</linearGradient>
<linearGradient id="paint26_linear_1041_16921" x1="216" y1="102.5" x2="205.349" y2="118.476" gradientUnits="userSpaceOnUse">
<stop stop-color="#407A7A"/>
<stop offset="1" stop-color="#002832"/>
</linearGradient>
<linearGradient id="paint27_linear_1041_16921" x1="214.607" y1="112.127" x2="208.08" y2="118.654" gradientUnits="userSpaceOnUse">
<stop stop-color="#407A7A"/>
<stop offset="1" stop-color="#002832"/>
</linearGradient>
<linearGradient id="paint28_linear_1041_16921" x1="216" y1="110.734" x2="212.975" y2="113.758" gradientUnits="userSpaceOnUse">
<stop stop-color="#407A7A"/>
<stop offset="1" stop-color="#002832"/>
</linearGradient>
<linearGradient id="paint29_linear_1041_16921" x1="nan" y1="nan" x2="nan" y2="nan" gradientUnits="userSpaceOnUse">
<stop stop-color="#407A7A"/>
<stop offset="1" stop-color="#002832"/>
</linearGradient>
<linearGradient id="paint30_linear_1041_16921" x1="nan" y1="nan" x2="nan" y2="nan" gradientUnits="userSpaceOnUse">
<stop stop-color="#407A7A"/>
<stop offset="1" stop-color="#002832"/>
</linearGradient>
<linearGradient id="paint31_linear_1041_16921" x1="203.308" y1="116.923" x2="201.577" y2="118.654" gradientUnits="userSpaceOnUse">
<stop stop-color="#407A7A"/>
<stop offset="1" stop-color="#002832"/>
</linearGradient>
<linearGradient id="paint32_linear_1041_16921" x1="52.1538" y1="181.346" x2="51" y2="182.5" gradientUnits="userSpaceOnUse">
<stop stop-color="#407A7A"/>
<stop offset="1" stop-color="#002832"/>
</linearGradient>
<linearGradient id="paint33_linear_1041_16921" x1="64.2692" y1="181.346" x2="63.1154" y2="182.5" gradientUnits="userSpaceOnUse">
<stop stop-color="#407A7A"/>
<stop offset="1" stop-color="#002832"/>
</linearGradient>
<linearGradient id="paint34_linear_1041_16921" x1="52.1538" y1="193.462" x2="51" y2="194.615" gradientUnits="userSpaceOnUse">
<stop stop-color="#407A7A"/>
<stop offset="1" stop-color="#002832"/>
</linearGradient>
<linearGradient id="paint35_linear_1041_16921" x1="nan" y1="nan" x2="nan" y2="nan" gradientUnits="userSpaceOnUse">
<stop stop-color="#407A7A"/>
<stop offset="1" stop-color="#002832"/>
</linearGradient>
<linearGradient id="paint36_linear_1041_16921" x1="nan" y1="nan" x2="nan" y2="nan" gradientUnits="userSpaceOnUse">
<stop stop-color="#407A7A"/>
<stop offset="1" stop-color="#002832"/>
</linearGradient>
<linearGradient id="paint37_linear_1041_16921" x1="nan" y1="nan" x2="nan" y2="nan" gradientUnits="userSpaceOnUse">
<stop stop-color="#407A7A"/>
<stop offset="1" stop-color="#002832"/>
</linearGradient>
<linearGradient id="paint38_linear_1041_16921" x1="nan" y1="nan" x2="nan" y2="nan" gradientUnits="userSpaceOnUse">
<stop stop-color="#407A7A"/>
<stop offset="1" stop-color="#002832"/>
</linearGradient>
<linearGradient id="paint39_linear_1041_16921" x1="nan" y1="nan" x2="nan" y2="nan" gradientUnits="userSpaceOnUse">
<stop stop-color="#407A7A"/>
<stop offset="1" stop-color="#002832"/>
</linearGradient>
<linearGradient id="paint40_linear_1041_16921" x1="nan" y1="nan" x2="nan" y2="nan" gradientUnits="userSpaceOnUse">
<stop stop-color="#407A7A"/>
<stop offset="1" stop-color="#002832"/>
</linearGradient>
<linearGradient id="paint41_linear_1041_16921" x1="nan" y1="nan" x2="nan" y2="nan" gradientUnits="userSpaceOnUse">
<stop stop-color="#407A7A"/>
<stop offset="1" stop-color="#002832"/>
</linearGradient>
<linearGradient id="paint42_linear_1041_16921" x1="nan" y1="nan" x2="nan" y2="nan" gradientUnits="userSpaceOnUse">
<stop stop-color="#407A7A"/>
<stop offset="1" stop-color="#002832"/>
</linearGradient>
<linearGradient id="paint43_linear_1041_16921" x1="nan" y1="nan" x2="nan" y2="nan" gradientUnits="userSpaceOnUse">
<stop stop-color="#407A7A"/>
<stop offset="1" stop-color="#002832"/>
</linearGradient>
<linearGradient id="paint44_linear_1041_16921" x1="nan" y1="nan" x2="nan" y2="nan" gradientUnits="userSpaceOnUse">
<stop stop-color="#407A7A"/>
<stop offset="1" stop-color="#002832"/>
</linearGradient>
<linearGradient id="paint45_linear_1041_16921" x1="nan" y1="nan" x2="nan" y2="nan" gradientUnits="userSpaceOnUse">
<stop stop-color="#407A7A"/>
<stop offset="1" stop-color="#002832"/>
</linearGradient>
<linearGradient id="paint46_linear_1041_16921" x1="nan" y1="nan" x2="nan" y2="nan" gradientUnits="userSpaceOnUse">
<stop stop-color="#407A7A"/>
<stop offset="1" stop-color="#002832"/>
</linearGradient>
<linearGradient id="paint47_linear_1041_16921" x1="67.4327" y1="192.342" x2="62.0856" y2="196.619" gradientUnits="userSpaceOnUse">
<stop stop-color="#407A7A"/>
<stop offset="1" stop-color="#002832"/>
</linearGradient>
<linearGradient id="paint48_linear_1041_16921" x1="61.3846" y1="184.231" x2="53.8847" y2="191.731" gradientUnits="userSpaceOnUse">
<stop stop-color="#407A7A"/>
<stop offset="1" stop-color="#002832"/>
</linearGradient>
<linearGradient id="paint49_linear_1041_16921" x1="68.8846" y1="184.231" x2="63.8588" y2="186.164" gradientUnits="userSpaceOnUse">
<stop stop-color="#407A7A"/>
<stop offset="1" stop-color="#002832"/>
</linearGradient>
<linearGradient id="paint50_linear_1041_16921" x1="61.3846" y1="196.346" x2="59.4517" y2="201.372" gradientUnits="userSpaceOnUse">
<stop stop-color="#407A7A"/>
<stop offset="1" stop-color="#002832"/>
</linearGradient>
<linearGradient id="paint51_linear_1041_16921" x1="124.846" y1="240" x2="127.144" y2="231.382" gradientUnits="userSpaceOnUse">
<stop stop-color="#407A7A"/>
<stop offset="1" stop-color="#002832"/>
</linearGradient>
<linearGradient id="paint52_linear_1041_16921" x1="nan" y1="nan" x2="nan" y2="nan" gradientUnits="userSpaceOnUse">
<stop stop-color="#407A7A"/>
<stop offset="1" stop-color="#002832"/>
</linearGradient>
<linearGradient id="paint53_linear_1041_16921" x1="129.462" y1="237.115" x2="128.308" y2="238.269" gradientUnits="userSpaceOnUse">
<stop stop-color="#407A7A"/>
<stop offset="1" stop-color="#002832"/>
</linearGradient>
<linearGradient id="paint54_linear_1041_16921" x1="130.572" y1="229.615" x2="129.716" y2="232.265" gradientUnits="userSpaceOnUse">
<stop stop-color="#407A7A"/>
<stop offset="1" stop-color="#002832"/>
</linearGradient>
<linearGradient id="paint55_linear_1041_16921" x1="131.769" y1="225" x2="124.846" y2="231.923" gradientUnits="userSpaceOnUse">
<stop stop-color="#407A7A"/>
<stop offset="1" stop-color="#002832"/>
</linearGradient>
<linearGradient id="paint56_linear_1041_16921" x1="129.389" y1="226.731" x2="126.62" y2="228.808" gradientUnits="userSpaceOnUse">
<stop stop-color="#407A7A"/>
<stop offset="1" stop-color="#002832"/>
</linearGradient>
<linearGradient id="paint57_linear_1041_16921" x1="141.577" y1="227.308" x2="138.172" y2="230.145" gradientUnits="userSpaceOnUse">
<stop stop-color="#407A7A"/>
<stop offset="1" stop-color="#002832"/>
</linearGradient>
<linearGradient id="paint58_linear_1041_16921" x1="137.192" y1="225.577" x2="131.954" y2="228.93" gradientUnits="userSpaceOnUse">
<stop stop-color="#407A7A"/>
<stop offset="1" stop-color="#002832"/>
</linearGradient>
<linearGradient id="paint59_linear_1041_16921" x1="nan" y1="nan" x2="nan" y2="nan" gradientUnits="userSpaceOnUse">
<stop stop-color="#407A7A"/>
<stop offset="1" stop-color="#002832"/>
</linearGradient>
<linearGradient id="paint60_linear_1041_16921" x1="nan" y1="nan" x2="nan" y2="nan" gradientUnits="userSpaceOnUse">
<stop stop-color="#407A7A"/>
<stop offset="1" stop-color="#002832"/>
</linearGradient>
<linearGradient id="paint61_linear_1041_16921" x1="214.962" y1="181.923" x2="209.896" y2="185.975" gradientUnits="userSpaceOnUse">
<stop stop-color="#407A7A"/>
<stop offset="1" stop-color="#002832"/>
</linearGradient>
<linearGradient id="paint62_linear_1041_16921" x1="nan" y1="nan" x2="nan" y2="nan" gradientUnits="userSpaceOnUse">
<stop stop-color="#407A7A"/>
<stop offset="1" stop-color="#002832"/>
</linearGradient>
<linearGradient id="paint63_linear_1041_16921" x1="nan" y1="nan" x2="nan" y2="nan" gradientUnits="userSpaceOnUse">
<stop stop-color="#407A7A"/>
<stop offset="1" stop-color="#002832"/>
</linearGradient>
<linearGradient id="paint64_linear_1041_16921" x1="nan" y1="nan" x2="nan" y2="nan" gradientUnits="userSpaceOnUse">
<stop stop-color="#407A7A"/>
<stop offset="1" stop-color="#002832"/>
</linearGradient>
<linearGradient id="paint65_linear_1041_16921" x1="nan" y1="nan" x2="nan" y2="nan" gradientUnits="userSpaceOnUse">
<stop stop-color="#407A7A"/>
<stop offset="1" stop-color="#002832"/>
</linearGradient>
<linearGradient id="paint66_linear_1041_16921" x1="nan" y1="nan" x2="nan" y2="nan" gradientUnits="userSpaceOnUse">
<stop stop-color="#407A7A"/>
<stop offset="1" stop-color="#002832"/>
</linearGradient>
<linearGradient id="paint67_linear_1041_16921" x1="nan" y1="nan" x2="nan" y2="nan" gradientUnits="userSpaceOnUse">
<stop stop-color="#407A7A"/>
<stop offset="1" stop-color="#002832"/>
</linearGradient>
<linearGradient id="paint68_linear_1041_16921" x1="nan" y1="nan" x2="nan" y2="nan" gradientUnits="userSpaceOnUse">
<stop stop-color="#407A7A"/>
<stop offset="1" stop-color="#002832"/>
</linearGradient>
<linearGradient id="paint69_linear_1041_16921" x1="nan" y1="nan" x2="nan" y2="nan" gradientUnits="userSpaceOnUse">
<stop stop-color="#407A7A"/>
<stop offset="1" stop-color="#002832"/>
</linearGradient>
<linearGradient id="paint70_linear_1041_16921" x1="nan" y1="nan" x2="nan" y2="nan" gradientUnits="userSpaceOnUse">
<stop stop-color="#407A7A"/>
<stop offset="1" stop-color="#002832"/>
</linearGradient>
<linearGradient id="paint71_linear_1041_16921" x1="202.731" y1="194.615" x2="199.269" y2="198.077" gradientUnits="userSpaceOnUse">
<stop stop-color="#407A7A"/>
<stop offset="1" stop-color="#002832"/>
</linearGradient>
<linearGradient id="paint72_linear_1041_16921" x1="216.289" y1="194.327" x2="213.859" y2="197.837" gradientUnits="userSpaceOnUse">
<stop stop-color="#407A7A"/>
<stop offset="1" stop-color="#002832"/>
</linearGradient>
<linearGradient id="paint73_linear_1041_16921" x1="216" y1="194.038" x2="211.385" y2="198.654" gradientUnits="userSpaceOnUse">
<stop stop-color="#407A7A"/>
<stop offset="1" stop-color="#002832"/>
</linearGradient>
<linearGradient id="paint74_linear_1041_16921" x1="203.596" y1="187.404" x2="201.166" y2="190.914" gradientUnits="userSpaceOnUse">
<stop stop-color="#407A7A"/>
<stop offset="1" stop-color="#002832"/>
</linearGradient>
<linearGradient id="paint75_linear_1041_16921" x1="203.308" y1="187.115" x2="198.692" y2="191.731" gradientUnits="userSpaceOnUse">
<stop stop-color="#407A7A"/>
<stop offset="1" stop-color="#002832"/>
</linearGradient>
<linearGradient id="paint76_linear_1041_16921" x1="214.269" y1="190" x2="212.051" y2="191.672" gradientUnits="userSpaceOnUse">
<stop stop-color="#407A7A"/>
<stop offset="1" stop-color="#002832"/>
</linearGradient>
<linearGradient id="paint77_linear_1041_16921" x1="202.154" y1="183.654" x2="200.423" y2="185.385" gradientUnits="userSpaceOnUse">
<stop stop-color="#407A7A"/>
<stop offset="1" stop-color="#002832"/>
</linearGradient>
<clipPath id="clip0_1041_16921">
<rect width="266.154" height="300" fill="white" transform="translate(0.423096)"/>
</clipPath>
</defs>
</svg>
