<svg width="536" height="460" viewBox="0 0 536 460" fill="none" xmlns="http://www.w3.org/2000/svg">
<g filter="url(#filter0_dd_1935_15568)">
<g clip-path="url(#clip0_1935_15568)">
<rect x="95" y="86" width="346" height="228" rx="12" fill="#FAFAFA"/>
<circle cx="104" cy="95" r="1" fill="#DCDEDF"/>
<circle cx="120.4" cy="95" r="1" fill="#DCDEDF"/>
<circle cx="136.801" cy="95" r="1" fill="#DCDEDF"/>
<circle cx="153.199" cy="95" r="1" fill="#DCDEDF"/>
<circle cx="169.6" cy="95" r="1" fill="#DCDEDF"/>
<circle cx="186" cy="95" r="1" fill="#DCDEDF"/>
<circle cx="202.4" cy="95" r="1" fill="#DCDEDF"/>
<circle cx="218.801" cy="95" r="1" fill="#DCDEDF"/>
<circle cx="235.199" cy="95" r="1" fill="#DCDEDF"/>
<circle cx="251.6" cy="95" r="1" fill="#DCDEDF"/>
<circle cx="268" cy="95" r="1" fill="#DCDEDF"/>
<circle cx="284.4" cy="95" r="1" fill="#DCDEDF"/>
<circle cx="300.801" cy="95" r="1" fill="#DCDEDF"/>
<circle cx="317.199" cy="95" r="1" fill="#DCDEDF"/>
<circle cx="333.6" cy="95" r="1" fill="#DCDEDF"/>
<circle cx="350" cy="95" r="1" fill="#DCDEDF"/>
<circle cx="366.4" cy="95" r="1" fill="#DCDEDF"/>
<circle cx="382.801" cy="95" r="1" fill="#DCDEDF"/>
<circle cx="399.199" cy="95" r="1" fill="#DCDEDF"/>
<circle cx="415.6" cy="95" r="1" fill="#DCDEDF"/>
<circle cx="432" cy="95" r="1" fill="#DCDEDF"/>
<circle cx="104" cy="111.154" r="1" fill="#DCDEDF"/>
<circle cx="120.4" cy="111.154" r="1" fill="#DCDEDF"/>
<circle cx="136.801" cy="111.154" r="1" fill="#DCDEDF"/>
<circle cx="153.199" cy="111.154" r="1" fill="#DCDEDF"/>
<circle cx="169.6" cy="111.154" r="1" fill="#DCDEDF"/>
<circle cx="186" cy="111.154" r="1" fill="#DCDEDF"/>
<circle cx="202.4" cy="111.154" r="1" fill="#DCDEDF"/>
<circle cx="218.801" cy="111.154" r="1" fill="#DCDEDF"/>
<circle cx="235.199" cy="111.154" r="1" fill="#DCDEDF"/>
<circle cx="251.6" cy="111.154" r="1" fill="#DCDEDF"/>
<circle cx="268" cy="111.154" r="1" fill="#DCDEDF"/>
<circle cx="284.4" cy="111.154" r="1" fill="#DCDEDF"/>
<circle cx="300.801" cy="111.154" r="1" fill="#DCDEDF"/>
<circle cx="317.199" cy="111.154" r="1" fill="#DCDEDF"/>
<circle cx="333.6" cy="111.154" r="1" fill="#DCDEDF"/>
<circle cx="350" cy="111.154" r="1" fill="#DCDEDF"/>
<circle cx="366.4" cy="111.154" r="1" fill="#DCDEDF"/>
<circle cx="382.801" cy="111.154" r="1" fill="#DCDEDF"/>
<circle cx="399.199" cy="111.154" r="1" fill="#DCDEDF"/>
<circle cx="415.6" cy="111.154" r="1" fill="#DCDEDF"/>
<circle cx="432" cy="111.154" r="1" fill="#DCDEDF"/>
<circle cx="104" cy="127.309" r="1" fill="#DCDEDF"/>
<circle cx="120.4" cy="127.309" r="1" fill="#DCDEDF"/>
<circle cx="136.801" cy="127.309" r="1" fill="#DCDEDF"/>
<circle cx="153.199" cy="127.309" r="1" fill="#DCDEDF"/>
<circle cx="169.6" cy="127.309" r="1" fill="#DCDEDF"/>
<circle cx="186" cy="127.309" r="1" fill="#DCDEDF"/>
<circle cx="202.4" cy="127.309" r="1" fill="#DCDEDF"/>
<circle cx="218.801" cy="127.309" r="1" fill="#DCDEDF"/>
<circle cx="235.199" cy="127.309" r="1" fill="#DCDEDF"/>
<circle cx="251.6" cy="127.309" r="1" fill="#DCDEDF"/>
<circle cx="268" cy="127.309" r="1" fill="#DCDEDF"/>
<circle cx="284.4" cy="127.309" r="1" fill="#DCDEDF"/>
<circle cx="300.801" cy="127.309" r="1" fill="#DCDEDF"/>
<circle cx="317.199" cy="127.309" r="1" fill="#DCDEDF"/>
<circle cx="333.6" cy="127.309" r="1" fill="#DCDEDF"/>
<circle cx="350" cy="127.309" r="1" fill="#DCDEDF"/>
<circle cx="366.4" cy="127.309" r="1" fill="#DCDEDF"/>
<circle cx="382.801" cy="127.309" r="1" fill="#DCDEDF"/>
<circle cx="399.199" cy="127.309" r="1" fill="#DCDEDF"/>
<circle cx="415.6" cy="127.309" r="1" fill="#DCDEDF"/>
<circle cx="432" cy="127.309" r="1" fill="#DCDEDF"/>
<circle cx="104" cy="143.461" r="1" fill="#DCDEDF"/>
<circle cx="120.4" cy="143.461" r="1" fill="#DCDEDF"/>
<circle cx="136.801" cy="143.461" r="1" fill="#DCDEDF"/>
<circle cx="153.199" cy="143.461" r="1" fill="#DCDEDF"/>
<circle cx="169.6" cy="143.461" r="1" fill="#DCDEDF"/>
<circle cx="186" cy="143.461" r="1" fill="#DCDEDF"/>
<circle cx="202.4" cy="143.461" r="1" fill="#DCDEDF"/>
<circle cx="218.801" cy="143.461" r="1" fill="#DCDEDF"/>
<circle cx="235.199" cy="143.461" r="1" fill="#DCDEDF"/>
<circle cx="251.6" cy="143.461" r="1" fill="#DCDEDF"/>
<circle cx="268" cy="143.461" r="1" fill="#DCDEDF"/>
<circle cx="284.4" cy="143.461" r="1" fill="#DCDEDF"/>
<circle cx="300.801" cy="143.461" r="1" fill="#DCDEDF"/>
<circle cx="317.199" cy="143.461" r="1" fill="#DCDEDF"/>
<circle cx="333.6" cy="143.461" r="1" fill="#DCDEDF"/>
<circle cx="350" cy="143.461" r="1" fill="#DCDEDF"/>
<circle cx="366.4" cy="143.461" r="1" fill="#DCDEDF"/>
<circle cx="382.801" cy="143.461" r="1" fill="#DCDEDF"/>
<circle cx="399.199" cy="143.461" r="1" fill="#DCDEDF"/>
<circle cx="415.6" cy="143.461" r="1" fill="#DCDEDF"/>
<circle cx="432" cy="143.461" r="1" fill="#DCDEDF"/>
<circle cx="104" cy="159.615" r="1" fill="#DCDEDF"/>
<circle cx="120.4" cy="159.615" r="1" fill="#DCDEDF"/>
<circle cx="136.801" cy="159.615" r="1" fill="#DCDEDF"/>
<circle cx="153.199" cy="159.615" r="1" fill="#DCDEDF"/>
<circle cx="169.6" cy="159.615" r="1" fill="#DCDEDF"/>
<circle cx="186" cy="159.615" r="1" fill="#DCDEDF"/>
<circle cx="202.4" cy="159.615" r="1" fill="#DCDEDF"/>
<circle cx="218.801" cy="159.615" r="1" fill="#DCDEDF"/>
<circle cx="235.199" cy="159.615" r="1" fill="#DCDEDF"/>
<circle cx="251.6" cy="159.615" r="1" fill="#DCDEDF"/>
<circle cx="268" cy="159.615" r="1" fill="#DCDEDF"/>
<circle cx="284.4" cy="159.615" r="1" fill="#DCDEDF"/>
<circle cx="300.801" cy="159.615" r="1" fill="#DCDEDF"/>
<circle cx="317.199" cy="159.615" r="1" fill="#DCDEDF"/>
<circle cx="333.6" cy="159.615" r="1" fill="#DCDEDF"/>
<circle cx="350" cy="159.615" r="1" fill="#DCDEDF"/>
<circle cx="366.4" cy="159.615" r="1" fill="#DCDEDF"/>
<circle cx="382.801" cy="159.615" r="1" fill="#DCDEDF"/>
<circle cx="399.199" cy="159.615" r="1" fill="#DCDEDF"/>
<circle cx="415.6" cy="159.615" r="1" fill="#DCDEDF"/>
<circle cx="432" cy="159.615" r="1" fill="#DCDEDF"/>
<circle cx="104" cy="175.77" r="1" fill="#DCDEDF"/>
<circle cx="120.4" cy="175.77" r="1" fill="#DCDEDF"/>
<circle cx="136.801" cy="175.77" r="1" fill="#DCDEDF"/>
<circle cx="153.199" cy="175.77" r="1" fill="#DCDEDF"/>
<circle cx="169.6" cy="175.77" r="1" fill="#DCDEDF"/>
<circle cx="186" cy="175.77" r="1" fill="#DCDEDF"/>
<circle cx="202.4" cy="175.77" r="1" fill="#DCDEDF"/>
<circle cx="218.801" cy="175.77" r="1" fill="#DCDEDF"/>
<circle cx="235.199" cy="175.77" r="1" fill="#DCDEDF"/>
<circle cx="251.6" cy="175.77" r="1" fill="#DCDEDF"/>
<circle cx="268" cy="175.77" r="1" fill="#DCDEDF"/>
<circle cx="284.4" cy="175.77" r="1" fill="#DCDEDF"/>
<circle cx="300.801" cy="175.77" r="1" fill="#DCDEDF"/>
<circle cx="317.199" cy="175.77" r="1" fill="#DCDEDF"/>
<circle cx="333.6" cy="175.77" r="1" fill="#DCDEDF"/>
<circle cx="350" cy="175.77" r="1" fill="#DCDEDF"/>
<circle cx="366.4" cy="175.77" r="1" fill="#DCDEDF"/>
<circle cx="382.801" cy="175.77" r="1" fill="#DCDEDF"/>
<circle cx="399.199" cy="175.77" r="1" fill="#DCDEDF"/>
<circle cx="415.6" cy="175.77" r="1" fill="#DCDEDF"/>
<circle cx="432" cy="175.77" r="1" fill="#DCDEDF"/>
<circle cx="104" cy="191.924" r="1" fill="#DCDEDF"/>
<circle cx="120.4" cy="191.924" r="1" fill="#DCDEDF"/>
<circle cx="136.801" cy="191.924" r="1" fill="#DCDEDF"/>
<circle cx="153.199" cy="191.924" r="1" fill="#DCDEDF"/>
<circle cx="169.6" cy="191.924" r="1" fill="#DCDEDF"/>
<circle cx="186" cy="191.924" r="1" fill="#DCDEDF"/>
<circle cx="202.4" cy="191.924" r="1" fill="#DCDEDF"/>
<circle cx="218.801" cy="191.924" r="1" fill="#DCDEDF"/>
<circle cx="235.199" cy="191.924" r="1" fill="#DCDEDF"/>
<circle cx="251.6" cy="191.924" r="1" fill="#DCDEDF"/>
<circle cx="268" cy="191.924" r="1" fill="#DCDEDF"/>
<circle cx="284.4" cy="191.924" r="1" fill="#DCDEDF"/>
<circle cx="300.801" cy="191.924" r="1" fill="#DCDEDF"/>
<circle cx="317.199" cy="191.924" r="1" fill="#DCDEDF"/>
<circle cx="333.6" cy="191.924" r="1" fill="#DCDEDF"/>
<circle cx="350" cy="191.924" r="1" fill="#DCDEDF"/>
<circle cx="366.4" cy="191.924" r="1" fill="#DCDEDF"/>
<circle cx="382.801" cy="191.924" r="1" fill="#DCDEDF"/>
<circle cx="399.199" cy="191.924" r="1" fill="#DCDEDF"/>
<circle cx="415.6" cy="191.924" r="1" fill="#DCDEDF"/>
<circle cx="432" cy="191.924" r="1" fill="#DCDEDF"/>
<circle cx="104" cy="208.076" r="1" fill="#DCDEDF"/>
<circle cx="120.4" cy="208.076" r="1" fill="#DCDEDF"/>
<circle cx="136.801" cy="208.076" r="1" fill="#DCDEDF"/>
<circle cx="153.199" cy="208.076" r="1" fill="#DCDEDF"/>
<circle cx="169.6" cy="208.076" r="1" fill="#DCDEDF"/>
<circle cx="186" cy="208.076" r="1" fill="#DCDEDF"/>
<circle cx="202.4" cy="208.076" r="1" fill="#DCDEDF"/>
<circle cx="218.801" cy="208.076" r="1" fill="#DCDEDF"/>
<circle cx="235.199" cy="208.076" r="1" fill="#DCDEDF"/>
<circle cx="251.6" cy="208.076" r="1" fill="#DCDEDF"/>
<circle cx="268" cy="208.076" r="1" fill="#DCDEDF"/>
<circle cx="284.4" cy="208.076" r="1" fill="#DCDEDF"/>
<circle cx="300.801" cy="208.076" r="1" fill="#DCDEDF"/>
<circle cx="317.199" cy="208.076" r="1" fill="#DCDEDF"/>
<circle cx="333.6" cy="208.076" r="1" fill="#DCDEDF"/>
<circle cx="350" cy="208.076" r="1" fill="#DCDEDF"/>
<circle cx="366.4" cy="208.076" r="1" fill="#DCDEDF"/>
<circle cx="382.801" cy="208.076" r="1" fill="#DCDEDF"/>
<circle cx="399.199" cy="208.076" r="1" fill="#DCDEDF"/>
<circle cx="415.6" cy="208.076" r="1" fill="#DCDEDF"/>
<circle cx="432" cy="208.076" r="1" fill="#DCDEDF"/>
<circle cx="104" cy="224.23" r="1" fill="#DCDEDF"/>
<circle cx="120.4" cy="224.23" r="1" fill="#DCDEDF"/>
<circle cx="136.801" cy="224.23" r="1" fill="#DCDEDF"/>
<circle cx="153.199" cy="224.23" r="1" fill="#DCDEDF"/>
<circle cx="169.6" cy="224.23" r="1" fill="#DCDEDF"/>
<circle cx="186" cy="224.23" r="1" fill="#DCDEDF"/>
<circle cx="202.4" cy="224.23" r="1" fill="#DCDEDF"/>
<circle cx="218.801" cy="224.23" r="1" fill="#DCDEDF"/>
<circle cx="235.199" cy="224.23" r="1" fill="#DCDEDF"/>
<circle cx="251.6" cy="224.23" r="1" fill="#DCDEDF"/>
<circle cx="268" cy="224.23" r="1" fill="#DCDEDF"/>
<circle cx="284.4" cy="224.23" r="1" fill="#DCDEDF"/>
<circle cx="300.801" cy="224.23" r="1" fill="#DCDEDF"/>
<circle cx="317.199" cy="224.23" r="1" fill="#DCDEDF"/>
<circle cx="333.6" cy="224.23" r="1" fill="#DCDEDF"/>
<circle cx="350" cy="224.23" r="1" fill="#DCDEDF"/>
<circle cx="366.4" cy="224.23" r="1" fill="#DCDEDF"/>
<circle cx="382.801" cy="224.23" r="1" fill="#DCDEDF"/>
<circle cx="399.199" cy="224.23" r="1" fill="#DCDEDF"/>
<circle cx="415.6" cy="224.23" r="1" fill="#DCDEDF"/>
<circle cx="432" cy="224.23" r="1" fill="#DCDEDF"/>
<circle cx="104" cy="240.385" r="1" fill="#DCDEDF"/>
<circle cx="120.4" cy="240.385" r="1" fill="#DCDEDF"/>
<circle cx="136.801" cy="240.385" r="1" fill="#DCDEDF"/>
<circle cx="153.199" cy="240.385" r="1" fill="#DCDEDF"/>
<circle cx="169.6" cy="240.385" r="1" fill="#DCDEDF"/>
<circle cx="186" cy="240.385" r="1" fill="#DCDEDF"/>
<circle cx="202.4" cy="240.385" r="1" fill="#DCDEDF"/>
<circle cx="218.801" cy="240.385" r="1" fill="#DCDEDF"/>
<circle cx="235.199" cy="240.385" r="1" fill="#DCDEDF"/>
<circle cx="251.6" cy="240.385" r="1" fill="#DCDEDF"/>
<circle cx="268" cy="240.385" r="1" fill="#DCDEDF"/>
<circle cx="284.4" cy="240.385" r="1" fill="#DCDEDF"/>
<circle cx="300.801" cy="240.385" r="1" fill="#DCDEDF"/>
<circle cx="317.199" cy="240.385" r="1" fill="#DCDEDF"/>
<circle cx="333.6" cy="240.385" r="1" fill="#DCDEDF"/>
<circle cx="350" cy="240.385" r="1" fill="#DCDEDF"/>
<circle cx="366.4" cy="240.385" r="1" fill="#DCDEDF"/>
<circle cx="382.801" cy="240.385" r="1" fill="#DCDEDF"/>
<circle cx="399.199" cy="240.385" r="1" fill="#DCDEDF"/>
<circle cx="415.6" cy="240.385" r="1" fill="#DCDEDF"/>
<circle cx="432" cy="240.385" r="1" fill="#DCDEDF"/>
<circle cx="104" cy="256.539" r="1" fill="#DCDEDF"/>
<circle cx="120.4" cy="256.539" r="1" fill="#DCDEDF"/>
<circle cx="136.801" cy="256.539" r="1" fill="#DCDEDF"/>
<circle cx="153.199" cy="256.539" r="1" fill="#DCDEDF"/>
<circle cx="169.6" cy="256.539" r="1" fill="#DCDEDF"/>
<circle cx="186" cy="256.539" r="1" fill="#DCDEDF"/>
<circle cx="202.4" cy="256.539" r="1" fill="#DCDEDF"/>
<circle cx="218.801" cy="256.539" r="1" fill="#DCDEDF"/>
<circle cx="235.199" cy="256.539" r="1" fill="#DCDEDF"/>
<circle cx="251.6" cy="256.539" r="1" fill="#DCDEDF"/>
<circle cx="268" cy="256.539" r="1" fill="#DCDEDF"/>
<circle cx="284.4" cy="256.539" r="1" fill="#DCDEDF"/>
<circle cx="300.801" cy="256.539" r="1" fill="#DCDEDF"/>
<circle cx="317.199" cy="256.539" r="1" fill="#DCDEDF"/>
<circle cx="333.6" cy="256.539" r="1" fill="#DCDEDF"/>
<circle cx="350" cy="256.539" r="1" fill="#DCDEDF"/>
<circle cx="366.4" cy="256.539" r="1" fill="#DCDEDF"/>
<circle cx="382.801" cy="256.539" r="1" fill="#DCDEDF"/>
<circle cx="399.199" cy="256.539" r="1" fill="#DCDEDF"/>
<circle cx="415.6" cy="256.539" r="1" fill="#DCDEDF"/>
<circle cx="432" cy="256.539" r="1" fill="#DCDEDF"/>
<circle cx="104" cy="272.691" r="1" fill="#DCDEDF"/>
<circle cx="120.4" cy="272.691" r="1" fill="#DCDEDF"/>
<circle cx="136.801" cy="272.691" r="1" fill="#DCDEDF"/>
<circle cx="153.199" cy="272.691" r="1" fill="#DCDEDF"/>
<circle cx="169.6" cy="272.691" r="1" fill="#DCDEDF"/>
<circle cx="186" cy="272.691" r="1" fill="#DCDEDF"/>
<circle cx="202.4" cy="272.691" r="1" fill="#DCDEDF"/>
<circle cx="218.801" cy="272.691" r="1" fill="#DCDEDF"/>
<circle cx="235.199" cy="272.691" r="1" fill="#DCDEDF"/>
<circle cx="251.6" cy="272.691" r="1" fill="#DCDEDF"/>
<circle cx="268" cy="272.691" r="1" fill="#DCDEDF"/>
<circle cx="284.4" cy="272.691" r="1" fill="#DCDEDF"/>
<circle cx="300.801" cy="272.691" r="1" fill="#DCDEDF"/>
<circle cx="317.199" cy="272.691" r="1" fill="#DCDEDF"/>
<circle cx="333.6" cy="272.691" r="1" fill="#DCDEDF"/>
<circle cx="350" cy="272.691" r="1" fill="#DCDEDF"/>
<circle cx="366.4" cy="272.691" r="1" fill="#DCDEDF"/>
<circle cx="382.801" cy="272.691" r="1" fill="#DCDEDF"/>
<circle cx="399.199" cy="272.691" r="1" fill="#DCDEDF"/>
<circle cx="415.6" cy="272.691" r="1" fill="#DCDEDF"/>
<circle cx="432" cy="272.691" r="1" fill="#DCDEDF"/>
<circle cx="104" cy="288.846" r="1" fill="#DCDEDF"/>
<circle cx="120.4" cy="288.846" r="1" fill="#DCDEDF"/>
<circle cx="136.801" cy="288.846" r="1" fill="#DCDEDF"/>
<circle cx="153.199" cy="288.846" r="1" fill="#DCDEDF"/>
<circle cx="169.6" cy="288.846" r="1" fill="#DCDEDF"/>
<circle cx="186" cy="288.846" r="1" fill="#DCDEDF"/>
<circle cx="202.4" cy="288.846" r="1" fill="#DCDEDF"/>
<circle cx="218.801" cy="288.846" r="1" fill="#DCDEDF"/>
<circle cx="235.199" cy="288.846" r="1" fill="#DCDEDF"/>
<circle cx="251.6" cy="288.846" r="1" fill="#DCDEDF"/>
<circle cx="268" cy="288.846" r="1" fill="#DCDEDF"/>
<circle cx="284.4" cy="288.846" r="1" fill="#DCDEDF"/>
<circle cx="300.801" cy="288.846" r="1" fill="#DCDEDF"/>
<circle cx="317.199" cy="288.846" r="1" fill="#DCDEDF"/>
<circle cx="333.6" cy="288.846" r="1" fill="#DCDEDF"/>
<circle cx="350" cy="288.846" r="1" fill="#DCDEDF"/>
<circle cx="366.4" cy="288.846" r="1" fill="#DCDEDF"/>
<circle cx="382.801" cy="288.846" r="1" fill="#DCDEDF"/>
<circle cx="399.199" cy="288.846" r="1" fill="#DCDEDF"/>
<circle cx="415.6" cy="288.846" r="1" fill="#DCDEDF"/>
<circle cx="432" cy="288.846" r="1" fill="#DCDEDF"/>
<circle cx="104" cy="305" r="1" fill="#DCDEDF"/>
<circle cx="120.4" cy="305" r="1" fill="#DCDEDF"/>
<circle cx="136.801" cy="305" r="1" fill="#DCDEDF"/>
<circle cx="153.199" cy="305" r="1" fill="#DCDEDF"/>
<circle cx="169.6" cy="305" r="1" fill="#DCDEDF"/>
<circle cx="186" cy="305" r="1" fill="#DCDEDF"/>
<circle cx="202.4" cy="305" r="1" fill="#DCDEDF"/>
<circle cx="218.801" cy="305" r="1" fill="#DCDEDF"/>
<circle cx="235.199" cy="305" r="1" fill="#DCDEDF"/>
<circle cx="251.6" cy="305" r="1" fill="#DCDEDF"/>
<circle cx="268" cy="305" r="1" fill="#DCDEDF"/>
<circle cx="284.4" cy="305" r="1" fill="#DCDEDF"/>
<circle cx="300.801" cy="305" r="1" fill="#DCDEDF"/>
<circle cx="317.199" cy="305" r="1" fill="#DCDEDF"/>
<circle cx="333.6" cy="305" r="1" fill="#DCDEDF"/>
<circle cx="350" cy="305" r="1" fill="#DCDEDF"/>
<circle cx="366.4" cy="305" r="1" fill="#DCDEDF"/>
<circle cx="382.801" cy="305" r="1" fill="#DCDEDF"/>
<circle cx="399.199" cy="305" r="1" fill="#DCDEDF"/>
<circle cx="415.6" cy="305" r="1" fill="#DCDEDF"/>
<circle cx="432" cy="305" r="1" fill="#DCDEDF"/>
<rect x="133" y="133.5" width="39" height="39" rx="9.5" fill="#F1F9F6"/>
<path fill-rule="evenodd" clip-rule="evenodd" d="M144.5 162C144.5 162.552 144.948 163 145.5 163H159.5C160.052 163 160.5 162.552 160.5 162V159H158.5V161H146.5V145H158.5V147H160.5V144C160.5 143.448 160.052 143 159.5 143H145.5C144.948 143 144.5 143.448 144.5 144V162ZM158.5 154V157L163.5 153L158.5 149V152H151.5V154H158.5Z" fill="#4CB68E"/>
<rect x="133" y="133.5" width="39" height="39" rx="9.5" stroke="#4CB68E"/>
<rect x="133" y="227.5" width="39" height="39" rx="9.5" fill="#EDEBFA"/>
<path fill-rule="evenodd" clip-rule="evenodd" d="M161.5 242L156.5 237H144.493C143.945 237 143.5 237.444 143.5 237.992V256.008C143.504 256.554 143.947 256.996 144.493 257H160.507C161.055 257 161.499 256.556 161.5 256.008V242ZM148.5 246H151.5V243H153.5V246H156.5V248H153.5V251H151.5V248H148.5V246Z" fill="#5D4CCF"/>
<rect x="133" y="227.5" width="39" height="39" rx="9.5" stroke="#5D4CCF"/>
<circle cx="152.834" cy="267" r="2" fill="#571158"/>
<path d="M152.834 272.364V284V268" stroke="#571158" stroke-width="1.5"/>
<path d="M152.834 308.364V320V304" stroke="#571158" stroke-width="1.5"/>
<g filter="url(#filter1_d_1935_15568)">
<rect x="142.834" y="284" width="20" height="20" rx="6" fill="white" shape-rendering="crispEdges"/>
<path fill-rule="evenodd" clip-rule="evenodd" d="M152.833 288.666C153.202 288.666 153.5 288.964 153.5 289.333V293.333H157.5C157.868 293.333 158.167 293.631 158.167 293.999C158.167 294.368 157.868 294.666 157.5 294.666H153.5V298.666C153.5 299.034 153.202 299.333 152.833 299.333C152.465 299.333 152.167 299.034 152.167 298.666V294.666H148.167C147.798 294.666 147.5 294.368 147.5 293.999C147.5 293.631 147.798 293.333 148.167 293.333H152.167V289.333C152.167 288.964 152.465 288.666 152.833 288.666Z" fill="#571158"/>
<rect x="143.334" y="284.5" width="19" height="19" rx="5.5" stroke="#D8DFE5" shape-rendering="crispEdges"/>
</g>
<circle cx="152.834" cy="173" r="2" fill="#571158"/>
<path d="M152.834 178.364V190V174" stroke="#571158" stroke-width="1.5"/>
<path d="M152.834 214.364V226V210" stroke="#571158" stroke-width="1.5"/>
<circle cx="152.834" cy="227" r="2" fill="#571158"/>
<g filter="url(#filter2_d_1935_15568)">
<rect x="142.834" y="190" width="20" height="20" rx="6" fill="white" shape-rendering="crispEdges"/>
<path fill-rule="evenodd" clip-rule="evenodd" d="M152.833 194.666C153.202 194.666 153.5 194.964 153.5 195.333V199.333H157.5C157.868 199.333 158.167 199.631 158.167 199.999C158.167 200.368 157.868 200.666 157.5 200.666H153.5V204.666C153.5 205.034 153.202 205.333 152.833 205.333C152.465 205.333 152.167 205.034 152.167 204.666V200.666H148.167C147.798 200.666 147.5 200.368 147.5 199.999C147.5 199.631 147.798 199.333 148.167 199.333H152.167V195.333C152.167 194.964 152.465 194.666 152.833 194.666Z" fill="#571158"/>
<rect x="143.334" y="190.5" width="19" height="19" rx="5.5" stroke="#D8DFE5" shape-rendering="crispEdges"/>
</g>
<rect x="248.334" y="133.5" width="39" height="39" rx="9.5" fill="#F4F9F0"/>
<path fill-rule="evenodd" clip-rule="evenodd" d="M257.834 153C257.834 158.523 262.311 163 267.834 163C273.357 163 277.834 158.523 277.834 153C277.834 147.477 273.357 143 267.834 143C262.311 143 257.834 147.477 257.834 153ZM268.834 148V153H272.834V155H266.834V148H268.834Z" fill="#79B047"/>
<rect x="248.334" y="133.5" width="39" height="39" rx="9.5" stroke="#79B047"/>
<rect x="248.334" y="227.5" width="39" height="39" rx="9.5" fill="#FEF3E2"/>
<path fill-rule="evenodd" clip-rule="evenodd" d="M277.834 239H257.834V241H277.834V239ZM257.834 246H266.834V248H257.834V246ZM257.834 253H264.834V255H257.834V253ZM276.508 248.025L277.664 247.634L278.664 249.366L277.748 250.171C277.863 250.718 277.863 251.282 277.748 251.829L278.664 252.634L277.664 254.366L276.508 253.975C276.098 254.345 275.61 254.63 275.073 254.805L274.834 256H272.834L272.594 254.804C272.063 254.631 271.575 254.348 271.16 253.974L270.004 254.366L269.004 252.634L269.92 251.829C269.805 251.282 269.805 250.718 269.92 250.171L269.004 249.366L270.004 247.634L271.16 248.025C271.57 247.655 272.058 247.37 272.595 247.195L272.834 246H274.834L275.074 247.196C275.61 247.37 276.098 247.656 276.508 248.026V248.025ZM275.834 251C275.834 252.105 274.939 253 273.834 253C272.729 253 271.834 252.105 271.834 251C271.834 249.895 272.729 249 273.834 249C274.939 249 275.834 249.895 275.834 251Z" fill="#F6A62E"/>
<rect x="248.334" y="227.5" width="39" height="39" rx="9.5" stroke="#F6A62E"/>
<circle cx="268.168" cy="173" r="2" fill="#571158"/>
<path d="M268.168 178.364V190V174" stroke="#571158" stroke-width="1.5"/>
<path d="M268.168 214.364V226V210" stroke="#571158" stroke-width="1.5"/>
<circle cx="268.168" cy="227" r="2" fill="#571158"/>
<g filter="url(#filter3_d_1935_15568)">
<rect x="258.168" y="190" width="20" height="20" rx="6" fill="white" shape-rendering="crispEdges"/>
<path fill-rule="evenodd" clip-rule="evenodd" d="M268.167 194.666C268.536 194.666 268.834 194.964 268.834 195.333V199.333H272.834C273.202 199.333 273.501 199.631 273.501 199.999C273.501 200.368 273.202 200.666 272.834 200.666H268.834V204.666C268.834 205.034 268.536 205.333 268.167 205.333C267.799 205.333 267.501 205.034 267.501 204.666V200.666H263.501C263.132 200.666 262.834 200.368 262.834 199.999C262.834 199.631 263.132 199.333 263.501 199.333H267.501V195.333C267.501 194.964 267.799 194.666 268.167 194.666Z" fill="#571158"/>
<rect x="258.668" y="190.5" width="19" height="19" rx="5.5" stroke="#D8DFE5" shape-rendering="crispEdges"/>
</g>
<rect x="363.666" y="133.5" width="39" height="39" rx="9.5" fill="#F4F9F0"/>
<path fill-rule="evenodd" clip-rule="evenodd" d="M373.166 153C373.166 158.523 377.643 163 383.166 163C388.689 163 393.166 158.523 393.166 153C393.166 147.477 388.689 143 383.166 143C377.643 143 373.166 147.477 373.166 153ZM384.166 148V153H388.166V155H382.166V148H384.166Z" fill="#79B047"/>
<rect x="363.666" y="133.5" width="39" height="39" rx="9.5" stroke="#79B047"/>
<circle cx="383.5" cy="173" r="2" fill="#571158"/>
<path d="M383.5 178.364V190V174" stroke="#571158" stroke-width="1.5"/>
<g filter="url(#filter4_d_1935_15568)">
<rect x="373.5" y="190" width="20" height="20" rx="6" fill="white" shape-rendering="crispEdges"/>
<path fill-rule="evenodd" clip-rule="evenodd" d="M383.499 194.666C383.868 194.666 384.166 194.964 384.166 195.333V199.333H388.166C388.534 199.333 388.833 199.631 388.833 199.999C388.833 200.368 388.534 200.666 388.166 200.666H384.166V204.666C384.166 205.034 383.868 205.333 383.499 205.333C383.131 205.333 382.833 205.034 382.833 204.666V200.666H378.833C378.464 200.666 378.166 200.368 378.166 199.999C378.166 199.631 378.464 199.333 378.833 199.333H382.833V195.333C382.833 194.964 383.131 194.666 383.499 194.666Z" fill="#571158"/>
<rect x="374" y="190.5" width="19" height="19" rx="5.5" stroke="#D8DFE5" shape-rendering="crispEdges"/>
</g>
<mask id="path-333-inside-1_1935_15568" fill="white">
<path d="M95 87H441V117H95V87Z"/>
</mask>
<path d="M95 87H441V117H95V87Z" fill="white"/>
<path d="M132.382 106.096C132.134 106.096 131.942 106.032 131.806 105.904C131.678 105.768 131.614 105.576 131.614 105.328V100.792C131.614 100.544 131.678 100.356 131.806 100.228C131.934 100.1 132.114 100.036 132.346 100.036C132.578 100.036 132.758 100.1 132.886 100.228C133.014 100.356 133.078 100.544 133.078 100.792V101.548H132.958C133.07 101.068 133.29 100.704 133.618 100.456C133.946 100.208 134.382 100.06 134.926 100.012C135.094 99.996 135.226 100.04 135.322 100.144C135.426 100.24 135.486 100.392 135.502 100.6C135.518 100.8 135.47 100.964 135.358 101.092C135.254 101.212 135.094 101.284 134.878 101.308L134.614 101.332C134.126 101.38 133.758 101.532 133.51 101.788C133.262 102.036 133.138 102.388 133.138 102.844V105.328C133.138 105.576 133.074 105.768 132.946 105.904C132.818 106.032 132.63 106.096 132.382 106.096ZM138.895 106.12C138.287 106.12 137.759 105.996 137.311 105.748C136.863 105.5 136.515 105.148 136.267 104.692C136.019 104.228 135.895 103.684 135.895 103.06C135.895 102.588 135.963 102.168 136.099 101.8C136.243 101.424 136.447 101.104 136.711 100.84C136.975 100.568 137.291 100.364 137.659 100.228C138.027 100.084 138.439 100.012 138.895 100.012C139.503 100.012 140.031 100.136 140.479 100.384C140.927 100.632 141.275 100.984 141.523 101.44C141.771 101.896 141.895 102.436 141.895 103.06C141.895 103.532 141.823 103.956 141.679 104.332C141.543 104.708 141.343 105.032 141.079 105.304C140.815 105.568 140.499 105.772 140.131 105.916C139.763 106.052 139.351 106.12 138.895 106.12ZM138.895 104.98C139.191 104.98 139.451 104.908 139.675 104.764C139.899 104.62 140.071 104.408 140.191 104.128C140.319 103.84 140.383 103.484 140.383 103.06C140.383 102.42 140.247 101.944 139.975 101.632C139.703 101.312 139.343 101.152 138.895 101.152C138.599 101.152 138.339 101.224 138.115 101.368C137.891 101.504 137.715 101.716 137.587 102.004C137.467 102.284 137.407 102.636 137.407 103.06C137.407 103.692 137.543 104.172 137.815 104.5C138.087 104.82 138.447 104.98 138.895 104.98ZM145.258 106.12C144.77 106.12 144.366 106.032 144.046 105.856C143.726 105.672 143.486 105.4 143.326 105.04C143.174 104.68 143.098 104.232 143.098 103.696V100.792C143.098 100.536 143.162 100.348 143.29 100.228C143.418 100.1 143.602 100.036 143.842 100.036C144.082 100.036 144.266 100.1 144.394 100.228C144.53 100.348 144.598 100.536 144.598 100.792V103.72C144.598 104.136 144.682 104.444 144.85 104.644C145.018 104.844 145.286 104.944 145.654 104.944C146.054 104.944 146.382 104.808 146.638 104.536C146.894 104.256 147.022 103.888 147.022 103.432V100.792C147.022 100.536 147.086 100.348 147.214 100.228C147.342 100.1 147.526 100.036 147.766 100.036C148.006 100.036 148.19 100.1 148.318 100.228C148.454 100.348 148.522 100.536 148.522 100.792V105.328C148.522 105.84 148.278 106.096 147.79 106.096C147.558 106.096 147.378 106.032 147.25 105.904C147.122 105.768 147.058 105.576 147.058 105.328V104.416L147.226 104.776C147.058 105.208 146.802 105.54 146.458 105.772C146.122 106.004 145.722 106.12 145.258 106.12ZM152.771 106.12C152.251 106.12 151.815 106.032 151.463 105.856C151.119 105.68 150.863 105.424 150.695 105.088C150.527 104.744 150.443 104.32 150.443 103.816V101.26H149.819C149.627 101.26 149.479 101.212 149.375 101.116C149.271 101.012 149.219 100.872 149.219 100.696C149.219 100.512 149.271 100.372 149.375 100.276C149.479 100.18 149.627 100.132 149.819 100.132H150.443V99.04C150.443 98.792 150.507 98.604 150.635 98.476C150.771 98.348 150.959 98.284 151.199 98.284C151.439 98.284 151.623 98.348 151.751 98.476C151.879 98.604 151.943 98.792 151.943 99.04V100.132H153.215C153.407 100.132 153.555 100.18 153.659 100.276C153.763 100.372 153.815 100.512 153.815 100.696C153.815 100.872 153.763 101.012 153.659 101.116C153.555 101.212 153.407 101.26 153.215 101.26H151.943V103.732C151.943 104.116 152.027 104.404 152.195 104.596C152.363 104.788 152.635 104.884 153.011 104.884C153.147 104.884 153.267 104.872 153.371 104.848C153.475 104.824 153.567 104.808 153.647 104.8C153.743 104.792 153.823 104.824 153.887 104.896C153.951 104.96 153.983 105.096 153.983 105.304C153.983 105.464 153.955 105.608 153.899 105.736C153.851 105.856 153.759 105.94 153.623 105.988C153.519 106.02 153.383 106.048 153.215 106.072C153.047 106.104 152.899 106.12 152.771 106.12ZM157.522 106.12C156.858 106.12 156.286 105.996 155.806 105.748C155.326 105.5 154.954 105.148 154.69 104.692C154.434 104.236 154.306 103.696 154.306 103.072C154.306 102.464 154.43 101.932 154.678 101.476C154.934 101.02 155.282 100.664 155.722 100.408C156.17 100.144 156.678 100.012 157.246 100.012C157.662 100.012 158.034 100.08 158.362 100.216C158.698 100.352 158.982 100.548 159.214 100.804C159.454 101.06 159.634 101.372 159.754 101.74C159.882 102.1 159.946 102.508 159.946 102.964C159.946 103.108 159.894 103.22 159.79 103.3C159.694 103.372 159.554 103.408 159.37 103.408H155.518V102.544H158.89L158.698 102.724C158.698 102.356 158.642 102.048 158.53 101.8C158.426 101.552 158.27 101.364 158.062 101.236C157.862 101.1 157.61 101.032 157.306 101.032C156.97 101.032 156.682 101.112 156.442 101.272C156.21 101.424 156.03 101.644 155.902 101.932C155.782 102.212 155.722 102.548 155.722 102.94V103.024C155.722 103.68 155.874 104.172 156.178 104.5C156.49 104.82 156.946 104.98 157.546 104.98C157.754 104.98 157.986 104.956 158.242 104.908C158.506 104.852 158.754 104.76 158.986 104.632C159.154 104.536 159.302 104.496 159.43 104.512C159.558 104.52 159.658 104.564 159.73 104.644C159.81 104.724 159.858 104.824 159.874 104.944C159.89 105.056 159.866 105.172 159.802 105.292C159.746 105.412 159.646 105.516 159.502 105.604C159.222 105.78 158.898 105.912 158.53 106C158.17 106.08 157.834 106.12 157.522 106.12ZM161.838 103.384C161.662 103.384 161.514 103.328 161.394 103.216C161.282 103.096 161.226 102.952 161.226 102.784C161.226 102.608 161.282 102.464 161.394 102.352C161.514 102.24 161.662 102.184 161.838 102.184H164.394C164.562 102.184 164.702 102.24 164.814 102.352C164.934 102.464 164.994 102.608 164.994 102.784C164.994 102.952 164.934 103.096 164.814 103.216C164.702 103.328 164.562 103.384 164.394 103.384H161.838ZM167.581 106C167.373 106 167.209 105.944 167.089 105.832C166.977 105.712 166.921 105.552 166.921 105.352C166.921 105.144 166.977 104.988 167.089 104.884C167.209 104.78 167.373 104.728 167.581 104.728H168.925V98.836H169.669L167.905 99.904C167.753 99.992 167.609 100.028 167.473 100.012C167.345 99.988 167.233 99.932 167.137 99.844C167.049 99.748 166.989 99.636 166.957 99.508C166.925 99.38 166.933 99.252 166.981 99.124C167.037 98.988 167.141 98.876 167.293 98.788L168.949 97.792C169.109 97.696 169.269 97.616 169.429 97.552C169.589 97.48 169.737 97.444 169.873 97.444C170.041 97.444 170.181 97.492 170.293 97.588C170.405 97.676 170.461 97.824 170.461 98.032V104.728H171.685C171.893 104.728 172.053 104.78 172.165 104.884C172.285 104.988 172.345 105.144 172.345 105.352C172.345 105.56 172.285 105.72 172.165 105.832C172.053 105.944 171.893 106 171.685 106H167.581Z" fill="black"/>
<rect x="209.666" y="87" width="1" height="30" fill="#D8DFE5"/>
<path d="M248.048 106.096C247.8 106.096 247.608 106.032 247.472 105.904C247.344 105.768 247.28 105.576 247.28 105.328V100.792C247.28 100.544 247.344 100.356 247.472 100.228C247.6 100.1 247.78 100.036 248.012 100.036C248.244 100.036 248.424 100.1 248.552 100.228C248.68 100.356 248.744 100.544 248.744 100.792V101.548H248.624C248.736 101.068 248.956 100.704 249.284 100.456C249.612 100.208 250.048 100.06 250.592 100.012C250.76 99.996 250.892 100.04 250.988 100.144C251.092 100.24 251.152 100.392 251.168 100.6C251.184 100.8 251.136 100.964 251.024 101.092C250.92 101.212 250.76 101.284 250.544 101.308L250.28 101.332C249.792 101.38 249.424 101.532 249.176 101.788C248.928 102.036 248.804 102.388 248.804 102.844V105.328C248.804 105.576 248.74 105.768 248.612 105.904C248.484 106.032 248.296 106.096 248.048 106.096ZM254.561 106.12C253.953 106.12 253.425 105.996 252.977 105.748C252.529 105.5 252.181 105.148 251.933 104.692C251.685 104.228 251.561 103.684 251.561 103.06C251.561 102.588 251.629 102.168 251.765 101.8C251.909 101.424 252.113 101.104 252.377 100.84C252.641 100.568 252.957 100.364 253.325 100.228C253.693 100.084 254.105 100.012 254.561 100.012C255.169 100.012 255.697 100.136 256.145 100.384C256.593 100.632 256.941 100.984 257.189 101.44C257.437 101.896 257.561 102.436 257.561 103.06C257.561 103.532 257.489 103.956 257.345 104.332C257.209 104.708 257.009 105.032 256.745 105.304C256.481 105.568 256.165 105.772 255.797 105.916C255.429 106.052 255.017 106.12 254.561 106.12ZM254.561 104.98C254.857 104.98 255.117 104.908 255.341 104.764C255.565 104.62 255.737 104.408 255.857 104.128C255.985 103.84 256.049 103.484 256.049 103.06C256.049 102.42 255.913 101.944 255.641 101.632C255.369 101.312 255.009 101.152 254.561 101.152C254.265 101.152 254.005 101.224 253.781 101.368C253.557 101.504 253.381 101.716 253.253 102.004C253.133 102.284 253.073 102.636 253.073 103.06C253.073 103.692 253.209 104.172 253.481 104.5C253.753 104.82 254.113 104.98 254.561 104.98ZM260.924 106.12C260.436 106.12 260.032 106.032 259.712 105.856C259.392 105.672 259.152 105.4 258.992 105.04C258.84 104.68 258.764 104.232 258.764 103.696V100.792C258.764 100.536 258.828 100.348 258.956 100.228C259.084 100.1 259.268 100.036 259.508 100.036C259.748 100.036 259.932 100.1 260.06 100.228C260.196 100.348 260.264 100.536 260.264 100.792V103.72C260.264 104.136 260.348 104.444 260.516 104.644C260.684 104.844 260.952 104.944 261.32 104.944C261.72 104.944 262.048 104.808 262.304 104.536C262.56 104.256 262.688 103.888 262.688 103.432V100.792C262.688 100.536 262.752 100.348 262.88 100.228C263.008 100.1 263.192 100.036 263.432 100.036C263.672 100.036 263.856 100.1 263.984 100.228C264.12 100.348 264.188 100.536 264.188 100.792V105.328C264.188 105.84 263.944 106.096 263.456 106.096C263.224 106.096 263.044 106.032 262.916 105.904C262.788 105.768 262.724 105.576 262.724 105.328V104.416L262.892 104.776C262.724 105.208 262.468 105.54 262.124 105.772C261.788 106.004 261.388 106.12 260.924 106.12ZM268.437 106.12C267.917 106.12 267.481 106.032 267.129 105.856C266.785 105.68 266.529 105.424 266.361 105.088C266.193 104.744 266.109 104.32 266.109 103.816V101.26H265.485C265.293 101.26 265.145 101.212 265.041 101.116C264.937 101.012 264.885 100.872 264.885 100.696C264.885 100.512 264.937 100.372 265.041 100.276C265.145 100.18 265.293 100.132 265.485 100.132H266.109V99.04C266.109 98.792 266.173 98.604 266.301 98.476C266.437 98.348 266.625 98.284 266.865 98.284C267.105 98.284 267.289 98.348 267.417 98.476C267.545 98.604 267.609 98.792 267.609 99.04V100.132H268.881C269.073 100.132 269.221 100.18 269.325 100.276C269.429 100.372 269.481 100.512 269.481 100.696C269.481 100.872 269.429 101.012 269.325 101.116C269.221 101.212 269.073 101.26 268.881 101.26H267.609V103.732C267.609 104.116 267.693 104.404 267.861 104.596C268.029 104.788 268.301 104.884 268.677 104.884C268.813 104.884 268.933 104.872 269.037 104.848C269.141 104.824 269.233 104.808 269.313 104.8C269.409 104.792 269.489 104.824 269.553 104.896C269.617 104.96 269.649 105.096 269.649 105.304C269.649 105.464 269.621 105.608 269.565 105.736C269.517 105.856 269.425 105.94 269.289 105.988C269.185 106.02 269.049 106.048 268.881 106.072C268.713 106.104 268.565 106.12 268.437 106.12ZM273.188 106.12C272.524 106.12 271.952 105.996 271.472 105.748C270.992 105.5 270.62 105.148 270.356 104.692C270.1 104.236 269.972 103.696 269.972 103.072C269.972 102.464 270.096 101.932 270.344 101.476C270.6 101.02 270.948 100.664 271.388 100.408C271.836 100.144 272.344 100.012 272.912 100.012C273.328 100.012 273.7 100.08 274.028 100.216C274.364 100.352 274.648 100.548 274.88 100.804C275.12 101.06 275.3 101.372 275.42 101.74C275.548 102.1 275.612 102.508 275.612 102.964C275.612 103.108 275.56 103.22 275.456 103.3C275.36 103.372 275.22 103.408 275.036 103.408H271.184V102.544H274.556L274.364 102.724C274.364 102.356 274.308 102.048 274.196 101.8C274.092 101.552 273.936 101.364 273.728 101.236C273.528 101.1 273.276 101.032 272.972 101.032C272.636 101.032 272.348 101.112 272.108 101.272C271.876 101.424 271.696 101.644 271.568 101.932C271.448 102.212 271.388 102.548 271.388 102.94V103.024C271.388 103.68 271.54 104.172 271.844 104.5C272.156 104.82 272.612 104.98 273.212 104.98C273.42 104.98 273.652 104.956 273.908 104.908C274.172 104.852 274.42 104.76 274.652 104.632C274.82 104.536 274.968 104.496 275.096 104.512C275.224 104.52 275.324 104.564 275.396 104.644C275.476 104.724 275.524 104.824 275.54 104.944C275.556 105.056 275.532 105.172 275.468 105.292C275.412 105.412 275.312 105.516 275.168 105.604C274.888 105.78 274.564 105.912 274.196 106C273.836 106.08 273.5 106.12 273.188 106.12ZM277.504 103.384C277.328 103.384 277.18 103.328 277.06 103.216C276.948 103.096 276.892 102.952 276.892 102.784C276.892 102.608 276.948 102.464 277.06 102.352C277.18 102.24 277.328 102.184 277.504 102.184H280.06C280.228 102.184 280.368 102.24 280.48 102.352C280.6 102.464 280.66 102.608 280.66 102.784C280.66 102.952 280.6 103.096 280.48 103.216C280.368 103.328 280.228 103.384 280.06 103.384H277.504ZM282.971 106C282.715 106 282.527 105.944 282.407 105.832C282.295 105.712 282.239 105.54 282.239 105.316C282.239 105.18 282.275 105.048 282.347 104.92C282.419 104.792 282.523 104.656 282.659 104.512L285.071 101.944C285.439 101.56 285.703 101.212 285.863 100.9C286.023 100.58 286.103 100.26 286.103 99.94C286.103 99.54 285.975 99.236 285.719 99.028C285.471 98.82 285.107 98.716 284.627 98.716C284.355 98.716 284.083 98.756 283.811 98.836C283.539 98.908 283.263 99.036 282.983 99.22C282.839 99.316 282.703 99.356 282.575 99.34C282.455 99.324 282.347 99.272 282.251 99.184C282.163 99.096 282.103 98.988 282.071 98.86C282.039 98.732 282.043 98.604 282.083 98.476C282.131 98.34 282.227 98.224 282.371 98.128C282.715 97.896 283.099 97.72 283.523 97.6C283.955 97.48 284.387 97.42 284.819 97.42C285.427 97.42 285.939 97.512 286.355 97.696C286.771 97.88 287.087 98.148 287.303 98.5C287.519 98.852 287.627 99.28 287.627 99.784C287.627 100.12 287.571 100.448 287.459 100.768C287.355 101.088 287.191 101.412 286.967 101.74C286.751 102.068 286.467 102.416 286.115 102.784L283.859 105.136V104.728H287.387C287.603 104.728 287.767 104.78 287.879 104.884C287.991 104.988 288.047 105.144 288.047 105.352C288.047 105.56 287.991 105.72 287.879 105.832C287.767 105.944 287.603 106 287.387 106H282.971Z" fill="black"/>
<rect x="325.334" y="87" width="1" height="30" fill="#D8DFE5"/>
<path d="M363.716 106.096C363.468 106.096 363.276 106.032 363.14 105.904C363.012 105.768 362.948 105.576 362.948 105.328V100.792C362.948 100.544 363.012 100.356 363.14 100.228C363.268 100.1 363.448 100.036 363.68 100.036C363.912 100.036 364.092 100.1 364.22 100.228C364.348 100.356 364.412 100.544 364.412 100.792V101.548H364.292C364.404 101.068 364.624 100.704 364.952 100.456C365.28 100.208 365.716 100.06 366.26 100.012C366.428 99.996 366.56 100.04 366.656 100.144C366.76 100.24 366.82 100.392 366.836 100.6C366.852 100.8 366.804 100.964 366.692 101.092C366.588 101.212 366.428 101.284 366.212 101.308L365.948 101.332C365.46 101.38 365.092 101.532 364.844 101.788C364.596 102.036 364.472 102.388 364.472 102.844V105.328C364.472 105.576 364.408 105.768 364.28 105.904C364.152 106.032 363.964 106.096 363.716 106.096ZM370.229 106.12C369.621 106.12 369.093 105.996 368.645 105.748C368.197 105.5 367.849 105.148 367.601 104.692C367.353 104.228 367.229 103.684 367.229 103.06C367.229 102.588 367.297 102.168 367.433 101.8C367.577 101.424 367.781 101.104 368.045 100.84C368.309 100.568 368.625 100.364 368.993 100.228C369.361 100.084 369.773 100.012 370.229 100.012C370.837 100.012 371.365 100.136 371.813 100.384C372.261 100.632 372.609 100.984 372.857 101.44C373.105 101.896 373.229 102.436 373.229 103.06C373.229 103.532 373.157 103.956 373.013 104.332C372.877 104.708 372.677 105.032 372.413 105.304C372.149 105.568 371.833 105.772 371.465 105.916C371.097 106.052 370.685 106.12 370.229 106.12ZM370.229 104.98C370.525 104.98 370.785 104.908 371.009 104.764C371.233 104.62 371.405 104.408 371.525 104.128C371.653 103.84 371.717 103.484 371.717 103.06C371.717 102.42 371.581 101.944 371.309 101.632C371.037 101.312 370.677 101.152 370.229 101.152C369.933 101.152 369.673 101.224 369.449 101.368C369.225 101.504 369.049 101.716 368.921 102.004C368.801 102.284 368.741 102.636 368.741 103.06C368.741 103.692 368.877 104.172 369.149 104.5C369.421 104.82 369.781 104.98 370.229 104.98ZM376.592 106.12C376.104 106.12 375.7 106.032 375.38 105.856C375.06 105.672 374.82 105.4 374.66 105.04C374.508 104.68 374.432 104.232 374.432 103.696V100.792C374.432 100.536 374.496 100.348 374.624 100.228C374.752 100.1 374.936 100.036 375.176 100.036C375.416 100.036 375.6 100.1 375.728 100.228C375.864 100.348 375.932 100.536 375.932 100.792V103.72C375.932 104.136 376.016 104.444 376.184 104.644C376.352 104.844 376.62 104.944 376.988 104.944C377.388 104.944 377.716 104.808 377.972 104.536C378.228 104.256 378.356 103.888 378.356 103.432V100.792C378.356 100.536 378.42 100.348 378.548 100.228C378.676 100.1 378.86 100.036 379.1 100.036C379.34 100.036 379.524 100.1 379.652 100.228C379.788 100.348 379.855 100.536 379.855 100.792V105.328C379.855 105.84 379.612 106.096 379.124 106.096C378.892 106.096 378.712 106.032 378.584 105.904C378.456 105.768 378.392 105.576 378.392 105.328V104.416L378.56 104.776C378.392 105.208 378.136 105.54 377.792 105.772C377.456 106.004 377.056 106.12 376.592 106.12ZM384.105 106.12C383.585 106.12 383.149 106.032 382.797 105.856C382.453 105.68 382.197 105.424 382.029 105.088C381.861 104.744 381.777 104.32 381.777 103.816V101.26H381.153C380.961 101.26 380.813 101.212 380.709 101.116C380.605 101.012 380.553 100.872 380.553 100.696C380.553 100.512 380.605 100.372 380.709 100.276C380.813 100.18 380.961 100.132 381.153 100.132H381.777V99.04C381.777 98.792 381.841 98.604 381.969 98.476C382.105 98.348 382.293 98.284 382.533 98.284C382.773 98.284 382.957 98.348 383.085 98.476C383.213 98.604 383.277 98.792 383.277 99.04V100.132H384.549C384.741 100.132 384.889 100.18 384.993 100.276C385.097 100.372 385.149 100.512 385.149 100.696C385.149 100.872 385.097 101.012 384.993 101.116C384.889 101.212 384.741 101.26 384.549 101.26H383.277V103.732C383.277 104.116 383.361 104.404 383.529 104.596C383.697 104.788 383.969 104.884 384.345 104.884C384.481 104.884 384.601 104.872 384.705 104.848C384.809 104.824 384.901 104.808 384.981 104.8C385.077 104.792 385.157 104.824 385.221 104.896C385.285 104.96 385.317 105.096 385.317 105.304C385.317 105.464 385.289 105.608 385.233 105.736C385.185 105.856 385.093 105.94 384.957 105.988C384.853 106.02 384.717 106.048 384.549 106.072C384.381 106.104 384.233 106.12 384.105 106.12ZM388.856 106.12C388.192 106.12 387.62 105.996 387.14 105.748C386.66 105.5 386.288 105.148 386.024 104.692C385.768 104.236 385.64 103.696 385.64 103.072C385.64 102.464 385.764 101.932 386.012 101.476C386.268 101.02 386.616 100.664 387.056 100.408C387.504 100.144 388.012 100.012 388.58 100.012C388.996 100.012 389.368 100.08 389.696 100.216C390.032 100.352 390.316 100.548 390.548 100.804C390.788 101.06 390.968 101.372 391.088 101.74C391.216 102.1 391.28 102.508 391.28 102.964C391.28 103.108 391.228 103.22 391.124 103.3C391.028 103.372 390.888 103.408 390.704 103.408H386.852V102.544H390.224L390.032 102.724C390.032 102.356 389.976 102.048 389.864 101.8C389.76 101.552 389.604 101.364 389.396 101.236C389.196 101.1 388.944 101.032 388.64 101.032C388.304 101.032 388.016 101.112 387.776 101.272C387.544 101.424 387.364 101.644 387.236 101.932C387.116 102.212 387.056 102.548 387.056 102.94V103.024C387.056 103.68 387.208 104.172 387.512 104.5C387.824 104.82 388.28 104.98 388.88 104.98C389.088 104.98 389.32 104.956 389.576 104.908C389.84 104.852 390.088 104.76 390.32 104.632C390.488 104.536 390.636 104.496 390.764 104.512C390.892 104.52 390.992 104.564 391.064 104.644C391.144 104.724 391.192 104.824 391.208 104.944C391.224 105.056 391.2 105.172 391.136 105.292C391.08 105.412 390.98 105.516 390.836 105.604C390.556 105.78 390.232 105.912 389.864 106C389.504 106.08 389.168 106.12 388.856 106.12ZM393.172 103.384C392.996 103.384 392.848 103.328 392.728 103.216C392.616 103.096 392.56 102.952 392.56 102.784C392.56 102.608 392.616 102.464 392.728 102.352C392.848 102.24 392.996 102.184 393.172 102.184H395.728C395.896 102.184 396.036 102.24 396.148 102.352C396.268 102.464 396.328 102.608 396.328 102.784C396.328 102.952 396.268 103.096 396.148 103.216C396.036 103.328 395.896 103.384 395.728 103.384H393.172ZM400.475 106.12C400.043 106.12 399.595 106.064 399.131 105.952C398.667 105.84 398.263 105.672 397.919 105.448C397.759 105.344 397.651 105.224 397.595 105.088C397.539 104.952 397.523 104.824 397.547 104.704C397.579 104.576 397.639 104.468 397.727 104.38C397.823 104.292 397.939 104.24 398.075 104.224C398.219 104.208 398.375 104.244 398.543 104.332C398.871 104.508 399.187 104.636 399.491 104.716C399.795 104.788 400.107 104.824 400.427 104.824C400.779 104.824 401.075 104.776 401.315 104.68C401.555 104.584 401.735 104.44 401.855 104.248C401.983 104.056 402.047 103.824 402.047 103.552C402.047 103.152 401.911 102.856 401.639 102.664C401.375 102.464 400.987 102.364 400.475 102.364H399.707C399.483 102.364 399.311 102.308 399.191 102.196C399.079 102.084 399.023 101.928 399.023 101.728C399.023 101.528 399.079 101.372 399.191 101.26C399.311 101.148 399.483 101.092 399.707 101.092H400.331C400.635 101.092 400.895 101.044 401.111 100.948C401.327 100.844 401.495 100.7 401.615 100.516C401.735 100.332 401.795 100.108 401.795 99.844C401.795 99.476 401.671 99.196 401.423 99.004C401.183 98.812 400.831 98.716 400.367 98.716C400.071 98.716 399.791 98.752 399.527 98.824C399.271 98.888 398.987 99.012 398.675 99.196C398.531 99.284 398.391 99.32 398.255 99.304C398.127 99.288 398.019 99.236 397.931 99.148C397.843 99.06 397.783 98.956 397.751 98.836C397.719 98.708 397.727 98.58 397.775 98.452C397.823 98.316 397.923 98.2 398.075 98.104C398.419 97.88 398.799 97.712 399.215 97.6C399.631 97.48 400.059 97.42 400.499 97.42C401.083 97.42 401.583 97.512 401.999 97.696C402.415 97.872 402.731 98.128 402.947 98.464C403.171 98.792 403.283 99.192 403.283 99.664C403.283 100 403.219 100.308 403.091 100.588C402.963 100.86 402.783 101.092 402.551 101.284C402.319 101.476 402.039 101.612 401.711 101.692V101.548C402.287 101.644 402.735 101.884 403.055 102.268C403.375 102.644 403.535 103.116 403.535 103.684C403.535 104.18 403.411 104.612 403.163 104.98C402.915 105.348 402.563 105.632 402.107 105.832C401.651 106.024 401.107 106.12 400.475 106.12Z" fill="black"/>
<path d="M441 116H95V118H441V116Z" fill="#D8DFE5" mask="url(#path-333-inside-1_1935_15568)"/>
</g>
<rect x="95.5" y="86.5" width="345" height="227" rx="11.5" stroke="#D8DFE5"/>
</g>
<g filter="url(#filter5_dd_1935_15568)">
<rect x="318" y="198" width="162" height="176" rx="12" fill="white" shape-rendering="crispEdges"/>
<path fill-rule="evenodd" clip-rule="evenodd" d="M345.796 218.828C345.454 215.886 342.962 213.666 340.001 213.666C337.039 213.666 334.547 215.885 334.206 218.828C332.066 219.411 330.651 221.444 330.846 223.653C331.042 225.863 332.791 227.615 335.001 227.814V226.166L335.004 225.979C335.103 223.254 337.368 221.111 340.094 221.162C342.821 221.213 345.003 223.439 345.001 226.166L345.001 227.814C347.211 227.615 348.96 225.863 349.155 223.653C349.351 221.444 347.936 219.411 345.796 218.828ZM340.834 227.487V222.833H339.167V227.487L337.644 225.964L336.465 227.143L340.001 230.678L343.536 227.143L342.357 225.964L340.834 227.487Z" fill="#A4529C"/>
<path d="M367.644 226C367.412 226 367.232 225.936 367.104 225.808C366.976 225.68 366.912 225.504 366.912 225.28V218.248C366.912 218.016 366.98 217.832 367.116 217.696C367.26 217.552 367.448 217.48 367.68 217.48C367.92 217.48 368.108 217.552 368.244 217.696C368.388 217.832 368.46 218.016 368.46 218.248V224.728H371.832C372.312 224.728 372.552 224.94 372.552 225.364C372.552 225.788 372.312 226 371.832 226H367.644ZM376.177 226.096C375.577 226.096 375.049 225.972 374.593 225.724C374.145 225.476 373.797 225.12 373.549 224.656C373.301 224.192 373.177 223.652 373.177 223.036C373.177 222.42 373.301 221.884 373.549 221.428C373.797 220.964 374.145 220.608 374.593 220.36C375.049 220.112 375.577 219.988 376.177 219.988C376.777 219.988 377.301 220.112 377.749 220.36C378.205 220.608 378.553 220.964 378.793 221.428C379.041 221.884 379.165 222.42 379.165 223.036C379.165 223.652 379.041 224.192 378.793 224.656C378.553 225.12 378.205 225.476 377.749 225.724C377.301 225.972 376.777 226.096 376.177 226.096ZM376.165 224.932C376.653 224.932 377.025 224.772 377.281 224.452C377.537 224.132 377.665 223.66 377.665 223.036C377.665 222.42 377.537 221.952 377.281 221.632C377.025 221.304 376.657 221.14 376.177 221.14C375.697 221.14 375.325 221.304 375.061 221.632C374.805 221.952 374.677 222.42 374.677 223.036C374.677 223.66 374.805 224.132 375.061 224.452C375.317 224.772 375.685 224.932 376.165 224.932ZM385.471 220.012C385.695 220.012 385.875 220.076 386.011 220.204C386.147 220.332 386.215 220.504 386.215 220.72V225.46C386.215 226.38 385.959 227.076 385.447 227.548C384.935 228.02 384.179 228.256 383.179 228.256C382.307 228.256 381.579 228.092 380.995 227.764C380.699 227.588 380.551 227.376 380.551 227.128C380.551 226.952 380.591 226.812 380.671 226.708C380.759 226.604 380.871 226.552 381.007 226.552C381.079 226.552 381.167 226.568 381.271 226.6C381.375 226.64 381.483 226.684 381.595 226.732C381.883 226.852 382.139 226.944 382.363 227.008C382.595 227.072 382.859 227.104 383.155 227.104C384.203 227.104 384.727 226.592 384.727 225.568V224.8C384.551 225.128 384.295 225.384 383.959 225.568C383.623 225.744 383.239 225.832 382.807 225.832C382.295 225.832 381.839 225.712 381.439 225.472C381.047 225.224 380.739 224.88 380.515 224.44C380.291 224 380.179 223.492 380.179 222.916C380.179 222.34 380.287 221.832 380.503 221.392C380.727 220.944 381.039 220.6 381.439 220.36C381.839 220.112 382.295 219.988 382.807 219.988C383.239 219.988 383.623 220.08 383.959 220.264C384.295 220.44 384.551 220.692 384.727 221.02V220.708C384.727 220.5 384.795 220.332 384.931 220.204C385.067 220.076 385.247 220.012 385.471 220.012ZM383.203 224.668C383.683 224.668 384.055 224.512 384.319 224.2C384.591 223.888 384.727 223.46 384.727 222.916C384.727 222.364 384.591 221.932 384.319 221.62C384.055 221.308 383.683 221.152 383.203 221.152C382.731 221.152 382.359 221.308 382.087 221.62C381.815 221.932 381.679 222.364 381.679 222.916C381.679 223.46 381.815 223.888 382.087 224.2C382.359 224.512 382.731 224.668 383.203 224.668Z" fill="#26282C"/>
<path fill-rule="evenodd" clip-rule="evenodd" d="M332.5 247.334H337.5V252.334H332.5V247.334ZM347.5 247.334H339.167V249.001H347.5V247.334ZM344.167 250.667H339.167V252.334H344.167V250.667ZM339.167 255.667H347.5V257.334H339.167V255.667ZM344.167 259.001H339.167V260.667H344.167V259.001ZM334.167 250.667V249.001H335.833V250.667H334.167ZM332.5 255.667H337.5V260.667H332.5V255.667ZM334.167 259.001V257.334H335.833V259.001H334.167Z" fill="#79B047"/>
<path d="M369.84 258.12C369.488 258.12 369.136 258.092 368.784 258.036C368.432 257.988 368.1 257.912 367.788 257.808C367.476 257.696 367.196 257.56 366.948 257.4C366.804 257.304 366.704 257.188 366.648 257.052C366.592 256.916 366.572 256.784 366.588 256.656C366.612 256.52 366.664 256.404 366.744 256.308C366.832 256.204 366.94 256.14 367.068 256.116C367.196 256.092 367.336 256.128 367.488 256.224C367.84 256.432 368.212 256.584 368.604 256.68C368.996 256.776 369.408 256.824 369.84 256.824C370.472 256.824 370.932 256.72 371.22 256.512C371.508 256.296 371.652 256.02 371.652 255.684C371.652 255.404 371.548 255.184 371.34 255.024C371.14 254.864 370.792 254.732 370.296 254.628L368.976 254.352C368.216 254.192 367.648 253.924 367.272 253.548C366.904 253.164 366.72 252.66 366.72 252.036C366.72 251.644 366.8 251.288 366.96 250.968C367.12 250.648 367.344 250.372 367.632 250.14C367.928 249.908 368.276 249.732 368.676 249.612C369.084 249.484 369.532 249.42 370.02 249.42C370.5 249.42 370.956 249.48 371.388 249.6C371.82 249.72 372.208 249.896 372.552 250.128C372.68 250.216 372.764 250.324 372.804 250.452C372.852 250.58 372.864 250.708 372.84 250.836C372.816 250.956 372.76 251.06 372.672 251.148C372.584 251.236 372.472 251.288 372.336 251.304C372.208 251.32 372.06 251.28 371.892 251.184C371.596 251.016 371.296 250.896 370.992 250.824C370.688 250.752 370.36 250.716 370.008 250.716C369.64 250.716 369.324 250.768 369.06 250.872C368.796 250.976 368.592 251.124 368.448 251.316C368.312 251.5 368.244 251.72 368.244 251.976C368.244 252.264 368.34 252.496 368.532 252.672C368.724 252.84 369.052 252.972 369.516 253.068L370.824 253.344C371.616 253.512 372.204 253.776 372.588 254.136C372.98 254.496 373.176 254.976 373.176 255.576C373.176 255.96 373.096 256.308 372.936 256.62C372.784 256.932 372.56 257.2 372.264 257.424C371.976 257.648 371.628 257.82 371.22 257.94C370.812 258.06 370.352 258.12 369.84 258.12ZM377.342 258.12C376.678 258.12 376.106 257.996 375.626 257.748C375.146 257.5 374.774 257.148 374.51 256.692C374.254 256.236 374.126 255.696 374.126 255.072C374.126 254.464 374.25 253.932 374.498 253.476C374.754 253.02 375.102 252.664 375.542 252.408C375.99 252.144 376.498 252.012 377.066 252.012C377.482 252.012 377.854 252.08 378.182 252.216C378.518 252.352 378.802 252.548 379.034 252.804C379.274 253.06 379.454 253.372 379.574 253.74C379.702 254.1 379.766 254.508 379.766 254.964C379.766 255.108 379.714 255.22 379.61 255.3C379.514 255.372 379.374 255.408 379.19 255.408H375.338V254.544H378.71L378.518 254.724C378.518 254.356 378.462 254.048 378.35 253.8C378.246 253.552 378.09 253.364 377.882 253.236C377.682 253.1 377.43 253.032 377.126 253.032C376.79 253.032 376.502 253.112 376.262 253.272C376.03 253.424 375.85 253.644 375.722 253.932C375.602 254.212 375.542 254.548 375.542 254.94V255.024C375.542 255.68 375.694 256.172 375.998 256.5C376.31 256.82 376.766 256.98 377.366 256.98C377.574 256.98 377.806 256.956 378.062 256.908C378.326 256.852 378.574 256.76 378.806 256.632C378.974 256.536 379.122 256.496 379.25 256.512C379.378 256.52 379.478 256.564 379.55 256.644C379.63 256.724 379.678 256.824 379.694 256.944C379.71 257.056 379.686 257.172 379.622 257.292C379.566 257.412 379.466 257.516 379.322 257.604C379.042 257.78 378.718 257.912 378.35 258C377.99 258.08 377.654 258.12 377.342 258.12ZM383.719 258.12C383.199 258.12 382.763 258.032 382.411 257.856C382.067 257.68 381.811 257.424 381.643 257.088C381.475 256.744 381.391 256.32 381.391 255.816V253.26H380.767C380.575 253.26 380.427 253.212 380.323 253.116C380.219 253.012 380.167 252.872 380.167 252.696C380.167 252.512 380.219 252.372 380.323 252.276C380.427 252.18 380.575 252.132 380.767 252.132H381.391V251.04C381.391 250.792 381.455 250.604 381.583 250.476C381.719 250.348 381.907 250.284 382.147 250.284C382.387 250.284 382.571 250.348 382.699 250.476C382.827 250.604 382.891 250.792 382.891 251.04V252.132H384.163C384.355 252.132 384.503 252.18 384.607 252.276C384.711 252.372 384.763 252.512 384.763 252.696C384.763 252.872 384.711 253.012 384.607 253.116C384.503 253.212 384.355 253.26 384.163 253.26H382.891V255.732C382.891 256.116 382.975 256.404 383.143 256.596C383.311 256.788 383.583 256.884 383.959 256.884C384.095 256.884 384.215 256.872 384.319 256.848C384.423 256.824 384.515 256.808 384.595 256.8C384.691 256.792 384.771 256.824 384.835 256.896C384.899 256.96 384.931 257.096 384.931 257.304C384.931 257.464 384.903 257.608 384.847 257.736C384.799 257.856 384.707 257.94 384.571 257.988C384.467 258.02 384.331 258.048 384.163 258.072C383.995 258.104 383.847 258.12 383.719 258.12ZM389.838 260.256C389.598 260.256 389.414 260.192 389.286 260.064C389.158 259.936 389.094 259.748 389.094 259.5V252.792C389.094 252.544 389.158 252.356 389.286 252.228C389.414 252.1 389.594 252.036 389.826 252.036C390.066 252.036 390.25 252.1 390.378 252.228C390.506 252.356 390.57 252.544 390.57 252.792V253.728L390.438 253.368C390.558 252.96 390.802 252.632 391.17 252.384C391.546 252.136 391.982 252.012 392.478 252.012C392.99 252.012 393.438 252.136 393.822 252.384C394.214 252.632 394.518 252.984 394.734 253.44C394.95 253.888 395.058 254.428 395.058 255.06C395.058 255.684 394.95 256.228 394.734 256.692C394.518 257.148 394.218 257.5 393.834 257.748C393.45 257.996 392.998 258.12 392.478 258.12C391.99 258.12 391.562 258 391.194 257.76C390.826 257.512 390.578 257.192 390.45 256.8H390.594V259.5C390.594 259.748 390.526 259.936 390.39 260.064C390.262 260.192 390.078 260.256 389.838 260.256ZM392.058 256.98C392.354 256.98 392.614 256.908 392.838 256.764C393.062 256.62 393.234 256.408 393.354 256.128C393.482 255.84 393.546 255.484 393.546 255.06C393.546 254.42 393.41 253.944 393.138 253.632C392.866 253.312 392.506 253.152 392.058 253.152C391.762 253.152 391.502 253.224 391.278 253.368C391.054 253.504 390.878 253.716 390.75 254.004C390.63 254.284 390.57 254.636 390.57 255.06C390.57 255.692 390.706 256.172 390.978 256.5C391.25 256.82 391.61 256.98 392.058 256.98ZM397.157 258.096C396.909 258.096 396.717 258.032 396.581 257.904C396.453 257.768 396.389 257.576 396.389 257.328V252.792C396.389 252.544 396.453 252.356 396.581 252.228C396.709 252.1 396.889 252.036 397.121 252.036C397.353 252.036 397.533 252.1 397.661 252.228C397.789 252.356 397.853 252.544 397.853 252.792V253.548H397.733C397.845 253.068 398.065 252.704 398.393 252.456C398.721 252.208 399.157 252.06 399.701 252.012C399.869 251.996 400.001 252.04 400.097 252.144C400.201 252.24 400.261 252.392 400.277 252.6C400.293 252.8 400.245 252.964 400.133 253.092C400.029 253.212 399.869 253.284 399.653 253.308L399.389 253.332C398.901 253.38 398.533 253.532 398.285 253.788C398.037 254.036 397.913 254.388 397.913 254.844V257.328C397.913 257.576 397.849 257.768 397.721 257.904C397.593 258.032 397.405 258.096 397.157 258.096ZM403.771 258.12C403.163 258.12 402.635 257.996 402.187 257.748C401.739 257.5 401.391 257.148 401.143 256.692C400.895 256.228 400.771 255.684 400.771 255.06C400.771 254.588 400.839 254.168 400.975 253.8C401.119 253.424 401.323 253.104 401.587 252.84C401.851 252.568 402.167 252.364 402.535 252.228C402.903 252.084 403.315 252.012 403.771 252.012C404.379 252.012 404.907 252.136 405.355 252.384C405.803 252.632 406.151 252.984 406.399 253.44C406.647 253.896 406.771 254.436 406.771 255.06C406.771 255.532 406.699 255.956 406.555 256.332C406.419 256.708 406.219 257.032 405.955 257.304C405.691 257.568 405.375 257.772 405.007 257.916C404.639 258.052 404.227 258.12 403.771 258.12ZM403.771 256.98C404.067 256.98 404.327 256.908 404.551 256.764C404.775 256.62 404.947 256.408 405.067 256.128C405.195 255.84 405.259 255.484 405.259 255.06C405.259 254.42 405.123 253.944 404.851 253.632C404.579 253.312 404.219 253.152 403.771 253.152C403.475 253.152 403.215 253.224 402.991 253.368C402.767 253.504 402.591 253.716 402.463 254.004C402.343 254.284 402.283 254.636 402.283 255.06C402.283 255.692 402.419 256.172 402.691 256.5C402.963 256.82 403.323 256.98 403.771 256.98ZM408.853 260.256C408.613 260.256 408.429 260.192 408.301 260.064C408.173 259.936 408.109 259.748 408.109 259.5V252.792C408.109 252.544 408.173 252.356 408.301 252.228C408.429 252.1 408.609 252.036 408.841 252.036C409.081 252.036 409.265 252.1 409.393 252.228C409.521 252.356 409.585 252.544 409.585 252.792V253.728L409.453 253.368C409.573 252.96 409.817 252.632 410.185 252.384C410.561 252.136 410.997 252.012 411.493 252.012C412.005 252.012 412.453 252.136 412.837 252.384C413.229 252.632 413.533 252.984 413.749 253.44C413.965 253.888 414.073 254.428 414.073 255.06C414.073 255.684 413.965 256.228 413.749 256.692C413.533 257.148 413.233 257.5 412.849 257.748C412.465 257.996 412.013 258.12 411.493 258.12C411.005 258.12 410.577 258 410.209 257.76C409.841 257.512 409.593 257.192 409.465 256.8H409.609V259.5C409.609 259.748 409.541 259.936 409.405 260.064C409.277 260.192 409.093 260.256 408.853 260.256ZM411.073 256.98C411.369 256.98 411.629 256.908 411.853 256.764C412.077 256.62 412.249 256.408 412.369 256.128C412.497 255.84 412.561 255.484 412.561 255.06C412.561 254.42 412.425 253.944 412.153 253.632C411.881 253.312 411.521 253.152 411.073 253.152C410.777 253.152 410.517 253.224 410.293 253.368C410.069 253.504 409.893 253.716 409.765 254.004C409.645 254.284 409.585 254.636 409.585 255.06C409.585 255.692 409.721 256.172 409.993 256.5C410.265 256.82 410.625 256.98 411.073 256.98ZM418.296 258.12C417.632 258.12 417.06 257.996 416.58 257.748C416.1 257.5 415.728 257.148 415.464 256.692C415.208 256.236 415.08 255.696 415.08 255.072C415.08 254.464 415.204 253.932 415.452 253.476C415.708 253.02 416.056 252.664 416.496 252.408C416.944 252.144 417.452 252.012 418.02 252.012C418.436 252.012 418.808 252.08 419.136 252.216C419.472 252.352 419.756 252.548 419.988 252.804C420.228 253.06 420.408 253.372 420.528 253.74C420.656 254.1 420.72 254.508 420.72 254.964C420.72 255.108 420.668 255.22 420.564 255.3C420.468 255.372 420.328 255.408 420.144 255.408H416.292V254.544H419.664L419.472 254.724C419.472 254.356 419.416 254.048 419.304 253.8C419.2 253.552 419.044 253.364 418.836 253.236C418.636 253.1 418.384 253.032 418.08 253.032C417.744 253.032 417.456 253.112 417.216 253.272C416.984 253.424 416.804 253.644 416.676 253.932C416.556 254.212 416.496 254.548 416.496 254.94V255.024C416.496 255.68 416.648 256.172 416.952 256.5C417.264 256.82 417.72 256.98 418.32 256.98C418.528 256.98 418.76 256.956 419.016 256.908C419.28 256.852 419.528 256.76 419.76 256.632C419.928 256.536 420.076 256.496 420.204 256.512C420.332 256.52 420.432 256.564 420.504 256.644C420.584 256.724 420.632 256.824 420.648 256.944C420.664 257.056 420.64 257.172 420.576 257.292C420.52 257.412 420.42 257.516 420.276 257.604C419.996 257.78 419.672 257.912 419.304 258C418.944 258.08 418.608 258.12 418.296 258.12ZM422.776 258.096C422.528 258.096 422.336 258.032 422.2 257.904C422.072 257.768 422.008 257.576 422.008 257.328V252.792C422.008 252.544 422.072 252.356 422.2 252.228C422.328 252.1 422.508 252.036 422.74 252.036C422.972 252.036 423.152 252.1 423.28 252.228C423.408 252.356 423.472 252.544 423.472 252.792V253.548H423.352C423.464 253.068 423.684 252.704 424.012 252.456C424.34 252.208 424.776 252.06 425.32 252.012C425.488 251.996 425.62 252.04 425.716 252.144C425.82 252.24 425.88 252.392 425.896 252.6C425.912 252.8 425.864 252.964 425.752 253.092C425.648 253.212 425.488 253.284 425.272 253.308L425.008 253.332C424.52 253.38 424.152 253.532 423.904 253.788C423.656 254.036 423.532 254.388 423.532 254.844V257.328C423.532 257.576 423.468 257.768 423.34 257.904C423.212 258.032 423.024 258.096 422.776 258.096ZM429.835 258.12C429.315 258.12 428.879 258.032 428.527 257.856C428.183 257.68 427.927 257.424 427.759 257.088C427.591 256.744 427.507 256.32 427.507 255.816V253.26H426.883C426.691 253.26 426.543 253.212 426.439 253.116C426.335 253.012 426.283 252.872 426.283 252.696C426.283 252.512 426.335 252.372 426.439 252.276C426.543 252.18 426.691 252.132 426.883 252.132H427.507V251.04C427.507 250.792 427.571 250.604 427.699 250.476C427.835 250.348 428.023 250.284 428.263 250.284C428.503 250.284 428.687 250.348 428.815 250.476C428.943 250.604 429.007 250.792 429.007 251.04V252.132H430.279C430.471 252.132 430.619 252.18 430.723 252.276C430.827 252.372 430.879 252.512 430.879 252.696C430.879 252.872 430.827 253.012 430.723 253.116C430.619 253.212 430.471 253.26 430.279 253.26H429.007V255.732C429.007 256.116 429.091 256.404 429.259 256.596C429.427 256.788 429.699 256.884 430.075 256.884C430.211 256.884 430.331 256.872 430.435 256.848C430.539 256.824 430.631 256.808 430.711 256.8C430.807 256.792 430.887 256.824 430.951 256.896C431.015 256.96 431.047 257.096 431.047 257.304C431.047 257.464 431.019 257.608 430.963 257.736C430.915 257.856 430.823 257.94 430.687 257.988C430.583 258.02 430.447 258.048 430.279 258.072C430.111 258.104 429.963 258.12 429.835 258.12ZM433.434 260.256C433.258 260.256 433.114 260.208 433.002 260.112C432.89 260.024 432.822 259.904 432.798 259.752C432.782 259.6 432.81 259.44 432.882 259.272L433.698 257.46V258.084L431.514 253.032C431.442 252.856 431.418 252.692 431.442 252.54C431.466 252.388 431.538 252.268 431.658 252.18C431.786 252.084 431.958 252.036 432.174 252.036C432.358 252.036 432.506 252.08 432.618 252.168C432.73 252.248 432.83 252.404 432.918 252.636L434.538 256.68H434.178L435.834 252.624C435.922 252.4 436.026 252.248 436.146 252.168C436.266 252.08 436.426 252.036 436.626 252.036C436.802 252.036 436.942 252.084 437.046 252.18C437.15 252.268 437.214 252.388 437.238 252.54C437.262 252.684 437.234 252.844 437.154 253.02L434.238 259.68C434.134 259.904 434.022 260.056 433.902 260.136C433.782 260.216 433.626 260.256 433.434 260.256Z" fill="#26282C"/>
<path d="M340.833 291V292.667H344.166V294.333H335.833V292.667H339.166V291H332.493C332.272 290.999 332.06 290.909 331.905 290.752C331.75 290.595 331.664 290.382 331.666 290.161V279.339C331.666 278.876 332.045 278.5 332.493 278.5H347.506C347.963 278.5 348.333 278.874 348.333 279.339V290.161C348.333 290.624 347.954 291 347.506 291H340.833V291Z" fill="#4CB68E"/>
<path d="M367.692 290.096C367.444 290.096 367.252 290.028 367.116 289.892C366.988 289.748 366.924 289.552 366.924 289.304V282.236C366.924 281.98 366.988 281.784 367.116 281.648C367.252 281.512 367.444 281.444 367.692 281.444C367.94 281.444 368.128 281.512 368.256 281.648C368.392 281.784 368.46 281.98 368.46 282.236V285.068H372.816V282.236C372.816 281.98 372.88 281.784 373.008 281.648C373.144 281.512 373.336 281.444 373.584 281.444C373.832 281.444 374.02 281.512 374.148 281.648C374.284 281.784 374.352 281.98 374.352 282.236V289.304C374.352 289.552 374.284 289.748 374.148 289.892C374.02 290.028 373.832 290.096 373.584 290.096C373.336 290.096 373.144 290.028 373.008 289.892C372.88 289.748 372.816 289.552 372.816 289.304V286.352H368.46V289.304C368.46 289.552 368.396 289.748 368.268 289.892C368.14 290.028 367.948 290.096 367.692 290.096ZM379.113 290.096C378.865 290.096 378.673 290.028 378.537 289.892C378.409 289.748 378.345 289.552 378.345 289.304V282.824H376.005C375.797 282.824 375.633 282.768 375.513 282.656C375.401 282.536 375.345 282.376 375.345 282.176C375.345 281.968 375.401 281.812 375.513 281.708C375.633 281.596 375.797 281.54 376.005 281.54H382.221C382.429 281.54 382.589 281.596 382.701 281.708C382.821 281.812 382.881 281.968 382.881 282.176C382.881 282.376 382.821 282.536 382.701 282.656C382.589 282.768 382.429 282.824 382.221 282.824H379.881V289.304C379.881 289.552 379.817 289.748 379.689 289.892C379.561 290.028 379.369 290.096 379.113 290.096ZM386.819 290.096C386.571 290.096 386.379 290.028 386.243 289.892C386.115 289.748 386.051 289.552 386.051 289.304V282.824H383.711C383.503 282.824 383.339 282.768 383.219 282.656C383.107 282.536 383.051 282.376 383.051 282.176C383.051 281.968 383.107 281.812 383.219 281.708C383.339 281.596 383.503 281.54 383.711 281.54H389.927C390.135 281.54 390.295 281.596 390.407 281.708C390.527 281.812 390.587 281.968 390.587 282.176C390.587 282.376 390.527 282.536 390.407 282.656C390.295 282.768 390.135 282.824 389.927 282.824H387.587V289.304C387.587 289.552 387.523 289.748 387.395 289.892C387.267 290.028 387.075 290.096 386.819 290.096ZM392.332 290.096C392.084 290.096 391.892 290.028 391.756 289.892C391.628 289.748 391.564 289.552 391.564 289.304V282.32C391.564 282.064 391.632 281.872 391.768 281.744C391.904 281.608 392.096 281.54 392.344 281.54H395.236C396.164 281.54 396.88 281.772 397.384 282.236C397.888 282.7 398.14 283.348 398.14 284.18C398.14 285.012 397.888 285.664 397.384 286.136C396.88 286.6 396.164 286.832 395.236 286.832H393.1V289.304C393.1 289.552 393.036 289.748 392.908 289.892C392.78 290.028 392.588 290.096 392.332 290.096ZM393.1 285.62H394.996C395.54 285.62 395.952 285.5 396.232 285.26C396.512 285.012 396.652 284.652 396.652 284.18C396.652 283.708 396.512 283.352 396.232 283.112C395.952 282.872 395.54 282.752 394.996 282.752H393.1V285.62Z" fill="#26282C"/>
<path fill-rule="evenodd" clip-rule="evenodd" d="M331.776 316.641C331.627 317.541 331.627 318.459 331.776 319.358V319.359C332.694 319.336 333.52 319.775 333.84 320.55C334.161 321.325 333.889 322.22 333.224 322.854C333.754 323.596 334.404 324.245 335.146 324.775C335.779 324.11 336.674 323.838 337.449 324.159C338.223 324.48 338.663 325.305 338.64 326.223C339.54 326.373 340.459 326.373 341.359 326.223C341.336 325.305 341.775 324.48 342.55 324.159C343.325 323.838 344.22 324.11 344.854 324.775C345.596 324.245 346.245 323.595 346.775 322.853C346.11 322.22 345.838 321.325 346.159 320.55C346.48 319.776 347.305 319.336 348.223 319.359C348.373 318.459 348.373 317.54 348.223 316.64C347.305 316.663 346.48 316.224 346.159 315.449C345.838 314.674 346.11 313.779 346.775 313.145C346.245 312.403 345.595 311.754 344.853 311.224C344.22 311.889 343.325 312.161 342.55 311.84C341.776 311.52 341.336 310.695 341.359 309.776C340.459 309.627 339.54 309.627 338.64 309.776C338.663 310.694 338.224 311.52 337.449 311.84C336.674 312.161 335.779 311.889 335.145 311.224C334.403 311.754 333.754 312.404 333.224 313.146C333.889 313.779 334.161 314.674 333.84 315.449C333.52 316.223 332.695 316.663 331.776 316.641ZM342.5 318C342.5 319.38 341.38 320.5 340 320.5C338.619 320.5 337.5 319.38 337.5 318C337.5 316.619 338.619 315.5 340 315.5C341.38 315.5 342.5 316.619 342.5 318Z" fill="#3E7AFF"/>
<path d="M369.84 322.12C369.488 322.12 369.136 322.092 368.784 322.036C368.432 321.988 368.1 321.912 367.788 321.808C367.476 321.696 367.196 321.56 366.948 321.4C366.804 321.304 366.704 321.188 366.648 321.052C366.592 320.916 366.572 320.784 366.588 320.656C366.612 320.52 366.664 320.404 366.744 320.308C366.832 320.204 366.94 320.14 367.068 320.116C367.196 320.092 367.336 320.128 367.488 320.224C367.84 320.432 368.212 320.584 368.604 320.68C368.996 320.776 369.408 320.824 369.84 320.824C370.472 320.824 370.932 320.72 371.22 320.512C371.508 320.296 371.652 320.02 371.652 319.684C371.652 319.404 371.548 319.184 371.34 319.024C371.14 318.864 370.792 318.732 370.296 318.628L368.976 318.352C368.216 318.192 367.648 317.924 367.272 317.548C366.904 317.164 366.72 316.66 366.72 316.036C366.72 315.644 366.8 315.288 366.96 314.968C367.12 314.648 367.344 314.372 367.632 314.14C367.928 313.908 368.276 313.732 368.676 313.612C369.084 313.484 369.532 313.42 370.02 313.42C370.5 313.42 370.956 313.48 371.388 313.6C371.82 313.72 372.208 313.896 372.552 314.128C372.68 314.216 372.764 314.324 372.804 314.452C372.852 314.58 372.864 314.708 372.84 314.836C372.816 314.956 372.76 315.06 372.672 315.148C372.584 315.236 372.472 315.288 372.336 315.304C372.208 315.32 372.06 315.28 371.892 315.184C371.596 315.016 371.296 314.896 370.992 314.824C370.688 314.752 370.36 314.716 370.008 314.716C369.64 314.716 369.324 314.768 369.06 314.872C368.796 314.976 368.592 315.124 368.448 315.316C368.312 315.5 368.244 315.72 368.244 315.976C368.244 316.264 368.34 316.496 368.532 316.672C368.724 316.84 369.052 316.972 369.516 317.068L370.824 317.344C371.616 317.512 372.204 317.776 372.588 318.136C372.98 318.496 373.176 318.976 373.176 319.576C373.176 319.96 373.096 320.308 372.936 320.62C372.784 320.932 372.56 321.2 372.264 321.424C371.976 321.648 371.628 321.82 371.22 321.94C370.812 322.06 370.352 322.12 369.84 322.12ZM381.626 323.356C381.738 323.532 381.782 323.692 381.758 323.836C381.734 323.98 381.67 324.1 381.566 324.196C381.462 324.3 381.334 324.364 381.182 324.388C381.03 324.42 380.878 324.404 380.726 324.34C380.574 324.284 380.446 324.172 380.342 324.004L379.514 322.672C379.402 322.488 379.25 322.348 379.058 322.252C378.874 322.164 378.646 322.12 378.374 322.12L379.562 321.652C379.938 321.652 380.238 321.72 380.462 321.856C380.686 321.984 380.902 322.212 381.11 322.54L381.626 323.356ZM378.386 322.12C377.57 322.12 376.854 321.94 376.238 321.58C375.63 321.22 375.158 320.716 374.822 320.068C374.486 319.412 374.318 318.644 374.318 317.764C374.318 317.1 374.414 316.504 374.606 315.976C374.798 315.44 375.07 314.984 375.422 314.608C375.782 314.224 376.21 313.932 376.706 313.732C377.21 313.524 377.77 313.42 378.386 313.42C379.21 313.42 379.926 313.6 380.534 313.96C381.142 314.312 381.614 314.812 381.95 315.46C382.286 316.108 382.454 316.872 382.454 317.752C382.454 318.416 382.358 319.016 382.166 319.552C381.974 320.088 381.698 320.548 381.338 320.932C380.986 321.316 380.558 321.612 380.054 321.82C379.558 322.02 379.002 322.12 378.386 322.12ZM378.386 320.8C378.906 320.8 379.346 320.68 379.706 320.44C380.074 320.2 380.354 319.852 380.546 319.396C380.746 318.94 380.846 318.396 380.846 317.764C380.846 316.804 380.63 316.06 380.198 315.532C379.774 315.004 379.17 314.74 378.386 314.74C377.874 314.74 377.434 314.86 377.066 315.1C376.698 315.332 376.414 315.676 376.214 316.132C376.022 316.58 375.926 317.124 375.926 317.764C375.926 318.716 376.142 319.46 376.574 319.996C377.006 320.532 377.61 320.8 378.386 320.8ZM384.896 322C384.648 322 384.456 321.932 384.32 321.796C384.184 321.652 384.116 321.456 384.116 321.208V314.284C384.116 314.028 384.18 313.836 384.308 313.708C384.444 313.572 384.636 313.504 384.884 313.504C385.132 313.504 385.32 313.572 385.448 313.708C385.584 313.836 385.652 314.028 385.652 314.284V320.692H389.132C389.348 320.692 389.512 320.748 389.624 320.86C389.744 320.972 389.804 321.132 389.804 321.34C389.804 321.548 389.744 321.712 389.624 321.832C389.512 321.944 389.348 322 389.132 322H384.896Z" fill="#26282C"/>
<path fill-rule="evenodd" clip-rule="evenodd" d="M348.333 343.334H331.666V345.001H348.333V343.334ZM331.666 349.167H339.166V350.834H331.666V349.167ZM331.666 355.001H337.499V356.667H331.666V355.001ZM347.228 350.855L348.191 350.529L349.024 351.972L348.261 352.643C348.357 353.099 348.357 353.569 348.261 354.025L349.024 354.696L348.191 356.139L347.228 355.813C346.886 356.121 346.479 356.359 346.032 356.505L345.833 357.501H344.166L343.966 356.504C343.524 356.359 343.117 356.124 342.771 355.812L341.808 356.139L340.974 354.696L341.738 354.025C341.642 353.569 341.642 353.099 341.738 352.643L340.974 351.972L341.808 350.529L342.771 350.855C343.113 350.546 343.519 350.309 343.967 350.163L344.166 349.167H345.833L346.033 350.164C346.479 350.309 346.886 350.547 347.228 350.856V350.855ZM346.666 353.334C346.666 354.254 345.92 355.001 344.999 355.001C344.079 355.001 343.333 354.254 343.333 353.334C343.333 352.414 344.079 351.667 344.999 351.667C345.92 351.667 346.666 352.414 346.666 353.334Z" fill="#F6A62E"/>
<path d="M370.284 354.096C370.068 354.096 369.888 354.048 369.744 353.952C369.608 353.848 369.496 353.696 369.408 353.496L366.276 346.464C366.188 346.264 366.164 346.088 366.204 345.936C366.244 345.784 366.328 345.664 366.456 345.576C366.584 345.488 366.736 345.444 366.912 345.444C367.144 345.444 367.316 345.496 367.428 345.6C367.548 345.696 367.648 345.844 367.728 346.044L370.572 352.632H370.056L372.888 346.032C372.976 345.84 373.08 345.696 373.2 345.6C373.32 345.496 373.488 345.444 373.704 345.444C373.88 345.444 374.024 345.488 374.136 345.576C374.256 345.664 374.332 345.784 374.364 345.936C374.396 346.088 374.368 346.264 374.28 346.464L371.148 353.496C371.06 353.696 370.948 353.848 370.812 353.952C370.684 354.048 370.508 354.096 370.284 354.096ZM377.577 354.12C376.913 354.12 376.341 353.996 375.861 353.748C375.381 353.5 375.009 353.148 374.745 352.692C374.489 352.236 374.361 351.696 374.361 351.072C374.361 350.464 374.485 349.932 374.733 349.476C374.989 349.02 375.337 348.664 375.777 348.408C376.225 348.144 376.733 348.012 377.301 348.012C377.717 348.012 378.089 348.08 378.417 348.216C378.753 348.352 379.037 348.548 379.269 348.804C379.509 349.06 379.689 349.372 379.809 349.74C379.937 350.1 380.001 350.508 380.001 350.964C380.001 351.108 379.949 351.22 379.845 351.3C379.749 351.372 379.609 351.408 379.425 351.408H375.573V350.544H378.945L378.753 350.724C378.753 350.356 378.697 350.048 378.585 349.8C378.481 349.552 378.325 349.364 378.117 349.236C377.917 349.1 377.665 349.032 377.361 349.032C377.025 349.032 376.737 349.112 376.497 349.272C376.265 349.424 376.085 349.644 375.957 349.932C375.837 350.212 375.777 350.548 375.777 350.94V351.024C375.777 351.68 375.929 352.172 376.233 352.5C376.545 352.82 377.001 352.98 377.601 352.98C377.809 352.98 378.041 352.956 378.297 352.908C378.561 352.852 378.809 352.76 379.041 352.632C379.209 352.536 379.357 352.496 379.485 352.512C379.613 352.52 379.713 352.564 379.785 352.644C379.865 352.724 379.913 352.824 379.929 352.944C379.945 353.056 379.921 353.172 379.857 353.292C379.801 353.412 379.701 353.516 379.557 353.604C379.277 353.78 378.953 353.912 378.585 354C378.225 354.08 377.889 354.12 377.577 354.12ZM383.293 354.12C382.629 354.12 382.129 353.932 381.793 353.556C381.457 353.172 381.289 352.612 381.289 351.876V346.2C381.289 345.952 381.353 345.764 381.481 345.636C381.609 345.508 381.793 345.444 382.033 345.444C382.273 345.444 382.457 345.508 382.585 345.636C382.721 345.764 382.789 345.952 382.789 346.2V351.804C382.789 352.172 382.865 352.444 383.017 352.62C383.177 352.796 383.401 352.884 383.689 352.884C383.753 352.884 383.813 352.884 383.869 352.884C383.925 352.876 383.981 352.868 384.037 352.86C384.149 352.844 384.225 352.876 384.265 352.956C384.305 353.028 384.325 353.18 384.325 353.412C384.325 353.612 384.285 353.768 384.205 353.88C384.125 353.992 383.993 354.06 383.809 354.084C383.729 354.092 383.645 354.1 383.557 354.108C383.469 354.116 383.381 354.12 383.293 354.12ZM387.838 354.12C387.23 354.12 386.702 353.996 386.254 353.748C385.806 353.5 385.458 353.148 385.21 352.692C384.962 352.228 384.838 351.684 384.838 351.06C384.838 350.588 384.906 350.168 385.042 349.8C385.186 349.424 385.39 349.104 385.654 348.84C385.918 348.568 386.234 348.364 386.602 348.228C386.97 348.084 387.382 348.012 387.838 348.012C388.446 348.012 388.974 348.136 389.422 348.384C389.87 348.632 390.218 348.984 390.466 349.44C390.714 349.896 390.838 350.436 390.838 351.06C390.838 351.532 390.766 351.956 390.622 352.332C390.486 352.708 390.286 353.032 390.022 353.304C389.758 353.568 389.442 353.772 389.074 353.916C388.706 354.052 388.294 354.12 387.838 354.12ZM387.838 352.98C388.134 352.98 388.394 352.908 388.618 352.764C388.842 352.62 389.014 352.408 389.134 352.128C389.262 351.84 389.326 351.484 389.326 351.06C389.326 350.42 389.19 349.944 388.918 349.632C388.646 349.312 388.286 349.152 387.838 349.152C387.542 349.152 387.282 349.224 387.058 349.368C386.834 349.504 386.658 349.716 386.53 350.004C386.41 350.284 386.35 350.636 386.35 351.06C386.35 351.692 386.486 352.172 386.758 352.5C387.03 352.82 387.39 352.98 387.838 352.98ZM394.888 354.12C394.272 354.12 393.736 353.996 393.28 353.748C392.824 353.492 392.472 353.132 392.224 352.668C391.976 352.204 391.852 351.66 391.852 351.036C391.852 350.564 391.92 350.144 392.056 349.776C392.2 349.4 392.404 349.084 392.668 348.828C392.932 348.564 393.252 348.364 393.628 348.228C394.004 348.084 394.424 348.012 394.888 348.012C395.152 348.012 395.436 348.048 395.74 348.12C396.052 348.192 396.344 348.312 396.616 348.48C396.744 348.56 396.828 348.656 396.868 348.768C396.908 348.88 396.916 348.996 396.892 349.116C396.868 349.228 396.816 349.328 396.736 349.416C396.664 349.496 396.572 349.548 396.46 349.572C396.348 349.588 396.224 349.56 396.088 349.488C395.912 349.384 395.732 349.308 395.548 349.26C395.364 349.204 395.188 349.176 395.02 349.176C394.756 349.176 394.524 349.22 394.324 349.308C394.124 349.388 393.952 349.508 393.808 349.668C393.672 349.82 393.568 350.012 393.496 350.244C393.424 350.476 393.388 350.744 393.388 351.048C393.388 351.64 393.528 352.108 393.808 352.452C394.096 352.788 394.5 352.956 395.02 352.956C395.188 352.956 395.36 352.932 395.536 352.884C395.72 352.836 395.904 352.76 396.088 352.656C396.224 352.584 396.344 352.56 396.448 352.584C396.56 352.608 396.652 352.664 396.724 352.752C396.796 352.832 396.84 352.932 396.856 353.052C396.872 353.164 396.856 353.276 396.808 353.388C396.768 353.5 396.688 353.592 396.568 353.664C396.304 353.824 396.024 353.94 395.728 354.012C395.432 354.084 395.152 354.12 394.888 354.12ZM398.68 354.084C398.44 354.084 398.256 354.012 398.128 353.868C398 353.724 397.936 353.524 397.936 353.268V348.864C397.936 348.6 398 348.4 398.128 348.264C398.256 348.12 398.44 348.048 398.68 348.048C398.92 348.048 399.104 348.12 399.232 348.264C399.368 348.4 399.436 348.6 399.436 348.864V353.268C399.436 353.524 399.372 353.724 399.244 353.868C399.116 354.012 398.928 354.084 398.68 354.084ZM398.68 346.932C398.4 346.932 398.18 346.864 398.02 346.728C397.868 346.584 397.792 346.388 397.792 346.14C397.792 345.884 397.868 345.688 398.02 345.552C398.18 345.416 398.4 345.348 398.68 345.348C398.968 345.348 399.188 345.416 399.34 345.552C399.492 345.688 399.568 345.884 399.568 346.14C399.568 346.388 399.492 346.584 399.34 346.728C399.188 346.864 398.968 346.932 398.68 346.932ZM403.783 354.12C403.263 354.12 402.827 354.032 402.475 353.856C402.131 353.68 401.875 353.424 401.707 353.088C401.539 352.744 401.455 352.32 401.455 351.816V349.26H400.831C400.639 349.26 400.491 349.212 400.387 349.116C400.283 349.012 400.231 348.872 400.231 348.696C400.231 348.512 400.283 348.372 400.387 348.276C400.491 348.18 400.639 348.132 400.831 348.132H401.455V347.04C401.455 346.792 401.519 346.604 401.647 346.476C401.783 346.348 401.971 346.284 402.211 346.284C402.451 346.284 402.635 346.348 402.763 346.476C402.891 346.604 402.955 346.792 402.955 347.04V348.132H404.227C404.419 348.132 404.567 348.18 404.671 348.276C404.775 348.372 404.827 348.512 404.827 348.696C404.827 348.872 404.775 349.012 404.671 349.116C404.567 349.212 404.419 349.26 404.227 349.26H402.955V351.732C402.955 352.116 403.039 352.404 403.207 352.596C403.375 352.788 403.647 352.884 404.023 352.884C404.159 352.884 404.279 352.872 404.383 352.848C404.487 352.824 404.579 352.808 404.659 352.8C404.755 352.792 404.835 352.824 404.899 352.896C404.963 352.96 404.995 353.096 404.995 353.304C404.995 353.464 404.967 353.608 404.911 353.736C404.863 353.856 404.771 353.94 404.635 353.988C404.531 354.02 404.395 354.048 404.227 354.072C404.059 354.104 403.911 354.12 403.783 354.12ZM407.382 356.256C407.206 356.256 407.062 356.208 406.95 356.112C406.838 356.024 406.77 355.904 406.746 355.752C406.73 355.6 406.758 355.44 406.83 355.272L407.646 353.46V354.084L405.462 349.032C405.39 348.856 405.366 348.692 405.39 348.54C405.414 348.388 405.486 348.268 405.606 348.18C405.734 348.084 405.906 348.036 406.122 348.036C406.306 348.036 406.454 348.08 406.566 348.168C406.678 348.248 406.778 348.404 406.866 348.636L408.486 352.68H408.126L409.782 348.624C409.87 348.4 409.974 348.248 410.094 348.168C410.214 348.08 410.374 348.036 410.574 348.036C410.75 348.036 410.89 348.084 410.994 348.18C411.098 348.268 411.162 348.388 411.186 348.54C411.21 348.684 411.182 348.844 411.102 349.02L408.186 355.68C408.082 355.904 407.97 356.056 407.85 356.136C407.73 356.216 407.574 356.256 407.382 356.256Z" fill="#26282C"/>
<rect x="318.5" y="198.5" width="161" height="175" rx="11.5" stroke="#D8DFE5" shape-rendering="crispEdges"/>
</g>
<defs>
<filter id="filter0_dd_1935_15568" x="81" y="80" width="374" height="256" filterUnits="userSpaceOnUse" color-interpolation-filters="sRGB">
<feFlood flood-opacity="0" result="BackgroundImageFix"/>
<feColorMatrix in="SourceAlpha" type="matrix" values="0 0 0 0 0 0 0 0 0 0 0 0 0 0 0 0 0 0 127 0" result="hardAlpha"/>
<feOffset dy="8"/>
<feGaussianBlur stdDeviation="7"/>
<feComposite in2="hardAlpha" operator="out"/>
<feColorMatrix type="matrix" values="0 0 0 0 0 0 0 0 0 0 0 0 0 0 0 0 0 0 0.08 0"/>
<feBlend mode="normal" in2="BackgroundImageFix" result="effect1_dropShadow_1935_15568"/>
<feColorMatrix in="SourceAlpha" type="matrix" values="0 0 0 0 0 0 0 0 0 0 0 0 0 0 0 0 0 0 127 0" result="hardAlpha"/>
<feOffset dy="2"/>
<feGaussianBlur stdDeviation="0.5"/>
<feComposite in2="hardAlpha" operator="out"/>
<feColorMatrix type="matrix" values="0 0 0 0 0 0 0 0 0 0 0 0 0 0 0 0 0 0 0.06 0"/>
<feBlend mode="normal" in2="effect1_dropShadow_1935_15568" result="effect2_dropShadow_1935_15568"/>
<feBlend mode="normal" in="SourceGraphic" in2="effect2_dropShadow_1935_15568" result="shape"/>
</filter>
<filter id="filter1_d_1935_15568" x="138.834" y="284" width="28" height="28" filterUnits="userSpaceOnUse" color-interpolation-filters="sRGB">
<feFlood flood-opacity="0" result="BackgroundImageFix"/>
<feColorMatrix in="SourceAlpha" type="matrix" values="0 0 0 0 0 0 0 0 0 0 0 0 0 0 0 0 0 0 127 0" result="hardAlpha"/>
<feOffset dy="4"/>
<feGaussianBlur stdDeviation="2"/>
<feComposite in2="hardAlpha" operator="out"/>
<feColorMatrix type="matrix" values="0 0 0 0 0 0 0 0 0 0 0 0 0 0 0 0 0 0 0.25 0"/>
<feBlend mode="normal" in2="BackgroundImageFix" result="effect1_dropShadow_1935_15568"/>
<feBlend mode="normal" in="SourceGraphic" in2="effect1_dropShadow_1935_15568" result="shape"/>
</filter>
<filter id="filter2_d_1935_15568" x="138.834" y="190" width="28" height="28" filterUnits="userSpaceOnUse" color-interpolation-filters="sRGB">
<feFlood flood-opacity="0" result="BackgroundImageFix"/>
<feColorMatrix in="SourceAlpha" type="matrix" values="0 0 0 0 0 0 0 0 0 0 0 0 0 0 0 0 0 0 127 0" result="hardAlpha"/>
<feOffset dy="4"/>
<feGaussianBlur stdDeviation="2"/>
<feComposite in2="hardAlpha" operator="out"/>
<feColorMatrix type="matrix" values="0 0 0 0 0 0 0 0 0 0 0 0 0 0 0 0 0 0 0.25 0"/>
<feBlend mode="normal" in2="BackgroundImageFix" result="effect1_dropShadow_1935_15568"/>
<feBlend mode="normal" in="SourceGraphic" in2="effect1_dropShadow_1935_15568" result="shape"/>
</filter>
<filter id="filter3_d_1935_15568" x="254.168" y="190" width="28" height="28" filterUnits="userSpaceOnUse" color-interpolation-filters="sRGB">
<feFlood flood-opacity="0" result="BackgroundImageFix"/>
<feColorMatrix in="SourceAlpha" type="matrix" values="0 0 0 0 0 0 0 0 0 0 0 0 0 0 0 0 0 0 127 0" result="hardAlpha"/>
<feOffset dy="4"/>
<feGaussianBlur stdDeviation="2"/>
<feComposite in2="hardAlpha" operator="out"/>
<feColorMatrix type="matrix" values="0 0 0 0 0 0 0 0 0 0 0 0 0 0 0 0 0 0 0.25 0"/>
<feBlend mode="normal" in2="BackgroundImageFix" result="effect1_dropShadow_1935_15568"/>
<feBlend mode="normal" in="SourceGraphic" in2="effect1_dropShadow_1935_15568" result="shape"/>
</filter>
<filter id="filter4_d_1935_15568" x="369.5" y="190" width="28" height="28" filterUnits="userSpaceOnUse" color-interpolation-filters="sRGB">
<feFlood flood-opacity="0" result="BackgroundImageFix"/>
<feColorMatrix in="SourceAlpha" type="matrix" values="0 0 0 0 0 0 0 0 0 0 0 0 0 0 0 0 0 0 127 0" result="hardAlpha"/>
<feOffset dy="4"/>
<feGaussianBlur stdDeviation="2"/>
<feComposite in2="hardAlpha" operator="out"/>
<feColorMatrix type="matrix" values="0 0 0 0 0 0 0 0 0 0 0 0 0 0 0 0 0 0 0.25 0"/>
<feBlend mode="normal" in2="BackgroundImageFix" result="effect1_dropShadow_1935_15568"/>
<feBlend mode="normal" in="SourceGraphic" in2="effect1_dropShadow_1935_15568" result="shape"/>
</filter>
<filter id="filter5_dd_1935_15568" x="304" y="192" width="190" height="204" filterUnits="userSpaceOnUse" color-interpolation-filters="sRGB">
<feFlood flood-opacity="0" result="BackgroundImageFix"/>
<feColorMatrix in="SourceAlpha" type="matrix" values="0 0 0 0 0 0 0 0 0 0 0 0 0 0 0 0 0 0 127 0" result="hardAlpha"/>
<feOffset dy="8"/>
<feGaussianBlur stdDeviation="7"/>
<feComposite in2="hardAlpha" operator="out"/>
<feColorMatrix type="matrix" values="0 0 0 0 0 0 0 0 0 0 0 0 0 0 0 0 0 0 0.08 0"/>
<feBlend mode="normal" in2="BackgroundImageFix" result="effect1_dropShadow_1935_15568"/>
<feColorMatrix in="SourceAlpha" type="matrix" values="0 0 0 0 0 0 0 0 0 0 0 0 0 0 0 0 0 0 127 0" result="hardAlpha"/>
<feOffset dy="2"/>
<feGaussianBlur stdDeviation="0.5"/>
<feComposite in2="hardAlpha" operator="out"/>
<feColorMatrix type="matrix" values="0 0 0 0 0 0 0 0 0 0 0 0 0 0 0 0 0 0 0.06 0"/>
<feBlend mode="normal" in2="effect1_dropShadow_1935_15568" result="effect2_dropShadow_1935_15568"/>
<feBlend mode="normal" in="SourceGraphic" in2="effect2_dropShadow_1935_15568" result="shape"/>
</filter>
<clipPath id="clip0_1935_15568">
<rect x="95" y="86" width="346" height="228" rx="12" fill="white"/>
</clipPath>
</defs>
</svg>
