<svg width="536" height="460" viewBox="0 0 536 460" fill="none" xmlns="http://www.w3.org/2000/svg">
<g filter="url(#filter0_dd_1032_13459)">
<g clip-path="url(#clip0_1032_13459)">
<g filter="url(#filter1_i_1032_13459)">
<g filter="url(#filter2_i_1032_13459)">
<rect width="222" height="28" transform="translate(95 92)" fill="#EDF2F7"/>
<path d="M120.337 100.818V111H118.925L113.749 103.533H113.655V111H112.119V100.818H113.54L118.721 108.295H118.815V100.818H120.337ZM124.681 111.169C124.197 111.169 123.759 111.08 123.368 110.901C122.977 110.718 122.667 110.455 122.438 110.11C122.213 109.765 122.1 109.343 122.1 108.842C122.1 108.411 122.183 108.057 122.349 107.778C122.515 107.5 122.738 107.28 123.02 107.117C123.302 106.955 123.617 106.832 123.965 106.749C124.313 106.666 124.667 106.603 125.029 106.56C125.486 106.507 125.857 106.464 126.142 106.431C126.427 106.395 126.634 106.337 126.764 106.257C126.893 106.178 126.958 106.048 126.958 105.869V105.835C126.958 105.4 126.835 105.064 126.59 104.825C126.348 104.587 125.986 104.467 125.506 104.467C125.005 104.467 124.611 104.578 124.323 104.8C124.038 105.019 123.84 105.263 123.731 105.531L122.334 105.213C122.5 104.749 122.742 104.375 123.06 104.089C123.381 103.801 123.751 103.592 124.169 103.463C124.586 103.33 125.025 103.264 125.486 103.264C125.791 103.264 126.114 103.301 126.455 103.374C126.8 103.443 127.122 103.572 127.42 103.761C127.722 103.95 127.968 104.22 128.161 104.572C128.353 104.92 128.449 105.372 128.449 105.929V111H126.997V109.956H126.938C126.842 110.148 126.697 110.337 126.505 110.523C126.313 110.708 126.066 110.862 125.764 110.985C125.463 111.108 125.102 111.169 124.681 111.169ZM125.004 109.976C125.415 109.976 125.766 109.895 126.058 109.732C126.353 109.57 126.576 109.358 126.729 109.096C126.885 108.831 126.963 108.547 126.963 108.246V107.261C126.91 107.314 126.807 107.364 126.654 107.411C126.505 107.454 126.334 107.492 126.142 107.525C125.95 107.555 125.763 107.583 125.58 107.609C125.398 107.633 125.246 107.652 125.123 107.669C124.835 107.705 124.571 107.767 124.333 107.853C124.097 107.939 123.908 108.063 123.766 108.226C123.627 108.385 123.557 108.597 123.557 108.862C123.557 109.23 123.693 109.509 123.965 109.697C124.236 109.883 124.583 109.976 125.004 109.976ZM130.429 111V103.364H131.856V104.607H131.95C132.109 104.186 132.37 103.857 132.731 103.622C133.092 103.384 133.525 103.264 134.028 103.264C134.539 103.264 134.966 103.384 135.311 103.622C135.659 103.861 135.916 104.189 136.082 104.607H136.161C136.344 104.199 136.634 103.874 137.031 103.632C137.429 103.387 137.903 103.264 138.453 103.264C139.146 103.264 139.711 103.481 140.148 103.915C140.589 104.35 140.81 105.004 140.81 105.879V111H139.323V106.018C139.323 105.501 139.182 105.127 138.901 104.895C138.619 104.663 138.282 104.547 137.891 104.547C137.407 104.547 137.031 104.696 136.763 104.994C136.494 105.289 136.36 105.669 136.36 106.133V111H134.879V105.924C134.879 105.51 134.749 105.177 134.491 104.925C134.232 104.673 133.896 104.547 133.482 104.547C133.2 104.547 132.94 104.621 132.701 104.771C132.466 104.916 132.275 105.12 132.129 105.382C131.987 105.644 131.915 105.947 131.915 106.292V111H130.429ZM146.093 111.154C145.341 111.154 144.693 110.993 144.149 110.672C143.609 110.347 143.191 109.891 142.896 109.305C142.605 108.715 142.459 108.024 142.459 107.232C142.459 106.449 142.605 105.76 142.896 105.163C143.191 104.567 143.602 104.101 144.129 103.766C144.66 103.432 145.28 103.264 145.989 103.264C146.42 103.264 146.837 103.335 147.242 103.478C147.646 103.621 148.009 103.844 148.33 104.149C148.652 104.454 148.905 104.85 149.091 105.337C149.277 105.821 149.369 106.41 149.369 107.102V107.629H143.299V106.516H147.913C147.913 106.125 147.833 105.778 147.674 105.477C147.515 105.172 147.291 104.931 147.003 104.756C146.718 104.58 146.383 104.492 145.999 104.492C145.581 104.492 145.217 104.595 144.905 104.8C144.597 105.003 144.358 105.268 144.189 105.596C144.023 105.921 143.941 106.274 143.941 106.655V107.525C143.941 108.035 144.03 108.469 144.209 108.827C144.391 109.185 144.645 109.459 144.97 109.648C145.294 109.833 145.674 109.926 146.108 109.926C146.39 109.926 146.647 109.886 146.879 109.807C147.111 109.724 147.311 109.601 147.48 109.439C147.649 109.277 147.779 109.076 147.868 108.837L149.275 109.091C149.162 109.505 148.96 109.868 148.669 110.18C148.38 110.488 148.017 110.728 147.58 110.901C147.146 111.07 146.65 111.154 146.093 111.154Z" fill="#171923"/>
</g>
<rect width="130" height="28" transform="translate(317 92)" fill="#EDF2F7"/>
<path d="M342.575 104.129H341.024C340.964 103.798 340.853 103.506 340.691 103.254C340.529 103.002 340.33 102.789 340.094 102.613C339.859 102.437 339.596 102.305 339.304 102.215C339.016 102.126 338.709 102.081 338.384 102.081C337.798 102.081 337.272 102.228 336.808 102.523C336.348 102.818 335.983 103.251 335.714 103.821C335.449 104.391 335.317 105.087 335.317 105.909C335.317 106.738 335.449 107.437 335.714 108.007C335.983 108.577 336.349 109.008 336.813 109.3C337.277 109.591 337.799 109.737 338.379 109.737C338.701 109.737 339.006 109.694 339.294 109.608C339.586 109.518 339.849 109.388 340.085 109.215C340.32 109.043 340.519 108.832 340.681 108.584C340.847 108.332 340.961 108.044 341.024 107.719L342.575 107.724C342.492 108.224 342.332 108.685 342.093 109.106C341.858 109.523 341.554 109.885 341.183 110.19C340.815 110.491 340.394 110.725 339.92 110.891C339.446 111.056 338.929 111.139 338.369 111.139C337.488 111.139 336.702 110.93 336.013 110.513C335.323 110.092 334.78 109.49 334.382 108.708C333.988 107.926 333.79 106.993 333.79 105.909C333.79 104.822 333.989 103.889 334.387 103.11C334.785 102.328 335.328 101.728 336.018 101.31C336.707 100.889 337.491 100.679 338.369 100.679C338.91 100.679 339.413 100.757 339.881 100.913C340.351 101.065 340.774 101.29 341.148 101.589C341.523 101.884 341.833 102.245 342.078 102.673C342.323 103.097 342.489 103.582 342.575 104.129ZM349.132 107.833V103.364H350.623V111H349.161V109.678H349.082C348.906 110.085 348.624 110.425 348.237 110.697C347.852 110.965 347.373 111.099 346.8 111.099C346.309 111.099 345.875 110.992 345.497 110.776C345.123 110.558 344.828 110.234 344.612 109.807C344.4 109.379 344.294 108.851 344.294 108.221V103.364H345.781V108.042C345.781 108.562 345.925 108.977 346.213 109.285C346.502 109.593 346.876 109.747 347.337 109.747C347.615 109.747 347.892 109.678 348.167 109.538C348.445 109.399 348.676 109.189 348.858 108.907C349.044 108.625 349.135 108.267 349.132 107.833ZM358.343 105.228L356.995 105.467C356.939 105.294 356.85 105.13 356.727 104.974C356.608 104.819 356.445 104.691 356.24 104.592C356.034 104.492 355.777 104.442 355.469 104.442C355.048 104.442 354.697 104.537 354.415 104.726C354.133 104.911 353.993 105.152 353.993 105.447C353.993 105.702 354.087 105.907 354.276 106.063C354.465 106.219 354.77 106.347 355.191 106.446L356.404 106.724C357.106 106.887 357.63 107.137 357.975 107.475C358.319 107.813 358.492 108.252 358.492 108.793C358.492 109.25 358.359 109.658 358.094 110.016C357.832 110.37 357.466 110.649 356.995 110.851C356.528 111.053 355.986 111.154 355.37 111.154C354.515 111.154 353.817 110.972 353.277 110.607C352.736 110.239 352.405 109.717 352.282 109.041L353.719 108.822C353.809 109.197 353.993 109.48 354.271 109.673C354.549 109.862 354.912 109.956 355.36 109.956C355.847 109.956 356.236 109.855 356.528 109.653C356.82 109.447 356.966 109.197 356.966 108.902C356.966 108.663 356.876 108.463 356.697 108.3C356.521 108.138 356.251 108.015 355.887 107.933L354.594 107.649C353.882 107.487 353.355 107.228 353.013 106.874C352.675 106.519 352.506 106.07 352.506 105.526C352.506 105.076 352.632 104.681 352.884 104.343C353.136 104.005 353.484 103.741 353.928 103.553C354.372 103.36 354.881 103.264 355.454 103.264C356.279 103.264 356.929 103.443 357.403 103.801C357.877 104.156 358.19 104.631 358.343 105.228ZM363.691 103.364V104.557H359.52V103.364H363.691ZM360.638 101.534H362.125V108.758C362.125 109.046 362.168 109.263 362.254 109.409C362.34 109.552 362.451 109.649 362.587 109.702C362.726 109.752 362.877 109.777 363.04 109.777C363.159 109.777 363.263 109.769 363.353 109.752C363.442 109.736 363.512 109.722 363.562 109.712L363.83 110.94C363.744 110.973 363.621 111.007 363.462 111.04C363.303 111.076 363.104 111.096 362.866 111.099C362.474 111.106 362.11 111.036 361.772 110.891C361.434 110.745 361.16 110.519 360.952 110.214C360.743 109.91 360.638 109.527 360.638 109.066V101.534ZM368.47 111.154C367.754 111.154 367.129 110.99 366.596 110.662C366.062 110.334 365.648 109.875 365.353 109.285C365.058 108.695 364.91 108.005 364.91 107.217C364.91 106.424 365.058 105.732 365.353 105.138C365.648 104.545 366.062 104.085 366.596 103.756C367.129 103.428 367.754 103.264 368.47 103.264C369.186 103.264 369.81 103.428 370.344 103.756C370.878 104.085 371.292 104.545 371.587 105.138C371.882 105.732 372.029 106.424 372.029 107.217C372.029 108.005 371.882 108.695 371.587 109.285C371.292 109.875 370.878 110.334 370.344 110.662C369.81 110.99 369.186 111.154 368.47 111.154ZM368.475 109.906C368.939 109.906 369.323 109.784 369.628 109.538C369.933 109.293 370.158 108.967 370.304 108.559C370.453 108.151 370.528 107.702 370.528 107.212C370.528 106.724 370.453 106.277 370.304 105.869C370.158 105.458 369.933 105.129 369.628 104.88C369.323 104.631 368.939 104.507 368.475 104.507C368.007 104.507 367.62 104.631 367.311 104.88C367.007 105.129 366.779 105.458 366.63 105.869C366.484 106.277 366.412 106.724 366.412 107.212C366.412 107.702 366.484 108.151 366.63 108.559C366.779 108.967 367.007 109.293 367.311 109.538C367.62 109.784 368.007 109.906 368.475 109.906ZM373.689 111V103.364H375.116V104.607H375.21C375.369 104.186 375.629 103.857 375.991 103.622C376.352 103.384 376.784 103.264 377.288 103.264C377.799 103.264 378.226 103.384 378.571 103.622C378.919 103.861 379.176 104.189 379.341 104.607H379.421C379.603 104.199 379.893 103.874 380.291 103.632C380.689 103.387 381.163 103.264 381.713 103.264C382.406 103.264 382.971 103.481 383.408 103.915C383.849 104.35 384.069 105.004 384.069 105.879V111H382.583V106.018C382.583 105.501 382.442 105.127 382.16 104.895C381.879 104.663 381.542 104.547 381.151 104.547C380.667 104.547 380.291 104.696 380.023 104.994C379.754 105.289 379.62 105.669 379.62 106.133V111H378.138V105.924C378.138 105.51 378.009 105.177 377.751 104.925C377.492 104.673 377.156 104.547 376.741 104.547C376.46 104.547 376.199 104.621 375.961 104.771C375.725 104.916 375.535 105.12 375.389 105.382C375.247 105.644 375.175 105.947 375.175 106.292V111H373.689ZM389.353 111.154C388.601 111.154 387.953 110.993 387.409 110.672C386.869 110.347 386.451 109.891 386.156 109.305C385.865 108.715 385.719 108.024 385.719 107.232C385.719 106.449 385.865 105.76 386.156 105.163C386.451 104.567 386.862 104.101 387.389 103.766C387.92 103.432 388.539 103.264 389.249 103.264C389.679 103.264 390.097 103.335 390.501 103.478C390.906 103.621 391.269 103.844 391.59 104.149C391.912 104.454 392.165 104.85 392.351 105.337C392.536 105.821 392.629 106.41 392.629 107.102V107.629H386.559V106.516H391.173C391.173 106.125 391.093 105.778 390.934 105.477C390.775 105.172 390.551 104.931 390.263 104.756C389.978 104.58 389.643 104.492 389.259 104.492C388.841 104.492 388.476 104.595 388.165 104.8C387.857 105.003 387.618 105.268 387.449 105.596C387.283 105.921 387.2 106.274 387.2 106.655V107.525C387.2 108.035 387.29 108.469 387.469 108.827C387.651 109.185 387.905 109.459 388.229 109.648C388.554 109.833 388.934 109.926 389.368 109.926C389.65 109.926 389.906 109.886 390.138 109.807C390.371 109.724 390.571 109.601 390.74 109.439C390.909 109.277 391.038 109.076 391.128 108.837L392.535 109.091C392.422 109.505 392.22 109.868 391.928 110.18C391.64 110.488 391.277 110.728 390.839 110.901C390.405 111.07 389.91 111.154 389.353 111.154ZM394.279 111V103.364H395.715V104.577H395.795C395.934 104.166 396.179 103.843 396.531 103.607C396.885 103.369 397.286 103.249 397.734 103.249C397.827 103.249 397.936 103.253 398.062 103.259C398.191 103.266 398.292 103.274 398.365 103.284V104.706C398.306 104.689 398.2 104.671 398.047 104.651C397.895 104.628 397.742 104.616 397.59 104.616C397.238 104.616 396.925 104.691 396.65 104.84C396.378 104.986 396.163 105.19 396.004 105.452C395.845 105.71 395.765 106.005 395.765 106.337V111H394.279ZM406.991 103.364V104.557H402.676V103.364H406.991ZM403.859 111V102.479C403.859 102.001 403.963 101.605 404.172 101.29C404.381 100.972 404.658 100.735 405.002 100.58C405.347 100.42 405.722 100.341 406.126 100.341C406.424 100.341 406.679 100.366 406.892 100.415C407.104 100.462 407.261 100.505 407.364 100.545L407.016 101.748C406.946 101.728 406.857 101.705 406.747 101.678C406.638 101.648 406.505 101.634 406.35 101.634C405.988 101.634 405.73 101.723 405.574 101.902C405.422 102.081 405.345 102.339 405.345 102.678V111H403.859ZM408.525 111V103.364H410.011V111H408.525ZM409.275 102.185C409.017 102.185 408.795 102.099 408.609 101.927C408.427 101.751 408.336 101.542 408.336 101.3C408.336 101.055 408.427 100.846 408.609 100.674C408.795 100.498 409.017 100.411 409.275 100.411C409.534 100.411 409.754 100.498 409.937 100.674C410.122 100.846 410.215 101.055 410.215 101.3C410.215 101.542 410.122 101.751 409.937 101.927C409.754 102.099 409.534 102.185 409.275 102.185ZM415.576 103.364V104.557H411.404V103.364H415.576ZM412.523 101.534H414.01V108.758C414.01 109.046 414.053 109.263 414.139 109.409C414.225 109.552 414.336 109.649 414.472 109.702C414.611 109.752 414.762 109.777 414.924 109.777C415.044 109.777 415.148 109.769 415.238 109.752C415.327 109.736 415.397 109.722 415.446 109.712L415.715 110.94C415.629 110.973 415.506 111.007 415.347 111.04C415.188 111.076 414.989 111.096 414.75 111.099C414.359 111.106 413.995 111.036 413.657 110.891C413.319 110.745 413.045 110.519 412.836 110.214C412.627 109.91 412.523 109.527 412.523 109.066V101.534Z" fill="#171923"/>
</g>
<g filter="url(#filter3_i_1032_13459)">
<g filter="url(#filter4_i_1032_13459)">
<rect width="222" height="50" transform="translate(95 120)" fill="white"/>
<path d="M119.315 148.766L118.122 149.202L118.059 152.75L122.187 151.242C120.77 150.767 119.736 149.93 119.315 148.766Z" fill="#FDBD39"/>
<path d="M119.94 145.014L115.801 146.526L118.123 149.203L119.315 148.767C118.895 147.607 119.154 146.296 119.94 145.014Z" fill="#F69833"/>
<path d="M126.903 139.894C121.633 141.819 118.235 145.792 119.315 148.766L138.399 141.795C137.319 138.82 132.173 137.969 126.903 139.894Z" fill="#FECF33"/>
<path d="M130.81 150.668C136.08 148.743 139.484 144.788 138.398 141.796L119.314 148.766C120.4 151.76 125.54 152.593 130.81 150.668Z" fill="#EE6723"/>
<path d="M138.397 141.795L119.314 148.766C119.688 149.797 121.113 150.305 123.112 150.305C125.062 150.305 127.557 149.823 130.158 148.872C135.428 146.947 139.135 143.83 138.397 141.795Z" fill="#F69833"/>
<path d="M134.601 140.257C132.653 140.257 130.157 140.74 127.555 141.69C122.285 143.615 118.578 146.731 119.316 148.766L138.4 141.795C138.026 140.764 136.601 140.257 134.601 140.257Z" fill="#FDBD39"/>
<path d="M133.547 152.938C132.985 152.938 132.157 152.431 131.085 151.431C129.816 150.248 128.364 148.514 126.993 146.55C125.623 144.587 124.498 142.624 123.824 141.022C123.089 139.277 122.984 138.204 123.512 137.833C123.634 137.75 123.779 137.707 123.927 137.711C124.356 137.711 125.193 138.03 126.74 139.553L126.774 139.587L126.77 139.634C126.759 139.744 126.75 139.854 126.741 139.963L126.724 140.178L126.573 140.025C124.905 138.346 124.172 138.165 123.933 138.165C123.865 138.165 123.811 138.178 123.772 138.205C123.543 138.366 123.528 139.155 124.24 140.846C124.903 142.418 126.012 144.352 127.364 146.29C128.716 148.229 130.147 149.936 131.394 151.099C132.737 152.352 133.342 152.487 133.54 152.487C133.608 152.487 133.663 152.473 133.705 152.444C133.947 152.274 133.947 151.43 133.153 149.609L133.116 149.526L133.195 149.482C133.275 149.439 133.353 149.396 133.425 149.355L133.52 149.301L133.565 149.401C134.128 150.691 134.654 152.331 133.964 152.816C133.841 152.899 133.696 152.942 133.547 152.938ZM133.547 152.739V152.839V152.739Z" fill="#EE6723"/>
<path d="M130.939 150.614L130.931 150.712C130.798 152.36 130.447 154.342 129.532 154.423C129.513 154.425 129.494 154.425 129.476 154.425C128.855 154.425 128.266 153.534 127.729 151.779C127.22 150.117 126.825 147.887 126.617 145.499C126.409 143.111 126.412 140.846 126.626 139.121C126.859 137.241 127.302 136.26 127.944 136.203C127.963 136.201 127.983 136.2 128.002 136.2C128.453 136.2 129.132 136.711 129.828 139.088L129.374 139.175C129.142 138.382 128.889 137.736 128.638 137.29C128.406 136.88 128.179 136.654 128.002 136.654C127.996 136.654 127.991 136.654 127.984 136.655C127.706 136.679 127.3 137.354 127.075 139.176C126.864 140.87 126.862 143.102 127.067 145.459C127.273 147.817 127.661 150.014 128.161 151.645C128.385 152.376 128.63 152.978 128.872 153.386C129.093 153.763 129.308 153.971 129.476 153.971C129.482 153.971 129.487 153.971 129.493 153.97C129.759 153.947 130.261 153.244 130.473 150.773L130.939 150.614Z" fill="#EE6723"/>
<path d="M159.895 150V149.105L165.384 140.912H159.835V139.818H166.855V140.713L161.366 148.906H166.915V150H159.895ZM172.026 150.159C171.29 150.159 170.655 149.997 170.121 149.672C169.591 149.344 169.182 148.886 168.893 148.3C168.608 147.71 168.466 147.024 168.466 146.241C168.466 145.459 168.608 144.77 168.893 144.173C169.182 143.573 169.583 143.106 170.097 142.771C170.614 142.433 171.217 142.264 171.906 142.264C172.304 142.264 172.697 142.33 173.085 142.463C173.472 142.596 173.825 142.811 174.143 143.109C174.462 143.404 174.715 143.795 174.904 144.283C175.093 144.77 175.188 145.37 175.188 146.082V146.58H169.301V145.565H173.994C173.994 145.134 173.908 144.75 173.736 144.412C173.567 144.074 173.325 143.807 173.01 143.612C172.698 143.416 172.33 143.318 171.906 143.318C171.439 143.318 171.035 143.434 170.693 143.666C170.355 143.895 170.095 144.193 169.913 144.561C169.73 144.929 169.639 145.323 169.639 145.744V146.42C169.639 146.997 169.739 147.486 169.938 147.887C170.14 148.285 170.42 148.588 170.778 148.797C171.136 149.002 171.552 149.105 172.026 149.105C172.334 149.105 172.612 149.062 172.861 148.976C173.113 148.886 173.33 148.754 173.512 148.578C173.694 148.399 173.835 148.177 173.935 147.912L175.068 148.23C174.949 148.615 174.748 148.953 174.467 149.244C174.185 149.533 173.837 149.758 173.423 149.92C173.008 150.08 172.543 150.159 172.026 150.159ZM176.972 152.864V142.364H178.106V143.577H178.245C178.331 143.444 178.451 143.275 178.603 143.07C178.759 142.861 178.981 142.675 179.269 142.513C179.561 142.347 179.955 142.264 180.452 142.264C181.095 142.264 181.662 142.425 182.153 142.746C182.643 143.068 183.026 143.524 183.301 144.114C183.576 144.704 183.714 145.4 183.714 146.202C183.714 147.01 183.576 147.711 183.301 148.305C183.026 148.895 182.645 149.352 182.158 149.677C181.67 149.998 181.109 150.159 180.472 150.159C179.982 150.159 179.589 150.078 179.294 149.915C178.999 149.75 178.772 149.562 178.613 149.354C178.454 149.142 178.331 148.966 178.245 148.827H178.146V152.864H176.972ZM178.126 146.182C178.126 146.759 178.21 147.267 178.379 147.708C178.548 148.146 178.795 148.489 179.12 148.737C179.445 148.982 179.843 149.105 180.313 149.105C180.804 149.105 181.213 148.976 181.541 148.717C181.873 148.455 182.121 148.104 182.287 147.663C182.456 147.219 182.54 146.725 182.54 146.182C182.54 145.645 182.458 145.161 182.292 144.73C182.129 144.296 181.883 143.953 181.551 143.701C181.223 143.446 180.81 143.318 180.313 143.318C179.836 143.318 179.435 143.439 179.11 143.681C178.785 143.92 178.54 144.254 178.374 144.685C178.209 145.113 178.126 145.612 178.126 146.182ZM186.677 139.818V150H185.504V139.818H186.677ZM188.826 150V142.364H189.999V150H188.826ZM189.422 141.091C189.194 141.091 188.997 141.013 188.831 140.857C188.668 140.701 188.587 140.514 188.587 140.295C188.587 140.077 188.668 139.889 188.831 139.734C188.997 139.578 189.194 139.5 189.422 139.5C189.651 139.5 189.847 139.578 190.009 139.734C190.175 139.889 190.258 140.077 190.258 140.295C190.258 140.514 190.175 140.701 190.009 140.857C189.847 141.013 189.651 141.091 189.422 141.091ZM193.321 145.406V150H192.148V142.364H193.282V143.557H193.381C193.56 143.169 193.832 142.857 194.196 142.622C194.561 142.384 195.032 142.264 195.608 142.264C196.125 142.264 196.578 142.37 196.966 142.582C197.353 142.791 197.655 143.109 197.87 143.537C198.086 143.961 198.194 144.498 198.194 145.148V150H197.02V145.227C197.02 144.627 196.864 144.16 196.553 143.825C196.241 143.487 195.814 143.318 195.27 143.318C194.896 143.318 194.561 143.399 194.266 143.562C193.974 143.724 193.744 143.961 193.575 144.273C193.406 144.584 193.321 144.962 193.321 145.406Z" fill="#171923"/>
</g>
<rect width="130" height="50" transform="translate(317 120)" fill="white"/>
<rect x="333" y="137" width="62" height="16" rx="2" fill="#38A169"/>
<path d="M337.959 149V140.273H341.07C341.749 140.273 342.311 140.396 342.757 140.643C343.203 140.891 343.537 141.229 343.759 141.658C343.98 142.084 344.091 142.564 344.091 143.098C344.091 143.635 343.979 144.118 343.754 144.547C343.533 144.973 343.197 145.311 342.749 145.561C342.303 145.808 341.741 145.932 341.065 145.932H338.926V144.815H340.946C341.375 144.815 341.723 144.741 341.99 144.594C342.257 144.443 342.453 144.239 342.578 143.98C342.703 143.722 342.766 143.428 342.766 143.098C342.766 142.768 342.703 142.476 342.578 142.22C342.453 141.964 342.256 141.764 341.986 141.619C341.719 141.474 341.366 141.402 340.929 141.402H339.276V149H337.959ZM345.635 149V140.273H351.106V141.406H346.951V144.065H350.821V145.195H346.951V147.866H351.157V149H345.635ZM352.865 149V140.273H355.976C356.652 140.273 357.213 140.389 357.659 140.622C358.108 140.855 358.443 141.178 358.665 141.589C358.886 141.999 358.997 142.472 358.997 143.009C358.997 143.543 358.885 144.013 358.661 144.419C358.439 144.822 358.104 145.136 357.655 145.361C357.209 145.585 356.648 145.697 355.972 145.697H353.615V144.564H355.852C356.278 144.564 356.625 144.503 356.892 144.381C357.162 144.259 357.359 144.081 357.484 143.848C357.609 143.615 357.672 143.335 357.672 143.009C357.672 142.679 357.608 142.393 357.48 142.152C357.355 141.911 357.158 141.726 356.888 141.598C356.621 141.467 356.27 141.402 355.835 141.402H354.182V149H352.865ZM357.173 145.062L359.33 149H357.83L355.716 145.062H357.173ZM360.599 149V140.273H366.011V141.406H361.916V144.065H365.624V145.195H361.916V149H360.599ZM367.631 149V140.273H373.102V141.406H368.947V144.065H372.817V145.195H368.947V147.866H373.153V149H367.631ZM382.11 143.111H380.78C380.729 142.827 380.634 142.577 380.495 142.361C380.355 142.145 380.185 141.962 379.983 141.811C379.782 141.661 379.556 141.547 379.306 141.47C379.059 141.393 378.796 141.355 378.517 141.355C378.015 141.355 377.564 141.482 377.167 141.734C376.772 141.987 376.459 142.358 376.229 142.847C376.002 143.335 375.888 143.932 375.888 144.636C375.888 145.347 376.002 145.946 376.229 146.435C376.459 146.923 376.773 147.293 377.171 147.543C377.569 147.793 378.016 147.918 378.513 147.918C378.789 147.918 379.05 147.881 379.297 147.807C379.547 147.73 379.773 147.618 379.975 147.47C380.176 147.322 380.347 147.142 380.486 146.929C380.628 146.713 380.726 146.466 380.78 146.188L382.11 146.192C382.039 146.621 381.901 147.016 381.696 147.376C381.495 147.734 381.235 148.044 380.917 148.305C380.601 148.564 380.24 148.764 379.834 148.906C379.428 149.048 378.985 149.119 378.505 149.119C377.749 149.119 377.076 148.94 376.485 148.582C375.894 148.222 375.428 147.706 375.087 147.036C374.749 146.365 374.58 145.565 374.58 144.636C374.58 143.705 374.75 142.905 375.091 142.237C375.432 141.567 375.898 141.053 376.489 140.695C377.08 140.334 377.752 140.153 378.505 140.153C378.968 140.153 379.4 140.22 379.8 140.354C380.203 140.484 380.566 140.678 380.887 140.933C381.208 141.186 381.473 141.496 381.684 141.862C381.894 142.226 382.036 142.642 382.11 143.111ZM383.255 141.406V140.273H390.009V141.406H387.286V149H385.974V141.406H383.255Z" fill="white"/>
</g>
<g filter="url(#filter5_i_1032_13459)">
<g filter="url(#filter6_i_1032_13459)">
<rect width="222" height="50" transform="translate(95 170)" fill="white"/>
<path d="M117.802 184.6L116.602 186.2V201L120.602 206.2L137.802 205L137.402 187.4L131.802 183.8L117.802 184.6Z" fill="white"/>
<path fill-rule="evenodd" clip-rule="evenodd" d="M119.743 187.178C120.484 187.78 120.762 187.735 122.154 187.642L135.277 186.854C135.555 186.854 135.324 186.576 135.231 186.53L133.051 184.954C132.634 184.63 132.077 184.259 131.011 184.352L118.305 185.279C117.841 185.325 117.749 185.556 117.933 185.742L119.743 187.178ZM120.531 190.236V204.043C120.531 204.785 120.902 205.063 121.736 205.017L136.158 204.183C136.993 204.137 137.086 203.626 137.086 203.024V189.309C137.086 188.707 136.854 188.383 136.343 188.429L121.273 189.309C120.716 189.356 120.531 189.634 120.531 190.236H120.531ZM134.768 190.977C134.86 191.394 134.768 191.811 134.35 191.858L133.655 191.997V202.19C133.051 202.514 132.495 202.7 132.031 202.7C131.289 202.7 131.103 202.468 130.547 201.773L126.002 194.638V201.542L127.441 201.866C127.441 201.866 127.441 202.7 126.28 202.7L123.081 202.885C122.988 202.7 123.081 202.237 123.406 202.144L124.24 201.913V192.785L123.081 192.692C122.988 192.274 123.22 191.673 123.87 191.626L127.301 191.395L132.031 198.623V192.229L130.825 192.09C130.733 191.58 131.103 191.209 131.567 191.163L134.768 190.977ZM117.238 184.028L130.455 183.054C132.078 182.915 132.495 183.008 133.515 183.749L137.734 186.715C138.43 187.225 138.662 187.363 138.662 187.919V204.183C138.662 205.202 138.291 205.805 136.993 205.897L121.644 206.824C120.67 206.87 120.206 206.731 119.696 206.082L116.589 202.051C116.032 201.309 115.801 200.754 115.801 200.105V185.649C115.801 184.815 116.172 184.12 117.238 184.028Z" fill="black"/>
<path d="M168.307 189.818V200H167.114L161.565 192.006H161.466V200H160.233V189.818H161.426L166.994 197.832H167.094V189.818H168.307ZM173.717 200.159C173.028 200.159 172.423 199.995 171.903 199.667C171.385 199.339 170.981 198.88 170.689 198.29C170.401 197.7 170.257 197.01 170.257 196.222C170.257 195.426 170.401 194.732 170.689 194.138C170.981 193.545 171.385 193.085 171.903 192.756C172.423 192.428 173.028 192.264 173.717 192.264C174.407 192.264 175.01 192.428 175.527 192.756C176.047 193.085 176.452 193.545 176.74 194.138C177.032 194.732 177.177 195.426 177.177 196.222C177.177 197.01 177.032 197.7 176.74 198.29C176.452 198.88 176.047 199.339 175.527 199.667C175.01 199.995 174.407 200.159 173.717 200.159ZM173.717 199.105C174.241 199.105 174.672 198.971 175.01 198.702C175.348 198.434 175.598 198.081 175.76 197.643C175.923 197.206 176.004 196.732 176.004 196.222C176.004 195.711 175.923 195.236 175.76 194.795C175.598 194.354 175.348 193.998 175.01 193.726C174.672 193.454 174.241 193.318 173.717 193.318C173.193 193.318 172.763 193.454 172.425 193.726C172.086 193.998 171.836 194.354 171.674 194.795C171.511 195.236 171.43 195.711 171.43 196.222C171.43 196.732 171.511 197.206 171.674 197.643C171.836 198.081 172.086 198.434 172.425 198.702C172.763 198.971 173.193 199.105 173.717 199.105ZM182.289 192.364V193.358H178.332V192.364H182.289ZM179.485 190.534H180.659V197.812C180.659 198.144 180.707 198.393 180.803 198.558C180.902 198.721 181.028 198.83 181.181 198.886C181.337 198.939 181.501 198.966 181.673 198.966C181.802 198.966 181.908 198.959 181.991 198.946C182.074 198.929 182.14 198.916 182.19 198.906L182.429 199.96C182.349 199.99 182.238 200.02 182.096 200.05C181.953 200.083 181.772 200.099 181.554 200.099C181.222 200.099 180.897 200.028 180.579 199.886C180.264 199.743 180.002 199.526 179.794 199.234C179.588 198.943 179.485 198.575 179.485 198.131V190.534ZM184.054 200V192.364H185.228V200H184.054ZM184.651 191.091C184.422 191.091 184.225 191.013 184.059 190.857C183.897 190.701 183.816 190.514 183.816 190.295C183.816 190.077 183.897 189.889 184.059 189.734C184.225 189.578 184.422 189.5 184.651 189.5C184.88 189.5 185.075 189.578 185.238 189.734C185.403 189.889 185.486 190.077 185.486 190.295C185.486 190.514 185.403 190.701 185.238 190.857C185.075 191.013 184.88 191.091 184.651 191.091ZM190.479 200.159C189.789 200.159 189.185 199.995 188.664 199.667C188.147 199.339 187.743 198.88 187.451 198.29C187.163 197.7 187.019 197.01 187.019 196.222C187.019 195.426 187.163 194.732 187.451 194.138C187.743 193.545 188.147 193.085 188.664 192.756C189.185 192.428 189.789 192.264 190.479 192.264C191.168 192.264 191.771 192.428 192.289 192.756C192.809 193.085 193.213 193.545 193.502 194.138C193.793 194.732 193.939 195.426 193.939 196.222C193.939 197.01 193.793 197.7 193.502 198.29C193.213 198.88 192.809 199.339 192.289 199.667C191.771 199.995 191.168 200.159 190.479 200.159ZM190.479 199.105C191.003 199.105 191.433 198.971 191.771 198.702C192.11 198.434 192.36 198.081 192.522 197.643C192.685 197.206 192.766 196.732 192.766 196.222C192.766 195.711 192.685 195.236 192.522 194.795C192.36 194.354 192.11 193.998 191.771 193.726C191.433 193.454 191.003 193.318 190.479 193.318C189.955 193.318 189.524 193.454 189.186 193.726C188.848 193.998 188.598 194.354 188.436 194.795C188.273 195.236 188.192 195.711 188.192 196.222C188.192 196.732 188.273 197.206 188.436 197.643C188.598 198.081 188.848 198.434 189.186 198.702C189.524 198.971 189.955 199.105 190.479 199.105ZM196.903 195.406V200H195.73V192.364H196.864V193.557H196.963C197.142 193.169 197.414 192.857 197.778 192.622C198.143 192.384 198.614 192.264 199.19 192.264C199.707 192.264 200.16 192.37 200.548 192.582C200.935 192.791 201.237 193.109 201.452 193.537C201.668 193.961 201.776 194.498 201.776 195.148V200H200.602V195.227C200.602 194.627 200.446 194.16 200.135 193.825C199.823 193.487 199.396 193.318 198.852 193.318C198.478 193.318 198.143 193.399 197.848 193.562C197.556 193.724 197.326 193.961 197.157 194.273C196.988 194.584 196.903 194.962 196.903 195.406Z" fill="#171923"/>
</g>
<rect width="130" height="50" transform="translate(317 170)" fill="white"/>
<rect x="333" y="187" width="45" height="16" rx="2" fill="#319795"/>
<path d="M343.865 193.03C343.783 192.771 343.672 192.54 343.533 192.335C343.396 192.128 343.233 191.952 343.043 191.807C342.852 191.659 342.635 191.547 342.391 191.47C342.149 191.393 341.884 191.355 341.594 191.355C341.102 191.355 340.659 191.482 340.264 191.734C339.869 191.987 339.557 192.358 339.327 192.847C339.099 193.332 338.986 193.928 338.986 194.632C338.986 195.339 339.101 195.937 339.331 196.426C339.561 196.915 339.876 197.286 340.277 197.538C340.678 197.791 341.134 197.918 341.645 197.918C342.119 197.918 342.533 197.821 342.885 197.628C343.24 197.435 343.514 197.162 343.707 196.81C343.903 196.455 344.001 196.037 344.001 195.557L344.342 195.621H341.845V194.534H345.276V195.527C345.276 196.26 345.119 196.896 344.807 197.436C344.497 197.973 344.068 198.388 343.52 198.68C342.974 198.973 342.349 199.119 341.645 199.119C340.855 199.119 340.162 198.938 339.565 198.574C338.972 198.21 338.509 197.695 338.176 197.027C337.844 196.357 337.678 195.561 337.678 194.641C337.678 193.945 337.774 193.32 337.967 192.766C338.161 192.212 338.432 191.741 338.781 191.355C339.134 190.966 339.547 190.669 340.021 190.464C340.499 190.257 341.02 190.153 341.585 190.153C342.057 190.153 342.496 190.223 342.902 190.362C343.311 190.501 343.675 190.699 343.993 190.955C344.314 191.21 344.58 191.514 344.79 191.866C345 192.216 345.142 192.604 345.216 193.03H343.865ZM354.528 194.636C354.528 195.568 354.358 196.369 354.017 197.04C353.676 197.707 353.208 198.222 352.615 198.582C352.024 198.94 351.352 199.119 350.599 199.119C349.843 199.119 349.169 198.94 348.575 198.582C347.984 198.222 347.518 197.706 347.177 197.036C346.836 196.365 346.666 195.565 346.666 194.636C346.666 193.705 346.836 192.905 347.177 192.237C347.518 191.567 347.984 191.053 348.575 190.695C349.169 190.334 349.843 190.153 350.599 190.153C351.352 190.153 352.024 190.334 352.615 190.695C353.208 191.053 353.676 191.567 354.017 192.237C354.358 192.905 354.528 193.705 354.528 194.636ZM353.224 194.636C353.224 193.926 353.109 193.328 352.879 192.842C352.652 192.354 352.339 191.984 351.941 191.734C351.547 191.482 351.099 191.355 350.599 191.355C350.096 191.355 349.647 191.482 349.252 191.734C348.858 191.984 348.545 192.354 348.315 192.842C348.088 193.328 347.974 193.926 347.974 194.636C347.974 195.347 348.088 195.946 348.315 196.435C348.545 196.92 348.858 197.29 349.252 197.543C349.647 197.793 350.096 197.918 350.599 197.918C351.099 197.918 351.547 197.793 351.941 197.543C352.339 197.29 352.652 196.92 352.879 196.435C353.109 195.946 353.224 195.347 353.224 194.636ZM363.751 194.636C363.751 195.568 363.58 196.369 363.239 197.04C362.898 197.707 362.431 198.222 361.837 198.582C361.246 198.94 360.575 199.119 359.822 199.119C359.066 199.119 358.391 198.94 357.798 198.582C357.207 198.222 356.741 197.706 356.4 197.036C356.059 196.365 355.888 195.565 355.888 194.636C355.888 193.705 356.059 192.905 356.4 192.237C356.741 191.567 357.207 191.053 357.798 190.695C358.391 190.334 359.066 190.153 359.822 190.153C360.575 190.153 361.246 190.334 361.837 190.695C362.431 191.053 362.898 191.567 363.239 192.237C363.58 192.905 363.751 193.705 363.751 194.636ZM362.447 194.636C362.447 193.926 362.332 193.328 362.102 192.842C361.874 192.354 361.562 191.984 361.164 191.734C360.769 191.482 360.322 191.355 359.822 191.355C359.319 191.355 358.87 191.482 358.475 191.734C358.08 191.984 357.768 192.354 357.538 192.842C357.31 193.328 357.197 193.926 357.197 194.636C357.197 195.347 357.31 195.946 357.538 196.435C357.768 196.92 358.08 197.29 358.475 197.543C358.87 197.793 359.319 197.918 359.822 197.918C360.322 197.918 360.769 197.793 361.164 197.543C361.562 197.29 361.874 196.92 362.102 196.435C362.332 195.946 362.447 195.347 362.447 194.636ZM368.218 199H365.392V190.273H368.307C369.162 190.273 369.897 190.447 370.51 190.797C371.124 191.143 371.594 191.642 371.921 192.293C372.25 192.94 372.415 193.717 372.415 194.624C372.415 195.533 372.249 196.314 371.917 196.967C371.587 197.621 371.11 198.124 370.485 198.476C369.86 198.825 369.104 199 368.218 199ZM366.709 197.849H368.145C368.81 197.849 369.363 197.724 369.803 197.474C370.243 197.222 370.573 196.857 370.792 196.379C371.01 195.899 371.12 195.314 371.12 194.624C371.12 193.939 371.01 193.358 370.792 192.881C370.576 192.403 370.253 192.041 369.824 191.794C369.395 191.547 368.863 191.423 368.226 191.423H366.709V197.849Z" fill="white"/>
</g>
<g filter="url(#filter7_i_1032_13459)">
<g filter="url(#filter8_i_1032_13459)">
<rect width="222" height="50" transform="translate(95 220)" fill="white"/>
<path d="M127 258.6C134.511 258.6 140.6 252.511 140.6 245C140.6 237.489 134.511 231.4 127 231.4C119.489 231.4 113.4 237.489 113.4 245C113.4 252.511 119.489 258.6 127 258.6Z" fill="#4A8CFF"/>
<path d="M118.275 240.742V247.133C118.279 247.827 118.557 248.49 119.05 248.978C119.542 249.466 120.208 249.739 120.901 249.736H130.217C130.343 249.736 130.464 249.687 130.554 249.599C130.643 249.51 130.694 249.39 130.695 249.264V242.873C130.692 242.179 130.413 241.516 129.921 241.028C129.429 240.54 128.763 240.267 128.069 240.27H118.756C118.694 240.269 118.631 240.281 118.573 240.304C118.515 240.328 118.462 240.362 118.418 240.406C118.373 240.45 118.338 240.502 118.313 240.56C118.289 240.618 118.276 240.68 118.275 240.742ZM131.288 243.235L135.134 240.425C135.468 240.149 135.727 240.218 135.727 240.719V249.287C135.727 249.857 135.411 249.788 135.134 249.58L131.288 246.776V243.235Z" fill="white"/>
<path d="M159.895 250V249.105L165.384 240.912H159.835V239.818H166.855V240.713L161.366 248.906H166.915V250H159.895ZM171.926 250.159C171.237 250.159 170.632 249.995 170.112 249.667C169.594 249.339 169.19 248.88 168.898 248.29C168.61 247.7 168.466 247.01 168.466 246.222C168.466 245.426 168.61 244.732 168.898 244.138C169.19 243.545 169.594 243.085 170.112 242.756C170.632 242.428 171.237 242.264 171.926 242.264C172.616 242.264 173.219 242.428 173.736 242.756C174.256 243.085 174.661 243.545 174.949 244.138C175.241 244.732 175.386 245.426 175.386 246.222C175.386 247.01 175.241 247.7 174.949 248.29C174.661 248.88 174.256 249.339 173.736 249.667C173.219 249.995 172.616 250.159 171.926 250.159ZM171.926 249.105C172.45 249.105 172.881 248.971 173.219 248.702C173.557 248.434 173.807 248.081 173.969 247.643C174.132 247.206 174.213 246.732 174.213 246.222C174.213 245.711 174.132 245.236 173.969 244.795C173.807 244.354 173.557 243.998 173.219 243.726C172.881 243.454 172.45 243.318 171.926 243.318C171.402 243.318 170.972 243.454 170.634 243.726C170.295 243.998 170.045 244.354 169.883 244.795C169.72 245.236 169.639 245.711 169.639 246.222C169.639 246.732 169.72 247.206 169.883 247.643C170.045 248.081 170.295 248.434 170.634 248.702C170.972 248.971 171.402 249.105 171.926 249.105ZM180.28 250.159C179.59 250.159 178.985 249.995 178.465 249.667C177.948 249.339 177.544 248.88 177.252 248.29C176.964 247.7 176.819 247.01 176.819 246.222C176.819 245.426 176.964 244.732 177.252 244.138C177.544 243.545 177.948 243.085 178.465 242.756C178.985 242.428 179.59 242.264 180.28 242.264C180.969 242.264 181.572 242.428 182.089 242.756C182.61 243.085 183.014 243.545 183.302 244.138C183.594 244.732 183.74 245.426 183.74 246.222C183.74 247.01 183.594 247.7 183.302 248.29C183.014 248.88 182.61 249.339 182.089 249.667C181.572 249.995 180.969 250.159 180.28 250.159ZM180.28 249.105C180.803 249.105 181.234 248.971 181.572 248.702C181.91 248.434 182.161 248.081 182.323 247.643C182.485 247.206 182.567 246.732 182.567 246.222C182.567 245.711 182.485 245.236 182.323 244.795C182.161 244.354 181.91 243.998 181.572 243.726C181.234 243.454 180.803 243.318 180.28 243.318C179.756 243.318 179.325 243.454 178.987 243.726C178.649 243.998 178.399 244.354 178.236 244.795C178.074 245.236 177.993 245.711 177.993 246.222C177.993 246.732 178.074 247.206 178.236 247.643C178.399 248.081 178.649 248.434 178.987 248.702C179.325 248.971 179.756 249.105 180.28 249.105ZM185.531 250V242.364H186.664V243.557H186.764C186.923 243.149 187.18 242.833 187.534 242.607C187.889 242.379 188.315 242.264 188.812 242.264C189.316 242.264 189.735 242.379 190.07 242.607C190.408 242.833 190.672 243.149 190.86 243.557H190.94C191.136 243.162 191.429 242.849 191.82 242.617C192.211 242.382 192.68 242.264 193.227 242.264C193.91 242.264 194.468 242.478 194.902 242.906C195.337 243.33 195.554 243.991 195.554 244.889V250H194.38V244.889C194.38 244.326 194.226 243.923 193.918 243.681C193.61 243.439 193.247 243.318 192.829 243.318C192.292 243.318 191.876 243.481 191.581 243.805C191.286 244.127 191.139 244.535 191.139 245.028V250H189.946V244.77C189.946 244.336 189.805 243.986 189.523 243.721C189.241 243.452 188.878 243.318 188.434 243.318C188.129 243.318 187.844 243.399 187.579 243.562C187.317 243.724 187.105 243.95 186.943 244.238C186.784 244.523 186.704 244.853 186.704 245.227V250H185.531Z" fill="#171923"/>
</g>
<rect width="130" height="50" transform="translate(317 220)" fill="white"/>
<rect x="333" y="237" width="62" height="16" rx="2" fill="#38A169"/>
<path d="M337.959 249V240.273H341.07C341.749 240.273 342.311 240.396 342.757 240.643C343.203 240.891 343.537 241.229 343.759 241.658C343.98 242.084 344.091 242.564 344.091 243.098C344.091 243.635 343.979 244.118 343.754 244.547C343.533 244.973 343.197 245.311 342.749 245.561C342.303 245.808 341.741 245.932 341.065 245.932H338.926V244.815H340.946C341.375 244.815 341.723 244.741 341.99 244.594C342.257 244.443 342.453 244.239 342.578 243.98C342.703 243.722 342.766 243.428 342.766 243.098C342.766 242.768 342.703 242.476 342.578 242.22C342.453 241.964 342.256 241.764 341.986 241.619C341.719 241.474 341.366 241.402 340.929 241.402H339.276V249H337.959ZM345.635 249V240.273H351.106V241.406H346.951V244.065H350.821V245.195H346.951V247.866H351.157V249H345.635ZM352.865 249V240.273H355.976C356.652 240.273 357.213 240.389 357.659 240.622C358.108 240.855 358.443 241.178 358.665 241.589C358.886 241.999 358.997 242.472 358.997 243.009C358.997 243.543 358.885 244.013 358.661 244.419C358.439 244.822 358.104 245.136 357.655 245.361C357.209 245.585 356.648 245.697 355.972 245.697H353.615V244.564H355.852C356.278 244.564 356.625 244.503 356.892 244.381C357.162 244.259 357.359 244.081 357.484 243.848C357.609 243.615 357.672 243.335 357.672 243.009C357.672 242.679 357.608 242.393 357.48 242.152C357.355 241.911 357.158 241.726 356.888 241.598C356.621 241.467 356.27 241.402 355.835 241.402H354.182V249H352.865ZM357.173 245.062L359.33 249H357.83L355.716 245.062H357.173ZM360.599 249V240.273H366.011V241.406H361.916V244.065H365.624V245.195H361.916V249H360.599ZM367.631 249V240.273H373.102V241.406H368.947V244.065H372.817V245.195H368.947V247.866H373.153V249H367.631ZM382.11 243.111H380.78C380.729 242.827 380.634 242.577 380.495 242.361C380.355 242.145 380.185 241.962 379.983 241.811C379.782 241.661 379.556 241.547 379.306 241.47C379.059 241.393 378.796 241.355 378.517 241.355C378.015 241.355 377.564 241.482 377.167 241.734C376.772 241.987 376.459 242.358 376.229 242.847C376.002 243.335 375.888 243.932 375.888 244.636C375.888 245.347 376.002 245.946 376.229 246.435C376.459 246.923 376.773 247.293 377.171 247.543C377.569 247.793 378.016 247.918 378.513 247.918C378.789 247.918 379.05 247.881 379.297 247.807C379.547 247.73 379.773 247.618 379.975 247.47C380.176 247.322 380.347 247.142 380.486 246.929C380.628 246.713 380.726 246.466 380.78 246.188L382.11 246.192C382.039 246.621 381.901 247.016 381.696 247.376C381.495 247.734 381.235 248.044 380.917 248.305C380.601 248.564 380.24 248.764 379.834 248.906C379.428 249.048 378.985 249.119 378.505 249.119C377.749 249.119 377.076 248.94 376.485 248.582C375.894 248.222 375.428 247.706 375.087 247.036C374.749 246.365 374.58 245.565 374.58 244.636C374.58 243.705 374.75 242.905 375.091 242.237C375.432 241.567 375.898 241.053 376.489 240.695C377.08 240.334 377.752 240.153 378.505 240.153C378.968 240.153 379.4 240.22 379.8 240.354C380.203 240.484 380.566 240.678 380.887 240.933C381.208 241.186 381.473 241.496 381.684 241.862C381.894 242.226 382.036 242.642 382.11 243.111ZM383.255 241.406V240.273H390.009V241.406H387.286V249H385.974V241.406H383.255Z" fill="white"/>
</g>
<g filter="url(#filter9_i_1032_13459)">
<rect width="222" height="50" transform="translate(95 270)" fill="white"/>
<path d="M131.298 292.303C132.908 293.92 134.224 296.569 133.471 298.142C131.456 302.35 116.423 309.731 115.146 308.453C113.87 307.177 121.255 292.138 125.464 290.122C127.038 289.369 129.686 290.685 131.305 292.295C131.303 292.296 131.302 292.299 131.298 292.303Z" fill="#FF8200"/>
<path d="M139.263 290.526C139.002 289.558 138.335 288.579 137.339 288.464C135.512 288.252 132.633 291.481 132.839 292.247C133.045 293.014 137.113 294.365 138.631 293.273C139.414 292.71 139.524 291.494 139.267 290.526H139.263ZM133.61 281.579C134.967 281.947 136.339 282.881 136.501 284.278C136.799 286.839 132.271 290.876 131.196 290.588C130.121 290.3 128.227 284.596 129.758 282.466C130.548 281.368 132.253 281.214 133.612 281.574C133.61 281.574 133.61 281.576 133.61 281.579Z" fill="#43B02A"/>
<path d="M161.466 289.818V300H160.233V289.818H161.466ZM164.952 295.406V300H163.779V292.364H164.912V293.557H165.012C165.191 293.169 165.463 292.857 165.827 292.622C166.192 292.384 166.662 292.264 167.239 292.264C167.756 292.264 168.209 292.37 168.596 292.582C168.984 292.791 169.286 293.109 169.501 293.537C169.717 293.961 169.824 294.498 169.824 295.148V300H168.651V295.227C168.651 294.627 168.495 294.16 168.184 293.825C167.872 293.487 167.445 293.318 166.901 293.318C166.527 293.318 166.192 293.399 165.897 293.562C165.605 293.724 165.375 293.961 165.206 294.273C165.037 294.584 164.952 294.962 164.952 295.406ZM177.377 294.074L176.324 294.372C176.257 294.196 176.159 294.026 176.03 293.86C175.904 293.691 175.732 293.552 175.513 293.442C175.294 293.333 175.014 293.278 174.673 293.278C174.206 293.278 173.816 293.386 173.505 293.602C173.196 293.814 173.042 294.084 173.042 294.412C173.042 294.704 173.148 294.934 173.36 295.103C173.573 295.272 173.904 295.413 174.355 295.526L175.488 295.804C176.171 295.97 176.68 296.223 177.015 296.565C177.349 296.903 177.517 297.339 177.517 297.872C177.517 298.31 177.391 298.701 177.139 299.045C176.89 299.39 176.542 299.662 176.095 299.861C175.647 300.06 175.127 300.159 174.534 300.159C173.755 300.159 173.11 299.99 172.6 299.652C172.089 299.314 171.766 298.82 171.63 298.17L172.744 297.892C172.85 298.303 173.051 298.611 173.346 298.817C173.644 299.022 174.033 299.125 174.514 299.125C175.061 299.125 175.495 299.009 175.816 298.777C176.141 298.542 176.304 298.26 176.304 297.932C176.304 297.667 176.211 297.445 176.025 297.266C175.84 297.083 175.555 296.947 175.17 296.858L173.897 296.56C173.198 296.394 172.684 296.137 172.356 295.789C172.031 295.438 171.869 294.999 171.869 294.472C171.869 294.041 171.99 293.66 172.232 293.328C172.477 292.997 172.81 292.737 173.231 292.548C173.655 292.359 174.136 292.264 174.673 292.264C175.429 292.264 176.022 292.43 176.453 292.761C176.887 293.093 177.195 293.53 177.377 294.074ZM182.604 292.364V293.358H178.646V292.364H182.604ZM179.8 290.534H180.973V297.812C180.973 298.144 181.021 298.393 181.117 298.558C181.217 298.721 181.343 298.83 181.495 298.886C181.651 298.939 181.815 298.966 181.987 298.966C182.117 298.966 182.223 298.959 182.306 298.946C182.388 298.929 182.455 298.916 182.504 298.906L182.743 299.96C182.664 299.99 182.552 300.02 182.41 300.05C182.267 300.083 182.087 300.099 181.868 300.099C181.537 300.099 181.212 300.028 180.894 299.886C180.579 299.743 180.317 299.526 180.108 299.234C179.903 298.943 179.8 298.575 179.8 298.131V290.534ZM186.616 300.179C186.132 300.179 185.693 300.088 185.298 299.906C184.904 299.72 184.591 299.453 184.359 299.105C184.127 298.754 184.011 298.33 184.011 297.832C184.011 297.395 184.097 297.04 184.269 296.768C184.442 296.493 184.672 296.278 184.96 296.122C185.249 295.966 185.567 295.85 185.915 295.774C186.266 295.695 186.619 295.632 186.974 295.585C187.438 295.526 187.814 295.481 188.102 295.451C188.394 295.418 188.606 295.363 188.739 295.287C188.875 295.211 188.943 295.078 188.943 294.889V294.849C188.943 294.359 188.808 293.978 188.54 293.706C188.275 293.434 187.872 293.298 187.332 293.298C186.772 293.298 186.333 293.421 186.014 293.666C185.696 293.911 185.472 294.173 185.343 294.452L184.23 294.054C184.428 293.59 184.694 293.229 185.025 292.97C185.36 292.708 185.724 292.526 186.119 292.423C186.517 292.317 186.908 292.264 187.292 292.264C187.537 292.264 187.819 292.294 188.137 292.354C188.459 292.41 188.769 292.528 189.067 292.707C189.369 292.886 189.619 293.156 189.818 293.517C190.017 293.878 190.116 294.362 190.116 294.969V300H188.943V298.966H188.883C188.803 299.132 188.671 299.309 188.485 299.498C188.3 299.687 188.053 299.848 187.744 299.98C187.436 300.113 187.06 300.179 186.616 300.179ZM186.795 299.125C187.259 299.125 187.65 299.034 187.968 298.852C188.29 298.669 188.532 298.434 188.694 298.146C188.86 297.857 188.943 297.554 188.943 297.236V296.162C188.893 296.222 188.784 296.276 188.615 296.326C188.449 296.372 188.257 296.414 188.038 296.45C187.822 296.483 187.612 296.513 187.406 296.54C187.204 296.563 187.04 296.583 186.914 296.599C186.609 296.639 186.324 296.704 186.059 296.793C185.797 296.879 185.585 297.01 185.423 297.186C185.264 297.358 185.184 297.594 185.184 297.892C185.184 298.3 185.335 298.608 185.637 298.817C185.941 299.022 186.328 299.125 186.795 299.125ZM195.36 300.159C194.644 300.159 194.027 299.99 193.51 299.652C192.993 299.314 192.596 298.848 192.317 298.255C192.039 297.662 191.9 296.984 191.9 296.222C191.9 295.446 192.042 294.762 192.327 294.168C192.615 293.572 193.016 293.106 193.53 292.771C194.047 292.433 194.65 292.264 195.34 292.264C195.877 292.264 196.361 292.364 196.792 292.562C197.222 292.761 197.575 293.04 197.85 293.398C198.126 293.756 198.296 294.173 198.363 294.651H197.189C197.1 294.303 196.901 293.994 196.593 293.726C196.288 293.454 195.877 293.318 195.36 293.318C194.902 293.318 194.501 293.437 194.157 293.676C193.815 293.911 193.548 294.245 193.356 294.675C193.167 295.103 193.073 295.605 193.073 296.182C193.073 296.772 193.166 297.286 193.351 297.723C193.54 298.161 193.805 298.5 194.147 298.742C194.491 298.984 194.896 299.105 195.36 299.105C195.665 299.105 195.941 299.052 196.19 298.946C196.439 298.84 196.649 298.688 196.821 298.489C196.994 298.29 197.116 298.051 197.189 297.773H198.363C198.296 298.223 198.132 298.629 197.87 298.991C197.612 299.349 197.269 299.634 196.841 299.846C196.417 300.055 195.923 300.159 195.36 300.159ZM202.325 300.179C201.841 300.179 201.402 300.088 201.007 299.906C200.613 299.72 200.3 299.453 200.068 299.105C199.836 298.754 199.72 298.33 199.72 297.832C199.72 297.395 199.806 297.04 199.978 296.768C200.151 296.493 200.381 296.278 200.669 296.122C200.958 295.966 201.276 295.85 201.624 295.774C201.975 295.695 202.328 295.632 202.683 295.585C203.147 295.526 203.523 295.481 203.811 295.451C204.103 295.418 204.315 295.363 204.448 295.287C204.584 295.211 204.652 295.078 204.652 294.889V294.849C204.652 294.359 204.517 293.978 204.249 293.706C203.984 293.434 203.581 293.298 203.041 293.298C202.481 293.298 202.042 293.421 201.723 293.666C201.405 293.911 201.181 294.173 201.052 294.452L199.939 294.054C200.137 293.59 200.403 293.229 200.734 292.97C201.069 292.708 201.433 292.526 201.828 292.423C202.225 292.317 202.617 292.264 203.001 292.264C203.246 292.264 203.528 292.294 203.846 292.354C204.168 292.41 204.478 292.528 204.776 292.707C205.078 292.886 205.328 293.156 205.527 293.517C205.725 293.878 205.825 294.362 205.825 294.969V300H204.652V298.966H204.592C204.512 299.132 204.38 299.309 204.194 299.498C204.009 299.687 203.762 299.848 203.453 299.98C203.145 300.113 202.769 300.179 202.325 300.179ZM202.504 299.125C202.968 299.125 203.359 299.034 203.677 298.852C203.999 298.669 204.241 298.434 204.403 298.146C204.569 297.857 204.652 297.554 204.652 297.236V296.162C204.602 296.222 204.493 296.276 204.324 296.326C204.158 296.372 203.966 296.414 203.747 296.45C203.531 296.483 203.321 296.513 203.115 296.54C202.913 296.563 202.749 296.583 202.623 296.599C202.318 296.639 202.033 296.704 201.768 296.793C201.506 296.879 201.294 297.01 201.132 297.186C200.973 297.358 200.893 297.594 200.893 297.892C200.893 298.3 201.044 298.608 201.346 298.817C201.65 299.022 202.037 299.125 202.504 299.125ZM207.966 300V292.364H209.1V293.517H209.18C209.319 293.139 209.571 292.833 209.935 292.597C210.3 292.362 210.711 292.244 211.168 292.244C211.254 292.244 211.362 292.246 211.491 292.249C211.621 292.253 211.718 292.258 211.785 292.264V293.457C211.745 293.447 211.654 293.433 211.511 293.413C211.372 293.389 211.224 293.378 211.069 293.378C210.698 293.378 210.366 293.456 210.074 293.612C209.786 293.764 209.557 293.976 209.388 294.248C209.223 294.516 209.14 294.823 209.14 295.168V300H207.966ZM216.975 292.364V293.358H213.018V292.364H216.975ZM214.171 290.534H215.344V297.812C215.344 298.144 215.392 298.393 215.488 298.558C215.588 298.721 215.714 298.83 215.866 298.886C216.022 298.939 216.186 298.966 216.358 298.966C216.488 298.966 216.594 298.959 216.677 298.946C216.76 298.929 216.826 298.916 216.876 298.906L217.114 299.96C217.035 299.99 216.924 300.02 216.781 300.05C216.639 300.083 216.458 300.099 216.239 300.099C215.908 300.099 215.583 300.028 215.265 299.886C214.95 299.743 214.688 299.526 214.479 299.234C214.274 298.943 214.171 298.575 214.171 298.131V290.534Z" fill="#171923"/>
</g>
<rect width="130" height="50" transform="translate(317 270)" fill="white"/>
<rect x="333" y="287" width="62" height="16" rx="2" fill="#38A169"/>
<path d="M337.959 299V290.273H341.07C341.749 290.273 342.311 290.396 342.757 290.643C343.203 290.891 343.537 291.229 343.759 291.658C343.98 292.084 344.091 292.564 344.091 293.098C344.091 293.635 343.979 294.118 343.754 294.547C343.533 294.973 343.197 295.311 342.749 295.561C342.303 295.808 341.741 295.932 341.065 295.932H338.926V294.815H340.946C341.375 294.815 341.723 294.741 341.99 294.594C342.257 294.443 342.453 294.239 342.578 293.98C342.703 293.722 342.766 293.428 342.766 293.098C342.766 292.768 342.703 292.476 342.578 292.22C342.453 291.964 342.256 291.764 341.986 291.619C341.719 291.474 341.366 291.402 340.929 291.402H339.276V299H337.959ZM345.635 299V290.273H351.106V291.406H346.951V294.065H350.821V295.195H346.951V297.866H351.157V299H345.635ZM352.865 299V290.273H355.976C356.652 290.273 357.213 290.389 357.659 290.622C358.108 290.855 358.443 291.178 358.665 291.589C358.886 291.999 358.997 292.472 358.997 293.009C358.997 293.543 358.885 294.013 358.661 294.419C358.439 294.822 358.104 295.136 357.655 295.361C357.209 295.585 356.648 295.697 355.972 295.697H353.615V294.564H355.852C356.278 294.564 356.625 294.503 356.892 294.381C357.162 294.259 357.359 294.081 357.484 293.848C357.609 293.615 357.672 293.335 357.672 293.009C357.672 292.679 357.608 292.393 357.48 292.152C357.355 291.911 357.158 291.726 356.888 291.598C356.621 291.467 356.27 291.402 355.835 291.402H354.182V299H352.865ZM357.173 295.062L359.33 299H357.83L355.716 295.062H357.173ZM360.599 299V290.273H366.011V291.406H361.916V294.065H365.624V295.195H361.916V299H360.599ZM367.631 299V290.273H373.102V291.406H368.947V294.065H372.817V295.195H368.947V297.866H373.153V299H367.631ZM382.11 293.111H380.78C380.729 292.827 380.634 292.577 380.495 292.361C380.355 292.145 380.185 291.962 379.983 291.811C379.782 291.661 379.556 291.547 379.306 291.47C379.059 291.393 378.796 291.355 378.517 291.355C378.015 291.355 377.564 291.482 377.167 291.734C376.772 291.987 376.459 292.358 376.229 292.847C376.002 293.335 375.888 293.932 375.888 294.636C375.888 295.347 376.002 295.946 376.229 296.435C376.459 296.923 376.773 297.293 377.171 297.543C377.569 297.793 378.016 297.918 378.513 297.918C378.789 297.918 379.05 297.881 379.297 297.807C379.547 297.73 379.773 297.618 379.975 297.47C380.176 297.322 380.347 297.142 380.486 296.929C380.628 296.713 380.726 296.466 380.78 296.188L382.11 296.192C382.039 296.621 381.901 297.016 381.696 297.376C381.495 297.734 381.235 298.044 380.917 298.305C380.601 298.564 380.24 298.764 379.834 298.906C379.428 299.048 378.985 299.119 378.505 299.119C377.749 299.119 377.076 298.94 376.485 298.582C375.894 298.222 375.428 297.706 375.087 297.036C374.749 296.365 374.58 295.565 374.58 294.636C374.58 293.705 374.75 292.905 375.091 292.237C375.432 291.567 375.898 291.053 376.489 290.695C377.08 290.334 377.752 290.153 378.505 290.153C378.968 290.153 379.4 290.22 379.8 290.354C380.203 290.484 380.566 290.678 380.887 290.933C381.208 291.186 381.473 291.496 381.684 291.862C381.894 292.226 382.036 292.642 382.11 293.111ZM383.255 291.406V290.273H390.009V291.406H387.286V299H385.974V291.406H383.255Z" fill="white"/>
</g>
<rect x="95.5" y="92.5" width="345" height="227" rx="5.5" stroke="#D8DFE5" stroke-opacity="0.8" shape-rendering="crispEdges"/>
</g>
<g filter="url(#filter10_dd_1032_13459)">
<rect x="286" y="212" width="210" height="156" rx="6" fill="white"/>
<circle cx="310" cy="240" r="4" fill="#38A169"/>
<path d="M355.203 266.636H356.405L356.411 265.198C359.115 265 360.662 263.453 360.662 261.382C360.662 259.023 358.559 258.109 356.897 257.7L356.43 257.579L356.443 253.475C357.638 253.635 358.457 254.3 358.578 255.348H360.483C360.432 253.398 358.821 251.941 356.45 251.749L356.456 250.273H355.254L355.248 251.762C352.953 251.992 351.272 253.424 351.272 255.489C351.272 257.31 352.576 258.378 354.679 258.947L355.229 259.094L355.216 263.447C353.969 263.293 353.004 262.616 352.902 261.382H350.92C351.042 263.587 352.634 265.006 355.21 265.198L355.203 266.636ZM356.418 263.447L356.43 259.426C357.728 259.784 358.706 260.257 358.706 261.363C358.706 262.482 357.773 263.268 356.418 263.447ZM355.235 257.259C354.283 256.978 353.234 256.473 353.241 255.374C353.241 254.415 354.001 253.667 355.241 253.482L355.235 257.259ZM367.81 251.909H365.886L362.619 254.044V255.936L365.752 253.891H365.828V265H367.81V251.909ZM375.909 265.179C378.58 265.179 380.543 263.581 380.536 261.408C380.543 259.752 379.539 258.563 377.801 258.295V258.192C379.169 257.841 380.057 256.767 380.051 255.297C380.057 253.373 378.478 251.73 375.96 251.73C373.556 251.73 371.626 253.181 371.562 255.31H373.473C373.518 254.108 374.649 253.379 375.934 253.379C377.27 253.379 378.146 254.191 378.139 255.399C378.146 256.665 377.129 257.496 375.678 257.496H374.573V259.107H375.678C377.494 259.107 378.542 260.027 378.542 261.344C378.542 262.616 377.436 263.479 375.896 263.479C374.477 263.479 373.371 262.75 373.294 261.587H371.287C371.37 263.722 373.262 265.179 375.909 265.179ZM387.376 265.179C390.099 265.179 392.023 263.632 392.036 261.51C392.023 259.861 390.866 258.474 389.402 258.212V258.135C390.674 257.828 391.537 256.633 391.55 255.22C391.537 253.219 389.773 251.73 387.376 251.73C384.953 251.73 383.189 253.219 383.202 255.22C383.189 256.626 384.052 257.828 385.35 258.135V258.212C383.86 258.474 382.703 259.861 382.716 261.51C382.703 263.632 384.627 265.179 387.376 265.179ZM387.376 263.562C385.74 263.562 384.704 262.692 384.717 261.382C384.704 260.021 385.829 259.049 387.376 259.049C388.897 259.049 390.022 260.021 390.035 261.382C390.022 262.692 388.993 263.562 387.376 263.562ZM387.376 257.47C386.053 257.47 385.113 256.633 385.126 255.386C385.113 254.159 386.021 253.347 387.376 253.347C388.705 253.347 389.613 254.159 389.626 255.386C389.613 256.633 388.68 257.47 387.376 257.47ZM396.433 263.21H394.593L394.529 263.926C394.382 265.658 393.972 267.403 393.8 268.196H395.155C395.462 267.359 396.139 265.441 396.338 263.907L396.433 263.21ZM403.217 265.179C405.85 265.179 407.73 263.319 407.723 260.768C407.73 258.237 405.966 256.396 403.581 256.396C402.61 256.396 401.708 256.767 401.197 257.266H401.12L401.536 253.603H407.091V251.909H399.893L399.158 258.506L400.967 258.774C401.459 258.333 402.341 258.033 403.134 258.033C404.687 258.045 405.812 259.209 405.812 260.807C405.812 262.379 404.719 263.517 403.217 263.517C401.951 263.517 400.948 262.712 400.846 261.587H398.928C399.005 263.67 400.814 265.179 403.217 265.179ZM414.628 265.179C417.364 265.205 419.18 263.236 419.173 260.724C419.18 258.218 417.358 256.422 415.089 256.422C413.708 256.422 412.513 257.087 411.841 258.192H411.746C411.752 255.22 412.877 253.456 414.795 253.456C416.054 253.456 416.846 254.223 417.115 255.31H419.064C418.764 253.239 417.134 251.73 414.795 251.73C411.752 251.73 409.854 254.344 409.854 258.896C409.847 263.715 412.302 265.16 414.628 265.179ZM414.622 263.517C413.101 263.517 411.988 262.239 411.988 260.768C411.995 259.305 413.158 258.026 414.667 258.026C416.162 258.026 417.262 259.234 417.256 260.749C417.262 262.296 416.118 263.517 414.622 263.517ZM426.059 265.217C429.082 265.217 430.853 262.75 430.853 258.461C430.853 254.204 429.057 251.73 426.059 251.73C423.055 251.73 421.265 254.197 421.259 258.461C421.259 262.744 423.029 265.211 426.059 265.217ZM426.059 263.511C424.288 263.511 423.221 261.734 423.221 258.461C423.227 255.201 424.295 253.405 426.059 253.405C427.817 253.405 428.891 255.201 428.891 258.461C428.891 261.734 427.823 263.511 426.059 263.511Z" fill="#171923"/>
<path d="M338.491 286.705C338.491 289.21 339.168 291.298 340.381 293.068H341.415C340.46 291.756 339.705 289.071 339.705 286.705C339.705 284.338 340.46 281.653 341.415 280.341H340.381C339.168 282.111 338.491 284.199 338.491 286.705ZM343.305 291H344.439V289.827H344.578C344.836 290.244 345.334 291.159 346.805 291.159C348.714 291.159 350.047 289.628 350.047 287.202C350.047 284.795 348.714 283.264 346.785 283.264C345.294 283.264 344.836 284.179 344.578 284.577H344.479V280.818H343.305V291ZM344.459 287.182C344.459 285.472 345.214 284.318 346.646 284.318C348.138 284.318 348.873 285.571 348.873 287.182C348.873 288.812 348.118 290.105 346.646 290.105C345.234 290.105 344.459 288.912 344.459 287.182ZM355.043 291.159C356.594 291.159 357.728 290.384 358.086 289.23L356.952 288.912C356.654 289.707 355.963 290.105 355.043 290.105C353.666 290.105 352.716 289.215 352.662 287.58H358.205V287.082C358.205 284.239 356.515 283.264 354.924 283.264C352.856 283.264 351.483 284.895 351.483 287.241C351.483 289.588 352.836 291.159 355.043 291.159ZM352.662 286.565C352.741 285.377 353.581 284.318 354.924 284.318C356.197 284.318 357.012 285.273 357.012 286.565H352.662ZM363.311 283.364H361.68V281.534H360.507V283.364H359.354V284.358H360.507V289.131C360.507 290.463 361.581 291.099 362.575 291.099C363.013 291.099 363.291 291.02 363.45 290.96L363.211 289.906C363.112 289.926 362.953 289.966 362.694 289.966C362.177 289.966 361.68 289.807 361.68 288.812V284.358H363.311V283.364ZM368.397 283.364H366.766V281.534H365.593V283.364H364.439V284.358H365.593V289.131C365.593 290.463 366.667 291.099 367.661 291.099C368.099 291.099 368.377 291.02 368.536 290.96L368.297 289.906C368.198 289.926 368.039 289.966 367.78 289.966C367.263 289.966 366.766 289.807 366.766 288.812V284.358H368.397V283.364ZM373.281 291.159C374.833 291.159 375.966 290.384 376.324 289.23L375.191 288.912C374.892 289.707 374.201 290.105 373.281 290.105C371.904 290.105 370.955 289.215 370.9 287.58H376.443V287.082C376.443 284.239 374.753 283.264 373.162 283.264C371.094 283.264 369.722 284.895 369.722 287.241C369.722 289.588 371.074 291.159 373.281 291.159ZM370.9 286.565C370.98 285.377 371.82 284.318 373.162 284.318C374.435 284.318 375.25 285.273 375.25 286.565H370.9ZM378.228 291H379.401V286.168C379.401 285.134 380.217 284.378 381.33 284.378C381.644 284.378 381.967 284.438 382.046 284.457V283.264C381.912 283.254 381.604 283.244 381.43 283.244C380.515 283.244 379.72 283.761 379.441 284.517H379.362V283.364H378.228V291ZM390.696 283.364H389.065V281.534H387.892V283.364H386.738V284.358H387.892V289.131C387.892 290.463 388.966 291.099 389.96 291.099C390.397 291.099 390.676 291.02 390.835 290.96L390.596 289.906C390.497 289.926 390.338 289.966 390.079 289.966C389.562 289.966 389.065 289.807 389.065 288.812V284.358H390.696V283.364ZM393.798 286.406C393.798 285.074 394.648 284.318 395.806 284.318C396.91 284.318 397.576 285.014 397.576 286.227V291H398.75V286.148C398.75 284.184 397.706 283.264 396.145 283.264C394.941 283.264 394.255 283.766 393.897 284.557H393.798V280.818H392.625V291H393.798V286.406ZM403.143 291.179C404.476 291.179 405.172 290.463 405.41 289.966H405.47V291H406.643V285.969C406.643 283.543 404.794 283.264 403.819 283.264C402.666 283.264 401.354 283.662 400.757 285.054L401.871 285.452C402.129 284.895 402.741 284.298 403.859 284.298C404.938 284.298 405.47 284.87 405.47 285.849V285.889C405.47 286.456 404.893 286.406 403.501 286.585C402.084 286.769 400.538 287.082 400.538 288.832C400.538 290.324 401.692 291.179 403.143 291.179ZM403.322 290.125C402.388 290.125 401.711 289.707 401.711 288.892C401.711 287.997 402.527 287.719 403.442 287.599C403.939 287.54 405.271 287.401 405.47 287.162V288.236C405.47 289.19 404.714 290.125 403.322 290.125ZM409.958 286.406C409.958 285.074 410.783 284.318 411.907 284.318C412.996 284.318 413.657 285.029 413.657 286.227V291H414.83V286.148C414.83 284.199 413.791 283.264 412.245 283.264C411.092 283.264 410.376 283.781 410.018 284.557H409.918V283.364H408.785V291H409.958V286.406ZM424.074 291.139C426.013 291.139 427.434 289.707 427.434 287.759C427.434 285.785 426.062 284.338 424.193 284.338C423.507 284.338 422.841 284.582 422.423 284.915H422.363L422.721 281.912H426.977V280.818H421.687L421.071 285.83L422.224 285.969C422.647 285.665 423.368 285.447 423.994 285.452C425.292 285.462 426.241 286.446 426.241 287.778C426.241 289.086 425.327 290.045 424.074 290.045C423.03 290.045 422.199 289.374 422.105 288.455H420.912C420.986 290.006 422.324 291.139 424.074 291.139ZM434.6 289.091C434.6 290.205 435.296 291.139 436.588 291.139C437.861 291.139 438.557 290.205 438.557 289.091V288.554C438.557 287.44 437.881 286.506 436.588 286.506C435.316 286.506 434.6 287.44 434.6 288.554V289.091ZM429.529 283.264C429.529 284.378 430.225 285.312 431.517 285.312C432.79 285.312 433.486 284.378 433.486 283.264V282.727C433.486 281.614 432.81 280.679 431.517 280.679C430.245 280.679 429.529 281.614 429.529 282.727V283.264ZM429.907 291H431.04L438.04 280.818H436.907L429.907 291ZM435.614 288.554C435.614 287.938 435.892 287.361 436.588 287.361C437.304 287.361 437.543 287.938 437.543 288.554V289.091C437.543 289.707 437.284 290.284 436.588 290.284C435.873 290.284 435.614 289.707 435.614 289.091V288.554ZM430.543 282.727C430.543 282.111 430.821 281.534 431.517 281.534C432.233 281.534 432.472 282.111 432.472 282.727V283.264C432.472 283.881 432.213 284.457 431.517 284.457C430.801 284.457 430.543 283.881 430.543 283.264V282.727ZM443.31 285.909C443.31 283.403 442.634 281.315 441.421 279.545H440.387C441.341 280.858 442.097 283.543 442.097 285.909C442.097 288.276 441.341 290.96 440.387 292.273H441.421C442.634 290.503 443.31 288.415 443.31 285.909Z" fill="#2D3748"/>
<path d="M306 344L316.625 343.514L327.25 340.405L337.875 340.308L348.5 336.713L359.125 332.633L369.75 334.187L380.375 325.638L391 330.301L401.625 324.861L412.25 323.889L422.875 317.865L433.5 320.586L444.125 311.648L454.75 313.591L465.375 311.648L474.277 307" stroke="#B794F4" stroke-width="2"/>
<circle cx="473" cy="307" r="3" fill="#6B46C1"/>
<rect x="286.5" y="212.5" width="209" height="155" rx="5.5" stroke="#D8DFE5" stroke-opacity="0.8"/>
</g>
<defs>
<filter id="filter0_dd_1032_13459" x="81" y="86" width="374" height="256" filterUnits="userSpaceOnUse" color-interpolation-filters="sRGB">
<feFlood flood-opacity="0" result="BackgroundImageFix"/>
<feColorMatrix in="SourceAlpha" type="matrix" values="0 0 0 0 0 0 0 0 0 0 0 0 0 0 0 0 0 0 127 0" result="hardAlpha"/>
<feOffset dy="8"/>
<feGaussianBlur stdDeviation="7"/>
<feComposite in2="hardAlpha" operator="out"/>
<feColorMatrix type="matrix" values="0 0 0 0 0 0 0 0 0 0 0 0 0 0 0 0 0 0 0.08 0"/>
<feBlend mode="normal" in2="BackgroundImageFix" result="effect1_dropShadow_1032_13459"/>
<feColorMatrix in="SourceAlpha" type="matrix" values="0 0 0 0 0 0 0 0 0 0 0 0 0 0 0 0 0 0 127 0" result="hardAlpha"/>
<feOffset dy="2"/>
<feGaussianBlur stdDeviation="0.5"/>
<feComposite in2="hardAlpha" operator="out"/>
<feColorMatrix type="matrix" values="0 0 0 0 0 0 0 0 0 0 0 0 0 0 0 0 0 0 0.06 0"/>
<feBlend mode="normal" in2="effect1_dropShadow_1032_13459" result="effect2_dropShadow_1032_13459"/>
<feBlend mode="normal" in="SourceGraphic" in2="effect2_dropShadow_1032_13459" result="shape"/>
</filter>
<filter id="filter1_i_1032_13459" x="95" y="92" width="352" height="28" filterUnits="userSpaceOnUse" color-interpolation-filters="sRGB">
<feFlood flood-opacity="0" result="BackgroundImageFix"/>
<feBlend mode="normal" in="SourceGraphic" in2="BackgroundImageFix" result="shape"/>
<feColorMatrix in="SourceAlpha" type="matrix" values="0 0 0 0 0 0 0 0 0 0 0 0 0 0 0 0 0 0 127 0" result="hardAlpha"/>
<feOffset dy="-1"/>
<feComposite in2="hardAlpha" operator="arithmetic" k2="-1" k3="1"/>
<feColorMatrix type="matrix" values="0 0 0 0 0.796078 0 0 0 0 0.835294 0 0 0 0 0.878431 0 0 0 1 0"/>
<feBlend mode="normal" in2="shape" result="effect1_innerShadow_1032_13459"/>
</filter>
<filter id="filter2_i_1032_13459" x="95" y="92" width="222" height="28" filterUnits="userSpaceOnUse" color-interpolation-filters="sRGB">
<feFlood flood-opacity="0" result="BackgroundImageFix"/>
<feBlend mode="normal" in="SourceGraphic" in2="BackgroundImageFix" result="shape"/>
<feColorMatrix in="SourceAlpha" type="matrix" values="0 0 0 0 0 0 0 0 0 0 0 0 0 0 0 0 0 0 127 0" result="hardAlpha"/>
<feOffset dx="-1"/>
<feComposite in2="hardAlpha" operator="arithmetic" k2="-1" k3="1"/>
<feColorMatrix type="matrix" values="0 0 0 0 0.796078 0 0 0 0 0.835294 0 0 0 0 0.878431 0 0 0 1 0"/>
<feBlend mode="normal" in2="shape" result="effect1_innerShadow_1032_13459"/>
</filter>
<filter id="filter3_i_1032_13459" x="95" y="120" width="352" height="50" filterUnits="userSpaceOnUse" color-interpolation-filters="sRGB">
<feFlood flood-opacity="0" result="BackgroundImageFix"/>
<feBlend mode="normal" in="SourceGraphic" in2="BackgroundImageFix" result="shape"/>
<feColorMatrix in="SourceAlpha" type="matrix" values="0 0 0 0 0 0 0 0 0 0 0 0 0 0 0 0 0 0 127 0" result="hardAlpha"/>
<feOffset dy="-1"/>
<feComposite in2="hardAlpha" operator="arithmetic" k2="-1" k3="1"/>
<feColorMatrix type="matrix" values="0 0 0 0 0.796078 0 0 0 0 0.835294 0 0 0 0 0.878431 0 0 0 1 0"/>
<feBlend mode="normal" in2="shape" result="effect1_innerShadow_1032_13459"/>
</filter>
<filter id="filter4_i_1032_13459" x="95" y="120" width="222" height="50" filterUnits="userSpaceOnUse" color-interpolation-filters="sRGB">
<feFlood flood-opacity="0" result="BackgroundImageFix"/>
<feBlend mode="normal" in="SourceGraphic" in2="BackgroundImageFix" result="shape"/>
<feColorMatrix in="SourceAlpha" type="matrix" values="0 0 0 0 0 0 0 0 0 0 0 0 0 0 0 0 0 0 127 0" result="hardAlpha"/>
<feOffset dx="-1"/>
<feComposite in2="hardAlpha" operator="arithmetic" k2="-1" k3="1"/>
<feColorMatrix type="matrix" values="0 0 0 0 0.796078 0 0 0 0 0.835294 0 0 0 0 0.878431 0 0 0 1 0"/>
<feBlend mode="normal" in2="shape" result="effect1_innerShadow_1032_13459"/>
</filter>
<filter id="filter5_i_1032_13459" x="95" y="170" width="352" height="50" filterUnits="userSpaceOnUse" color-interpolation-filters="sRGB">
<feFlood flood-opacity="0" result="BackgroundImageFix"/>
<feBlend mode="normal" in="SourceGraphic" in2="BackgroundImageFix" result="shape"/>
<feColorMatrix in="SourceAlpha" type="matrix" values="0 0 0 0 0 0 0 0 0 0 0 0 0 0 0 0 0 0 127 0" result="hardAlpha"/>
<feOffset dy="-1"/>
<feComposite in2="hardAlpha" operator="arithmetic" k2="-1" k3="1"/>
<feColorMatrix type="matrix" values="0 0 0 0 0.796078 0 0 0 0 0.835294 0 0 0 0 0.878431 0 0 0 1 0"/>
<feBlend mode="normal" in2="shape" result="effect1_innerShadow_1032_13459"/>
</filter>
<filter id="filter6_i_1032_13459" x="95" y="170" width="222" height="50" filterUnits="userSpaceOnUse" color-interpolation-filters="sRGB">
<feFlood flood-opacity="0" result="BackgroundImageFix"/>
<feBlend mode="normal" in="SourceGraphic" in2="BackgroundImageFix" result="shape"/>
<feColorMatrix in="SourceAlpha" type="matrix" values="0 0 0 0 0 0 0 0 0 0 0 0 0 0 0 0 0 0 127 0" result="hardAlpha"/>
<feOffset dx="-1"/>
<feComposite in2="hardAlpha" operator="arithmetic" k2="-1" k3="1"/>
<feColorMatrix type="matrix" values="0 0 0 0 0.796078 0 0 0 0 0.835294 0 0 0 0 0.878431 0 0 0 1 0"/>
<feBlend mode="normal" in2="shape" result="effect1_innerShadow_1032_13459"/>
</filter>
<filter id="filter7_i_1032_13459" x="95" y="220" width="352" height="50" filterUnits="userSpaceOnUse" color-interpolation-filters="sRGB">
<feFlood flood-opacity="0" result="BackgroundImageFix"/>
<feBlend mode="normal" in="SourceGraphic" in2="BackgroundImageFix" result="shape"/>
<feColorMatrix in="SourceAlpha" type="matrix" values="0 0 0 0 0 0 0 0 0 0 0 0 0 0 0 0 0 0 127 0" result="hardAlpha"/>
<feOffset dy="-1"/>
<feComposite in2="hardAlpha" operator="arithmetic" k2="-1" k3="1"/>
<feColorMatrix type="matrix" values="0 0 0 0 0.796078 0 0 0 0 0.835294 0 0 0 0 0.878431 0 0 0 1 0"/>
<feBlend mode="normal" in2="shape" result="effect1_innerShadow_1032_13459"/>
</filter>
<filter id="filter8_i_1032_13459" x="95" y="220" width="222" height="50" filterUnits="userSpaceOnUse" color-interpolation-filters="sRGB">
<feFlood flood-opacity="0" result="BackgroundImageFix"/>
<feBlend mode="normal" in="SourceGraphic" in2="BackgroundImageFix" result="shape"/>
<feColorMatrix in="SourceAlpha" type="matrix" values="0 0 0 0 0 0 0 0 0 0 0 0 0 0 0 0 0 0 127 0" result="hardAlpha"/>
<feOffset dx="-1"/>
<feComposite in2="hardAlpha" operator="arithmetic" k2="-1" k3="1"/>
<feColorMatrix type="matrix" values="0 0 0 0 0.796078 0 0 0 0 0.835294 0 0 0 0 0.878431 0 0 0 1 0"/>
<feBlend mode="normal" in2="shape" result="effect1_innerShadow_1032_13459"/>
</filter>
<filter id="filter9_i_1032_13459" x="95" y="270" width="222" height="50" filterUnits="userSpaceOnUse" color-interpolation-filters="sRGB">
<feFlood flood-opacity="0" result="BackgroundImageFix"/>
<feBlend mode="normal" in="SourceGraphic" in2="BackgroundImageFix" result="shape"/>
<feColorMatrix in="SourceAlpha" type="matrix" values="0 0 0 0 0 0 0 0 0 0 0 0 0 0 0 0 0 0 127 0" result="hardAlpha"/>
<feOffset dx="-1"/>
<feComposite in2="hardAlpha" operator="arithmetic" k2="-1" k3="1"/>
<feColorMatrix type="matrix" values="0 0 0 0 0.796078 0 0 0 0 0.835294 0 0 0 0 0.878431 0 0 0 1 0"/>
<feBlend mode="normal" in2="shape" result="effect1_innerShadow_1032_13459"/>
</filter>
<filter id="filter10_dd_1032_13459" x="272" y="206" width="238" height="184" filterUnits="userSpaceOnUse" color-interpolation-filters="sRGB">
<feFlood flood-opacity="0" result="BackgroundImageFix"/>
<feColorMatrix in="SourceAlpha" type="matrix" values="0 0 0 0 0 0 0 0 0 0 0 0 0 0 0 0 0 0 127 0" result="hardAlpha"/>
<feOffset dy="8"/>
<feGaussianBlur stdDeviation="7"/>
<feComposite in2="hardAlpha" operator="out"/>
<feColorMatrix type="matrix" values="0 0 0 0 0 0 0 0 0 0 0 0 0 0 0 0 0 0 0.08 0"/>
<feBlend mode="normal" in2="BackgroundImageFix" result="effect1_dropShadow_1032_13459"/>
<feColorMatrix in="SourceAlpha" type="matrix" values="0 0 0 0 0 0 0 0 0 0 0 0 0 0 0 0 0 0 127 0" result="hardAlpha"/>
<feOffset dy="2"/>
<feGaussianBlur stdDeviation="0.5"/>
<feComposite in2="hardAlpha" operator="out"/>
<feColorMatrix type="matrix" values="0 0 0 0 0 0 0 0 0 0 0 0 0 0 0 0 0 0 0.06 0"/>
<feBlend mode="normal" in2="effect1_dropShadow_1032_13459" result="effect2_dropShadow_1032_13459"/>
<feBlend mode="normal" in="SourceGraphic" in2="effect2_dropShadow_1032_13459" result="shape"/>
</filter>
<clipPath id="clip0_1032_13459">
<rect x="95" y="92" width="346" height="228" rx="6" fill="white"/>
</clipPath>
</defs>
</svg>
