<svg viewBox="0 0 327 280" fill="none" xmlns="http://www.w3.org/2000/svg">
<g filter="url(#filter0_dd_1043_25100)">
<mask id="mask0_1043_25100" style="mask-type:luminance" maskUnits="userSpaceOnUse" x="57" y="55" width="213" height="140">
<path d="M265.382 55.4922H61.6175C59.5959 55.4922 57.9571 57.131 57.9571 59.1526V190.929C57.9571 192.95 59.5959 194.589 61.6175 194.589H265.382C267.404 194.589 269.043 192.95 269.043 190.929V59.1526C269.043 57.131 267.404 55.4922 265.382 55.4922Z" fill="white"/>
</mask>
<g mask="url(#mask0_1043_25100)">
<g filter="url(#filter1_d_1043_25100)">
<g filter="url(#filter2_d_1043_25100)">
<path d="M193.394 55.4922H57.9571V72.5743H193.394V55.4922Z" fill="#EDF2F7"/>
<path d="M73.4145 60.8711V67.0829H72.5531L69.3954 62.5274H69.338V67.0829H68.4009V60.8711H69.2679L72.4287 65.4326H72.486V60.8711H73.4145ZM76.0647 67.186C75.7694 67.186 75.5022 67.1317 75.2637 67.0225C75.0251 66.9108 74.836 66.7504 74.6963 66.5399C74.559 66.3294 74.4901 66.072 74.4901 65.7663C74.4901 65.5034 74.5407 65.2874 74.642 65.1172C74.7433 64.9476 74.8793 64.8134 75.0514 64.714C75.2234 64.6151 75.4156 64.5401 75.6279 64.4894C75.8402 64.4388 76.0562 64.4004 76.277 64.3741C76.5558 64.3418 76.7821 64.3156 76.956 64.2954C77.1299 64.2735 77.2562 64.2381 77.3355 64.1893C77.4142 64.1411 77.4538 64.0618 77.4538 63.9526V63.9318C77.4538 63.6665 77.3788 63.4615 77.2293 63.3157C77.0817 63.1705 76.8608 63.0973 76.568 63.0973C76.2624 63.0973 76.022 63.165 75.8463 63.3004C75.6724 63.434 75.5516 63.5829 75.4851 63.7464L74.6329 63.5524C74.7341 63.2693 74.8818 63.0411 75.0758 62.8666C75.2716 62.6909 75.4973 62.5634 75.7523 62.4847C76.0067 62.4036 76.2746 62.3633 76.5558 62.3633C76.7419 62.3633 76.9389 62.3859 77.147 62.4304C77.3574 62.4725 77.5539 62.5512 77.7357 62.6665C77.9199 62.7818 78.07 62.9466 78.1878 63.1613C78.3049 63.3736 78.3635 63.6494 78.3635 63.9892V67.0829H77.4776V66.446H77.4416C77.3831 66.5631 77.2946 66.6784 77.1775 66.7919C77.0603 66.9047 76.9096 66.9987 76.7254 67.0737C76.5418 67.1488 76.3215 67.186 76.0647 67.186ZM76.2617 66.4582C76.5125 66.4582 76.7266 66.4087 76.9048 66.3093C77.0847 66.2105 77.2208 66.0811 77.3141 65.9213C77.4093 65.7596 77.4569 65.5864 77.4569 65.4027V64.8018C77.4246 64.8341 77.3617 64.8646 77.2684 64.8933C77.1775 64.9195 77.0731 64.9427 76.956 64.9629C76.8389 64.9812 76.7248 64.9982 76.6132 65.0141C76.5021 65.0288 76.4094 65.0403 76.3343 65.0507C76.1586 65.0727 75.9976 65.1105 75.8524 65.163C75.7084 65.2154 75.5931 65.2911 75.5065 65.3905C75.4217 65.4875 75.379 65.6169 75.379 65.7785C75.379 66.003 75.4619 66.1733 75.6279 66.2879C75.7932 66.4014 76.0049 66.4582 76.2617 66.4582ZM79.5714 67.0829V62.4243H80.442V63.1827H80.4993C80.5963 62.9258 80.7556 62.7251 80.9758 62.5817C81.196 62.4365 81.4602 62.3633 81.7671 62.3633C82.0788 62.3633 82.3393 62.4365 82.5498 62.5817C82.7621 62.7276 82.9189 62.9277 83.0202 63.1827H83.0683C83.18 62.9338 83.3569 62.7355 83.5991 62.5878C83.8419 62.4384 84.1311 62.3633 84.4666 62.3633C84.8894 62.3633 85.2341 62.4957 85.5007 62.7605C85.7698 63.0259 85.9046 63.4249 85.9046 63.9587V67.0829H84.9974V64.0435C84.9974 63.7281 84.9114 63.4999 84.74 63.3584C84.5679 63.2168 84.3623 63.1461 84.1238 63.1461C83.8285 63.1461 83.5991 63.237 83.4356 63.4188C83.2715 63.5987 83.1898 63.8306 83.1898 64.1136V67.0829H82.2862V63.9861C82.2862 63.7336 82.2069 63.5304 82.0495 63.3767C81.8915 63.2229 81.6865 63.1461 81.434 63.1461C81.2619 63.1461 81.1033 63.1912 80.9575 63.2827C80.8141 63.3712 80.6976 63.4956 80.6085 63.6555C80.5219 63.8153 80.478 64.0002 80.478 64.2106V67.0829H79.5714ZM89.1276 67.1768C88.6688 67.1768 88.2735 67.0786 87.9416 66.8828C87.6122 66.6845 87.3572 66.4063 87.1772 66.0488C86.9997 65.6889 86.9106 65.2673 86.9106 64.7841C86.9106 64.3064 86.9997 63.8861 87.1772 63.5219C87.3572 63.1583 87.6079 62.874 87.9294 62.6696C88.2534 62.4658 88.6316 62.3633 89.0642 62.3633C89.3271 62.3633 89.5815 62.4066 89.8286 62.4939C90.0751 62.5811 90.2965 62.7172 90.4924 62.9033C90.6888 63.0893 90.8431 63.3309 90.9566 63.628C91.0701 63.9233 91.1262 64.2826 91.1262 64.7048V65.0263H87.4231V64.3473H90.2379C90.2379 64.1088 90.1891 63.8971 90.0921 63.7134C89.9951 63.5274 89.8585 63.3803 89.6828 63.2736C89.5089 63.1662 89.3045 63.1125 89.0703 63.1125C88.8153 63.1125 88.5932 63.1753 88.4028 63.3004C88.2149 63.4243 88.0691 63.5859 87.966 63.786C87.8648 63.9843 87.8147 64.1997 87.8147 64.4321V64.9629C87.8147 65.274 87.869 65.5388 87.9782 65.7572C88.0893 65.9756 88.2442 66.1427 88.4425 66.2581C88.6402 66.3709 88.872 66.4277 89.1368 66.4277C89.3088 66.4277 89.4656 66.4032 89.6071 66.3551C89.7487 66.3044 89.8707 66.2294 89.9738 66.1305C90.0769 66.0317 90.1562 65.9091 90.2105 65.7633L91.0689 65.9182C90.9999 66.1708 90.8767 66.3923 90.6992 66.5826C90.5229 66.7705 90.3014 66.9169 90.0348 67.0225C89.77 67.1256 89.4674 67.1768 89.1276 67.1768Z" fill="#171923"/>
</g>
<path d="M272.703 55.4922H193.394V72.5743H272.703V55.4922Z" fill="#EDF2F7"/>
<path d="M208.996 62.891H208.05C208.014 62.6891 207.946 62.511 207.847 62.3572C207.748 62.2035 207.627 62.0735 207.483 61.9662C207.339 61.8588 207.179 61.7783 207.001 61.7234C206.825 61.6691 206.638 61.6416 206.44 61.6416C206.082 61.6416 205.761 61.7313 205.478 61.9113C205.197 62.0912 204.975 62.3554 204.811 62.7031C204.649 63.0509 204.568 63.4755 204.568 63.977C204.568 64.4827 204.649 64.9092 204.811 65.2569C204.975 65.6047 205.198 65.8676 205.481 66.0457C205.764 66.2233 206.083 66.3123 206.436 66.3123C206.633 66.3123 206.819 66.2861 206.995 66.2336C207.173 66.1787 207.333 66.0994 207.477 65.9939C207.621 65.8889 207.742 65.7602 207.841 65.6089C207.942 65.4552 208.012 65.2795 208.05 65.0812L208.996 65.0843C208.946 65.3893 208.848 65.6705 208.702 65.9274C208.559 66.1818 208.373 66.4026 208.147 66.5887C207.923 66.7723 207.666 66.9151 207.377 67.0164C207.087 67.117 206.772 67.1677 206.43 67.1677C205.893 67.1677 205.413 67.0402 204.993 66.7858C204.572 66.5289 204.241 66.1616 203.998 65.6846C203.758 65.2075 203.637 64.6383 203.637 63.977C203.637 63.3138 203.758 62.7446 204.001 62.2694C204.244 61.7923 204.575 61.4262 204.996 61.1712C205.416 60.9144 205.895 60.7863 206.43 60.7863C206.76 60.7863 207.067 60.8339 207.353 60.929C207.64 61.0218 207.898 61.159 208.126 61.3414C208.355 61.5214 208.544 61.7417 208.693 62.0028C208.843 62.2614 208.944 62.5573 208.996 62.891ZM212.997 65.1508V62.4243H213.906V67.0829H213.014V66.2763H212.966C212.859 66.5246 212.687 66.7321 212.451 66.898C212.216 67.0615 211.923 67.1433 211.574 67.1433C211.274 67.1433 211.01 67.078 210.779 66.9462C210.551 66.8132 210.371 66.6155 210.239 66.355C210.11 66.0939 210.045 65.7718 210.045 65.3875V62.4243H210.952V65.2783C210.952 65.5955 211.04 65.8487 211.216 66.0366C211.392 66.2245 211.62 66.3184 211.902 66.3184C212.071 66.3184 212.24 66.2763 212.408 66.1909C212.577 66.1061 212.718 65.978 212.829 65.806C212.943 65.6339 212.998 65.4155 212.997 65.1508ZM218.616 63.5615L217.794 63.7073C217.759 63.6018 217.705 63.5017 217.63 63.4066C217.558 63.312 217.458 63.2339 217.333 63.1735C217.207 63.1125 217.051 63.082 216.863 63.082C216.606 63.082 216.392 63.1399 216.22 63.2553C216.048 63.3681 215.962 63.5151 215.962 63.6951C215.962 63.8507 216.02 63.9758 216.135 64.0709C216.25 64.1661 216.436 64.2442 216.693 64.3046L217.433 64.4742C217.861 64.5736 218.181 64.7261 218.391 64.9323C218.601 65.1386 218.707 65.4064 218.707 65.7364C218.707 66.0152 218.626 66.2641 218.464 66.4825C218.304 66.6985 218.081 66.8687 217.794 66.992C217.509 67.1152 217.178 67.1768 216.802 67.1768C216.281 67.1768 215.855 67.0658 215.525 66.8431C215.195 66.6186 214.993 66.3001 214.918 65.8877L215.795 65.7541C215.85 65.9829 215.962 66.1555 216.132 66.2733C216.301 66.3886 216.523 66.4459 216.796 66.4459C217.093 66.4459 217.331 66.3843 217.509 66.2611C217.687 66.1354 217.776 65.9829 217.776 65.8029C217.776 65.6571 217.721 65.5351 217.612 65.4357C217.504 65.3368 217.34 65.2618 217.118 65.2118L216.329 65.0385C215.894 64.9397 215.573 64.7817 215.364 64.5657C215.158 64.3491 215.055 64.0752 215.055 63.7433C215.055 63.4688 215.132 63.2278 215.286 63.0216C215.439 62.8154 215.652 62.6543 215.923 62.5396C216.193 62.4219 216.504 62.3633 216.853 62.3633C217.357 62.3633 217.753 62.4725 218.043 62.6909C218.332 62.9075 218.523 63.1973 218.616 63.5615ZM221.879 62.4243V63.1521H219.334V62.4243H221.879ZM220.016 61.3079H220.923V65.7151C220.923 65.8908 220.95 66.0232 221.002 66.1122C221.054 66.1995 221.122 66.2587 221.205 66.291C221.29 66.3215 221.382 66.3367 221.482 66.3367C221.554 66.3367 221.618 66.3319 221.672 66.3215C221.727 66.3117 221.769 66.3032 221.8 66.2971L221.963 67.0463C221.911 67.0664 221.836 67.0871 221.739 67.1073C221.642 67.1292 221.521 67.1414 221.375 67.1433C221.136 67.1475 220.914 67.1048 220.708 67.0164C220.502 66.9273 220.335 66.7894 220.208 66.6033C220.08 66.4179 220.016 66.1842 220.016 65.903V61.3079ZM224.794 67.1768C224.357 67.1768 223.976 67.0768 223.651 66.8767C223.325 66.6766 223.073 66.3965 222.893 66.0366C222.713 65.6766 222.622 65.2557 222.622 64.775C222.622 64.2912 222.713 63.869 222.893 63.5066C223.073 63.1448 223.325 62.8642 223.651 62.6635C223.976 62.4634 224.357 62.3633 224.794 62.3633C225.231 62.3633 225.612 62.4634 225.938 62.6635C226.263 62.8642 226.516 63.1448 226.696 63.5066C226.876 63.869 226.965 64.2912 226.965 64.775C226.965 65.2557 226.876 65.6766 226.696 66.0366C226.516 66.3965 226.263 66.6766 225.938 66.8767C225.612 67.0768 225.231 67.1768 224.794 67.1768ZM224.797 66.4154C225.08 66.4154 225.315 66.341 225.501 66.1909C225.687 66.0415 225.824 65.8426 225.913 65.5937C226.004 65.3448 226.05 65.0708 226.05 64.7719C226.05 64.4742 226.004 64.2015 225.913 63.9526C225.824 63.7018 225.687 63.5011 225.501 63.3492C225.315 63.1973 225.08 63.1216 224.797 63.1216C224.512 63.1216 224.276 63.1973 224.087 63.3492C223.902 63.5011 223.763 63.7018 223.672 63.9526C223.583 64.2015 223.539 64.4742 223.539 64.7719C223.539 65.0708 223.583 65.3448 223.672 65.5937C223.763 65.8426 223.902 66.0415 224.087 66.1909C224.276 66.341 224.512 66.4154 224.797 66.4154ZM227.978 67.0829V62.4243H228.849V63.1827H228.906C229.003 62.9258 229.162 62.7251 229.383 62.5817C229.603 62.4365 229.866 62.3633 230.174 62.3633C230.486 62.3633 230.746 62.4365 230.957 62.5817C231.169 62.7275 231.326 62.9276 231.426 63.1827H231.475C231.586 62.9337 231.763 62.7355 232.006 62.5878C232.249 62.4384 232.538 62.3633 232.873 62.3633C233.296 62.3633 233.641 62.4957 233.908 62.7605C234.177 63.0259 234.311 63.4249 234.311 63.9587V67.0829H233.404V64.0435C233.404 63.7281 233.318 63.4999 233.146 63.3584C232.975 63.2168 232.769 63.146 232.531 63.146C232.235 63.146 232.006 63.237 231.842 63.4188C231.678 63.5987 231.597 63.8306 231.597 64.1136V67.0829H230.692V63.9861C230.692 63.7336 230.614 63.5304 230.456 63.3767C230.298 63.2229 230.093 63.146 229.84 63.146C229.669 63.146 229.509 63.1912 229.364 63.2827C229.22 63.3712 229.104 63.4956 229.015 63.6555C228.929 63.8153 228.885 64.0002 228.885 64.2106V67.0829H227.978ZM237.534 67.1768C237.076 67.1768 236.68 67.0786 236.348 66.8828C236.019 66.6845 235.764 66.4063 235.584 66.0488C235.406 65.6888 235.317 65.2673 235.317 64.7841C235.317 64.3064 235.406 63.8861 235.584 63.5219C235.764 63.1583 236.015 62.874 236.336 62.6696C236.66 62.4658 237.038 62.3633 237.471 62.3633C237.733 62.3633 237.988 62.4066 238.235 62.4939C238.482 62.5811 238.703 62.7172 238.899 62.9032C239.096 63.0893 239.25 63.3309 239.363 63.628C239.476 63.9233 239.533 64.2826 239.533 64.7048V65.0263H235.83V64.3473H238.645C238.645 64.1087 238.596 63.897 238.499 63.7134C238.402 63.5273 238.265 63.3803 238.09 63.2736C237.916 63.1662 237.711 63.1125 237.477 63.1125C237.222 63.1125 236.999 63.1753 236.81 63.3004C236.622 63.4242 236.476 63.5859 236.373 63.786C236.272 63.9843 236.221 64.1996 236.221 64.4321V64.9629C236.221 65.274 236.276 65.5388 236.385 65.7572C236.496 65.9756 236.651 66.1427 236.849 66.258C237.047 66.3709 237.279 66.4276 237.544 66.4276C237.716 66.4276 237.872 66.4032 238.013 66.355C238.155 66.3044 238.277 66.2294 238.381 66.1305C238.484 66.0317 238.562 65.9091 238.617 65.7633L239.476 65.9182C239.407 66.1708 239.284 66.3923 239.105 66.5826C238.93 66.7705 238.708 66.9169 238.441 67.0225C238.176 67.1256 237.874 67.1768 237.534 67.1768ZM240.54 67.0829V62.4243H241.416V63.1644H241.465C241.549 62.9136 241.699 62.7166 241.914 62.5726C242.129 62.4274 242.374 62.3542 242.647 62.3542C242.704 62.3542 242.771 62.3566 242.848 62.3603C242.926 62.3645 242.988 62.3694 243.032 62.3755V63.2431C242.996 63.2327 242.932 63.2217 242.838 63.2095C242.746 63.1955 242.652 63.1881 242.56 63.1881C242.345 63.1881 242.154 63.2339 241.986 63.3248C241.82 63.4139 241.689 63.5383 241.592 63.6982C241.495 63.8556 241.446 64.0355 241.446 64.2381V67.0829H240.54ZM248.295 62.4243V63.1521H245.662V62.4243H248.295ZM246.384 67.0829V61.8844C246.384 61.5928 246.448 61.3512 246.575 61.159C246.703 60.965 246.872 60.8204 247.081 60.7259C247.292 60.6283 247.521 60.5801 247.767 60.5801C247.949 60.5801 248.105 60.5953 248.235 60.6252C248.364 60.6539 248.46 60.6801 248.522 60.7045L248.31 61.4385C248.267 61.4263 248.213 61.4122 248.146 61.3957C248.08 61.3774 247.998 61.3689 247.904 61.3689C247.683 61.3689 247.526 61.4232 247.43 61.5324C247.338 61.6416 247.291 61.799 247.291 62.0058V67.0829H246.384ZM249.231 67.0829V62.4243H250.137V67.0829H249.231ZM249.688 61.7051C249.531 61.7051 249.395 61.6526 249.282 61.5477C249.171 61.4403 249.115 61.3128 249.115 61.1651C249.115 61.0157 249.171 60.8882 249.282 60.7832C249.395 60.6759 249.531 60.6228 249.688 60.6228C249.846 60.6228 249.981 60.6759 250.092 60.7832C250.205 60.8882 250.262 61.0157 250.262 61.1651C250.262 61.3128 250.205 61.4403 250.092 61.5477C249.981 61.6526 249.846 61.7051 249.688 61.7051ZM253.532 62.4243V63.1521H250.987V62.4243H253.532ZM251.67 61.3079H252.577V65.7151C252.577 65.8908 252.603 66.0232 252.656 66.1122C252.708 66.1995 252.776 66.2587 252.859 66.291C252.944 66.3215 253.036 66.3367 253.135 66.3367C253.208 66.3367 253.271 66.3319 253.326 66.3215C253.38 66.3117 253.423 66.3032 253.453 66.2971L253.617 67.0463C253.565 67.0664 253.49 67.0871 253.393 67.1073C253.296 67.1292 253.174 67.1414 253.028 67.1433C252.79 67.1475 252.568 67.1048 252.362 67.0164C252.155 66.9273 251.988 66.7894 251.861 66.6033C251.733 66.4179 251.67 66.1842 251.67 65.903V61.3079Z" fill="#171923"/>
</g>
<g filter="url(#filter3_d_1043_25100)">
<g filter="url(#filter4_d_1043_25100)">
<path d="M193.394 72.5742H57.9571V103.078H193.394V72.5742Z" fill="white"/>
<path d="M72.791 90.123L72.0632 90.389L72.0248 92.5536L74.5432 91.633C73.6787 91.3438 73.0479 90.8332 72.791 90.123Z" fill="#FDBD39"/>
<path d="M73.1718 87.834L70.6467 88.7564L72.0633 90.3896L72.7911 90.1236C72.5342 89.4159 72.6929 88.6167 73.1718 87.834Z" fill="#F69833"/>
<path d="M77.4197 84.71C74.2052 85.8844 72.1316 88.3083 72.7904 90.1232L84.4331 85.8704C83.7742 84.0554 80.6348 83.5363 77.4197 84.71Z" fill="#FECF33"/>
<path d="M79.8033 91.2843C83.0184 90.1099 85.0951 87.6964 84.4325 85.8711L72.7905 90.1233C73.4524 91.9499 76.5882 92.4587 79.8033 91.2843Z" fill="#EE6723"/>
<path d="M84.4325 85.8711L72.7905 90.1239C73.0186 90.7529 73.888 91.0628 75.1075 91.0628C76.2972 91.0628 77.8193 90.7688 79.4061 90.1886C82.6212 89.0142 84.8828 87.1126 84.4325 85.8711Z" fill="#F69833"/>
<path d="M82.1161 84.9316C80.927 84.9316 79.4043 85.2263 77.8175 85.8059C74.6024 86.9803 72.3408 88.8813 72.7911 90.1228L84.4337 85.8699C84.2056 85.2409 83.3362 84.9316 82.1161 84.9316Z" fill="#FDBD39"/>
<path d="M81.4724 92.6687C81.1295 92.6687 80.6244 92.3594 79.9704 91.7493C79.1968 91.0276 78.3104 89.9697 77.4746 88.7715C76.6388 87.5739 75.9518 86.3764 75.5407 85.399C75.0929 84.3344 75.0288 83.6798 75.3503 83.4535C75.4247 83.4029 75.5132 83.3766 75.6035 83.3791C75.8652 83.3791 76.3765 83.5737 77.3202 84.5028L77.341 84.5236L77.3379 84.5522C77.3318 84.6193 77.3257 84.6865 77.3209 84.7529L77.3105 84.8841L77.2177 84.7908C76.2008 83.7665 75.7536 83.656 75.6078 83.656C75.5663 83.656 75.5333 83.664 75.5095 83.6804C75.3692 83.7787 75.3601 84.26 75.7951 85.2916C76.1989 86.2507 76.8755 87.4306 77.7003 88.6129C78.5257 89.7958 79.3982 90.8372 80.1589 91.5467C80.9782 92.3112 81.348 92.3935 81.4688 92.3935C81.5102 92.3935 81.5438 92.385 81.5688 92.3673C81.7164 92.2636 81.7164 91.7487 81.232 90.6377L81.2095 90.5871L81.2583 90.5602C81.3065 90.534 81.3541 90.5078 81.398 90.4828L81.4565 90.4498L81.4834 90.5108C81.8269 91.2978 82.1484 92.2984 81.7268 92.5942C81.6524 92.6449 81.5633 92.6711 81.4724 92.6687ZM81.4724 92.5473V92.6083V92.5473Z" fill="#EE6723"/>
<path d="M79.8814 91.2506L79.8765 91.3104C79.7947 92.3158 79.5812 93.525 79.023 93.5744C79.0114 93.5756 78.9998 93.5756 78.9888 93.5756C78.6094 93.5756 78.2506 93.0321 77.923 91.9614C77.6119 90.9474 77.3709 89.587 77.2446 88.1301C77.1171 86.6733 77.1189 85.2914 77.2495 84.2391C77.3916 83.0921 77.6625 82.4936 78.0542 82.4589C78.0658 82.4576 78.078 82.457 78.0896 82.457C78.3647 82.457 78.779 82.7688 79.203 84.2189L78.9266 84.272C78.7851 83.7882 78.6307 83.3941 78.4776 83.122C78.3354 82.8719 78.1976 82.734 78.0896 82.734C78.0859 82.734 78.0829 82.734 78.0786 82.7346C77.9084 82.7493 77.6613 83.1611 77.5234 84.2726C77.3953 85.3061 77.3935 86.6678 77.5192 88.1057C77.6442 89.5443 77.8815 90.8846 78.1866 91.8796C78.3232 92.3256 78.4727 92.6929 78.6203 92.9418C78.7552 93.1718 78.8863 93.2987 78.9888 93.2987C78.9925 93.2987 78.9955 93.2987 78.9992 93.2981C79.1615 93.284 79.4677 92.8551 79.5971 91.3476L79.8814 91.2506Z" fill="#EE6723"/>
<path d="M97.5479 90.8765V90.3305L100.897 85.3321H97.5113V84.6647H101.794V85.2107L98.4453 90.2091H101.831V90.8765H97.5479ZM104.949 90.9735C104.5 90.9735 104.112 90.8747 103.787 90.6764C103.463 90.4763 103.214 90.1969 103.037 89.8394C102.863 89.4794 102.777 89.0609 102.777 88.5832C102.777 88.1061 102.863 87.6858 103.037 87.3216C103.214 86.9555 103.458 86.6706 103.772 86.4663C104.087 86.26 104.455 86.157 104.876 86.157C105.118 86.157 105.358 86.1972 105.595 86.2784C105.831 86.3595 106.046 86.4907 106.24 86.6725C106.435 86.8524 106.589 87.091 106.705 87.3887C106.82 87.6858 106.878 88.0518 106.878 88.4862V88.79H103.286V88.1708H106.149C106.149 87.9079 106.097 87.6736 105.992 87.4674C105.889 87.2612 105.741 87.0983 105.549 86.9793C105.359 86.8598 105.134 86.8 104.876 86.8C104.591 86.8 104.344 86.8707 104.135 87.0123C103.929 87.152 103.771 87.3338 103.66 87.5583C103.548 87.7828 103.492 88.0232 103.492 88.28V88.6924C103.492 89.0444 103.553 89.3428 103.675 89.5874C103.798 89.8302 103.969 90.0151 104.187 90.1426C104.406 90.2676 104.66 90.3305 104.949 90.3305C105.137 90.3305 105.306 90.3042 105.458 90.2518C105.612 90.1969 105.744 90.1163 105.855 90.009C105.966 89.8998 106.052 89.7643 106.113 89.6027L106.805 89.7967C106.732 90.0315 106.609 90.2377 106.438 90.4153C106.266 90.5916 106.054 90.7288 105.801 90.8277C105.548 90.9253 105.264 90.9735 104.949 90.9735ZM107.966 92.6237V86.218H108.658V86.958H108.743C108.795 86.8768 108.868 86.7737 108.961 86.6487C109.056 86.5212 109.192 86.4077 109.367 86.3089C109.546 86.2076 109.786 86.157 110.089 86.157C110.481 86.157 110.827 86.2552 111.127 86.451C111.426 86.6475 111.66 86.9256 111.827 87.2856C111.995 87.6455 112.079 88.0701 112.079 88.5594C112.079 89.0524 111.995 89.48 111.827 89.8424C111.66 90.2023 111.427 90.4812 111.13 90.6794C110.832 90.8753 110.49 90.9735 110.101 90.9735C109.802 90.9735 109.563 90.9241 109.383 90.8246C109.203 90.724 109.064 90.6093 108.967 90.4824C108.87 90.353 108.795 90.2457 108.743 90.1609H108.682V92.6237H107.966ZM108.67 88.5472C108.67 88.8992 108.721 89.2091 108.825 89.4782C108.928 89.7454 109.078 89.9547 109.277 90.106C109.475 90.2554 109.718 90.3305 110.004 90.3305C110.304 90.3305 110.553 90.2518 110.754 90.0938C110.956 89.9339 111.107 89.7198 111.209 89.4507C111.312 89.1799 111.363 88.8785 111.363 88.5472C111.363 88.2196 111.313 87.9243 111.212 87.6614C111.112 87.3966 110.962 87.1874 110.76 87.0336C110.56 86.8781 110.308 86.8 110.004 86.8C109.713 86.8 109.469 86.8738 109.27 87.0214C109.072 87.1672 108.923 87.371 108.821 87.6339C108.721 87.8951 108.67 88.1995 108.67 88.5472ZM113.887 84.6647V90.8765H113.171V84.6647H113.887ZM115.198 90.8765V86.218H115.914V90.8765H115.198ZM115.562 85.4413C115.422 85.4413 115.302 85.3937 115.201 85.2986C115.102 85.2034 115.052 85.0893 115.052 84.9557C115.052 84.8227 115.102 84.708 115.201 84.6135C115.302 84.5183 115.422 84.4707 115.562 84.4707C115.701 84.4707 115.821 84.5183 115.92 84.6135C116.021 84.708 116.072 84.8227 116.072 84.9557C116.072 85.0893 116.021 85.2034 115.92 85.2986C115.821 85.3937 115.701 85.4413 115.562 85.4413ZM117.94 88.0738V90.8765H117.225V86.218H117.916V86.9458H117.977C118.086 86.7091 118.252 86.5187 118.474 86.3754C118.697 86.2302 118.984 86.157 119.335 86.157C119.651 86.157 119.927 86.2216 120.164 86.351C120.4 86.4785 120.584 86.6725 120.715 86.9336C120.847 87.1922 120.913 87.5199 120.913 87.9164V90.8765H120.197V87.9646C120.197 87.5986 120.102 87.3136 119.912 87.1093C119.722 86.9031 119.461 86.8 119.129 86.8C118.901 86.8 118.697 86.8494 118.517 86.9488C118.339 87.0477 118.198 87.1922 118.095 87.3826C117.992 87.5723 117.94 87.8029 117.94 88.0738Z" fill="#171923"/>
</g>
<path d="M272.703 72.5742H193.394V103.078H272.703V72.5742Z" fill="white"/>
<path d="M239.759 82.9453H204.375C203.701 82.9453 203.155 83.4916 203.155 84.1655V91.4864C203.155 92.1602 203.701 92.7065 204.375 92.7065H239.759C240.433 92.7065 240.979 92.1602 240.979 91.4864V84.1655C240.979 83.4916 240.433 82.9453 239.759 82.9453Z" fill="#38A169"/>
<path d="M206.18 90.2665V84.9423H208.078C208.492 84.9423 208.835 85.0174 209.107 85.1681C209.379 85.3194 209.583 85.5256 209.719 85.7873C209.853 86.0472 209.921 86.34 209.921 86.6658C209.921 86.9934 209.853 87.2881 209.716 87.5498C209.581 87.8097 209.376 88.0159 209.102 88.1684C208.83 88.3191 208.487 88.3948 208.075 88.3948H206.77V87.7133H208.002C208.264 87.7133 208.476 87.6682 208.639 87.5785C208.802 87.4864 208.922 87.3619 208.998 87.2039C209.074 87.0465 209.113 86.8671 209.113 86.6658C209.113 86.4645 209.074 86.2863 208.998 86.1302C208.922 85.974 208.802 85.852 208.637 85.7635C208.474 85.6751 208.259 85.6311 207.992 85.6311H206.984V90.2665H206.18ZM210.863 90.2665V84.9423H214.201V85.6336H211.666V87.2558H214.027V87.9451H211.666V89.5746H214.232V90.2665H210.863ZM215.274 90.2665V84.9423H217.172C217.584 84.9423 217.927 85.0131 218.199 85.1553C218.473 85.2974 218.677 85.4945 218.812 85.7452C218.947 85.9953 219.015 86.2839 219.015 86.6115C219.015 86.9373 218.947 87.224 218.81 87.4717C218.675 87.7176 218.47 87.9091 218.196 88.0464C217.924 88.1831 217.582 88.2514 217.169 88.2514H215.731V87.5602H217.096C217.356 87.5602 217.568 87.523 217.731 87.4485C217.895 87.3741 218.016 87.2655 218.092 87.1234C218.168 86.9812 218.207 86.8104 218.207 86.6115C218.207 86.4102 218.168 86.2357 218.089 86.0887C218.013 85.9416 217.893 85.8288 217.728 85.7507C217.565 85.6708 217.351 85.6311 217.086 85.6311H216.077V90.2665H215.274ZM217.902 87.864L219.218 90.2665H218.303L217.013 87.864H217.902ZM219.992 90.2665V84.9423H223.294V85.6336H220.796V87.2558H223.058V87.9451H220.796V90.2665H219.992ZM224.282 90.2665V84.9423H227.62V85.6336H225.085V87.2558H227.446V87.9451H225.085V89.5746H227.651V90.2665H224.282ZM233.116 86.6737H232.304C232.273 86.5005 232.215 86.348 232.13 86.2162C232.045 86.0844 231.941 85.9728 231.818 85.8806C231.695 85.7891 231.557 85.7196 231.405 85.6726C231.254 85.6256 231.094 85.6024 230.924 85.6024C230.617 85.6024 230.342 85.6799 230.1 85.8337C229.859 85.988 229.668 86.2144 229.528 86.5127C229.389 86.8104 229.32 87.1746 229.32 87.6041C229.32 88.0379 229.389 88.4033 229.528 88.7016C229.668 88.9993 229.86 89.2251 230.102 89.3776C230.345 89.5301 230.618 89.6064 230.921 89.6064C231.09 89.6064 231.249 89.5838 231.399 89.5387C231.552 89.4917 231.69 89.4233 231.813 89.3331C231.936 89.2428 232.04 89.133 232.125 89.003C232.211 88.8712 232.271 88.7205 232.304 88.5509L233.116 88.5534C233.072 88.8151 232.988 89.0561 232.863 89.2757C232.74 89.4941 232.582 89.6832 232.388 89.8425C232.195 90.0005 231.975 90.1225 231.727 90.2091C231.479 90.2958 231.209 90.3391 230.916 90.3391C230.455 90.3391 230.044 90.2299 229.684 90.0115C229.323 89.7918 229.039 89.477 228.831 89.0683C228.625 88.6589 228.522 88.1709 228.522 87.6041C228.522 87.0361 228.625 86.5481 228.833 86.1405C229.041 85.7318 229.326 85.4182 229.686 85.1998C230.047 84.9796 230.457 84.8691 230.916 84.8691C231.199 84.8691 231.462 84.91 231.706 84.9918C231.952 85.0711 232.174 85.1894 232.369 85.345C232.565 85.4993 232.727 85.6885 232.856 85.9118C232.984 86.1338 233.07 86.3876 233.116 86.6737ZM233.814 85.6336V84.9423H237.935V85.6336H236.273V90.2665H235.473V85.6336H233.814Z" fill="white"/>
</g>
<g filter="url(#filter5_d_1043_25100)">
<g filter="url(#filter6_d_1043_25100)">
<path d="M193.394 103.078H57.9571V133.582H193.394V103.078Z" fill="white"/>
<path d="M71.8668 111.986L71.1347 112.962V121.991L73.575 125.164L84.0683 124.432L83.8243 113.694L80.4078 111.498L71.8668 111.986Z" fill="white"/>
<path fill-rule="evenodd" clip-rule="evenodd" d="M73.0516 113.559C73.5043 113.926 73.6739 113.899 74.5231 113.842L82.5285 113.361C82.6981 113.361 82.5571 113.192 82.5004 113.163L81.1711 112.202C80.916 112.004 80.5768 111.778 79.9259 111.835L72.1743 112.4C71.8918 112.428 71.8351 112.569 71.948 112.683L73.0516 113.559ZM73.5323 115.424V123.848C73.5323 124.3 73.7587 124.47 74.2681 124.442L83.066 123.933C83.5754 123.905 83.6321 123.593 83.6321 123.226V114.859C83.6321 114.492 83.4912 114.294 83.1788 114.322L73.985 114.859C73.6458 114.888 73.5323 115.057 73.5323 115.424ZM82.2179 115.876C82.2741 116.131 82.218 116.385 81.9629 116.414L81.5389 116.499V122.717C81.1711 122.915 80.8313 123.028 80.5488 123.028C80.0955 123.028 79.9826 122.887 79.6434 122.463L76.87 118.11V122.322L77.7479 122.52C77.7479 122.52 77.7479 123.028 77.0396 123.028L75.088 123.141C75.0319 123.028 75.088 122.746 75.2863 122.689L75.7957 122.548V116.98L75.0886 116.923C75.0319 116.668 75.1728 116.301 75.5694 116.272L77.6631 116.132L80.5488 120.541V116.64L79.813 116.556C79.7563 116.244 79.9826 116.018 80.2651 115.99L82.2179 115.876ZM71.5233 111.637L79.5867 111.043C80.5768 110.958 80.8313 111.015 81.4541 111.467L84.028 113.276C84.4527 113.587 84.5942 113.672 84.5942 114.011V123.933C84.5942 124.555 84.3672 124.923 83.5754 124.979L74.2119 125.544C73.6171 125.572 73.334 125.488 73.0229 125.092L71.1274 122.632C70.7882 122.18 70.6467 121.841 70.6467 121.445V112.626C70.6467 112.117 70.873 111.693 71.5233 111.637Z" fill="black"/>
<path d="M102.68 115.169V121.38H101.952L98.5667 116.503H98.5063V121.38H97.7541V115.169H98.4819L101.879 120.058H101.94V115.169H102.68ZM105.98 121.477C105.56 121.477 105.191 121.377 104.874 121.177C104.558 120.977 104.311 120.697 104.133 120.337C103.957 119.977 103.869 119.556 103.869 119.076C103.869 118.59 103.957 118.167 104.133 117.804C104.311 117.442 104.558 117.162 104.874 116.961C105.191 116.761 105.56 116.661 105.98 116.661C106.401 116.661 106.769 116.761 107.085 116.961C107.402 117.162 107.649 117.442 107.825 117.804C108.003 118.167 108.091 118.59 108.091 119.076C108.091 119.556 108.003 119.977 107.825 120.337C107.649 120.697 107.402 120.977 107.085 121.177C106.769 121.377 106.401 121.477 105.98 121.477ZM105.98 120.834C106.3 120.834 106.563 120.753 106.769 120.589C106.975 120.425 107.128 120.21 107.227 119.942C107.326 119.676 107.376 119.387 107.376 119.076C107.376 118.764 107.326 118.474 107.227 118.205C107.128 117.936 106.975 117.719 106.769 117.553C106.563 117.387 106.3 117.304 105.98 117.304C105.661 117.304 105.398 117.387 105.192 117.553C104.985 117.719 104.833 117.936 104.734 118.205C104.635 118.474 104.585 118.764 104.585 119.076C104.585 119.387 104.635 119.676 104.734 119.942C104.833 120.21 104.985 120.425 105.192 120.589C105.398 120.753 105.661 120.834 105.98 120.834ZM111.21 116.722V117.328H108.796V116.722H111.21ZM109.499 115.605H110.215V120.046C110.215 120.248 110.245 120.4 110.303 120.501C110.364 120.6 110.441 120.667 110.534 120.701C110.629 120.733 110.729 120.75 110.834 120.75C110.913 120.75 110.977 120.745 111.028 120.737C111.079 120.727 111.119 120.719 111.149 120.713L111.295 121.356C111.247 121.374 111.179 121.393 111.092 121.411C111.005 121.431 110.894 121.441 110.761 121.441C110.559 121.441 110.361 121.397 110.167 121.311C109.974 121.224 109.815 121.091 109.688 120.913C109.562 120.736 109.499 120.511 109.499 120.24V115.605ZM112.287 121.38V116.722H113.003V121.38H112.287ZM112.651 115.945C112.511 115.945 112.391 115.898 112.29 115.802C112.191 115.707 112.141 115.593 112.141 115.46C112.141 115.327 112.191 115.212 112.29 115.117C112.391 115.022 112.511 114.975 112.651 114.975C112.791 114.975 112.91 115.022 113.009 115.117C113.11 115.212 113.16 115.327 113.16 115.46C113.16 115.593 113.11 115.707 113.009 115.802C112.91 115.898 112.791 115.945 112.651 115.945ZM116.206 121.477C115.785 121.477 115.417 121.377 115.099 121.177C114.784 120.977 114.537 120.697 114.359 120.337C114.183 119.977 114.096 119.556 114.096 119.076C114.096 118.59 114.183 118.167 114.359 117.804C114.537 117.442 114.784 117.162 115.099 116.961C115.417 116.761 115.785 116.661 116.206 116.661C116.627 116.661 116.995 116.761 117.311 116.961C117.628 117.162 117.874 117.442 118.051 117.804C118.228 118.167 118.317 118.59 118.317 119.076C118.317 119.556 118.228 119.977 118.051 120.337C117.874 120.697 117.628 120.977 117.311 121.177C116.995 121.377 116.627 121.477 116.206 121.477ZM116.206 120.834C116.526 120.834 116.788 120.753 116.995 120.589C117.201 120.425 117.354 120.21 117.453 119.942C117.552 119.676 117.602 119.387 117.602 119.076C117.602 118.764 117.552 118.474 117.453 118.205C117.354 117.936 117.201 117.719 116.995 117.553C116.788 117.387 116.526 117.304 116.206 117.304C115.887 117.304 115.624 117.387 115.418 117.553C115.211 117.719 115.059 117.936 114.96 118.205C114.861 118.474 114.811 118.764 114.811 119.076C114.811 119.387 114.861 119.676 114.96 119.942C115.059 120.21 115.211 120.425 115.418 120.589C115.624 120.753 115.887 120.834 116.206 120.834ZM120.126 118.578V121.38H119.41V116.722H120.102V117.45H120.162C120.271 117.213 120.437 117.023 120.659 116.879C120.882 116.734 121.169 116.661 121.521 116.661C121.836 116.661 122.113 116.726 122.349 116.855C122.585 116.982 122.77 117.176 122.901 117.437C123.033 117.696 123.098 118.024 123.098 118.42V121.38H122.382V118.469C122.382 118.102 122.287 117.818 122.097 117.613C121.907 117.407 121.646 117.304 121.315 117.304C121.086 117.304 120.882 117.353 120.702 117.453C120.524 117.552 120.384 117.696 120.28 117.886C120.177 118.076 120.126 118.307 120.126 118.578Z" fill="#171923"/>
</g>
<path d="M272.703 103.078H193.394V133.582H272.703V103.078Z" fill="white"/>
<path d="M229.388 113.449H204.375C203.701 113.449 203.155 113.995 203.155 114.669V121.99C203.155 122.664 203.701 123.21 204.375 123.21H229.388C230.062 123.21 230.608 122.664 230.608 121.99V114.669C230.608 113.995 230.062 113.449 229.388 113.449Z" fill="#319795"/>
<path d="M209.783 117.128C209.733 116.97 209.666 116.829 209.581 116.704C209.497 116.578 209.398 116.471 209.282 116.382C209.165 116.292 209.033 116.223 208.884 116.177C208.736 116.13 208.575 116.106 208.398 116.106C208.098 116.106 207.827 116.184 207.586 116.338C207.345 116.492 207.155 116.718 207.015 117.017C206.876 117.312 206.807 117.676 206.807 118.106C206.807 118.537 206.877 118.902 207.017 119.2C207.158 119.498 207.35 119.725 207.594 119.878C207.839 120.033 208.117 120.11 208.429 120.11C208.718 120.11 208.971 120.051 209.185 119.933C209.402 119.816 209.569 119.649 209.687 119.434C209.806 119.218 209.866 118.963 209.866 118.67L210.074 118.709H208.551V118.046H210.644V118.652C210.644 119.099 210.548 119.487 210.358 119.816C210.169 120.144 209.907 120.397 209.573 120.575C209.24 120.754 208.858 120.843 208.429 120.843C207.947 120.843 207.524 120.733 207.16 120.51C206.798 120.288 206.516 119.974 206.313 119.567C206.11 119.158 206.009 118.672 206.009 118.111C206.009 117.686 206.067 117.305 206.185 116.967C206.303 116.629 206.469 116.342 206.682 116.106C206.897 115.869 207.149 115.688 207.438 115.563C207.73 115.436 208.048 115.373 208.392 115.373C208.68 115.373 208.948 115.416 209.196 115.501C209.445 115.585 209.667 115.706 209.861 115.862C210.057 116.018 210.22 116.203 210.348 116.418C210.476 116.632 210.562 116.868 210.608 117.128H209.783ZM216.289 118.108C216.289 118.677 216.185 119.165 215.977 119.575C215.769 119.982 215.483 120.296 215.121 120.515C214.761 120.734 214.351 120.843 213.892 120.843C213.43 120.843 213.019 120.734 212.657 120.515C212.296 120.296 212.012 119.981 211.804 119.572C211.596 119.163 211.492 118.675 211.492 118.108C211.492 117.54 211.596 117.052 211.804 116.644C212.012 116.236 212.296 115.922 212.657 115.704C213.019 115.483 213.43 115.373 213.892 115.373C214.351 115.373 214.761 115.483 215.121 115.704C215.483 115.922 215.769 116.236 215.977 116.644C216.185 117.052 216.289 117.54 216.289 118.108ZM215.493 118.108C215.493 117.675 215.423 117.31 215.283 117.014C215.144 116.716 214.953 116.49 214.71 116.338C214.47 116.184 214.197 116.106 213.892 116.106C213.585 116.106 213.311 116.184 213.07 116.338C212.829 116.49 212.638 116.716 212.498 117.014C212.36 117.31 212.29 117.675 212.29 118.108C212.29 118.542 212.36 118.907 212.498 119.206C212.638 119.501 212.829 119.727 213.07 119.881C213.311 120.034 213.585 120.11 213.892 120.11C214.197 120.11 214.47 120.034 214.71 119.881C214.953 119.727 215.144 119.501 215.283 119.206C215.423 118.907 215.493 118.542 215.493 118.108ZM221.915 118.108C221.915 118.677 221.811 119.165 221.603 119.575C221.395 119.982 221.11 120.296 220.748 120.515C220.387 120.734 219.978 120.843 219.518 120.843C219.057 120.843 218.645 120.734 218.283 120.515C217.923 120.296 217.639 119.981 217.431 119.572C217.223 119.163 217.118 118.675 217.118 118.108C217.118 117.54 217.223 117.052 217.431 116.644C217.639 116.236 217.923 115.922 218.283 115.704C218.645 115.483 219.057 115.373 219.518 115.373C219.978 115.373 220.387 115.483 220.748 115.704C221.11 115.922 221.395 116.236 221.603 116.644C221.811 117.052 221.915 117.54 221.915 118.108ZM221.12 118.108C221.12 117.675 221.05 117.31 220.909 117.014C220.77 116.716 220.58 116.49 220.337 116.338C220.096 116.184 219.823 116.106 219.518 116.106C219.211 116.106 218.937 116.184 218.697 116.338C218.456 116.49 218.265 116.716 218.125 117.014C217.986 117.31 217.917 117.675 217.917 118.108C217.917 118.542 217.986 118.907 218.125 119.206C218.265 119.501 218.456 119.727 218.697 119.881C218.937 120.034 219.211 120.11 219.518 120.11C219.823 120.11 220.096 120.034 220.337 119.881C220.58 119.727 220.77 119.501 220.909 119.206C221.05 118.907 221.12 118.542 221.12 118.108ZM224.64 120.77H222.916V115.446H224.695C225.216 115.446 225.665 115.552 226.039 115.766C226.413 115.977 226.7 116.281 226.9 116.679C227.1 117.073 227.201 117.547 227.201 118.101C227.201 118.655 227.1 119.132 226.897 119.53C226.696 119.929 226.405 120.236 226.023 120.451C225.642 120.664 225.181 120.77 224.64 120.77ZM223.72 120.068H224.596C225.002 120.068 225.339 119.992 225.607 119.839C225.876 119.686 226.077 119.463 226.211 119.171C226.344 118.879 226.411 118.522 226.411 118.101C226.411 117.683 226.344 117.328 226.211 117.037C226.079 116.746 225.882 116.525 225.62 116.374C225.359 116.223 225.034 116.148 224.645 116.148H223.72V120.068Z" fill="white"/>
</g>
<g filter="url(#filter7_d_1043_25100)">
<g filter="url(#filter8_d_1043_25100)">
<path d="M193.394 133.582H57.9571V164.086H193.394V133.582Z" fill="white"/>
<path d="M77.4795 157.131C82.0618 157.131 85.7765 153.416 85.7765 148.834C85.7765 144.252 82.0618 140.537 77.4795 140.537C72.8972 140.537 69.1825 144.252 69.1825 148.834C69.1825 153.416 72.8972 157.131 77.4795 157.131Z" fill="#4A8CFF"/>
<path d="M72.1559 146.237V150.136C72.1578 150.559 72.328 150.964 72.6281 151.261C72.9283 151.559 73.3346 151.726 73.758 151.724H79.4415C79.5183 151.724 79.5921 151.694 79.6464 151.64C79.7013 151.586 79.7325 151.513 79.7331 151.436V147.536C79.7306 147.114 79.561 146.709 79.2609 146.411C78.9601 146.114 78.5538 145.947 78.131 145.949H72.4494C72.411 145.948 72.3731 145.956 72.3377 145.97C72.3024 145.984 72.27 146.005 72.2426 146.032C72.2157 146.059 72.1938 146.09 72.1791 146.126C72.1639 146.161 72.1559 146.198 72.1559 146.237ZM80.0948 147.758L82.4412 146.043C82.645 145.874 82.803 145.917 82.803 146.223V151.45C82.803 151.798 82.6096 151.756 82.4412 151.629L80.0948 149.918V147.758Z" fill="white"/>
<path d="M97.5479 151.884V151.338L100.897 146.339H97.5113V145.672H101.794V146.218L98.4453 151.216H101.831V151.884H97.5479ZM104.888 151.981C104.467 151.981 104.098 151.881 103.781 151.681C103.465 151.48 103.219 151.2 103.04 150.84C102.865 150.48 102.777 150.06 102.777 149.579C102.777 149.093 102.865 148.67 103.04 148.307C103.219 147.946 103.465 147.665 103.781 147.464C104.098 147.264 104.467 147.164 104.888 147.164C105.309 147.164 105.677 147.264 105.992 147.464C106.309 147.665 106.556 147.946 106.732 148.307C106.91 148.67 106.999 149.093 106.999 149.579C106.999 150.06 106.91 150.48 106.732 150.84C106.556 151.2 106.309 151.48 105.992 151.681C105.677 151.881 105.309 151.981 104.888 151.981ZM104.888 151.338C105.207 151.338 105.47 151.256 105.677 151.092C105.883 150.928 106.035 150.713 106.134 150.446C106.234 150.179 106.283 149.89 106.283 149.579C106.283 149.267 106.234 148.977 106.134 148.708C106.035 148.439 105.883 148.222 105.677 148.056C105.47 147.89 105.207 147.807 104.888 147.807C104.568 147.807 104.306 147.89 104.099 148.056C103.893 148.222 103.74 148.439 103.641 148.708C103.542 148.977 103.492 149.267 103.492 149.579C103.492 149.89 103.542 150.179 103.641 150.446C103.74 150.713 103.893 150.928 104.099 151.092C104.306 151.256 104.568 151.338 104.888 151.338ZM109.984 151.981C109.563 151.981 109.194 151.881 108.877 151.681C108.562 151.48 108.315 151.2 108.137 150.84C107.961 150.48 107.873 150.06 107.873 149.579C107.873 149.093 107.961 148.67 108.137 148.307C108.315 147.946 108.562 147.665 108.877 147.464C109.194 147.264 109.563 147.164 109.984 147.164C110.405 147.164 110.772 147.264 111.088 147.464C111.406 147.665 111.652 147.946 111.828 148.307C112.006 148.67 112.095 149.093 112.095 149.579C112.095 150.06 112.006 150.48 111.828 150.84C111.652 151.2 111.406 151.48 111.088 151.681C110.772 151.881 110.405 151.981 109.984 151.981ZM109.984 151.338C110.303 151.338 110.566 151.256 110.772 151.092C110.979 150.928 111.132 150.713 111.231 150.446C111.329 150.179 111.38 149.89 111.38 149.579C111.38 149.267 111.329 148.977 111.231 148.708C111.132 148.439 110.979 148.222 110.772 148.056C110.566 147.89 110.303 147.807 109.984 147.807C109.665 147.807 109.402 147.89 109.195 148.056C108.989 148.222 108.837 148.439 108.737 148.708C108.638 148.977 108.589 149.267 108.589 149.579C108.589 149.89 108.638 150.179 108.737 150.446C108.837 150.713 108.989 150.928 109.195 151.092C109.402 151.256 109.665 151.338 109.984 151.338ZM113.188 151.884V147.225H113.879V147.953H113.94C114.037 147.704 114.194 147.511 114.41 147.373C114.626 147.234 114.886 147.164 115.189 147.164C115.497 147.164 115.753 147.234 115.957 147.373C116.163 147.511 116.324 147.704 116.439 147.953H116.488C116.607 147.712 116.786 147.521 117.025 147.379C117.263 147.236 117.549 147.164 117.883 147.164C118.3 147.164 118.64 147.295 118.905 147.556C119.17 147.814 119.303 148.218 119.303 148.766V151.884H118.586V148.766C118.586 148.422 118.492 148.176 118.304 148.029C118.117 147.881 117.895 147.807 117.64 147.807C117.312 147.807 117.059 147.907 116.879 148.104C116.699 148.301 116.609 148.55 116.609 148.85V151.884H115.881V148.693C115.881 148.428 115.795 148.215 115.623 148.053C115.451 147.889 115.23 147.807 114.959 147.807C114.773 147.807 114.599 147.857 114.437 147.956C114.277 148.055 114.148 148.193 114.049 148.368C113.952 148.542 113.903 148.744 113.903 148.972V151.884H113.188Z" fill="#171923"/>
</g>
<path d="M272.703 133.582H193.394V164.086H272.703V133.582Z" fill="white"/>
<path d="M239.759 143.953H204.375C203.701 143.953 203.155 144.499 203.155 145.173V152.494C203.155 153.168 203.701 153.714 204.375 153.714H239.759C240.433 153.714 240.979 153.168 240.979 152.494V145.173C240.979 144.499 240.433 143.953 239.759 143.953Z" fill="#38A169"/>
<path d="M206.18 151.274V145.95H208.078C208.492 145.95 208.835 146.025 209.107 146.176C209.379 146.327 209.583 146.533 209.719 146.795C209.853 147.055 209.921 147.348 209.921 147.674C209.921 148.001 209.853 148.296 209.716 148.558C209.581 148.818 209.376 149.024 209.102 149.176C208.83 149.327 208.487 149.403 208.075 149.403H206.77V148.721H208.002C208.264 148.721 208.476 148.676 208.639 148.586C208.802 148.494 208.922 148.37 208.998 148.212C209.074 148.054 209.113 147.875 209.113 147.674C209.113 147.472 209.074 147.294 208.998 147.138C208.922 146.982 208.802 146.86 208.637 146.771C208.474 146.683 208.259 146.639 207.992 146.639H206.984V151.274H206.18ZM210.863 151.274V145.95H214.201V146.641H211.666V148.264H214.027V148.953H211.666V150.582H214.232V151.274H210.863ZM215.274 151.274V145.95H217.172C217.584 145.95 217.927 146.021 218.199 146.163C218.473 146.305 218.677 146.502 218.812 146.753C218.947 147.003 219.015 147.292 219.015 147.619C219.015 147.945 218.947 148.232 218.81 148.48C218.675 148.725 218.47 148.917 218.196 149.054C217.924 149.191 217.582 149.259 217.169 149.259H215.731V148.568H217.096C217.356 148.568 217.568 148.531 217.731 148.456C217.895 148.382 218.016 148.273 218.092 148.131C218.168 147.989 218.207 147.818 218.207 147.619C218.207 147.418 218.168 147.244 218.089 147.096C218.013 146.949 217.893 146.837 217.728 146.759C217.565 146.679 217.351 146.639 217.086 146.639H216.077V151.274H215.274ZM217.902 148.872L219.218 151.274H218.303L217.013 148.872H217.902ZM219.992 151.274V145.95H223.294V146.641H220.796V148.264H223.058V148.953H220.796V151.274H219.992ZM224.282 151.274V145.95H227.62V146.641H225.085V148.264H227.446V148.953H225.085V150.582H227.651V151.274H224.282ZM233.116 147.682H232.304C232.273 147.508 232.215 147.356 232.13 147.224C232.045 147.092 231.941 146.981 231.818 146.888C231.695 146.797 231.557 146.727 231.405 146.68C231.254 146.633 231.094 146.61 230.924 146.61C230.617 146.61 230.342 146.688 230.1 146.841C229.859 146.996 229.668 147.222 229.528 147.52C229.389 147.818 229.32 148.182 229.32 148.612C229.32 149.046 229.389 149.411 229.528 149.709C229.668 150.007 229.86 150.233 230.102 150.385C230.345 150.538 230.618 150.614 230.921 150.614C231.09 150.614 231.249 150.592 231.399 150.546C231.552 150.499 231.69 150.431 231.813 150.341C231.936 150.251 232.04 150.141 232.125 150.011C232.211 149.879 232.271 149.728 232.304 149.559L233.116 149.561C233.072 149.823 232.988 150.064 232.863 150.284C232.74 150.502 232.582 150.691 232.388 150.85C232.195 151.008 231.975 151.13 231.727 151.217C231.479 151.304 231.209 151.347 230.916 151.347C230.455 151.347 230.044 151.238 229.684 151.019C229.323 150.8 229.039 150.485 228.831 150.076C228.625 149.667 228.522 149.179 228.522 148.612C228.522 148.044 228.625 147.556 228.833 147.148C229.041 146.74 229.326 146.426 229.686 146.208C230.047 145.987 230.457 145.877 230.916 145.877C231.199 145.877 231.462 145.918 231.706 146C231.952 146.079 232.174 146.197 232.369 146.353C232.565 146.507 232.727 146.696 232.856 146.92C232.984 147.142 233.07 147.395 233.116 147.682ZM233.814 146.641V145.95H237.935V146.641H236.273V151.274H235.473V146.641H233.814Z" fill="white"/>
</g>
<g filter="url(#filter9_d_1043_25100)">
<path d="M193.394 164.086H57.9571V194.59H193.394V164.086Z" fill="white"/>
<path d="M80.1016 177.691C81.0838 178.678 81.8867 180.294 81.4273 181.254C80.198 183.821 71.0267 188.324 70.2477 187.545C69.4692 186.766 73.9746 177.591 76.5424 176.361C77.5027 175.902 79.1181 176.705 80.1058 177.687C80.1046 177.688 80.104 177.689 80.1016 177.691Z" fill="#FF8200"/>
<path d="M84.9608 176.608C84.8016 176.018 84.3947 175.421 83.7864 175.35C82.6718 175.221 80.916 177.191 81.0411 177.658C81.1668 178.126 83.6486 178.951 84.5747 178.284C85.0523 177.941 85.1201 177.199 84.9633 176.608H84.9608ZM81.5121 171.15C82.3393 171.374 83.1764 171.944 83.2752 172.796C83.457 174.359 80.6946 176.822 80.0388 176.646C79.3829 176.471 78.228 172.991 79.1621 171.691C79.6434 171.021 80.6836 170.927 81.5127 171.147C81.5121 171.147 81.5121 171.148 81.5121 171.15Z" fill="#43B02A"/>
<path d="M98.5063 176.176V182.388H97.7541V176.176H98.5063ZM100.633 179.585V182.388H99.9174V177.729H100.609V178.457H100.67C100.779 178.22 100.945 178.03 101.167 177.886C101.39 177.741 101.676 177.668 102.028 177.668C102.344 177.668 102.62 177.733 102.856 177.862C103.093 177.99 103.277 178.184 103.408 178.445C103.54 178.703 103.605 179.031 103.605 179.427V182.388H102.89V179.476C102.89 179.11 102.795 178.825 102.605 178.62C102.414 178.414 102.154 178.311 101.822 178.311C101.594 178.311 101.39 178.36 101.21 178.46C101.031 178.559 100.891 178.703 100.788 178.894C100.685 179.083 100.633 179.314 100.633 179.585ZM108.213 178.772L107.571 178.954C107.53 178.847 107.47 178.743 107.391 178.642C107.315 178.539 107.21 178.454 107.076 178.387C106.942 178.32 106.772 178.287 106.564 178.287C106.279 178.287 106.041 178.353 105.851 178.484C105.662 178.614 105.569 178.778 105.569 178.978C105.569 179.157 105.633 179.297 105.763 179.4C105.892 179.503 106.094 179.589 106.37 179.658L107.061 179.828C107.477 179.929 107.788 180.083 107.992 180.292C108.196 180.498 108.299 180.764 108.299 181.089C108.299 181.357 108.222 181.595 108.068 181.805C107.916 182.015 107.704 182.181 107.431 182.303C107.158 182.424 106.841 182.485 106.479 182.485C106.004 182.485 105.61 182.381 105.299 182.175C104.987 181.969 104.79 181.668 104.707 181.271L105.387 181.102C105.451 181.352 105.574 181.54 105.754 181.666C105.936 181.791 106.173 181.854 106.467 181.854C106.8 181.854 107.065 181.783 107.261 181.641C107.459 181.498 107.559 181.326 107.559 181.126C107.559 180.964 107.502 180.829 107.388 180.72C107.276 180.608 107.102 180.525 106.867 180.471L106.09 180.289C105.664 180.188 105.35 180.031 105.15 179.819C104.952 179.604 104.853 179.337 104.853 179.015C104.853 178.752 104.927 178.52 105.074 178.317C105.224 178.115 105.427 177.957 105.684 177.841C105.943 177.726 106.236 177.668 106.564 177.668C107.025 177.668 107.387 177.769 107.65 177.971C107.914 178.174 108.102 178.44 108.213 178.772ZM111.402 177.729V178.335H108.987V177.729H111.402ZM109.691 176.613H110.407V181.053C110.407 181.255 110.436 181.407 110.495 181.508C110.556 181.607 110.633 181.674 110.725 181.708C110.821 181.74 110.921 181.757 111.026 181.757C111.105 181.757 111.17 181.752 111.22 181.745C111.27 181.734 111.311 181.726 111.341 181.72L111.487 182.363C111.439 182.381 111.37 182.4 111.284 182.418C111.196 182.438 111.087 182.448 110.953 182.448C110.751 182.448 110.553 182.405 110.359 182.318C110.167 182.231 110.007 182.098 109.879 181.92C109.754 181.743 109.691 181.518 109.691 181.247V176.613ZM113.85 182.497C113.554 182.497 113.287 182.441 113.046 182.33C112.805 182.217 112.614 182.054 112.473 181.842C112.331 181.627 112.26 181.369 112.26 181.065C112.26 180.798 112.313 180.582 112.418 180.416C112.523 180.248 112.664 180.117 112.839 180.022C113.016 179.927 113.21 179.856 113.422 179.809C113.636 179.761 113.852 179.723 114.068 179.694C114.351 179.658 114.581 179.631 114.756 179.612C114.934 179.592 115.064 179.559 115.145 179.512C115.228 179.466 115.269 179.385 115.269 179.269V179.245C115.269 178.946 115.187 178.714 115.023 178.548C114.862 178.382 114.616 178.299 114.287 178.299C113.945 178.299 113.677 178.374 113.482 178.523C113.288 178.673 113.152 178.833 113.073 179.003L112.394 178.76C112.515 178.477 112.677 178.257 112.879 178.099C113.083 177.939 113.306 177.828 113.546 177.765C113.789 177.7 114.028 177.668 114.262 177.668C114.412 177.668 114.584 177.686 114.778 177.723C114.974 177.757 115.163 177.829 115.345 177.938C115.529 178.047 115.682 178.212 115.803 178.432C115.925 178.653 115.985 178.948 115.985 179.318V182.388H115.269V181.757H115.233C115.184 181.858 115.103 181.966 114.99 182.081C114.877 182.197 114.726 182.295 114.538 182.375C114.35 182.457 114.121 182.497 113.85 182.497ZM113.959 181.854C114.242 181.854 114.481 181.798 114.675 181.687C114.871 181.576 115.019 181.432 115.117 181.256C115.219 181.08 115.269 180.895 115.269 180.701V180.046C115.239 180.083 115.172 180.116 115.069 180.146C114.968 180.174 114.851 180.2 114.717 180.222C114.585 180.242 114.457 180.26 114.332 180.277C114.208 180.291 114.108 180.303 114.031 180.313C113.845 180.337 113.672 180.377 113.51 180.431C113.35 180.484 113.221 180.563 113.122 180.671C113.025 180.776 112.976 180.92 112.976 181.102C112.976 181.35 113.068 181.538 113.252 181.666C113.438 181.791 113.674 181.854 113.959 181.854ZM119.184 182.485C118.747 182.485 118.371 182.381 118.056 182.175C117.74 181.969 117.498 181.685 117.328 181.323C117.158 180.961 117.073 180.548 117.073 180.083C117.073 179.609 117.16 179.192 117.334 178.83C117.51 178.466 117.754 178.182 118.068 177.977C118.383 177.771 118.751 177.668 119.172 177.668C119.5 177.668 119.795 177.729 120.058 177.85C120.32 177.971 120.536 178.141 120.703 178.36C120.872 178.578 120.975 178.833 121.016 179.124H120.3C120.246 178.912 120.124 178.723 119.936 178.56C119.75 178.394 119.5 178.311 119.184 178.311C118.905 178.311 118.66 178.384 118.45 178.529C118.242 178.673 118.079 178.877 117.962 179.139C117.846 179.4 117.789 179.706 117.789 180.058C117.789 180.418 117.846 180.732 117.959 180.998C118.074 181.266 118.236 181.472 118.444 181.62C118.654 181.768 118.901 181.842 119.184 181.842C119.37 181.842 119.539 181.809 119.691 181.745C119.842 181.68 119.971 181.587 120.076 181.466C120.181 181.344 120.255 181.199 120.3 181.029H121.016C120.975 181.303 120.875 181.551 120.715 181.772C120.558 181.99 120.349 182.164 120.088 182.294C119.829 182.421 119.528 182.485 119.184 182.485ZM123.433 182.497C123.138 182.497 122.87 182.441 122.629 182.33C122.389 182.217 122.198 182.054 122.056 181.842C121.915 181.627 121.844 181.369 121.844 181.065C121.844 180.798 121.897 180.582 122.002 180.416C122.107 180.248 122.247 180.117 122.423 180.022C122.599 179.927 122.793 179.856 123.006 179.809C123.22 179.761 123.435 179.723 123.652 179.694C123.935 179.658 124.164 179.631 124.34 179.612C124.518 179.592 124.647 179.559 124.729 179.512C124.812 179.466 124.853 179.385 124.853 179.269V179.245C124.853 178.946 124.771 178.714 124.607 178.548C124.445 178.382 124.2 178.299 123.87 178.299C123.529 178.299 123.261 178.374 123.066 178.523C122.872 178.673 122.735 178.833 122.657 179.003L121.978 178.76C122.099 178.477 122.261 178.257 122.463 178.099C122.667 177.939 122.889 177.828 123.13 177.765C123.372 177.7 123.611 177.668 123.846 177.668C123.995 177.668 124.167 177.686 124.361 177.723C124.558 177.757 124.747 177.829 124.929 177.938C125.113 178.047 125.265 178.212 125.387 178.432C125.508 178.653 125.569 178.948 125.569 179.318V182.388H124.853V181.757H124.816C124.768 181.858 124.687 181.966 124.574 182.081C124.461 182.197 124.31 182.295 124.122 182.375C123.934 182.457 123.704 182.497 123.433 182.497ZM123.543 181.854C123.826 181.854 124.064 181.798 124.258 181.687C124.455 181.576 124.602 181.432 124.701 181.256C124.802 181.08 124.853 180.895 124.853 180.701V180.046C124.822 180.083 124.756 180.116 124.653 180.146C124.552 180.174 124.434 180.2 124.301 180.222C124.169 180.242 124.041 180.26 123.915 180.277C123.792 180.291 123.692 180.303 123.615 180.313C123.429 180.337 123.255 180.377 123.094 180.431C122.934 180.484 122.804 180.563 122.706 180.671C122.609 180.776 122.56 180.92 122.56 181.102C122.56 181.35 122.652 181.538 122.836 181.666C123.022 181.791 123.258 181.854 123.543 181.854ZM126.875 182.388V177.729H127.567V178.432H127.615C127.7 178.202 127.854 178.015 128.076 177.871C128.299 177.728 128.549 177.656 128.828 177.656C128.881 177.656 128.947 177.657 129.025 177.659C129.105 177.661 129.164 177.664 129.205 177.668V178.396C129.18 178.39 129.125 178.381 129.038 178.369C128.953 178.354 128.862 178.348 128.768 178.348C128.542 178.348 128.339 178.395 128.161 178.49C127.985 178.583 127.845 178.712 127.742 178.878C127.642 179.042 127.591 179.229 127.591 179.44V182.388H126.875ZM132.371 177.729V178.335H129.957V177.729H132.371ZM130.66 176.613H131.376V181.053C131.376 181.255 131.405 181.407 131.464 181.508C131.525 181.607 131.602 181.674 131.694 181.708C131.79 181.74 131.89 181.757 131.995 181.757C132.074 181.757 132.139 181.752 132.189 181.745C132.24 181.734 132.28 181.726 132.311 181.72L132.456 182.363C132.408 182.381 132.34 182.4 132.253 182.418C132.166 182.438 132.056 182.448 131.922 182.448C131.72 182.448 131.522 182.405 131.328 182.318C131.136 182.231 130.976 182.098 130.848 181.92C130.723 181.743 130.66 181.518 130.66 181.247V176.613Z" fill="#171923"/>
</g>
<path d="M272.703 164.086H193.394V194.59H272.703V164.086Z" fill="white"/>
<path d="M239.759 174.457H204.375C203.701 174.457 203.155 175.003 203.155 175.677V182.998C203.155 183.672 203.701 184.218 204.375 184.218H239.759C240.433 184.218 240.979 183.672 240.979 182.998V175.677C240.979 175.003 240.433 174.457 239.759 174.457Z" fill="#38A169"/>
<path d="M206.18 181.778V176.454H208.078C208.492 176.454 208.835 176.529 209.107 176.68C209.379 176.831 209.583 177.037 209.719 177.299C209.853 177.559 209.921 177.852 209.921 178.178C209.921 178.505 209.853 178.8 209.716 179.062C209.581 179.321 209.376 179.528 209.102 179.68C208.83 179.831 208.487 179.906 208.075 179.906H206.77V179.225H208.002C208.264 179.225 208.476 179.18 208.639 179.09C208.802 178.998 208.922 178.874 208.998 178.716C209.074 178.558 209.113 178.379 209.113 178.178C209.113 177.976 209.074 177.798 208.998 177.642C208.922 177.486 208.802 177.364 208.637 177.275C208.474 177.187 208.259 177.143 207.992 177.143H206.984V181.778H206.18ZM210.863 181.778V176.454H214.201V177.145H211.666V178.767H214.027V179.457H211.666V181.086H214.232V181.778H210.863ZM215.274 181.778V176.454H217.172C217.584 176.454 217.927 176.525 218.199 176.667C218.473 176.809 218.677 177.006 218.812 177.257C218.947 177.507 219.015 177.796 219.015 178.123C219.015 178.449 218.947 178.736 218.81 178.983C218.675 179.229 218.47 179.421 218.196 179.558C217.924 179.695 217.582 179.763 217.169 179.763H215.731V179.072H217.096C217.356 179.072 217.568 179.035 217.731 178.96C217.895 178.886 218.016 178.777 218.092 178.635C218.168 178.493 218.207 178.322 218.207 178.123C218.207 177.922 218.168 177.747 218.089 177.6C218.013 177.453 217.893 177.34 217.728 177.262C217.565 177.182 217.351 177.143 217.086 177.143H216.077V181.778H215.274ZM217.902 179.376L219.218 181.778H218.303L217.013 179.376H217.902ZM219.992 181.778V176.454H223.294V177.145H220.796V178.767H223.058V179.457H220.796V181.778H219.992ZM224.282 181.778V176.454H227.62V177.145H225.085V178.767H227.446V179.457H225.085V181.086H227.651V181.778H224.282ZM233.116 178.185H232.304C232.273 178.012 232.215 177.86 232.13 177.728C232.045 177.596 231.941 177.484 231.818 177.392C231.695 177.301 231.557 177.231 231.405 177.184C231.254 177.137 231.094 177.114 230.924 177.114C230.617 177.114 230.342 177.192 230.1 177.345C229.859 177.5 229.668 177.726 229.528 178.024C229.389 178.322 229.32 178.686 229.32 179.116C229.32 179.55 229.389 179.915 229.528 180.213C229.668 180.511 229.86 180.737 230.102 180.889C230.345 181.042 230.618 181.118 230.921 181.118C231.09 181.118 231.249 181.096 231.399 181.05C231.552 181.003 231.69 180.935 231.813 180.845C231.936 180.754 232.04 180.645 232.125 180.515C232.211 180.383 232.271 180.232 232.304 180.063L233.116 180.065C233.072 180.327 232.988 180.568 232.863 180.787C232.74 181.006 232.582 181.195 232.388 181.354C232.195 181.512 231.975 181.634 231.727 181.721C231.479 181.807 231.209 181.851 230.916 181.851C230.455 181.851 230.044 181.742 229.684 181.523C229.323 181.304 229.039 180.989 228.831 180.58C228.625 180.171 228.522 179.683 228.522 179.116C228.522 178.548 228.625 178.06 228.833 177.652C229.041 177.243 229.326 176.93 229.686 176.712C230.047 176.491 230.457 176.381 230.916 176.381C231.199 176.381 231.462 176.422 231.706 176.503C231.952 176.583 232.174 176.701 232.369 176.857C232.565 177.011 232.727 177.2 232.856 177.423C232.984 177.646 233.07 177.899 233.116 178.185ZM233.814 177.145V176.454H237.935V177.145H236.273V181.778H235.473V177.145H233.814Z" fill="white"/>
</g>
<path d="M265.382 55.7969H61.6176C59.7644 55.7969 58.2621 57.2991 58.2621 59.1523V190.928C58.2621 192.782 59.7644 194.284 61.6176 194.284H265.382C267.236 194.284 268.738 192.782 268.738 190.928V59.1523C268.738 57.2991 267.236 55.7969 265.382 55.7969Z" stroke="#D8DFE5" stroke-opacity="0.8"/>
</g>
<g filter="url(#filter10_dd_1043_25100)">
<path d="M298.937 128.701H178.142C176.12 128.701 174.481 130.34 174.481 132.362V220.212C174.481 222.234 176.12 223.873 178.142 223.873H298.937C300.958 223.873 302.597 222.234 302.597 220.212V132.362C302.597 130.34 300.958 128.701 298.937 128.701Z" fill="white"/>
<path d="M189.123 148.224C190.471 148.224 191.563 147.132 191.563 145.784C191.563 144.436 190.471 143.344 189.123 143.344C187.775 143.344 186.683 144.436 186.683 145.784C186.683 147.132 187.775 148.224 189.123 148.224Z" fill="#38A169"/>
<path d="M216.7 162.033H217.434L217.437 161.156C219.087 161.035 220.031 160.092 220.031 158.828C220.031 157.389 218.748 156.831 217.734 156.582L217.449 156.508L217.457 154.004C218.186 154.102 218.686 154.508 218.759 155.147H219.922C219.89 153.957 218.908 153.068 217.461 152.951L217.465 152.051H216.731L216.728 152.959C215.328 153.099 214.302 153.973 214.302 155.233C214.302 156.344 215.098 156.995 216.381 157.343L216.716 157.432L216.708 160.088C215.948 159.994 215.359 159.581 215.297 158.828H214.087C214.162 160.173 215.133 161.039 216.705 161.156L216.7 162.033ZM217.442 160.088L217.449 157.635C218.241 157.853 218.837 158.142 218.837 158.817C218.837 159.499 218.268 159.979 217.442 160.088ZM216.72 156.313C216.139 156.141 215.499 155.833 215.503 155.163C215.503 154.578 215.967 154.121 216.724 154.009L216.72 156.313ZM224.392 153.049H223.218L221.225 154.351V155.506L223.136 154.258H223.182V161.035H224.392V153.049ZM229.333 161.145C230.962 161.145 232.16 160.17 232.155 158.844C232.16 157.834 231.547 157.108 230.487 156.945V156.882C231.321 156.668 231.863 156.013 231.859 155.116C231.863 153.942 230.9 152.94 229.364 152.94C227.897 152.94 226.72 153.825 226.681 155.124H227.846C227.874 154.39 228.564 153.946 229.348 153.946C230.163 153.946 230.697 154.441 230.693 155.178C230.697 155.95 230.077 156.457 229.192 156.457H228.517V157.44H229.192C230.3 157.44 230.939 158.001 230.939 158.805C230.939 159.581 230.264 160.107 229.325 160.107C228.459 160.107 227.784 159.663 227.737 158.953H226.513C226.563 160.256 227.718 161.145 229.333 161.145ZM236.328 161.145C237.99 161.145 239.163 160.201 239.171 158.906C239.163 157.9 238.457 157.054 237.564 156.894V156.847C238.34 156.66 238.867 155.931 238.875 155.069C238.867 153.848 237.791 152.94 236.328 152.94C234.85 152.94 233.774 153.848 233.782 155.069C233.774 155.927 234.3 156.66 235.092 156.847V156.894C234.183 157.054 233.477 157.9 233.485 158.906C233.477 160.201 234.651 161.145 236.328 161.145ZM236.328 160.158C235.33 160.158 234.698 159.627 234.706 158.828C234.698 157.998 235.384 157.405 236.328 157.405C237.256 157.405 237.943 157.998 237.95 158.828C237.943 159.627 237.315 160.158 236.328 160.158ZM236.328 156.441C235.521 156.441 234.948 155.931 234.956 155.17C234.948 154.422 235.502 153.926 236.328 153.926C237.139 153.926 237.693 154.422 237.701 155.17C237.693 155.931 237.124 156.441 236.328 156.441ZM241.854 159.943H240.731L240.692 160.38C240.602 161.437 240.352 162.501 240.247 162.985H241.074C241.261 162.475 241.674 161.304 241.796 160.369L241.854 159.943ZM245.992 161.145C247.599 161.145 248.746 160.01 248.741 158.454C248.746 156.909 247.67 155.786 246.215 155.786C245.622 155.786 245.072 156.013 244.76 156.317H244.713L244.967 154.082H248.356V153.049H243.965L243.516 157.074L244.62 157.237C244.92 156.968 245.458 156.785 245.942 156.785C246.889 156.792 247.576 157.502 247.576 158.477C247.576 159.436 246.909 160.131 245.992 160.131C245.22 160.131 244.608 159.64 244.546 158.953H243.376C243.423 160.224 244.526 161.145 245.992 161.145ZM252.954 161.145C254.623 161.16 255.731 159.959 255.727 158.427C255.731 156.898 254.62 155.802 253.235 155.802C252.393 155.802 251.664 156.208 251.254 156.882H251.196C251.199 155.069 251.886 153.993 253.056 153.993C253.824 153.993 254.307 154.461 254.471 155.124H255.66C255.477 153.86 254.483 152.94 253.056 152.94C251.199 152.94 250.042 154.534 250.042 157.311C250.037 160.251 251.535 161.133 252.954 161.145ZM252.95 160.131C252.022 160.131 251.343 159.351 251.343 158.454C251.348 157.561 252.057 156.781 252.978 156.781C253.89 156.781 254.561 157.518 254.557 158.442C254.561 159.386 253.863 160.131 252.95 160.131ZM259.928 161.168C261.772 161.168 262.852 159.663 262.852 157.046C262.852 154.449 261.757 152.94 259.928 152.94C258.095 152.94 257.003 154.445 256.999 157.046C256.999 159.659 258.079 161.164 259.928 161.168ZM259.928 160.127C258.847 160.127 258.196 159.043 258.196 157.046C258.2 155.057 258.852 153.962 259.928 153.962C261 153.962 261.656 155.057 261.656 157.046C261.656 159.043 261.004 160.127 259.928 160.127Z" fill="#171923"/>
<path d="M206.505 174.276C206.505 175.805 206.918 177.078 207.658 178.158H208.289C207.706 177.358 207.245 175.72 207.245 174.276C207.245 172.832 207.706 171.194 208.289 170.394H207.658C206.918 171.474 206.505 172.747 206.505 174.276ZM209.442 176.897H210.133V176.181H210.218C210.376 176.435 210.679 176.994 211.577 176.994C212.742 176.994 213.555 176.06 213.555 174.58C213.555 173.111 212.742 172.177 211.565 172.177C210.655 172.177 210.376 172.735 210.218 172.978H210.158V170.685H209.442V176.897ZM210.146 174.567C210.146 173.524 210.606 172.82 211.48 172.82C212.39 172.82 212.839 173.585 212.839 174.567C212.839 175.562 212.378 176.351 211.48 176.351C210.618 176.351 210.146 175.623 210.146 174.567ZM216.603 176.994C217.549 176.994 218.241 176.521 218.459 175.817L217.767 175.623C217.586 176.108 217.164 176.351 216.603 176.351C215.763 176.351 215.183 175.808 215.15 174.81H218.532V174.506C218.532 172.772 217.501 172.177 216.53 172.177C215.268 172.177 214.431 173.172 214.431 174.603C214.431 176.035 215.256 176.994 216.603 176.994ZM215.15 174.191C215.198 173.466 215.711 172.82 216.53 172.82C217.307 172.82 217.804 173.403 217.804 174.191H215.15ZM221.647 172.238H220.652V171.122H219.936V172.238H219.233V172.844H219.936V175.756C219.936 176.569 220.591 176.957 221.198 176.957C221.465 176.957 221.635 176.909 221.732 176.872L221.586 176.229C221.525 176.241 221.428 176.266 221.27 176.266C220.955 176.266 220.652 176.169 220.652 175.562V172.844H221.647V172.238ZM224.75 172.238H223.755V171.122H223.039V172.238H222.335V172.844H223.039V175.756C223.039 176.569 223.694 176.957 224.301 176.957C224.568 176.957 224.737 176.909 224.834 176.872L224.689 176.229C224.628 176.241 224.531 176.266 224.373 176.266C224.058 176.266 223.755 176.169 223.755 175.562V172.844H224.75V172.238ZM227.729 176.994C228.676 176.994 229.367 176.521 229.586 175.817L228.895 175.623C228.712 176.108 228.291 176.351 227.729 176.351C226.889 176.351 226.31 175.808 226.277 174.81H229.658V174.506C229.658 172.772 228.627 172.177 227.657 172.177C226.395 172.177 225.558 173.172 225.558 174.603C225.558 176.035 226.383 176.994 227.729 176.994ZM226.277 174.191C226.325 173.466 226.838 172.82 227.657 172.82C228.433 172.82 228.93 173.403 228.93 174.191H226.277ZM230.747 176.897H231.463V173.949C231.463 173.318 231.961 172.857 232.64 172.857C232.831 172.857 233.028 172.893 233.077 172.905V172.177C232.995 172.171 232.807 172.165 232.701 172.165C232.143 172.165 231.658 172.48 231.487 172.941H231.439V172.238H230.747V176.897ZM238.354 172.238H237.359V171.122H236.643V172.238H235.939V172.844H236.643V175.756C236.643 176.569 237.298 176.957 237.905 176.957C238.171 176.957 238.342 176.909 238.439 176.872L238.293 176.229C238.232 176.241 238.135 176.266 237.977 176.266C237.662 176.266 237.359 176.169 237.359 175.562V172.844H238.354V172.238ZM240.246 174.094C240.246 173.281 240.765 172.82 241.471 172.82C242.145 172.82 242.551 173.245 242.551 173.985V176.897H243.267V173.937C243.267 172.738 242.63 172.177 241.678 172.177C240.943 172.177 240.525 172.483 240.307 172.966H240.246V170.685H239.531V176.897H240.246V174.094ZM245.947 177.006C246.761 177.006 247.185 176.569 247.33 176.266H247.367V176.897H248.083V173.827C248.083 172.347 246.955 172.177 246.36 172.177C245.656 172.177 244.856 172.42 244.492 173.269L245.171 173.512C245.329 173.172 245.702 172.808 246.384 172.808C247.042 172.808 247.367 173.157 247.367 173.754V173.779C247.367 174.124 247.015 174.094 246.166 174.203C245.301 174.315 244.358 174.506 244.358 175.574C244.358 176.484 245.062 177.006 245.947 177.006ZM246.057 176.363C245.487 176.363 245.074 176.108 245.074 175.611C245.074 175.065 245.571 174.895 246.13 174.822C246.433 174.786 247.246 174.701 247.367 174.555V175.21C247.367 175.792 246.906 176.363 246.057 176.363ZM250.105 174.094C250.105 173.281 250.608 172.82 251.294 172.82C251.958 172.82 252.362 173.254 252.362 173.985V176.897H253.077V173.937C253.077 172.747 252.443 172.177 251.5 172.177C250.797 172.177 250.36 172.492 250.142 172.966H250.081V172.238H249.389V176.897H250.105V174.094ZM258.717 176.981C259.9 176.981 260.767 176.108 260.767 174.919C260.767 173.715 259.93 172.832 258.789 172.832C258.371 172.832 257.965 172.981 257.71 173.184H257.673L257.891 171.352H260.488V170.685H257.261L256.885 173.743L257.588 173.827C257.846 173.642 258.286 173.509 258.668 173.512C259.46 173.518 260.039 174.118 260.039 174.931C260.039 175.729 259.481 176.314 258.717 176.314C258.08 176.314 257.573 175.905 257.516 175.344H256.788C256.833 176.29 257.649 176.981 258.717 176.981ZM265.138 175.732C265.138 176.412 265.563 176.981 266.351 176.981C267.128 176.981 267.552 176.412 267.552 175.732V175.404C267.552 174.725 267.14 174.155 266.351 174.155C265.575 174.155 265.138 174.725 265.138 175.404V175.732ZM262.045 172.177C262.045 172.857 262.469 173.427 263.258 173.427C264.034 173.427 264.459 172.857 264.459 172.177V171.849C264.459 171.17 264.046 170.6 263.258 170.6C262.482 170.6 262.045 171.17 262.045 171.849V172.177ZM262.275 176.897H262.967L267.237 170.685H266.546L262.275 176.897ZM265.757 175.404C265.757 175.029 265.927 174.677 266.351 174.677C266.788 174.677 266.934 175.029 266.934 175.404V175.732C266.934 176.108 266.776 176.46 266.351 176.46C265.915 176.46 265.757 176.108 265.757 175.732V175.404ZM262.663 171.849C262.663 171.474 262.833 171.122 263.258 171.122C263.694 171.122 263.84 171.474 263.84 171.849V172.177C263.84 172.553 263.682 172.905 263.258 172.905C262.821 172.905 262.663 172.553 262.663 172.177V171.849ZM270.452 173.791C270.452 172.262 270.04 170.988 269.3 169.908H268.669C269.251 170.709 269.712 172.347 269.712 173.791C269.712 175.235 269.251 176.872 268.669 177.673H269.3C270.04 176.593 270.452 175.32 270.452 173.791Z" fill="#2D3748"/>
<path d="M186.683 209.231L193.165 208.934L199.647 207.038L206.129 206.979L212.611 204.785L219.093 202.296L225.575 203.244L232.057 198.029L238.539 200.874L245.021 197.554L251.503 196.962L257.985 193.287L264.467 194.947L270.949 189.493L277.431 190.679L283.913 189.493L289.344 186.658" stroke="#B794F4" stroke-width="2"/>
<path d="M288.565 188.489C289.576 188.489 290.396 187.669 290.396 186.658C290.396 185.648 289.576 184.828 288.565 184.828C287.555 184.828 286.735 185.648 286.735 186.658C286.735 187.669 287.555 188.489 288.565 188.489Z" fill="#6B46C1"/>
<path d="M298.937 129.006H178.142C176.289 129.006 174.786 130.508 174.786 132.361V220.212C174.786 222.065 176.289 223.567 178.142 223.567H298.937C300.79 223.567 302.292 222.065 302.292 220.212V132.361C302.292 130.508 300.79 129.006 298.937 129.006Z" stroke="#D8DFE5" stroke-opacity="0.8"/>
</g>
<defs>
<filter id="filter0_dd_1043_25100" x="43.7621" y="49.2969" width="239.476" height="167.486" filterUnits="userSpaceOnUse" color-interpolation-filters="sRGB">
<feFlood flood-opacity="0" result="BackgroundImageFix"/>
<feColorMatrix in="SourceAlpha" type="matrix" values="0 0 0 0 0 0 0 0 0 0 0 0 0 0 0 0 0 0 127 0" result="hardAlpha"/>
<feOffset dy="8"/>
<feGaussianBlur stdDeviation="7"/>
<feComposite in2="hardAlpha" operator="out"/>
<feColorMatrix type="matrix" values="0 0 0 0 0 0 0 0 0 0 0 0 0 0 0 0 0 0 0.08 0"/>
<feBlend mode="normal" in2="BackgroundImageFix" result="effect1_dropShadow_1043_25100"/>
<feColorMatrix in="SourceAlpha" type="matrix" values="0 0 0 0 0 0 0 0 0 0 0 0 0 0 0 0 0 0 127 0" result="hardAlpha"/>
<feOffset dy="2"/>
<feGaussianBlur stdDeviation="0.5"/>
<feComposite in2="hardAlpha" operator="out"/>
<feColorMatrix type="matrix" values="0 0 0 0 0 0 0 0 0 0 0 0 0 0 0 0 0 0 0.06 0"/>
<feBlend mode="normal" in2="effect1_dropShadow_1043_25100" result="effect2_dropShadow_1043_25100"/>
<feBlend mode="normal" in="SourceGraphic" in2="effect2_dropShadow_1043_25100" result="shape"/>
</filter>
<filter id="filter1_d_1043_25100" x="57.9571" y="54.4922" width="214.746" height="18.082" filterUnits="userSpaceOnUse" color-interpolation-filters="sRGB">
<feFlood flood-opacity="0" result="BackgroundImageFix"/>
<feColorMatrix in="SourceAlpha" type="matrix" values="0 0 0 0 0 0 0 0 0 0 0 0 0 0 0 0 0 0 127 0" result="hardAlpha"/>
<feOffset dy="-1"/>
<feComposite in2="hardAlpha" operator="out"/>
<feColorMatrix type="matrix" values="0 0 0 0 0.796078 0 0 0 0 0.835294 0 0 0 0 0.878431 0 0 0 1 0"/>
<feBlend mode="normal" in2="BackgroundImageFix" result="effect1_dropShadow_1043_25100"/>
<feBlend mode="normal" in="SourceGraphic" in2="effect1_dropShadow_1043_25100" result="shape"/>
</filter>
<filter id="filter2_d_1043_25100" x="56.9571" y="55.4922" width="136.437" height="17.082" filterUnits="userSpaceOnUse" color-interpolation-filters="sRGB">
<feFlood flood-opacity="0" result="BackgroundImageFix"/>
<feColorMatrix in="SourceAlpha" type="matrix" values="0 0 0 0 0 0 0 0 0 0 0 0 0 0 0 0 0 0 127 0" result="hardAlpha"/>
<feOffset dx="-1"/>
<feComposite in2="hardAlpha" operator="out"/>
<feColorMatrix type="matrix" values="0 0 0 0 0.796078 0 0 0 0 0.835294 0 0 0 0 0.878431 0 0 0 1 0"/>
<feBlend mode="normal" in2="BackgroundImageFix" result="effect1_dropShadow_1043_25100"/>
<feBlend mode="normal" in="SourceGraphic" in2="effect1_dropShadow_1043_25100" result="shape"/>
</filter>
<filter id="filter3_d_1043_25100" x="57.9571" y="71.5742" width="214.746" height="31.5039" filterUnits="userSpaceOnUse" color-interpolation-filters="sRGB">
<feFlood flood-opacity="0" result="BackgroundImageFix"/>
<feColorMatrix in="SourceAlpha" type="matrix" values="0 0 0 0 0 0 0 0 0 0 0 0 0 0 0 0 0 0 127 0" result="hardAlpha"/>
<feOffset dy="-1"/>
<feComposite in2="hardAlpha" operator="out"/>
<feColorMatrix type="matrix" values="0 0 0 0 0.796078 0 0 0 0 0.835294 0 0 0 0 0.878431 0 0 0 1 0"/>
<feBlend mode="normal" in2="BackgroundImageFix" result="effect1_dropShadow_1043_25100"/>
<feBlend mode="normal" in="SourceGraphic" in2="effect1_dropShadow_1043_25100" result="shape"/>
</filter>
<filter id="filter4_d_1043_25100" x="56.9571" y="72.5742" width="136.437" height="30.5039" filterUnits="userSpaceOnUse" color-interpolation-filters="sRGB">
<feFlood flood-opacity="0" result="BackgroundImageFix"/>
<feColorMatrix in="SourceAlpha" type="matrix" values="0 0 0 0 0 0 0 0 0 0 0 0 0 0 0 0 0 0 127 0" result="hardAlpha"/>
<feOffset dx="-1"/>
<feComposite in2="hardAlpha" operator="out"/>
<feColorMatrix type="matrix" values="0 0 0 0 0.796078 0 0 0 0 0.835294 0 0 0 0 0.878431 0 0 0 1 0"/>
<feBlend mode="normal" in2="BackgroundImageFix" result="effect1_dropShadow_1043_25100"/>
<feBlend mode="normal" in="SourceGraphic" in2="effect1_dropShadow_1043_25100" result="shape"/>
</filter>
<filter id="filter5_d_1043_25100" x="57.9571" y="102.078" width="214.746" height="31.5039" filterUnits="userSpaceOnUse" color-interpolation-filters="sRGB">
<feFlood flood-opacity="0" result="BackgroundImageFix"/>
<feColorMatrix in="SourceAlpha" type="matrix" values="0 0 0 0 0 0 0 0 0 0 0 0 0 0 0 0 0 0 127 0" result="hardAlpha"/>
<feOffset dy="-1"/>
<feComposite in2="hardAlpha" operator="out"/>
<feColorMatrix type="matrix" values="0 0 0 0 0.796078 0 0 0 0 0.835294 0 0 0 0 0.878431 0 0 0 1 0"/>
<feBlend mode="normal" in2="BackgroundImageFix" result="effect1_dropShadow_1043_25100"/>
<feBlend mode="normal" in="SourceGraphic" in2="effect1_dropShadow_1043_25100" result="shape"/>
</filter>
<filter id="filter6_d_1043_25100" x="56.9571" y="103.078" width="136.437" height="30.5039" filterUnits="userSpaceOnUse" color-interpolation-filters="sRGB">
<feFlood flood-opacity="0" result="BackgroundImageFix"/>
<feColorMatrix in="SourceAlpha" type="matrix" values="0 0 0 0 0 0 0 0 0 0 0 0 0 0 0 0 0 0 127 0" result="hardAlpha"/>
<feOffset dx="-1"/>
<feComposite in2="hardAlpha" operator="out"/>
<feColorMatrix type="matrix" values="0 0 0 0 0.796078 0 0 0 0 0.835294 0 0 0 0 0.878431 0 0 0 1 0"/>
<feBlend mode="normal" in2="BackgroundImageFix" result="effect1_dropShadow_1043_25100"/>
<feBlend mode="normal" in="SourceGraphic" in2="effect1_dropShadow_1043_25100" result="shape"/>
</filter>
<filter id="filter7_d_1043_25100" x="57.9571" y="132.582" width="214.746" height="31.5039" filterUnits="userSpaceOnUse" color-interpolation-filters="sRGB">
<feFlood flood-opacity="0" result="BackgroundImageFix"/>
<feColorMatrix in="SourceAlpha" type="matrix" values="0 0 0 0 0 0 0 0 0 0 0 0 0 0 0 0 0 0 127 0" result="hardAlpha"/>
<feOffset dy="-1"/>
<feComposite in2="hardAlpha" operator="out"/>
<feColorMatrix type="matrix" values="0 0 0 0 0.796078 0 0 0 0 0.835294 0 0 0 0 0.878431 0 0 0 1 0"/>
<feBlend mode="normal" in2="BackgroundImageFix" result="effect1_dropShadow_1043_25100"/>
<feBlend mode="normal" in="SourceGraphic" in2="effect1_dropShadow_1043_25100" result="shape"/>
</filter>
<filter id="filter8_d_1043_25100" x="56.9571" y="133.582" width="136.437" height="30.5039" filterUnits="userSpaceOnUse" color-interpolation-filters="sRGB">
<feFlood flood-opacity="0" result="BackgroundImageFix"/>
<feColorMatrix in="SourceAlpha" type="matrix" values="0 0 0 0 0 0 0 0 0 0 0 0 0 0 0 0 0 0 127 0" result="hardAlpha"/>
<feOffset dx="-1"/>
<feComposite in2="hardAlpha" operator="out"/>
<feColorMatrix type="matrix" values="0 0 0 0 0.796078 0 0 0 0 0.835294 0 0 0 0 0.878431 0 0 0 1 0"/>
<feBlend mode="normal" in2="BackgroundImageFix" result="effect1_dropShadow_1043_25100"/>
<feBlend mode="normal" in="SourceGraphic" in2="effect1_dropShadow_1043_25100" result="shape"/>
</filter>
<filter id="filter9_d_1043_25100" x="56.9571" y="164.086" width="136.437" height="30.5039" filterUnits="userSpaceOnUse" color-interpolation-filters="sRGB">
<feFlood flood-opacity="0" result="BackgroundImageFix"/>
<feColorMatrix in="SourceAlpha" type="matrix" values="0 0 0 0 0 0 0 0 0 0 0 0 0 0 0 0 0 0 127 0" result="hardAlpha"/>
<feOffset dx="-1"/>
<feComposite in2="hardAlpha" operator="out"/>
<feColorMatrix type="matrix" values="0 0 0 0 0.796078 0 0 0 0 0.835294 0 0 0 0 0.878431 0 0 0 1 0"/>
<feBlend mode="normal" in2="BackgroundImageFix" result="effect1_dropShadow_1043_25100"/>
<feBlend mode="normal" in="SourceGraphic" in2="effect1_dropShadow_1043_25100" result="shape"/>
</filter>
<filter id="filter10_dd_1043_25100" x="160.286" y="122.506" width="156.506" height="123.562" filterUnits="userSpaceOnUse" color-interpolation-filters="sRGB">
<feFlood flood-opacity="0" result="BackgroundImageFix"/>
<feColorMatrix in="SourceAlpha" type="matrix" values="0 0 0 0 0 0 0 0 0 0 0 0 0 0 0 0 0 0 127 0" result="hardAlpha"/>
<feOffset dy="8"/>
<feGaussianBlur stdDeviation="7"/>
<feComposite in2="hardAlpha" operator="out"/>
<feColorMatrix type="matrix" values="0 0 0 0 0 0 0 0 0 0 0 0 0 0 0 0 0 0 0.08 0"/>
<feBlend mode="normal" in2="BackgroundImageFix" result="effect1_dropShadow_1043_25100"/>
<feColorMatrix in="SourceAlpha" type="matrix" values="0 0 0 0 0 0 0 0 0 0 0 0 0 0 0 0 0 0 127 0" result="hardAlpha"/>
<feOffset dy="2"/>
<feGaussianBlur stdDeviation="0.5"/>
<feComposite in2="hardAlpha" operator="out"/>
<feColorMatrix type="matrix" values="0 0 0 0 0 0 0 0 0 0 0 0 0 0 0 0 0 0 0.06 0"/>
<feBlend mode="normal" in2="effect1_dropShadow_1043_25100" result="effect2_dropShadow_1043_25100"/>
<feBlend mode="normal" in="SourceGraphic" in2="effect2_dropShadow_1043_25100" result="shape"/>
</filter>
</defs>
</svg>
