<svg width="145" height="20" viewBox="0 0 145 20" fill="none" xmlns="http://www.w3.org/2000/svg">
    <g clip-path="url(#clip0_1717_13122)">
        <path d="M34.21 12.3285V1.77052H37.399V18.7455H35.4099V18.7771L26.5057 7.33402V18.7771H23.3167V1.80213H25.9057L34.21 12.3285ZM56.3756 1.83374H59.533V11.5382C59.533 13.9722 58.87 15.8373 57.5123 17.1649C56.1861 18.4609 54.3863 19.1248 52.1761 19.1248C50.029 19.1248 48.2293 18.4609 46.8083 17.1649C45.3875 15.8689 44.6613 13.9722 44.6613 11.5382V1.83374H47.8188V11.5382C47.8188 13.0555 48.2293 14.1935 49.0187 15.0154C49.808 15.8373 50.8815 16.2166 52.2077 16.2166C53.5022 16.2166 54.5442 15.8056 55.2704 14.9838C55.9967 14.1619 56.344 13.024 56.344 11.5382V1.83374H56.3756ZM80.0251 4.58387L77.4993 5.87992C77.1835 5.37414 76.6782 4.93159 75.9204 4.55226C75.1942 4.17294 74.3733 3.98327 73.4891 3.98327C72.3524 3.98327 71.4684 4.20454 70.8684 4.61549C70.2686 5.02643 69.9843 5.56381 69.9843 6.22764C69.9843 6.70179 70.1738 7.08112 70.5527 7.36563C70.9316 7.65012 71.3736 7.87139 71.8473 7.99784C72.3524 8.12427 72.984 8.25072 73.7734 8.34556C74.5627 8.44038 75.2574 8.56683 75.8573 8.69327C76.4573 8.81971 77.0571 9.00938 77.6887 9.29387C78.3202 9.54676 78.8254 9.86286 79.2359 10.2422C79.6463 10.5899 79.9621 11.0957 80.2147 11.6963C80.4673 12.2969 80.5935 12.9923 80.5935 13.7826C80.5935 14.9838 80.2462 16.0269 79.5831 16.8488C78.9201 17.6707 78.036 18.2713 76.994 18.6507C75.952 18.9983 74.7837 19.188 73.4891 19.188C69.7002 19.188 67.2374 17.7972 66.1007 15.0154L68.7529 13.6246C69.1003 14.5096 69.7317 15.1735 70.5843 15.6476C71.4368 16.0902 72.4156 16.3114 73.5208 16.3114C74.6258 16.3114 75.5731 16.0902 76.2994 15.6793C77.0256 15.2683 77.4044 14.6361 77.4044 13.7509C77.4044 12.3601 76.1099 11.5382 73.4891 11.2537C72.5103 11.1273 71.6578 11.0009 70.9631 10.8112C70.2686 10.6215 69.5739 10.337 68.8793 9.98931C68.2162 9.60998 67.6794 9.10422 67.3321 8.47199C66.9848 7.83978 66.8269 7.04951 66.8269 6.1328C66.8269 5.02643 67.1742 4.10972 67.8373 3.31945C68.5003 2.52918 69.3213 1.9918 70.2686 1.6757C71.2157 1.35958 72.2577 1.20153 73.3629 1.16992C76.7099 1.23314 78.9201 2.33952 80.0251 4.58387ZM99.0649 1.83374H102.222V11.5382C102.222 13.9722 101.559 15.8373 100.202 17.1649C98.8754 18.4609 97.0756 19.1248 94.8654 19.1248C92.7183 19.1248 90.9186 18.4609 89.4977 17.1649C88.0768 15.8689 87.3506 13.9722 87.3506 11.5382V1.83374H90.5081V11.5382C90.5081 13.0555 90.9186 14.1935 91.708 15.0154C92.4973 15.8373 93.5708 16.2166 94.897 16.2166C96.1915 16.2166 97.2335 15.8056 97.9597 14.9838C98.686 14.1619 99.0333 13.024 99.0333 11.5382V1.83374H99.0649ZM111.411 18.7455H107.937L115.547 1.80213H119.02L126.629 18.7455H123.157L117.315 5.37414L111.411 18.7455ZM132.187 1.80213H135.377V15.8056H144.091V18.7455H132.187V1.80213ZM12.4233 1.83374H15.5808V11.5382C15.5808 13.9722 14.9177 15.8373 13.56 17.1649C12.2338 18.4609 10.4341 19.1248 8.22382 19.1248C6.07671 19.1248 4.27695 18.4609 2.85608 17.1649C1.4352 15.8689 0.708984 13.9722 0.708984 11.5382V1.83374H3.86648V11.5382C3.86648 13.0555 4.27695 14.1935 5.06632 15.0154C5.85569 15.8373 6.92924 16.2166 8.25539 16.2166C9.54996 16.2166 10.5919 15.8056 11.3181 14.9838C12.0444 14.1619 12.3917 13.024 12.3917 11.5382V1.83374H12.4233Z" fill="white"/>
    </g>
    <defs>
        <clipPath id="clip0_1717_13122">
            <rect width="143.529" height="20" fill="white" transform="translate(0.619141)"/>
        </clipPath>
    </defs>
</svg>
