<svg width="40" height="40" viewBox="0 0 40 40" fill="none" xmlns="http://www.w3.org/2000/svg">
<g clip-path="url(#clip0_780_52839)">
<path d="M13.75 20H26.25" stroke="#54ABA3" stroke-width="2" stroke-miterlimit="10"/>
<path d="M20 26.25C21.3807 26.25 22.5 23.4518 22.5 20C22.5 16.5482 21.3807 13.75 20 13.75C18.6193 13.75 17.5 16.5482 17.5 20C17.5 23.4518 18.6193 26.25 20 26.25Z" stroke="#54ABA3" stroke-width="2" stroke-miterlimit="10"/>
<path d="M2.83203 26.7904C4.27572 22.2907 7.58459 17.0662 12.3252 12.3257L12.3244 12.3249C13.7706 10.8788 15.2618 9.56581 16.7637 8.39844" stroke="#54ABA3" stroke-width="2" stroke-miterlimit="10"/>
<path d="M37.1661 13.209C35.7224 17.7086 32.4135 22.9331 27.6729 27.6737L27.6737 27.6744C26.2275 29.1206 24.7363 30.4335 23.2344 31.6009" stroke="#54ABA3" stroke-width="2" stroke-miterlimit="10"/>
<path d="M19.9938 33.8879C18.7874 34.6537 17.5899 35.3197 16.4194 35.8792C11.0569 38.4428 6.25863 38.7747 3.7427 36.2587L3.74195 36.258C2.21707 34.7331 1.73832 32.3698 2.16851 29.5508" stroke="#54ABA3" stroke-width="2" stroke-miterlimit="10"/>
<path d="M6.40036 25.2068L2.83211 26.7909L1.24805 23.2227" stroke="#54ABA3" stroke-width="2" stroke-miterlimit="10"/>
<path d="M20.0039 6.11277C21.2103 5.34695 22.4078 4.68102 23.5783 4.12145C28.9408 1.55789 33.7391 1.22602 36.255 3.74195L36.2558 3.7427C37.7807 5.26758 38.2594 7.63083 37.8292 10.4499" stroke="#54ABA3" stroke-width="2" stroke-miterlimit="10"/>
<path d="M6.11282 19.9938C5.34701 18.7874 4.68107 17.5899 4.12151 16.4194C1.55789 11.0569 1.22601 6.25863 3.74195 3.7427L3.7427 3.74195C5.26757 2.21707 7.63082 1.73832 10.4499 2.16851" stroke="#54ABA3" stroke-width="2" stroke-miterlimit="10"/>
<path d="M13.209 2.83203C17.7086 4.27572 22.9331 7.58459 27.6737 12.3252L27.6744 12.3244C29.1206 13.7706 30.4335 15.2618 31.6009 16.7637" stroke="#54ABA3" stroke-width="2" stroke-miterlimit="10"/>
<path d="M33.886 20.0059C34.6518 21.2123 35.3177 22.4097 35.8773 23.5803C38.4408 28.9428 38.7727 33.741 36.2568 36.257L36.256 36.2577C34.7311 37.7826 32.3679 38.2614 29.5488 37.8312" stroke="#54ABA3" stroke-width="2" stroke-miterlimit="10"/>
<path d="M26.7904 37.1661C22.2908 35.7224 17.0663 32.4135 12.3257 27.6729L12.3249 27.6737C10.8788 26.2275 9.56581 24.7363 8.39844 23.2344" stroke="#54ABA3" stroke-width="2" stroke-miterlimit="10"/>
<path d="M20 26.25C23.4518 26.25 26.25 23.4518 26.25 20C26.25 16.5482 23.4518 13.75 20 13.75C16.5482 13.75 13.75 16.5482 13.75 20C13.75 23.4518 16.5482 26.25 20 26.25Z" stroke="#54ABA3" stroke-width="2" stroke-miterlimit="10"/>
<path d="M14.793 6.40036L13.209 2.83211L16.7772 1.24805" stroke="#54ABA3" stroke-width="2" stroke-miterlimit="10"/>
<path d="M25.2049 33.5996L26.789 37.1679L23.2207 38.7519" stroke="#54ABA3" stroke-width="2" stroke-miterlimit="10"/>
<path d="M33.5977 14.793L37.1659 13.209L38.75 16.7772" stroke="#54ABA3" stroke-width="2" stroke-miterlimit="10"/>
</g>
<defs>
<clipPath id="clip0_780_52839">
<rect width="40" height="40" fill="white"/>
</clipPath>
</defs>
</svg>
