<svg width="41" height="40" viewBox="0 0 41 40" fill="none" xmlns="http://www.w3.org/2000/svg">
<g clip-path="url(#clip0_714_44864)">
<path d="M37.834 12.5H20.334C19.6436 12.5 19.084 13.0596 19.084 13.75V35C19.084 35.6904 19.6436 36.25 20.334 36.25H37.834C38.5243 36.25 39.084 35.6904 39.084 35V13.75C39.084 13.0596 38.5243 12.5 37.834 12.5Z" stroke="#54ABA3" stroke-width="2" stroke-miterlimit="10"/>
<path d="M21.584 36.25V36.875C21.584 37.9106 22.4234 38.75 23.459 38.75C24.4945 38.75 25.334 37.9106 25.334 36.875V36.25" stroke="#54ABA3" stroke-width="2" stroke-miterlimit="10"/>
<path d="M32.834 36.25V36.875C32.834 37.9106 33.6734 38.75 34.709 38.75C35.7445 38.75 36.584 37.9106 36.584 36.875V36.25" stroke="#54ABA3" stroke-width="2" stroke-miterlimit="10"/>
<path d="M24.084 12.5V2.5C24.084 1.80963 24.6436 1.25 25.334 1.25H32.834C33.5244 1.25 34.084 1.80963 34.084 2.5V12.5" stroke="#54ABA3" stroke-width="2" stroke-miterlimit="10"/>
<path d="M36.2351 24.8882L32.9613 23.8402C31.374 23.3321 30.6118 25.7131 32.1991 26.2212L33.7864 26.7293C35.3737 27.2375 34.6115 29.6185 33.0242 29.1103L29.8496 28.0941" stroke="#54ABA3" stroke-width="2" stroke-miterlimit="10"/>
<path d="M30.4841 16.2495L22.834 19.3096L24.1926 22.7061L31.8427 19.646L30.4841 16.2495Z" stroke="#54ABA3" stroke-width="2" stroke-miterlimit="10"/>
<path d="M27.6672 30.3883V27.6294L25.2779 26.25L22.8887 27.6294V30.3883L25.2779 31.7677L27.6672 30.3883Z" stroke="#54ABA3" stroke-width="2" stroke-miterlimit="10"/>
<path d="M0.333984 25H15.334" stroke="#54ABA3" stroke-width="2" stroke-miterlimit="10"/>
<path d="M15.334 30H5.33398" stroke="#54ABA3" stroke-width="2" stroke-miterlimit="10"/>
<path d="M15.334 35H9.08398" stroke="#54ABA3" stroke-width="2" stroke-miterlimit="10"/>
<path d="M4.08398 21.25C4.08398 12.2754 11.3594 5 20.334 5" stroke="#54ABA3" stroke-width="2" stroke-miterlimit="10"/>
</g>
<defs>
<clipPath id="clip0_714_44864">
<rect width="40" height="40" fill="white" transform="translate(0.333984)"/>
</clipPath>
</defs>
</svg>
