<svg width="40" height="40" viewBox="0 0 40 40" fill="none" xmlns="http://www.w3.org/2000/svg">
<g clip-path="url(#clip0_1423_16130)">
<path d="M5.625 31.2514L11.3093 25.5671C12.0667 24.8096 13.1119 24.4124 14.1811 24.4752L18.7133 24.7419C21.0883 24.8815 22.8365 27.0212 22.5 29.3764" stroke="#54ABA3" stroke-width="2" stroke-miterlimit="10"/>
<path d="M15 29.3747H25.625L31.4471 23.5526C33.0641 21.9356 35.6859 21.9356 37.3029 23.5526L37.5 23.7497L27.3484 33.9013C26.6451 34.6046 25.6914 34.9997 24.6969 34.9997H13.125L11.25 36.8747" stroke="#54ABA3" stroke-width="2" stroke-miterlimit="10"/>
<path d="M13.125 38.75L3.75 29.375" stroke="#54ABA3" stroke-width="2" stroke-miterlimit="10"/>
<path d="M17.3205 12.9745C17.3205 14.3744 18.5199 15.5093 19.9992 15.5093C21.4786 15.5093 22.6779 14.3744 22.6779 12.9745V11.2847C22.6779 9.88481 21.4786 8.75 19.9992 8.75C18.5199 8.75 17.3205 9.88481 17.3205 11.2847V12.9745Z" stroke="#54ABA3" stroke-width="2" stroke-miterlimit="10"/>
<path d="M22.6784 21.2492H24.4643C24.9574 21.2492 25.3571 20.8494 25.3571 20.3563V19.3098C25.3571 16.7752 22.6429 15.5078 20.0003 15.5078C17.3576 15.5078 14.6424 16.7752 14.6424 19.3098V20.3563C14.6424 20.8494 15.0421 21.2492 15.5353 21.2492H22.6784Z" stroke="#54ABA3" stroke-width="2" stroke-miterlimit="10"/>
<path d="M27.1424 12.9061C27.1424 13.8394 27.9419 14.596 28.9281 14.596C29.9144 14.596 30.714 13.8394 30.714 12.9061V11.7797C30.714 10.8464 29.9145 10.0898 28.9281 10.0898C27.9419 10.0898 27.1424 10.8464 27.1424 11.7797V12.9061Z" stroke="#54ABA3" stroke-width="2" stroke-miterlimit="10"/>
<path d="M28.0351 19.4669H31.6068C32.0999 19.4669 32.4996 19.0672 32.4996 18.574V17.1323C32.4996 15.4425 30.6901 14.5977 28.9284 14.5977C27.1666 14.5977 25.3565 15.4425 25.3565 17.1323V19.0205" stroke="#54ABA3" stroke-width="2" stroke-miterlimit="10"/>
<path d="M12.8563 12.9061C12.8563 13.8394 12.0568 14.596 11.0705 14.596C10.0842 14.596 9.28467 13.8394 9.28467 12.9061V11.7797C9.28467 10.8464 10.0842 10.0898 11.0705 10.0898C12.0567 10.0898 12.8563 10.8464 12.8563 11.7797V12.9061Z" stroke="#54ABA3" stroke-width="2" stroke-miterlimit="10"/>
<path d="M11.9633 19.4669H8.39165C7.89853 19.4669 7.49878 19.0672 7.49878 18.574V17.1323C7.49878 15.4425 9.30828 14.5977 11.07 14.5977C12.8318 14.5977 14.642 15.4425 14.642 17.1323V19.0205" stroke="#54ABA3" stroke-width="2" stroke-miterlimit="10"/>
<path d="M2.21925 25.9674C1.57606 24.0496 1.25 22.0422 1.25 20.0006C1.25 19.5209 1.268 19.0455 1.30338 18.5749M37.2759 12.7009C38.2541 15.0122 38.75 17.4684 38.75 20.0008M2.02481 14.6491C2.7415 12.2382 3.92069 10.0269 5.52944 8.07681M29.9269 4.09125C32.0642 5.4285 33.8845 7.15094 35.3366 9.2115M8.38119 5.28325C10.3636 3.7165 12.5993 2.58369 15.0256 1.91775M18.9644 1.27869C19.3093 1.25975 19.6544 1.25 20.0003 1.25C22.1745 1.25 24.3061 1.61925 26.3357 2.348" stroke="#54ABA3" stroke-width="2" stroke-miterlimit="10"/>
</g>
<defs>
<clipPath id="clip0_1423_16130">
<rect width="40" height="40" fill="white"/>
</clipPath>
</defs>
</svg>
