<svg width="41" height="40" viewBox="0 0 41 40" fill="none" xmlns="http://www.w3.org/2000/svg">
<g clip-path="url(#clip0_1651_23625)">
<path d="M1.91602 12.5H23.166M30.666 12.5H39.4159M23.166 36.2494H3.16602C2.47564 36.2494 1.91602 35.6898 1.91602 34.9994V5C1.91602 4.30963 2.47564 3.75 3.16602 3.75H38.166C38.8564 3.75 39.416 4.30963 39.416 5V27.5M5.66314 31.2496H15.6663M26.916 11.25V17.5M23.166 20H18.166M30.666 20H36.916M6.91595 8.125C6.91595 8.47018 6.63613 8.75 6.29095 8.75C5.94578 8.75 5.66595 8.47018 5.66595 8.125C5.66595 7.77982 5.94578 7.5 6.29095 7.5C6.63613 7.5 6.91595 7.77982 6.91595 8.125ZM11.916 8.125C11.916 8.47018 11.6361 8.75 11.291 8.75C10.9458 8.75 10.666 8.47018 10.666 8.125C10.666 7.77982 10.9458 7.5 11.291 7.5C11.6361 7.5 11.916 7.77982 11.916 8.125ZM16.916 8.125C16.916 8.47018 16.6361 8.75 16.291 8.75C15.9458 8.75 15.666 8.47018 15.666 8.125C15.666 7.77982 15.9458 7.5 16.291 7.5C16.6361 7.5 16.916 7.77982 16.916 8.125ZM26.916 23.2561L26.9404 34.4364L29.7324 33.0328L31.9783 37.5L35.3287 35.8156L33.0828 31.3484L35.8749 29.9447L26.916 23.2561ZM6.91595 17.5H14.416V26.25H6.91595V17.5Z" stroke="#481B97" stroke-width="2" stroke-miterlimit="10"/>
</g>
<defs>
<clipPath id="clip0_1651_23625">
<rect width="40" height="40" fill="white" transform="translate(0.666016)"/>
</clipPath>
</defs>
</svg>
