<svg width="40" height="40" viewBox="0 0 40 40" fill="none" xmlns="http://www.w3.org/2000/svg">
<g clip-path="url(#clip0_1651_23611)">
<mask id="mask0_1651_23611" style="mask-type:luminance" maskUnits="userSpaceOnUse" x="0" y="0" width="40" height="40">
<path d="M0.5 39.5V0.5H39.5V39.5H0.5Z" fill="white" stroke="white"/>
</mask>
<g mask="url(#mask0_1651_23611)">
<path d="M3.75 18.75V12.5C3.75 9.04825 6.54825 6.25 10 6.25H13.7506M13.7506 6.25L10.0006 10M13.7506 6.25L10.0006 2.5M36.2506 21.25V27.5C36.2506 30.9517 33.4524 33.75 30.0006 33.75H26.25M26.25 33.75L30 30M26.25 33.75L30 37.5M17.5 5H38.75M1.25 26.25H22.5M3.75 31.25H15M3.75 35H11.25M28.75 10H35M28.75 13.75H32.5M18.75 1.25H37.5C38.1904 1.25 38.75 1.80965 38.75 2.5V16.25C38.75 16.9404 38.1904 17.5 37.5 17.5H18.75C18.0596 17.5 17.5 16.9404 17.5 16.25V2.5C17.5 1.80965 18.0596 1.25 18.75 1.25ZM2.5 22.5H21.25C21.9404 22.5 22.5 23.0596 22.5 23.75V37.5C22.5 38.1904 21.9404 38.75 21.25 38.75H2.5C1.80965 38.75 1.25 38.1904 1.25 37.5V23.75C1.25 23.0596 1.80965 22.5 2.5 22.5ZM21.25 10H26.25V13.75H21.25V10Z" stroke="#481B97" stroke-width="2" stroke-miterlimit="10"/>
</g>
</g>
<defs>
<clipPath id="clip0_1651_23611">
<rect width="40" height="40" fill="white"/>
</clipPath>
</defs>
</svg>
