<svg width="41" height="40" viewBox="0 0 41 40" fill="none" xmlns="http://www.w3.org/2000/svg">
<g clip-path="url(#clip0_780_52835)">
<path d="M1.58398 10H39.084" stroke="#54ABA3" stroke-width="2" stroke-miterlimit="10"/>
<path d="M11.584 32.5H2.83398C2.14361 32.5 1.58398 31.9404 1.58398 31.25V2.5C1.58398 1.80963 2.14361 1.25 2.83398 1.25H37.834C38.5244 1.25 39.084 1.80963 39.084 2.5V26.25" stroke="#54ABA3" stroke-width="2" stroke-miterlimit="10"/>
<path d="M5.95898 6.25C6.30416 6.25 6.58398 5.97018 6.58398 5.625C6.58398 5.27982 6.30416 5 5.95898 5C5.61381 5 5.33398 5.27982 5.33398 5.625C5.33398 5.97018 5.61381 6.25 5.95898 6.25Z" stroke="#54ABA3" stroke-width="2" stroke-miterlimit="10"/>
<path d="M10.959 6.25C11.3042 6.25 11.584 5.97018 11.584 5.625C11.584 5.27982 11.3042 5 10.959 5C10.6138 5 10.334 5.27982 10.334 5.625C10.334 5.97018 10.6138 6.25 10.959 6.25Z" stroke="#54ABA3" stroke-width="2" stroke-miterlimit="10"/>
<path d="M15.959 6.25C16.3042 6.25 16.584 5.97018 16.584 5.625C16.584 5.27982 16.3042 5 15.959 5C15.6138 5 15.334 5.27982 15.334 5.625C15.334 5.97018 15.6138 6.25 15.959 6.25Z" stroke="#54ABA3" stroke-width="2" stroke-miterlimit="10"/>
<path d="M5.33008 15H21.582" stroke="#54ABA3" stroke-width="2" stroke-miterlimit="10"/>
<path d="M5.33203 18.75H17.8344" stroke="#54ABA3" stroke-width="2" stroke-miterlimit="10"/>
<path d="M34.084 28.75C34.084 24.6081 30.7259 21.25 26.584 21.25C23.2325 21.25 20.3962 23.4491 19.4349 26.4831C18.921 26.3464 18.3906 26.25 17.834 26.25C14.3824 26.25 11.584 29.0484 11.584 32.5C11.584 35.9516 14.3824 38.75 17.834 38.75H34.084C36.8452 38.75 39.084 36.5113 39.084 33.75C39.084 30.9887 36.8452 28.75 34.084 28.75Z" stroke="#54ABA3" stroke-width="2" stroke-miterlimit="10"/>
</g>
<defs>
<clipPath id="clip0_780_52835">
<rect width="40" height="40" fill="white" transform="translate(0.333984)"/>
</clipPath>
</defs>
</svg>
