<svg width="41" height="40" viewBox="0 0 41 40" fill="none" xmlns="http://www.w3.org/2000/svg">
<g clip-path="url(#clip0_780_52858)">
<path d="M35.9495 9.13281C38.1333 12.1984 39.4178 15.9491 39.4178 19.9997C39.4178 26.1339 36.4721 31.5802 31.918 35.001" stroke="#54ABA3" stroke-width="2" stroke-miterlimit="10"/>
<path d="M11.918 3.41262C14.5302 2.03181 17.5078 1.25 20.668 1.25C24.7187 1.25 28.4693 2.5345 31.5349 4.71837" stroke="#54ABA3" stroke-width="2" stroke-miterlimit="10"/>
<path d="M29.4327 36.5793C26.8173 37.9646 23.8347 38.7492 20.6689 38.7492C16.8957 38.7492 13.3827 37.6347 10.4414 35.7168" stroke="#54ABA3" stroke-width="2" stroke-miterlimit="10"/>
<path d="M4.95059 30.2287C3.03259 27.2873 1.91797 23.7742 1.91797 20.0009C1.91797 13.8669 4.86353 8.42081 9.41728 5" stroke="#54ABA3" stroke-width="2" stroke-miterlimit="10"/>
<path d="M28.168 11.875C28.168 12.9106 24.8101 13.75 20.668 13.75C16.5258 13.75 13.168 12.9106 13.168 11.875" stroke="#54ABA3" stroke-width="2" stroke-miterlimit="10"/>
<path d="M28.168 16.875C28.168 17.9106 24.8101 18.75 20.668 18.75C16.5258 18.75 13.168 17.9106 13.168 16.875" stroke="#54ABA3" stroke-width="2" stroke-miterlimit="10"/>
<path d="M28.168 21.875C28.168 22.9106 24.8101 23.75 20.668 23.75C16.5258 23.75 13.168 22.9106 13.168 21.875" stroke="#54ABA3" stroke-width="2" stroke-miterlimit="10"/>
<path d="M38.168 35H31.918V28.75" stroke="#54ABA3" stroke-width="2" stroke-miterlimit="10"/>
<path d="M3.16797 5H9.41797V11.25" stroke="#54ABA3" stroke-width="2" stroke-miterlimit="10"/>
<path d="M33.793 10C35.5189 10 36.918 8.60089 36.918 6.875C36.918 5.14911 35.5189 3.75 33.793 3.75C32.0671 3.75 30.668 5.14911 30.668 6.875C30.668 8.60089 32.0671 10 33.793 10Z" stroke="#54ABA3" stroke-width="2" stroke-miterlimit="10"/>
<path d="M9.41797 30H5.66797C4.97761 30 4.41797 30.5596 4.41797 31.25V35C4.41797 35.6904 4.97761 36.25 5.66797 36.25H9.41797C10.1083 36.25 10.668 35.6904 10.668 35V31.25C10.668 30.5596 10.1083 30 9.41797 30Z" stroke="#54ABA3" stroke-width="2" stroke-miterlimit="10"/>
<path d="M13.168 11.875C13.168 10.8394 16.5258 10 20.668 10C24.8101 10 28.168 10.8394 28.168 11.875V26.875C28.168 27.9106 24.8101 28.75 20.668 28.75C16.5258 28.75 13.168 27.9106 13.168 26.875V11.875Z" stroke="#54ABA3" stroke-width="2" stroke-miterlimit="10"/>
</g>
<defs>
<clipPath id="clip0_780_52858">
<rect width="40" height="40" fill="white" transform="translate(0.667969)"/>
</clipPath>
</defs>
</svg>
