<svg fill="none" xmlns="http://www.w3.org/2000/svg" viewBox="0 0 32 32"><g clip-path="url(#a)"><mask id="b" style="mask-type:luminance" maskUnits="userSpaceOnUse" x="0" y="0" width="32" height="32"><path d="M32 0H0v32h32V0Z" fill="#fff"/></mask><g mask="url(#b)"><path d="M20 6h-5V1m5 5v9m0-9-5-5m0 0H9a1 1 0 0 0-1 1v3m15 10V5l-4-4m7 12V4l-3-3M4.5 23l4.547-4.547a3 3 0 0 1 2.298-.874l3.626.213A3.253 3.253 0 0 1 18 21.5m-6 0h8.5l4.658-4.658a3.312 3.312 0 0 1 4.684 0L30 17l-8.121 8.121a3 3 0 0 1-2.122.879H10.5L9 27.5m1.5 1.5L3 21.5M8.5 31 1 23.5M8 7v8m4-4H4" stroke="#fff" stroke-width="2" stroke-miterlimit="10"/></g></g><defs><clipPath id="a"><path fill="#fff" d="M0 0h32v32H0z"/></clipPath></defs></svg>
