<svg width="40" height="40" viewBox="0 0 40 40" fill="none" xmlns="http://www.w3.org/2000/svg">
<g clip-path="url(#clip0_1423_16158)">
<path d="M20.0016 5.98869L18.1196 4.10681C14.31 0.297625 8.1339 0.29775 4.32453 4.10706L4.32328 4.10831C0.513775 7.91775 0.51365 14.0941 4.32296 17.9037" stroke="#54ABA3" stroke-width="2" stroke-miterlimit="10"/>
<path d="M5.57739 20.4121L3.06897 22.9204C2.02999 23.9594 2.02999 25.6439 3.06897 26.6829H3.06902C4.10801 27.7219 5.79255 27.7219 6.83154 26.6829L9.33995 24.1746C10.3789 23.1356 10.3789 21.4511 9.33995 20.4121H9.33991C8.30092 19.3731 6.61639 19.3731 5.57739 20.4121Z" stroke="#54ABA3" stroke-width="2" stroke-miterlimit="10"/>
<path d="M8.81175 24.705L6.67981 26.8369C5.64083 27.8759 5.64083 29.5604 6.67981 30.5994L6.67986 30.5995C7.71885 31.6385 9.40339 31.6385 10.4424 30.5995L12.5744 28.4675C13.6134 27.4285 13.6134 25.744 12.5744 24.705H12.5742C11.5353 23.666 9.85074 23.666 8.81175 24.705Z" stroke="#54ABA3" stroke-width="2" stroke-miterlimit="10"/>
<path d="M11.8488 29.1894L10.5946 30.4437C9.55562 31.4827 9.55562 33.1672 10.5946 34.2062L10.5946 34.2063C11.6336 35.2453 13.3182 35.2453 14.3572 34.2063L15.6113 32.952C16.6503 31.913 16.6503 30.2285 15.6113 29.1895V29.1894C14.5723 28.1504 12.8878 28.1504 11.8488 29.1894Z" stroke="#54ABA3" stroke-width="2" stroke-miterlimit="10"/>
<path d="M15.6111 32.955L14.3569 34.2093C13.3179 35.2483 13.3179 36.9328 14.3569 37.9718C15.3959 39.0108 17.0804 39.0108 18.1194 37.9718L19.3736 36.7175C20.4126 35.6785 20.4126 33.994 19.3736 32.955C18.3346 31.916 16.6501 31.916 15.6111 32.955Z" stroke="#54ABA3" stroke-width="2" stroke-miterlimit="10"/>
<path d="M18.9661 27.5281L24.3908 32.9523C25.4298 33.9913 27.1142 33.9911 28.1531 32.9523L28.1533 32.9521C29.1923 31.9131 29.1923 30.2285 28.1533 29.1896L22.7292 23.7656" stroke="#54ABA3" stroke-width="2" stroke-miterlimit="10"/>
<path d="M26.4908 20.0039L31.9148 25.4279C32.9538 26.4669 32.9538 28.1515 31.9148 29.1904C30.8758 30.2294 29.1913 30.2294 28.1523 29.1904L22.7283 23.7664" stroke="#54ABA3" stroke-width="2" stroke-miterlimit="10"/>
<path d="M26.4914 20.0045L31.9154 25.4285C32.9544 26.4675 34.639 26.4675 35.6779 25.4285C36.7169 24.3895 36.7169 22.7049 35.6779 21.6659L23.7632 9.75114L20.0006 13.5138C17.9226 15.5918 14.5536 15.5918 12.4756 13.5138L20.0015 5.98814L21.8825 4.10714C25.692 0.297579 31.8685 0.297641 35.678 4.1072C39.4876 7.91689 39.4874 14.0935 35.6776 17.9029" stroke="#54ABA3" stroke-width="2" stroke-miterlimit="10"/>
<path d="M20.0011 36.0907L20.6282 36.7179C21.6672 37.7569 23.3518 37.7569 24.3908 36.7179C25.4298 35.6787 25.4298 33.9942 24.3906 32.9552L18.9661 27.5312" stroke="#54ABA3" stroke-width="2" stroke-miterlimit="10"/>
</g>
<defs>
<clipPath id="clip0_1423_16158">
<rect width="40" height="40" fill="white"/>
</clipPath>
</defs>
</svg>
