<svg width="32" height="32" viewBox="0 0 32 32" fill="none" xmlns="http://www.w3.org/2000/svg">
<g clip-path="url(#clip0_2845_27373)">
<mask id="mask0_2845_27373" style="mask-type:luminance" maskUnits="userSpaceOnUse" x="0" y="0" width="32" height="32">
<path d="M0.5 31.5V0.5H31.5V31.5H0.5Z" fill="white" stroke="white"/>
</mask>
<g mask="url(#mask0_2845_27373)">
<path d="M13 15.0017V16.999C12.9999 17.5513 13.4476 17.9991 13.9999 17.999H18.0005C18.5529 17.9988 19.0006 17.551 19.0005 16.9986L19 15.0017M13 15.0017C13 11.6859 9.9999 10.505 9.9999 6.94135C9.9999 3.37775 12.1677 1.00195 15.4193 1.00195H16.5806C19.8323 1.00195 22 3.37775 22 6.94135C22 10.505 19 11.6859 19 15.0017M13 15.0017H19M16 17.9975V31.9996M9 21.9996H7C5.3431 21.9996 4 23.3427 4 24.9996V25.9996H6C7.6569 25.9996 9 24.6565 9 22.9996V21.9996ZM9 21.9996H6.3333C3.3878 21.9996 1 19.4924 1 16.3996V14.9996H3.6667C6.6122 14.9996 9 17.5068 9 20.5996V21.9996ZM9 21.9996C12.866 21.9996 16 25.1336 16 28.9996C16 25.1336 19.134 21.9996 23 21.9996M23 21.9996H25.4C27.3882 21.9996 29 20.3207 29 18.2496V16.9996H26.6C24.6118 16.9996 23 18.6785 23 20.7496V21.9996ZM23 21.9996L25.6667 21.9997C28.6122 21.9997 31 24.5069 31 27.5997V28.9997H28.3333C25.3878 28.9997 23 26.4925 23 23.3997V21.9996ZM16 10.9996V14.9996M16 10.9996C14.8954 10.9996 14 10.1042 14 8.99955M16 10.9996C17.1046 10.9996 18 10.1042 18 8.99955M7 7.99955L1 8.99955M31 8.99955L25 7.99955M7 3.99955L1 2.99955M31 2.99955L25 3.99955" stroke="white" stroke-width="2" stroke-miterlimit="10"/>
</g>
</g>
<defs>
<clipPath id="clip0_2845_27373">
<rect width="32" height="32" fill="white"/>
</clipPath>
</defs>
</svg>
