<svg fill="none" xmlns="http://www.w3.org/2000/svg" viewBox="0 0 32 32"><g clip-path="url(#a)"><mask id="b" style="mask-type:luminance" maskUnits="userSpaceOnUse" x="0" y="0" width="32" height="32"><path d="M.5 31.5V.5h31v31H.5Z" fill="#fff" stroke="#fff"/></mask><g mask="url(#b)"><path d="M16 24.57c-1.657 0-3-1.271-3-2.839V19.84C13 18.27 14.343 17 16 17s3 1.27 3 2.839v1.892c0 1.568-1.343 2.839-3 2.839Zm0 0c2.96 0 6 1.42 6 4.258V30a1 1 0 0 1-1 1H11a1 1 0 0 1-1-1v-1.172c0-2.839 3.04-4.258 6-4.258Zm10-1.023c-1.105 0-2-.848-2-1.893v-1.262c0-1.045.895-1.892 2-1.892s2 .847 2 1.892v1.262c0 1.045-.895 1.893-2 1.893Zm0 0c1.973 0 4 .946 4 2.838V28a1 1 0 0 1-1 1h-4m1-5.453c-1.973 0-4 .946-4 2.838V28.5M6 23.547c1.105 0 2-.848 2-1.893v-1.262c0-1.045-.895-1.892-2-1.892-1.104 0-2 .847-2 1.892v1.262c0 1.045.896 1.893 2 1.893Zm0 0c-1.973 0-4 .946-4 2.838V28a1 1 0 0 0 1 1h4m-1-5.453c1.974 0 4 .946 4 2.838V28.5M11 7l5-5m0 0 5 5m-5-5v11M2 11l4-4m0 0 4 4M6 7v8m16-4 4-4m0 0 4 4m-4-4v8" stroke="#fff" stroke-width="2" stroke-miterlimit="10"/></g></g><defs><clipPath id="a"><path fill="#fff" d="M0 0h32v32H0z"/></clipPath></defs></svg>