<svg width="41" height="40" viewBox="0 0 41 40" fill="none" xmlns="http://www.w3.org/2000/svg">
<g clip-path="url(#clip0_714_44856)">
<mask id="mask0_714_44856" style="mask-type:luminance" maskUnits="userSpaceOnUse" x="0" y="0" width="41" height="40">
<path d="M0.833984 0.5H39.834V39.5H0.833984V0.5Z" fill="white" stroke="white"/>
</mask>
<g mask="url(#mask0_714_44856)">
<path d="M20.334 7.5C21.0244 7.5 21.584 6.94035 21.584 6.25C21.584 5.55965 21.0244 5 20.334 5C19.6436 5 19.084 5.55965 19.084 6.25C19.084 6.94035 19.6436 7.5 20.334 7.5Z" stroke="url(#paint0_linear_714_44856)" stroke-width="2" stroke-miterlimit="10"/>
<path d="M25.334 6.25C25.334 9.79375 20.8685 13.3524 20.3776 13.7311C20.3517 13.751 20.3161 13.751 20.2904 13.7311C19.7996 13.3524 15.334 9.79375 15.334 6.25C15.334 3.48862 17.5726 1.25 20.334 1.25C23.0954 1.25 25.334 3.48862 25.334 6.25Z" stroke="url(#paint1_linear_714_44856)" stroke-width="2" stroke-miterlimit="10"/>
<path d="M15.9865 8.75H7.83398V38.75" stroke="url(#paint2_linear_714_44856)" stroke-width="2" stroke-miterlimit="10"/>
<path d="M32.8342 38.75L32.8125 8.75H24.6836" stroke="url(#paint3_linear_714_44856)" stroke-width="2" stroke-miterlimit="10"/>
<path d="M15.334 38.75V31.25H25.334V38.75" stroke="url(#paint4_linear_714_44856)" stroke-width="2" stroke-miterlimit="10"/>
<path d="M0.333984 38.75H40.334" stroke="url(#paint5_linear_714_44856)" stroke-width="2" stroke-miterlimit="10"/>
<path d="M17.834 22.5H14.084V26.25H17.834V22.5Z" stroke="url(#paint6_linear_714_44856)" stroke-width="2" stroke-miterlimit="10"/>
<path d="M17.834 15H14.084V18.75H17.834V15Z" stroke="url(#paint7_linear_714_44856)" stroke-width="2" stroke-miterlimit="10"/>
<path d="M26.584 15H22.834V18.75H26.584V15Z" stroke="url(#paint8_linear_714_44856)" stroke-width="2" stroke-miterlimit="10"/>
<path d="M26.584 22.5H22.834V26.25H26.584V22.5Z" stroke="url(#paint9_linear_714_44856)" stroke-width="2" stroke-miterlimit="10"/>
<path d="M20.334 31.25V38.75" stroke="url(#paint10_linear_714_44856)" stroke-width="2" stroke-miterlimit="10"/>
<path d="M7.83398 8.75H6.58398C5.89361 8.75 5.33398 8.19037 5.33398 7.5V6.25C5.33398 5.55963 5.89361 5 6.58398 5H15.4922" stroke="url(#paint11_linear_714_44856)" stroke-width="2" stroke-miterlimit="10"/>
<path d="M32.8338 8.75H34.0838C34.7742 8.75 35.3338 8.19037 35.3338 7.5V6.25C35.3338 5.55963 34.7742 5 34.0838 5H25.1758" stroke="url(#paint12_linear_714_44856)" stroke-width="2" stroke-miterlimit="10"/>
</g>
</g>
<defs>
<linearGradient id="paint0_linear_714_44856" x1="21.584" y1="5" x2="19.084" y2="7.50002" gradientUnits="userSpaceOnUse">
<stop stop-color="#407A7A"/>
<stop offset="1" stop-color="#002832"/>
</linearGradient>
<linearGradient id="paint1_linear_714_44856" x1="25.334" y1="1.25" x2="13.1419" y2="11.0069" gradientUnits="userSpaceOnUse">
<stop stop-color="#407A7A"/>
<stop offset="1" stop-color="#002832"/>
</linearGradient>
<linearGradient id="paint2_linear_714_44856" x1="15.9865" y1="8.75" x2="0.80267" y2="12.8763" gradientUnits="userSpaceOnUse">
<stop stop-color="#407A7A"/>
<stop offset="1" stop-color="#002832"/>
</linearGradient>
<linearGradient id="paint3_linear_714_44856" x1="32.8342" y1="8.75" x2="17.6534" y2="12.8745" gradientUnits="userSpaceOnUse">
<stop stop-color="#407A7A"/>
<stop offset="1" stop-color="#002832"/>
</linearGradient>
<linearGradient id="paint4_linear_714_44856" x1="25.334" y1="31.25" x2="18.1341" y2="40.85" gradientUnits="userSpaceOnUse">
<stop stop-color="#407A7A"/>
<stop offset="1" stop-color="#002832"/>
</linearGradient>
<linearGradient id="paint5_linear_714_44856" x1="40.334" y1="38.75" x2="40.284" y2="40.7487" gradientUnits="userSpaceOnUse">
<stop stop-color="#407A7A"/>
<stop offset="1" stop-color="#002832"/>
</linearGradient>
<linearGradient id="paint6_linear_714_44856" x1="17.834" y1="22.5" x2="14.084" y2="26.25" gradientUnits="userSpaceOnUse">
<stop stop-color="#407A7A"/>
<stop offset="1" stop-color="#002832"/>
</linearGradient>
<linearGradient id="paint7_linear_714_44856" x1="17.834" y1="15" x2="14.084" y2="18.75" gradientUnits="userSpaceOnUse">
<stop stop-color="#407A7A"/>
<stop offset="1" stop-color="#002832"/>
</linearGradient>
<linearGradient id="paint8_linear_714_44856" x1="26.584" y1="15" x2="22.834" y2="18.75" gradientUnits="userSpaceOnUse">
<stop stop-color="#407A7A"/>
<stop offset="1" stop-color="#002832"/>
</linearGradient>
<linearGradient id="paint9_linear_714_44856" x1="26.584" y1="22.5" x2="22.834" y2="26.25" gradientUnits="userSpaceOnUse">
<stop stop-color="#407A7A"/>
<stop offset="1" stop-color="#002832"/>
</linearGradient>
<linearGradient id="paint10_linear_714_44856" x1="21.334" y1="31.25" x2="19.3689" y2="31.512" gradientUnits="userSpaceOnUse">
<stop stop-color="#407A7A"/>
<stop offset="1" stop-color="#002832"/>
</linearGradient>
<linearGradient id="paint11_linear_714_44856" x1="15.4922" y1="5" x2="13.0557" y2="11.6005" gradientUnits="userSpaceOnUse">
<stop stop-color="#407A7A"/>
<stop offset="1" stop-color="#002832"/>
</linearGradient>
<linearGradient id="paint12_linear_714_44856" x1="35.3338" y1="5" x2="32.8972" y2="11.6004" gradientUnits="userSpaceOnUse">
<stop stop-color="#407A7A"/>
<stop offset="1" stop-color="#002832"/>
</linearGradient>
<clipPath id="clip0_714_44856">
<rect width="40" height="40" fill="white" transform="translate(0.333984)"/>
</clipPath>
</defs>
</svg>
