<svg width="40" height="40" viewBox="0 0 40 40" fill="none" xmlns="http://www.w3.org/2000/svg">
<path d="M1.25 29.5467L5.66944 25.1273L8.01962 13.3763C8.19494 12.4999 8.96444 11.8691 9.85819 11.8691H9.98156C11.0171 11.8691 11.8566 12.7085 11.8566 13.7441V17.1723L19.2922 9.73669C20.0245 9.00444 21.2116 9.00444 21.9439 9.73669C22.6761 10.4689 22.6761 11.6561 21.9439 12.3883L16.6406 17.6916L22.6067 11.7254C23.339 10.9932 24.5261 10.9932 25.2584 11.7254C25.9906 12.4577 25.9906 13.6448 25.2584 14.3771L19.2922 20.3432L23.9325 15.7028C24.6647 14.9706 25.852 14.9706 26.5841 15.7028C27.3164 16.4351 27.3164 17.6223 26.5841 18.3545L21.9438 22.9948L24.5954 20.3432C25.3276 19.611 26.5149 19.611 27.247 20.3432C27.9792 21.0755 27.9792 22.2627 27.247 22.9948L19.637 30.605C18.598 31.644 17.2746 32.3521 15.8339 32.6403C14.393 32.9285 13.0698 33.6367 12.0308 34.6757L9.20475 37.5017" stroke="#54ABA3" stroke-width="2" stroke-miterlimit="10"/>
<path d="M20 36.25L35 21.25L35.646 20.5913C39.7848 16.4523 39.7848 9.74264 35.646 5.60364C31.5074 1.46545 24.7969 1.46545 20.6584 5.60364L20 6.26202L19.3416 5.60364C15.2031 1.46545 8.49263 1.46545 4.35406 5.60364C0.215313 9.74264 0.215313 16.4523 4.35406 20.5913L6.20375 22.4539" stroke="#54ABA3" stroke-width="2" stroke-miterlimit="10"/>
</svg>
