<svg width="41" height="40" viewBox="0 0 41 40" fill="none" xmlns="http://www.w3.org/2000/svg">
<path d="M29.9294 5.70801C34.8873 7.4057 36.9152 12.4999 36.9152 17.5C36.9152 22.5 36.4905 27.5238 35.6652 30M35.6652 30H29.9299M35.6652 30L35.6655 32.5C35.6655 33.1904 35.1059 33.75 34.4155 33.75H6.91553C6.22516 33.75 5.66553 33.1904 5.66553 32.5L5.66492 29.9999M23.1655 22.5V12.5C23.1655 8.75 23.1655 1.25 28.1655 1.25M28.1655 1.25H13.1654M28.1655 1.25C31.9155 1.25 30.6654 12.5 20.6654 12.5C10.6654 12.5 9.41539 1.25 13.1654 1.25M13.1654 1.25C18.1654 1.25 18.2262 7.5 18.1655 12.5V18.75M11.4007 5.70801C6.44286 7.4057 4.71279 12.5088 4.41492 17.4899C4.13048 22.2418 4.67736 26.6424 5.66492 29.9999M5.66492 29.9999H11.4007M10.6655 17.5L11.8463 37.5734C11.8852 38.2341 12.4323 38.75 13.0942 38.75H28.2369C28.8988 38.75 29.4459 38.2341 29.4847 37.5734L30.6655 17.5" stroke="#54ABA3" stroke-width="2" stroke-miterlimit="10"/>
</svg>
