<svg width="41" height="40" viewBox="0 0 41 40" fill="none" xmlns="http://www.w3.org/2000/svg">
<path d="M29.9297 5.70801C34.8876 7.4057 36.9154 12.4999 36.9154 17.5C36.9154 22.5 36.4908 27.5237 35.6654 30H29.9302" stroke="#54ABA3" stroke-width="2" stroke-miterlimit="10"/>
<path d="M23.166 22.5V12.5C23.166 8.75 23.166 1.25 28.166 1.25" stroke="#54ABA3" stroke-width="2" stroke-miterlimit="10"/>
<path d="M20.6652 12.5C10.6651 12.5 9.41515 1.25 13.1651 1.25H28.1652C31.9152 1.25 30.6652 12.5 20.6652 12.5Z" stroke="#54ABA3" stroke-width="2" stroke-miterlimit="10"/>
<path d="M11.4007 5.70801C6.44286 7.4057 4.71279 12.5087 4.41492 17.4899C4.13048 22.2417 4.67736 26.6424 5.66492 29.9999H11.4007" stroke="#54ABA3" stroke-width="2" stroke-miterlimit="10"/>
<path d="M10.666 17.5L11.8468 37.5734C11.8857 38.2341 12.4328 38.75 13.0946 38.75H28.2374C28.8993 38.75 29.4464 38.2341 29.4851 37.5734L30.666 17.5" stroke="#54ABA3" stroke-width="2" stroke-miterlimit="10"/>
<path d="M5.66602 30V32.5C5.66602 33.1904 6.22564 33.75 6.91602 33.75H34.416C35.1064 33.75 35.666 33.1904 35.666 32.5V30" stroke="#54ABA3" stroke-width="2" stroke-miterlimit="10"/>
<path d="M18.166 18.75V12.5C18.2266 7.5 18.166 1.25 13.166 1.25" stroke="#54ABA3" stroke-width="2" stroke-miterlimit="10"/>
</svg>
