<svg width="40" height="40" viewBox="0 0 40 40" fill="none" xmlns="http://www.w3.org/2000/svg">
<path d="M11.2499 36.2499H8.75C8.05963 36.2499 7.5 35.6903 7.5 35V30.3949C7.5 24.2983 13.8353 21.25 20.0011 21.25C26.167 21.25 32.5 24.2983 32.5 30.3949V35C32.5 35.6904 31.9404 36.25 31.25 36.25H28.75M13.4367 22.7711C13.0856 20.2299 10.1877 18.9593 7.36169 18.9593C4.34725 18.9593 1.25 20.405 1.25 23.2963V28.7498M26.5631 22.7714C26.9142 20.23 29.8132 18.9593 32.6393 18.9593C35.6537 18.9593 38.7499 20.405 38.7499 23.2963V28.7498M13.8086 11.4059C13.8086 14.7713 16.5938 17.4995 20.0295 17.4995C23.4652 17.4995 26.2503 14.7713 26.2503 11.4059V7.34356C26.2503 3.97819 23.4652 1.25 20.0295 1.25C16.5938 1.25 13.8086 3.97819 13.8086 7.34356V11.4059ZM4.30542 15.8582C4.30542 17.455 5.67342 18.7494 7.36098 18.7494C9.04854 18.7494 10.4165 17.4549 10.4165 15.8582V13.9307C10.4165 12.3339 9.04854 11.0394 7.36098 11.0394C5.67342 11.0394 4.30542 12.3339 4.30542 13.9307V15.8582ZM29.5831 15.8582C29.5831 17.455 30.9511 18.7494 32.6387 18.7494C34.3263 18.7494 35.6943 17.4549 35.6943 15.8582V13.9307C35.6943 12.3339 34.3263 11.0394 32.6387 11.0394C30.9511 11.0394 29.5831 12.3339 29.5831 13.9307V15.8582ZM20.3846 26.4892L22.1759 30.1188L26.1814 30.7009C26.5334 30.752 26.6739 31.1845 26.4192 31.4328L23.5208 34.2581L24.2051 38.2474C24.2652 38.5979 23.8972 38.8653 23.5825 38.6998L19.9998 36.8163L16.4171 38.6998C16.1023 38.8653 15.7344 38.5979 15.7946 38.2474L16.4788 34.2581L13.5804 31.4328C13.3257 31.1845 13.4662 30.752 13.8182 30.7009L17.8237 30.1188L19.6151 26.4892C19.7724 26.1703 20.2272 26.1703 20.3846 26.4892Z" stroke="#54ABA3" stroke-width="2" stroke-miterlimit="10"/>
</svg>
