<svg width="100" height="100" viewBox="0 0 100 100" fill="none" xmlns="http://www.w3.org/2000/svg">
<g filter="url(#filter0_dd_794_47409)">
<rect x="14" y="6" width="72" height="72" rx="36" fill="white" shape-rendering="crispEdges"/>
<g clip-path="url(#clip0_794_47409)">
<path d="M31.25 58.25C31.25 59.5 32.2316 60.75 33.75 60.75H55C56.3807 60.75 57.5 59.6307 57.5 58.25M31.25 58.25V24.5C31.25 23.8096 31.8096 23.25 32.5 23.25H55C56.3807 23.25 57.5 24.3693 57.5 25.75V53.25C57.5 54.6307 56.3807 55.75 55 55.75H33.75C32.3663 55.75 31.25 57 31.25 58.25Z" stroke="#54ABA3" stroke-width="2" stroke-miterlimit="10"/>
<path d="M37.5 39.5H48.75" stroke="#54ABA3" stroke-width="2" stroke-miterlimit="10"/>
<path d="M37.5 34.5H51.25" stroke="#54ABA3" stroke-width="2" stroke-miterlimit="10"/>
<path d="M66.1415 27.2155L63.75 31.9985V59.4984C63.75 60.1888 64.3096 60.7484 65 60.7484H67.5C68.1904 60.7484 68.75 60.1888 68.75 59.4984V31.9985L66.3585 27.2155C66.3137 27.1261 66.1863 27.1261 66.1415 27.2155Z" stroke="#54ABA3" stroke-width="2" stroke-miterlimit="10"/>
<path d="M68.75 54.5H63.75" stroke="#54ABA3" stroke-width="2" stroke-miterlimit="10"/>
</g>
<rect x="14.5" y="6.5" width="71" height="71" rx="35.5" stroke="#D8DFE5" shape-rendering="crispEdges"/>
</g>
<defs>
<filter id="filter0_dd_794_47409" x="0" y="0" width="100" height="100" filterUnits="userSpaceOnUse" color-interpolation-filters="sRGB">
<feFlood flood-opacity="0" result="BackgroundImageFix"/>
<feColorMatrix in="SourceAlpha" type="matrix" values="0 0 0 0 0 0 0 0 0 0 0 0 0 0 0 0 0 0 127 0" result="hardAlpha"/>
<feOffset dy="8"/>
<feGaussianBlur stdDeviation="7"/>
<feComposite in2="hardAlpha" operator="out"/>
<feColorMatrix type="matrix" values="0 0 0 0 0 0 0 0 0 0 0 0 0 0 0 0 0 0 0.08 0"/>
<feBlend mode="normal" in2="BackgroundImageFix" result="effect1_dropShadow_794_47409"/>
<feColorMatrix in="SourceAlpha" type="matrix" values="0 0 0 0 0 0 0 0 0 0 0 0 0 0 0 0 0 0 127 0" result="hardAlpha"/>
<feOffset dy="2"/>
<feGaussianBlur stdDeviation="0.5"/>
<feComposite in2="hardAlpha" operator="out"/>
<feColorMatrix type="matrix" values="0 0 0 0 0 0 0 0 0 0 0 0 0 0 0 0 0 0 0.06 0"/>
<feBlend mode="normal" in2="effect1_dropShadow_794_47409" result="effect2_dropShadow_794_47409"/>
<feBlend mode="normal" in="SourceGraphic" in2="effect2_dropShadow_794_47409" result="shape"/>
</filter>
<clipPath id="clip0_794_47409">
<rect width="40" height="40" fill="white" transform="translate(30 22)"/>
</clipPath>
</defs>
</svg>
