<svg width="40" height="40" viewBox="0 0 40 40" fill="none" xmlns="http://www.w3.org/2000/svg">
<path d="M17.8384 23.3564C19.922 24.0443 21.25 25.0851 21.25 26.2501C21.25 28.3211 17.0526 30.0001 11.875 30.0001C6.69731 30.0001 2.5 28.3211 2.5 26.2501C2.5 24.6154 5.11513 23.225 8.76331 22.7116M28.6803 15.0003C25.8805 15.0003 23.6109 12.9015 23.6109 10.3126V7.18756C23.6109 4.59869 25.8805 2.5 28.6803 2.5C31.48 2.5 33.7496 4.59869 33.7496 7.18756V10.3126C33.7496 12.9015 31.48 15.0003 28.6803 15.0003ZM28.6803 15.0003C33.6124 15.0003 38.7506 17.3791 38.7506 22.137V26.2501C38.7506 26.9405 38.191 27.5001 37.5006 27.5001H20.7092M28.6803 15.0003C25.6669 15.0003 22.6299 15.8881 20.7221 17.6641M17.7472 29.1431C22.0094 29.9021 25 31.6791 25 33.7501C25 36.5116 19.6834 38.7501 13.125 38.7501C6.56663 38.7501 1.25 36.5116 1.25 33.7501C1.25 31.9278 3.56556 30.3331 7.02544 29.4593M17.5376 16.5449C20.4537 17.1141 22.5 18.4469 22.5 20.0001C22.5 22.0713 18.8622 23.7501 14.375 23.7501C9.88769 23.7501 6.25 22.0713 6.25 20.0001C6.25 18.7473 7.58125 17.6379 9.6265 16.9569M13.125 17.5001C16.2316 17.5001 18.75 16.3809 18.75 15.0001C18.75 13.6194 16.2316 12.5001 13.125 12.5001C10.0184 12.5001 7.5 13.6194 7.5 15.0001C7.5 16.3809 10.0184 17.5001 13.125 17.5001Z" stroke="#002832" stroke-width="2" stroke-miterlimit="10"/>
</svg>
