<svg width="40" height="40" viewBox="0 0 40 40" fill="none" xmlns="http://www.w3.org/2000/svg">
<g clip-path="url(#clip0_1423_16106)">
<path d="M0 1.25H12.5" stroke="#54ABA3" stroke-width="2" stroke-miterlimit="10"/>
<path d="M5.625 31.2514L11.3093 25.5671C12.0667 24.8096 13.1119 24.4124 14.1811 24.4752L18.7133 24.7419C21.0883 24.8815 22.8365 27.0212 22.5 29.3764" stroke="#54ABA3" stroke-width="2" stroke-miterlimit="10"/>
<path d="M15 29.3747H25.625L31.4471 23.5526C33.0641 21.9356 35.6859 21.9356 37.3029 23.5526L37.5 23.7497L27.3484 33.9013C26.6451 34.6046 25.6914 34.9997 24.6969 34.9997H13.125L11.25 36.8747" stroke="#54ABA3" stroke-width="2" stroke-miterlimit="10"/>
<path d="M13.125 38.75L3.75 29.375" stroke="#54ABA3" stroke-width="2" stroke-miterlimit="10"/>
<path d="M17.5 12.0676C17.5 13.3741 18.6193 14.4331 20 14.4331C21.3807 14.4331 22.5 13.3741 22.5 12.0676V10.4906C22.5 9.18406 21.3807 8.125 20 8.125C18.6193 8.125 17.5 9.18413 17.5 10.4906V12.0676Z" stroke="#54ABA3" stroke-width="2" stroke-miterlimit="10"/>
<path d="M16.25 21.2503H23.75C24.4404 21.2503 25 20.6907 25 20.0003V17.982C25 15.6163 22.4669 14.4336 20.0005 14.4336C17.5341 14.4336 15 15.6163 15 17.982V20.0003C15 20.6907 15.5596 21.2503 16.25 21.2503Z" stroke="#54ABA3" stroke-width="2" stroke-miterlimit="10"/>
<path d="M2.5 1.25V4.0625C2.5 6.40625 10 7.34375 10 9.6875V12.5" stroke="#54ABA3" stroke-width="2" stroke-miterlimit="10"/>
<path d="M10 1.25V4.0625C10 6.40625 2.5 7.34375 2.5 9.6875V12.5" stroke="#54ABA3" stroke-width="2" stroke-miterlimit="10"/>
<path d="M0 12.5H12.5" stroke="#54ABA3" stroke-width="2" stroke-miterlimit="10"/>
<path d="M30.3125 5.46875L33.125 8.28125L38.75 2.65625" stroke="#54ABA3" stroke-width="2" stroke-miterlimit="10"/>
<path d="M35.5358 1.25H28.625C28.0036 1.25 27.5 1.75369 27.5 2.375V11.375C27.5 11.9963 28.0036 12.5 28.625 12.5H37.625C38.2464 12.5 38.75 11.9963 38.75 11.375V6.875" stroke="#54ABA3" stroke-width="2" stroke-miterlimit="10"/>
</g>
<defs>
<clipPath id="clip0_1423_16106">
<rect width="40" height="40" fill="white"/>
</clipPath>
</defs>
</svg>
