<svg width="40" height="40" viewBox="0 0 40 40" fill="none" xmlns="http://www.w3.org/2000/svg">
<g clip-path="url(#clip0_714_44855)">
<path d="M20 24.9998H36.1639C36.8869 24.9998 37.4592 24.3881 37.4111 23.6666L36.497 9.95434C36.3504 7.75471 34.7804 5.91065 32.6324 5.41496L25.1424 3.68652" stroke="url(#paint0_linear_714_44855)" stroke-width="2" stroke-miterlimit="10"/>
<path d="M19.9999 24.9997H3.83601C3.11295 24.9997 2.5407 24.388 2.58876 23.6666L3.50288 9.95426C3.64951 7.75463 5.21945 5.91063 7.36751 5.41488L14.8995 3.67676" stroke="url(#paint1_linear_714_44855)" stroke-width="2" stroke-miterlimit="10"/>
<path d="M8.75 11.25L11.25 25L9.01794 37.2764C8.87844 38.0437 9.46788 38.75 10.2478 38.75H29.7522C30.5321 38.75 31.1216 38.0437 30.982 37.2764L28.7499 25L31.2499 11.25" stroke="url(#paint2_linear_714_44855)" stroke-width="2" stroke-miterlimit="10"/>
<path d="M17.5 32.5L25 25" stroke="url(#paint3_linear_714_44855)" stroke-width="2" stroke-miterlimit="10"/>
<path d="M20.1278 14.7165L25.4456 3.01725C25.8218 2.18962 25.2167 1.25 24.3077 1.25H15.7242C14.8066 1.25 14.2017 2.20581 14.5945 3.03513L24.9989 25V38.75" stroke="url(#paint4_linear_714_44855)" stroke-width="2" stroke-miterlimit="10"/>
</g>
<defs>
<linearGradient id="paint0_linear_714_44855" x1="37.4139" y1="3.68652" x2="16.5286" y2="20.7512" gradientUnits="userSpaceOnUse">
<stop stop-color="#407A7A"/>
<stop offset="1" stop-color="#002832"/>
</linearGradient>
<linearGradient id="paint1_linear_714_44855" x1="19.9999" y1="3.67676" x2="-0.893047" y2="20.7398" gradientUnits="userSpaceOnUse">
<stop stop-color="#407A7A"/>
<stop offset="1" stop-color="#002832"/>
</linearGradient>
<linearGradient id="paint2_linear_714_44855" x1="31.2499" y1="11.25" x2="4.29466" y2="33.3047" gradientUnits="userSpaceOnUse">
<stop stop-color="#407A7A"/>
<stop offset="1" stop-color="#002832"/>
</linearGradient>
<linearGradient id="paint3_linear_714_44855" x1="25" y1="25" x2="17.5001" y2="32.5001" gradientUnits="userSpaceOnUse">
<stop stop-color="#407A7A"/>
<stop offset="1" stop-color="#002832"/>
</linearGradient>
<linearGradient id="paint4_linear_714_44855" x1="25.5591" y1="1.25" x2="5.16828" y2="7.27842" gradientUnits="userSpaceOnUse">
<stop stop-color="#407A7A"/>
<stop offset="1" stop-color="#002832"/>
</linearGradient>
<clipPath id="clip0_714_44855">
<rect width="40" height="40" fill="white"/>
</clipPath>
</defs>
</svg>
