<svg width="40" height="40" viewBox="0 0 40 40" fill="none" xmlns="http://www.w3.org/2000/svg">
<g clip-path="url(#clip0_734_45417)">
<path d="M20 15C21.3807 15 22.5 13.8807 22.5 12.5C22.5 11.1193 21.3807 10 20 10C18.6193 10 17.5 11.1193 17.5 12.5C17.5 13.8807 18.6193 15 20 15Z" stroke="#54ABA3" stroke-width="2" stroke-miterlimit="10"/>
<path d="M22.5 30C22.5 32.5 20 35 20 35C20 35 17.5 32.5 17.5 30C17.5 28.6193 18.6193 27.5 20 27.5C21.3807 27.5 22.5 28.6193 22.5 30Z" stroke="#54ABA3" stroke-width="2" stroke-miterlimit="10"/>
<path d="M25 27.499C25 27.499 27.5 18.749 27.5 12.499C27.5 6.63799 20.9045 1.87617 20.0835 1.30617C20.0281 1.26773 19.9719 1.26773 19.9165 1.30617C19.0955 1.87617 12.5 6.63792 12.5 12.499C12.5 18.749 15 27.499 15 27.499" stroke="#54ABA3" stroke-width="2" stroke-miterlimit="10"/>
<path d="M26.9196 18.75C26.9196 18.75 30 19.3738 30 22.5C30 23.75 30 27.5 30 27.5H20H10V22.5C10 19.3738 13.0803 18.75 13.0803 18.75" stroke="#54ABA3" stroke-width="2" stroke-miterlimit="10"/>
<path d="M22.078 38.75H33.5025C35.8715 38.75 37.9949 36.9761 38.1188 34.6104C38.251 32.0872 36.2444 30 33.75 30C31.85 30 30.249 31.218 29.6448 32.9101C29.0236 32.5616 28.286 32.396 27.4843 32.5693C25.9974 32.8905 25 34.3069 25 35.828C25 37.4417 23.6918 38.75 22.078 38.75ZM22.078 38.75H20H17.9219C16.3081 38.75 15 37.4417 15 35.828C15 34.3069 14.0025 32.8905 12.5158 32.5693C11.7139 32.396 10.9763 32.5616 10.3552 32.9101C9.75099 31.218 8.15005 30 6.24999 30C3.75561 30 1.74899 32.0872 1.88118 34.6104C2.00511 36.9761 4.12849 38.75 6.49743 38.75H17.9219" stroke="#54ABA3" stroke-width="2" stroke-miterlimit="10"/>
</g>
<defs>
<clipPath id="clip0_734_45417">
<rect width="40" height="40" fill="white"/>
</clipPath>
</defs>
</svg>
