<svg xmlns="http://www.w3.org/2000/svg" fill="none" viewBox="0 0 32 32"><g clip-path="url(#a)"><path stroke="#fff" stroke-miterlimit="10" stroke-width="2" d="M1 8h30M9 26H2a1 1 0 0 1-1-1V2a1 1 0 0 1 1-1h28a1 1 0 0 1 1 1v19M9 26a5 5 0 0 1 5-5c.445 0 .87.077 1.28.186A6.001 6.001 0 0 1 27 23a4 4 0 0 1 0 8H14a5 5 0 0 1-5-5ZM3.998 12h13.001M4 15h10M5 4.5a.5.5 0 1 1-1 0A.5.5 0 0 1 5 4.5ZM9 4.5a.5.5 0 1 1-1 0 .5.5 0 0 1 1 0Zm4 0a.5.5 0 1 1-1 0 .5.5 0 0 1 1 0Z"/></g><defs><clipPath id="a"><path fill="#fff" d="M0 0h32v32H0z"/></clipPath></defs></svg>
