<svg width="40" height="40" viewBox="0 0 40 40" fill="none" xmlns="http://www.w3.org/2000/svg">
<path d="M5.00281 21.25V37.5C5.00281 38.1904 5.56244 38.75 6.25281 38.75H11.25C11.9404 38.75 12.5 38.1904 12.5 37.5V20H15C17.7615 20 20 17.7615 20 15V10.6256C20 9.58975 19.1603 8.75 18.1244 8.75C17.0884 8.75 16.2484 9.59006 16.2487 10.6262L16.2496 13.5927C16.2497 14.3477 15.4879 14.8614 14.7895 14.5744C13.9083 14.2121 12.628 13.75 10.0036 13.75C5.68719 13.75 1.25213 15.8002 1.25213 19.9007L1.25 27.4997C1.24981 28.1902 1.8095 28.7501 2.5 28.7501H5.00281" stroke="#54ABA3" stroke-width="2" stroke-miterlimit="10"/>
<path d="M8.75 38.7467V28.7461" stroke="#54ABA3" stroke-width="2" stroke-miterlimit="10"/>
<path d="M5 7.04159C5 8.67472 6.39913 9.99859 8.125 9.99859C9.85087 9.99859 11.25 8.67472 11.25 7.04159V5.07028C11.25 3.43716 9.85087 2.11328 8.125 2.11328C6.39913 2.11328 5 3.43716 5 5.07028V7.04159Z" stroke="#54ABA3" stroke-width="2" stroke-miterlimit="10"/>
<path d="M34.9971 21.25V37.5C34.9971 38.1904 34.4375 38.75 33.7471 38.75H28.75C28.0596 38.75 27.5 38.1904 27.5 37.5V20H25C22.2385 20 20 17.7615 20 15V10.6256C20 9.58975 20.8397 8.75 21.8756 8.75C22.9116 8.75 23.7515 9.59006 23.7512 10.6262L23.7505 13.5927C23.7503 14.3477 24.5121 14.8615 25.2105 14.5744C26.0917 14.2121 27.372 13.75 29.9965 13.75C34.3129 13.75 38.748 15.8002 38.748 19.9007L38.75 27.4997C38.7502 28.1902 38.1905 28.7501 37.5 28.7501H34.9973" stroke="#54ABA3" stroke-width="2" stroke-miterlimit="10"/>
<path d="M31.25 38.7467V28.7461" stroke="#54ABA3" stroke-width="2" stroke-miterlimit="10"/>
<path d="M35 7.04159C35 8.67472 33.6009 9.99859 31.875 9.99859C30.1491 9.99859 28.75 8.67472 28.75 7.04159V5.07028C28.75 3.43716 30.1491 2.11328 31.875 2.11328C33.6009 2.11328 35 3.43716 35 5.07028V7.04159Z" stroke="#54ABA3" stroke-width="2" stroke-miterlimit="10"/>
<path d="M21.875 36.25V27.5H23.125L20 23.75L16.875 27.5H18.1253L18.125 36.25H21.875Z" stroke="#54ABA3" stroke-width="2" stroke-miterlimit="10"/>
</svg>
