<svg width="40" height="40" viewBox="0 0 40 40" fill="none" xmlns="http://www.w3.org/2000/svg">
<path d="M6.25 27.5C6.25 27.5 11.6091 27.5 13.0922 27.5C16.0585 27.5 16.0585 23.125 13.0922 23.125H10.126C7.15975 23.125 7.15975 18.75 10.126 18.75C11.6091 18.75 15.7243 18.75 15.7243 18.75M21.1169 27.4999H37.4998C38.1902 27.5 38.7498 26.9404 38.7498 26.25V22.1369C38.7498 17.379 33.682 15 28.7498 15C25.9876 15 23.1831 15.7461 21.2498 17.2382M20.3852 14.7202C20.9009 14.8871 21.2502 15.3674 21.2502 15.9094V26.2502C21.2502 32.5002 11.2501 37.5002 11.2501 37.5002C11.2501 37.5002 1.25 32.5002 1.25 26.2502V15.9094C1.25 15.3674 1.59937 14.8871 2.11506 14.7202L8.94056 12.5108C10.4421 12.0248 12.0586 12.0248 13.56 12.5108L20.3852 14.7202ZM23.6114 10.3126C23.6114 12.9015 25.8811 15.0002 28.6808 15.0002C31.4806 15.0002 33.7502 12.9015 33.7502 10.3126V7.18756C33.7502 4.59869 31.4806 2.5 28.6808 2.5C25.8811 2.5 23.6114 4.59869 23.6114 7.18756V10.3126Z" stroke="#002832" stroke-width="2" stroke-miterlimit="10"/>
</svg>
