<svg width="40" height="40" viewBox="0 0 40 40" fill="none" xmlns="http://www.w3.org/2000/svg">
<path d="M21.25 36.25V36.875C21.25 37.9106 22.0894 38.75 23.125 38.75C24.1606 38.75 25 37.9106 25 36.875V36.25M32.5 36.25V36.875C32.5 37.9106 33.3394 38.75 34.375 38.75C35.4106 38.75 36.25 37.9106 36.25 36.875V36.25M23.75 12.5V2.5C23.75 1.80963 24.3096 1.25 25 1.25H32.5C33.1904 1.25 33.75 1.80963 33.75 2.5V12.5M35.9017 24.8878L32.6279 23.8398C31.0406 23.3316 30.2784 25.7126 31.8657 26.2208L33.453 26.7289C35.0403 27.237 34.2781 29.618 32.6908 29.1099L29.5162 28.0936M0 25H15M15 30H5M15 35H8.75M3.75 21.25C3.75 12.2754 11.0254 5 20 5M20 12.5H37.5C38.1904 12.5 38.75 13.0596 38.75 13.75V35C38.75 35.6904 38.1904 36.25 37.5 36.25H20C19.3096 36.25 18.75 35.6904 18.75 35V13.75C18.75 13.0596 19.3096 12.5 20 12.5ZM22.5 19.31L30.1501 16.25L31.5087 19.6465L23.8585 22.7065L22.5 19.31ZM27.3325 30.3883V27.6294L24.9432 26.25L22.554 27.6294V30.3883L24.9432 31.7677L27.3325 30.3883Z" stroke="url(#paint0_linear_714_44865)" stroke-width="2" stroke-miterlimit="10"/>
<defs>
<linearGradient id="paint0_linear_714_44865" x1="38.75" y1="1.25" x2="1.27052" y2="39.9795" gradientUnits="userSpaceOnUse">
<stop stop-color="#407A7A"/>
<stop offset="1" stop-color="#002832"/>
</linearGradient>
</defs>
</svg>
