<svg fill="none" xmlns="http://www.w3.org/2000/svg" viewBox="0 0 32 32"><path d="M6 23c-1.35 0-2.444-1.007-2.444-2.25v-1.5C3.556 18.007 4.65 17 6 17c1.35 0 2.445 1.007 2.445 2.25v1.5C8.445 21.993 7.35 23 6 23Zm0 0c2.466 0 5 1.181 5 3.544V28a1 1 0 0 1-1 1H2a1 1 0 0 1-1-1v-1.456C1 24.18 3.534 23 6 23Zm20 0c-1.35 0-2.444-1.007-2.444-2.25v-1.5C23.556 18.007 24.65 17 26 17c1.35 0 2.445 1.007 2.445 2.25v1.5C28.445 21.993 27.35 23 26 23Zm0 0c2.466 0 5 1.181 5 3.544V28a1 1 0 0 1-1 1h-8a1 1 0 0 1-1-1v-1.456C21 24.18 23.534 23 26 23ZM16 7c-1.35 0-2.444-1.007-2.444-2.25v-1.5C13.556 2.007 14.65 1 16 1c1.35 0 2.445 1.007 2.445 2.25v1.5C18.445 5.993 17.35 7 16 7Zm0 0c2.466 0 5 1.181 5 3.544V12a1 1 0 0 1-1 1h-8a1 1 0 0 1-1-1v-1.456C11 8.18 13.534 7 16 7ZM5 14V6a1 1 0 0 1 1-1h4m9 18h-6m9-18h4a1 1 0 0 1 1 1v8" stroke="#fff" stroke-width="2" stroke-miterlimit="10"/></svg>