<svg width="346" height="380" viewBox="0 0 346 380" fill="none" xmlns="http://www.w3.org/2000/svg">
    <defs>
        <filter id="glow">
            <!-- filter processes -->
            <feGaussianBlur in="SourceGraphic" stdDeviation="1" /><!-- stdDeviation is amount of blur -->
        </filter>
        <linearGradient id="glow-gradient" x1="0%" y1="0%" x2="100%" y2="0%">
            <stop offset="0%" stop-color="transparent" />
            <stop offset="100%" stop-color="red" />
        </linearGradient>
    </defs>
    <mask id="mask0_2055_14302" style="mask-type:alpha" maskUnits="userSpaceOnUse" x="0" y="0" width="346" height="380">
        <rect width="346" height="380" fill="url(#paint0_radial_2055_14302)" />
    </mask>
    <path class="glow-line glow-line-1" d="M174 319V214L77 158L-18" stroke="#78FDFC" stroke-width="2"
        filter="url(#glow)" />
    <path class="glow-line glow-line-2" d="M77 221 L174 166 V61" stroke="#78FDFC" stroke-width="2"
        filter="url(#glow)" />
    <path class="glow-line glow-line-3" d="M174 319L174 214 L271 157" stroke="#78FDFC" stroke-width="2"
        filter="url(#glow)" />
    <path class="glow-line glow-line-4" d="M270 221L174 166V61" stroke="#78FDFC" stroke-width="2" filter="url(#glow)" />

    <g mask="url(#mask0_2055_14302)">
        <path d="M174 319L271 375L366 319V214L271 157L174 214V319Z" stroke="#0A5F81" />
        <path d="M-18 319L79 375L174 319V214L77 158L-18 214V319Z" stroke="#0A5F81" />
        <path d="M-19 82L77 137L174 82V-23L78 -80L-19 -23V82Z" stroke="#0A5F81" />
        <path d="M174 166L270 221L367 166V61L271 4L174 61V166Z" stroke="#0A5F81" />
        <path d="M-19 166L77 221L174 166V61L78 4L-19 61V166Z" stroke="#0A5F81" />
        <path d="M174 82L269 137L367 82V-23L271 -80L174 -23V82Z" stroke="#0A5F81" />
        <path d="M77 326L174 382L269 326L270 221L174 166L77 221V326Z" stroke="#1FDFFF" />
        <path d="M77 158L174 214L269 158V53L174 -2L77 53V158Z" stroke="#1FDFFF" />
    </g>
    <path d="M77 242L174 298L269 242" stroke="white" style="mix-blend-mode:overlay" />
    <path d="M77 242L174 298L269 242" stroke="white" style="mix-blend-mode:overlay" />
    <path d="M77 137L174 82L269 137" stroke="white" style="mix-blend-mode:overlay" />
    <path d="M77 218L174 274L269 218V113L174 58L77 113V218Z" stroke="#07465F" />
    <path d="M77 266L174 322L269 266V161L174 106L77 161V266Z" stroke="#07465F" />
    <mask id="mask1_2055_14302" style="mask-type:alpha" maskUnits="userSpaceOnUse" x="77" y="82" width="192"
        height="216">
        <path d="M77 242L174 298L269 242V137L174 82L77 137V242Z" fill="#D9D9D9" />
    </mask>
    <g mask="url(#mask1_2055_14302)">
        <path d="M77 218L174 274" stroke="#1FDFFF" />
        <path d="M271 218L174 274" stroke="#1FDFFF" />
        <path d="M174 214V274" stroke="#1FDFFF" />
        <path d="M174 106L269 161" stroke="#1FDFFF" />
        <path d="M174 106L77 161" stroke="#1FDFFF" />
    </g>
    <rect x="149" y="58" width="48" height="48" rx="24" fill="white" />
    <path
        d="M170 87.25H168.498C168.084 87.25 167.748 86.9141 167.748 86.4998L167.749 81.9404C167.749 79.4802 170.41 78.25 173 78.25C175.59 78.25 178.25 79.4801 178.25 81.9404L178.249 86.5002C178.249 86.9144 177.913 87.25 177.499 87.25H176M170 82.75V92.5C170 92.9142 170.336 93.25 170.75 93.25H175.25C175.664 93.25 176 92.9142 176 92.5V82.75M173 93.2504V87.25M164 88H162.498C162.084 88 161.748 87.6641 161.748 87.2498L161.749 82.6904C161.749 80.2301 164.41 79 167 79M164 83.5V92.5C164 92.9142 164.336 93.25 164.75 93.25H166.25M166.25 93.25V88.75M166.25 93.25H168.5M182 88H183.502C183.916 88 184.252 87.6641 184.252 87.2498L184.251 82.6904C184.251 80.2301 181.59 79 179 79M182 83.5V92.5C182 92.9142 181.665 93.25 181.25 93.25H179.75M179.75 93.25V88.75M179.75 93.25H177.5M175.25 73C175.25 71.7574 174.243 70.75 173 70.75C171.757 70.75 170.75 71.7574 170.75 73V73.7541C170.75 74.9968 171.757 76.0041 173 76.0041C174.243 76.0041 175.25 74.9968 175.25 73.7541V73ZM168.5 72.25H164.75V76H168.5V72.25ZM181.25 75.3597V72.7524L179.375 71.6699L177.5 72.7524V75.3597L179.375 76.4422L181.25 75.3597Z"
        stroke="url(#paint1_linear_2055_14302)" stroke-width="1.5" stroke-miterlimit="10" />
    <rect x="53" y="114" width="48" height="48" rx="24" fill="white" />
    <path
        d="M74.75 129.75L77 127.5M77 127.5L79.25 129.75M77 127.5V140.25M69.5 132.75L67.25 130.5M67.25 130.5L69.5 128.25M67.25 130.5L69.5 130.5C71.9853 130.5 74 132.515 74 135V138M84.5 128.25L86.75 130.5M86.75 130.5L84.5 132.75M86.75 130.5L84.5 130.5C82.0147 130.5 80 132.515 80 135V138M73.4944 132.93C71.6241 133.476 70.2564 135.203 70.2578 137.249C70.261 141.778 70.2578 144.197 72.1383 146.124C73.1311 147.141 73.2499 148.452 73.2499 149.25H80.7499V147.75C80.7499 147.336 81.0857 147 81.4999 147H82.309C83.1374 147 83.809 146.329 83.809 145.5V143.25C83.809 142.836 84.1447 142.5 84.559 142.5H85.2485C85.8774 142.5 86.227 141.773 85.8342 141.282L83.809 138.75C83.8237 138.28 83.8292 138.187 83.8297 137.253C83.831 135.177 82.426 133.429 80.5154 132.908"
        stroke="url(#paint2_linear_2055_14302)" stroke-width="1.5" stroke-miterlimit="10" />
    <rect x="245" y="114" width="48" height="48" rx="24" fill="white" />
    <path
        d="M260.375 144.75L263.786 141.34C264.24 140.885 264.867 140.647 265.509 140.684L268.228 140.844C269.653 140.928 270.702 142.212 270.5 143.625M266 143.625H272.375L275.868 140.132C276.838 139.162 278.412 139.162 279.382 140.132L279.5 140.25L273.409 146.341C272.987 146.763 272.415 147 271.818 147H264.875L263.75 148.125M264.875 149.25L259.25 143.625M266.375 132.375L268.25 134.25L272 130.5M277.25 132L281 132M276.5 129L279.748 127.125M276.5 135L279.748 136.875M260.75 132L257 132M261.5 135L258.252 136.875M261.5 129L258.252 127.125M273.323 127.968C273.567 128.047 273.733 128.275 273.733 128.531V133.425C273.733 136.383 269 138.75 269 138.75C269 138.75 264.267 136.383 264.267 133.425V128.531C264.267 128.275 264.432 128.047 264.676 127.968L267.906 126.923C268.617 126.692 269.382 126.692 270.093 126.923L273.323 127.968Z"
        stroke="url(#paint3_linear_2055_14302)" stroke-width="1.5" stroke-miterlimit="10" />
    <rect x="149" y="274" width="48" height="48" rx="24" fill="white" />
    <path
        d="M164.002 298.75V308.5C164.002 308.914 164.337 309.25 164.752 309.25H167.75C168.164 309.25 168.5 308.914 168.5 308.5V298H170C171.657 298 173 296.657 173 295M173 295V292.375M173 295C173 296.657 174.343 298 176 298H177.5V308.5C177.5 308.914 177.836 309.25 178.25 309.25H181.248C181.663 309.25 181.998 308.914 181.998 308.5V298.75M173 292.375C173 291.754 172.496 291.25 171.875 291.25C171.253 291.25 170.749 291.754 170.749 292.376L170.75 294.156C170.75 294.609 170.293 294.917 169.874 294.745C169.345 294.527 168.577 294.25 167.002 294.25C164.412 294.25 161.751 295.48 161.751 297.94L161.75 302.5C161.75 302.914 162.086 303.25 162.5 303.25H164.002M173 292.375C173 291.754 173.504 291.25 174.125 291.25C174.747 291.25 175.251 291.754 175.251 292.376L175.25 294.156C175.25 294.609 175.707 294.917 176.126 294.745C176.655 294.527 177.423 294.25 178.998 294.25C181.588 294.25 184.249 295.48 184.249 297.94L184.25 302.5C184.25 302.914 183.914 303.25 183.5 303.25H181.998M166.25 309.249V303.249M179.75 309.249V303.249M164 290.226C164 291.205 164.839 292 165.875 292C166.911 292 167.75 291.205 167.75 290.226V289.043C167.75 288.063 166.911 287.269 165.875 287.269C164.839 287.269 164 288.063 164 289.043V290.226ZM182 290.226C182 291.205 181.161 292 180.125 292C179.089 292 178.25 291.205 178.25 290.226V289.043C178.25 288.063 179.089 287.269 180.125 287.269C181.161 287.269 182 288.063 182 289.043V290.226ZM174.125 307.75V302.5H174.875L173 300.25L171.125 302.5H171.875L171.875 307.75H174.125Z"
        stroke="url(#paint4_linear_2055_14302)" stroke-width="1.5" stroke-miterlimit="10" />
    <rect x="53" y="218" width="48" height="48" rx="24" fill="white" />
    <path
        d="M77.0003 233.593L75.871 232.464C73.5853 230.179 69.8796 230.179 67.594 232.464L67.5932 232.465C65.3075 234.751 65.3075 238.456 67.593 240.742M77.0003 233.593L72.4844 238.108C73.7312 239.355 75.7526 239.355 76.9994 238.108L79.2569 235.851L86.4058 243C87.0292 243.623 87.0292 244.634 86.4058 245.257C85.7824 245.881 84.772 245.881 84.1486 245.257M77.0003 233.593L78.1285 232.464C80.4142 230.179 84.1201 230.179 86.4058 232.464C88.6916 234.75 88.6915 238.456 86.4056 240.742M73.6129 250.525C72.9895 251.149 71.9787 251.149 71.3553 250.525C70.7319 249.902 70.7319 248.891 71.3553 248.268L72.1079 247.515C72.7313 246.892 73.742 246.892 74.3654 247.515C74.9888 248.139 74.9888 249.149 74.3654 249.773M73.6129 250.525L74.3654 249.773M73.6129 250.525C72.9895 251.149 72.9897 252.159 73.6131 252.782C74.2365 253.406 75.2473 253.406 75.8707 252.782L76.6232 252.03C77.2466 251.406 77.2466 250.395 76.6232 249.772C75.9998 249.149 74.9888 249.149 74.3654 249.773M76.3789 246.518L79.6337 249.773M79.6337 249.773C80.2571 250.396 81.2678 250.396 81.8911 249.773C82.5145 249.149 82.5146 248.139 81.8912 247.515M79.6337 249.773C80.2572 250.396 80.2571 251.407 79.6337 252.031C79.0103 252.654 77.9996 252.654 77.3762 252.031L76.9999 251.654M81.8912 247.515L78.6368 244.261M81.8912 247.515C82.5146 248.139 83.5252 248.138 84.1486 247.515C84.772 246.892 84.772 245.881 84.1486 245.257M80.8942 242.003L84.1486 245.257M68.3457 242.247L66.8407 243.752C66.2173 244.376 66.2173 245.386 66.8407 246.01C67.4641 246.633 68.4748 246.633 69.0982 246.01L70.6033 244.505C71.2266 243.881 71.2266 242.871 70.6033 242.247C69.9799 241.624 68.9691 241.624 68.3457 242.247ZM70.2858 244.822L69.0067 246.101C68.3833 246.724 68.3833 247.735 69.0067 248.358C69.6301 248.982 70.6408 248.982 71.2642 248.358L72.5434 247.079C73.1668 246.456 73.1668 245.445 72.5434 244.822C71.92 244.198 70.9092 244.198 70.2858 244.822Z"
        stroke="url(#paint5_linear_2055_14302)" stroke-width="1.5" stroke-miterlimit="10" />
    <rect x="245" y="218" width="48" height="48" rx="24" fill="white" />
    <path
        d="M260.375 248.75L263.786 245.34C264.24 244.885 264.867 244.647 265.509 244.684L268.228 244.844C269.653 244.928 270.702 246.212 270.5 247.625M266 247.625H272.375L275.868 244.132C276.838 243.162 278.412 243.162 279.382 244.132L279.5 244.25L273.409 250.341C272.987 250.763 272.415 251 271.818 251H264.875L263.75 252.125M264.875 253.25L259.25 247.625M269 239.306C268.112 239.306 267.393 238.625 267.393 237.785V236.771C267.393 235.931 268.112 235.25 269 235.25C269.887 235.25 270.607 235.931 270.607 236.771V237.785C270.607 238.625 269.887 239.306 269 239.306ZM269 239.306C270.585 239.306 272.214 240.066 272.214 241.587V242.215C272.214 242.511 271.974 242.75 271.678 242.75H266.321C266.025 242.75 265.785 242.511 265.785 242.215V241.587C265.785 240.066 267.414 239.306 269 239.306ZM274.357 238.757C273.765 238.757 273.285 238.303 273.285 237.744V237.068C273.285 236.508 273.765 236.054 274.357 236.054C274.948 236.054 275.428 236.508 275.428 237.068V237.744C275.428 238.303 274.948 238.757 274.357 238.757ZM274.357 238.757C275.414 238.757 276.5 239.265 276.5 240.279V241.144C276.5 241.439 276.26 241.679 275.964 241.679H273.821M274.357 238.757C273.3 238.757 272.214 239.265 272.214 240.279V241.411M263.643 238.757C264.235 238.757 264.714 238.303 264.714 237.744V237.068C264.714 236.508 264.235 236.054 263.643 236.054C263.051 236.054 262.571 236.508 262.571 237.068V237.744C262.571 238.303 263.051 238.757 263.643 238.757ZM263.643 238.757C262.586 238.757 261.5 239.265 261.5 240.279V241.144C261.5 241.439 261.74 241.679 262.036 241.679H264.179M263.643 238.757C264.7 238.757 265.786 239.265 265.786 240.279V241.411M258.332 245.58C257.946 244.43 257.75 243.225 257.75 242C257.75 241.712 257.761 241.427 257.782 241.145M279.365 237.621C279.952 239.007 280.25 240.481 280.25 242M258.215 238.789C258.645 237.343 259.352 236.016 260.318 234.846M274.956 232.455C276.238 233.257 277.331 234.291 278.202 235.527M262.029 233.17C263.218 232.23 264.56 231.55 266.015 231.151M268.379 230.767C268.586 230.756 268.793 230.75 269 230.75C270.305 230.75 271.584 230.972 272.801 231.409"
        stroke="url(#paint6_linear_2055_14302)" stroke-width="1.5" stroke-miterlimit="10" />

    <defs>
        <radialGradient id="paint0_radial_2055_14302" cx="0" cy="0" r="1" gradientUnits="userSpaceOnUse"
            gradientTransform="translate(173 190) rotate(90) scale(190 137.689)">
            <stop stop-color="#D9D9D9" />
            <stop offset="1" stop-color="#D9D9D9" stop-opacity="0" />
        </radialGradient>
        <linearGradient id="paint1_linear_2055_14302" x1="184.252" y1="70.75" x2="161.752" y2="93.2544"
            gradientUnits="userSpaceOnUse">
            <stop stop-color="#407A7A" />
            <stop offset="1" stop-color="#002832" />
        </linearGradient>
        <linearGradient id="paint2_linear_2055_14302" x1="86.75" y1="127.5" x2="65.1289" y2="146.884"
            gradientUnits="userSpaceOnUse">
            <stop stop-color="#407A7A" />
            <stop offset="1" stop-color="#002832" />
        </linearGradient>
        <linearGradient id="paint3_linear_2055_14302" x1="281" y1="126.75" x2="258.547" y2="150.7"
            gradientUnits="userSpaceOnUse">
            <stop stop-color="#407A7A" />
            <stop offset="1" stop-color="#002832" />
        </linearGradient>
        <linearGradient id="paint4_linear_2055_14302" x1="184.25" y1="287.269" x2="162.275" y2="309.763"
            gradientUnits="userSpaceOnUse">
            <stop stop-color="#407A7A" />
            <stop offset="1" stop-color="#002832" />
        </linearGradient>
        <linearGradient id="paint5_linear_2055_14302" x1="88.1201" y1="230.75" x2="65.6221" y2="252.99"
            gradientUnits="userSpaceOnUse">
            <stop stop-color="#407A7A" />
            <stop offset="1" stop-color="#002832" />
        </linearGradient>
        <linearGradient id="paint6_linear_2055_14302" x1="280.25" y1="230.75" x2="257.75" y2="253.25"
            gradientUnits="userSpaceOnUse">
            <stop stop-color="#407A7A" />
            <stop offset="1" stop-color="#002832" />
        </linearGradient>
    </defs>
</svg>