<svg width="346" height="380" viewBox="0 0 346 380" fill="none" xmlns="http://www.w3.org/2000/svg">
    <defs>
        <filter id="glow">
            <!-- filter processes -->
            <feGaussianBlur in="SourceGraphic" stdDeviation="1" /><!-- stdDeviation is amount of blur -->
        </filter>
    </defs>
    <mask id="mask0_723_46359" style="mask-type:alpha" maskUnits="userSpaceOnUse" x="0" y="0" width="346" height="380">
        <rect width="346" height="380" fill="url(#paint0_radial_723_46359)" />
    </mask>
    <g mask="url(#mask0_723_46359)">
        <path d="M108 -41L0 30.4286V137.571L108 209L216 137.571V30.4286L108 -41Z" stroke="#0A5F81" />
        <path d="M238 171L130 242.429V349.571L238 421L346 349.571V242.429L238 171Z" stroke="#0A5F81" />
        <path d="M108 171L0 242.429V349.571L108 421L216 349.571V242.429L108 171Z" stroke="#0A5F81" />
        <path d="M238 -41L130 30.4286V137.571L238 209L346 137.571V30.4286L238 -41Z" stroke="#0A5F81" />
        <path d="M238 201L156 255.286V336.714L238 391L320 336.714V255.286L238 201Z" stroke="#1FDFFF" />
        <path class="glow-line glow-line-4" d="M238 201L156 255.286V336.714L238 391L320 336.714V255.286L238 201Z"
            stroke="#78FDFC" stroke-width="2" filter="url(#glow)" />
        <path d="M108 201L26 255.286V336.714L108 391L190 336.714V255.286L108 201Z" stroke="#1FDFFF" />
        <path class="glow-line glow-line-1" d="M108 201L26 255.286L108 391L190 336.714V255.286L108 201Z"
            stroke="#78FDFC" stroke-width="2" filter="url(#glow)" />
        <path d="M108 -11L26 43.2857V124.714L108 179L190 124.714V43.2857L108 -11Z" stroke="#1FDFFF" />
        <path class="glow-line glow-line-3" d="M108 -11L26 43.2857V124.714L108 179L190 124.714V43.2857L108 -11Z"
            stroke="#78FDFC" stroke-width="2" filter="url(#glow)" />
        <path d="M238 -11L156 43.2857V124.714L238 179L320 124.714V43.2857L238 -11Z" stroke="#1FDFFF" />
        <path class="glow-line glow-line-2" d="M238 -11L156 43.2857V124.714L238 179L320 124.714V43.2857L238 -11Z"
            stroke="#78FDFC" stroke-width="2" filter="url(#glow)" />
    </g>
    <path d="M77 242L174 298L269 242V137L174 82L77 137V242Z" stroke="#0F8BBD" />
    <rect x="53" y="114" width="48" height="48" rx="24" fill="white" />
    <path
        d="M78.0932 146.384C75.4398 147.9 72.1496 147.9 69.5113 146.384C68.7683 145.96 67.8283 146.217 67.4037 146.96C66.9792 147.703 67.2369 148.643 67.9799 149.068C69.7691 150.099 71.7857 150.599 73.8022 150.599C75.8189 150.599 77.8355 150.084 79.6247 149.068C80.3676 148.643 80.6254 147.703 80.2008 146.96C79.7763 146.217 78.8362 145.96 78.0932 146.384Z"
        fill="#18ACB4" />
    <path
        d="M79.2149 125.398C75.4091 125.398 72.3008 128.507 72.3008 132.313C72.3008 132.388 72.3008 132.464 72.3008 132.54C72.3008 132.585 72.3008 132.616 72.3008 132.661V142.881C72.3008 143.73 72.9983 144.427 73.8474 144.427C74.6964 144.427 75.3939 143.73 75.3939 142.881V138.074C76.4856 138.802 77.8048 139.227 79.2149 139.227C83.0358 139.227 86.1289 136.118 86.1289 132.313C86.1289 128.507 83.0358 125.398 79.2149 125.398ZM79.2149 136.149C77.1073 136.149 75.3939 134.435 75.3939 132.328C75.3939 130.22 77.1073 128.507 79.2149 128.507C81.3224 128.507 83.0358 130.22 83.0358 132.328C83.051 134.42 81.3224 136.149 79.2149 136.149Z"
        fill="#18ACB4" />
    <rect x="149" y="58" width="48" height="48" rx="24" fill="white" />
    <g clip-path="url(#clip0_723_46359)">
        <path d="M173 82H161.625V93.375H173V82Z" fill="#131313" />
    </g>
    <rect x="178.688" y="70.625" width="5.6875" height="22.75" fill="#131313" />
    <rect x="161.625" y="76.3125" width="5.6875" height="22.75" transform="rotate(-90 161.625 76.3125)"
        fill="#131313" />
    <rect x="245" y="114" width="48" height="48" rx="24" fill="white" />
    <path
        d="M257.375 130.86V140.63C257.375 145.566 260.687 149.746 265.205 151.066V148.738C261.923 147.507 259.585 144.336 259.585 140.631V130.861C259.585 129.676 260.551 128.71 261.736 128.71V126.5C259.33 126.499 257.375 128.455 257.375 130.86Z"
        fill="url(#paint1_linear_723_46359)" />
    <path
        d="M261.736 126.5V128.71C262.922 128.71 263.888 129.676 263.888 130.861V140.631C263.888 143.035 265.843 144.99 268.246 144.99H269.293V142.78H268.246C267.061 142.78 266.098 141.814 266.098 140.631V130.861C266.098 128.457 264.14 126.5 261.736 126.5Z"
        fill="url(#paint2_linear_723_46359)" />
    <path
        d="M265.205 148.738V151.066C266.171 151.348 267.19 151.5 268.248 151.5C270.654 151.5 272.609 149.545 272.609 147.141V130.861C272.609 129.676 273.575 128.71 274.758 128.71V126.5C272.354 126.5 270.399 128.458 270.399 130.861V147.142C270.399 148.328 269.433 149.291 268.248 149.291C267.177 149.291 266.154 149.096 265.205 148.738Z"
        fill="url(#paint3_linear_723_46359)" />
    <path
        d="M273.713 142.78V144.99H274.757C277.161 144.99 279.121 143.035 279.121 140.631V130.861C279.121 128.458 277.161 126.5 274.757 126.5V128.71C275.945 128.71 276.911 129.676 276.911 130.861V140.631C276.911 141.814 275.945 142.78 274.757 142.78H273.713Z"
        fill="url(#paint4_linear_723_46359)" />
    <rect x="53" y="218" width="48" height="48" rx="24" fill="white" />
    <path
        d="M74.2896 241.461V253.092L70.0836 249.566C70.074 249.557 70.0549 249.547 70.0453 249.557C68.7806 249.7 67.5159 249.892 66.2608 250.122C66.0213 250.16 65.8105 249.988 65.8105 249.748V242.86C65.8105 242.63 65.9734 242.429 66.2034 242.39C68.8764 241.892 71.5782 241.585 74.2896 241.461Z"
        fill="#3B53F1" />
    <path
        d="M88.1999 242.86V249.748C88.1999 249.988 87.9796 250.17 87.7496 250.122C86.485 249.892 85.2203 249.7 83.9556 249.557L79.7305 253.102V241.461C82.4323 241.585 85.1341 241.892 87.8167 242.381C88.0275 242.429 88.1999 242.63 88.1999 242.86Z"
        fill="#8753F1" />
    <path
        d="M88.2008 232.176V236.803C88.2008 236.928 88.1433 237.052 88.0475 237.129L83.7744 240.712V236.324C82.4235 236.171 81.0726 236.065 79.7217 235.998C77.911 235.912 76.1002 235.912 74.2894 235.998C72.9289 236.056 71.578 236.171 70.2271 236.324V240.712L65.9541 237.129C65.8583 237.043 65.8008 236.928 65.8008 236.803V232.176C65.8008 231.994 65.9349 231.831 66.1169 231.802C67.4774 231.553 68.8475 231.342 70.2271 231.189C74.7301 230.671 79.2714 230.671 83.7744 231.189C85.1541 231.342 86.5241 231.553 87.8846 231.802C88.0667 231.831 88.2008 231.994 88.2008 232.176Z"
        fill="url(#paint5_linear_723_46359)" />
    <rect x="149" y="274" width="48" height="48" rx="24" fill="white" />
    <g clip-path="url(#clip1_723_46359)">
        <path
            d="M175.845 294.31L176.491 291.19C176.604 290.65 177.136 290.303 177.67 290.415C178.21 290.526 178.556 291.055 178.445 291.594L177.882 294.309H184.906L184.92 294.24C185.458 291.624 183.773 289.067 181.158 288.528L173.48 286.949L171.957 294.308H175.845V294.31Z"
            fill="#00A287" />
        <path
            d="M170.428 301.699L169.798 304.742C169.7 305.213 169.285 305.538 168.822 305.538C168.755 305.538 168.687 305.531 168.619 305.517C168.079 305.406 167.733 304.877 167.844 304.338L168.39 301.7H161.091L161.079 301.763C160.541 304.378 162.226 306.935 164.841 307.474L172.783 309.107L174.317 301.7H170.428V301.699Z"
            fill="#00A287" />
        <path d="M170.842 299.703H174.73L175.433 296.305H171.545L170.842 299.703Z" fill="#00A287" />
        <path
            d="M169.506 296.302H166.447C165.897 296.302 165.449 295.856 165.449 295.304C165.449 294.752 165.897 294.306 166.447 294.306H169.919L171.525 286.546L169.239 286.077C166.623 285.539 164.066 287.224 163.528 289.839L161.5 299.701H168.801L169.504 296.302H169.506Z"
            fill="#00A287" />
        <path
            d="M176.768 299.702H179.624C180.175 299.702 180.622 300.148 180.622 300.7C180.622 301.252 180.175 301.698 179.624 301.698H176.355L174.738 309.506L176.761 309.922C179.377 310.46 181.934 308.775 182.473 306.159L184.499 296.305H177.471L176.768 299.703V299.702Z"
            fill="#00A287" />
    </g>
    <rect x="245" y="218" width="48" height="48" rx="24" fill="white" />
    <path fill-rule="evenodd" clip-rule="evenodd"
        d="M281.321 242.14C281.321 249.949 274.973 256.28 267.142 256.28C263.979 256.28 261.058 255.247 258.7 253.501C259.104 253.727 259.52 253.932 259.948 254.115C261.57 254.812 263.318 255.172 265.085 255.173C268.375 255.172 271.543 253.932 273.956 251.702C276.37 249.472 277.85 246.416 278.102 243.145C278.137 242.837 278.157 242.527 278.16 242.217C278.16 241.822 278.127 241.364 278.087 240.948C278.084 240.909 278.082 240.868 278.081 240.828C278.08 240.782 278.078 240.735 278.073 240.69L278.062 240.701C278.004 240.159 277.941 239.74 277.941 239.74H267.652L266.852 241.232L265.015 244.693H272.79C272.502 245.551 272.072 246.354 271.518 247.07C270.762 248.057 269.789 248.856 268.673 249.406C267.557 249.956 266.329 250.242 265.085 250.242C264.132 250.24 263.186 250.07 262.293 249.74C260.73 249.171 259.381 248.136 258.427 246.777C257.474 245.418 256.962 243.799 256.961 242.14C256.961 241.076 257.171 240.022 257.579 239.04C257.988 238.057 258.586 237.164 259.34 236.411C260.095 235.659 260.99 235.062 261.976 234.655C262.961 234.248 264.018 234.038 265.085 234.038C266.806 234.036 268.484 234.581 269.873 235.595L270.94 233.605L272.21 231.212C270.091 229.834 267.614 229.103 265.085 229.107C262.848 229.107 260.668 229.68 258.742 230.747C261.093 229.02 263.998 228 267.142 228C274.973 228 281.321 234.331 281.321 242.14Z"
        fill="#FF5700" />
    <defs>
        <radialGradient id="paint0_radial_723_46359" cx="0" cy="0" r="1" gradientUnits="userSpaceOnUse"
            gradientTransform="translate(173 190) rotate(90) scale(190 137.689)">
            <stop stop-color="#D9D9D9" />
            <stop offset="1" stop-color="#D9D9D9" stop-opacity="0" />
        </radialGradient>
        <linearGradient id="paint1_linear_723_46359" x1="262.654" y1="148.045" x2="258.158" y2="127.904"
            gradientUnits="userSpaceOnUse">
            <stop stop-color="#9B6DEE" />
            <stop offset="1" stop-color="#6F2DE7" />
        </linearGradient>
        <linearGradient id="paint2_linear_723_46359" x1="274.004" y1="148.554" x2="266.002" y2="137.18"
            gradientUnits="userSpaceOnUse">
            <stop stop-color="#43129C" />
            <stop offset="1" stop-color="#6F2DE7" />
        </linearGradient>
        <linearGradient id="paint3_linear_723_46359" x1="267.753" y1="149.347" x2="273.148" y2="134.466"
            gradientUnits="userSpaceOnUse">
            <stop stop-color="#9B6DEE" />
            <stop offset="1" stop-color="#6F2DE7" />
        </linearGradient>
        <linearGradient id="paint4_linear_723_46359" x1="267.748" y1="149.188" x2="276.695" y2="134.577"
            gradientUnits="userSpaceOnUse">
            <stop stop-color="#43129C" />
            <stop offset="1" stop-color="#6F2DE7" />
        </linearGradient>
        <linearGradient id="paint5_linear_723_46359" x1="65.8056" y1="235.762" x2="88.1961" y2="235.762"
            gradientUnits="userSpaceOnUse">
            <stop stop-color="#3B53F1" />
            <stop offset="0.5" stop-color="#6542ED" />
            <stop offset="1" stop-color="#8753F1" />
        </linearGradient>
        <clipPath id="clip0_723_46359">
            <path
                d="M161.625 87.6875C161.625 84.5464 164.171 82 167.312 82C170.454 82 173 84.5464 173 87.6875C173 90.8286 170.454 93.375 167.312 93.375H161.625V87.6875Z"
                fill="white" />
        </clipPath>
        <clipPath id="clip1_723_46359">
            <rect width="24.5" height="24.5" fill="white" transform="translate(160.75 285.75)" />
        </clipPath>
    </defs>
</svg>