<svg width="346" height="390" viewBox="0 0 346 390" fill="none" xmlns="http://www.w3.org/2000/svg">
    <mask id="mask0_2055_12850" style="mask-type:alpha" maskUnits="userSpaceOnUse" x="0" y="0" width="346" height="390">
        <rect width="346" height="390" fill="url(#paint0_radial_2055_12850)" />
    </mask>
    <defs>
        <filter id="glow">
            <!-- filter processes -->
            <feGaussianBlur in="SourceGraphic" stdDeviation="1" /><!-- stdDeviation is amount of blur -->
        </filter>
    </defs>
    <g mask="url(#mask0_2055_12850)">
        <circle cx="199" cy="265" r="122" stroke="#0A5F81" />
        <circle cx="147" cy="265" r="122" stroke="#0A5F81" />
        <circle cx="147" cy="125" r="122" stroke="#0A5F81" />
        <circle cx="199" cy="125" r="122" stroke="#0A5F81" />
        <circle cx="51" cy="265" r="122" stroke="#1FDFFF" />
        <circle class="glow-line glow-line-1" cx="51" cy="265" r="122" stroke="#78FDFC" stroke-width="2"
            filter="url(#glow)" />
        <circle cx="295" cy="265" r="122" stroke="#1FDFFF" />
        <circle class="glow-line glow-line-4" cx="295" cy="265" r="122" stroke="#78FDFC" stroke-width="2"
            filter="url(#glow)" />

        <circle cx="295" cy="125" r="122" stroke="#1FDFFF" />
        <circle class="glow-line glow-line-3" cx="295" cy="125" r="122" stroke="#78FDFC" stroke-width="2"
            filter="url(#glow)" />
        <circle cx="51" cy="125" r="122" stroke="#1FDFFF" />
        <circle class="glow-line glow-line-2" cx="51" cy="125" r="122" stroke="#78FDFC" stroke-width="2"
            filter="url(#glow)" />

    </g>
    <path d="M77 247L174 303L269 247V142L174 87L77 142V247Z" stroke="#0F8BBD" />
    <rect x="53" y="119" width="48" height="48" rx="24" fill="white" />
    <g clip-path="url(#clip0_2055_12850)">
        <path
            d="M73.25 146.75C71.179 146.75 69.5 148.429 69.5 150.5C69.5 152.571 71.179 154.25 73.25 154.25C75.321 154.25 77 152.571 77 150.5V134.75C77 133.093 75.6569 131.75 74 131.75C72.3431 131.75 71 133.093 71 134.75C71 136.407 72.3431 137.75 74 137.75M69.6728 151.62C67.4885 151.515 65.75 149.71 65.75 147.5C65.75 145.222 67.5968 143.375 69.875 143.375C70.9105 143.375 71.75 142.536 71.75 141.5M71.014 134.848C70.7701 134.784 70.514 134.75 70.25 134.75C68.5931 134.75 67.25 136.093 67.25 137.75C67.25 138.12 67.317 138.474 67.4395 138.802C66.4396 139.288 65.75 140.313 65.75 141.5C65.75 142.678 66.4289 143.697 67.4168 144.188M79.25 154.25H83.3M79.25 152H84.05M83 140C83 141.657 81.6569 143 80 143V149.75H83.75C83.75 145.563 88.25 143.75 88.25 139.25C88.25 134.75 85.25 131.75 80.75 131.75H79.25"
            stroke="url(#paint1_linear_2055_12850)" stroke-width="1.5" stroke-miterlimit="10" />
    </g>
    <rect x="149" y="63" width="48" height="48" rx="24" fill="white" />
    <g clip-path="url(#clip1_2055_12850)">
        <path
            d="M172.25 97.5L174.5 95.25M174.5 95.25L172.25 93M174.5 95.25H167.75M166.25 81.75C165.473 81.75 164.844 81.1204 164.844 80.3438V79.4062C164.844 78.6296 165.473 78 166.25 78C167.027 78 167.656 78.6296 167.656 79.4062V80.3438C167.656 81.1204 167.027 81.75 166.25 81.75ZM166.25 81.75C167.7 81.75 168.909 82.7591 169.189 83.6357M166.25 81.75C164.8 81.75 163.591 82.7591 163.311 83.6357M181.25 81V86.25C181.25 86.6642 180.914 87 180.5 87H175.25M173 78.75H178.25M172.25 87H165.5C165.086 87 164.75 87.3358 164.75 87.75V93M170.75 80.25C170.75 82.7353 168.735 84.75 166.25 84.75C163.765 84.75 161.75 82.7353 161.75 80.25C161.75 77.7647 163.765 75.75 166.25 75.75C168.735 75.75 170.75 77.7647 170.75 80.25ZM172.493 85.5H175.007C175.141 85.5 175.25 85.6089 175.25 85.7433V88.2567C175.25 88.3911 175.141 88.5 175.007 88.5H172.493C172.359 88.5 172.25 88.3911 172.25 88.2567V85.7433C172.25 85.6089 172.359 85.5 172.493 85.5ZM178.671 76.5H183.829C184.061 76.5 184.25 76.6887 184.25 76.9215V80.5785C184.25 80.8113 184.061 81 183.829 81H178.671C178.439 81 178.25 80.8113 178.25 80.5785V76.9215C178.25 76.6887 178.439 76.5 178.671 76.5ZM162.171 93H167.329C167.561 93 167.75 93.1887 167.75 93.4215V97.0785C167.75 97.3113 167.561 97.5 167.329 97.5H162.171C161.939 97.5 161.75 97.3113 161.75 97.0785V93.4215C161.75 93.1887 161.939 93 162.171 93ZM184.25 94.5C184.25 96.5711 182.571 98.25 180.5 98.25C178.429 98.25 176.75 96.5711 176.75 94.5C176.75 92.4289 178.429 90.75 180.5 90.75C182.571 90.75 184.25 92.4289 184.25 94.5ZM182 94.5C182 95.3284 181.328 96 180.5 96C179.672 96 179 95.3284 179 94.5C179 93.6716 179.672 93 180.5 93C181.328 93 182 93.6716 182 94.5Z"
            stroke="url(#paint2_linear_2055_12850)" stroke-width="1.5" stroke-miterlimit="10" />
    </g>
    <rect x="245" y="119" width="48" height="48" rx="24" fill="white" />
    <path
        d="M260.75 136.25H268.25M260.75 136.25V145.25M260.75 136.25L268.25 145.25M268.25 136.25V145.25M268.25 136.25L260.75 145.25M268.25 145.25H260.75M270.5 139.25H275.857M270.5 136.25H278M270.5 148.25H258.5C258.086 148.25 257.75 147.914 257.75 147.5V134C257.75 133.586 258.086 133.25 258.5 133.25H279.5C279.914 133.25 280.25 133.586 280.25 134V142.25M278.439 147.886L272.075 154.25H269.954V152.129L276.318 145.765M278.439 147.886L276.318 145.765M278.439 147.886L280.03 146.295C280.323 146.002 280.323 145.527 280.03 145.234L278.97 144.174C278.677 143.881 278.202 143.881 277.909 144.174L276.318 145.765M265.25 154.25H267.5M261.499 150.501V148.25M261.5 152V152.75C261.5 153.578 262.172 154.25 263 154.25H263.75"
        stroke="url(#paint3_linear_2055_12850)" stroke-width="1.5" stroke-miterlimit="10" />
    <rect x="53" y="223" width="48" height="48" rx="24" fill="white" />
    <g clip-path="url(#clip2_2055_12850)">
        <path
            d="M66.5 239.5V241.75M71.75 236.5H69.5M79.3375 236.5H77M75.5002 236.5H73.25M66.5 243.25V245.5M82.25 243.25V245.5M82.25 247V249.25M71.75 252.25H69.5M75.5 252.25H73.25M79.25 252.25H77M66.5 247V249.206M82.25 239.5V241.75M89 249.25H86C85.5858 249.25 85.25 248.914 85.25 248.5V240.25C85.25 239.836 85.5858 239.5 86 239.5H89M69.5 259V256C69.5 255.586 69.8358 255.25 70.25 255.25H78.5C78.9142 255.25 79.25 255.586 79.25 256V259M66.125 235.75H66.875C67.0821 235.75 67.25 235.918 67.25 236.125V236.875C67.25 237.082 67.0821 237.25 66.875 237.25H66.125C65.9179 237.25 65.75 237.082 65.75 236.875V236.125C65.75 235.918 65.9179 235.75 66.125 235.75ZM81.875 235.75H82.625C82.8321 235.75 83 235.918 83 236.125V236.875C83 237.082 82.8321 237.25 82.625 237.25H81.875C81.6679 237.25 81.5 237.082 81.5 236.875V236.125C81.5 235.918 81.6679 235.75 81.875 235.75ZM66.125 251.5H66.875C67.0821 251.5 67.25 251.668 67.25 251.875V252.625C67.25 252.832 67.0821 253 66.875 253H66.125C65.9179 253 65.75 252.832 65.75 252.625V251.875C65.75 251.668 65.9179 251.5 66.125 251.5ZM81.4125 250.044V257.169L83.7875 254.794L87.1125 254.319L81.4125 250.044ZM70.25 239.5H78.5C78.9142 239.5 79.25 239.836 79.25 240.25V248.5C79.25 248.914 78.9142 249.25 78.5 249.25H70.25C69.8358 249.25 69.5 248.914 69.5 248.5V240.25C69.5 239.836 69.8358 239.5 70.25 239.5Z"
            stroke="url(#paint4_linear_2055_12850)" stroke-width="1.5" stroke-miterlimit="10" />
    </g>
    <rect x="149" y="279" width="48" height="48" rx="24" fill="white" />
    <path
        d="M170.75 309H179M169.194 300.402C168.924 299.522 167.709 298.5 166.25 298.5M166.25 298.5C164.8 298.5 163.591 299.509 163.311 300.386M166.25 298.5C165.473 298.5 164.844 297.87 164.844 297.094V296.156C164.844 295.38 165.473 294.75 166.25 294.75C167.027 294.75 167.656 295.38 167.656 296.156V297.094C167.656 297.87 167.027 298.5 166.25 298.5ZM173 300.75C173 299.508 173.193 298.273 173.571 297.089L174.8 293.25H176L177.229 297.089C177.607 298.273 177.8 299.508 177.8 300.75M173.22 298.5H177.58M179.75 292.5V297.75M181.25 312H164.75C163.093 312 161.75 310.657 161.75 309C161.75 307.343 163.093 306 164.75 306H181.25C182.907 306 184.25 307.343 184.25 309C184.25 310.657 182.907 312 181.25 312ZM167.75 309C167.75 309.414 167.414 309.75 167 309.75C166.586 309.75 166.25 309.414 166.25 309C166.25 308.586 166.586 308.25 167 308.25C167.414 308.25 167.75 308.586 167.75 309ZM170.75 297C170.75 299.485 168.735 301.5 166.25 301.5C163.765 301.5 161.75 299.485 161.75 297C161.75 294.515 163.765 292.5 166.25 292.5C168.735 292.5 170.75 294.515 170.75 297ZM179.75 299.25C179.75 299.664 180.086 300 180.5 300H182C182.828 300 183.5 299.294 183.5 298.35V297.21C183.5 296.266 182.828 295.5 182 295.5H179.75L179.75 299.25Z"
        stroke="url(#paint5_linear_2055_12850)" stroke-width="1.5" stroke-miterlimit="10" />
    <rect x="245" y="223" width="48" height="48" rx="24" fill="white" />
    <g clip-path="url(#clip3_2055_12850)">
        <path
            d="M263 255.25H265.25M263 255.25C263 256.493 261.993 257.5 260.75 257.5C259.507 257.5 258.5 256.493 258.5 255.25C258.5 254.007 259.507 253 260.75 253C261.993 253 263 254.007 263 255.25ZM266.75 255.25H269M270.5 255.25H272.75M271.988 247H274.238M263.75 238.75H266M267.5 238.75H269.75M271.25 238.75H273.5M268.238 247H270.488M263.75 247H266.75M275.75 254.5L277.25 256L280.625 252.625M278.75 252.25H275C274.586 252.25 274.25 252.586 274.25 253V257.5C274.25 257.914 274.586 258.25 275 258.25H279.5C279.914 258.25 280.25 257.914 280.25 257.5V255.25M259.25 245.5L260.75 247L264.125 243.625M262.036 243.25H258.5C258.086 243.25 257.75 243.586 257.75 244V248.5C257.75 248.914 258.086 249.25 258.5 249.25H263C263.414 249.25 263.75 248.914 263.75 248.5V246.25M278 250V248.5C278 247.672 277.328 247 276.5 247H275.738M260 241V240.25C260 239.422 260.672 238.75 261.5 238.75H262.25M273.5 236.5V243.25L275.75 241L278.9 240.55L273.5 236.5Z"
            stroke="#002832" stroke-width="1.5" stroke-miterlimit="10" />
    </g>
    <defs>
        <radialGradient id="paint0_radial_2055_12850" cx="0" cy="0" r="1" gradientUnits="userSpaceOnUse"
            gradientTransform="translate(173 195) rotate(90) scale(195 137.689)">
            <stop stop-color="#D9D9D9" />
            <stop offset="1" stop-color="#D9D9D9" stop-opacity="0" />
        </radialGradient>
        <linearGradient id="paint1_linear_2055_12850" x1="88.25" y1="131.75" x2="65.7502" y2="154.25"
            gradientUnits="userSpaceOnUse">
            <stop stop-color="#407A7A" />
            <stop offset="1" stop-color="#002832" />
        </linearGradient>
        <linearGradient id="paint2_linear_2055_12850" x1="184.25" y1="75.75" x2="161.75" y2="98.2502"
            gradientUnits="userSpaceOnUse">
            <stop stop-color="#407A7A" />
            <stop offset="1" stop-color="#002832" />
        </linearGradient>
        <linearGradient id="paint3_linear_2055_12850" x1="280.25" y1="133.25" x2="259.3" y2="155.697"
            gradientUnits="userSpaceOnUse">
            <stop stop-color="#407A7A" />
            <stop offset="1" stop-color="#002832" />
        </linearGradient>
        <linearGradient id="paint4_linear_2055_12850" x1="89" y1="235.75" x2="65.7502" y2="259"
            gradientUnits="userSpaceOnUse">
            <stop stop-color="#407A7A" />
            <stop offset="1" stop-color="#002832" />
        </linearGradient>
        <linearGradient id="paint5_linear_2055_12850" x1="184.25" y1="292.5" x2="164.948" y2="314.772"
            gradientUnits="userSpaceOnUse">
            <stop stop-color="#407A7A" />
            <stop offset="1" stop-color="#002832" />
        </linearGradient>
        <clipPath id="clip0_2055_12850">
            <rect width="24" height="24" fill="white" transform="translate(65 131)" />
        </clipPath>
        <clipPath id="clip1_2055_12850">
            <rect width="24" height="24" fill="white" transform="translate(161 75)" />
        </clipPath>
        <clipPath id="clip2_2055_12850">
            <rect width="24" height="24" fill="white" transform="translate(65 235)" />
        </clipPath>
        <clipPath id="clip3_2055_12850">
            <rect width="24" height="24" fill="white" transform="translate(257 235)" />
        </clipPath>
    </defs>
</svg>