<svg width="204" height="204" viewBox="0 0 204 204" fill="none" xmlns="http://www.w3.org/2000/svg">
<mask id="mask0_1034_14376" style="mask-type:alpha" maskUnits="userSpaceOnUse" x="0" y="0" width="204" height="204">
<rect width="204" height="204" fill="url(#paint0_radial_1034_14376)"/>
</mask>
<g mask="url(#mask0_1034_14376)">
<path d="M82 60L22 99.4286L22 158.571L82 198L142 158.571V99.4286L82 60Z" stroke="white" style="mix-blend-mode:overlay"/>
<path d="M82 60L22 99.4286L22 158.571L82 198L142 158.571V99.4286L82 60Z" stroke="white" style="mix-blend-mode:overlay"/>
<path d="M82 60L22 99.4286L22 158.571L82 198L142 158.571V99.4286L82 60Z" stroke="white" style="mix-blend-mode:overlay"/>
<path d="M98 33L38 72.4286L38 131.571L98 171L158 131.571V72.4286L98 33Z" stroke="white" style="mix-blend-mode:overlay"/>
<path d="M98 33L38 72.4286L38 131.571L98 171L158 131.571V72.4286L98 33Z" stroke="white" style="mix-blend-mode:overlay"/>
<path d="M114 6L54 45.4286L54 104.571L114 144L174 104.571V45.4286L114 6Z" stroke="white" style="mix-blend-mode:overlay"/>
<path d="M114 6L54 45.4286L54 104.571L114 144L174 104.571V45.4286L114 6Z" stroke="white" style="mix-blend-mode:overlay"/>
<path d="M114 6L54 45.4286L54 104.571L114 144L174 104.571V45.4286L114 6Z" stroke="white" style="mix-blend-mode:overlay"/>
</g>
<defs>
<radialGradient id="paint0_radial_1034_14376" cx="0" cy="0" r="1" gradientUnits="userSpaceOnUse" gradientTransform="translate(102 102) rotate(90) scale(102 81.1808)">
<stop stop-color="#D9D9D9"/>
<stop offset="1" stop-color="#D9D9D9" stop-opacity="0"/>
</radialGradient>
</defs>
</svg>
