<svg width="347" height="272" viewBox="0 0 347 272" fill="none" xmlns="http://www.w3.org/2000/svg">
  <g clip-path="url(#clip0_912_9806)">
    <mask id="mask0_912_9806" style="mask-type:alpha" maskUnits="userSpaceOnUse" x="0" y="0" width="347" height="272">
      <rect width="347" height="272" fill="url(#paint0_radial_912_9806)"/>
    </mask>
    <g mask="url(#mask0_912_9806)">
      <circle cx="174" cy="136" r="108" stroke="#BCDCDC"/>
      <g filter="url(#filter0_f_912_9806)">
        <path d="M73.6495 96C68.7141 108.371 66 121.868 66 136C66 195.647 114.353 244 174 244C220.461 244 260.071 214.662 275.312 173.5" stroke="url(#paint1_linear_912_9806)" stroke-width="2" stroke-linecap="round"/>
      </g>
      <circle cx="174" cy="136" r="144" stroke="#BCDCDC"/>
      <path d="M262.5 249.603C296.279 223.251 318 182.162 318 136C318 56.471 253.529 -8 174 -8C136.391 -8 102.149 6.41809 76.5 30.0284" stroke="url(#paint2_linear_912_9806)" stroke-width="2" stroke-linecap="round"/>
    </g>
    <g filter="url(#filter1_dd_912_9806)">
      <rect x="234" y="196" width="32" height="32" rx="16" fill="white" shape-rendering="crispEdges"/>
      <path d="M255.088 211.98C255.088 214.276 256.943 216.142 259.224 216.142C259.228 216.142 259.23 216.142 259.234 216.142V211.982H255.088V211.98Z" fill="#8140F1"/>
      <path d="M250.696 205.161C250.989 206.233 251.678 207.127 252.638 207.676C253.259 208.032 253.964 208.221 254.678 208.221C256.15 208.221 257.514 207.432 258.254 206.159L251.093 202C251.093 202 251.093 202 251.093 202.001C250.546 202.967 250.406 204.089 250.698 205.161H250.696Z" fill="#8140F1"/>
      <path d="M247.721 216.319C246.763 215.77 245.648 215.629 244.581 215.924C243.551 216.208 242.687 216.867 242.139 217.78L249.298 221.939C250.383 219.953 249.685 217.444 247.721 216.319Z" fill="#8140F1"/>
      <path d="M245.681 208.222C246.404 208.222 247.118 208.029 247.746 207.663C248.702 207.106 249.386 206.209 249.671 205.135C249.951 204.078 249.812 202.975 249.278 202.023L242.117 206.182C242.858 207.441 244.22 208.222 245.68 208.222H245.681Z" fill="#8140F1"/>
      <path d="M255.859 215.881C254.791 215.594 253.676 215.743 252.721 216.3C250.774 217.434 250.09 219.931 251.169 221.905L258.329 217.746C257.772 216.822 256.899 216.161 255.859 215.881Z" fill="#8140F1"/>
      <path d="M245.312 211.982C245.312 209.687 243.457 207.82 241.176 207.82V216.142C243.457 216.142 245.312 214.276 245.312 211.981V211.982Z" fill="#8140F1"/>
      <rect x="234.5" y="196.5" width="31" height="31" rx="15.5" stroke="#BCDCDC" shape-rendering="crispEdges"/>
    </g>
    <g filter="url(#filter2_dd_912_9806)">
      <rect x="82" y="196" width="32" height="32" rx="16" fill="white" shape-rendering="crispEdges"/>
      <path fill-rule="evenodd" clip-rule="evenodd" d="M101.337 211.788C101.337 208.104 98.3457 205.125 94.6621 205.125V211.788H101.337Z" fill="#165EA0"/>
      <path fill-rule="evenodd" clip-rule="evenodd" d="M108 211.789C108 215.473 105.021 218.452 101.338 218.452V211.789H108Z" fill="#104378"/>
      <path fill-rule="evenodd" clip-rule="evenodd" d="M101.337 218.452C101.337 214.768 98.3457 211.789 94.6621 211.789V218.452H101.337Z" fill="#2491EB"/>
      <path fill-rule="evenodd" clip-rule="evenodd" d="M88 211.789C88 215.473 90.979 218.452 94.6625 218.452V211.789H88Z" fill="#85C4F5"/>
      <rect x="82.5" y="196.5" width="31" height="31" rx="15.5" stroke="#BCDCDC" shape-rendering="crispEdges"/>
    </g>
    <g filter="url(#filter3_dd_912_9806)">
      <rect x="82" y="44" width="32" height="32" rx="16" fill="white" shape-rendering="crispEdges"/>
      <path d="M100.944 64.3569C100.758 64.4992 100.701 64.7563 100.809 64.9651L101.484 66.2688C101.567 66.4294 101.452 66.6218 101.272 66.6218H94.6832C94.5035 66.6218 94.388 66.4294 94.4712 66.2688L95.1466 64.9651C95.2547 64.7563 95.1976 64.4992 95.0114 64.3569L94.4124 63.8993C92.9844 62.8082 92.0661 61.0837 92.0661 59.1424C92.0661 55.8491 94.7128 53.1795 97.9777 53.1795C99.4124 53.1795 100.728 53.695 101.752 54.5524V52.8635C100.651 52.1891 99.3594 51.8008 97.9777 51.8008C93.9579 51.8008 90.6992 55.0877 90.6992 59.1424C90.6992 61.4603 91.7642 63.5274 93.4276 64.8729C93.5187 64.9465 93.5475 65.0748 93.4935 65.1792L92.3976 67.2945C92.2312 67.6157 92.4623 68.0005 92.8216 68.0005H103.134C103.493 68.0005 103.724 67.6157 103.558 67.2945L102.462 65.1792C102.408 65.0748 102.437 64.9465 102.528 64.8729C104.191 63.5274 105.256 61.4603 105.256 59.1424C105.256 57.8475 104.924 56.6309 104.34 55.5746H102.715C103.453 56.5695 103.889 57.8045 103.889 59.1424C103.889 61.0837 102.971 62.8082 101.543 63.8993L100.944 64.3569Z" fill="#491797"/>
      <path d="M101.345 51.9782C101.377 51.8198 101.601 51.8198 101.633 51.9782L102.194 54.7479C102.206 54.8062 102.251 54.8518 102.309 54.8637L105.055 55.4298C105.212 55.4622 105.212 55.6886 105.055 55.721L102.309 56.2871C102.251 56.299 102.206 56.3446 102.194 56.403L101.633 59.1727C101.601 59.3311 101.377 59.3311 101.345 59.1727L100.783 56.403C100.771 56.3446 100.726 56.299 100.668 56.2871L97.9225 55.721C97.7654 55.6886 97.7654 55.4622 97.9225 55.4298L100.668 54.8637C100.726 54.8518 100.771 54.8062 100.783 54.7479L101.345 51.9782Z" fill="#A477E9"/>
      <path fill-rule="evenodd" clip-rule="evenodd" d="M100.784 54.7473C100.772 54.8056 100.727 54.8512 100.669 54.8632L97.9229 55.4293C97.7658 55.4616 97.7658 55.6881 97.9229 55.7204L100.669 56.2865C100.727 56.2985 100.772 56.344 100.784 56.4024L101.345 59.1721C101.377 59.3305 101.601 59.3305 101.634 59.1721L102.195 56.4024C102.207 56.344 102.252 56.2985 102.31 56.2865L105.056 55.7204C105.213 55.6881 105.213 55.4616 105.056 55.4293L102.31 54.8632C102.252 54.8512 102.207 54.8056 102.195 54.7473L101.634 51.9776C101.601 51.8192 101.377 51.8192 101.345 51.9776L100.784 54.7473ZM102.883 54.1687L102.407 51.8182C102.203 50.8106 100.776 50.8106 100.571 51.8182L100.095 54.1687L97.7648 54.6491C96.7659 54.855 96.7659 56.2947 97.7648 56.5006L100.095 56.981L100.571 59.3315C100.776 60.3391 102.203 60.3391 102.407 59.3315L102.883 56.981L105.214 56.5006C106.213 56.2947 106.213 54.855 105.214 54.6491L102.883 54.1687Z" fill="white"/>
      <path d="M105.1 50.0594C105.116 49.9802 105.228 49.9802 105.244 50.0594L105.525 51.4443C105.531 51.4734 105.553 51.4962 105.582 51.5022L106.955 51.7852C107.034 51.8014 107.034 51.9146 106.955 51.9308L105.582 52.2139C105.553 52.2198 105.531 52.2426 105.525 52.2718L105.244 53.6566C105.228 53.7359 105.116 53.7359 105.1 53.6566L104.819 52.2718C104.813 52.2426 104.791 52.2198 104.762 52.2139L103.389 51.9308C103.31 51.9146 103.31 51.8014 103.389 51.7852L104.762 51.5022C104.791 51.4962 104.813 51.4734 104.819 51.4443L105.1 50.0594Z" fill="#A477E9"/>
      <rect x="82.5" y="44.5" width="31" height="31" rx="15.5" stroke="#BCDCDC" shape-rendering="crispEdges"/>
    </g>
    <g filter="url(#filter4_dd_912_9806)">
      <rect x="234" y="44" width="32" height="32" rx="16" fill="white" shape-rendering="crispEdges"/>
      <path d="M250.001 68.9986C254.972 68.9986 259.001 64.9692 259.001 59.9987C259.001 58.8221 258.775 57.6982 258.365 56.668C257.214 57.3351 256.192 58.2015 255.346 59.2254C255.382 59.4779 255.401 59.7361 255.401 59.9987C255.401 62.5689 253.605 64.7197 251.2 65.2651C250.208 66.561 249.056 67.7217 247.773 68.7208C247.838 68.7373 247.903 68.7531 247.969 68.7682C248.622 68.919 249.302 68.9986 250.001 68.9986Z" fill="#4662D5"/>
      <path d="M245.426 67.7521C247.283 66.514 248.884 64.9173 250.13 63.0485L252.865 58.9464C254.012 57.226 255.54 55.7984 257.327 54.7724C256.597 53.7504 255.658 52.8876 254.573 52.2461C252.716 53.4841 251.115 55.0808 249.869 56.9495L247.134 61.0516C245.988 62.772 244.459 64.1996 242.672 65.2256C243.402 66.2477 244.341 67.1105 245.426 67.7521Z" fill="#4662D5"/>
      <path d="M241.636 63.3306C242.787 62.6634 243.809 61.797 244.655 60.773C244.619 60.5206 244.6 60.2625 244.6 60C244.6 57.4298 246.396 55.279 248.801 54.7336C249.793 53.4377 250.945 52.2769 252.227 51.2778C252.163 51.2613 252.098 51.2455 252.032 51.2305C251.379 51.0797 250.699 51 250 51C245.029 51 241 55.0294 241 60C241 61.1766 241.226 62.3004 241.636 63.3306Z" fill="#4662D5"/>
      <rect x="234.5" y="44.5" width="31" height="31" rx="15.5" stroke="#BCDCDC" shape-rendering="crispEdges"/>
    </g>
    <circle cx="174" cy="136" r="72" stroke="#BCDCDC"/>
    <g filter="url(#filter5_f_912_9806)">
      <path d="M112.5 173.46C105.838 162.547 102 149.722 102 136C102 96.2355 134.235 64 174 64C198.963 64 220.959 76.7042 233.876 96" stroke="url(#paint3_linear_912_9806)" stroke-width="2" stroke-linecap="round"/>
    </g>
    <g filter="url(#filter6_dd_912_9806)">
      <rect x="150" y="48" width="48" height="48" rx="24" fill="white" shape-rendering="crispEdges"/>
      <g clip-path="url(#clip1_912_9806)">
        <path d="M174 72H164V82H174V72Z" fill="#131313"/>
      </g>
      <rect x="179" y="62" width="5" height="20" fill="#131313"/>
      <rect x="164" y="67" width="5" height="20" transform="rotate(-90 164 67)" fill="#131313"/>
      <rect x="150.5" y="48.5" width="47" height="47" rx="23.5" stroke="#BCDCDC" shape-rendering="crispEdges"/>
    </g>
    <g filter="url(#filter7_dd_912_9806)">
      <rect x="77.5" y="112" width="48" height="48" rx="24" fill="white" shape-rendering="crispEdges"/>
      <path d="M89.875 128.86V138.63C89.875 143.566 93.1869 147.746 97.7051 149.066V146.738C94.4233 145.507 92.0851 142.336 92.0851 138.631V128.861C92.0851 127.676 93.051 126.71 94.2364 126.71V124.5C91.8302 124.499 89.875 126.455 89.875 128.86Z" fill="url(#paint4_linear_912_9806)"/>
      <path d="M94.2363 124.5V126.71C95.4218 126.71 96.3876 127.676 96.3876 128.861V138.631C96.3876 141.035 98.3429 142.99 100.746 142.99H101.793V140.78H100.746C99.561 140.78 98.5977 139.814 98.5977 138.631V128.861C98.5977 126.457 96.6399 124.5 94.2363 124.5Z" fill="url(#paint5_linear_912_9806)"/>
      <path d="M97.7051 146.738V149.066C98.6709 149.348 99.6904 149.5 100.748 149.5C103.154 149.5 105.109 147.545 105.109 145.141V128.861C105.109 127.676 106.075 126.71 107.258 126.71V124.5C104.854 124.5 102.899 126.458 102.899 128.861V145.142C102.899 146.328 101.933 147.291 100.748 147.291C99.6773 147.291 98.6539 147.096 97.7051 146.738Z" fill="url(#paint6_linear_912_9806)"/>
      <path d="M106.213 140.78V142.99H107.257C109.661 142.99 111.621 141.035 111.621 138.631V128.861C111.621 126.458 109.661 124.5 107.257 124.5V126.71C108.445 126.71 109.411 127.676 109.411 128.861V138.631C109.411 139.814 108.445 140.78 107.257 140.78H106.213Z" fill="url(#paint7_linear_912_9806)"/>
      <rect x="78" y="112.5" width="47" height="47" rx="23.5" stroke="#BCDCDC" shape-rendering="crispEdges"/>
    </g>
    <g filter="url(#filter8_dd_912_9806)">
      <g clip-path="url(#clip2_912_9806)">
        <rect x="149.5" y="112" width="48" height="48" rx="24" fill="#002832"/>
        <rect x="149.5" y="112" width="48" height="48" rx="24" fill="url(#paint8_radial_912_9806)" style="mix-blend-mode:overlay"/>
        <path d="M162.5 141.157H164.804C164.804 142.086 165.636 142.905 166.983 142.905C168.343 142.905 169.175 142.225 169.175 141.337C169.175 140.56 168.537 140.143 167.663 139.949L166.067 139.574C163.874 138.992 162.861 137.854 162.861 136.105C162.861 134.19 164.609 132.594 167.052 132.594C169.078 132.594 171.243 133.648 171.243 136.133H168.87C168.87 135.272 167.982 134.689 167.108 134.689C166.067 134.689 165.359 135.369 165.359 136.174C165.359 136.91 166.039 137.312 166.774 137.493L168.565 137.923C171.091 138.561 171.646 140.116 171.646 141.392C171.646 143.641 169.425 145.001 166.996 145.001C164.804 145.001 162.542 143.641 162.5 141.157Z" fill="white"/>
        <path d="M178.236 142.474V134.966H180.693V132.898H178.236V129.22H180.693V127H175.766V132.898H173.643V134.966H175.766V144.695H201.815V142.474H178.236Z" fill="white"/>
      </g>
      <rect x="150" y="112.5" width="47" height="47" rx="23.5" stroke="#031C26"/>
    </g>
    <g filter="url(#filter9_dd_912_9806)">
      <rect x="221.5" y="112" width="48" height="48" rx="24" fill="white" shape-rendering="crispEdges"/>
      <path fill-rule="evenodd" clip-rule="evenodd" d="M241.109 126.767C241.088 126.632 241.078 126.495 241.078 126.359C240.992 125.802 240.734 125.285 240.34 124.88C239.945 124.476 239.434 124.204 238.878 124.103C238.321 124.001 237.747 124.075 237.235 124.314C236.722 124.553 236.297 124.945 236.019 125.436C235.74 125.926 235.622 126.491 235.681 127.052C235.739 127.613 235.972 128.142 236.346 128.564C236.72 128.987 237.218 129.284 237.769 129.412C238.319 129.54 238.897 129.494 239.42 129.28C239.507 129.234 239.595 129.193 239.686 129.158C240.003 129.032 240.344 128.979 240.683 129.003C241.023 129.027 241.353 129.127 241.649 129.296C241.944 129.466 242.197 129.699 242.389 129.98C242.581 130.261 242.706 130.581 242.756 130.917C242.772 131.016 242.781 131.117 242.782 131.217C242.858 131.777 243.108 132.298 243.497 132.708C243.886 133.118 244.394 133.397 244.949 133.505C245.505 133.613 246.081 133.545 246.596 133.31C247.111 133.075 247.539 132.686 247.821 132.196C248.056 131.785 248.188 131.323 248.205 130.85C248.255 130.515 248.38 130.194 248.572 129.914C248.764 129.633 249.016 129.399 249.312 129.229C249.607 129.06 249.937 128.959 250.276 128.934C250.616 128.909 250.957 128.961 251.274 129.086C251.366 129.122 251.455 129.164 251.54 129.214C252.062 129.426 252.638 129.471 253.187 129.343C253.737 129.214 254.232 128.918 254.605 128.497C254.978 128.075 255.21 127.548 255.268 126.989C255.327 126.429 255.209 125.866 254.932 125.376C254.655 124.887 254.231 124.496 253.721 124.257C253.21 124.018 252.637 123.943 252.082 124.043C251.527 124.143 251.017 124.413 250.623 124.815C250.229 125.218 249.97 125.732 249.883 126.287C249.883 126.424 249.872 126.56 249.852 126.695C249.788 127.055 249.639 127.393 249.415 127.682C249.192 127.971 248.902 128.202 248.569 128.355C248.237 128.507 247.872 128.578 247.507 128.56C247.141 128.541 246.786 128.435 246.47 128.25C246.092 128.105 245.687 128.046 245.283 128.078C244.879 128.11 244.488 128.231 244.137 128.434C243.835 128.582 243.499 128.651 243.162 128.633C242.825 128.615 242.499 128.512 242.214 128.332C241.926 128.168 241.678 127.942 241.488 127.672C241.298 127.401 241.17 127.092 241.114 126.767" fill="#DA30AA"/>
      <path fill-rule="evenodd" clip-rule="evenodd" d="M255.397 135.364C255.526 135.412 255.65 135.47 255.77 135.537C256.296 135.738 256.871 135.771 257.416 135.632C257.962 135.493 258.45 135.188 258.813 134.759C259.177 134.331 259.397 133.801 259.445 133.242C259.492 132.683 259.364 132.123 259.077 131.64C258.791 131.157 258.361 130.775 257.847 130.547C257.333 130.318 256.76 130.255 256.208 130.366C255.656 130.476 255.153 130.755 254.767 131.164C254.382 131.572 254.133 132.091 254.057 132.646C254.062 132.745 254.062 132.843 254.057 132.942C254.006 133.277 253.879 133.597 253.688 133.877C253.496 134.157 253.243 134.391 252.948 134.56C252.653 134.73 252.324 134.831 251.984 134.856C251.645 134.881 251.304 134.83 250.987 134.706C250.894 134.669 250.804 134.626 250.716 134.579C250.192 134.366 249.614 134.322 249.064 134.453C248.513 134.584 248.017 134.883 247.646 135.308C247.274 135.733 247.044 136.263 246.989 136.824C246.934 137.385 247.057 137.949 247.339 138.438C247.582 138.85 247.919 139.199 248.321 139.458C248.588 139.669 248.803 139.937 248.951 140.242C249.099 140.548 249.176 140.883 249.176 141.222C249.176 141.561 249.099 141.896 248.951 142.201C248.803 142.506 248.588 142.775 248.321 142.986C248.245 143.046 248.164 143.102 248.081 143.154C247.635 143.498 247.307 143.973 247.144 144.511C246.981 145.05 246.99 145.625 247.17 146.158C247.351 146.691 247.693 147.155 248.15 147.486C248.607 147.816 249.156 147.996 249.72 148.001C250.284 148.006 250.836 147.836 251.299 147.514C251.762 147.192 252.113 146.735 252.303 146.205C252.493 145.675 252.513 145.1 252.359 144.559C252.206 144.017 251.887 143.537 251.447 143.184C251.328 143.117 251.215 143.038 251.11 142.95C250.855 142.739 250.65 142.475 250.51 142.176C250.369 141.877 250.296 141.552 250.296 141.222C250.298 140.822 250.405 140.429 250.607 140.084C250.809 139.738 251.099 139.452 251.447 139.254C251.766 139.003 252.023 138.684 252.2 138.32C252.377 137.956 252.47 137.557 252.471 137.153C252.49 136.82 252.594 136.497 252.773 136.216C252.952 135.934 253.2 135.702 253.494 135.542C253.781 135.377 254.102 135.277 254.432 135.249C254.763 135.22 255.096 135.265 255.407 135.379" fill="#0D8FAF"/>
      <path fill-rule="evenodd" clip-rule="evenodd" d="M235.557 135.364C235.429 135.412 235.304 135.47 235.184 135.537C234.658 135.738 234.083 135.771 233.538 135.632C232.993 135.493 232.504 135.188 232.141 134.759C231.778 134.331 231.557 133.801 231.51 133.242C231.462 132.683 231.591 132.123 231.877 131.64C232.163 131.157 232.593 130.775 233.107 130.547C233.622 130.318 234.194 130.255 234.746 130.366C235.298 130.476 235.801 130.755 236.187 131.164C236.573 131.572 236.821 132.091 236.898 132.646C236.893 132.745 236.893 132.843 236.898 132.942C236.949 133.277 237.075 133.597 237.267 133.877C237.459 134.157 237.711 134.391 238.006 134.56C238.301 134.73 238.631 134.831 238.97 134.856C239.31 134.881 239.65 134.83 239.967 134.706C240.06 134.669 240.151 134.626 240.238 134.579C240.763 134.365 241.341 134.32 241.892 134.45C242.443 134.58 242.939 134.879 243.311 135.305C243.683 135.731 243.912 136.262 243.966 136.824C244.019 137.386 243.895 137.95 243.61 138.438C243.369 138.851 243.032 139.201 242.628 139.458C242.362 139.669 242.148 139.938 242 140.243C241.853 140.548 241.777 140.883 241.777 141.222C241.777 141.56 241.853 141.895 242 142.2C242.148 142.506 242.362 142.774 242.628 142.986C242.704 143.046 242.785 143.102 242.868 143.154C243.312 143.499 243.637 143.972 243.799 144.509C243.961 145.047 243.95 145.621 243.77 146.152C243.59 146.683 243.248 147.145 242.792 147.474C242.336 147.803 241.789 147.982 241.226 147.987C240.664 147.993 240.113 147.823 239.652 147.503C239.19 147.182 238.84 146.726 238.65 146.198C238.459 145.67 238.439 145.097 238.591 144.557C238.742 144.017 239.059 143.537 239.497 143.184C239.847 142.989 240.139 142.703 240.342 142.358C240.545 142.012 240.652 141.619 240.652 141.219C240.652 140.819 240.545 140.426 240.342 140.08C240.139 139.735 239.847 139.45 239.497 139.254C239.179 139.002 238.922 138.683 238.745 138.319C238.568 137.956 238.475 137.557 238.473 137.153C238.454 136.82 238.35 136.497 238.171 136.216C237.992 135.934 237.744 135.702 237.45 135.542C237.163 135.377 236.842 135.277 236.512 135.249C236.181 135.22 235.848 135.265 235.537 135.379" fill="#E1C000"/>
      <rect x="222" y="112.5" width="47" height="47" rx="23.5" stroke="#BCDCDC" shape-rendering="crispEdges"/>
    </g>
    <g filter="url(#filter10_dd_912_9806)">
      <rect x="150" y="176" width="48" height="48" rx="24" fill="white" shape-rendering="crispEdges"/>
      <path d="M175.093 208.384C172.44 209.9 169.15 209.9 166.511 208.384C165.768 207.96 164.828 208.217 164.404 208.96C163.979 209.703 164.237 210.643 164.98 211.068C166.769 212.099 168.786 212.599 170.802 212.599C172.819 212.599 174.835 212.084 176.625 211.068C177.368 210.643 177.625 209.703 177.201 208.96C176.776 208.217 175.836 207.96 175.093 208.384Z" fill="#18ACB4"/>
      <path d="M176.215 187.398C172.409 187.398 169.301 190.507 169.301 194.313C169.301 194.388 169.301 194.464 169.301 194.54C169.301 194.585 169.301 194.616 169.301 194.661V204.881C169.301 205.73 169.998 206.427 170.847 206.427C171.696 206.427 172.394 205.73 172.394 204.881V200.074C173.486 200.802 174.805 201.227 176.215 201.227C180.036 201.227 183.129 198.118 183.129 194.313C183.129 190.507 180.036 187.398 176.215 187.398ZM176.215 198.149C174.107 198.149 172.394 196.435 172.394 194.328C172.394 192.22 174.107 190.507 176.215 190.507C178.322 190.507 180.036 192.22 180.036 194.328C180.051 196.42 178.322 198.149 176.215 198.149Z" fill="#18ACB4"/>
      <rect x="150.5" y="176.5" width="47" height="47" rx="23.5" stroke="#BCDCDC" shape-rendering="crispEdges"/>
    </g>
  </g>
  <defs>
    <filter id="filter0_f_912_9806" x="64" y="94" width="213.312" height="152" filterUnits="userSpaceOnUse" color-interpolation-filters="sRGB">
      <feFlood flood-opacity="0" result="BackgroundImageFix"/>
      <feBlend mode="normal" in="SourceGraphic" in2="BackgroundImageFix" result="shape"/>
      <feGaussianBlur stdDeviation="0.5" result="effect1_foregroundBlur_912_9806"/>
    </filter>
    <filter id="filter1_dd_912_9806" x="233" y="195" width="34" height="35" filterUnits="userSpaceOnUse" color-interpolation-filters="sRGB">
      <feFlood flood-opacity="0" result="BackgroundImageFix"/>
      <feColorMatrix in="SourceAlpha" type="matrix" values="0 0 0 0 0 0 0 0 0 0 0 0 0 0 0 0 0 0 127 0" result="hardAlpha"/>
      <feOffset dy="1"/>
      <feGaussianBlur stdDeviation="0.5"/>
      <feColorMatrix type="matrix" values="0 0 0 0 0.0666667 0 0 0 0 0.0941176 0 0 0 0 0.109804 0 0 0 0.08 0"/>
      <feBlend mode="normal" in2="BackgroundImageFix" result="effect1_dropShadow_912_9806"/>
      <feColorMatrix in="SourceAlpha" type="matrix" values="0 0 0 0 0 0 0 0 0 0 0 0 0 0 0 0 0 0 127 0" result="hardAlpha"/>
      <feOffset/>
      <feGaussianBlur stdDeviation="0.5"/>
      <feComposite in2="hardAlpha" operator="out"/>
      <feColorMatrix type="matrix" values="0 0 0 0 0.0666667 0 0 0 0 0.0941176 0 0 0 0 0.109804 0 0 0 0.08 0"/>
      <feBlend mode="normal" in2="effect1_dropShadow_912_9806" result="effect2_dropShadow_912_9806"/>
      <feBlend mode="normal" in="SourceGraphic" in2="effect2_dropShadow_912_9806" result="shape"/>
    </filter>
    <filter id="filter2_dd_912_9806" x="81" y="195" width="34" height="35" filterUnits="userSpaceOnUse" color-interpolation-filters="sRGB">
      <feFlood flood-opacity="0" result="BackgroundImageFix"/>
      <feColorMatrix in="SourceAlpha" type="matrix" values="0 0 0 0 0 0 0 0 0 0 0 0 0 0 0 0 0 0 127 0" result="hardAlpha"/>
      <feOffset dy="1"/>
      <feGaussianBlur stdDeviation="0.5"/>
      <feColorMatrix type="matrix" values="0 0 0 0 0.0666667 0 0 0 0 0.0941176 0 0 0 0 0.109804 0 0 0 0.08 0"/>
      <feBlend mode="normal" in2="BackgroundImageFix" result="effect1_dropShadow_912_9806"/>
      <feColorMatrix in="SourceAlpha" type="matrix" values="0 0 0 0 0 0 0 0 0 0 0 0 0 0 0 0 0 0 127 0" result="hardAlpha"/>
      <feOffset/>
      <feGaussianBlur stdDeviation="0.5"/>
      <feComposite in2="hardAlpha" operator="out"/>
      <feColorMatrix type="matrix" values="0 0 0 0 0.0666667 0 0 0 0 0.0941176 0 0 0 0 0.109804 0 0 0 0.08 0"/>
      <feBlend mode="normal" in2="effect1_dropShadow_912_9806" result="effect2_dropShadow_912_9806"/>
      <feBlend mode="normal" in="SourceGraphic" in2="effect2_dropShadow_912_9806" result="shape"/>
    </filter>
    <filter id="filter3_dd_912_9806" x="81" y="43" width="34" height="35" filterUnits="userSpaceOnUse" color-interpolation-filters="sRGB">
      <feFlood flood-opacity="0" result="BackgroundImageFix"/>
      <feColorMatrix in="SourceAlpha" type="matrix" values="0 0 0 0 0 0 0 0 0 0 0 0 0 0 0 0 0 0 127 0" result="hardAlpha"/>
      <feOffset dy="1"/>
      <feGaussianBlur stdDeviation="0.5"/>
      <feColorMatrix type="matrix" values="0 0 0 0 0.0666667 0 0 0 0 0.0941176 0 0 0 0 0.109804 0 0 0 0.08 0"/>
      <feBlend mode="normal" in2="BackgroundImageFix" result="effect1_dropShadow_912_9806"/>
      <feColorMatrix in="SourceAlpha" type="matrix" values="0 0 0 0 0 0 0 0 0 0 0 0 0 0 0 0 0 0 127 0" result="hardAlpha"/>
      <feOffset/>
      <feGaussianBlur stdDeviation="0.5"/>
      <feComposite in2="hardAlpha" operator="out"/>
      <feColorMatrix type="matrix" values="0 0 0 0 0.0666667 0 0 0 0 0.0941176 0 0 0 0 0.109804 0 0 0 0.08 0"/>
      <feBlend mode="normal" in2="effect1_dropShadow_912_9806" result="effect2_dropShadow_912_9806"/>
      <feBlend mode="normal" in="SourceGraphic" in2="effect2_dropShadow_912_9806" result="shape"/>
    </filter>
    <filter id="filter4_dd_912_9806" x="233" y="43" width="34" height="35" filterUnits="userSpaceOnUse" color-interpolation-filters="sRGB">
      <feFlood flood-opacity="0" result="BackgroundImageFix"/>
      <feColorMatrix in="SourceAlpha" type="matrix" values="0 0 0 0 0 0 0 0 0 0 0 0 0 0 0 0 0 0 127 0" result="hardAlpha"/>
      <feOffset dy="1"/>
      <feGaussianBlur stdDeviation="0.5"/>
      <feColorMatrix type="matrix" values="0 0 0 0 0.0666667 0 0 0 0 0.0941176 0 0 0 0 0.109804 0 0 0 0.08 0"/>
      <feBlend mode="normal" in2="BackgroundImageFix" result="effect1_dropShadow_912_9806"/>
      <feColorMatrix in="SourceAlpha" type="matrix" values="0 0 0 0 0 0 0 0 0 0 0 0 0 0 0 0 0 0 127 0" result="hardAlpha"/>
      <feOffset/>
      <feGaussianBlur stdDeviation="0.5"/>
      <feComposite in2="hardAlpha" operator="out"/>
      <feColorMatrix type="matrix" values="0 0 0 0 0.0666667 0 0 0 0 0.0941176 0 0 0 0 0.109804 0 0 0 0.08 0"/>
      <feBlend mode="normal" in2="effect1_dropShadow_912_9806" result="effect2_dropShadow_912_9806"/>
      <feBlend mode="normal" in="SourceGraphic" in2="effect2_dropShadow_912_9806" result="shape"/>
    </filter>
    <filter id="filter5_f_912_9806" x="100" y="62" width="135.875" height="113.461" filterUnits="userSpaceOnUse" color-interpolation-filters="sRGB">
      <feFlood flood-opacity="0" result="BackgroundImageFix"/>
      <feBlend mode="normal" in="SourceGraphic" in2="BackgroundImageFix" result="shape"/>
      <feGaussianBlur stdDeviation="0.5" result="effect1_foregroundBlur_912_9806"/>
    </filter>
    <filter id="filter6_dd_912_9806" x="146" y="45" width="56" height="56" filterUnits="userSpaceOnUse" color-interpolation-filters="sRGB">
      <feFlood flood-opacity="0" result="BackgroundImageFix"/>
      <feColorMatrix in="SourceAlpha" type="matrix" values="0 0 0 0 0 0 0 0 0 0 0 0 0 0 0 0 0 0 127 0" result="hardAlpha"/>
      <feOffset dy="1"/>
      <feGaussianBlur stdDeviation="2"/>
      <feColorMatrix type="matrix" values="0 0 0 0 0.0666667 0 0 0 0 0.0941176 0 0 0 0 0.109804 0 0 0 0.16 0"/>
      <feBlend mode="normal" in2="BackgroundImageFix" result="effect1_dropShadow_912_9806"/>
      <feColorMatrix in="SourceAlpha" type="matrix" values="0 0 0 0 0 0 0 0 0 0 0 0 0 0 0 0 0 0 127 0" result="hardAlpha"/>
      <feOffset/>
      <feGaussianBlur stdDeviation="0.5"/>
      <feComposite in2="hardAlpha" operator="out"/>
      <feColorMatrix type="matrix" values="0 0 0 0 0.0666667 0 0 0 0 0.0941176 0 0 0 0 0.109804 0 0 0 0.16 0"/>
      <feBlend mode="normal" in2="effect1_dropShadow_912_9806" result="effect2_dropShadow_912_9806"/>
      <feBlend mode="normal" in="SourceGraphic" in2="effect2_dropShadow_912_9806" result="shape"/>
    </filter>
    <filter id="filter7_dd_912_9806" x="73.5" y="109" width="56" height="56" filterUnits="userSpaceOnUse" color-interpolation-filters="sRGB">
      <feFlood flood-opacity="0" result="BackgroundImageFix"/>
      <feColorMatrix in="SourceAlpha" type="matrix" values="0 0 0 0 0 0 0 0 0 0 0 0 0 0 0 0 0 0 127 0" result="hardAlpha"/>
      <feOffset dy="1"/>
      <feGaussianBlur stdDeviation="2"/>
      <feColorMatrix type="matrix" values="0 0 0 0 0.0666667 0 0 0 0 0.0941176 0 0 0 0 0.109804 0 0 0 0.16 0"/>
      <feBlend mode="normal" in2="BackgroundImageFix" result="effect1_dropShadow_912_9806"/>
      <feColorMatrix in="SourceAlpha" type="matrix" values="0 0 0 0 0 0 0 0 0 0 0 0 0 0 0 0 0 0 127 0" result="hardAlpha"/>
      <feOffset/>
      <feGaussianBlur stdDeviation="0.5"/>
      <feComposite in2="hardAlpha" operator="out"/>
      <feColorMatrix type="matrix" values="0 0 0 0 0.0666667 0 0 0 0 0.0941176 0 0 0 0 0.109804 0 0 0 0.16 0"/>
      <feBlend mode="normal" in2="effect1_dropShadow_912_9806" result="effect2_dropShadow_912_9806"/>
      <feBlend mode="normal" in="SourceGraphic" in2="effect2_dropShadow_912_9806" result="shape"/>
    </filter>
    <filter id="filter8_dd_912_9806" x="139.5" y="106" width="68" height="68" filterUnits="userSpaceOnUse" color-interpolation-filters="sRGB">
      <feFlood flood-opacity="0" result="BackgroundImageFix"/>
      <feColorMatrix in="SourceAlpha" type="matrix" values="0 0 0 0 0 0 0 0 0 0 0 0 0 0 0 0 0 0 127 0" result="hardAlpha"/>
      <feOffset dy="1"/>
      <feGaussianBlur stdDeviation="1"/>
      <feColorMatrix type="matrix" values="0 0 0 0 0.0666667 0 0 0 0 0.0941176 0 0 0 0 0.109804 0 0 0 0.16 0"/>
      <feBlend mode="normal" in2="BackgroundImageFix" result="effect1_dropShadow_912_9806"/>
      <feColorMatrix in="SourceAlpha" type="matrix" values="0 0 0 0 0 0 0 0 0 0 0 0 0 0 0 0 0 0 127 0" result="hardAlpha"/>
      <feMorphology radius="2" operator="erode" in="SourceAlpha" result="effect2_dropShadow_912_9806"/>
      <feOffset dy="4"/>
      <feGaussianBlur stdDeviation="6"/>
      <feColorMatrix type="matrix" values="0 0 0 0 0.0666667 0 0 0 0 0.0941176 0 0 0 0 0.109804 0 0 0 0.12 0"/>
      <feBlend mode="normal" in2="effect1_dropShadow_912_9806" result="effect2_dropShadow_912_9806"/>
      <feBlend mode="normal" in="SourceGraphic" in2="effect2_dropShadow_912_9806" result="shape"/>
    </filter>
    <filter id="filter9_dd_912_9806" x="217.5" y="109" width="56" height="56" filterUnits="userSpaceOnUse" color-interpolation-filters="sRGB">
      <feFlood flood-opacity="0" result="BackgroundImageFix"/>
      <feColorMatrix in="SourceAlpha" type="matrix" values="0 0 0 0 0 0 0 0 0 0 0 0 0 0 0 0 0 0 127 0" result="hardAlpha"/>
      <feOffset dy="1"/>
      <feGaussianBlur stdDeviation="2"/>
      <feColorMatrix type="matrix" values="0 0 0 0 0.0666667 0 0 0 0 0.0941176 0 0 0 0 0.109804 0 0 0 0.16 0"/>
      <feBlend mode="normal" in2="BackgroundImageFix" result="effect1_dropShadow_912_9806"/>
      <feColorMatrix in="SourceAlpha" type="matrix" values="0 0 0 0 0 0 0 0 0 0 0 0 0 0 0 0 0 0 127 0" result="hardAlpha"/>
      <feOffset/>
      <feGaussianBlur stdDeviation="0.5"/>
      <feComposite in2="hardAlpha" operator="out"/>
      <feColorMatrix type="matrix" values="0 0 0 0 0.0666667 0 0 0 0 0.0941176 0 0 0 0 0.109804 0 0 0 0.16 0"/>
      <feBlend mode="normal" in2="effect1_dropShadow_912_9806" result="effect2_dropShadow_912_9806"/>
      <feBlend mode="normal" in="SourceGraphic" in2="effect2_dropShadow_912_9806" result="shape"/>
    </filter>
    <filter id="filter10_dd_912_9806" x="146" y="173" width="56" height="56" filterUnits="userSpaceOnUse" color-interpolation-filters="sRGB">
      <feFlood flood-opacity="0" result="BackgroundImageFix"/>
      <feColorMatrix in="SourceAlpha" type="matrix" values="0 0 0 0 0 0 0 0 0 0 0 0 0 0 0 0 0 0 127 0" result="hardAlpha"/>
      <feOffset dy="1"/>
      <feGaussianBlur stdDeviation="2"/>
      <feColorMatrix type="matrix" values="0 0 0 0 0.0666667 0 0 0 0 0.0941176 0 0 0 0 0.109804 0 0 0 0.16 0"/>
      <feBlend mode="normal" in2="BackgroundImageFix" result="effect1_dropShadow_912_9806"/>
      <feColorMatrix in="SourceAlpha" type="matrix" values="0 0 0 0 0 0 0 0 0 0 0 0 0 0 0 0 0 0 127 0" result="hardAlpha"/>
      <feOffset/>
      <feGaussianBlur stdDeviation="0.5"/>
      <feComposite in2="hardAlpha" operator="out"/>
      <feColorMatrix type="matrix" values="0 0 0 0 0.0666667 0 0 0 0 0.0941176 0 0 0 0 0.109804 0 0 0 0.16 0"/>
      <feBlend mode="normal" in2="effect1_dropShadow_912_9806" result="effect2_dropShadow_912_9806"/>
      <feBlend mode="normal" in="SourceGraphic" in2="effect2_dropShadow_912_9806" result="shape"/>
    </filter>
    <radialGradient id="paint0_radial_912_9806" cx="0" cy="0" r="1" gradientUnits="userSpaceOnUse" gradientTransform="translate(173.5 136) rotate(90) scale(136 173.5)">
      <stop stop-color="#D9D9D9"/>
      <stop offset="0.248753" stop-color="#D9D9D9"/>
      <stop offset="1" stop-color="#D9D9D9" stop-opacity="0"/>
    </radialGradient>
    <linearGradient id="paint1_linear_912_9806" x1="74" y1="96" x2="267" y2="200" gradientUnits="userSpaceOnUse">
      <stop stop-color="#54ABA3"/>
      <stop offset="1" stop-color="#54ABA3" stop-opacity="0"/>
    </linearGradient>
    <linearGradient id="paint2_linear_912_9806" x1="225.5" y1="253.5" x2="197" y2="-5" gradientUnits="userSpaceOnUse">
      <stop stop-color="#54ABA3"/>
      <stop offset="1" stop-color="#54ABA3" stop-opacity="0"/>
    </linearGradient>
    <linearGradient id="paint3_linear_912_9806" x1="239" y1="100.5" x2="102" y2="158.5" gradientUnits="userSpaceOnUse">
      <stop stop-color="#54ABA3"/>
      <stop offset="1" stop-color="#54ABA3" stop-opacity="0"/>
    </linearGradient>
    <linearGradient id="paint4_linear_912_9806" x1="95.1538" y1="146.045" x2="90.6582" y2="125.904" gradientUnits="userSpaceOnUse">
      <stop stop-color="#9B6DEE"/>
      <stop offset="1" stop-color="#6F2DE7"/>
    </linearGradient>
    <linearGradient id="paint5_linear_912_9806" x1="106.504" y1="146.554" x2="98.5018" y2="135.18" gradientUnits="userSpaceOnUse">
      <stop stop-color="#43129C"/>
      <stop offset="1" stop-color="#6F2DE7"/>
    </linearGradient>
    <linearGradient id="paint6_linear_912_9806" x1="100.253" y1="147.347" x2="105.648" y2="132.466" gradientUnits="userSpaceOnUse">
      <stop stop-color="#9B6DEE"/>
      <stop offset="1" stop-color="#6F2DE7"/>
    </linearGradient>
    <linearGradient id="paint7_linear_912_9806" x1="100.248" y1="147.188" x2="109.195" y2="132.577" gradientUnits="userSpaceOnUse">
      <stop stop-color="#43129C"/>
      <stop offset="1" stop-color="#6F2DE7"/>
    </linearGradient>
    <radialGradient id="paint8_radial_912_9806" cx="0" cy="0" r="1" gradientUnits="userSpaceOnUse" gradientTransform="translate(197.5 112) rotate(116.419) scale(41.2606 32.9488)">
      <stop stop-color="white"/>
      <stop offset="1" stop-color="white" stop-opacity="0"/>
    </radialGradient>
    <clipPath id="clip0_912_9806">
      <rect width="347" height="272" fill="white"/>
    </clipPath>
    <clipPath id="clip1_912_9806">
      <path d="M164 77C164 74.2386 166.239 72 169 72V72C171.761 72 174 74.2386 174 77V77C174 79.7614 171.761 82 169 82H164V77Z" fill="white"/>
    </clipPath>
    <clipPath id="clip2_912_9806">
      <rect x="149.5" y="112" width="48" height="48" rx="24" fill="white"/>
    </clipPath>
  </defs>
</svg>
