<svg width="347" height="272" viewBox="0 0 347 272" fill="none" xmlns="http://www.w3.org/2000/svg">
<g clip-path="url(#clip0_912_9806)">
<g filter="url(#filter0_dd_912_9806)">
<rect x="150" y="40" width="48" height="48" rx="24" fill="white" shape-rendering="crispEdges"/>
<path d="M162.375 56.8601V66.6298C162.375 71.5663 165.687 75.746 170.205 77.0661V74.7383C166.923 73.5071 164.585 70.3363 164.585 66.631V56.8614C164.585 55.676 165.551 54.7101 166.736 54.7101V52.5C164.33 52.4987 162.375 54.4552 162.375 56.8601Z" fill="url(#paint0_linear_912_9806)"/>
<path d="M166.736 52.5V54.7101C167.922 54.7101 168.888 55.676 168.888 56.8614V66.6311C168.888 69.0346 170.843 70.9899 173.246 70.9899H174.293V68.7798H173.246C172.061 68.7798 171.098 67.8139 171.098 66.6311V56.8614C171.098 54.4566 169.14 52.5 166.736 52.5Z" fill="url(#paint1_linear_912_9806)"/>
<path d="M170.205 74.7382V77.066C171.171 77.3484 172.19 77.5 173.248 77.5C175.654 77.5 177.609 75.5447 177.609 73.1412V56.8614C177.609 55.676 178.575 54.7101 179.758 54.7101V52.5C177.354 52.5 175.399 54.4579 175.399 56.8614V73.1424C175.399 74.3278 174.433 75.2911 173.248 75.2911C172.177 75.2911 171.154 75.0964 170.205 74.7382Z" fill="url(#paint2_linear_912_9806)"/>
<path d="M178.713 68.7798V70.9899H179.757C182.161 70.9899 184.121 69.0346 184.121 66.6311V56.8614C184.121 54.4579 182.161 52.5 179.757 52.5V54.7101C180.945 54.7101 181.911 55.676 181.911 56.8614V66.6311C181.911 67.8139 180.945 68.7798 179.757 68.7798H178.713Z" fill="url(#paint3_linear_912_9806)"/>
<rect x="150.5" y="40.5" width="47" height="47" rx="23.5" stroke="#BCDCDC" shape-rendering="crispEdges"/>
</g>
<g filter="url(#filter1_dd_912_9806)">
<g clip-path="url(#clip1_912_9806)">
<rect x="150" y="112" width="48" height="48" rx="24" fill="#002832"/>
<rect x="150" y="112" width="48" height="48" rx="24" fill="url(#paint4_radial_912_9806)" style="mix-blend-mode:overlay"/>
<path d="M163 141.157H165.304C165.304 142.086 166.136 142.905 167.483 142.905C168.843 142.905 169.675 142.225 169.675 141.337C169.675 140.56 169.037 140.143 168.163 139.949L166.567 139.574C164.374 138.992 163.361 137.854 163.361 136.105C163.361 134.19 165.109 132.594 167.552 132.594C169.578 132.594 171.743 133.648 171.743 136.133H169.37C169.37 135.272 168.482 134.689 167.608 134.689C166.567 134.689 165.859 135.369 165.859 136.174C165.859 136.91 166.539 137.312 167.274 137.493L169.065 137.923C171.591 138.561 172.146 140.116 172.146 141.392C172.146 143.641 169.925 145.001 167.496 145.001C165.304 145.001 163.042 143.641 163 141.157Z" fill="white"/>
<path d="M178.736 142.474V134.966H181.193V132.898H178.736V129.22H181.193V127H176.266V132.898H174.143V134.966H176.266V144.695H202.315V142.474H178.736Z" fill="white"/>
</g>
<rect x="150.5" y="112.5" width="47" height="47" rx="23.5" stroke="#031C26"/>
</g>
<g filter="url(#filter2_dd_912_9806)">
<rect x="150" y="184" width="48" height="48" rx="24" fill="white" shape-rendering="crispEdges"/>
<path fill-rule="evenodd" clip-rule="evenodd" d="M169.609 198.767C169.588 198.632 169.578 198.495 169.578 198.359C169.492 197.802 169.234 197.285 168.84 196.88C168.445 196.476 167.934 196.204 167.378 196.103C166.821 196.001 166.247 196.075 165.735 196.314C165.222 196.553 164.797 196.945 164.519 197.436C164.24 197.926 164.122 198.491 164.181 199.052C164.239 199.613 164.472 200.142 164.846 200.564C165.22 200.987 165.718 201.284 166.269 201.412C166.819 201.54 167.397 201.494 167.92 201.28C168.007 201.234 168.095 201.193 168.186 201.158C168.503 201.032 168.844 200.979 169.183 201.003C169.523 201.027 169.853 201.127 170.149 201.296C170.444 201.466 170.697 201.699 170.889 201.98C171.081 202.261 171.206 202.581 171.256 202.917C171.272 203.016 171.281 203.117 171.282 203.217C171.358 203.777 171.608 204.298 171.997 204.708C172.386 205.118 172.894 205.397 173.449 205.505C174.005 205.613 174.581 205.545 175.096 205.31C175.611 205.075 176.039 204.686 176.321 204.196C176.556 203.785 176.688 203.323 176.705 202.85C176.755 202.515 176.88 202.194 177.072 201.914C177.264 201.633 177.516 201.399 177.812 201.229C178.107 201.06 178.437 200.959 178.776 200.934C179.116 200.909 179.457 200.961 179.774 201.086C179.866 201.122 179.955 201.164 180.04 201.214C180.562 201.426 181.138 201.471 181.687 201.343C182.237 201.214 182.732 200.918 183.105 200.497C183.478 200.075 183.71 199.548 183.768 198.989C183.827 198.429 183.709 197.866 183.432 197.376C183.155 196.887 182.731 196.496 182.221 196.257C181.71 196.018 181.137 195.943 180.582 196.043C180.027 196.143 179.517 196.413 179.123 196.815C178.729 197.218 178.47 197.732 178.383 198.287C178.383 198.424 178.372 198.56 178.352 198.695C178.288 199.055 178.139 199.393 177.915 199.682C177.692 199.971 177.402 200.202 177.069 200.355C176.737 200.507 176.372 200.578 176.007 200.56C175.641 200.541 175.286 200.435 174.97 200.25C174.592 200.105 174.187 200.046 173.783 200.078C173.379 200.11 172.988 200.231 172.637 200.434C172.335 200.582 171.999 200.651 171.662 200.633C171.325 200.615 170.999 200.512 170.714 200.332C170.426 200.168 170.178 199.942 169.988 199.672C169.798 199.401 169.67 199.092 169.614 198.767" fill="#DA30AA"/>
<path fill-rule="evenodd" clip-rule="evenodd" d="M183.897 207.364C184.026 207.412 184.15 207.47 184.27 207.537C184.796 207.738 185.371 207.771 185.916 207.632C186.462 207.493 186.95 207.188 187.313 206.759C187.677 206.331 187.897 205.801 187.945 205.242C187.992 204.683 187.864 204.123 187.577 203.64C187.291 203.157 186.861 202.775 186.347 202.547C185.833 202.318 185.26 202.255 184.708 202.366C184.156 202.476 183.653 202.755 183.267 203.164C182.882 203.572 182.633 204.091 182.557 204.646C182.562 204.745 182.562 204.843 182.557 204.942C182.506 205.277 182.379 205.597 182.188 205.877C181.996 206.157 181.743 206.391 181.448 206.56C181.153 206.73 180.824 206.831 180.484 206.856C180.145 206.881 179.804 206.83 179.487 206.706C179.394 206.669 179.304 206.626 179.216 206.579C178.692 206.366 178.114 206.322 177.564 206.453C177.013 206.584 176.517 206.883 176.146 207.308C175.774 207.733 175.544 208.263 175.489 208.824C175.434 209.385 175.557 209.949 175.839 210.438C176.082 210.85 176.419 211.199 176.821 211.458C177.088 211.669 177.303 211.937 177.451 212.242C177.599 212.548 177.676 212.883 177.676 213.222C177.676 213.561 177.599 213.896 177.451 214.201C177.303 214.506 177.088 214.775 176.821 214.986C176.745 215.046 176.664 215.102 176.581 215.154C176.135 215.498 175.807 215.973 175.644 216.511C175.481 217.05 175.49 217.625 175.67 218.158C175.851 218.691 176.193 219.155 176.65 219.486C177.107 219.816 177.656 219.996 178.22 220.001C178.784 220.006 179.336 219.836 179.799 219.514C180.262 219.192 180.613 218.735 180.803 218.205C180.993 217.675 181.013 217.1 180.859 216.559C180.706 216.017 180.387 215.537 179.947 215.184C179.828 215.117 179.715 215.038 179.61 214.95C179.355 214.739 179.15 214.475 179.01 214.176C178.869 213.877 178.796 213.552 178.796 213.222C178.798 212.822 178.905 212.429 179.107 212.084C179.309 211.738 179.599 211.452 179.947 211.254C180.266 211.003 180.523 210.684 180.7 210.32C180.877 209.956 180.97 209.557 180.971 209.153C180.99 208.82 181.094 208.497 181.273 208.216C181.452 207.934 181.7 207.702 181.994 207.542C182.281 207.377 182.602 207.277 182.932 207.249C183.263 207.22 183.596 207.265 183.907 207.379" fill="#0D8FAF"/>
<path fill-rule="evenodd" clip-rule="evenodd" d="M164.057 207.364C163.929 207.412 163.804 207.47 163.684 207.537C163.158 207.738 162.583 207.771 162.038 207.632C161.493 207.493 161.004 207.188 160.641 206.759C160.278 206.331 160.057 205.801 160.01 205.242C159.962 204.683 160.091 204.123 160.377 203.64C160.663 203.157 161.093 202.775 161.607 202.547C162.122 202.318 162.694 202.255 163.246 202.366C163.798 202.476 164.301 202.755 164.687 203.164C165.073 203.572 165.321 204.091 165.398 204.646C165.393 204.745 165.393 204.843 165.398 204.942C165.449 205.277 165.575 205.597 165.767 205.877C165.959 206.157 166.211 206.391 166.506 206.56C166.801 206.73 167.131 206.831 167.47 206.856C167.81 206.881 168.15 206.83 168.467 206.706C168.56 206.669 168.651 206.626 168.738 206.579C169.263 206.365 169.841 206.32 170.392 206.45C170.943 206.58 171.439 206.879 171.811 207.305C172.183 207.731 172.412 208.262 172.466 208.824C172.519 209.386 172.395 209.95 172.11 210.438C171.869 210.851 171.532 211.201 171.128 211.458C170.862 211.669 170.648 211.938 170.5 212.243C170.353 212.548 170.277 212.883 170.277 213.222C170.277 213.56 170.353 213.895 170.5 214.2C170.648 214.506 170.862 214.774 171.128 214.986C171.204 215.046 171.285 215.102 171.368 215.154C171.812 215.499 172.137 215.972 172.299 216.509C172.461 217.047 172.45 217.621 172.27 218.152C172.09 218.683 171.748 219.145 171.292 219.474C170.836 219.803 170.289 219.982 169.726 219.987C169.164 219.993 168.613 219.823 168.152 219.503C167.69 219.182 167.34 218.726 167.15 218.198C166.959 217.67 166.939 217.097 167.091 216.557C167.242 216.017 167.559 215.537 167.997 215.184C168.347 214.989 168.639 214.703 168.842 214.358C169.045 214.012 169.152 213.619 169.152 213.219C169.152 212.819 169.045 212.426 168.842 212.08C168.639 211.735 168.347 211.45 167.997 211.254C167.679 211.002 167.422 210.683 167.245 210.319C167.068 209.956 166.975 209.557 166.973 209.153C166.954 208.82 166.85 208.497 166.671 208.216C166.492 207.934 166.244 207.702 165.95 207.542C165.663 207.377 165.342 207.277 165.012 207.249C164.681 207.22 164.348 207.265 164.037 207.379" fill="#E1C000"/>
<rect x="150.5" y="184.5" width="47" height="47" rx="23.5" stroke="#BCDCDC" shape-rendering="crispEdges"/>
</g>
</g>
<defs>
<filter id="filter0_dd_912_9806" x="146" y="37" width="56" height="56" filterUnits="userSpaceOnUse" color-interpolation-filters="sRGB">
<feFlood flood-opacity="0" result="BackgroundImageFix"/>
<feColorMatrix in="SourceAlpha" type="matrix" values="0 0 0 0 0 0 0 0 0 0 0 0 0 0 0 0 0 0 127 0" result="hardAlpha"/>
<feOffset dy="1"/>
<feGaussianBlur stdDeviation="2"/>
<feColorMatrix type="matrix" values="0 0 0 0 0.0666667 0 0 0 0 0.0941176 0 0 0 0 0.109804 0 0 0 0.16 0"/>
<feBlend mode="normal" in2="BackgroundImageFix" result="effect1_dropShadow_912_9806"/>
<feColorMatrix in="SourceAlpha" type="matrix" values="0 0 0 0 0 0 0 0 0 0 0 0 0 0 0 0 0 0 127 0" result="hardAlpha"/>
<feOffset/>
<feGaussianBlur stdDeviation="0.5"/>
<feComposite in2="hardAlpha" operator="out"/>
<feColorMatrix type="matrix" values="0 0 0 0 0.0666667 0 0 0 0 0.0941176 0 0 0 0 0.109804 0 0 0 0.16 0"/>
<feBlend mode="normal" in2="effect1_dropShadow_912_9806" result="effect2_dropShadow_912_9806"/>
<feBlend mode="normal" in="SourceGraphic" in2="effect2_dropShadow_912_9806" result="shape"/>
</filter>
<filter id="filter1_dd_912_9806" x="140" y="106" width="68" height="68" filterUnits="userSpaceOnUse" color-interpolation-filters="sRGB">
<feFlood flood-opacity="0" result="BackgroundImageFix"/>
<feColorMatrix in="SourceAlpha" type="matrix" values="0 0 0 0 0 0 0 0 0 0 0 0 0 0 0 0 0 0 127 0" result="hardAlpha"/>
<feOffset dy="1"/>
<feGaussianBlur stdDeviation="1"/>
<feColorMatrix type="matrix" values="0 0 0 0 0.0666667 0 0 0 0 0.0941176 0 0 0 0 0.109804 0 0 0 0.16 0"/>
<feBlend mode="normal" in2="BackgroundImageFix" result="effect1_dropShadow_912_9806"/>
<feColorMatrix in="SourceAlpha" type="matrix" values="0 0 0 0 0 0 0 0 0 0 0 0 0 0 0 0 0 0 127 0" result="hardAlpha"/>
<feMorphology radius="2" operator="erode" in="SourceAlpha" result="effect2_dropShadow_912_9806"/>
<feOffset dy="4"/>
<feGaussianBlur stdDeviation="6"/>
<feColorMatrix type="matrix" values="0 0 0 0 0.0666667 0 0 0 0 0.0941176 0 0 0 0 0.109804 0 0 0 0.12 0"/>
<feBlend mode="normal" in2="effect1_dropShadow_912_9806" result="effect2_dropShadow_912_9806"/>
<feBlend mode="normal" in="SourceGraphic" in2="effect2_dropShadow_912_9806" result="shape"/>
</filter>
<filter id="filter2_dd_912_9806" x="146" y="181" width="56" height="56" filterUnits="userSpaceOnUse" color-interpolation-filters="sRGB">
<feFlood flood-opacity="0" result="BackgroundImageFix"/>
<feColorMatrix in="SourceAlpha" type="matrix" values="0 0 0 0 0 0 0 0 0 0 0 0 0 0 0 0 0 0 127 0" result="hardAlpha"/>
<feOffset dy="1"/>
<feGaussianBlur stdDeviation="2"/>
<feColorMatrix type="matrix" values="0 0 0 0 0.0666667 0 0 0 0 0.0941176 0 0 0 0 0.109804 0 0 0 0.16 0"/>
<feBlend mode="normal" in2="BackgroundImageFix" result="effect1_dropShadow_912_9806"/>
<feColorMatrix in="SourceAlpha" type="matrix" values="0 0 0 0 0 0 0 0 0 0 0 0 0 0 0 0 0 0 127 0" result="hardAlpha"/>
<feOffset/>
<feGaussianBlur stdDeviation="0.5"/>
<feComposite in2="hardAlpha" operator="out"/>
<feColorMatrix type="matrix" values="0 0 0 0 0.0666667 0 0 0 0 0.0941176 0 0 0 0 0.109804 0 0 0 0.16 0"/>
<feBlend mode="normal" in2="effect1_dropShadow_912_9806" result="effect2_dropShadow_912_9806"/>
<feBlend mode="normal" in="SourceGraphic" in2="effect2_dropShadow_912_9806" result="shape"/>
</filter>
<linearGradient id="paint0_linear_912_9806" x1="167.654" y1="74.0446" x2="163.158" y2="53.9041" gradientUnits="userSpaceOnUse">
<stop stop-color="#9B6DEE"/>
<stop offset="1" stop-color="#6F2DE7"/>
</linearGradient>
<linearGradient id="paint1_linear_912_9806" x1="179.004" y1="74.5539" x2="171.002" y2="63.1799" gradientUnits="userSpaceOnUse">
<stop stop-color="#43129C"/>
<stop offset="1" stop-color="#6F2DE7"/>
</linearGradient>
<linearGradient id="paint2_linear_912_9806" x1="172.753" y1="75.347" x2="178.148" y2="60.4665" gradientUnits="userSpaceOnUse">
<stop stop-color="#9B6DEE"/>
<stop offset="1" stop-color="#6F2DE7"/>
</linearGradient>
<linearGradient id="paint3_linear_912_9806" x1="172.748" y1="75.188" x2="181.695" y2="60.5772" gradientUnits="userSpaceOnUse">
<stop stop-color="#43129C"/>
<stop offset="1" stop-color="#6F2DE7"/>
</linearGradient>
<radialGradient id="paint4_radial_912_9806" cx="0" cy="0" r="1" gradientUnits="userSpaceOnUse" gradientTransform="translate(198 112) rotate(116.419) scale(41.2606 32.9488)">
<stop stop-color="white"/>
<stop offset="1" stop-color="white" stop-opacity="0"/>
</radialGradient>
<clipPath id="clip0_912_9806">
<rect width="347" height="272" fill="white"/>
</clipPath>
<clipPath id="clip1_912_9806">
<rect x="150" y="112" width="48" height="48" rx="24" fill="white"/>
</clipPath>
</defs>
</svg>
