<svg width="327" height="240" viewBox="0 0 327 240" fill="none" xmlns="http://www.w3.org/2000/svg">
<g clip-path="url(#clip0_1423_14602)">
<mask id="mask0_1423_14602" style="mask-type:alpha" maskUnits="userSpaceOnUse" x="0" y="0" width="327" height="240">
<rect width="327" height="240" fill="url(#paint0_radial_1423_14602)"/>
</mask>
<g mask="url(#mask0_1423_14602)">
<path d="M113 7.5L53 47V106L113 67V7.5Z" fill="#BCDCDC" fill-opacity="0.16"/>
<path d="M53 -32L-7 7L-7 67L53 106L113 67V7L53 -32Z" stroke="#BCDCDC"/>
<path d="M113 67L53 106L53 165L113 205L173 165V106L113 67Z" stroke="#BCDCDC"/>
<path d="M-7 8L-67 47V106L-7 146L53 106V47L-7 8Z" stroke="#BCDCDC"/>
<path d="M53 47L113 7.5" stroke="#BCDCDC"/>
<path d="M339 75.5L279 114V174L339 135V75.5Z" fill="#BCDCDC" fill-opacity="0.16"/>
<path d="M279 36L219 75V135L279 174L339 135V75L279 36Z" stroke="#BCDCDC"/>
<path d="M339 75L279 114V174L339 214L399 174V114L339 75Z" stroke="#BCDCDC"/>
<path d="M279 114L219 75" stroke="#BCDCDC"/>
</g>
<g filter="url(#filter0_dd_1423_14602)">
<rect x="68.8586" y="40" width="188.654" height="160" rx="12" fill="white" shape-rendering="crispEdges"/>
<g clip-path="url(#clip1_1423_14602)">
<path d="M104.111 67.7817L104.849 64.2154C104.978 63.5982 105.585 63.2024 106.196 63.3299C106.813 63.4574 107.209 64.0611 107.082 64.677L106.439 67.7804H114.466L114.482 67.7012C115.097 64.7119 113.172 61.7896 110.182 61.1738L101.407 59.3691L99.6672 67.779H104.111V67.7817Z" fill="#00A287"/>
<path d="M97.9189 76.2266L97.1984 79.7043C97.0871 80.2423 96.6121 80.614 96.0834 80.614C96.007 80.614 95.9291 80.6059 95.8513 80.5898C95.2341 80.4624 94.8383 79.8586 94.9658 79.2427L95.5897 76.2279H87.2482L87.2335 76.299C86.619 79.2884 88.5443 82.2106 91.5337 82.8265L100.61 84.6928L102.363 76.2279H97.9189V76.2266Z" fill="#00A287"/>
<path d="M98.3912 73.9448H102.835L103.639 70.0605H99.1949L98.3912 73.9448Z" fill="#00A287"/>
<path d="M96.8657 70.0604H93.3705C92.7412 70.0604 92.23 69.5506 92.23 68.9199C92.23 68.2893 92.7412 67.7795 93.3705 67.7795H97.338L99.1734 58.9107L96.5611 58.374C93.5718 57.7595 90.6495 59.6849 90.0336 62.6742L87.7165 73.9447H96.0606L96.8643 70.0604H96.8657Z" fill="#00A287"/>
<path d="M105.164 73.9454H108.429C109.058 73.9454 109.569 74.4553 109.569 75.0859C109.569 75.7165 109.058 76.2264 108.429 76.2264H104.692L102.844 85.1501L105.156 85.6251C108.145 86.2396 111.068 84.3142 111.684 81.3249L113.999 70.0625H105.968L105.164 73.9468V73.9454Z" fill="#00A287"/>
</g>
<path d="M86.0064 119V107.364H88.1143V112.29H93.5064V107.364H95.62V119H93.5064V114.057H88.1143V119H86.0064ZM101.685 119.17C100.81 119.17 100.055 118.989 99.4183 118.625C98.7857 118.258 98.299 117.739 97.9581 117.068C97.6172 116.394 97.4467 115.6 97.4467 114.688C97.4467 113.79 97.6172 113.002 97.9581 112.324C98.3028 111.642 98.7838 111.112 99.4013 110.733C100.019 110.35 100.744 110.159 101.577 110.159C102.115 110.159 102.623 110.246 103.1 110.42C103.581 110.591 104.005 110.856 104.373 111.216C104.744 111.576 105.036 112.034 105.248 112.591C105.46 113.144 105.566 113.803 105.566 114.568V115.199H98.4126V113.812H103.594C103.591 113.419 103.505 113.068 103.339 112.761C103.172 112.451 102.939 112.206 102.64 112.028C102.344 111.85 102 111.761 101.606 111.761C101.185 111.761 100.816 111.864 100.498 112.068C100.18 112.269 99.9316 112.534 99.7535 112.864C99.5793 113.189 99.4903 113.547 99.4865 113.938V115.148C99.4865 115.655 99.5793 116.091 99.7649 116.455C99.9505 116.814 100.21 117.091 100.543 117.284C100.877 117.473 101.267 117.568 101.714 117.568C102.013 117.568 102.284 117.527 102.526 117.443C102.769 117.356 102.979 117.229 103.157 117.062C103.335 116.896 103.469 116.689 103.56 116.443L105.481 116.659C105.36 117.167 105.129 117.61 104.788 117.989C104.45 118.364 104.019 118.655 103.492 118.864C102.966 119.068 102.363 119.17 101.685 119.17ZM109.817 119.176C109.264 119.176 108.766 119.078 108.323 118.881C107.884 118.68 107.535 118.384 107.278 117.994C107.024 117.604 106.897 117.123 106.897 116.551C106.897 116.059 106.988 115.652 107.17 115.33C107.352 115.008 107.6 114.75 107.914 114.557C108.228 114.364 108.583 114.218 108.977 114.119C109.374 114.017 109.785 113.943 110.209 113.898C110.721 113.845 111.136 113.797 111.454 113.756C111.772 113.71 112.003 113.642 112.147 113.551C112.295 113.456 112.369 113.311 112.369 113.114V113.08C112.369 112.652 112.242 112.32 111.988 112.085C111.734 111.85 111.369 111.733 110.891 111.733C110.388 111.733 109.988 111.843 109.692 112.062C109.401 112.282 109.204 112.542 109.102 112.841L107.181 112.568C107.333 112.038 107.583 111.595 107.931 111.239C108.28 110.879 108.706 110.61 109.209 110.432C109.713 110.25 110.27 110.159 110.88 110.159C111.3 110.159 111.719 110.208 112.136 110.307C112.552 110.405 112.933 110.568 113.278 110.795C113.622 111.019 113.899 111.324 114.107 111.71C114.319 112.097 114.425 112.58 114.425 113.159V119H112.448V117.801H112.38C112.255 118.044 112.079 118.271 111.852 118.483C111.628 118.691 111.346 118.86 111.005 118.989C110.668 119.114 110.272 119.176 109.817 119.176ZM110.352 117.665C110.764 117.665 111.122 117.583 111.425 117.42C111.728 117.254 111.961 117.034 112.124 116.761C112.291 116.489 112.374 116.191 112.374 115.869V114.841C112.31 114.894 112.2 114.943 112.045 114.989C111.893 115.034 111.723 115.074 111.533 115.108C111.344 115.142 111.156 115.172 110.971 115.199C110.785 115.225 110.624 115.248 110.488 115.267C110.181 115.309 109.906 115.377 109.664 115.472C109.422 115.566 109.23 115.699 109.09 115.869C108.95 116.036 108.88 116.252 108.88 116.517C108.88 116.896 109.018 117.182 109.295 117.375C109.571 117.568 109.924 117.665 110.352 117.665ZM119.732 119.153C119.047 119.153 118.433 118.977 117.891 118.625C117.35 118.273 116.922 117.761 116.607 117.091C116.293 116.42 116.136 115.606 116.136 114.648C116.136 113.678 116.295 112.86 116.613 112.193C116.935 111.523 117.369 111.017 117.914 110.676C118.459 110.331 119.067 110.159 119.738 110.159C120.249 110.159 120.67 110.246 120.999 110.42C121.329 110.591 121.59 110.797 121.783 111.04C121.977 111.278 122.126 111.504 122.232 111.716H122.317V107.364H124.38V119H122.357V117.625H122.232C122.126 117.837 121.973 118.062 121.772 118.301C121.571 118.536 121.306 118.737 120.977 118.903C120.647 119.07 120.232 119.153 119.732 119.153ZM120.306 117.466C120.742 117.466 121.113 117.348 121.42 117.114C121.727 116.875 121.959 116.544 122.119 116.119C122.278 115.695 122.357 115.201 122.357 114.636C122.357 114.072 122.278 113.581 122.119 113.165C121.963 112.748 121.732 112.424 121.425 112.193C121.122 111.962 120.749 111.847 120.306 111.847C119.848 111.847 119.465 111.966 119.158 112.205C118.852 112.443 118.62 112.773 118.465 113.193C118.31 113.614 118.232 114.095 118.232 114.636C118.232 115.182 118.31 115.669 118.465 116.097C118.624 116.521 118.857 116.856 119.164 117.102C119.475 117.345 119.855 117.466 120.306 117.466ZM126.572 119V110.273H128.629V119H126.572ZM127.606 109.034C127.28 109.034 127 108.926 126.765 108.71C126.53 108.491 126.413 108.227 126.413 107.92C126.413 107.61 126.53 107.347 126.765 107.131C127 106.911 127.28 106.801 127.606 106.801C127.935 106.801 128.216 106.911 128.447 107.131C128.682 107.347 128.799 107.61 128.799 107.92C128.799 108.227 128.682 108.491 128.447 108.71C128.216 108.926 127.935 109.034 127.606 109.034ZM132.8 113.886V119H130.744V110.273H132.709V111.756H132.812C133.013 111.267 133.333 110.879 133.772 110.591C134.215 110.303 134.763 110.159 135.414 110.159C136.016 110.159 136.541 110.288 136.988 110.545C137.439 110.803 137.787 111.176 138.033 111.665C138.283 112.153 138.406 112.746 138.403 113.443V119H136.346V113.761C136.346 113.178 136.194 112.722 135.891 112.392C135.592 112.062 135.177 111.898 134.647 111.898C134.287 111.898 133.967 111.977 133.687 112.136C133.41 112.292 133.192 112.517 133.033 112.812C132.878 113.108 132.8 113.466 132.8 113.886ZM144.289 122.455C143.55 122.455 142.916 122.354 142.386 122.153C141.855 121.956 141.429 121.691 141.107 121.358C140.785 121.025 140.562 120.655 140.437 120.25L142.289 119.801C142.372 119.972 142.494 120.14 142.653 120.307C142.812 120.477 143.026 120.617 143.295 120.727C143.567 120.841 143.91 120.898 144.323 120.898C144.906 120.898 145.389 120.756 145.772 120.472C146.155 120.191 146.346 119.729 146.346 119.085V117.432H146.244C146.138 117.644 145.982 117.862 145.778 118.085C145.577 118.309 145.31 118.496 144.977 118.648C144.647 118.799 144.232 118.875 143.732 118.875C143.062 118.875 142.454 118.718 141.908 118.403C141.367 118.085 140.935 117.612 140.613 116.983C140.295 116.35 140.136 115.559 140.136 114.608C140.136 113.65 140.295 112.841 140.613 112.182C140.935 111.519 141.369 111.017 141.914 110.676C142.459 110.331 143.067 110.159 143.738 110.159C144.249 110.159 144.67 110.246 144.999 110.42C145.333 110.591 145.598 110.797 145.795 111.04C145.992 111.278 146.141 111.504 146.244 111.716H146.357V110.273H148.386V119.142C148.386 119.888 148.208 120.506 147.852 120.994C147.495 121.483 147.009 121.848 146.391 122.091C145.774 122.333 145.073 122.455 144.289 122.455ZM144.306 117.261C144.742 117.261 145.113 117.155 145.42 116.943C145.727 116.731 145.959 116.426 146.119 116.028C146.278 115.631 146.357 115.153 146.357 114.597C146.357 114.047 146.278 113.566 146.119 113.153C145.963 112.741 145.732 112.42 145.425 112.193C145.122 111.962 144.749 111.847 144.306 111.847C143.848 111.847 143.465 111.966 143.158 112.205C142.852 112.443 142.62 112.771 142.465 113.188C142.31 113.6 142.232 114.07 142.232 114.597C142.232 115.131 142.31 115.598 142.465 116C142.624 116.398 142.857 116.708 143.164 116.932C143.475 117.152 143.855 117.261 144.306 117.261ZM159.173 107.364V119H157.065V109.415H156.996L154.275 111.153V109.222L157.167 107.364H159.173Z" fill="#222B48"/>
<path d="M86.0916 141V130.818H89.6513C90.3605 130.818 90.9455 130.941 91.4062 131.186C91.8669 131.428 92.21 131.754 92.4353 132.165C92.6607 132.573 92.7734 133.026 92.7734 133.523C92.7734 133.96 92.6955 134.321 92.5398 134.607C92.3873 134.892 92.1851 135.117 91.9332 135.283C91.6846 135.448 91.4145 135.571 91.1228 135.651V135.75C91.4344 135.77 91.7476 135.879 92.0625 136.078C92.3773 136.277 92.6408 136.562 92.853 136.933C93.0651 137.304 93.1711 137.759 93.1711 138.295C93.1711 138.806 93.0551 139.265 92.8231 139.673C92.5911 140.08 92.2249 140.403 91.7244 140.642C91.2239 140.881 90.5727 141 89.7706 141H86.0916ZM87.3246 139.906H89.7706C90.576 139.906 91.1477 139.75 91.4858 139.439C91.8272 139.124 91.9978 138.743 91.9978 138.295C91.9978 137.951 91.91 137.633 91.7344 137.341C91.5587 137.046 91.3085 136.811 90.9836 136.635C90.6588 136.456 90.2744 136.366 89.8302 136.366H87.3246V139.906ZM87.3246 135.293H89.6115C89.9827 135.293 90.3174 135.22 90.6157 135.074C90.9174 134.928 91.156 134.723 91.3317 134.457C91.5106 134.192 91.6001 133.881 91.6001 133.523C91.6001 133.075 91.4443 132.696 91.1328 132.384C90.8212 132.069 90.3274 131.912 89.6513 131.912H87.3246V135.293ZM98.1402 141.159C97.4509 141.159 96.846 140.995 96.3256 140.667C95.8086 140.339 95.4042 139.88 95.1125 139.29C94.8242 138.7 94.68 138.01 94.68 137.222C94.68 136.426 94.8242 135.732 95.1125 135.138C95.4042 134.545 95.8086 134.085 96.3256 133.756C96.846 133.428 97.4509 133.264 98.1402 133.264C98.8296 133.264 99.4329 133.428 99.9499 133.756C100.47 134.085 100.875 134.545 101.163 135.138C101.455 135.732 101.6 136.426 101.6 137.222C101.6 138.01 101.455 138.7 101.163 139.29C100.875 139.88 100.47 140.339 99.9499 140.667C99.4329 140.995 98.8296 141.159 98.1402 141.159ZM98.1402 140.105C98.6639 140.105 99.0948 139.971 99.4329 139.702C99.7709 139.434 100.021 139.081 100.184 138.643C100.346 138.206 100.427 137.732 100.427 137.222C100.427 136.711 100.346 136.236 100.184 135.795C100.021 135.354 99.7709 134.998 99.4329 134.726C99.0948 134.454 98.6639 134.318 98.1402 134.318C97.6166 134.318 97.1857 134.454 96.8476 134.726C96.5096 134.998 96.2593 135.354 96.0969 135.795C95.9345 136.236 95.8533 136.711 95.8533 137.222C95.8533 137.732 95.9345 138.206 96.0969 138.643C96.2593 139.081 96.5096 139.434 96.8476 139.702C97.1857 139.971 97.6166 140.105 98.1402 140.105ZM106.275 141.159C105.639 141.159 105.077 140.998 104.59 140.677C104.102 140.352 103.721 139.895 103.446 139.305C103.171 138.711 103.034 138.01 103.034 137.202C103.034 136.4 103.171 135.704 103.446 135.114C103.721 134.524 104.104 134.068 104.595 133.746C105.085 133.425 105.652 133.264 106.295 133.264C106.792 133.264 107.185 133.347 107.473 133.513C107.765 133.675 107.987 133.861 108.139 134.07C108.295 134.275 108.416 134.444 108.502 134.577H108.602V130.818H109.775V141H108.641V139.827H108.502C108.416 139.966 108.293 140.142 108.134 140.354C107.975 140.562 107.748 140.75 107.453 140.915C107.158 141.078 106.766 141.159 106.275 141.159ZM106.434 140.105C106.905 140.105 107.302 139.982 107.627 139.737C107.952 139.489 108.199 139.146 108.368 138.708C108.537 138.267 108.622 137.759 108.622 137.182C108.622 136.612 108.539 136.113 108.373 135.685C108.207 135.254 107.962 134.92 107.637 134.681C107.312 134.439 106.911 134.318 106.434 134.318C105.937 134.318 105.523 134.446 105.191 134.701C104.863 134.953 104.616 135.296 104.45 135.73C104.288 136.161 104.207 136.645 104.207 137.182C104.207 137.725 104.29 138.219 104.455 138.663C104.624 139.104 104.873 139.455 105.201 139.717C105.533 139.976 105.944 140.105 106.434 140.105ZM112.842 143.864C112.644 143.864 112.466 143.847 112.311 143.814C112.155 143.784 112.047 143.754 111.987 143.724L112.286 142.69C112.571 142.763 112.823 142.79 113.041 142.77C113.26 142.75 113.454 142.652 113.623 142.477C113.795 142.304 113.953 142.024 114.095 141.636L114.314 141.04L111.49 133.364H112.763L114.871 139.449H114.95L117.058 133.364H118.331L115.09 142.114C114.944 142.508 114.763 142.835 114.548 143.093C114.332 143.355 114.082 143.549 113.797 143.675C113.515 143.801 113.197 143.864 112.842 143.864ZM127.377 130.818V141H126.144V132.111H126.084L123.599 133.761V132.509L126.144 130.818H127.377Z" fill="#828999"/>
<g clip-path="url(#clip2_1423_14602)">
<rect x="84.8586" y="160" width="33.1635" height="24" rx="4" fill="#00A287"/>
<rect x="126.022" y="160" width="33.1635" height="24" rx="4" fill="#057D69"/>
<rect x="167.186" y="160" width="33.1635" height="24" rx="4" fill="#ACAEB9"/>
<rect x="208.349" y="160" width="33.1635" height="24" rx="4" fill="#717484"/>
</g>
<rect x="69.3586" y="40.5" width="187.654" height="159" rx="11.5" stroke="#D8DFE5" shape-rendering="crispEdges"/>
</g>
</g>
<defs>
<filter id="filter0_dd_1423_14602" x="54.8586" y="34" width="216.654" height="188" filterUnits="userSpaceOnUse" color-interpolation-filters="sRGB">
<feFlood flood-opacity="0" result="BackgroundImageFix"/>
<feColorMatrix in="SourceAlpha" type="matrix" values="0 0 0 0 0 0 0 0 0 0 0 0 0 0 0 0 0 0 127 0" result="hardAlpha"/>
<feOffset dy="8"/>
<feGaussianBlur stdDeviation="7"/>
<feComposite in2="hardAlpha" operator="out"/>
<feColorMatrix type="matrix" values="0 0 0 0 0 0 0 0 0 0 0 0 0 0 0 0 0 0 0.08 0"/>
<feBlend mode="normal" in2="BackgroundImageFix" result="effect1_dropShadow_1423_14602"/>
<feColorMatrix in="SourceAlpha" type="matrix" values="0 0 0 0 0 0 0 0 0 0 0 0 0 0 0 0 0 0 127 0" result="hardAlpha"/>
<feOffset dy="2"/>
<feGaussianBlur stdDeviation="0.5"/>
<feComposite in2="hardAlpha" operator="out"/>
<feColorMatrix type="matrix" values="0 0 0 0 0 0 0 0 0 0 0 0 0 0 0 0 0 0 0.06 0"/>
<feBlend mode="normal" in2="effect1_dropShadow_1423_14602" result="effect2_dropShadow_1423_14602"/>
<feBlend mode="normal" in="SourceGraphic" in2="effect2_dropShadow_1423_14602" result="shape"/>
</filter>
<radialGradient id="paint0_radial_1423_14602" cx="0" cy="0" r="1" gradientUnits="userSpaceOnUse" gradientTransform="translate(163.971 3.20325e-06) rotate(90) scale(240 163.971)">
<stop offset="0.338542" stop-color="#D9D9D9"/>
<stop offset="1" stop-color="#D9D9D9" stop-opacity="0"/>
</radialGradient>
<clipPath id="clip0_1423_14602">
<rect width="327" height="240" fill="white"/>
</clipPath>
<clipPath id="clip1_1423_14602">
<rect width="28" height="28" fill="white" transform="translate(86.8586 58)"/>
</clipPath>
<clipPath id="clip2_1423_14602">
<rect width="156.654" height="24" fill="white" transform="translate(84.8586 160)"/>
</clipPath>
</defs>
</svg>
