<svg width="327" height="240" viewBox="0 0 327 240" fill="none" xmlns="http://www.w3.org/2000/svg">
<g clip-path="url(#clip0_1423_14656)">
<mask id="mask0_1423_14656" style="mask-type:alpha" maskUnits="userSpaceOnUse" x="0" y="0" width="327" height="240">
<rect width="327" height="240" fill="url(#paint0_radial_1423_14656)"/>
</mask>
<g mask="url(#mask0_1423_14656)">
<path d="M113 7.5L53 47V106L113 67V7.5Z" fill="#BCDCDC" fill-opacity="0.16"/>
<path d="M53 -32L-7 7L-7 67L53 106L113 67V7L53 -32Z" stroke="#BCDCDC"/>
<path d="M113 67L53 106L53 165L113 205L173 165V106L113 67Z" stroke="#BCDCDC"/>
<path d="M-7 8L-67 47V106L-7 146L53 106V47L-7 8Z" stroke="#BCDCDC"/>
<path d="M53 47L113 7.5" stroke="#BCDCDC"/>
<path d="M339 75.5L279 114V174L339 135V75.5Z" fill="#BCDCDC" fill-opacity="0.16"/>
<path d="M279 36L219 75V135L279 174L339 135V75L279 36Z" stroke="#BCDCDC"/>
<path d="M339 75L279 114V174L339 214L399 174V114L339 75Z" stroke="#BCDCDC"/>
<path d="M279 114L219 75" stroke="#BCDCDC"/>
</g>
<g filter="url(#filter0_dd_1423_14656)">
<rect x="68.8586" y="40" width="188.654" height="160" rx="12" fill="white" shape-rendering="crispEdges"/>
<path d="M102.109 81.5833C99.0765 83.3162 95.3162 83.3162 92.301 81.5833C91.4519 81.0981 90.3775 81.3927 89.8923 82.2418C89.4071 83.0909 89.7017 84.1653 90.5508 84.6505C92.5956 85.8288 94.9003 86.4007 97.2049 86.4007C99.5097 86.4007 101.814 85.8115 103.859 84.6505C104.708 84.1653 105.003 83.0909 104.518 82.2418C104.032 81.3927 102.958 81.0981 102.109 81.5833Z" fill="#18ACB4"/>
<path d="M103.391 57.5996C99.0418 57.5996 95.4895 61.152 95.4895 65.5014C95.4895 65.5881 95.4895 65.6747 95.4895 65.7613C95.4895 65.8133 95.4895 65.848 95.4895 65.8999V77.5794C95.4895 78.5497 96.2866 79.3469 97.257 79.3469C98.2274 79.3469 99.0245 78.5497 99.0245 77.5794V72.0862C100.272 72.918 101.78 73.4032 103.391 73.4032C107.758 73.4032 111.293 69.8509 111.293 65.5014C111.293 61.152 107.758 57.5996 103.391 57.5996ZM103.391 69.8855C100.983 69.8855 99.0245 67.9274 99.0245 65.5187C99.0245 63.1101 100.983 61.152 103.391 61.152C105.8 61.152 107.758 63.1101 107.758 65.5187C107.775 67.9101 105.8 69.8855 103.391 69.8855Z" fill="#18ACB4"/>
<path d="M95.2906 118V107.328H93.4186V111.68H87.8666V107.328H85.9946V118H87.8666V113.328H93.4186V118H95.2906ZM101.093 118.192C102.309 118.192 103.445 117.792 104.229 117.056L103.461 115.952C102.901 116.512 102.021 116.816 101.253 116.816C99.7971 116.816 98.9331 115.84 98.8051 114.688H104.757V114.272C104.757 111.84 103.285 110.08 100.965 110.08C98.6771 110.08 97.0451 111.888 97.0451 114.128C97.0451 116.576 98.7571 118.192 101.093 118.192ZM103.141 113.488H98.7891C98.8531 112.56 99.5251 111.456 100.949 111.456C102.469 111.456 103.093 112.576 103.141 113.488ZM112.831 118V112.864C112.831 110.8 111.327 110.08 109.599 110.08C108.367 110.08 107.247 110.464 106.351 111.328L107.055 112.496C107.711 111.824 108.479 111.504 109.343 111.504C110.399 111.504 111.151 112.048 111.151 112.944V114.096C110.575 113.44 109.695 113.104 108.639 113.104C107.375 113.104 105.967 113.84 105.967 115.632C105.967 117.328 107.391 118.192 108.639 118.192C109.663 118.192 110.575 117.824 111.151 117.152V118H112.831ZM109.311 117.04C108.367 117.04 107.647 116.496 107.647 115.648C107.647 114.816 108.367 114.256 109.311 114.256C110.031 114.256 110.751 114.528 111.151 115.056V116.24C110.751 116.768 110.031 117.04 109.311 117.04ZM122.129 118V107.328H120.449V111.344C119.841 110.512 118.945 110.08 117.969 110.08C115.985 110.08 114.545 111.632 114.545 114.128C114.545 116.688 116.001 118.192 117.969 118.192C118.977 118.192 119.857 117.712 120.449 116.944V118H122.129ZM118.465 116.704C117.121 116.704 116.273 115.632 116.273 114.128C116.273 112.64 117.121 111.568 118.465 111.568C119.249 111.568 120.081 112.032 120.449 112.608V115.664C120.081 116.24 119.249 116.704 118.465 116.704ZM125.154 109.328C125.73 109.328 126.194 108.864 126.194 108.288C126.194 107.712 125.73 107.248 125.154 107.248C124.578 107.248 124.114 107.712 124.114 108.288C124.114 108.864 124.578 109.328 125.154 109.328ZM125.986 118V110.272H124.306V118H125.986ZM135.077 118V112.56C135.077 110.976 134.245 110.08 132.581 110.08C131.365 110.08 130.357 110.704 129.845 111.312V110.272H128.165V118H129.845V112.592C130.245 112.08 130.981 111.568 131.829 111.568C132.773 111.568 133.397 111.952 133.397 113.168V118H135.077ZM140.411 121.136C142.299 121.136 144.379 120.384 144.379 117.6V110.272H142.699V111.344C142.075 110.512 141.195 110.08 140.219 110.08C138.219 110.08 136.795 111.536 136.795 114.048C136.795 116.592 138.251 118.016 140.219 118.016C141.227 118.016 142.107 117.504 142.699 116.72V117.6C142.699 119.248 141.515 119.76 140.411 119.76C139.387 119.76 138.587 119.488 137.947 118.768L137.163 119.984C138.123 120.848 139.099 121.136 140.411 121.136ZM140.715 116.512C139.371 116.512 138.523 115.536 138.523 114.048C138.523 112.56 139.371 111.568 140.715 111.568C141.499 111.568 142.315 112.032 142.699 112.592V115.488C142.315 116.048 141.499 116.512 140.715 116.512ZM154.537 118V107.328H152.905L149.833 110.432L150.921 111.568L152.665 109.744V118H154.537Z" fill="#222B48"/>
<path d="M90.2066 140C91.9146 140 92.9086 138.978 92.9086 137.48C92.9086 136.36 92.0826 135.338 91.0886 135.184C91.9426 135.002 92.7266 134.218 92.7266 133.042C92.7266 131.642 91.7326 130.662 90.1086 130.662H85.9506V140H90.2066ZM89.9126 134.708H87.1126V131.698H89.9126C90.9626 131.698 91.5226 132.37 91.5226 133.21C91.5226 134.064 90.9626 134.708 89.9126 134.708ZM89.9826 138.964H87.1126V135.744H89.9826C91.1166 135.744 91.7046 136.5 91.7046 137.354C91.7046 138.348 91.0606 138.964 89.9826 138.964ZM97.6673 140.168C99.7253 140.168 101.013 138.572 101.013 136.612C101.013 134.652 99.7253 133.07 97.6673 133.07C95.6093 133.07 94.3213 134.652 94.3213 136.612C94.3213 138.572 95.6093 140.168 97.6673 140.168ZM97.6673 139.23C96.2253 139.23 95.4273 137.998 95.4273 136.612C95.4273 135.24 96.2253 134.008 97.6673 134.008C99.1093 134.008 99.9073 135.24 99.9073 136.612C99.9073 137.998 99.1093 139.23 97.6673 139.23ZM108.675 140V130.662H107.625V134.26C107.079 133.518 106.253 133.07 105.343 133.07C103.579 133.07 102.333 134.456 102.333 136.626C102.333 138.824 103.579 140.168 105.343 140.168C106.295 140.168 107.121 139.678 107.625 138.992V140H108.675ZM105.609 139.23C104.237 139.23 103.425 138.124 103.425 136.626C103.425 135.128 104.237 134.008 105.609 134.008C106.435 134.008 107.261 134.512 107.625 135.1V138.152C107.261 138.74 106.435 139.23 105.609 139.23ZM110.414 142.646C110.596 142.702 110.946 142.744 111.17 142.744C112.066 142.73 112.752 142.352 113.158 141.372L116.546 133.238H115.412L113.158 138.782L110.918 133.238H109.77L112.598 140.07L112.15 141.092C111.912 141.652 111.604 141.806 111.142 141.806C110.974 141.806 110.722 141.764 110.568 141.694L110.414 142.646ZM123.868 140V130.662H122.846L120.508 133.07L121.208 133.784L122.706 132.188V140H123.868Z" fill="#828999"/>
<g clip-path="url(#clip1_1423_14656)">
<rect x="84.8586" y="160" width="33.1635" height="24" rx="4" fill="#01B2C0"/>
<rect x="126.022" y="160" width="33.1635" height="24" rx="4" fill="#01B2C0" fill-opacity="0.1"/>
<rect x="167.186" y="160" width="33.1635" height="24" rx="4" fill="#525252"/>
<rect x="208.349" y="160" width="33.1635" height="24" rx="4" fill="#8A94A3"/>
</g>
<rect x="69.3586" y="40.5" width="187.654" height="159" rx="11.5" stroke="#D8DFE5" shape-rendering="crispEdges"/>
</g>
</g>
<defs>
<filter id="filter0_dd_1423_14656" x="54.8586" y="34" width="216.654" height="188" filterUnits="userSpaceOnUse" color-interpolation-filters="sRGB">
<feFlood flood-opacity="0" result="BackgroundImageFix"/>
<feColorMatrix in="SourceAlpha" type="matrix" values="0 0 0 0 0 0 0 0 0 0 0 0 0 0 0 0 0 0 127 0" result="hardAlpha"/>
<feOffset dy="8"/>
<feGaussianBlur stdDeviation="7"/>
<feComposite in2="hardAlpha" operator="out"/>
<feColorMatrix type="matrix" values="0 0 0 0 0 0 0 0 0 0 0 0 0 0 0 0 0 0 0.08 0"/>
<feBlend mode="normal" in2="BackgroundImageFix" result="effect1_dropShadow_1423_14656"/>
<feColorMatrix in="SourceAlpha" type="matrix" values="0 0 0 0 0 0 0 0 0 0 0 0 0 0 0 0 0 0 127 0" result="hardAlpha"/>
<feOffset dy="2"/>
<feGaussianBlur stdDeviation="0.5"/>
<feComposite in2="hardAlpha" operator="out"/>
<feColorMatrix type="matrix" values="0 0 0 0 0 0 0 0 0 0 0 0 0 0 0 0 0 0 0.06 0"/>
<feBlend mode="normal" in2="effect1_dropShadow_1423_14656" result="effect2_dropShadow_1423_14656"/>
<feBlend mode="normal" in="SourceGraphic" in2="effect2_dropShadow_1423_14656" result="shape"/>
</filter>
<radialGradient id="paint0_radial_1423_14656" cx="0" cy="0" r="1" gradientUnits="userSpaceOnUse" gradientTransform="translate(163.971 3.20325e-06) rotate(90) scale(240 163.971)">
<stop offset="0.338542" stop-color="#D9D9D9"/>
<stop offset="1" stop-color="#D9D9D9" stop-opacity="0"/>
</radialGradient>
<clipPath id="clip0_1423_14656">
<rect width="327" height="240" fill="white"/>
</clipPath>
<clipPath id="clip1_1423_14656">
<rect width="156.654" height="24" fill="white" transform="translate(84.8586 160)"/>
</clipPath>
</defs>
</svg>
