<svg width="347" height="300" viewBox="0 0 347 300" fill="none" xmlns="http://www.w3.org/2000/svg">
<mask id="mask0_734_45319" style="mask-type:alpha" maskUnits="userSpaceOnUse" x="0" y="0" width="347" height="300">
<rect width="347" height="300" fill="url(#paint0_radial_734_45319)"/>
</mask>
<g mask="url(#mask0_734_45319)">
<path d="M79.7893 46.4858L75.8651 50.4103C75.1167 51.1587 73.9029 51.1587 73.1546 50.4103L69.2304 46.4858L73.1546 42.5613C73.9029 41.8129 75.1167 41.8129 75.8651 42.5613L79.7893 46.4858Z" fill="#BCDCDC"/>
<path d="M171.618 66.4059L145.782 92.2445L134.464 80.9255C134.105 80.5665 133.903 80.0797 133.903 79.5721V66.6379C133.903 66.1303 133.701 65.6435 133.342 65.2844L124.698 56.6389C123.95 55.8913 123.95 54.6797 124.698 53.932L129.064 49.5656L143.582 44.2858H164.515C168.748 44.2858 172.179 47.7148 172.179 51.9448V65.0525C172.179 65.5601 171.977 66.0469 171.618 66.4059Z" fill="#BCDCDC"/>
<path d="M103.986 84.7647L96.9473 77.7249L92.5478 96.2044H80.2291L70.1773 86.1516C68.6821 84.6563 68.6821 82.2331 70.1773 80.7378L75.7626 75.1519C77.2578 73.6566 77.2578 71.2334 75.7626 69.7381L72.9926 66.9678C72.2739 66.249 71.2988 65.8452 70.2821 65.8452H-2.65341C-3.67016 65.8452 -4.64523 66.249 -5.36392 66.9678L-15.8786 77.4834C-16.5967 78.2015 -17 79.1751 -17 80.1903V96.2044L4.11764 80.3648L18.8345 95.0829C19.5525 95.801 19.9559 96.7746 19.9559 97.7898V115.738C19.9559 116.754 20.3592 117.727 21.0773 118.445L54.0294 151.4C54.7481 152.119 55.7232 152.523 56.74 152.523H64.1228C65.1395 152.523 66.1146 152.927 66.8333 153.645L73.1899 160.003L65.7108 173.642V191.856C65.7108 192.872 66.1141 193.845 66.8321 194.563L77.348 205.08C78.066 205.798 78.4693 206.772 78.4693 207.787V240.081L92.5478 259V232.866C92.5478 231.851 92.9511 230.877 93.6692 230.159L129.262 194.563C129.98 193.845 130.384 192.872 130.384 191.856V181.301C130.384 177.071 126.952 173.642 122.72 173.642H118.505L107.946 164.843L104.229 161.125C103.51 160.407 102.535 160.003 101.519 160.003H85.0686L70.3529 145.286C69.6342 144.567 68.6591 144.163 67.6424 144.163H63.3833C61.2671 144.163 59.5515 142.449 59.5515 140.334V138.622C59.5515 134.393 62.9826 130.963 67.2152 130.963H80.8409C81.8576 130.963 82.8327 130.56 83.5514 129.841L116.064 97.3259C116.782 96.6078 117.185 95.6341 117.185 94.6189V88.5942C117.185 86.4792 115.469 84.7647 113.353 84.7647H103.986Z" fill="#BCDCDC"/>
<path d="M63.7273 59.6854H48.9926L42.1417 52.8338C40.9354 51.6274 41.7904 49.5656 43.497 49.5656H58.2316L65.0825 56.4171C66.2888 57.6236 65.4339 59.6854 63.7273 59.6854Z" fill="#BCDCDC"/>
<path d="M428.858 121.975L441.429 109.404H448.684C450.391 109.404 451.246 111.466 450.04 112.672L437.469 125.244H430.214C428.507 125.244 427.652 123.182 428.858 121.975Z" fill="#BCDCDC"/>
<path d="M431.75 193.002H445.915C446.423 193.002 446.911 192.8 447.27 192.44L456.828 182.882H442.663C442.155 182.882 441.667 183.084 441.308 183.443L431.75 193.002Z" fill="#BCDCDC"/>
<path d="M427.791 201.361L414.592 214.561V224.942C414.592 229.172 418.023 232.601 422.256 232.601H439.229L448.029 241.4H463.867V214.561L450.668 201.361H427.791Z" fill="#BCDCDC"/>
<path d="M480.584 242.281H475.089C473.382 242.281 472.527 240.219 473.733 239.012L480.584 232.161H486.08C487.787 232.161 488.642 234.223 487.435 235.429L480.584 242.281Z" fill="#BCDCDC"/>
<path d="M225.853 88.7246V98.0075C225.853 99.6012 224.019 100.497 222.76 99.5186L217.934 95.7644V85.9506C217.934 84.2981 219.888 83.4217 221.123 84.5199L225.853 88.7246Z" fill="#BCDCDC"/>
<path d="M241.251 94.0045H256.933C257.991 94.0045 258.849 93.1473 258.849 92.0898V88.1974C258.849 87.6898 259.051 87.203 259.41 86.844L265.45 80.803C266.908 79.3458 266.908 76.9842 265.45 75.5269C263.992 74.0682 261.626 74.0682 260.167 75.5269L252.881 82.8133C251.675 84.0201 249.61 83.166 249.61 81.4598V72.8851L258.288 64.2066C258.647 63.8473 259.135 63.6453 259.643 63.6453H272.928L282.364 73.0825C283.083 73.8012 284.058 74.2051 285.074 74.2051H314.895C315.912 74.2051 316.887 73.8012 317.605 73.0825L327.042 63.6453H343.32L352.514 54.4508C353.951 53.0133 355.901 52.2057 357.935 52.2057H379.299C381.333 52.2057 383.283 53.0133 384.72 54.4508L391.669 61.4002C393.107 62.8377 395.057 63.6453 397.09 63.6453H414.152L434.83 71.5651H455.593C456.102 71.5651 456.589 71.767 456.948 72.1264L461.633 76.8115C462.381 77.5591 462.381 78.7708 461.633 79.5184L451.669 89.4833C451.31 89.8427 450.822 90.0446 450.314 90.0446H442.493C438.261 90.0446 434.83 93.4737 434.83 97.7037V104.564L415.274 124.121C414.556 124.84 413.581 125.244 412.564 125.244H404.785C402.669 125.244 400.953 126.958 400.953 129.073V134.658C400.953 135.673 400.55 136.647 399.832 137.365L390.395 146.803L380.276 160.443L365.899 146.065C362.906 143.071 358.05 143.071 355.057 146.065L346.101 155.021C343.108 158.015 338.252 158.015 335.259 155.021L327.042 146.803H317.803L322.202 158.243L311.643 168.803L304.164 174.962L307.177 177.975C308.672 179.471 308.672 181.894 307.177 183.389L293.407 197.16C292.689 197.878 292.286 198.852 292.286 199.867V234.801L275.567 251.08H274.177C265.712 251.08 258.849 244.222 258.849 235.762V220.987C258.849 219.971 258.446 218.998 257.728 218.28L249.61 210.161V204.36C249.61 195.9 242.748 189.042 234.283 189.042H228.933L212.214 172.322L228.933 136.243H247.056C247.565 136.243 248.052 136.445 248.412 136.805L254.328 142.722C254.688 143.081 255.175 143.283 255.684 143.283H276.973C277.482 143.283 277.969 143.081 278.328 142.722L287.446 133.603L282.017 126.972L277.045 122.004H268.088L262.809 126.972H250.055L241.251 118.81H234.43L223.421 129.102L212.767 118.81L223.421 107.807H234.43L241.251 94.0045Z" fill="#BCDCDC"/>
<path d="M311.643 209.506V219.401L305.676 225.369C304.469 226.576 302.404 225.722 302.404 224.016V214.121L308.372 208.153C309.579 206.946 311.643 207.8 311.643 209.506Z" fill="#BCDCDC"/>
<path d="M401.393 164.402L397.469 168.327C396.721 169.075 395.507 169.075 394.759 168.327L390.835 164.402L394.759 160.478C395.507 159.73 396.721 159.73 397.469 160.478L401.393 164.402Z" fill="#BCDCDC"/>
<path d="M390.395 187.722L377.824 175.15C376.618 173.944 377.473 171.882 379.18 171.882H385.555L398.126 184.454C399.332 185.66 398.477 187.722 396.77 187.722H390.395Z" fill="#BCDCDC"/>
<path d="M416.387 193.846L420.311 189.922L416.387 185.997C415.639 185.249 414.425 185.249 413.677 185.997L409.752 189.922L413.677 193.846C414.425 194.595 415.639 194.595 416.387 193.846Z" fill="#BCDCDC"/>
<path d="M178.814 88.2495L182.738 84.325L178.814 80.4005C178.065 79.6521 176.852 79.6521 176.103 80.4005L172.179 84.325L176.103 88.2495C176.852 88.9979 178.065 88.9979 178.814 88.2495Z" fill="#BCDCDC"/>
<path d="M214.414 96.6445L210.49 100.569C209.742 101.317 208.528 101.317 207.78 100.569L203.856 96.6445L207.78 92.72C208.528 91.9716 209.742 91.9716 210.49 92.72L214.414 96.6445Z" fill="#BCDCDC"/>
<path d="M114.106 73.765L97.3873 57.0455H85.5085L102.227 73.765H114.106Z" fill="#BCDCDC"/>
</g>
<path d="M119.941 206C137.001 185.817 162.504 173 191 173C201.127 173 210.875 174.618 220 177.611" stroke="#54ABA3" stroke-width="0.5" stroke-dasharray="4 4"/>
<path d="M259.143 89.9401C236.866 80.3265 212.305 75 186.5 75C146.571 75 109.621 87.7531 79.5 109.408" stroke="#54ABA3" stroke-width="0.5" stroke-dasharray="4 4"/>
<path d="M80 110.309C90.0192 107.501 100.584 106 111.5 106C160.081 106 201.717 135.736 219.199 178" stroke="#54ABA3" stroke-width="0.5" stroke-dasharray="4 4"/>
<path d="M259 89.8286C254.242 89.2813 249.404 89 244.5 89C178.045 89 123.654 140.652 119.283 206" stroke="#54ABA3" stroke-width="0.5" stroke-dasharray="4 4"/>
<g filter="url(#filter0_dd_734_45319)">
<rect x="56" y="86" width="48" height="48" rx="24" fill="white" shape-rendering="crispEdges"/>
<path d="M85.2086 107C83.5288 107 82.167 105.741 82.167 104.188V102.313C82.167 100.759 83.5288 99.5 85.2086 99.5C86.8885 99.5 88.2502 100.759 88.2502 102.313V104.188C88.2502 105.741 86.8885 107 85.2086 107ZM85.2086 107C88.1679 107 91.2499 108.427 91.2499 111.282V113.75C91.2499 114.164 90.9141 114.5 90.4999 114.5H85.6921M85.2086 107C82.5419 107 79.8427 108.159 79.335 110.477M76.25 121.25C80.3921 121.25 83.75 117.892 83.75 113.75M76.25 106.25C72.1079 106.25 68.75 109.608 68.75 113.75M76.25 115.25C75.4733 115.25 74.8438 114.62 74.8438 113.844V112.906C74.8438 112.13 75.4733 111.5 76.25 111.5C77.0267 111.5 77.6562 112.13 77.6562 112.906V113.844C77.6562 114.62 77.0267 115.25 76.25 115.25ZM76.25 115.25C77.6997 115.25 78.9089 116.259 79.1887 117.136M76.25 115.25C74.8003 115.25 73.5903 116.259 73.3106 117.136M76.25 118.25C78.7353 118.25 80.75 116.235 80.75 113.75C80.75 111.265 78.7353 109.25 76.25 109.25C73.7647 109.25 71.75 111.265 71.75 113.75C71.75 116.235 73.7647 118.25 76.25 118.25Z" stroke="#002832" stroke-width="1.5" stroke-miterlimit="10"/>
<rect x="56.5" y="86.5" width="47" height="47" rx="23.5" stroke="#BCDCDC" shape-rendering="crispEdges"/>
</g>
<g filter="url(#filter1_dd_734_45319)">
<rect x="235" y="66" width="48" height="48" rx="24" fill="white" shape-rendering="crispEdges"/>
<path d="M250.75 94.5C250.75 94.5 253.965 94.5 254.855 94.5C256.635 94.5 256.635 91.875 254.855 91.875H253.076C251.296 91.875 251.296 89.25 253.076 89.25C253.965 89.25 256.435 89.25 256.435 89.25M259.67 94.5H269.5C269.914 94.5 270.25 94.1642 270.25 93.75V91.2821C270.25 88.4274 267.209 87 264.25 87C262.593 87 260.91 87.4476 259.75 88.3429M259.231 86.8322C259.541 86.9323 259.75 87.2205 259.75 87.5457V93.7502C259.75 97.5002 253.75 100.5 253.75 100.5C253.75 100.5 247.75 97.5002 247.75 93.7502V87.5457C247.75 87.2205 247.96 86.9323 248.269 86.8322L252.364 85.5065C253.265 85.2149 254.235 85.2149 255.136 85.5065L259.231 86.8322ZM261.167 84.1876C261.167 85.7409 262.529 87.0001 264.209 87.0001C265.888 87.0001 267.25 85.7409 267.25 84.1876V82.3125C267.25 80.7592 265.888 79.5 264.209 79.5C262.529 79.5 261.167 80.7592 261.167 82.3125V84.1876Z" stroke="#002832" stroke-width="1.5" stroke-miterlimit="10"/>
<rect x="235.5" y="66.5" width="47" height="47" rx="23.5" stroke="#BCDCDC" shape-rendering="crispEdges"/>
</g>
<g filter="url(#filter2_dd_734_45319)">
<rect x="195" y="154" width="48" height="48" rx="24" fill="white" shape-rendering="crispEdges"/>
<path d="M217.703 180.014C218.953 180.427 219.75 181.051 219.75 181.75C219.75 182.993 217.232 184 214.125 184C211.018 184 208.5 182.993 208.5 181.75C208.5 180.769 210.069 179.935 212.258 179.627M224.209 175C222.529 175 221.167 173.741 221.167 172.188V170.313C221.167 168.759 222.529 167.5 224.209 167.5C225.888 167.5 227.25 168.759 227.25 170.313V172.188C227.25 173.741 225.888 175 224.209 175ZM224.209 175C227.168 175 230.25 176.427 230.25 179.282V181.75C230.25 182.164 229.914 182.5 229.5 182.5H219.425M224.209 175C222.401 175 220.577 175.533 219.432 176.598M217.648 183.486C220.206 183.941 222 185.007 222 186.25C222 187.907 218.81 189.25 214.875 189.25C210.94 189.25 207.75 187.907 207.75 186.25C207.75 185.157 209.139 184.2 211.215 183.676M217.523 175.927C219.272 176.268 220.5 177.068 220.5 178C220.5 179.243 218.317 180.25 215.625 180.25C212.933 180.25 210.75 179.243 210.75 178C210.75 177.248 211.549 176.583 212.776 176.174M214.875 176.5C216.739 176.5 218.25 175.829 218.25 175C218.25 174.172 216.739 173.5 214.875 173.5C213.011 173.5 211.5 174.172 211.5 175C211.5 175.829 213.011 176.5 214.875 176.5Z" stroke="#002832" stroke-width="1.5" stroke-miterlimit="10"/>
<rect x="195.5" y="154.5" width="47" height="47" rx="23.5" stroke="#BCDCDC" shape-rendering="crispEdges"/>
</g>
<g filter="url(#filter3_dd_734_45319)">
<rect x="96" y="182" width="48" height="48" rx="24" fill="white" shape-rendering="crispEdges"/>
<path d="M112.562 211.25V206H115.603C117.382 206 117.382 208.625 115.603 208.625H113.994M113.994 208.625C114.869 208.625 116.938 209.5 116.938 211.25M113.994 208.625H112.562M120.67 210.5H130.5C130.914 210.5 131.25 210.164 131.25 209.75V207.282C131.25 204.427 128.209 203 125.25 203C123.593 203 121.91 203.448 120.75 204.343M120.231 202.832C120.541 202.932 120.75 203.22 120.75 203.546V209.75C120.75 213.5 114.75 216.5 114.75 216.5C114.75 216.5 108.75 213.5 108.75 209.75V203.546C108.75 203.22 108.96 202.932 109.269 202.832L113.364 201.507C114.265 201.215 115.235 201.215 116.136 201.507L120.231 202.832ZM122.167 200.188C122.167 201.741 123.529 203 125.209 203C126.888 203 128.25 201.741 128.25 200.188V198.313C128.25 196.759 126.888 195.5 125.209 195.5C123.529 195.5 122.167 196.759 122.167 198.313V200.188Z" stroke="#002832" stroke-width="1.5" stroke-miterlimit="10"/>
<rect x="96.5" y="182.5" width="47" height="47" rx="23.5" stroke="#BCDCDC" shape-rendering="crispEdges"/>
</g>
<defs>
<filter id="filter0_dd_734_45319" x="52" y="83" width="56" height="56" filterUnits="userSpaceOnUse" color-interpolation-filters="sRGB">
<feFlood flood-opacity="0" result="BackgroundImageFix"/>
<feColorMatrix in="SourceAlpha" type="matrix" values="0 0 0 0 0 0 0 0 0 0 0 0 0 0 0 0 0 0 127 0" result="hardAlpha"/>
<feOffset dy="1"/>
<feGaussianBlur stdDeviation="2"/>
<feColorMatrix type="matrix" values="0 0 0 0 0.0666667 0 0 0 0 0.0941176 0 0 0 0 0.109804 0 0 0 0.16 0"/>
<feBlend mode="normal" in2="BackgroundImageFix" result="effect1_dropShadow_734_45319"/>
<feColorMatrix in="SourceAlpha" type="matrix" values="0 0 0 0 0 0 0 0 0 0 0 0 0 0 0 0 0 0 127 0" result="hardAlpha"/>
<feOffset/>
<feGaussianBlur stdDeviation="0.5"/>
<feComposite in2="hardAlpha" operator="out"/>
<feColorMatrix type="matrix" values="0 0 0 0 0.0666667 0 0 0 0 0.0941176 0 0 0 0 0.109804 0 0 0 0.16 0"/>
<feBlend mode="normal" in2="effect1_dropShadow_734_45319" result="effect2_dropShadow_734_45319"/>
<feBlend mode="normal" in="SourceGraphic" in2="effect2_dropShadow_734_45319" result="shape"/>
</filter>
<filter id="filter1_dd_734_45319" x="231" y="63" width="56" height="56" filterUnits="userSpaceOnUse" color-interpolation-filters="sRGB">
<feFlood flood-opacity="0" result="BackgroundImageFix"/>
<feColorMatrix in="SourceAlpha" type="matrix" values="0 0 0 0 0 0 0 0 0 0 0 0 0 0 0 0 0 0 127 0" result="hardAlpha"/>
<feOffset dy="1"/>
<feGaussianBlur stdDeviation="2"/>
<feColorMatrix type="matrix" values="0 0 0 0 0.0666667 0 0 0 0 0.0941176 0 0 0 0 0.109804 0 0 0 0.16 0"/>
<feBlend mode="normal" in2="BackgroundImageFix" result="effect1_dropShadow_734_45319"/>
<feColorMatrix in="SourceAlpha" type="matrix" values="0 0 0 0 0 0 0 0 0 0 0 0 0 0 0 0 0 0 127 0" result="hardAlpha"/>
<feOffset/>
<feGaussianBlur stdDeviation="0.5"/>
<feComposite in2="hardAlpha" operator="out"/>
<feColorMatrix type="matrix" values="0 0 0 0 0.0666667 0 0 0 0 0.0941176 0 0 0 0 0.109804 0 0 0 0.16 0"/>
<feBlend mode="normal" in2="effect1_dropShadow_734_45319" result="effect2_dropShadow_734_45319"/>
<feBlend mode="normal" in="SourceGraphic" in2="effect2_dropShadow_734_45319" result="shape"/>
</filter>
<filter id="filter2_dd_734_45319" x="191" y="151" width="56" height="56" filterUnits="userSpaceOnUse" color-interpolation-filters="sRGB">
<feFlood flood-opacity="0" result="BackgroundImageFix"/>
<feColorMatrix in="SourceAlpha" type="matrix" values="0 0 0 0 0 0 0 0 0 0 0 0 0 0 0 0 0 0 127 0" result="hardAlpha"/>
<feOffset dy="1"/>
<feGaussianBlur stdDeviation="2"/>
<feColorMatrix type="matrix" values="0 0 0 0 0.0666667 0 0 0 0 0.0941176 0 0 0 0 0.109804 0 0 0 0.16 0"/>
<feBlend mode="normal" in2="BackgroundImageFix" result="effect1_dropShadow_734_45319"/>
<feColorMatrix in="SourceAlpha" type="matrix" values="0 0 0 0 0 0 0 0 0 0 0 0 0 0 0 0 0 0 127 0" result="hardAlpha"/>
<feOffset/>
<feGaussianBlur stdDeviation="0.5"/>
<feComposite in2="hardAlpha" operator="out"/>
<feColorMatrix type="matrix" values="0 0 0 0 0.0666667 0 0 0 0 0.0941176 0 0 0 0 0.109804 0 0 0 0.16 0"/>
<feBlend mode="normal" in2="effect1_dropShadow_734_45319" result="effect2_dropShadow_734_45319"/>
<feBlend mode="normal" in="SourceGraphic" in2="effect2_dropShadow_734_45319" result="shape"/>
</filter>
<filter id="filter3_dd_734_45319" x="92" y="179" width="56" height="56" filterUnits="userSpaceOnUse" color-interpolation-filters="sRGB">
<feFlood flood-opacity="0" result="BackgroundImageFix"/>
<feColorMatrix in="SourceAlpha" type="matrix" values="0 0 0 0 0 0 0 0 0 0 0 0 0 0 0 0 0 0 127 0" result="hardAlpha"/>
<feOffset dy="1"/>
<feGaussianBlur stdDeviation="2"/>
<feColorMatrix type="matrix" values="0 0 0 0 0.0666667 0 0 0 0 0.0941176 0 0 0 0 0.109804 0 0 0 0.16 0"/>
<feBlend mode="normal" in2="BackgroundImageFix" result="effect1_dropShadow_734_45319"/>
<feColorMatrix in="SourceAlpha" type="matrix" values="0 0 0 0 0 0 0 0 0 0 0 0 0 0 0 0 0 0 127 0" result="hardAlpha"/>
<feOffset/>
<feGaussianBlur stdDeviation="0.5"/>
<feComposite in2="hardAlpha" operator="out"/>
<feColorMatrix type="matrix" values="0 0 0 0 0.0666667 0 0 0 0 0.0941176 0 0 0 0 0.109804 0 0 0 0.16 0"/>
<feBlend mode="normal" in2="effect1_dropShadow_734_45319" result="effect2_dropShadow_734_45319"/>
<feBlend mode="normal" in="SourceGraphic" in2="effect2_dropShadow_734_45319" result="shape"/>
</filter>
<radialGradient id="paint0_radial_734_45319" cx="0" cy="0" r="1" gradientUnits="userSpaceOnUse" gradientTransform="translate(174 150) rotate(90) scale(150 173.5)">
<stop stop-color="#D9D9D9"/>
<stop offset="1" stop-color="#D9D9D9" stop-opacity="0"/>
</radialGradient>
</defs>
</svg>
