<svg width="158" height="28" viewBox="0 0 158 28" fill="none" xmlns="http://www.w3.org/2000/svg">
<g clip-path="url(#clip0_1657_14090)">
<mask id="mask0_1657_14090" style="mask-type:luminance" maskUnits="userSpaceOnUse" x="0" y="0" width="158" height="28">
<path d="M157.642 0.09375H0.236328V27.7087H157.642V0.09375Z" fill="white"/>
</mask>
<g mask="url(#mask0_1657_14090)">
<path fill-rule="evenodd" clip-rule="evenodd" d="M134.322 11.9434C134.322 14.4851 141.835 12.9488 141.835 18.1158C141.835 20.9088 139.405 22.4173 136.389 22.4173C133.596 22.4173 131.585 21.1603 130.691 19.1492L133.289 17.641C133.736 18.898 134.853 19.6521 136.389 19.6521C137.729 19.6521 138.763 19.2051 138.763 18.0879C138.763 15.6022 131.25 16.9987 131.25 11.9993C131.25 9.37382 133.512 7.7259 136.361 7.7259C138.651 7.7259 140.55 8.78725 141.528 10.6307L138.986 12.055C138.484 10.9658 137.506 10.463 136.361 10.463C135.272 10.463 134.322 10.938 134.322 11.9434ZM42.0708 19.4565C43.7466 19.4565 45.1152 18.5906 45.7855 17.3058L48.3831 18.7862C47.2099 20.9927 44.836 22.4171 42.0989 22.4171C37.8812 22.4171 34.7252 19.2051 34.7252 15.0714C34.7252 10.91 37.8812 7.72575 42.0989 7.72575C44.836 7.72575 47.2099 9.1505 48.3272 11.329L45.7296 12.837C45.1152 11.5242 43.7466 10.6866 42.0708 10.6866C39.6129 10.6866 37.7417 12.5577 37.7417 15.0714C37.7417 17.5852 39.6129 19.4565 42.0708 19.4565ZM13.9895 0.09375C21.5853 0.09375 27.7427 6.25142 27.7427 13.8469C27.7427 21.4426 21.5853 27.5998 13.9895 27.5998C6.39401 27.5998 0.236328 21.4426 0.236328 13.8469C0.236328 6.25142 6.39401 0.09375 13.9895 0.09375ZM13.9803 24.5746C19.9051 24.5746 24.708 19.7717 24.708 13.8469C24.708 7.92213 19.9051 3.11919 13.9803 3.11919C8.05551 3.11919 3.25258 7.92213 3.25258 13.8469C3.25258 19.7717 8.05551 24.5746 13.9803 24.5746ZM13.6651 13.3326L19.3508 7.8513L20.692 9.1925L13.7744 17.3221L9.54935 12.7277L10.8905 11.3863L13.6651 13.3326ZM50.6257 22.054V2.50287H53.6422V22.054H50.6257ZM63.5295 7.72583C67.6352 7.72583 70.9032 10.91 70.9032 15.0714C70.9032 19.2051 67.6352 22.4171 63.5295 22.4171C59.4517 22.4171 56.1561 19.2051 56.1561 15.0714C56.1561 10.91 59.4517 7.72583 63.5295 7.72583ZM63.5295 19.4845C65.9875 19.4845 67.8867 17.6131 67.8867 15.0714C67.8867 12.5299 65.9875 10.6585 63.5295 10.6585C61.0715 10.6585 59.1723 12.5299 59.1723 15.0714C59.1723 17.6131 61.0715 19.4845 63.5295 19.4845ZM80.333 19.4565C82.0084 19.4565 83.3774 18.5906 84.0471 17.3058L86.6451 18.7862C85.4721 20.9927 83.0981 22.4171 80.361 22.4171C76.1428 22.4171 72.9871 19.2051 72.9871 15.0714C72.9871 10.91 76.1428 7.72575 80.361 7.72575C83.0981 7.72575 85.4721 9.1505 86.5891 11.329L83.9911 12.837C83.3766 11.5242 82.0084 10.6866 80.333 10.6866C77.875 10.6866 76.0036 12.5577 76.0036 15.0714C76.0036 17.5852 77.875 19.4565 80.333 19.4565ZM101.074 8.08899L95.3266 14.2826L101.297 22.0541H97.394L93.2765 16.4918L91.9688 17.9003V22.0541H88.9524V2.50299H91.9688V13.7733L97.3872 8.08899H101.074ZM116.905 17.7248L119.643 8.08907H122.826L118.441 22.0539H115.481L112.576 12.6416L109.644 22.0539H106.682L102.298 8.08907H105.481L108.191 17.7248L111.124 8.08907H114L116.905 17.7248ZM126.719 2.13997C127.781 2.13997 128.647 3.00593 128.647 4.06703C128.647 5.10052 127.781 5.99431 126.719 5.99431C125.658 5.99431 124.792 5.10052 124.792 4.06703C124.792 3.00593 125.658 2.13997 126.719 2.13997ZM125.211 22.054V8.08892H128.227V22.054H125.211ZM157.642 15.0714C157.642 15.3785 157.627 15.6801 157.596 15.9761L146.621 15.9767C146.787 17.9678 148.43 19.6521 150.711 19.6521C152.374 19.6521 153.371 19.0287 153.943 18.0258L157.243 18.0265C156.471 20.7866 153.868 22.4173 150.711 22.4173C146.634 22.4173 143.56 19.2051 143.56 15.0714C143.56 10.9101 146.634 7.7259 150.711 7.7259C154.817 7.7259 157.642 10.9101 157.642 15.0714ZM146.816 13.6311H154.408C154.242 11.8964 152.784 10.463 150.711 10.463C148.558 10.463 147.12 11.9701 146.816 13.6311Z" fill="white"/>
</g>
</g>
<defs>
<clipPath id="clip0_1657_14090">
<rect width="157.405" height="28" fill="white" transform="translate(0.236328)"/>
</clipPath>
</defs>
</svg>
