<svg width="126" height="28" viewBox="0 0 126 28" fill="none" xmlns="http://www.w3.org/2000/svg">
<g clip-path="url(#clip0_1657_14096)">
<path d="M0.818359 16.3613L12.2799 27.8229C6.42689 26.8335 1.80773 22.2144 0.818359 16.3613Z" fill="white"/>
<path d="M0.642578 13.2514L15.3921 28.0009C16.2693 27.954 17.125 27.8265 17.9521 27.6255L1.01795 10.6914C0.817 11.5185 0.689448 12.3742 0.642578 13.2514Z" fill="white"/>
<path d="M1.75195 8.48936L20.1531 26.8906C20.8233 26.6029 21.4666 26.2645 22.0781 25.8802L2.76236 6.56445C2.37801 7.1759 2.03959 7.81916 1.75195 8.48936Z" fill="white"/>
<path d="M4.00977 4.87581C6.57907 1.89041 10.3853 0 14.6331 0C22.3707 0 28.6432 6.27252 28.6432 14.0101C28.6432 18.2579 26.7528 22.0641 23.7674 24.6334L4.00977 4.87581Z" fill="white"/>
<path d="M49.2051 23.1875H61.0176V19.9844H53.1065V4.8125H49.2051V23.1875ZM63.6426 23.1875H67.5801V9.1875H63.6426V23.1875ZM65.3878 7.4375C66.5647 7.4375 67.5801 6.57873 67.5801 5.46417C67.5801 4.35876 66.5647 3.5 65.3878 3.5C64.2205 3.5 63.2051 4.35876 63.2051 5.46417C63.2051 6.57873 64.2205 7.4375 65.3878 7.4375ZM74.4597 15.1978C74.4685 13.4163 75.5258 12.3726 77.0669 12.3726C78.5992 12.3726 79.5221 13.3803 79.5131 15.0718V23.1875H83.3301V14.388C83.3301 11.1669 81.4485 9.1875 78.5812 9.1875C76.5383 9.1875 75.0599 10.1952 74.4417 11.8057H74.2804V9.36745H70.6426V23.1875H74.4597V15.1978ZM92.7636 23.1875C96.1724 23.1875 98.4539 21.5033 98.9906 18.909L95.4745 18.6723C95.0897 19.7374 94.0966 20.2927 92.8351 20.2927C90.9294 20.2927 89.7216 19.0091 89.7216 16.9245V16.9154H99.0801V15.8504C99.0801 11.0986 96.2528 8.75 92.6204 8.75C88.5764 8.75 85.9551 11.6721 85.9551 15.9869C85.9551 20.4201 88.5407 23.1875 92.7636 23.1875ZM89.8926 14.875C89.9632 13.1736 91.1447 11.8125 92.8113 11.8125C94.4337 11.8125 95.5624 13.0958 95.5801 14.875H89.8926ZM105.811 23.1875C107.833 23.1875 109.143 22.2857 109.811 20.9831H109.918V22.9233H113.518V13.4866C113.518 10.1527 110.729 8.75 107.771 8.75C104.404 8.75 102.274 10.3531 101.749 12.9036L105.259 13.1951C105.517 12.266 106.328 11.5828 107.691 11.5828C109.001 11.5828 109.713 12.2387 109.722 13.4137C109.731 14.3337 108.787 14.4703 106.408 14.7072C103.7 14.9622 101.268 15.8913 101.268 19.0156C101.268 21.7847 103.201 23.1875 105.811 23.1875ZM106.754 20.5625C105.598 20.5625 104.768 20.0252 104.768 18.9945C104.768 17.9375 105.642 17.4177 106.966 17.2328C107.787 17.1183 109.13 16.9245 109.58 16.625V18.0609C109.58 19.4791 108.406 20.5625 106.754 20.5625ZM116.143 23.1875H120.026V15.3788C120.034 13.6894 121.274 12.5302 122.842 12.5302C123.37 12.5302 123.799 12.674 124.163 12.8537L125.33 9.69072C124.82 9.3852 124.163 9.1875 123.416 9.1875C121.839 9.1875 120.563 10.0861 120.053 11.7934H119.907V9.3852H116.143V23.1875Z" fill="white"/>
</g>
<defs>
<clipPath id="clip0_1657_14096">
<rect width="124.688" height="28" fill="white" transform="translate(0.642578)"/>
</clipPath>
</defs>
</svg>
