<svg width="73" height="26" viewBox="0 0 73 26" fill="none" xmlns="http://www.w3.org/2000/svg">
<g clip-path="url(#clip0_1657_14126)">
<path d="M63.4021 7.44575C68.6701 7.44575 72.1504 11.1326 72.1504 16.7049C72.1504 22.2772 68.6582 26 63.4021 26C57.9314 26 54.2843 22.2772 54.2843 16.7049C54.2843 11.1326 57.9433 7.44575 63.4021 7.44575ZM35.3098 7.81798V25.6157L31.3767 24.7991V8.59863L35.3098 7.81798ZM51.0663 7.39772V11.5769L48.8017 11.9972C46.859 12.3695 45.5956 13.3903 45.5956 15.66V25.6157L41.6625 24.7991V15.0596C41.6625 10.2199 44.4753 8.79074 48.8017 7.78202L51.0663 7.39772ZM9.24375 7.44575C10.7931 7.44575 12.6763 8.31039 13.749 9.87162C14.8217 8.45448 16.6095 7.51776 18.8144 7.49378C21.5795 7.45774 25.024 9.21108 25.024 14.4711V25.6157L21.0909 24.7991V14.4711C21.0909 12.7058 19.8275 11.4448 17.9563 11.4448C16.0851 11.4448 14.8217 12.7058 14.8217 14.4711V25.6157L10.8885 24.7991V14.4711C10.8885 12.7058 9.62516 11.4448 7.75391 11.4448C5.85884 11.4448 4.58355 12.7058 4.58355 14.4711V25.6157L0.650391 24.7991V8.59863L4.58355 7.81798V9.65546C5.68006 8.2984 7.34868 7.44575 9.24375 7.44575ZM63.4021 11.2046C60.3509 11.2046 58.3009 13.3903 58.3009 16.7049C58.3009 20.0194 60.3509 22.2411 63.4021 22.2411C66.2506 22.2411 68.1338 20.0194 68.1338 16.7049C68.1338 13.3903 66.2506 11.2046 63.4021 11.2046ZM33.4267 0C34.8569 0 35.8104 1.00878 35.8104 2.52194C35.8104 4.03511 34.8569 5.04388 33.4267 5.04388C31.9368 5.04388 30.9476 4.03511 30.9476 2.52194C30.9476 1.00878 31.9368 0 33.4267 0Z" fill="white"/>
</g>
<defs>
<clipPath id="clip0_1657_14126">
<rect width="71.5" height="26" fill="white" transform="translate(0.650391)"/>
</clipPath>
</defs>
</svg>
