<svg width="88" height="40" viewBox="0 0 88 40" fill="none" xmlns="http://www.w3.org/2000/svg">
<path d="M30.9292 15.1506C29.7741 13.8825 28.3454 13.2441 26.6474 13.2441C25.6008 13.2441 24.6368 13.4439 23.7509 13.8478C22.865 14.2516 22.1007 14.7988 21.4536 15.498C20.8109 16.2015 20.3028 17.0179 19.9293 17.9646C19.5559 18.9069 19.3691 19.9275 19.3691 21.0305C19.3691 22.1118 19.5428 23.0976 19.8859 23.9878C20.2333 24.8737 20.7154 25.6337 21.3407 26.2677C21.966 26.9017 22.7086 27.3968 23.5685 27.7529C24.4283 28.109 25.3707 28.287 26.3955 28.287C26.8602 28.287 27.2901 28.2523 27.6809 28.1871C28.0718 28.122 28.4452 28.0134 28.8013 27.8658C29.1574 27.7138 29.5048 27.5227 29.8523 27.2926C30.1953 27.0581 30.5558 26.7628 30.9292 26.411V30.1761H30.9249V30.5408H26.1827L22.6174 34.5534V35.2439H35.9971V33.6154V13.6393H30.9292V15.1506ZM30.9162 22.051C30.7382 22.4505 30.5037 22.8023 30.217 23.1019C29.9261 23.4016 29.583 23.6317 29.1835 23.8011C28.784 23.9704 28.3584 24.053 27.9111 24.053C27.4421 24.053 27.0078 23.9704 26.6083 23.8011C26.2088 23.6317 25.8614 23.4016 25.5704 23.1019C25.2795 22.8023 25.0536 22.4505 24.8843 22.051C24.7149 21.6515 24.6324 21.2129 24.6324 20.7482C24.6324 20.3009 24.7193 19.8797 24.8973 19.4888C25.0754 19.098 25.3099 18.7593 25.6138 18.4683C25.9135 18.1774 26.2566 17.9472 26.6474 17.7692C27.0382 17.5911 27.4595 17.5043 27.9068 17.5043C28.3367 17.5043 28.7492 17.5868 29.1531 17.7561C29.5526 17.9212 29.9044 18.1557 30.204 18.4553C30.5037 18.7549 30.7382 19.098 30.9205 19.4888C31.0986 19.8797 31.1854 20.3096 31.1854 20.7786C31.1811 21.2259 31.0943 21.6515 30.9162 22.051Z" fill="white"/>
<path d="M16.7894 15.3862C16.5202 15.0691 16.2162 14.7956 15.8905 14.5524C15.5995 14.3396 15.2912 14.1528 14.9568 14.0009C14.7961 13.927 14.6268 13.8662 14.4487 13.8098C14.1925 13.7273 13.9146 13.6708 13.628 13.623H10.0149L7.62645 16.3459V16.0289V13.6795H2.55859V28.0449H7.62645V21.8827V18.3522H8.32995H9.74131H12.3252H12.386L12.7812 18.3435V28.0406H17.849V19.0557C17.849 18.2914 17.7752 17.6096 17.6275 17.0103C17.4799 16.4154 17.202 15.8769 16.7894 15.3862Z" fill="white"/>
<path d="M50.9013 13.6406H47.1449C47.1449 13.6406 45.803 13.6406 45.3731 13.6406L43.1757 16.1159V13.6406H38.1035V28.0061H43.1844L43.1887 18.3915H44.8563H46.8756L50.9013 13.8404V13.6406Z" fill="white"/>
<path d="M78.2857 20.2756L85.2165 13.8832V13.64H78.5375L73.2222 18.8208V4.76367H68.1543V28.0011H73.2222V22.1516L78.7937 28.0011H85.6334V27.7275L78.2857 20.2756Z" fill="white"/>
<path d="M64.1942 15.2763C63.4212 14.5946 62.5049 14.0648 61.4497 13.6826C60.3944 13.3005 59.2523 13.1094 58.019 13.1094C56.7683 13.1094 55.6132 13.3048 54.5623 13.6956C53.507 14.0865 52.5994 14.625 51.8307 15.3024C51.0664 15.9842 50.4672 16.7876 50.0372 17.7126C49.6073 18.6375 49.3945 19.632 49.3945 20.696C49.3945 21.8728 49.6073 22.9411 50.0372 23.9008C50.4672 24.8605 51.0578 25.6856 51.8177 26.3761C52.5733 27.0666 53.4723 27.6007 54.5188 27.9742C55.5654 28.3477 56.7032 28.5344 57.9365 28.5344C59.1872 28.5344 60.3467 28.3477 61.4236 27.9742C62.4963 27.6007 63.4169 27.0753 64.1812 26.3891C64.9455 25.7074 65.5491 24.8953 65.9877 23.9529C66.4263 23.0106 66.6478 21.9727 66.6478 20.8306C66.6478 19.6928 66.4307 18.6506 66.0051 17.7082C65.5708 16.7702 64.9672 15.9581 64.1942 15.2763ZM61.0285 22.0769C60.8504 22.4764 60.6159 22.8282 60.3293 23.1278C60.0383 23.4275 59.6953 23.6576 59.2957 23.827C58.8919 23.9964 58.4706 24.0789 58.0233 24.0789C57.5761 24.0789 57.1505 23.9964 56.7466 23.827C56.3471 23.6576 55.9997 23.4275 55.7131 23.1278C55.4221 22.8282 55.1919 22.4764 55.0139 22.0769C54.8359 21.6774 54.749 21.2344 54.749 20.7481C54.749 20.3008 54.8359 19.8795 55.0139 19.4887C55.1919 19.0979 55.4221 18.7548 55.7131 18.4552C56.004 18.1555 56.3471 17.921 56.7466 17.756C57.1505 17.5866 57.5717 17.5041 58.0233 17.5041C58.4706 17.5041 58.8962 17.5866 59.2957 17.756C59.6953 17.921 60.0427 18.1555 60.3293 18.4552C60.6202 18.7548 60.8504 19.1066 61.0285 19.5061C61.2065 19.9056 61.2934 20.3312 61.2934 20.7785C61.2934 21.2431 61.2065 21.6774 61.0285 22.0769Z" fill="white"/>
</svg>
