<svg width="175" height="24" viewBox="0 0 175 24" fill="none" xmlns="http://www.w3.org/2000/svg">
<path fill-rule="evenodd" clip-rule="evenodd" d="M50.8977 3.56055C46.2835 3.56055 42.5293 7.34272 42.5293 11.9914C42.5293 16.6401 46.2414 20.3815 50.8212 20.4236H50.8977C55.5133 20.4236 59.2674 16.6414 59.2674 11.9914C59.2674 7.34144 55.5133 3.56055 50.8977 3.56055ZM50.8977 17.0314C48.2561 17.0314 46.2421 14.7706 46.2421 11.9926C46.2421 9.21468 48.2574 6.95405 50.8977 6.95405C53.5381 6.95405 55.5534 9.21468 55.5534 11.9926C55.5534 14.7706 53.5394 17.0314 50.8977 17.0314Z" fill="white"/>
<path fill-rule="evenodd" clip-rule="evenodd" d="M138.974 7.80664C135.506 7.80664 132.684 10.6395 132.684 14.1209C132.684 17.6022 135.506 20.4351 138.974 20.4351C142.443 20.4351 145.265 17.6022 145.265 14.1209C145.265 10.6395 142.443 7.80664 138.974 7.80664ZM138.974 17.7342C137.081 17.7342 135.811 16.1865 135.811 14.1196C135.811 12.0526 137.082 10.5051 138.974 10.5051C140.868 10.5051 142.138 12.0526 142.138 14.1196C142.138 16.1865 140.868 17.7342 138.974 17.7342Z" fill="white"/>
<path fill-rule="evenodd" clip-rule="evenodd" d="M68.2639 7.87891C71.563 7.87891 74.0845 10.6025 74.0845 14.1479C74.0845 17.7167 71.563 20.4402 68.0047 20.4402C66.4153 20.4402 64.8261 19.8046 63.8099 18.6305V23.5864H60.3223V8.25458H63.6214V10.9586C64.5839 8.80864 66.2286 7.87891 68.2639 7.87891ZM63.8099 14.1479C63.7864 16.261 65.2946 17.8575 67.2741 17.8575C69.1593 17.8575 70.5497 16.2844 70.5497 14.1479C70.5497 12.0112 69.2536 10.4616 67.2741 10.4616C65.2946 10.4616 63.7864 12.0347 63.8099 14.1479Z" fill="white"/>
<path d="M96.6164 7.76367C99.7032 7.76367 101.589 9.94722 101.589 13.4926V20.1137H98.1247V13.7274C98.1247 11.5673 97.0881 10.3699 95.2493 10.3699C93.5763 10.3699 91.9975 11.849 91.9975 13.7274V20.1137H88.5098V8.20977H91.6676V10.9793C92.9341 8.73531 94.7343 7.76367 96.6164 7.76367Z" fill="white"/>
<path d="M131.497 13.4818C131.497 9.98345 129.588 7.79988 126.477 7.75292C124.91 7.73315 123.224 8.5296 121.859 10.3949V3.90234H118.395V20.103H121.859V13.7167C121.859 11.8383 123.461 10.3591 125.134 10.3591C126.996 10.3591 128.032 11.5566 128.032 13.7167V20.103H131.497V13.4818Z" fill="white"/>
<path d="M154.558 7.76367C157.645 7.76367 159.53 9.94722 159.53 13.4926V20.1137H156.066V13.7274C156.066 11.5673 155.029 10.3699 153.191 10.3699C151.518 10.3699 149.939 11.849 149.939 13.7274V20.1137H146.451V8.20977H149.609V10.9793C150.875 8.73531 152.676 7.76367 154.558 7.76367Z" fill="white"/>
<path fill-rule="evenodd" clip-rule="evenodd" d="M103.303 3.91406H111.998C115.038 3.91406 117.206 6.19153 117.206 9.38465C117.206 12.5778 115.038 14.8318 111.998 14.8318H106.955V20.1147H103.303V3.91406ZM111.032 12.0613C112.47 12.0613 113.388 11.0282 113.388 9.38465C113.388 7.76463 112.47 6.73155 111.032 6.73155H106.955V12.0613H111.032Z" fill="white"/>
<path fill-rule="evenodd" clip-rule="evenodd" d="M74.875 14.1209C74.875 10.6397 77.6973 7.80698 81.1657 7.80664C84.634 7.80696 87.4551 10.6397 87.4551 14.1209C87.4551 14.484 87.4244 14.8485 87.362 15.2053H85.1255V15.207H78.1443L78.1985 15.3722C78.5522 16.8657 79.7162 17.8699 81.1663 17.8699C82.2195 17.8699 83.1128 17.457 83.6245 16.7358H86.8905C85.8673 18.9887 83.641 20.4351 81.1663 20.4351C77.6976 20.4351 74.875 17.6022 74.875 14.1209ZM78.1773 12.9352L78.1935 12.8848C78.5406 11.3811 79.574 10.3718 81.1663 10.3718C82.7586 10.3718 83.7907 11.3824 84.1379 12.8848L84.154 12.9352H78.1773Z" fill="white"/>
<path fill-rule="evenodd" clip-rule="evenodd" d="M166.877 7.80664C163.408 7.80696 160.586 10.6397 160.586 14.1209C160.586 17.6022 163.409 20.4351 166.878 20.4351C169.352 20.4351 171.578 18.9887 172.602 16.7358H169.336C168.823 17.457 167.931 17.8699 166.878 17.8699C165.295 17.8699 164.263 16.8657 163.909 15.3722L163.855 15.207H170.837V15.2053H173.073C173.135 14.8485 173.166 14.484 173.166 14.1209C173.166 10.6397 170.345 7.80698 166.877 7.80664ZM163.904 12.8848L163.888 12.9352H169.865L169.849 12.8848C169.502 11.3824 168.47 10.3718 166.878 10.3718C165.285 10.3718 164.251 11.3811 163.904 12.8848Z" fill="white"/>
<path d="M22.3071 0C27.7029 0.00100992 32.4195 3.64085 33.7874 8.86036C35.1551 14.0799 32.8296 19.5651 28.1271 22.2111C23.4247 24.8571 17.5291 23.9977 13.7777 20.1194C17.1402 18.7594 19.3411 15.495 19.3411 11.868C19.3411 8.24084 17.1402 4.97653 13.7777 3.61652C15.9868 1.32752 19.0231 0.0252331 22.2012 0.00035573L22.3071 0ZM3.36026 6.46767C5.79374 3.27868 10.0595 2.1112 13.7777 3.61652C9.32692 8.21719 9.32692 15.5188 13.7777 20.1194C10.0595 21.6247 5.79374 20.4572 3.36026 17.2683C0.926787 14.0793 0.926787 9.65668 3.36026 6.46767Z" fill="white"/>
</svg>
