<svg width="129" height="32" viewBox="0 0 129 32" fill="none" xmlns="http://www.w3.org/2000/svg">
<g clip-path="url(#clip0_1657_14113)">
<path d="M54.2654 16.0025C54.2654 16.6003 54.2035 17.1736 54.0797 17.7222C53.9558 18.2646 53.7763 18.773 53.541 19.2477C53.3119 19.7223 53.0302 20.1599 52.6958 20.5606C52.3615 20.955 51.9808 21.3033 51.5535 21.6053L54.9619 25.3036H52.9002C52.603 25.3036 52.3337 25.2635 52.0922 25.1834C51.8569 25.1033 51.6402 24.9553 51.4421 24.7396L49.4732 22.5761C49.1574 22.6624 48.8324 22.7271 48.4981 22.7702C48.1699 22.8134 47.8263 22.835 47.4672 22.835C46.4517 22.835 45.523 22.6655 44.681 22.3265C43.8452 21.9813 43.127 21.5036 42.5264 20.8934C41.932 20.2832 41.4708 19.562 41.1426 18.7299C40.8145 17.8917 40.6504 16.9825 40.6504 16.0025C40.6504 15.0224 40.8145 14.1163 41.1426 13.2842C41.4708 12.4459 41.932 11.7217 42.5264 11.1115C43.127 10.5013 43.8452 10.0266 44.681 9.68768C45.523 9.34248 46.4517 9.16992 47.4672 9.16992C48.4825 9.16992 49.4082 9.34248 50.2441 9.68768C51.0799 10.0329 51.795 10.5106 52.3893 11.1207C52.9837 11.7248 53.445 12.4459 53.7732 13.2842C54.1014 14.1163 54.2654 15.0224 54.2654 16.0025ZM51.7022 16.0025C51.7022 15.269 51.6031 14.6125 51.4049 14.0331C51.213 13.4476 50.9344 12.9514 50.5691 12.5446C50.2038 12.1378 49.758 11.8265 49.2317 11.6108C48.7117 11.395 48.1235 11.2872 47.4672 11.2872C46.8109 11.2872 46.2196 11.395 45.6933 11.6108C45.167 11.8265 44.7181 12.1378 44.3467 12.5446C43.9814 12.9514 43.6997 13.4476 43.5016 14.0331C43.3034 14.6125 43.2044 15.269 43.2044 16.0025C43.2044 16.7359 43.3034 17.3954 43.5016 17.981C43.6997 18.5604 43.9814 19.0535 44.3467 19.4603C44.7181 19.861 45.167 20.1691 45.6933 20.3849C46.2196 20.6006 46.8109 20.7085 47.4672 20.7085C48.1235 20.7085 48.7117 20.6006 49.2317 20.3849C49.758 20.1691 50.2038 19.861 50.5691 19.4603C50.9344 19.0535 51.213 18.5604 51.4049 17.981C51.6031 17.3954 51.7022 16.7359 51.7022 16.0025Z" fill="white"/>
<path d="M57.4658 13.2012V19.2293C57.4658 19.8087 57.5989 20.2587 57.8652 20.5792C58.1376 20.8935 58.5432 21.0507 59.0818 21.0507C59.478 21.0507 59.8496 20.9645 60.1963 20.7918C60.543 20.6131 60.8711 20.3696 61.1807 20.0614V13.2012H63.4746V22.6872H62.0723C61.7751 22.6872 61.58 22.5485 61.4872 22.2711L61.3293 21.513C61.1312 21.7102 60.9268 21.8921 60.7164 22.0585C60.5058 22.2188 60.2798 22.3574 60.0384 22.4745C59.8031 22.5855 59.5461 22.6718 59.2676 22.7334C58.9951 22.8013 58.701 22.8351 58.3852 22.8351C57.8652 22.8351 57.4039 22.7489 57.0015 22.5762C56.6052 22.3975 56.2708 22.1479 55.9984 21.8273C55.726 21.5069 55.5186 21.1277 55.3762 20.6901C55.24 20.2464 55.1719 19.7594 55.1719 19.2293V13.2012H57.4658Z" fill="white"/>
<path d="M67.6243 13.1999V22.6859H65.3304V13.1999H67.6243ZM67.9679 10.4354C67.9679 10.6327 67.9277 10.8176 67.8472 10.9901C67.7667 11.1628 67.6583 11.3137 67.5222 11.4432C67.3921 11.5726 67.2374 11.6774 67.0578 11.7576C66.8782 11.8315 66.6863 11.8685 66.482 11.8685C66.2838 11.8685 66.095 11.8315 65.9154 11.7576C65.7421 11.6774 65.5904 11.5726 65.4604 11.4432C65.3304 11.3137 65.2251 11.1628 65.1446 10.9901C65.0703 10.8176 65.0332 10.6327 65.0332 10.4354C65.0332 10.232 65.0703 10.0409 65.1446 9.86221C65.2251 9.68341 65.3304 9.52933 65.4604 9.39989C65.5904 9.27045 65.7421 9.16877 65.9154 9.09477C66.095 9.01469 66.2838 8.97461 66.482 8.97461C66.6863 8.97461 66.8782 9.01469 67.0578 9.09477C67.2374 9.16877 67.3921 9.27045 67.5222 9.39989C67.6583 9.52933 67.7667 9.68341 67.8472 9.86221C67.9277 10.0409 67.9679 10.232 67.9679 10.4354Z" fill="white"/>
<path d="M76.1767 15.207C76.1086 15.2932 76.0405 15.3611 75.9724 15.4103C75.9105 15.4596 75.8176 15.4843 75.6938 15.4843C75.5762 15.4843 75.4616 15.4504 75.3502 15.3826C75.2387 15.3087 75.1056 15.2285 74.9508 15.1423C74.796 15.0498 74.6102 14.9696 74.3936 14.9019C74.183 14.8279 73.9199 14.7909 73.6042 14.7909C73.2017 14.7909 72.8488 14.8648 72.5454 15.0128C72.242 15.1546 71.9882 15.3611 71.7838 15.6323C71.5858 15.9035 71.4371 16.2332 71.3381 16.6215C71.239 17.0037 71.1895 17.4383 71.1895 17.9251C71.1895 18.4306 71.2421 18.8806 71.3474 19.2751C71.4588 19.6695 71.6167 20.0023 71.821 20.2735C72.0254 20.5386 72.273 20.742 72.564 20.8838C72.855 21.0194 73.1831 21.0871 73.5484 21.0871C73.9138 21.0871 74.2078 21.044 74.4307 20.9577C74.6598 20.8653 74.8518 20.7667 75.0066 20.6619C75.1613 20.5509 75.2944 20.4523 75.4058 20.366C75.5235 20.2735 75.6535 20.2273 75.7959 20.2273C75.9817 20.2273 76.121 20.2982 76.2138 20.44L76.8733 21.2721C76.6194 21.5679 76.3438 21.8176 76.0467 22.021C75.7495 22.2183 75.4399 22.3785 75.118 22.5018C74.8022 22.6189 74.4741 22.7021 74.1335 22.7514C73.793 22.8007 73.4555 22.8254 73.1212 22.8254C72.533 22.8254 71.9789 22.7175 71.4588 22.5018C70.9387 22.2799 70.4837 21.9594 70.0936 21.5402C69.7098 21.1211 69.4033 20.6095 69.1742 20.0055C68.9513 19.3952 68.8398 18.7018 68.8398 17.9251C68.8398 17.2287 68.9389 16.5846 69.137 15.9928C69.3414 15.3949 69.6386 14.8803 70.0286 14.4488C70.4186 14.0111 70.9016 13.6691 71.4774 13.4225C72.0532 13.176 72.7157 13.0527 73.4649 13.0527C74.1769 13.0527 74.7991 13.1667 75.3316 13.3948C75.8702 13.6228 76.3531 13.9495 76.7804 14.3748L76.1767 15.207Z" fill="white"/>
<path d="M79.9111 8.94727V16.8153H80.3384C80.4931 16.8153 80.6139 16.7937 80.7007 16.7506C80.7871 16.7074 80.8799 16.6273 80.9791 16.5102L83.3471 13.5978C83.4527 13.4745 83.5639 13.379 83.6815 13.3113C83.7991 13.2373 83.9543 13.2003 84.1463 13.2003H86.2447L83.2823 16.7229C83.1775 16.8523 83.0687 16.9725 82.9575 17.0834C82.8455 17.1882 82.7255 17.2807 82.5951 17.3608C82.7255 17.4533 82.8399 17.5612 82.9391 17.6844C83.0375 17.8077 83.1367 17.9402 83.2359 18.082L86.4119 22.6863H84.3415C84.1615 22.6863 84.0095 22.6555 83.8863 22.5938C83.7623 22.5322 83.6511 22.4274 83.5519 22.2795L81.1279 18.6829C81.0351 18.5412 80.9423 18.4487 80.8495 18.4056C80.7559 18.3625 80.6169 18.3409 80.4312 18.3409H79.9111V22.6863H77.6172V8.94727H79.9111Z" fill="white"/>
<path d="M88.5342 9.31641C88.6454 9.31641 88.739 9.32257 88.8126 9.33489C88.887 9.34105 88.9526 9.35953 89.0078 9.39041C89.0702 9.41505 89.1286 9.45513 89.1846 9.51057C89.2398 9.55985 89.3022 9.62769 89.3702 9.71401L96.419 18.6545C96.3942 18.4388 96.3758 18.2292 96.3638 18.0258C96.3574 17.8162 96.3542 17.6221 96.3542 17.4434V9.31641H98.555V22.6856H97.2646C97.0662 22.6856 96.9022 22.6548 96.7718 22.5931C96.6422 22.5315 96.515 22.4206 96.391 22.2603L89.3702 13.3567C89.3886 13.554 89.4014 13.7512 89.407 13.9485C89.4198 14.1395 89.4262 14.3152 89.4262 14.4754V22.6856H87.2246V9.31641H88.5342Z" fill="white"/>
<path d="M104.46 13.0527C105.172 13.0527 105.816 13.1667 106.392 13.3948C106.973 13.6228 107.469 13.9464 107.877 14.3656C108.286 14.7847 108.602 15.2963 108.824 15.9003C109.048 16.5044 109.159 17.1794 109.159 17.9251C109.159 18.6771 109.048 19.3551 108.824 19.9592C108.602 20.5632 108.286 21.0779 107.877 21.5032C107.469 21.9285 106.973 22.2552 106.392 22.4833C105.816 22.7113 105.172 22.8254 104.46 22.8254C103.748 22.8254 103.1 22.7113 102.519 22.4833C101.937 22.2552 101.438 21.9285 101.024 21.5032C100.615 21.0779 100.296 20.5632 100.067 19.9592C99.8444 19.3551 99.7324 18.6771 99.7324 17.9251C99.7324 17.1794 99.8444 16.5044 100.067 15.9003C100.296 15.2963 100.615 14.7847 101.024 14.3656C101.438 13.9464 101.937 13.6228 102.519 13.3948C103.1 13.1667 103.748 13.0527 104.46 13.0527ZM104.46 21.0687C105.252 21.0687 105.837 20.8036 106.215 20.2735C106.599 19.7435 106.791 18.9668 106.791 17.9436C106.791 16.9205 106.599 16.1407 106.215 15.6045C105.837 15.0683 105.252 14.8001 104.46 14.8001C103.655 14.8001 103.06 15.0713 102.676 15.6138C102.293 16.15 102.101 16.9267 102.101 17.9436C102.101 18.9607 102.293 19.7373 102.676 20.2735C103.06 20.8036 103.655 21.0687 104.46 21.0687Z" fill="white"/>
<path d="M116.912 22.6863C116.614 22.6863 116.419 22.5477 116.326 22.2702L116.14 21.3549C115.942 21.5769 115.735 21.7772 115.518 21.9559C115.301 22.1346 115.066 22.2888 114.812 22.4182C114.564 22.5477 114.296 22.6462 114.004 22.7141C113.72 22.788 113.41 22.825 113.076 22.825C112.556 22.825 112.079 22.7171 111.645 22.5014C111.212 22.2857 110.837 21.9744 110.522 21.5676C110.212 21.1546 109.971 20.6461 109.797 20.0421C109.63 19.438 109.547 18.7477 109.547 17.971C109.547 17.2684 109.643 16.615 109.835 16.0109C110.027 15.4069 110.302 14.883 110.661 14.4392C111.02 13.9954 111.451 13.6502 111.952 13.4037C112.453 13.1509 113.017 13.0246 113.642 13.0246C114.175 13.0246 114.63 13.1109 115.008 13.2835C115.385 13.4499 115.723 13.6749 116.02 13.9584V8.94727H118.314V22.6863H116.912ZM113.856 21.0129C114.332 21.0129 114.738 20.9142 115.072 20.717C115.407 20.5197 115.723 20.2393 116.02 19.8757V15.6226C115.76 15.3083 115.475 15.0864 115.165 14.9569C114.862 14.8275 114.534 14.7628 114.181 14.7628C113.834 14.7628 113.519 14.8275 113.234 14.9569C112.955 15.0864 112.716 15.2837 112.519 15.5487C112.327 15.8076 112.178 16.1404 112.072 16.5472C111.968 16.9478 111.915 17.4225 111.915 17.971C111.915 18.5257 111.958 18.9973 112.045 19.3856C112.138 19.7677 112.268 20.0821 112.435 20.3287C112.602 20.569 112.806 20.7447 113.048 20.8557C113.289 20.9605 113.559 21.0129 113.856 21.0129Z" fill="white"/>
<path d="M123.994 13.0527C124.595 13.0527 125.146 13.1483 125.647 13.3393C126.155 13.5304 126.592 13.8108 126.957 14.1807C127.322 14.5443 127.607 14.9943 127.811 15.5306C128.016 16.0607 128.118 16.6678 128.118 17.3519C128.118 17.5245 128.109 17.6694 128.09 17.7865C128.078 17.8975 128.05 17.9868 128.006 18.0546C127.97 18.1163 127.917 18.1625 127.849 18.1933C127.781 18.2179 127.694 18.2303 127.589 18.2303H121.701C121.769 19.2042 122.032 19.9191 122.49 20.3753C122.948 20.8314 123.554 21.0595 124.31 21.0595C124.682 21.0595 125.001 21.0163 125.266 20.93C125.539 20.8437 125.774 20.7482 125.973 20.6434C126.177 20.5386 126.354 20.4431 126.502 20.3567C126.657 20.2705 126.806 20.2273 126.948 20.2273C127.041 20.2273 127.121 20.2459 127.189 20.2828C127.258 20.3198 127.316 20.3722 127.366 20.44L128.034 21.2721C127.781 21.5679 127.496 21.8176 127.18 22.021C126.864 22.2183 126.533 22.3785 126.186 22.5018C125.846 22.6189 125.496 22.7021 125.137 22.7514C124.784 22.8007 124.44 22.8254 124.106 22.8254C123.443 22.8254 122.827 22.7175 122.258 22.5018C121.688 22.2799 121.193 21.9563 120.772 21.531C120.35 21.0995 120.019 20.5695 119.778 19.9407C119.537 19.3059 119.416 18.5723 119.416 17.7403C119.416 17.0931 119.521 16.4859 119.731 15.9188C119.942 15.3456 120.242 14.8495 120.633 14.4303C121.029 14.005 121.509 13.6691 122.072 13.4225C122.642 13.176 123.282 13.0527 123.994 13.0527ZM124.041 14.6892C123.372 14.6892 122.849 14.8772 122.471 15.2531C122.094 15.6291 121.852 16.1623 121.747 16.8527H126.056C126.056 16.5568 126.016 16.2795 125.935 16.0206C125.855 15.7555 125.731 15.5243 125.564 15.3271C125.397 15.1299 125.186 14.9758 124.932 14.8648C124.678 14.7478 124.382 14.6892 124.041 14.6892Z" fill="white"/>
<path fill-rule="evenodd" clip-rule="evenodd" d="M16.6504 26C19.3669 26 21.8303 24.9168 23.6326 23.1589C23.6819 23.1107 23.761 23.1107 23.8098 23.1595L27.9642 27.3137L32.276 31.6255C32.3693 31.7188 32.2732 31.8743 32.1481 31.8325L25.2668 29.5387C25.2312 29.5269 25.1921 29.5317 25.1603 29.5517C22.6954 31.1027 19.7777 32 16.6504 32C7.81383 32 0.650391 24.8366 0.650391 16C0.650391 7.16344 7.81383 0 16.6504 0C25.487 0 32.6504 7.16344 32.6504 16C32.6504 19.7743 31.3436 23.2432 29.1578 25.9792C29.1115 26.0371 29.0253 26.0415 28.9729 25.9891L20.5248 17.5411C20.4315 17.4478 20.5276 17.2923 20.6527 17.3341L26.0212 19.1236C26.0867 19.1454 26.1576 19.11 26.1786 19.0443C26.485 18.0844 26.6504 17.0615 26.6504 16C26.6504 10.4771 22.1733 6 16.6504 6C11.1275 6 6.65039 10.4771 6.65039 16C6.65039 21.5228 11.1275 26 16.6504 26Z" fill="white"/>
</g>
<defs>
<clipPath id="clip0_1657_14113">
<rect width="128" height="32" fill="white" transform="translate(0.650391)"/>
</clipPath>
</defs>
</svg>
