<svg width="112" height="28" viewBox="0 0 112 28" fill="none" xmlns="http://www.w3.org/2000/svg">
<g clip-path="url(#clip0_1657_14128)">
<mask id="mask0_1657_14128" style="mask-type:luminance" maskUnits="userSpaceOnUse" x="0" y="0" width="112" height="28">
<path d="M111.35 0H0.150391V28H111.35V0Z" fill="white"/>
</mask>
<g mask="url(#mask0_1657_14128)">
<path d="M36.0569 10.9494C36.0569 8.95232 34.1171 6.83128 30.7603 6.83128C26.9908 6.83128 22.8499 9.5996 22.217 15.1225C21.5705 20.7005 25.0373 23.1795 28.5317 23.1795C32.026 23.1795 33.8557 21.816 35.7267 19.998C34.1171 17.9734 32.0398 18.91 31.6408 19.1166C31.2006 19.337 30.6365 19.6399 29.4809 19.6399C28.1327 19.6399 26.757 19.0339 26.757 16.5135C35.3966 15.6596 36.0569 12.9464 36.0569 10.9494ZM31.7784 11.2799C31.7234 11.8997 31.4757 12.9602 27.1009 13.5524C28.0226 10.2745 29.7835 10.0266 30.5952 10.0266C31.3519 10.0266 31.8334 10.6188 31.7784 11.2799ZM17.1406 11.817C17.1406 11.817 15.2834 17.6566 15.1321 18.1387C15.077 17.6429 13.715 7.16183 13.715 7.16183C10.5509 7.16183 8.85871 9.42056 7.96452 11.8033C7.96452 11.8033 5.70833 17.6566 5.51573 18.1525C5.50197 17.698 5.17179 11.8721 5.17179 11.8721C4.97919 8.95232 2.31028 7.1756 0.150391 7.1756L2.76427 23.0556C6.07977 23.0418 7.86821 20.7969 8.80375 18.4142C8.80375 18.4142 10.7986 13.2494 10.881 13.0153C10.8948 13.2356 12.3118 23.0556 12.3118 23.0556C15.6411 23.0556 17.4295 20.9483 18.3926 18.6483L23.0562 7.1756C19.7682 7.1756 18.0349 9.42056 17.1406 11.817ZM48.2734 6.80374C46.2235 6.80374 44.6552 7.91933 43.3345 9.55832V9.54448L44.5176 0C41.7937 0 39.5787 2.36891 39.1522 5.89474L37.0886 22.9316C38.6569 22.9316 40.3216 22.4771 41.2158 21.3202C42.0138 22.3532 43.2106 23.1795 44.9854 23.1795C49.5802 23.1795 52.7306 17.8357 52.7306 12.8224C52.7032 8.24984 50.4882 6.80374 48.2734 6.80374ZM47.8469 14.9986C47.3654 17.7944 45.8108 19.695 44.3112 19.695C42.7979 19.695 42.1514 19.0202 42.1514 19.0202C42.4402 16.5686 42.6191 15.0674 43.1694 13.7727C43.7197 12.4781 45.0266 10.4122 46.3885 10.4122C47.723 10.4122 48.3283 12.1889 47.8469 14.9986ZM64.2042 7.1756H60.9988L61.0126 7.01033C61.2326 4.91687 61.7279 3.81505 63.365 3.63601C64.4794 3.52582 64.9746 2.94737 65.0985 2.31382C65.1948 1.818 65.4974 0.0964096 65.4974 0.0964096C59.059 0.055091 57.0367 2.83718 56.5139 7.07919L56.5002 7.1756H56.4313C55.3858 7.1756 54.2302 8.36008 54.0376 9.86128L53.9688 10.4122H56.115L54.3128 25.3143L53.7625 27.9862C53.8313 27.9862 53.9138 28 53.9826 28C56.9954 27.8898 58.9214 25.5071 59.3479 22.0502L60.7512 10.4122H61.7554C62.746 10.4122 63.9016 9.42056 64.1079 7.76783L64.2042 7.1756ZM80.8784 6.90014C77.1774 6.90014 73.683 9.62712 72.6099 13.9105C71.5369 18.1938 73.1602 23.2622 78.6081 23.2622C84.0424 23.2622 87.1792 17.9872 87.1792 13.5937C87.1792 9.22776 84.2208 6.90014 80.8784 6.90014ZM82.3776 14.8608C82.1848 16.8027 81.332 19.7502 78.9933 19.7502C76.6408 19.7502 76.971 16.307 77.2049 14.668C77.4525 12.9189 78.4293 10.426 80.5344 10.426C82.4192 10.426 82.5976 12.671 82.3776 14.8608ZM105.462 11.817C105.462 11.817 103.605 17.6566 103.454 18.1387C103.398 17.6429 102.037 7.16183 102.037 7.16183C98.8728 7.16183 97.1808 9.42056 96.2864 11.8033C96.2864 11.8033 94.0296 17.6566 93.8376 18.1525C93.824 17.698 93.4936 11.8721 93.4936 11.8721C93.3008 8.95232 90.632 7.1756 88.472 7.1756L91.072 23.0556C94.388 23.0418 96.176 20.7969 97.112 18.4142C97.112 18.4142 99.1064 13.2494 99.1752 13.0153C99.2024 13.2356 100.606 23.0556 100.606 23.0556C103.935 23.0556 105.724 20.9483 106.686 18.6483L111.35 7.1756C108.076 7.1756 106.342 9.42056 105.462 11.817ZM67.2308 0.0964096L64.5344 21.8711L63.9841 24.5568C64.0529 24.5568 64.1354 24.5706 64.2042 24.5706C67.107 24.5293 69.1706 21.9813 69.5558 18.7722L71.1104 6.28038C71.5781 2.46532 69.3082 0.0964096 67.2308 0.0964096Z" fill="white"/>
</g>
</g>
<defs>
<clipPath id="clip0_1657_14128">
<rect width="111.2" height="28" fill="white" transform="translate(0.150391)"/>
</clipPath>
</defs>
</svg>
