<svg width="631" height="357" viewBox="0 0 631 357" fill="none" xmlns="http://www.w3.org/2000/svg">
<mask id="mask0_2479_22672" style="mask-type:alpha" maskUnits="userSpaceOnUse" x="0" y="0" width="631" height="357">
<rect width="631" height="357" fill="url(#paint0_radial_2479_22672)"/>
</mask>
<g mask="url(#mask0_2479_22672)">
<rect x="96" width="1" height="357" fill="#BCDCDC"/>
<rect x="96" width="1" height="357" fill="#BCDCDC"/>
<rect x="356" width="1" height="357" fill="#BCDCDC"/>
<rect x="356" width="1" height="357" fill="#BCDCDC"/>
<rect x="474" width="1" height="357" fill="#BCDCDC"/>
<rect x="474" width="1" height="357" fill="#BCDCDC"/>
<rect x="534" width="1" height="357" fill="#BCDCDC"/>
<rect x="534" width="1" height="357" fill="#BCDCDC"/>
<rect width="631" height="1" transform="matrix(1 0 0 -1 0 73)" fill="#BCDCDC"/>
<rect width="631" height="1" transform="matrix(1 0 0 -1 0 73)" fill="#BCDCDC"/>
<rect width="631" height="1" transform="matrix(1 0 0 -1 0 163)" fill="#BCDCDC"/>
<rect width="631" height="1" transform="matrix(1 0 0 -1 0 163)" fill="#BCDCDC"/>
<rect width="631" height="1" transform="matrix(1 0 0 -1 0 325)" fill="#BCDCDC"/>
<rect width="631" height="1" transform="matrix(1 0 0 -1 0 325)" fill="#BCDCDC"/>
<rect width="631" height="1" transform="matrix(1 0 0 -1 0 349)" fill="#BCDCDC"/>
<rect width="631" height="1" transform="matrix(1 0 0 -1 0 349)" fill="#BCDCDC"/>
</g>
<defs>
<radialGradient id="paint0_radial_2479_22672" cx="0" cy="0" r="1" gradientUnits="userSpaceOnUse" gradientTransform="translate(316.215 158.785) rotate(90) scale(198.215 478.408)">
<stop stop-color="#D9D9D9"/>
<stop offset="1" stop-color="#D9D9D9" stop-opacity="0"/>
</radialGradient>
</defs>
</svg>
