<svg width="20" height="20" viewBox="0 0 20 20" fill="none" xmlns="http://www.w3.org/2000/svg">
<path d="M15.0775 14.0816C14.0571 14.898 12.6285 15.5102 11.2 15.5102C7.93465 15.5102 5.68975 13.0612 5.68975 9.79592C5.68975 6.53061 7.93465 4.28571 11.2 4.28571C12.6285 4.28571 14.0571 4.69387 15.0775 5.71428L15.6898 6.32653L18.9551 3.2653L18.1387 2.65306C16.302 1.0204 13.853 0 11.2 0C5.48567 0 1.19995 4.28571 1.19995 10C1.19995 15.7143 5.48567 20 11.2 20C13.853 20 16.302 18.9796 18.1387 17.3469L18.9551 16.7347L15.6898 13.4694L15.0775 14.0816Z" fill="#577578"/>
<path d="M10.9959 13.2655C12.7993 13.2655 14.2612 11.8036 14.2612 10.0002C14.2612 8.19679 12.7993 6.73486 10.9959 6.73486C9.19252 6.73486 7.73059 8.19679 7.73059 10.0002C7.73059 11.8036 9.19252 13.2655 10.9959 13.2655Z" fill="#577578"/>
</svg>
