<svg width="20" height="20" viewBox="0 0 20 20" fill="none" xmlns="http://www.w3.org/2000/svg">
<g clip-path="url(#clip0_1034_14415)">
<path fill-rule="evenodd" clip-rule="evenodd" d="M10 2.50016C5.8579 2.50016 2.50004 5.85803 2.50004 10.0002C2.50004 14.1423 5.8579 17.5002 10 17.5002C14.1422 17.5002 17.5 14.1423 17.5 10.0002C17.5 5.85803 14.1422 2.50016 10 2.50016ZM0.833374 10.0002C0.833374 4.93755 4.93743 0.833496 10 0.833496C15.0626 0.833496 19.1667 4.93755 19.1667 10.0002C19.1667 15.0628 15.0626 19.1668 10 19.1668C4.93743 19.1668 0.833374 15.0628 0.833374 10.0002Z" fill="#577578"/>
<path fill-rule="evenodd" clip-rule="evenodd" d="M6.64429 1.61712C7.01695 1.34705 7.53799 1.43021 7.80807 1.80288C9.13807 3.6381 10.182 5.201 11.0524 6.7872C12.737 6.08299 14.1236 5.08562 15.3083 3.70028C15.6074 3.3505 16.1335 3.30944 16.4832 3.60856C16.833 3.90768 16.8741 4.43372 16.575 4.7835C15.2207 6.36716 13.6487 7.48956 11.8138 8.27508C11.8679 8.38896 11.9213 8.5034 11.9741 8.6185C12.0987 8.89028 12.2196 9.1653 12.3372 9.44486C14.1038 9.19061 16.1551 9.31455 18.339 9.89484C18.7838 10.013 19.0485 10.4694 18.9303 10.9142C18.8122 11.359 18.3558 11.6238 17.911 11.5056C16.0721 11.017 14.3892 10.8964 12.9592 11.0468C13.552 12.7019 14.0792 14.5677 14.6349 16.8624C14.7432 17.3097 14.4684 17.7602 14.0211 17.8685C13.5738 17.9768 13.1234 17.702 13.015 17.2547C12.4389 14.8756 11.9032 13.0041 11.304 11.3711C11.1844 11.4069 11.0677 11.4451 10.954 11.4854C9.01389 12.1775 7.11578 13.6567 5.15692 16.4458C4.8924 16.8225 4.37265 16.9134 3.99602 16.6488C3.61939 16.3843 3.5285 15.8646 3.79301 15.4879C5.88386 12.5108 8.03548 10.7567 10.3951 9.9153L10.3962 9.9149C10.4909 9.88128 10.587 9.849 10.6843 9.8181C10.6106 9.64802 10.5356 9.47985 10.4591 9.3132C10.3877 9.15738 10.3149 9.00272 10.2407 8.8489C7.8761 9.57611 5.11978 9.87281 1.8949 9.94998C1.43479 9.96099 1.05288 9.59693 1.04187 9.13682C1.03086 8.67672 1.39492 8.2948 1.85503 8.28379C4.88217 8.21136 7.37126 7.94161 9.45515 7.34378C8.65858 5.92507 7.69683 4.48959 6.45853 2.7809C6.18846 2.40824 6.27162 1.88719 6.64429 1.61712Z" fill="#577578"/>
</g>
<defs>
<clipPath id="clip0_1034_14415">
<rect width="20" height="20" fill="white"/>
</clipPath>
</defs>
</svg>
