<svg width="20" height="20" viewBox="0 0 20 20" fill="none" xmlns="http://www.w3.org/2000/svg">
<path fill-rule="evenodd" clip-rule="evenodd" d="M8.82497 0H11.1738C12.849 0.00379146 13.2337 0.0185456 14.1226 0.059103C15.187 0.107653 15.914 0.276724 16.5501 0.523958C17.2077 0.77949 17.7654 1.12144 18.3214 1.6774C18.8774 2.2334 19.2193 2.79111 19.4749 3.44873C19.7221 4.08484 19.8912 4.81182 19.9397 5.87626C19.9868 6.90737 19.9991 7.25998 19.9999 9.7357V10.2633C19.9991 12.739 19.9868 13.0916 19.9397 14.1227C19.8912 15.1871 19.7221 15.9141 19.4749 16.5502C19.2193 17.2079 18.8774 17.7656 18.3214 18.3216C17.7654 18.8775 17.2077 19.2195 16.5501 19.475C15.914 19.7222 15.187 19.8913 14.1226 19.9399C13.0915 19.9869 12.7389 19.9992 10.2632 20H9.73558C7.25986 19.9992 6.90725 19.9869 5.87614 19.9399C4.8117 19.8913 4.08472 19.7222 3.44861 19.475C2.79099 19.2195 2.23328 18.8775 1.67728 18.3216C1.12132 17.7656 0.779368 17.2079 0.523836 16.5502C0.276601 15.9141 0.107531 15.1871 0.0589809 14.1227C0.0184235 13.2338 0.00366939 12.8492 -0.00012207 11.1739V8.82509C0.00366939 7.1498 0.0184235 6.76515 0.0589809 5.87626C0.107531 4.81182 0.276601 4.08484 0.523836 3.44873C0.779368 2.79111 1.12132 2.2334 1.67728 1.6774C2.23328 1.12144 2.79099 0.77949 3.44861 0.523958C4.08472 0.276724 4.8117 0.107653 5.87614 0.059103C6.76503 0.0185456 7.14968 0.00379146 8.82497 0H11.1738H8.82497ZM10.7329 1.80115H9.26582C7.25845 1.80323 6.90733 1.81583 5.95827 1.85913C4.98322 1.90359 4.4537 2.06651 4.10131 2.20346C3.63451 2.38488 3.30137 2.60159 2.95144 2.95156C2.60147 3.30149 2.38476 3.63463 2.20334 4.10143C2.06639 4.45382 1.90347 4.98335 1.85901 5.95839C1.81571 6.90746 1.80311 7.25857 1.80103 9.26594V10.733C1.80311 12.7404 1.81571 13.0915 1.85901 14.0406C1.90347 15.0156 2.06639 15.5451 2.20334 15.8975C2.38476 16.3643 2.60151 16.6975 2.95144 17.0474C3.30137 17.3974 3.63451 17.6141 4.10131 17.7955C4.4537 17.9324 4.98322 18.0954 5.95827 18.1398C7.01267 18.1879 7.3289 18.1981 9.99937 18.1981C12.6698 18.1981 12.9861 18.1879 14.0404 18.1398C15.0155 18.0954 15.545 17.9324 15.8974 17.7955C16.3642 17.6141 16.6973 17.3974 17.0473 17.0474C17.3972 16.6975 17.6139 16.3643 17.7954 15.8975C17.9323 15.5451 18.0952 15.0156 18.1397 14.0406C18.1878 12.986 18.198 12.6697 18.198 9.99949C18.198 7.32922 18.1878 7.01291 18.1397 5.95839C18.0952 4.98335 17.9323 4.45382 17.7954 4.10143C17.6139 3.63463 17.3972 3.30149 17.0473 2.95156C16.6973 2.60159 16.3642 2.38488 15.8974 2.20346C15.545 2.06651 15.0155 1.90359 14.0404 1.85913C13.0914 1.81583 12.7403 1.80323 10.7329 1.80115ZM9.99957 4.99939C12.7611 4.99939 14.9998 7.23807 14.9998 9.99969C14.9998 12.7613 12.7611 14.9999 9.99957 14.9999C7.23795 14.9999 4.99927 12.7613 4.99927 9.99969C4.99927 7.23807 7.23795 4.99939 9.99957 4.99939ZM9.99924 6.75354C8.2066 6.75354 6.75342 8.20673 6.75342 9.99936C6.75342 11.792 8.2066 13.2451 9.99924 13.2451C11.7918 13.2451 13.245 11.792 13.245 9.99936C13.245 8.20673 11.7918 6.75354 9.99924 6.75354ZM15.4162 3.33252C16.1066 3.33252 16.6663 3.89221 16.6663 4.58261C16.6663 5.27301 16.1066 5.83266 15.4162 5.83266C14.7258 5.83266 14.1661 5.27301 14.1661 4.58261C14.1661 3.89221 14.7258 3.33252 15.4162 3.33252Z" fill="#577578"/>
</svg>
