<svg width="20" height="20" viewBox="0 0 20 20" fill="none" xmlns="http://www.w3.org/2000/svg">
<path fill-rule="evenodd" clip-rule="evenodd" d="M17.4963 1C18.3268 1 19 1.67277 19 2.50371V17.4963C19 18.3268 18.3272 19 17.4963 19H2.50371C1.67323 19 1 18.3272 1 17.4963V2.50371C1 1.67323 1.67277 1 2.50371 1H17.4963ZM13.1666 7.75C11.8985 7.75 11.0279 8.30635 10.6345 8.95618L10.5622 9.08725V7.8625H8.12469V16.4875H10.7497V12.3096C10.7497 10.9094 11.2653 10.0188 12.5047 10.0188C13.3513 10.0188 13.7112 10.7602 13.7467 12.0837L13.7497 12.3096V16.4875H16.3747V11.7239C16.3747 9.15175 15.7593 7.75 13.1666 7.75ZM6.24969 7.75H3.62469V16.375H6.24969V7.75ZM4.9375 3.25C4.00563 3.25 3.25 4.00563 3.25 4.9375C3.25 5.86937 4.00563 6.625 4.9375 6.625C5.86937 6.625 6.625 5.86937 6.625 4.9375C6.625 4.00563 5.86937 3.25 4.9375 3.25Z" fill="#577578"/>
</svg>
