<svg width="20" height="20" viewBox="0 0 20 20" fill="none" xmlns="http://www.w3.org/2000/svg">
<path fill-rule="evenodd" clip-rule="evenodd" d="M2.91357 5.85614C2.9369 5.63937 2.84901 5.42555 2.6779 5.28006L0.935679 3.29612V3H6.34746L10.5303 11.6669L14.2077 3H19.3667V3.29612L17.8765 4.64593C17.7481 4.73852 17.6843 4.89062 17.7108 5.04125V14.9595C17.6843 15.1094 17.7481 15.2615 17.8765 15.3541L19.3317 16.7039V17H12.0112V16.7039L13.5193 15.321C13.6671 15.1814 13.6671 15.1402 13.6671 14.9264V6.90983L9.47568 16.9677H8.90946L4.0289 6.90983V13.6508C3.98846 13.9337 4.08801 14.2195 4.29879 14.4238L6.25957 16.6708V16.9677H0.700012V16.6708L2.66079 14.4238C2.87079 14.2188 2.96412 13.9315 2.91357 13.6508V5.85614Z" fill="#577578"/>
</svg>
