<svg width="131" height="28" viewBox="0 0 131 28" fill="none" xmlns="http://www.w3.org/2000/svg">
<path d="M6.60562 19.2394C4.93502 19.2394 3.95652 17.9743 3.95652 16.3988C3.95652 14.8234 4.93502 13.5821 6.60562 13.5821C7.77505 13.5821 8.68195 14.3221 8.87287 15.3724H12.5243C12.238 12.3886 9.77977 10.3118 6.58176 10.3118C2.95416 10.3118 0.257324 12.8899 0.257324 16.3988C0.257324 19.9317 2.95416 22.5097 6.58176 22.5097C9.77977 22.5097 12.238 20.4329 12.5243 17.4491H8.87287C8.68195 18.4994 7.77505 19.2394 6.60562 19.2394Z" fill="black"/>
<path d="M13.4825 5.25129V22.1994H17.3726V5.25129H13.4825Z" fill="black"/>
<path d="M21.2016 8.808C22.4426 8.808 23.4689 7.87705 23.4689 6.63578C23.4689 5.37065 22.4426 4.4397 21.2016 4.4397C19.9367 4.4397 18.9344 5.37065 18.9344 6.63578C18.9344 7.87705 19.9367 8.808 21.2016 8.808ZM19.2923 10.6222V22.1994H23.1586V10.6222H19.2923Z" fill="black"/>
<path d="M30.7921 19.2394C29.1215 19.2394 28.143 17.9743 28.143 16.3988C28.143 14.8234 29.1215 13.5821 30.7921 13.5821C31.9615 13.5821 32.8684 14.3221 33.0594 15.3724H36.7108C36.4244 12.3886 33.9663 10.3118 30.7682 10.3118C27.1406 10.3118 24.4438 12.8899 24.4438 16.3988C24.4438 19.9317 27.1406 22.5097 30.7682 22.5097C33.9663 22.5097 36.4244 20.4329 36.7108 17.4491H33.0594C32.8684 18.4994 31.9615 19.2394 30.7921 19.2394Z" fill="black"/>
<path d="M45.9266 22.1994H50.5565L45.7834 15.3485L50.1747 10.6222H45.5686L41.5591 14.9427V5.25129H37.669V22.1994H41.5591V19.9078L43.1581 18.1891L45.9266 22.1994Z" fill="black"/>
<path d="M65.1065 10.3118C63.6029 10.3118 62.4096 10.7654 61.2641 11.7441C60.4288 10.7893 59.2116 10.3118 57.7319 10.3118C56.4432 10.3118 55.5601 10.6938 54.7487 11.3383V10.6222H50.8586V22.1994H54.7487V14.7995C55.3215 14.1073 55.9897 13.8208 56.7534 13.8208C57.7319 13.8208 58.5434 14.2743 58.5434 15.8498V22.1994H62.4096V15.3724C62.4096 15.1337 62.4096 14.9189 62.3858 14.704C62.9824 14.0356 63.6029 13.8208 64.295 13.8208C65.3928 13.8208 66.2043 14.3937 66.2043 15.9692V22.1994H70.0705V15.4917C70.0705 12.1499 68.1135 10.3118 65.1065 10.3118Z" fill="#5FAC5A"/>
<path d="M79.8837 10.6222V11.2189C79.0245 10.646 77.9983 10.3118 76.7095 10.3118C73.5831 10.3118 70.9579 12.9376 70.9579 16.3988C70.9579 19.8362 73.5831 22.5097 76.7095 22.5097C77.9983 22.5097 79.0245 22.1516 79.8837 21.5787V22.1994H83.7499V10.6222H79.8837ZM77.4971 19.2155C75.9219 19.2155 74.7525 17.9981 74.7525 16.3988C74.7525 14.7995 75.9219 13.5821 77.4971 13.5821C78.3324 13.5821 79.1438 13.7969 79.8837 14.6085V18.1891C79.1438 19.0007 78.3324 19.2155 77.4971 19.2155Z" fill="#5FAC5A"/>
<path d="M93.7025 10.6222V11.1951C92.8433 10.646 91.8171 10.3118 90.5284 10.3118C87.4019 10.3118 84.7767 12.675 84.7767 16.2079C84.7767 19.3349 87.4019 21.7936 90.5284 21.7936C91.8171 21.7936 92.8433 21.4832 93.7025 20.9581V22.3426C93.7025 23.918 92.6763 24.7296 91.3637 24.7296C89.9317 24.7296 89.1203 24.0613 88.9294 22.9871H85.1108C85.3018 25.9948 87.8554 27.9999 91.3637 27.9999C94.9913 27.9999 97.5688 25.8993 97.5688 22.271V10.6222H93.7025ZM91.3159 18.7143C89.7408 18.7143 88.5714 17.473 88.5714 16.2079C88.5714 14.5369 89.7408 13.4866 91.3159 13.4866C92.1512 13.4866 92.9627 13.7253 93.7025 14.5608V17.6162C92.9627 18.4517 92.1512 18.7143 91.3159 18.7143Z" fill="#5FAC5A"/>
<path d="M101.388 8.808C102.629 8.808 103.655 7.87705 103.655 6.63578C103.655 5.37065 102.629 4.4397 101.388 4.4397C100.123 4.4397 99.1206 5.37065 99.1206 6.63578C99.1206 7.87705 100.123 8.808 101.388 8.808ZM99.4786 10.6222V22.1994H103.345V10.6222H99.4786Z" fill="#5FAC5A"/>
<path d="M110.978 19.2394C109.308 19.2394 108.329 17.9743 108.329 16.3988C108.329 14.8234 109.308 13.5821 110.978 13.5821C112.148 13.5821 113.055 14.3221 113.246 15.3724H116.897C116.611 12.3886 114.152 10.3118 110.954 10.3118C107.327 10.3118 104.63 12.8899 104.63 16.3988C104.63 19.9317 107.327 22.5097 110.954 22.5097C114.152 22.5097 116.611 20.4329 116.897 17.4491H113.246C113.055 18.4994 112.148 19.2394 110.978 19.2394Z" fill="#5FAC5A"/>
<path d="M126.113 22.1994H130.743L125.97 15.3485L130.361 10.6222H125.755L121.745 14.9427V5.25129H117.855V22.1994H121.745V19.9078L123.344 18.1891L126.113 22.1994Z" fill="#5FAC5A"/>
<path fill-rule="evenodd" clip-rule="evenodd" d="M94.8597 3.01514C95.1345 4.31212 96.1556 5.33343 97.4524 5.60832C96.1556 5.88322 95.1345 6.90452 94.8597 8.20151C94.587 6.91468 93.5796 5.89922 92.2974 5.61492V5.60173C93.5796 5.31742 94.587 4.30197 94.8597 3.01514Z" fill="#5FAC5A"/>
<path fill-rule="evenodd" clip-rule="evenodd" d="M105.082 0.120361C105.291 1.10736 106.068 1.88456 107.055 2.09374C106.068 2.30292 105.291 3.08012 105.082 4.06712C104.874 3.08786 104.108 2.31512 103.132 2.09876V2.08872C104.108 1.87236 104.874 1.09962 105.082 0.120361Z" fill="#5FAC5A"/>
<path fill-rule="evenodd" clip-rule="evenodd" d="M109.711 0C109.883 0.810416 110.521 1.44857 111.331 1.62035C110.521 1.79214 109.883 2.43029 109.711 3.24071C109.541 2.43662 108.912 1.80212 108.11 1.62447V1.61624C108.912 1.43859 109.541 0.804083 109.711 0Z" fill="#5FAC5A"/>
<path fill-rule="evenodd" clip-rule="evenodd" d="M107.736 3.52905C107.884 4.22896 108.435 4.78008 109.135 4.92841C108.435 5.07674 107.884 5.62787 107.736 6.32777C107.589 5.63336 107.045 5.0854 106.353 4.93198V4.92485C107.045 4.77143 107.589 4.22347 107.736 3.52905Z" fill="#5FAC5A"/>
</svg>
