<svg width="116" height="18" viewBox="0 0 116 18" fill="none" xmlns="http://www.w3.org/2000/svg">
<path fill-rule="evenodd" clip-rule="evenodd" d="M5.3051 0.402376L0.82568 9.56945C0.592835 10.046 0.939781 10.6016 1.47014 10.6016H4.20661L1.7608 17.0224C1.47543 17.7715 2.44707 18.3533 2.97269 17.748L11.2448 8.22185C11.6481 7.7575 11.3182 7.03427 10.7032 7.03427H7.32482L10.7192 1.07218C10.9915 0.593999 10.6462 0 10.0959 0H5.94956C5.67551 0 5.42541 0.156151 5.3051 0.402376ZM29.4825 16.3912V1.40625H32.358V16.3912H29.4825ZM23.9882 16.5938C22.9622 16.5938 22.0442 16.3507 21.2342 15.8647C20.4242 15.3787 19.7829 14.7172 19.3104 13.8802C18.8514 13.0297 18.6219 12.0848 18.6219 11.0453C18.6219 9.97875 18.8514 9.027 19.3104 8.19C19.7829 7.3395 20.4242 6.67125 21.2342 6.18525C22.0442 5.69925 22.9622 5.45625 23.9882 5.45625C24.9467 5.45625 25.8174 5.6385 26.6004 6.003C27.3969 6.354 28.0179 6.84 28.4634 7.461L26.9042 9.3645C26.7152 9.108 26.4789 8.87175 26.1954 8.65575C25.9119 8.43975 25.6014 8.271 25.2639 8.1495C24.9399 8.028 24.6024 7.96725 24.2514 7.96725C23.6979 7.96725 23.2052 8.10225 22.7732 8.37225C22.3412 8.62875 22.0037 8.99325 21.7607 9.46575C21.5177 9.92475 21.3962 10.4445 21.3962 11.025C21.3962 11.592 21.5244 12.105 21.7809 12.564C22.0374 13.023 22.3817 13.3875 22.8137 13.6575C23.2457 13.9275 23.7249 14.0625 24.2514 14.0625C24.6024 14.0625 24.9332 14.0153 25.2437 13.9208C25.5677 13.8128 25.8647 13.6575 26.1347 13.455C26.4047 13.2525 26.6612 13.0162 26.9042 12.7463L28.4634 14.6497C28.0179 15.2302 27.3834 15.7027 26.5599 16.0672C25.7499 16.4182 24.8927 16.5938 23.9882 16.5938ZM36.2602 15.885C37.1242 16.3575 38.0962 16.5938 39.1762 16.5938C40.2697 16.5938 41.2417 16.3575 42.0922 15.885C42.9427 15.399 43.611 14.7375 44.097 13.9005C44.5965 13.0635 44.8462 12.1117 44.8462 11.0453C44.8462 9.95175 44.5965 8.9865 44.097 8.1495C43.611 7.3125 42.9427 6.65775 42.0922 6.18525C41.2417 5.69925 40.2697 5.45625 39.1762 5.45625C38.0962 5.45625 37.1242 5.69925 36.2602 6.18525C35.4097 6.65775 34.7347 7.3125 34.2352 8.1495C33.7492 8.9865 33.5062 9.95175 33.5062 11.0453C33.5062 12.1117 33.7492 13.0635 34.2352 13.9005C34.7347 14.7375 35.4097 15.399 36.2602 15.885ZM40.5937 13.698C40.1887 13.968 39.7162 14.103 39.1762 14.103C38.6497 14.103 38.1772 13.968 37.7587 13.698C37.3402 13.428 37.0095 13.0635 36.7665 12.6045C36.5235 12.1455 36.4087 11.6258 36.4222 11.0453C36.4087 10.4378 36.5235 9.9045 36.7665 9.4455C37.0095 8.9865 37.3402 8.622 37.7587 8.352C38.1772 8.082 38.6497 7.947 39.1762 7.947C39.7162 7.947 40.1887 8.082 40.5937 8.352C41.0122 8.6085 41.3362 8.973 41.5657 9.4455C41.8087 9.9045 41.9235 10.4378 41.91 11.0453C41.9235 11.6258 41.8087 12.1455 41.5657 12.6045C41.3362 13.0635 41.0122 13.428 40.5937 13.698ZM49.8514 16.5938C49.0819 16.5938 48.4136 16.425 47.8466 16.0875C47.2796 15.7365 46.8409 15.2437 46.5304 14.6093C46.2334 13.9612 46.0849 13.1917 46.0849 12.3007V5.679H48.9604V11.7742C48.9604 12.5302 49.1359 13.1242 49.4869 13.5562C49.8514 13.9747 50.3509 14.184 50.9854 14.184C51.3094 14.184 51.5996 14.1368 51.8561 14.0423C52.1261 13.9343 52.3556 13.7858 52.5446 13.5967C52.7336 13.4078 52.8821 13.185 52.9901 12.9285C53.0981 12.672 53.1521 12.3885 53.1521 12.078V5.679H56.0276V16.3912H53.2939L53.2394 14.9059C53.1411 15.0411 53.031 15.1717 52.9091 15.2977C52.5311 15.7027 52.0789 16.02 51.5524 16.2495C51.0259 16.479 50.4589 16.5938 49.8514 16.5938ZM59.758 15.885C60.514 16.3575 61.3578 16.5938 62.2893 16.5938C62.7888 16.5938 63.2613 16.5262 63.7068 16.3912C64.1658 16.2428 64.5708 16.047 64.9218 15.804C65.202 15.6068 65.4384 15.3935 65.6309 15.1644L65.6913 16.3912H68.4048V1.40625H65.5495V6.83182C65.3833 6.65215 65.1943 6.48388 64.9825 6.327C64.618 6.057 64.1995 5.84775 63.727 5.69925C63.268 5.53725 62.7888 5.45625 62.2893 5.45625C61.3443 5.45625 60.5005 5.69925 59.758 6.18525C59.0155 6.67125 58.4283 7.33275 57.9963 8.16975C57.5778 9.00675 57.3685 9.96525 57.3685 11.0453C57.3685 12.1117 57.5778 13.0703 57.9963 13.9208C58.4283 14.7578 59.0155 15.4125 59.758 15.885ZM64.3345 13.7992C63.943 14.0693 63.4705 14.2042 62.917 14.2042C62.3905 14.2042 61.9248 14.0693 61.5198 13.7992C61.1148 13.5293 60.7975 13.158 60.568 12.6855C60.352 12.213 60.244 11.6663 60.244 11.0453C60.244 10.4108 60.352 9.85725 60.568 9.38475C60.7975 8.89875 61.1148 8.5275 61.5198 8.271C61.9248 8.001 62.3905 7.866 62.917 7.866C63.4705 7.866 63.943 8.001 64.3345 8.271C64.7395 8.5275 65.0568 8.89875 65.2863 9.38475C65.5158 9.85725 65.6305 10.4108 65.6305 11.0453C65.6305 11.6663 65.5158 12.213 65.2863 12.6855C65.0568 13.158 64.7395 13.5293 64.3345 13.7992ZM73.9491 16.5938C72.9636 16.5938 72.0793 16.4317 71.2963 16.1077C70.5268 15.7837 69.8991 15.3247 69.4131 14.7308L71.2153 13.1917C71.6338 13.6372 72.0929 13.9612 72.5923 14.1637C73.1053 14.3527 73.6251 14.4472 74.1516 14.4472C74.3406 14.4472 74.5161 14.427 74.6781 14.3865C74.8401 14.3325 74.9818 14.265 75.1033 14.184C75.2249 14.0895 75.3126 13.9815 75.3666 13.86C75.4341 13.7385 75.4678 13.5967 75.4678 13.4347C75.4678 13.1377 75.3463 12.9082 75.1033 12.7463C74.9953 12.6652 74.7928 12.5775 74.4958 12.483C74.2123 12.375 73.8479 12.2603 73.4023 12.1388C72.7138 11.9633 72.1333 11.7608 71.6608 11.5312C71.1883 11.2882 70.8036 11.0115 70.5066 10.701C70.2636 10.4445 70.0746 10.1475 69.9396 9.81C69.8181 9.4725 69.7573 9.10125 69.7573 8.69625C69.7573 8.04825 69.9463 7.48125 70.3243 6.99525C70.7023 6.50925 71.2018 6.13125 71.8228 5.86125C72.4573 5.59125 73.1458 5.45625 73.8884 5.45625C74.4418 5.45625 74.9751 5.52375 75.4881 5.65875C76.0146 5.79375 76.5006 5.9895 76.9461 6.246C77.4051 6.489 77.8033 6.77925 78.1408 7.11675L76.6019 8.838C76.3588 8.595 76.0821 8.38575 75.7716 8.21025C75.4611 8.02125 75.1506 7.87275 74.8401 7.76475C74.5296 7.64325 74.2461 7.5825 73.9896 7.5825C73.7601 7.5825 73.5508 7.60275 73.3618 7.64325C73.1863 7.68375 73.0378 7.75125 72.9164 7.84575C72.7948 7.92675 72.7003 8.028 72.6328 8.1495C72.5788 8.271 72.5518 8.406 72.5518 8.5545C72.5518 8.703 72.5856 8.84475 72.6531 8.97975C72.7341 9.10125 72.8421 9.216 72.9771 9.324C73.1121 9.405 73.3281 9.4995 73.6251 9.6075C73.9356 9.7155 74.3338 9.837 74.8198 9.972C75.4678 10.1475 76.0146 10.3432 76.4601 10.5592C76.9056 10.7752 77.2633 11.025 77.5333 11.3085C77.7763 11.5515 77.9451 11.835 78.0396 12.159C78.1476 12.4695 78.2016 12.807 78.2016 13.1715C78.2016 13.833 78.0126 14.427 77.6346 14.9535C77.2701 15.4665 76.7638 15.8715 76.1158 16.1685C75.4813 16.452 74.7591 16.5938 73.9491 16.5938ZM80.4608 8.25075V16.3912H83.3363V8.25075H85.5436V5.679H83.3363V2.9655H80.4608V5.679H78.4561V8.25075H80.4608ZM91.4162 16.5938C90.3362 16.5938 89.3642 16.3575 88.5002 15.885C87.6497 15.399 86.9747 14.7375 86.4752 13.9005C85.9892 13.0635 85.7462 12.1117 85.7462 11.0453C85.7462 9.95175 85.9892 8.9865 86.4752 8.1495C86.9747 7.3125 87.6497 6.65775 88.5002 6.18525C89.3642 5.69925 90.3362 5.45625 91.4162 5.45625C92.5097 5.45625 93.4817 5.69925 94.3322 6.18525C95.1827 6.65775 95.8509 7.3125 96.3369 8.1495C96.8364 8.9865 97.0862 9.95175 97.0862 11.0453C97.0862 12.1117 96.8364 13.0635 96.3369 13.9005C95.8509 14.7375 95.1827 15.399 94.3322 15.885C93.4817 16.3575 92.5097 16.5938 91.4162 16.5938ZM91.4162 14.103C91.9562 14.103 92.4287 13.968 92.8337 13.698C93.2522 13.428 93.5762 13.0635 93.8057 12.6045C94.0487 12.1455 94.1634 11.6258 94.1499 11.0453C94.1634 10.4378 94.0487 9.9045 93.8057 9.4455C93.5762 8.973 93.2522 8.6085 92.8337 8.352C92.4287 8.082 91.9562 7.947 91.4162 7.947C90.8897 7.947 90.4172 8.082 89.9987 8.352C89.5802 8.622 89.2495 8.9865 89.0064 9.4455C88.7634 9.9045 88.6487 10.4378 88.6622 11.0453C88.6487 11.6258 88.7634 12.1455 89.0064 12.6045C89.2495 13.0635 89.5802 13.428 89.9987 13.698C90.4172 13.968 90.8897 14.103 91.4162 14.103ZM98.4059 5.679V16.3912H101.302V10.863C101.302 10.512 101.356 10.1947 101.464 9.91125C101.585 9.62775 101.747 9.38475 101.95 9.18225C102.166 8.96625 102.409 8.80425 102.679 8.69625C102.962 8.57475 103.259 8.514 103.57 8.514C103.813 8.514 104.049 8.54775 104.278 8.61525C104.521 8.66925 104.717 8.73 104.866 8.7975L105.635 5.65875C105.487 5.59125 105.304 5.544 105.088 5.517C104.886 5.4765 104.663 5.45625 104.42 5.45625C103.88 5.45625 103.36 5.59125 102.861 5.86125C102.375 6.11775 101.95 6.46875 101.585 6.91425C101.455 7.07908 101.337 7.25037 101.232 7.42814L101.18 5.679H98.4059ZM111.069 16.5938C109.908 16.5938 108.889 16.3575 108.011 15.885C107.147 15.4125 106.472 14.7645 105.986 13.941C105.514 13.1175 105.278 12.1792 105.278 11.1262C105.278 10.2892 105.413 9.5265 105.683 8.838C105.953 8.136 106.331 7.53525 106.817 7.03575C107.303 6.53625 107.876 6.1515 108.538 5.8815C109.213 5.598 109.949 5.45625 110.745 5.45625C111.474 5.45625 112.142 5.59125 112.75 5.86125C113.371 6.11775 113.904 6.489 114.35 6.975C114.809 7.4475 115.16 8.00775 115.403 8.65575C115.646 9.30375 115.76 10.0125 115.747 10.782L115.727 11.673H108.085C108.151 12.0013 108.261 12.305 108.416 12.5843C108.686 13.0568 109.071 13.4213 109.571 13.6778C110.084 13.9343 110.684 14.0625 111.373 14.0625C111.845 14.0625 112.277 13.9882 112.669 13.8398C113.06 13.6912 113.486 13.4348 113.945 13.0702L115.301 14.994C114.923 15.3315 114.498 15.6217 114.026 15.8647C113.553 16.1077 113.067 16.29 112.568 16.4115C112.068 16.533 111.569 16.5938 111.069 16.5938ZM108.315 9.2835C108.229 9.4666 108.162 9.6691 108.112 9.891H113.013V9.83025C112.986 9.45225 112.865 9.1215 112.649 8.838C112.446 8.5545 112.183 8.33175 111.859 8.16975C111.535 7.99425 111.177 7.9065 110.786 7.9065C110.178 7.9065 109.665 8.028 109.247 8.271C108.842 8.5005 108.531 8.838 108.315 9.2835Z" fill="#1069BD"/>
</svg>
