<svg width="100" height="28" viewBox="0 0 100 28" fill="none" xmlns="http://www.w3.org/2000/svg">
<path fill-rule="evenodd" clip-rule="evenodd" d="M29.3407 13.9116C29.3407 21.5904 23.1158 27.8154 15.437 27.8154C12.3354 27.8154 9.471 26.7999 7.15823 25.0829C7.55409 25.305 7.9626 25.5066 8.38228 25.6864C9.97297 26.3722 11.6868 26.7263 13.4191 26.727C16.6453 26.7258 19.7523 25.5071 22.1189 23.3143C24.4854 21.1215 25.9372 18.1164 26.1842 14.8996C26.2189 14.5965 26.238 14.2919 26.2414 13.9868C26.2414 13.5991 26.209 13.1485 26.1697 12.7399C26.166 12.7009 26.1648 12.6613 26.1636 12.6217C26.1622 12.5759 26.1607 12.5302 26.1557 12.4854L26.1446 12.4965C26.0876 11.9636 26.0265 11.5519 26.0265 11.5519H15.9366L15.1528 13.0186L13.3511 16.4218H20.9747C20.6926 17.2653 20.2711 18.0555 19.7277 18.7597C18.9868 19.7295 18.0321 20.5154 16.9379 21.0563C15.8438 21.5971 14.6397 21.8783 13.4191 21.8779C12.4846 21.8761 11.5578 21.7091 10.6814 21.3848C9.14929 20.8248 7.82617 19.8076 6.89107 18.471C5.95594 17.1344 5.45397 15.5428 5.453 13.9115C5.453 12.8654 5.65902 11.8295 6.05935 10.863C6.45967 9.89642 7.04644 9.01824 7.78617 8.27848C8.52588 7.53872 9.40407 6.95191 10.3706 6.55156C11.3371 6.1512 12.373 5.94514 13.4191 5.94511C15.1075 5.9426 16.7525 6.47895 18.115 7.47609L19.1608 5.51937L20.4063 3.16662C18.3281 1.8116 15.9 1.09202 13.4191 1.09599C11.2262 1.0967 9.08801 1.65987 7.19986 2.70935C9.50535 1.01125 12.354 0.0078125 15.437 0.0078125C23.1158 0.0078125 29.3407 6.23274 29.3407 13.9116Z" fill="#FF5700"/>
<path d="M48.4154 16.9819C47.9191 17.5783 47.2947 18.0547 46.5882 18.3756C45.957 18.6531 45.2739 18.7937 44.5843 18.7881C43.703 18.8037 42.8328 18.5899 42.0592 18.1676C42.0312 18.152 42.0075 18.1322 41.98 18.1162C41.2873 17.7167 40.7164 17.1363 40.3285 16.437C39.9063 15.6634 39.6925 14.7933 39.7081 13.912C39.6927 13.0308 39.9066 12.1607 40.3285 11.387C40.7164 10.6879 41.287 10.1075 41.9798 9.70807C42.0073 9.69194 42.0312 9.67206 42.0592 9.65641C42.833 9.23446 43.703 9.02069 44.5843 9.03597C45.2744 9.0303 45.9577 9.16953 46.5906 9.4447L48.0256 6.74569C48.0138 6.74038 48.0031 6.73348 47.9911 6.72822C46.8583 6.25123 45.6391 6.01424 44.4102 6.0322C43.0534 6.01818 41.7114 6.31572 40.4876 6.90194C40.385 6.95169 40.2768 6.9898 40.1762 7.04394C38.9505 7.69062 37.926 8.66227 37.2159 9.85241C36.4891 11.0803 36.1162 12.4853 36.1384 13.912C36.1162 15.3389 36.4891 16.7441 37.2159 17.9723C37.9263 19.1621 38.9505 20.1334 40.1762 20.78C40.2771 20.8342 40.385 20.8724 40.4878 20.9224C41.7044 21.5073 43.0387 21.805 44.3885 21.7925C45.621 21.8098 46.8438 21.5726 47.9805 21.0957C47.9952 21.0893 48.0085 21.0808 48.0232 21.0743C49.0556 20.6278 49.966 19.9411 50.6793 19.0714L48.4154 16.9819Z" fill="#27333F"/>
<path d="M55.8275 20.7691C54.5933 20.1213 53.5616 19.1461 52.8455 17.9504C52.1206 16.7295 51.7477 15.3318 51.7679 13.9121C51.7477 12.4924 52.1206 11.0948 52.8455 9.8738C53.5619 8.67846 54.5938 7.70331 55.8275 7.05509C57.1451 6.36153 58.6161 6.00987 60.1052 6.03234C61.5906 6.009 63.0582 6.36079 64.3718 7.05509C65.6023 7.70754 66.633 8.68172 67.3538 9.8738C68.0852 11.0924 68.4622 12.4909 68.4422 13.9121C68.4622 15.3332 68.0852 16.7318 67.3538 17.9504C66.6335 19.1428 65.6028 20.1171 64.3718 20.7691C63.0584 21.464 61.5909 21.8161 60.1052 21.7926C58.6159 21.8152 57.1451 21.4633 55.8275 20.7691ZM62.5431 18.1677C63.2624 17.7606 63.854 17.1614 64.2521 16.4371C64.674 15.6634 64.8879 14.7933 64.8724 13.9121C64.8879 13.0309 64.674 12.1608 64.2521 11.3871C63.854 10.6628 63.2624 10.0636 62.5431 9.65648C61.7994 9.23836 60.9582 9.02431 60.1052 9.03606C59.2519 9.02421 58.4107 9.23827 57.667 9.65648C56.9477 10.0634 56.3561 10.6627 55.958 11.3871C55.5361 12.1608 55.3222 13.0309 55.3377 13.9121C55.322 14.7933 55.5359 15.6634 55.958 16.4371C56.3561 17.1615 56.9477 17.7607 57.667 18.1677C58.4107 18.5863 59.2519 18.8004 60.1052 18.7881C60.9582 18.8003 61.7994 18.5862 62.5431 18.1677Z" fill="#27333F"/>
<path d="M80.8071 21.5316L77.8683 17.287H74.6249V21.5316H71.0983V6.29331H77.694C78.9007 6.26522 80.0994 6.49525 81.2097 6.96806C82.1455 7.3696 82.9438 8.03566 83.5062 8.88447C84.0577 9.76338 84.338 10.7855 84.3117 11.8229C84.3389 12.8586 84.0546 13.8787 83.4956 14.751C82.9245 15.5926 82.118 16.2473 81.1771 16.6335L84.5946 21.5316H80.8071ZM79.9142 9.85291C79.2135 9.34975 78.359 9.10721 77.4983 9.16712H74.6249V14.4786H77.4983C78.3607 14.5387 79.2164 14.2919 79.9142 13.7818C80.1923 13.5399 80.4115 13.2376 80.5548 12.8981C80.6982 12.5586 80.7622 12.1908 80.7417 11.8229C80.7644 11.453 80.7014 11.0829 80.558 10.7413C80.4144 10.3997 80.1942 10.0957 79.9142 9.85291Z" fill="#27333F"/>
<path d="M98.896 18.7016V21.5313H87.0977V6.29297H98.6129V9.12348H90.602V12.4319H97.6768V15.175H90.602V18.7015L98.896 18.7016Z" fill="#27333F"/>
</svg>
