<svg width="103" height="18" viewBox="0 0 103 18" fill="none" xmlns="http://www.w3.org/2000/svg">
<g clip-path="url(#clip0_1_13903)">
<path d="M9.99219 9H0.992188V18H9.99219V9Z" fill="#181818"/>
</g>
<rect x="14.4922" width="4.5" height="18" fill="#181818"/>
<rect x="0.992188" y="4.5" width="4.5" height="18" transform="rotate(-90 0.992188 4.5)" fill="#181818"/>
<path d="M34.1797 1.31636C36.3397 1.31636 38.1322 2.07386 39.5572 3.58886C40.9972 5.10386 41.7172 6.97136 41.7172 9.19136C41.7172 11.3964 40.9972 13.2639 39.5572 14.7939C38.1322 16.3089 36.3397 17.0664 34.1797 17.0664H27.9922V1.31636H34.1797ZM34.1797 14.5914C35.6647 14.5914 36.8722 14.0814 37.8022 13.0614C38.7472 12.0414 39.2197 10.7514 39.2197 9.19136C39.2197 7.61636 38.7472 6.32636 37.8022 5.32136C36.8722 4.30136 35.6647 3.79136 34.1797 3.79136H30.5797V14.5914H34.1797Z" fill="#181818"/>
<path d="M45.8312 12.4764C46.0112 13.3314 46.4237 13.9914 47.0687 14.4564C47.7137 14.9064 48.5012 15.1314 49.4312 15.1314C50.7212 15.1314 51.6887 14.6664 52.3337 13.7364L54.3362 14.9064C53.2262 16.5414 51.5837 17.3589 49.4087 17.3589C47.5787 17.3589 46.1012 16.8039 44.9762 15.6939C43.8512 14.5689 43.2887 13.1514 43.2887 11.4414C43.2887 9.76136 43.8437 8.35886 44.9537 7.23386C46.0637 6.09386 47.4887 5.52386 49.2287 5.52386C50.8787 5.52386 52.2287 6.10136 53.2787 7.25636C54.3437 8.41136 54.8762 9.81386 54.8762 11.4639C54.8762 11.7189 54.8462 12.0564 54.7862 12.4764H45.8312ZM45.8087 10.4964H52.4237C52.2587 9.58136 51.8762 8.89136 51.2762 8.42636C50.6912 7.96136 50.0012 7.72886 49.2062 7.72886C48.3062 7.72886 47.5562 7.97636 46.9562 8.47136C46.3562 8.96636 45.9737 9.64136 45.8087 10.4964Z" fill="#181818"/>
<path d="M62.5578 3.36386C60.7878 3.19886 59.9028 3.94136 59.9028 5.59136V5.81636H62.5578V8.15636H59.9028V17.0664H57.4728V8.15636H55.7628V5.81636H57.4728V5.59136C57.4728 4.04636 57.9003 2.87636 58.7553 2.08136C59.6253 1.27136 60.8928 0.918857 62.5578 1.02386V3.36386Z" fill="#181818"/>
<path d="M72.3624 5.81636H74.7924V17.0664H72.3624V15.4464C71.4474 16.7214 70.1349 17.3589 68.4249 17.3589C66.8799 17.3589 65.5599 16.7889 64.4649 15.6489C63.3699 14.4939 62.8224 13.0914 62.8224 11.4414C62.8224 9.77636 63.3699 8.37386 64.4649 7.23386C65.5599 6.09386 66.8799 5.52386 68.4249 5.52386C70.1349 5.52386 71.4474 6.15386 72.3624 7.41386V5.81636ZM66.2649 14.0289C66.9399 14.7039 67.7874 15.0414 68.8074 15.0414C69.8274 15.0414 70.6749 14.7039 71.3499 14.0289C72.0249 13.3389 72.3624 12.4764 72.3624 11.4414C72.3624 10.4064 72.0249 9.55136 71.3499 8.87636C70.6749 8.18636 69.8274 7.84136 68.8074 7.84136C67.7874 7.84136 66.9399 8.18636 66.2649 8.87636C65.5899 9.55136 65.2524 10.4064 65.2524 11.4414C65.2524 12.4764 65.5899 13.3389 66.2649 14.0289Z" fill="#181818"/>
<path d="M85.2072 5.81636H87.6372V17.0664H85.2072V15.6264C84.4722 16.7814 83.3097 17.3589 81.7197 17.3589C80.4297 17.3589 79.3872 16.9464 78.5922 16.1214C77.7972 15.2964 77.3997 14.1639 77.3997 12.7239V5.81636H79.8297V12.4764C79.8297 13.3164 80.0547 13.9614 80.5047 14.4114C80.9547 14.8614 81.5697 15.0864 82.3497 15.0864C83.2047 15.0864 83.8947 14.8239 84.4197 14.2989C84.9447 13.7589 85.2072 12.9414 85.2072 11.8464V5.81636Z" fill="#181818"/>
<path d="M90.4787 17.0664V0.641357H92.9087V17.0664H90.4787Z" fill="#181818"/>
<path d="M102.008 8.15636H99.2177V13.5564C99.2177 14.0214 99.3227 14.3589 99.5327 14.5689C99.7427 14.7639 100.05 14.8764 100.455 14.9064C100.875 14.9214 101.393 14.9139 102.008 14.8839V17.0664C100.148 17.2914 98.8127 17.1339 98.0027 16.5939C97.1927 16.0389 96.7877 15.0264 96.7877 13.5564V8.15636H94.7177V5.81636H96.7877V3.38636L99.2177 2.66636V5.81636H102.008V8.15636Z" fill="#181818"/>
<defs>
<clipPath id="clip0_1_13903">
<path d="M0.992188 13.5C0.992188 11.0147 3.00691 9 5.49219 9V9C7.97747 9 9.99219 11.0147 9.99219 13.5V13.5C9.99219 15.9853 7.97747 18 5.49219 18H0.992188V13.5Z" fill="white"/>
</clipPath>
</defs>
</svg>
