<svg width="84" height="24" viewBox="0 0 84 24" fill="none" xmlns="http://www.w3.org/2000/svg">
<path d="M0.711548 1.18446C0.711548 0.964191 0.855698 0.769866 1.0665 0.705965L2.75033 0.195539C3.07143 0.0982024 3.39538 0.338507 3.39538 0.674038V6.3718C3.37411 6.83208 4.31426 7.16724 4.68939 6.89967C4.74252 6.86178 4.79683 6.82467 4.85231 6.78834C5.568 6.30237 6.40297 6.05939 7.35722 6.05939C8.56707 6.05939 9.49576 6.31973 10.1433 6.84041C10.7908 7.34373 11.2253 8.05532 11.4469 8.97519C11.6684 9.89505 11.7792 11.0926 11.7792 12.5679V17.8214C11.7792 18.0975 11.5553 18.3214 11.2792 18.3214H9.5442C9.26806 18.3214 9.0442 18.0975 9.0442 17.8214V12.5418C9.0442 11.5352 8.98456 10.7455 8.86528 10.1727C8.76304 9.6 8.54151 9.1661 8.20071 8.87105C7.87695 8.576 7.39982 8.42848 6.76934 8.42848C6.25813 8.42848 5.7384 8.58468 5.21016 8.89709C4.69895 9.20949 4.27295 9.66943 3.93214 10.2769C3.59134 10.867 3.42094 11.5699 3.42094 12.3856V17.8214C3.42094 18.0975 3.19708 18.3214 2.92094 18.3214H1.21155C0.935406 18.3214 0.711548 18.0975 0.711548 17.8214V1.18446Z" fill="black"/>
<path d="M19.9379 18.5654C18.8814 18.5654 17.9016 18.3138 16.9984 17.8105C16.1123 17.2898 15.3967 16.5608 14.8514 15.6236C14.3231 14.669 14.059 13.5583 14.059 12.2913C14.059 11.0416 14.289 9.94822 14.7491 9.011C15.2263 8.07378 15.8993 7.34483 16.7684 6.82415C17.6374 6.30347 18.6599 6.04313 19.8356 6.04313C20.5172 6.04313 21.1562 6.16463 21.7526 6.40761C22.3491 6.65059 22.8517 6.95432 23.2607 7.3188C23.4859 7.50993 24.1052 7.31851 24.1127 7.02325L24.1227 6.6318C24.1268 6.46981 24.2416 6.3318 24.4001 6.29815L26.1586 5.92481C26.4696 5.85878 26.7625 6.09597 26.7625 6.41391V17.8051C26.7625 18.0812 26.5386 18.3051 26.2625 18.3051H24.5465C24.3289 18.3051 24.1511 18.1315 24.1458 17.914C24.1356 17.49 23.3525 17.2455 23.02 17.5088C22.8663 17.6306 22.6994 17.7485 22.5195 17.8625C21.7526 18.3311 20.8921 18.5654 19.9379 18.5654ZM20.398 16.2224C21.3692 16.2224 22.1872 15.8839 22.8517 15.2071C23.5163 14.5128 23.8486 13.6103 23.8486 12.4995C23.8486 11.7532 23.6952 10.9028 23.3885 10.3127C23.0818 9.7226 22.6643 9.26266 22.1361 8.9329C21.6078 8.60313 21.0284 8.43825 20.398 8.43825C19.3074 8.43825 18.4639 8.80273 17.8675 9.53168C17.2711 10.2433 16.9729 11.1718 16.9729 12.3173C16.9729 13.4802 17.2626 14.4261 17.8419 15.155C18.4383 15.8666 19.2903 16.2224 20.398 16.2224Z" fill="black"/>
<path d="M29.8119 1.18648C29.8119 0.965244 29.9573 0.770311 30.1694 0.707233L31.9043 0.191141C32.2249 0.0957833 32.5469 0.335941 32.5469 0.670387V17.8051C32.5469 18.0812 32.323 18.3051 32.0469 18.3051H30.3119C30.0358 18.3051 29.8119 18.0812 29.8119 17.8051V1.18648Z" fill="black"/>
<path d="M39.0671 18.8624C39.1229 18.7391 39.1264 18.5985 39.0767 18.4727L34.5675 7.03898C34.4381 6.71088 34.6799 6.35554 35.0326 6.35554H37.0546C37.2705 6.35554 37.4619 6.49406 37.5295 6.69906L39.9212 13.9574L40.0052 14.2335C40.149 14.7061 40.8181 14.7061 40.9619 14.2335L41.0459 13.9574L43.5621 6.69192C43.6318 6.49057 43.8215 6.35554 44.0345 6.35554H45.9086C46.2605 6.35554 46.5023 6.7093 46.3745 7.03713L40.0291 23.3165C39.9626 23.4871 39.8082 23.6077 39.6266 23.6309L37.6287 23.8864C37.2406 23.936 36.9484 23.5406 37.1098 23.1842L39.0671 18.8624Z" fill="black"/>
<path d="M53.1888 18.5654C52.0301 18.5654 50.9821 18.3138 50.0449 17.8105C49.1247 17.2898 48.392 16.5522 47.8467 15.5976C47.3014 14.6256 47.0288 13.4888 47.0288 12.1871C47.0288 10.9549 47.2759 9.8788 47.77 8.95893C48.2812 8.02171 48.9884 7.30144 49.8915 6.79812C50.8117 6.2948 51.8682 6.04313 53.061 6.04313C53.9641 6.04313 54.7395 6.16463 55.387 6.40761C55.8888 6.57799 56.3081 6.783 56.6447 7.02266C56.8308 7.15512 56.8701 7.4072 56.7613 7.60803L56.3327 8.3992L56.0416 8.93664C55.8814 9.23237 55.4808 9.28644 55.2104 9.08644C54.6262 8.65432 53.9864 8.43825 53.291 8.43825C52.2005 8.43825 51.3655 8.7767 50.7861 9.45358C50.2238 10.1305 49.8915 11.059 49.8915 12.1871C49.8915 13.4715 50.2323 14.4434 50.8117 15.155C51.4081 15.8666 52.2346 16.2224 53.291 16.2224C53.8193 16.2224 54.3305 16.1443 54.8247 15.9881C55.0711 15.9128 55.2898 15.8314 55.4808 15.744C55.7655 15.6137 56.1307 15.6999 56.2716 15.9796L56.8134 17.0549C56.9204 17.2673 56.8641 17.5279 56.6614 17.6524C56.3271 17.8579 55.9108 18.0494 55.4126 18.227C54.748 18.4526 54.0067 18.5654 53.1888 18.5654Z" fill="black"/>
<path d="M64.3285 18.5654C63.1186 18.5654 62.0451 18.2877 61.1079 17.7324C60.1707 17.177 59.4465 16.422 58.9353 15.4674C58.4241 14.5128 58.1685 13.4541 58.1685 12.2913C58.1685 11.1458 58.4156 10.0957 58.9097 9.14117C59.4209 8.18659 60.1451 7.43161 61.0823 6.87622C62.0196 6.32083 63.1016 6.04313 64.3285 6.04313C65.5554 6.04313 66.6289 6.32083 67.5491 6.87622C68.4863 7.43161 69.202 8.18659 69.6962 9.14117C70.2074 10.0957 70.463 11.1458 70.463 12.2913C70.463 13.4541 70.2074 14.5128 69.6962 15.4674C69.185 16.422 68.4607 17.177 67.5235 17.7324C66.6034 18.2877 65.5384 18.5654 64.3285 18.5654ZM64.4052 16.2745C65.3935 16.2745 66.1688 15.9013 66.7312 15.155C67.3105 14.4087 67.6002 13.4715 67.6002 12.3433C67.6002 11.2152 67.2935 10.2693 66.68 9.50564C66.0666 8.72463 65.2572 8.33412 64.2518 8.33412C63.2805 8.33412 62.4967 8.71595 61.9003 9.47961C61.3209 10.2433 61.0312 11.1978 61.0312 12.3433C61.0312 13.4541 61.3465 14.3913 61.977 15.155C62.6074 15.9013 63.4168 16.2745 64.4052 16.2745Z" fill="black"/>
<path d="M72.6442 6.76556C72.6442 6.52717 72.8125 6.32193 73.0462 6.27524L74.8284 5.91931C75.1133 5.86241 75.3791 6.08036 75.3791 6.37093C75.3791 6.86841 76.3305 7.17007 76.7305 6.87435C76.7898 6.83055 76.8505 6.78778 76.9128 6.74605C77.6114 6.27744 78.4293 6.04313 79.3665 6.04313C80.5764 6.04313 81.5051 6.30347 82.1526 6.82415C82.8001 7.32747 83.2347 8.03907 83.4562 8.95893C83.6777 9.8788 83.7885 11.0764 83.7885 12.5516V17.8051C83.7885 18.0812 83.5646 18.3051 83.2885 18.3051H81.528C81.2518 18.3051 81.028 18.0812 81.028 17.8051V12.6297C81.028 11.1197 80.8831 10.035 80.5934 9.37547C80.3037 8.69859 79.7073 8.36015 78.8042 8.36015C78.293 8.36015 77.7733 8.52503 77.245 8.8548C76.7168 9.1672 76.2737 9.62714 75.9159 10.2346C75.5751 10.8421 75.4047 11.5536 75.4047 12.3694V17.8051C75.4047 18.0812 75.1808 18.3051 74.9047 18.3051H73.1442C72.868 18.3051 72.6442 18.0812 72.6442 17.8051V6.76556Z" fill="black"/>
</svg>
