<svg width="83" height="28" viewBox="0 0 83 28" fill="none" xmlns="http://www.w3.org/2000/svg">
<path d="M0.902954 21.559L11.9053 27.9167V24.3755V22.4485V22.432L5.64648 18.8249V11.5779L3.95001 10.6061L0.902954 8.84375V21.559Z" fill="#85437F"/>
<path d="M22.743 10.6061L21.063 11.5779V18.8249L14.7877 22.432V22.4485V24.3755V27.9002L25.79 21.559V8.84375L22.743 10.6061Z" fill="#782471"/>
<path d="M13.3547 0L2.35236 6.35765L5.39941 8.12L7.07941 9.09176L13.3547 5.46824L19.6135 9.09176L21.2935 8.12L24.3571 6.35765L13.3547 0Z" fill="#8F568A"/>
<path d="M13.3547 14.3794V20.3911L18.5594 17.377V11.3652L13.3547 14.3794Z" fill="#782471"/>
<path d="M8.13354 17.377L13.3383 20.3911V14.3794L8.13354 11.3652V17.377Z" fill="#85437F"/>
<path d="M13.3547 8.35156L8.13354 11.3657L13.3547 14.3633L18.5594 11.3657L13.3547 8.35156Z" fill="#8F568A"/>
<path d="M41.0899 3.86769C41.0899 4.46722 40.9528 4.90402 40.6788 5.17809C40.4218 5.43503 39.9936 5.5635 39.394 5.5635C38.7945 5.5635 38.3577 5.43503 38.0836 5.17809C37.8267 4.90402 37.6982 4.46722 37.6982 3.86769C37.6982 3.26816 37.8267 2.83992 38.0836 2.58298C38.3577 2.30891 38.7945 2.17188 39.394 2.17188C39.9936 2.17188 40.4218 2.30891 40.6788 2.58298C40.9528 2.83992 41.0899 3.26816 41.0899 3.86769ZM34.3066 23.4466C34.5464 23.4637 34.7948 23.4723 35.0517 23.4723C35.2916 23.4723 35.5828 23.4723 35.9253 23.4723C36.3364 23.4723 36.6705 23.4466 36.9274 23.3952C37.2015 23.3438 37.4242 23.2239 37.5955 23.0355C37.7668 22.8642 37.8867 22.6158 37.9552 22.2904C38.0237 21.9649 38.058 21.5195 38.058 20.9543V7.79889H40.7558V20.9543C40.7558 21.8621 40.6702 22.6158 40.4989 23.2154C40.3276 23.8149 40.0535 24.2945 39.6767 24.6542C39.2998 25.0139 38.8116 25.2623 38.2121 25.3994C37.6126 25.5535 36.876 25.6306 36.0024 25.6306C35.3515 25.6306 34.8633 25.622 34.5379 25.6049C34.2124 25.6049 33.9812 25.5963 33.8441 25.5792L34.3066 23.4466Z" fill="#571459"/>
<path d="M46.1183 15.43C46.1183 16.1495 46.1525 16.7319 46.2211 17.1772C46.3067 17.6226 46.4609 17.9738 46.6835 18.2307C46.9234 18.4876 47.2488 18.6675 47.6599 18.7703C48.071 18.8559 48.6192 18.8987 49.3043 18.8987C49.8011 18.8987 50.4263 18.8987 51.18 18.8987C51.9508 18.8987 52.9443 18.8816 54.1605 18.8474L53.698 21.0827C53.167 21.0999 52.7131 21.1084 52.3363 21.1084C51.9594 21.1256 51.6083 21.1341 51.2828 21.1341C50.9745 21.1341 50.6661 21.1341 50.3578 21.1341C50.0495 21.1341 49.6983 21.1341 49.3043 21.1341C48.0882 21.1341 47.0947 20.9971 46.3238 20.723C45.5701 20.4318 44.9706 20.0293 44.5252 19.5154C44.097 18.9844 43.8058 18.3506 43.6516 17.614C43.4975 16.8603 43.4204 16.0296 43.4204 15.1217V13.6828C43.4204 12.7065 43.4975 11.8329 43.6516 11.062C43.8229 10.2741 44.1227 9.6146 44.5509 9.08359C44.9963 8.53545 45.6044 8.11578 46.3752 7.82458C47.1632 7.53338 48.1824 7.38778 49.4328 7.38778C50.5805 7.38778 51.514 7.52482 52.2335 7.79889C52.97 8.05583 53.5439 8.41555 53.955 8.87804C54.3832 9.3234 54.6744 9.84585 54.8286 10.4454C54.9827 11.0278 55.0598 11.6359 55.0598 12.2697V12.6551C55.0598 13.2717 55.0256 13.7599 54.9571 14.1196C54.8885 14.4794 54.7772 14.762 54.623 14.9675C54.4689 15.156 54.2719 15.2844 54.0321 15.353C53.8094 15.4043 53.5353 15.43 53.2099 15.43H46.1183ZM49.3043 9.52039C48.6192 9.52039 48.071 9.57178 47.6599 9.67456C47.2488 9.77733 46.9234 9.97432 46.6835 10.2655C46.4609 10.5396 46.3067 10.925 46.2211 11.4218C46.1525 11.9185 46.1183 12.5609 46.1183 13.3488H52.5161V12.4752C52.5161 11.9099 52.4647 11.4389 52.3619 11.062C52.2763 10.6681 52.105 10.3597 51.8481 10.1371C51.6083 9.91437 51.2828 9.7602 50.8717 9.67456C50.4606 9.57178 49.9381 9.52039 49.3043 9.52039Z" fill="#571459"/>
<path d="M57.6798 4.6642L60.3777 4.17602V7.79889H65.2596L64.7971 10.0343H60.3777V16.2009C60.3777 16.7661 60.4034 17.2286 60.4548 17.5883C60.5233 17.9481 60.6432 18.2221 60.8145 18.4106C60.9858 18.599 61.2256 18.7275 61.5339 18.796C61.8594 18.8645 62.2705 18.8987 62.7673 18.8987H65.1054L64.6429 21.0827H62.793C61.7652 21.0827 60.9173 21.0057 60.2492 20.8515C59.5983 20.6973 59.0759 20.4404 58.6819 20.0807C58.305 19.7038 58.0395 19.2071 57.8854 18.5904C57.7483 17.9738 57.6798 17.2029 57.6798 16.2779V4.6642Z" fill="#571459"/>
<path d="M67.2649 7.79889H69.9628V21.0827H67.2649V7.79889ZM70.2968 3.86769C70.2968 4.46722 70.1598 4.90402 69.8857 5.17809C69.6288 5.43503 69.2006 5.5635 68.601 5.5635C68.0015 5.5635 67.5647 5.43503 67.2906 5.17809C67.0337 4.90402 66.9052 4.46722 66.9052 3.86769C66.9052 3.26816 67.0337 2.83992 67.2906 2.58298C67.5647 2.30891 68.0015 2.17188 68.601 2.17188C69.2006 2.17188 69.6288 2.30891 69.8857 2.58298C70.1598 2.83992 70.2968 3.26816 70.2968 3.86769Z" fill="#571459"/>
<path d="M78.8197 9.98289C78.1174 9.98289 77.5435 10.0257 77.0982 10.1114C76.6528 10.1799 76.3016 10.3512 76.0447 10.6252C75.7878 10.8822 75.6079 11.259 75.5051 11.7558C75.4195 12.2525 75.3766 12.9206 75.3766 13.7599V15.1217C75.3766 15.9611 75.428 16.6291 75.5308 17.1259C75.6336 17.6226 75.8134 18.008 76.0704 18.2821C76.3445 18.539 76.7042 18.7103 77.1495 18.796C77.5949 18.8645 78.1516 18.8987 78.8197 18.8987C79.7618 18.8987 80.4983 18.8987 81.0294 18.8987C81.5775 18.8816 82.0571 18.8645 82.4682 18.8474L82.0057 21.0827C81.5604 21.0999 81.0294 21.1084 80.4127 21.1084C79.796 21.1256 79.265 21.1341 78.8197 21.1341C77.672 21.1341 76.7042 21.0314 75.9162 20.8258C75.1283 20.6203 74.4859 20.2777 73.9892 19.798C73.5095 19.3184 73.1584 18.7018 72.9357 17.9481C72.7302 17.1772 72.6274 16.2351 72.6274 15.1217V13.7599C72.6274 12.6465 72.7302 11.713 72.9357 10.9593C73.1584 10.1884 73.5095 9.56322 73.9892 9.08359C74.4859 8.60397 75.1283 8.26138 75.9162 8.05583C76.7042 7.85028 77.672 7.7475 78.8197 7.7475C79.3164 7.7475 79.8817 7.75606 80.5155 7.77319C81.1664 7.77319 81.8002 7.79032 82.4168 7.82458L81.9543 10.06C81.252 10.0257 80.6611 10.0086 80.1814 10.0086C79.7018 9.99145 79.2479 9.98289 78.8197 9.98289Z" fill="#571459"/>
</svg>
