<svg width="107" height="16" viewBox="0 0 107 16" fill="none" xmlns="http://www.w3.org/2000/svg">
<path d="M100.164 12.2578V9.62658H106.169V6.35216H100.164V3.74219H106.615V0.361462H96.1869V3.90166C95.3904 1.00997 93.1284 0 90.4417 0C88.8806 0 87.2557 0.393355 86.1035 1.23322V0.361462H73.8377V2.84385C72.4678 1.13223 70.312 0 67.45 0C63.526 0 60.9241 2.11561 59.8675 4.95947V0.361462H55.8957V6.28837H50.7027V0.361462H46.7309V12.2578H40.4918V0.361462H36.52V15.6332H50.708V9.66379H55.901V15.6332H59.8728V11.0405C60.9294 13.8844 63.5313 16 67.4553 16C72.6908 16 75.574 12.2365 75.574 8C75.574 6.46379 75.1917 4.99668 74.459 3.74219H77.99V15.6332H81.9618V3.74219H84.5796C84.5636 3.8804 84.5477 4.02392 84.5477 4.16744C84.5265 7.4206 86.9849 8.42525 89.5018 9.19601C91.4452 9.79668 92.47 10.2007 92.47 11.3329C92.47 12.21 91.9762 12.7256 90.4841 12.7256C89.162 12.7256 88.1106 11.7847 87.9619 10.4611H83.8149C84.3937 14.2458 87.1283 16 90.4788 16C93.0063 16 95.4966 14.9422 96.1816 12.7043V15.6385H106.674V12.2578H100.159H100.164ZM67.4553 12.6193C64.9543 12.6193 63.3083 10.7375 63.3083 8C63.3083 5.26246 64.9543 3.38073 67.4553 3.38073C69.9562 3.38073 71.6023 5.26246 71.6023 8C71.6023 10.7375 69.935 12.6193 67.4553 12.6193ZM91.2541 6.43721C89.3531 5.85781 88.477 5.36877 88.477 4.47043C88.477 3.65714 89.2257 3.25316 90.293 3.25316C91.4877 3.25316 92.1727 3.79003 92.4488 5.11362H96.1869V10.0146C95.5657 7.86711 93.4683 7.12292 91.2541 6.44252V6.43721Z" fill="#577578"/>
<path d="M0.826233 16H30.3647L28.1623 13.3059H13.0909L15.6083 10.3117L13.9046 8.22849L9.69681 13.3059H6.38748L12.259 6.18428L10.5553 4.10109L0.826233 16ZM15.5874 10.2737L17.2758 12.3247L22.3383 6.18428L20.6347 4.10109L15.5874 10.2737ZM17.2939 0L12.2485 6.17064L13.9313 8.22849L18.9976 2.08319L17.2939 0Z" fill="#577578"/>
</svg>
