<svg width="133" height="38" viewBox="0 0 133 38" fill="none" xmlns="http://www.w3.org/2000/svg">
<ellipse cx="25.5439" cy="19" rx="19" ry="19" fill="#AFD7FF"/>
<path d="M4.55013 23.1892C-5.03514 23.2069 3.59738 18.1918 8.13736 14.6977C5.18105 12.9154 4.33752 11.618 7.62715 11.4273C12.0131 11.1729 10.756 12.6822 8.13736 14.6977C10.5064 16.1259 14.2322 17.8656 18.2752 19.5969C25.5112 16.7355 33.4391 12.8075 39.6642 10.3046C48.9235 6.00143 53.1467 6.61636 49.6642 11.8014C44.9974 18.75 42.0095 22.9212 40.3211 25.2015C39.29 26.5941 37.5649 27.1623 36.0983 26.6212C32.3352 25.2328 24.8818 22.4261 18.2752 19.5969C13.0339 21.6695 8.15551 23.1826 4.55013 23.1892Z" fill="url(#paint0_radial_1_13876)"/>
<path d="M62.1611 23.9982C59.9615 23.9982 57.9051 22.3172 57.9051 19.3488C57.9051 16.4161 59.9437 14.7172 62.1611 14.7172C64.3248 14.7172 66.3992 16.4161 66.3992 19.3488C66.3992 22.2994 64.3248 23.9982 62.1611 23.9982ZM55.3479 19.3488C55.3479 23.3723 58.2806 26.3229 62.1611 26.3229C66.0237 26.3229 68.9385 23.3723 68.9385 19.3488C68.9385 15.3431 66.0237 12.3925 62.1611 12.3925C58.2806 12.3925 55.3479 15.3431 55.3479 19.3488Z" fill="#171F27"/>
<path d="M74.5295 26.2692C75.9422 26.2692 77.1404 25.5361 77.8199 24.4095L78.0702 26.0189H80.1446V11.6772H77.6768V17.7036C77.0509 16.6307 75.8528 15.9511 74.5116 15.9511C72.2048 15.9511 70.0947 17.954 70.0947 21.1012C70.0947 24.2485 72.2406 26.2692 74.5295 26.2692ZM72.5803 21.1012C72.5803 19.4024 73.6891 18.1864 75.1733 18.1864C76.6218 18.1864 77.7126 19.3845 77.7126 21.1012C77.7126 22.818 76.6218 24.0161 75.1733 24.0161C73.6891 24.0161 72.5803 22.8001 72.5803 21.1012Z" fill="#171F27"/>
<path d="M86.8827 26.2692C89.7618 26.2692 91.9435 24.1055 91.9435 21.1012C91.9435 18.0791 89.7618 15.9511 86.8827 15.9511C84.0216 15.9511 81.8042 18.0791 81.8042 21.1012C81.8042 24.1234 84.0037 26.2692 86.8827 26.2692ZM84.2898 21.1012C84.2898 19.2415 85.5594 18.1864 86.8827 18.1864C88.206 18.1864 89.4578 19.2415 89.4578 21.1012C89.4578 22.9431 88.206 24.0161 86.8827 24.0161C85.5594 24.0161 84.2898 22.961 84.2898 21.1012Z" fill="#171F27"/>
<path d="M98.8177 15.9511C97.4586 15.9511 96.4214 16.6843 95.8492 17.5963H95.7956L95.5273 16.1836H93.6139V26.0189H96.0817V20.1356C96.0817 19.009 96.9043 18.2043 98.0309 18.2043C99.2111 18.2043 99.8191 18.8481 99.8191 20.2071V26.0189H102.287V19.4561C102.287 17.2923 100.964 15.9511 98.8177 15.9511Z" fill="#171F27"/>
<path d="M108.26 26.2692C109.708 26.2692 110.907 25.5361 111.586 24.4095L111.836 26.0189H113.911V16.1836H111.836L111.586 17.793C110.907 16.6664 109.708 15.9511 108.26 15.9511C106.025 15.9511 103.861 17.9897 103.861 21.1191C103.861 24.2128 106.025 26.2692 108.26 26.2692ZM106.347 21.1012C106.347 19.4024 107.455 18.1864 108.94 18.1864C110.388 18.1864 111.479 19.3845 111.479 21.1012C111.479 22.818 110.388 24.0161 108.94 24.0161C107.455 24.0161 106.347 22.8001 106.347 21.1012Z" fill="#171F27"/>
<path d="M119.075 13.8947H116.697V16.1836H115.248V18.2401H116.679V22.3351C116.679 24.7492 118.074 26.2156 120.524 26.2156C121.168 26.2156 121.615 26.1441 121.936 26.0725V23.9624C121.632 24.0161 121.328 24.0518 121.06 24.0518C119.916 24.0518 119.075 23.5332 119.075 22.21V18.2401H121.758V16.1836H119.075V13.8947Z" fill="#171F27"/>
<path d="M127.138 26.2692C128.587 26.2692 129.785 25.5361 130.465 24.4095L130.715 26.0189H132.789V16.1836H130.715L130.465 17.793C129.785 16.6664 128.587 15.9511 127.138 15.9511C124.903 15.9511 122.739 17.9897 122.739 21.1191C122.739 24.2128 124.903 26.2692 127.138 26.2692ZM125.225 21.1012C125.225 19.4024 126.334 18.1864 127.818 18.1864C129.266 18.1864 130.357 19.3845 130.357 21.1012C130.357 22.818 129.266 24.0161 127.818 24.0161C126.334 24.0161 125.225 22.8001 125.225 21.1012Z" fill="#171F27"/>
<defs>
<radialGradient id="paint0_radial_1_13876" cx="0" cy="0" r="1" gradientUnits="userSpaceOnUse" gradientTransform="translate(32.995 26.8235) rotate(-108.771) scale(30.1011 42.7118)">
<stop stop-color="#2C80D6"/>
<stop offset="1" stop-color="#6C2EEF"/>
</radialGradient>
</defs>
</svg>
