<svg width="112" height="28" viewBox="0 0 112 28" fill="none" xmlns="http://www.w3.org/2000/svg">
<path d="M14.0004 27.9999C21.7324 27.9999 28.0004 21.7319 28.0004 13.9999C28.0004 12.1697 27.6491 10.4214 27.0105 8.81885C25.22 9.8566 23.6303 11.2043 22.3149 12.7971C22.3713 13.1899 22.4004 13.5915 22.4004 13.9999C22.4004 17.9981 19.6071 21.3439 15.8656 22.1921C14.3218 24.208 12.5295 26.0136 10.5352 27.5678C10.6359 27.5935 10.7371 27.618 10.8387 27.6414C11.8548 27.876 12.9131 27.9999 14.0004 27.9999Z" fill="#4662D5"/>
<path d="M6.88574 26.0599C9.77502 24.134 12.2649 21.6503 14.2029 18.7433L18.457 12.3622C20.2411 9.68605 22.6189 7.46531 25.3988 5.86923C24.2627 4.27945 22.8024 2.9373 21.1143 1.93945C18.2252 3.86528 15.7354 6.34895 13.7975 9.25584L9.54344 15.6369C7.75933 18.3131 5.38146 20.5339 2.60156 22.1299C3.73752 23.7197 5.19779 25.0619 6.88574 26.0599Z" fill="#4662D5"/>
<path d="M0.989889 19.1809C2.78038 18.1431 4.37005 16.7953 5.68543 15.2025C5.62913 14.8098 5.6 14.4083 5.6 14C5.6 10.0019 8.39317 6.65623 12.1346 5.80786C13.6783 3.79196 15.4707 1.98633 17.465 0.432104C17.3643 0.406474 17.2633 0.381934 17.1617 0.358498C16.1456 0.123952 15.0873 0 14 0C6.26801 0 0 6.26801 0 14C0 15.8303 0.351204 17.5784 0.989889 19.1809Z" fill="#4662D5"/>
<path fill-rule="evenodd" clip-rule="evenodd" d="M108.882 12.2216V6.28564H111.903V21.714H108.882V20.2571C108.368 21.1142 107.104 21.7142 105.775 21.7142C103.032 21.7142 100.868 19.2714 100.868 16.2286C100.868 13.1858 103.032 10.7644 105.775 10.7644C107.082 10.7644 108.368 11.3644 108.882 12.2216ZM103.825 16.2286C103.825 17.7286 104.961 18.8429 106.439 18.8429C107.489 18.8429 108.432 18.2857 108.882 17.5357V14.9644C108.432 14.1929 107.489 13.6144 106.439 13.6144C104.961 13.6144 103.825 14.7286 103.825 16.2286ZM36 14.0001C36 9.60731 39.2785 6.28594 43.6499 6.28594C48.0212 6.28594 51.3212 9.60731 51.3212 14.0001C51.3212 18.3929 48.0212 21.7142 43.6499 21.7142C39.2785 21.7142 36 18.3929 36 14.0001ZM48.0426 14.0001C48.0426 11.3644 46.157 9.3716 43.6499 9.3716C41.1428 9.3716 39.2571 11.3644 39.2571 14.0001C39.2571 16.6358 41.1428 18.6286 43.6499 18.6286C46.157 18.6286 48.0426 16.6358 48.0426 14.0001ZM56.1259 12.2216C56.7045 11.3216 57.8187 10.7645 58.9973 10.7645C61.6544 10.7645 63.2829 12.5858 63.2829 15.5429V21.714H60.2616V16.0572C60.2616 14.6001 59.4687 13.7644 58.2259 13.7644C57.3902 13.7644 56.5545 14.2358 56.1259 14.9644V21.714H53.1045V10.9787H56.1259V12.2216ZM67.6323 21.714H69.968L72.1108 15.9498L74.2322 21.714H76.6107L80.4034 11.1927H77.1464L75.4107 16.9569L73.2893 11.1927H70.9322L68.8323 16.9569L67.0752 11.1927H63.8395L67.6323 21.714ZM88.6676 12.2216V10.9787H91.689V21.714H88.6676V20.2571C88.1534 21.1142 86.8891 21.7142 85.5605 21.7142C82.8177 21.7142 80.6535 19.2714 80.6535 16.2286C80.6535 13.1858 82.8177 10.7645 85.5605 10.7645C86.8677 10.7645 88.1534 11.3644 88.6676 12.2216ZM83.6106 16.2286C83.6106 17.7286 84.7463 18.8429 86.2248 18.8429C87.2748 18.8429 88.2176 18.2857 88.6676 17.5357V14.9644C88.2176 14.1929 87.2748 13.6144 86.2248 13.6144C84.7463 13.6144 83.6106 14.7286 83.6106 16.2286ZM99.3554 10.7645C98.4769 10.7645 97.3412 11.3216 96.8269 12.2216V10.9787H93.8055V21.714H96.8269V15.1358C97.3412 14.1072 98.434 13.5501 99.1197 13.5501C99.5483 13.5501 100.063 13.6358 100.555 13.7858V10.9573C100.32 10.8287 99.8911 10.7645 99.3554 10.7645Z" fill="#131312"/>
</svg>
