<svg width="101" height="36" viewBox="0 0 101 36" fill="none" xmlns="http://www.w3.org/2000/svg">
<g clip-path="url(#clip0_1_13892)">
<path d="M16.1879 29.9784C12.3973 32.1445 7.69691 32.1445 3.92797 29.9784C2.8666 29.3719 1.52364 29.7402 0.917141 30.8016C0.310643 31.8629 0.678874 33.2058 1.74024 33.8124C4.2962 35.2853 7.17706 36.0001 10.0579 36.0001C12.9388 36.0001 15.8196 35.2636 18.3756 33.8124C19.4369 33.2058 19.8052 31.8629 19.1987 30.8016C18.5922 29.7402 17.2493 29.3719 16.1879 29.9784Z" fill="#18ACB4"/>
<path d="M17.7908 0C12.354 0 7.91357 4.44043 7.91357 9.87727C7.91357 9.98557 7.91357 10.0939 7.91357 10.2022C7.91357 10.2671 7.91357 10.3105 7.91357 10.3754V24.9747C7.91357 26.1877 8.90999 27.1841 10.123 27.1841C11.3359 27.1841 12.3323 26.1877 12.3323 24.9747V18.1083C13.8919 19.148 15.7764 19.7545 17.7908 19.7545C23.2493 19.7545 27.6681 15.3141 27.6681 9.87727C27.6681 4.44043 23.2493 0 17.7908 0ZM17.7908 15.3574C14.78 15.3574 12.3323 12.9097 12.3323 9.89887C12.3323 6.88808 14.78 4.44043 17.7908 4.44043C20.8016 4.44043 23.2493 6.88808 23.2493 9.89887C23.271 12.8881 20.8016 15.3574 17.7908 15.3574Z" fill="#18ACB4"/>
<path d="M32.4548 25.7979V18.1517V18.13V14.1878C32.4548 13.6029 32.9314 13.1265 33.5162 13.1265C34.0794 13.1265 34.5343 13.5163 34.6209 13.9495C35.3573 13.473 36.3321 13.1265 37.3502 13.1265C40.0144 13.1265 42.2021 15.4008 42.2021 18.1517C42.2021 20.9026 40.0144 23.112 37.3502 23.112C36.3537 23.112 35.379 22.8087 34.6642 22.2889V25.8195C34.6642 26.3827 34.166 26.9026 33.5162 26.9026C32.9314 26.8809 32.4548 26.361 32.4548 25.7979ZM34.6642 18.13C34.6642 18.9098 34.9241 19.668 35.444 20.1228C35.9422 20.686 36.6137 20.9676 37.3502 20.9676C38.0216 20.9676 38.7148 20.686 39.2346 20.1228C39.6895 19.668 40.0144 18.9098 40.0144 18.13C40.0144 17.3502 39.6895 16.6355 39.2346 16.1156C38.7148 15.5741 38.0432 15.2925 37.3502 15.2925C36.6137 15.2925 35.9422 15.5741 35.444 16.1156C34.9241 16.6355 34.6642 17.3502 34.6642 18.13Z" fill="#18ACB4"/>
<path d="M45.3429 22.0289C45.3429 22.6571 44.8447 23.1336 44.2166 23.1336C43.7183 23.1336 43.3068 22.7654 43.1552 22.3105C43.1335 22.2238 43.1118 22.1372 43.1118 22.0289V10.2239C43.1118 9.59569 43.61 9.11914 44.2166 9.11914C44.8447 9.11914 45.3429 9.59569 45.3429 10.2239V13.7112C45.9927 13.3647 46.7075 13.1264 47.4873 13.1264C49.9133 13.1264 51.8411 15.0975 51.8411 17.5018V22.0289C51.8411 22.6571 51.3645 23.1336 50.7364 23.1336C50.1082 23.1336 49.6317 22.6571 49.6317 22.0289V17.5018C49.6317 16.3322 48.6786 15.3574 47.4656 15.3357C46.2959 15.3574 45.3429 16.3105 45.3212 17.5018V22.0289H45.3429Z" fill="#18ACB4"/>
<path d="M53.2922 18.13C53.3139 15.4008 55.4367 13.1265 58.1659 13.1265C60.7652 13.1265 62.8229 15.0759 62.9963 17.7618V17.8701C62.9963 17.9134 62.9963 18 62.9746 18.0434C62.9096 18.5199 62.498 18.8448 61.9349 18.8448H55.5666C55.6749 19.2997 55.8915 19.8195 56.2381 20.1661C56.6497 20.6427 57.4511 21.0109 58.1659 21.0759C58.8807 21.1409 59.7471 20.9459 60.2453 20.5777C60.6569 20.1444 61.48 20.1878 61.7399 20.5127C61.9998 20.7943 62.1948 21.4008 61.7399 21.8124C60.7652 22.7221 59.5739 23.1336 58.1659 23.1336C55.415 23.112 53.3139 20.8376 53.2922 18.13ZM55.4583 17.1336H61.1117C60.9168 16.3322 59.8988 15.1626 58.1443 15.0109C56.4764 15.0975 55.6316 16.3105 55.4583 17.1336Z" fill="#18ACB4"/>
<path d="M72.7002 17.2853V22.0722C72.7002 22.6571 72.2453 23.1336 71.6604 23.1336C71.0973 23.1336 70.5991 22.6571 70.5991 22.0722V17.2853C70.5991 16.1589 69.6677 15.2709 68.5197 15.2709C67.3933 15.2709 66.5269 16.1806 66.5269 17.2853V22.0722C66.5269 22.1373 66.5269 22.2022 66.4836 22.2672C66.3753 22.7438 65.9421 23.1336 65.4222 23.1336C64.8157 23.1336 64.3608 22.6571 64.3608 22.0722V17.2853V14.1878C64.3608 13.6029 64.8157 13.1265 65.4222 13.1265C65.8338 13.1265 66.2237 13.3647 66.3969 13.7546C67.0035 13.3647 67.7399 13.1265 68.5197 13.1265C70.8591 13.1265 72.7002 15.0109 72.7002 17.2853Z" fill="#18ACB4"/>
<path d="M75.4944 21.6607C74.628 20.7727 74.1082 19.538 74.1082 18.13C74.1082 16.7654 74.628 15.5957 75.4944 14.621C76.4041 13.6896 77.5524 13.1047 78.9384 13.1047C80.2599 13.1047 81.4509 13.6896 82.2744 14.621C83.1841 15.5741 83.6821 16.7654 83.6821 18.13C83.6821 19.538 83.1841 20.7727 82.2744 21.6607C81.4509 22.5922 80.2599 23.1769 78.9384 23.1769C77.5524 23.1769 76.3824 22.5922 75.4944 21.6607ZM76.2961 18.13C76.2961 18.9964 76.5556 19.6896 77.0109 20.2528C77.5089 20.7293 78.1801 20.9893 78.9384 20.9893C79.6314 20.9893 80.2816 20.7293 80.7796 20.2528C81.2776 19.6896 81.5596 18.9964 81.5596 18.13C81.5596 17.3069 81.2776 16.5922 80.7796 16.0506C80.2816 15.6174 79.6314 15.2925 78.9384 15.2925C78.1801 15.2925 77.5089 15.6174 77.0109 16.0506C76.5556 16.5922 76.2961 17.3286 76.2961 18.13Z" fill="#18ACB4"/>
<path d="M93.4945 17.2636V17.3286V22.0722C93.4945 22.6571 93.0175 23.1336 92.4333 23.1336C91.87 23.1336 91.3503 22.6571 91.3503 22.0722V17.3286V17.2636C91.3285 16.1589 90.4188 15.2709 89.2923 15.2709C88.1875 15.2709 87.2778 16.1806 87.2778 17.3286V22.0722C87.2778 22.1156 87.256 22.1805 87.256 22.2022V22.2672C87.2343 22.3105 87.2343 22.3539 87.1915 22.3972V22.5055C87.0175 22.8737 86.6065 23.1553 86.1948 23.1553C86.1078 23.1553 86.065 23.1336 85.9998 23.1336C85.5235 23.0037 85.1335 22.6138 85.1335 22.0939V17.3286V17.307V14.2095C85.1335 13.5813 85.6098 13.1265 86.1948 13.1265C86.6065 13.1265 86.9965 13.3431 87.148 13.7329C87.7975 13.3431 88.534 13.1265 89.2923 13.1265C90.5485 13.1265 91.675 13.6463 92.4333 14.5127C93.1698 13.6463 94.3173 13.1265 95.5735 13.1265C97.87 13.1265 99.733 15.0109 99.733 17.3286V22.0722C99.733 22.6571 99.256 23.1336 98.671 23.1336C98.0868 23.1336 97.588 22.6571 97.588 22.0722V17.3286C97.588 16.1806 96.6783 15.2709 95.5735 15.2709C94.4478 15.2709 93.538 16.1589 93.4945 17.2636Z" fill="#18ACB4"/>
</g>
<defs>
<clipPath id="clip0_1_13892">
<rect width="99.75" height="36" fill="white" transform="translate(0.625)"/>
</clipPath>
</defs>
</svg>
