<svg width="91" height="22" viewBox="0 0 91 22" fill="none" xmlns="http://www.w3.org/2000/svg">
<g clip-path="url(#clip0_1_13936)">
<path d="M13.2358 17.5468C13.0082 17.7207 12.9384 18.0349 13.0706 18.2901L13.896 19.8836C13.9978 20.0799 13.8566 20.3151 13.637 20.3151H5.58366C5.36404 20.3151 5.22284 20.0799 5.32454 19.8836L6.15002 18.2901C6.28223 18.0349 6.21241 17.7207 5.98484 17.5468L5.25274 16.9875C3.50731 15.654 2.38496 13.5462 2.38496 11.1735C2.38496 7.14845 5.61986 3.88551 9.61029 3.88551C11.3639 3.88551 12.9715 4.51559 14.2228 5.56353V3.49927C12.8778 2.67506 11.299 2.20044 9.61029 2.20044C4.69721 2.20044 0.714355 6.21781 0.714355 11.1735C0.714355 14.0066 2.01603 16.533 4.04903 18.1775C4.16038 18.2675 4.19564 18.4242 4.12954 18.5519L2.79021 21.1372C2.58679 21.5299 2.8692 22.0001 3.30844 22.0001H15.9122C16.3514 22.0001 16.6339 21.5299 16.4305 21.1372L15.0911 18.5519C15.025 18.4242 15.0602 18.2675 15.1716 18.1775C17.2046 16.533 18.5063 14.0066 18.5063 11.1735C18.5063 9.59086 18.1001 8.10389 17.3871 6.81294H15.4002C16.3018 8.02885 16.8356 9.53829 16.8356 11.1735C16.8356 13.5462 15.7133 15.654 13.9679 16.9875L13.2358 17.5468Z" fill="#491797"/>
<path d="M13.7251 2.41626C13.7643 2.22258 14.0387 2.22258 14.0779 2.41626L14.7639 5.80142C14.7784 5.87272 14.8336 5.92842 14.9043 5.943L18.2604 6.6349C18.4524 6.67448 18.4524 6.95121 18.2604 6.9908L14.9043 7.6827C14.8336 7.69727 14.7784 7.75299 14.7639 7.82427L14.0779 11.2095C14.0387 11.4031 13.7643 11.4031 13.7251 11.2095L13.0391 7.82427C13.0247 7.75299 12.9694 7.69727 12.8988 7.6827L9.5427 6.9908C9.35067 6.95121 9.35067 6.67448 9.5427 6.6349L12.8988 5.943C12.9694 5.92842 13.0247 5.87272 13.0391 5.80142L13.7251 2.41626Z" fill="#A477E9"/>
<path fill-rule="evenodd" clip-rule="evenodd" d="M13.0387 5.80128C13.0242 5.87257 12.969 5.92828 12.8983 5.94286L9.54224 6.63476C9.35021 6.67434 9.35021 6.95107 9.54224 6.99066L12.8983 7.68256C12.969 7.69713 13.0242 7.75284 13.0387 7.82413L13.7247 11.2093C13.7639 11.403 14.0383 11.403 14.0775 11.2093L14.7635 7.82413C14.7779 7.75284 14.8331 7.69713 14.9038 7.68256L18.2599 6.99066C18.4519 6.95107 18.4519 6.67434 18.2599 6.63476L14.9038 5.94286C14.8331 5.92828 14.7779 5.87257 14.7635 5.80128L14.0775 2.41612C14.0383 2.22244 13.7639 2.22244 13.7247 2.41612L13.0387 5.80128ZM15.605 5.09404L15.0228 2.22122C14.7733 0.98974 13.0289 0.989732 12.7793 2.22122L12.1972 5.09404L9.34904 5.68122C8.12812 5.93293 8.12812 7.69249 9.34904 7.94419L12.1972 8.53136L12.7793 11.4042C13.0289 12.6357 14.7733 12.6357 15.0228 11.4042L15.605 8.53136L18.4531 7.94419C19.674 7.69249 19.674 5.93293 18.4531 5.68122L15.605 5.09404Z" fill="white"/>
<path d="M18.3155 0.0726285C18.3352 -0.0242094 18.4724 -0.0242096 18.492 0.0726283L18.835 1.76521C18.8422 1.80086 18.8698 1.82871 18.9051 1.836L20.5832 2.18195C20.6792 2.20174 20.6792 2.34011 20.5832 2.3599L18.9051 2.70585C18.8698 2.71313 18.8422 2.74099 18.835 2.77664L18.492 4.46922C18.4724 4.56605 18.3352 4.56606 18.3155 4.46922L17.9726 2.77664C17.9653 2.74099 17.9378 2.71313 17.9024 2.70585L16.2244 2.3599C16.1283 2.34011 16.1283 2.20174 16.2244 2.18195L17.9024 1.836C17.9378 1.82871 17.9653 1.80086 17.9726 1.76521L18.3155 0.0726285Z" fill="#A477E9"/>
<path d="M24.2041 21.0697L27.1387 21.0953V13.9676H30.6602C32.7271 13.9676 36.5804 12.7158 36.5804 8.32165C36.5804 3.92751 32.7271 2.65015 30.3795 2.65015H24.2041V21.0697ZM27.1642 11.2596L27.2153 5.4348H30.5836C31.2216 5.4348 33.6203 5.56254 33.6203 8.21943C33.6203 10.8764 31.5278 11.1829 30.5326 11.1829C29.7926 11.1829 28.2105 11.2341 27.1642 11.2596Z" fill="#491797"/>
<path d="M36.3232 14.7084C36.3232 18.3872 39.2323 21.5295 43.0345 21.5295C46.8112 21.5295 49.7203 18.3872 49.7203 14.7084C49.7203 11.0296 46.8112 8.04053 43.0345 8.04053C39.2323 8.04053 36.3232 11.0296 36.3232 14.7084ZM39.2833 14.7339C39.2833 12.307 41.1207 10.672 43.06 10.672C45.025 10.672 46.8367 12.307 46.8367 14.7339C46.8367 17.3142 45.025 18.8471 43.06 18.8471C41.1207 18.8471 39.2833 17.3142 39.2833 14.7339Z" fill="#491797"/>
<path d="M57.0934 10.7741C55.1029 11.0296 53.8781 12.8689 53.9036 14.6572C53.9291 16.8543 55.2816 18.6426 57.2464 18.7959C58.8796 18.9237 60.3597 17.9784 60.819 16.6244L63.524 17.5696C62.5542 20.2266 60.2066 21.6828 57.1444 21.555C53.7505 21.4273 51.02 18.6426 51.02 14.6317C51.02 10.7996 54.1077 8.11718 57.221 7.96389C60.6914 7.81059 62.7074 10.0077 63.4219 12.0259L60.7425 12.8689C59.7727 10.8508 58.1141 10.6463 57.0934 10.7741Z" fill="#491797"/>
<path d="M74.007 19.5369L74.1346 21.0953H76.9672V8.42383H73.9561V16.1135C73.9561 17.1865 72.9098 18.8471 71.098 18.8471C68.8779 18.8471 68.342 17.2376 68.342 15.9602V8.44936H65.3054V16.2924C65.3054 17.4164 65.7137 21.4529 70.0262 21.4529C72.2973 21.4529 73.7264 20.2777 74.007 19.5369Z" fill="#491797"/>
<path d="M87.1006 12.0516L89.6016 11.0298C88.6831 8.4495 85.6714 7.7597 83.7323 7.98962C80.8236 8.34728 79.4454 10.2633 79.4454 12.0772C79.4454 13.5589 80.7466 14.7852 82.1758 15.2706C83.4769 15.7305 87.0244 15.9348 86.9474 17.5698C86.8964 18.9239 84.881 19.1282 83.8596 18.8983C82.8389 18.6684 81.8953 17.7231 81.5889 16.829L79.0115 17.9275C79.6497 19.6647 81.4105 21.5041 84.4214 21.5041C88.1213 21.5041 89.8569 19.4348 89.8569 17.5443C89.8569 15.9859 89.0146 14.402 86.2584 13.7378C83.605 13.099 82.2779 12.9458 82.2779 11.8217C82.2779 11.0298 83.1713 10.4932 84.3703 10.4932C85.4931 10.4932 86.6929 11.0042 87.1006 12.0516Z" fill="#491797"/>
</g>
<defs>
<clipPath id="clip0_1_13936">
<rect width="89.5715" height="22" fill="white" transform="translate(0.714355)"/>
</clipPath>
</defs>
</svg>
