<svg width="35" height="34" viewBox="0 0 35 34" fill="none" xmlns="http://www.w3.org/2000/svg">
<path fill-rule="evenodd" clip-rule="evenodd" d="M0.5 7.56568L8.06568 0H34.5V26.4343L26.9343 34H0.5V7.56568ZM14.1277 5.69726L15.062 4.74016V4.76295H17.3181V7.01898L16.3837 7.9533H14.1277V5.69726ZM14.122 9.43425H17.3123V19.2332H14.122V9.43425ZM10.2305 12.1689C10.2305 12.1689 10.0026 11.9638 9.66077 11.7815C9.29616 11.5992 8.90876 11.5308 8.54415 11.5308C8.27069 11.5308 7.95166 11.5764 7.70099 11.7131C7.60983 11.7587 7.49589 11.8499 7.42753 11.9638C7.35916 12.0777 7.33638 12.1917 7.33638 12.3284C7.33638 12.4651 7.35916 12.5791 7.42753 12.693C7.49589 12.807 7.60983 12.8753 7.72378 12.9209C8.15675 13.1032 8.61252 13.2399 9.11386 13.3311C9.50126 13.3995 9.86587 13.5362 10.2305 13.6729C10.5951 13.8097 10.9369 14.0147 11.2559 14.2426C11.5522 14.4705 11.8029 14.7895 11.9624 15.1086C12.1675 15.496 12.2358 15.9062 12.2358 16.3391C12.2586 16.8633 12.1447 17.3646 11.894 17.8204C11.6433 18.2761 11.3015 18.6635 10.8685 18.9598C10.4584 19.2332 10.0026 19.4156 9.50126 19.5295C9.0227 19.6662 8.49858 19.7118 7.99723 19.7118C7.19965 19.7118 6.40206 19.5751 5.65005 19.3244C4.94361 19.0965 4.03209 18.3445 4.03209 18.3445L5.83235 16.5215C6.07581 16.8024 6.18075 16.8524 6.43808 16.9752C6.49388 17.0018 6.55684 17.0318 6.62994 17.0684C7.04013 17.2735 7.49589 17.3874 7.95166 17.3874C8.22512 17.3874 8.49857 17.319 8.72646 17.2051C8.81761 17.1595 8.95434 17.0456 9.0227 16.9316C9.09107 16.7949 9.09107 16.6582 9.09107 16.5442C9.09107 16.3847 9.04549 16.2708 8.95434 16.1341C8.88597 16.0201 8.74924 15.929 8.61252 15.8834C8.13396 15.6783 7.63262 15.5188 7.13128 15.4276C6.76667 15.3593 6.44764 15.2453 6.10581 15.1086C5.76399 14.9719 5.46774 14.7895 5.19428 14.5617C4.92083 14.3338 4.69294 14.0375 4.53343 13.7413C4.35112 13.3767 4.28276 12.9665 4.28276 12.5563C4.25997 12.0094 4.37391 11.508 4.67016 11.0295C4.92083 10.6193 5.23986 10.2775 5.65005 10.004C6.06024 9.75335 6.49321 9.54826 6.94898 9.41153C7.40474 9.2748 7.90608 9.22922 8.38463 9.22922C9.13664 9.22922 9.84308 9.36595 10.5267 9.59383C11.1876 9.79893 11.9396 10.3914 11.9396 10.3914L10.2305 12.1689ZM9.66077 23.2209C10.0026 23.4032 10.2305 23.6083 10.2305 23.6083L11.9396 21.8308C11.9396 21.8308 11.1876 21.2383 10.5267 21.0332C9.84308 20.8054 9.13664 20.6686 8.38463 20.6686C7.90608 20.6686 7.40474 20.7142 6.94898 20.8509C6.49321 20.9877 6.06024 21.1928 5.65005 21.4434C5.23986 21.7169 4.92083 22.0587 4.67016 22.4689C4.37391 22.9475 4.25997 23.4488 4.28276 23.9957C4.28276 24.4059 4.35112 24.8161 4.53343 25.1807C4.69294 25.4769 4.92083 25.7732 5.19428 26.0011C5.46774 26.229 5.76399 26.4113 6.10581 26.548C6.44764 26.6847 6.76667 26.7987 7.13128 26.867C7.63262 26.9582 8.13396 27.1177 8.61252 27.3228C8.74924 27.3684 8.88597 27.4595 8.95434 27.5735C9.04549 27.7102 9.09107 27.8241 9.09107 27.9836C9.09107 28.0976 9.09107 28.2343 9.0227 28.371C8.95434 28.485 8.81761 28.5989 8.72646 28.6445C8.49857 28.7584 8.22512 28.8268 7.95166 28.8268C7.49589 28.8268 7.04013 28.7129 6.62994 28.5078C6.55685 28.4712 6.49389 28.4412 6.4381 28.4146L6.43807 28.4146C6.18075 28.2918 6.07581 28.2418 5.83235 27.9609L4.03209 29.7839C4.03209 29.7839 4.94361 30.5359 5.65005 30.7638C6.40206 31.0145 7.19965 31.1512 7.99723 31.1512C8.49858 31.1512 9.0227 31.1056 9.50126 30.9689C10.0026 30.855 10.4584 30.6726 10.8685 30.3992C11.3015 30.1029 11.6661 29.7155 11.894 29.2598C12.1447 28.804 12.2586 28.3027 12.2358 27.7785C12.2358 27.3456 12.1675 26.9354 11.9624 26.548C11.8029 26.229 11.5522 25.9099 11.2559 25.682C10.9369 25.4542 10.5951 25.2491 10.2305 25.1123L10.2305 25.1123C9.86585 24.9756 9.50125 24.8389 9.11386 24.7705C8.61252 24.6794 8.15675 24.5426 7.72378 24.3603C7.60983 24.3147 7.49589 24.2464 7.42753 24.1324C7.35916 24.0185 7.33638 23.9046 7.33638 23.7678C7.33638 23.6311 7.35916 23.5172 7.42753 23.4032C7.49589 23.2893 7.60983 23.1981 7.70099 23.1525C7.95166 23.0158 8.27069 22.9702 8.54415 22.9702C8.90876 22.9702 9.29616 23.0386 9.66077 23.2209ZM23.8034 21.0113L20.5971 21.0112V21.9568V26.8131C20.5965 27.2349 20.4311 27.6392 20.1369 27.9375C19.8428 28.2358 19.4441 28.4036 19.0281 28.4042C18.6122 28.4036 18.2134 28.2358 17.9193 27.9375C17.6252 27.6392 17.4597 27.2349 17.4591 26.8131V21.0113H14.2528V21.9568V27.2743C14.2528 29.6194 15.9583 31.3258 18.0503 31.3258H18.2322C19.4829 31.3258 20.0514 30.9846 20.7336 30.4311V31.1229H23.8034V30.1775V21.0113Z" fill="#061640"/>
</svg>
