<svg width="99" height="26" viewBox="0 0 99 26" fill="none" xmlns="http://www.w3.org/2000/svg">
<g clip-path="url(#clip0_1042_22923)">
<path d="M35.0996 11.3441C34.4015 10.6838 33.6035 10.4637 32.6659 10.4637C31.509 10.4637 30.8707 10.8238 30.8707 11.4444C30.8707 12.0846 31.449 12.445 32.7057 12.5251C34.561 12.645 36.9149 13.0654 36.9149 15.6871C36.9149 17.4283 35.4985 18.9293 32.6857 18.9293C31.1298 18.9293 29.5737 18.6693 28.1376 17.168L29.3345 15.4272C30.0326 16.2076 31.6283 16.7881 32.7257 16.8082C33.6432 16.8283 34.501 16.3479 34.501 15.6274C34.501 14.9471 33.9427 14.6668 32.5461 14.5867C30.691 14.4469 28.4765 13.7661 28.4765 11.5245C28.4765 9.24298 30.8306 8.44248 32.6259 8.44248C34.1621 8.44248 35.319 8.74283 36.4561 9.74345L35.0996 11.3441ZM41.5467 4.37305V8.74259H44.2599V10.8439H41.5267V15.1067C41.5267 16.0476 42.0455 16.508 42.8035 16.508C43.1827 16.508 43.6214 16.3879 43.9804 16.2076L44.6588 18.2888C43.9607 18.5695 43.3821 18.6892 42.6439 18.7092C40.5094 18.7893 39.1129 17.5686 39.1129 15.1067V10.8439H37.2777V8.74259H39.1129V6.20036L41.5467 4.37305ZM47.3953 14.526C47.5549 15.7469 48.6123 16.6275 50.3278 16.6275C51.2256 16.6275 52.4025 16.2872 52.961 15.707L54.517 17.2479C53.4796 18.3287 51.7839 18.849 50.2877 18.849C46.8966 18.849 44.8819 16.7477 44.8819 13.5854C44.8819 10.5834 46.9165 8.42215 50.1084 8.42215C53.4 8.42215 55.4548 10.4635 55.0755 14.526H47.3953ZM52.7414 12.5048C52.5823 11.2238 51.5848 10.5834 50.1882 10.5834C48.8717 10.5834 47.7945 11.2238 47.4356 12.5048H52.7414ZM56.1963 21.9731V8.72249H58.4702L58.6298 10.0832C59.3878 8.98255 60.7045 8.50218 61.8216 8.50218C64.8539 8.50218 66.8688 10.7638 66.8688 13.6659C66.8688 16.5477 65.0535 18.8292 61.9014 18.8292C60.8641 18.8292 59.3279 18.509 58.63 17.4283V24.3751L56.1963 21.9731ZM64.4352 13.6657C64.4352 12.1245 63.3975 10.8637 61.6423 10.8637C59.8868 10.8637 58.8496 12.1245 58.8496 13.6657C58.8496 15.2066 59.9868 16.4674 61.6423 16.4674C63.298 16.4677 64.4352 15.2066 64.4352 13.6657ZM74.3332 11.3441C73.6357 10.6838 72.8374 10.4637 71.8999 10.4637C70.743 10.4637 70.1046 10.8238 70.1046 11.4444C70.1046 12.0846 70.6829 12.445 71.9399 12.5251C73.7953 12.645 76.1488 13.0654 76.1488 15.6871C76.1488 17.4283 74.7323 18.9293 71.9199 18.9293C70.364 18.9293 68.8081 18.6693 67.3715 17.168L68.5684 15.4272C69.2666 16.2076 70.8625 16.7881 71.9597 16.8082C72.8772 16.8283 73.7347 16.3479 73.7347 15.6274C73.7347 14.9471 73.1764 14.6668 71.7798 14.5867C69.9245 14.4469 67.7102 13.7661 67.7102 11.5245C67.7102 9.24298 70.0641 8.44248 71.8596 8.44248C73.3958 8.44248 74.5527 8.74283 75.6899 9.74345L74.3332 11.3441ZM76.9499 18.5893H79.3847V8.68236H76.9499V18.5893ZM88.8669 8.72249L84.7002 16.1876H88.4118L88.3735 18.5895H80.05L84.9749 10.9441H80.7821L80.8342 8.72249H88.8669ZM91.3216 14.526C91.4813 15.7469 92.5387 16.6275 94.2545 16.6275C95.1523 16.6275 96.3294 16.2872 96.8873 15.707L98.4434 17.2479C97.406 18.3287 95.7109 18.849 94.2146 18.849C90.8236 18.849 88.8086 16.7477 88.8086 13.5854C88.8086 10.5834 90.8436 8.42215 94.035 8.42215C97.3262 8.42215 99.3811 10.4635 99.0021 14.526H91.3216ZM96.6678 12.5048C96.5082 11.2238 95.5114 10.5834 94.114 10.5834C92.798 10.5834 91.7207 11.2238 91.3616 12.5048H96.6678Z" fill="#E43ABC"/>
<path fill-rule="evenodd" clip-rule="evenodd" d="M24.7881 6.96885L20.9079 1.70117H9.79981L6.37603 12.3129L10.2563 17.5806L13.604 6.96885H24.7881ZM15.1256 7.96134L18.9298 13.2291L15.6582 23.8409H4.474L0.59375 18.5731H11.778L15.1256 7.96134Z" fill="#E43ABC"/>
</g>
<defs>
<clipPath id="clip0_1042_22923">
<rect width="98.3125" height="26" fill="white" transform="translate(0.59375)"/>
</clipPath>
</defs>
</svg>
