<svg width="89" height="30" viewBox="0 0 89 30" fill="none" xmlns="http://www.w3.org/2000/svg">
<path d="M38.9579 11.8262V17.2652C38.9579 19.2392 38.1809 20.1842 36.5639 20.1842C35.1359 20.1842 34.3589 19.3862 34.3589 17.4122V11.8262H31.7969V18.3152C31.7969 20.8562 33.2039 22.4732 35.5979 22.4732C36.9839 22.4732 38.3279 21.8012 38.9579 20.8142L39.1469 22.2002H41.5199V11.8262H38.9579ZM43.163 19.0502C43.163 21.0872 44.801 22.4732 47.384 22.4732C49.946 22.4732 51.731 21.1712 51.731 19.0712C51.731 17.4752 50.849 16.6772 49.106 16.2782L47.237 15.8372C46.355 15.6272 45.893 15.2492 45.893 14.6612C45.893 13.8842 46.481 13.4222 47.489 13.4222C48.476 13.4222 49.064 13.9892 49.085 14.8712H51.521C51.5 12.8552 49.925 11.5112 47.594 11.5112C45.2 11.5112 43.478 12.7292 43.478 14.7662C43.478 16.4252 44.381 17.3072 46.25 17.7272L48.119 18.1682C49.043 18.3782 49.316 18.7562 49.316 19.2812C49.316 20.0372 48.665 20.5202 47.468 20.5202C46.292 20.5202 45.62 19.9532 45.599 19.0502H43.163ZM58.3227 22.4732C61.0317 22.4732 62.9217 21.1082 63.3627 18.8402H60.9897C60.6957 19.8272 59.7717 20.3732 58.3647 20.3732C56.6637 20.3732 55.6977 19.4492 55.5087 17.6222L63.3207 17.6012V16.8242C63.3207 13.5902 61.3467 11.5112 58.2387 11.5112C55.1937 11.5112 53.0727 13.7582 53.0727 17.0132C53.0727 20.2262 55.2357 22.4732 58.3227 22.4732ZM58.2597 13.6112C59.7927 13.6112 60.7797 14.5562 60.7797 15.9842H55.5717C55.8237 14.4302 56.7477 13.6112 58.2597 13.6112ZM64.3421 11.8262V13.9682H65.8331V22.2002H68.3741V13.9682H70.8521V11.8262H68.3741V10.5662C68.3741 9.53717 68.6891 8.86517 69.9911 8.86517H70.8941V6.68117C70.4531 6.59717 69.9701 6.57617 69.5711 6.57617C67.3241 6.57617 65.8331 7.75217 65.8331 10.5662V11.8262H64.3421ZM79.5224 11.8262V17.2652C79.5224 19.2392 78.7454 20.1842 77.1284 20.1842C75.7004 20.1842 74.9234 19.3862 74.9234 17.4122V11.8262H72.3614V18.3152C72.3614 20.8562 73.7684 22.4732 76.1624 22.4732C77.5484 22.4732 78.8924 21.8012 79.5224 20.8142L79.7114 22.2002H82.0844V11.8262H79.5224ZM87.3135 22.2002V6.57617H84.7725V22.2002H87.3135Z" fill="#6F2DE7"/>
<path d="M5.23341 0C8.11752 0 10.4668 2.34932 10.4668 5.23343V16.9565C10.4668 18.3758 11.6227 19.5348 13.0451 19.5348H14.3013V22.1868H13.0451C10.161 22.1868 7.81484 19.8405 7.81484 16.9565V5.23343C7.81484 3.81098 6.65586 2.652 5.23341 2.652C3.81096 2.652 2.652 3.81098 2.652 5.23343V16.9565C2.652 21.4026 5.45768 25.2072 9.39569 26.6846C10.5343 27.1143 11.7622 27.348 13.0467 27.348C14.4691 27.348 15.628 26.1921 15.628 24.7697V5.23343C15.628 2.34932 17.9743 0 20.8584 0C23.7425 0 26.0949 2.34932 26.0949 5.23343V16.9565C26.0949 19.8405 23.7425 22.1868 20.8584 22.1868H19.6053V19.5348H20.8584C22.284 19.5348 23.4429 18.3758 23.4429 16.9565V5.23343C23.4429 3.81098 22.284 2.652 20.8584 2.652C19.4391 2.652 18.2801 3.81098 18.2801 5.23343V24.7697C18.2801 27.6539 15.9339 30 13.0467 30C11.7779 30 10.5562 29.8181 9.39569 29.4794C3.97407 27.8954 0 22.88 0 16.9565V5.23343C0 2.34775 2.34618 0 5.23341 0Z" fill="#6F2DE7"/>
<path d="M0 5.23331V16.9563C0 22.8798 3.97407 27.8952 9.39569 29.4792V26.6861C5.45768 25.2087 2.652 21.404 2.652 16.9578V5.23487C2.652 3.81242 3.81096 2.65347 5.23341 2.65347V0.00146563C2.34618 -0.000102673 0 2.34764 0 5.23331Z" fill="url(#paint0_linear_1032_13804)"/>
<path d="M5.23242 0V2.652C6.65487 2.652 7.81385 3.81097 7.81385 5.23342V16.9564C7.81385 19.8405 10.16 22.1868 13.0441 22.1868H14.3003V19.5348H13.0441C11.6217 19.5348 10.4658 18.3757 10.4658 16.9564V5.23342C10.4658 2.34775 8.11652 0 5.23242 0Z" fill="url(#paint1_linear_1032_13804)"/>
<path d="M9.39648 26.6846V29.4777C10.5555 29.8166 11.7787 29.9985 13.0475 29.9985C15.9347 29.9985 18.2809 27.6522 18.2809 24.7682V5.23343C18.2809 3.81098 19.4399 2.652 20.8592 2.652V0C17.975 0 15.6289 2.34932 15.6289 5.23343V24.7697C15.6289 26.1921 14.4699 27.348 13.0475 27.348C11.763 27.348 10.5351 27.1143 9.39648 26.6846Z" fill="url(#paint2_linear_1032_13804)"/>
<path d="M19.6055 19.5348V22.1868H20.8586C23.7426 22.1868 26.0951 19.8405 26.0951 16.9564V5.23342C26.0951 2.34931 23.7426 0 20.8586 0V2.652C22.2842 2.652 23.4431 3.81097 23.4431 5.23342V16.9564C23.4431 18.3757 22.2842 19.5348 20.8586 19.5348H19.6055Z" fill="url(#paint3_linear_1032_13804)"/>
<defs>
<linearGradient id="paint0_linear_1032_13804" x1="6.33426" y1="25.8537" x2="0.939772" y2="1.68635" gradientUnits="userSpaceOnUse">
<stop stop-color="#9B6DEE"/>
<stop offset="1" stop-color="#6F2DE7"/>
</linearGradient>
<linearGradient id="paint1_linear_1032_13804" x1="19.9529" y1="26.4633" x2="10.3507" y2="12.8152" gradientUnits="userSpaceOnUse">
<stop stop-color="#43129C"/>
<stop offset="1" stop-color="#6F2DE7"/>
</linearGradient>
<linearGradient id="paint2_linear_1032_13804" x1="12.4538" y1="27.4151" x2="18.9272" y2="9.55929" gradientUnits="userSpaceOnUse">
<stop stop-color="#9B6DEE"/>
<stop offset="1" stop-color="#6F2DE7"/>
</linearGradient>
<linearGradient id="paint3_linear_1032_13804" x1="12.4482" y1="27.2243" x2="23.1833" y2="9.69211" gradientUnits="userSpaceOnUse">
<stop stop-color="#43129C"/>
<stop offset="1" stop-color="#6F2DE7"/>
</linearGradient>
</defs>
</svg>
