<svg width="141" height="24" viewBox="0 0 141 24" fill="none" xmlns="http://www.w3.org/2000/svg">
<path fill-rule="evenodd" clip-rule="evenodd" d="M10.1081 2.76666C10.0875 2.63167 10.0773 2.49532 10.0774 2.35879C9.99151 1.80151 9.73348 1.28476 9.3392 0.880406C8.94492 0.476052 8.43399 0.204195 7.87747 0.102643C7.32095 0.00109236 6.74651 0.0749 6.23404 0.313792C5.72156 0.552684 5.29653 0.944788 5.01805 1.43558C4.73957 1.92636 4.6215 2.49143 4.68024 3.0522C4.73898 3.61297 4.97162 4.14156 5.34581 4.56445C5.72 4.98734 6.21713 5.28351 6.76806 5.41177C7.319 5.54004 7.89635 5.49402 8.41982 5.28012C8.50603 5.2342 8.59486 5.19334 8.68586 5.15776C9.00221 5.0317 9.34311 4.97867 9.68296 5.00266C10.0228 5.02665 10.3528 5.12704 10.6482 5.29629C10.9435 5.46553 11.1966 5.69924 11.3884 5.97988C11.5801 6.26052 11.7056 6.5808 11.7555 6.91668C11.7716 7.01617 11.7801 7.11672 11.781 7.21748C11.8575 7.77663 12.1076 8.2979 12.4964 8.70817C12.8852 9.11843 13.3932 9.3971 13.949 9.50507C14.5048 9.61303 15.0805 9.54488 15.5955 9.31017C16.1105 9.07546 16.5388 8.68597 16.8203 8.19636C17.0555 7.78523 17.1872 7.32337 17.204 6.8504C17.2541 6.51453 17.3796 6.19427 17.5713 5.91355C17.7631 5.63284 18.016 5.39893 18.3111 5.2293C18.6063 5.05967 18.9361 4.95871 19.276 4.93396C19.6158 4.90921 19.9568 4.96132 20.2736 5.08638C20.3656 5.12159 20.4546 5.16421 20.5396 5.21384C21.062 5.42619 21.6377 5.47124 22.1869 5.34272C22.7361 5.21419 23.2315 4.91848 23.6043 4.49663C23.9772 4.07478 24.2091 3.54772 24.2677 2.9886C24.3263 2.42947 24.2088 1.86602 23.9315 1.37646C23.6542 0.886897 23.2309 0.495503 22.7202 0.256606C22.2096 0.0177082 21.637 -0.0568405 21.0819 0.0433021C20.5268 0.143445 20.0167 0.413311 19.6225 0.815448C19.2283 1.21758 18.9695 1.73204 18.8821 2.28741C18.8822 2.42395 18.8719 2.5603 18.8514 2.69528C18.7879 3.05451 18.6381 3.39308 18.4148 3.68204C18.1914 3.97101 17.9012 4.20177 17.5688 4.35459C17.2365 4.50741 16.8719 4.57774 16.5064 4.55957C16.1408 4.5414 15.7851 4.43527 15.4697 4.25026C15.0918 4.10494 14.6861 4.046 14.2823 4.07777C13.8785 4.10953 13.4871 4.2312 13.1368 4.4338C12.8342 4.58236 12.4984 4.65101 12.1616 4.63316C11.8248 4.6153 11.4982 4.51155 11.2132 4.33184C10.9255 4.16774 10.6777 3.94236 10.4876 3.67179C10.2975 3.40123 10.1696 3.09216 10.1132 2.76666" fill="#DA30AA"/>
<path fill-rule="evenodd" clip-rule="evenodd" d="M24.3972 11.3625C24.5259 11.4108 24.6507 11.4687 24.7706 11.5358C25.2961 11.7369 25.8713 11.7701 26.4165 11.6308C26.9618 11.4915 27.45 11.1865 27.8134 10.7582C28.1769 10.3299 28.3975 9.79945 28.4449 9.24051C28.4922 8.68158 28.3637 8.12182 28.0774 7.63889C27.7911 7.15596 27.3611 6.77379 26.847 6.54541C26.3329 6.31702 25.7602 6.25373 25.2084 6.36432C24.6566 6.4749 24.153 6.75389 23.7674 7.16257C23.3819 7.57125 23.1335 8.08937 23.0568 8.64505C23.0618 8.74356 23.0618 8.84225 23.0568 8.94076C23.0058 9.27618 22.8797 9.59585 22.6878 9.87603C22.4958 10.1562 22.243 10.3897 21.9481 10.5592C21.6532 10.7286 21.3238 10.8297 20.9843 10.8549C20.6448 10.8801 20.304 10.8288 19.9872 10.7048C19.8944 10.6675 19.8039 10.6249 19.716 10.5773C19.1918 10.3651 18.6142 10.3212 18.0638 10.4519C17.5134 10.5826 17.0176 10.8813 16.6458 11.3063C16.2739 11.7313 16.0445 12.2614 15.9896 12.8226C15.9347 13.3839 16.057 13.9481 16.3395 14.4367C16.5825 14.8484 16.9189 15.1976 17.3217 15.4564C17.5881 15.6674 17.8033 15.9357 17.9512 16.2411C18.0991 16.5465 18.1759 16.8813 18.1759 17.2204C18.1759 17.5595 18.0991 17.8943 17.9512 18.1997C17.8033 18.5052 17.5881 18.7734 17.3217 18.9844C17.2449 19.0451 17.1646 19.1012 17.0813 19.1527C16.6351 19.4972 16.3076 19.9716 16.1444 20.51C15.9812 21.0485 15.9904 21.6242 16.1706 22.1572C16.3509 22.6903 16.6932 23.1541 17.1501 23.4843C17.607 23.8146 18.1558 23.9948 18.7202 23.9999C19.2846 24.005 19.8366 23.8348 20.2995 23.513C20.7624 23.1911 21.1132 22.7335 21.3031 22.2039C21.4931 21.6742 21.5128 21.0987 21.3595 20.5574C21.2061 20.0161 20.8874 19.5358 20.4476 19.1833C20.328 19.1157 20.215 19.0372 20.11 18.9488C19.8554 18.7378 19.6506 18.4736 19.51 18.1749C19.3694 17.8762 19.2966 17.5503 19.2965 17.2204C19.2978 16.8205 19.4049 16.428 19.607 16.0824C19.8091 15.7369 20.099 15.4506 20.4476 15.2525C20.7658 15.0016 21.023 14.6825 21.2001 14.3188C21.3773 13.9551 21.4698 13.5562 21.4708 13.152C21.4899 12.8189 21.5939 12.4962 21.7729 12.2143C21.952 11.9324 22.2001 11.7007 22.494 11.5409C22.7815 11.3758 23.1019 11.2756 23.4325 11.2474C23.7631 11.2192 24.0959 11.2637 24.4074 11.3778" fill="#0D8FAF"/>
<path fill-rule="evenodd" clip-rule="evenodd" d="M4.55727 11.3625C4.42859 11.4108 4.30374 11.4687 4.1838 11.5358C3.65836 11.7369 3.08314 11.7701 2.53791 11.6308C1.99269 11.4915 1.50449 11.1865 1.14104 10.7582C0.777593 10.3299 0.556908 9.79945 0.509597 9.24051C0.462287 8.68158 0.590695 8.12182 0.877014 7.63889C1.16333 7.15596 1.59337 6.77379 2.10747 6.54541C2.62157 6.31702 3.19424 6.25373 3.74607 6.36432C4.29789 6.4749 4.8015 6.75389 5.18704 7.16257C5.57258 7.57125 5.82093 8.08937 5.89766 8.64505C5.8926 8.74356 5.8926 8.84225 5.89766 8.94076C5.94862 9.27618 6.07476 9.59585 6.26669 9.87603C6.45862 10.1562 6.71142 10.3897 7.00632 10.5592C7.30122 10.7286 7.63065 10.8297 7.97013 10.8549C8.30961 10.8801 8.65042 10.8288 8.96727 10.7048C9.06002 10.6675 9.15055 10.6249 9.23841 10.5773C9.76257 10.3633 10.3408 10.3183 10.8919 10.4486C11.4431 10.5788 11.9395 10.8778 12.3114 11.3036C12.6833 11.7293 12.9121 12.2604 12.9656 12.8224C13.0191 13.3843 12.8947 13.9489 12.6099 14.4367C12.3692 14.8502 12.0323 15.1999 11.6276 15.4564C11.362 15.668 11.1477 15.9364 11.0003 16.2418C10.853 16.5471 10.7765 16.8816 10.7765 17.2204C10.7765 17.5592 10.853 17.8937 11.0003 18.1991C11.1477 18.5044 11.362 18.7728 11.6276 18.9844C11.7044 19.0451 11.7847 19.1012 11.868 19.1527C12.312 19.4973 12.6373 19.9711 12.7989 20.5082C12.9605 21.0454 12.9504 21.6194 12.77 22.1506C12.5896 22.6818 12.2478 23.1439 11.792 23.4728C11.3362 23.8017 10.7891 23.9812 10.2263 23.9863C9.66362 23.9914 9.11325 23.8219 8.65154 23.5013C8.18983 23.1807 7.83965 22.7249 7.64955 22.197C7.45946 21.6692 7.43888 21.0955 7.59065 20.5555C7.74242 20.0155 8.05904 19.5359 8.4966 19.1833C8.84695 18.9874 9.13863 18.7021 9.34164 18.3567C9.54465 18.0113 9.65166 17.6182 9.65166 17.2179C9.65166 16.8176 9.54465 16.4245 9.34164 16.079C9.13863 15.7336 8.84695 15.4483 8.4966 15.2525C8.17901 15.0011 7.92218 14.6819 7.74507 14.3183C7.56797 13.9547 7.47512 13.5561 7.47339 13.152C7.45428 12.8189 7.3503 12.4962 7.17127 12.2143C6.99224 11.9324 6.74407 11.7007 6.45019 11.5409C6.16269 11.3758 5.84231 11.2756 5.51169 11.2474C5.18107 11.2192 4.84827 11.2637 4.5368 11.3778" fill="#E1C000"/>
<path d="M121.136 19.326H122.486V7.77326H126.973V6.61084H116.654V7.77326H121.136V19.326Z" fill="#163B53"/>
<path d="M114.7 19.326H116.132L110.3 6.61084H108.97L103.133 19.326H104.539C107.19 13.4426 106.432 15.1199 109.625 8.00778L112.694 14.8395H109.625L109.113 15.9306H113.16L114.7 19.326Z" fill="#163B53"/>
<path d="M90.5779 18.1636V7.77326H94.3535C97.7403 7.77326 99.93 9.91455 99.93 12.9684C99.93 16.0223 97.7403 18.1636 94.3535 18.1636H90.5779ZM89.2273 19.326H94.4252C98.518 19.326 101.26 16.7106 101.26 12.9684C101.26 9.22628 98.5077 6.61084 94.4252 6.61084H89.2273V19.326Z" fill="#163B53"/>
<path d="M77.9209 17.3479V13.8402H84.0806V11.8978H77.9209V8.58899H84.8634V6.61084H75.5471V19.326H85.1192V17.3479H77.9209Z" fill="#163B53"/>
<path d="M64.5272 17.3275L72.0426 8.19132V6.61084H61.519V8.60938H68.9065L61.3911 17.7456V19.326H72.278V17.3275H64.5272Z" fill="#163B53"/>
<path d="M52.3613 19.5096C55.8453 19.5096 57.9378 17.4703 57.9378 13.7842V6.61084H55.6049V13.6924C55.6049 16.3078 54.4384 17.4346 52.3818 17.4346C50.3251 17.4346 49.1331 16.3129 49.1331 13.6924V6.61084H46.7644V13.7842C46.7644 17.4906 48.862 19.5096 52.3613 19.5096Z" fill="#163B53"/>
<path d="M44.4059 6.61084H42.073L38.2974 12.8053L34.5627 6.61084H32.0251L37.0388 14.8752V19.326H39.4075V14.8395L44.4059 6.61084Z" fill="#163B53"/>
<path d="M139.078 19.326H140.5L134.668 6.61084H133.337L127.5 19.326H128.922C131.572 13.4426 130.82 15.1199 134.008 8.00778L137.077 14.8395H134.008L133.496 15.9306H137.543L139.078 19.326Z" fill="#163B53"/>
</svg>
