<svg fill="none" xmlns="http://www.w3.org/2000/svg" viewBox="0 0 30 30"><g clip-path="url(#a)"><mask id="b" style="mask-type:luminance" maskUnits="userSpaceOnUse" x="3" y="3" width="24" height="24"><path d="M3.5 26.5v-23h23v23h-23Z" fill="currentColor" stroke="currentColor"/></mask><g mask="url(#b)"><path d="M3.75 9h22.5M18 23.25H4.5a.75.75 0 0 1-.75-.75v-18a.75.75 0 0 1 .75-.75h21a.75.75 0 0 1 .75.75V18M6 18h8.25M6 20.25h6.75m5.25-9v1.5m0 1.5v1.5m2.25-2.25h-1.5m-1.5 0h-1.5m7.5-2.25v3m1.5-1.5h-3m-.442 3.672 1.436 2.91 3.211.466a.344.344 0 0 1 .19.587l-2.323 2.264.549 3.198a.344.344 0 0 1-.5.363L21 24.7l-2.872 1.51a.344.344 0 0 1-.499-.363l.549-3.198-2.324-2.264a.344.344 0 0 1 .19-.587l3.212-.467 1.436-2.91a.344.344 0 0 1 .616 0ZM6.75 6.375a.375.375 0 1 1-.75 0 .375.375 0 0 1 .75 0Zm3 0a.375.375 0 1 1-.75 0 .375.375 0 0 1 .75 0Zm3 0a.375.375 0 1 1-.75 0 .375.375 0 0 1 .75 0Zm-6 7.875v-1.5c0-.414.294-.75.656-.75h5.438c.362 0 .656.336.656.75v1.5c0 .414-.294.75-.656.75H7.406c-.362 0-.656-.336-.656-.75Z" stroke="currentColor" stroke-width="1.5" stroke-miterlimit="10"/></g></g><defs><clipPath id="a"><path fill="currentColor" d="M3 3h24v24H3z"/></clipPath></defs></svg>
