<svg width="40" height="40" viewBox="0 0 40 40" fill="none" xmlns="http://www.w3.org/2000/svg">
<path d="M16.25 30H30M13.6569 15.6701C13.2073 14.2028 11.1813 12.5 8.75 12.5M8.75 12.5C6.33375 12.5 4.31781 14.1819 3.85156 15.6429M8.75 12.5C7.45556 12.5 6.40625 11.4507 6.40625 10.1562V8.59375C6.40625 7.29931 7.45556 6.25 8.75 6.25C10.0444 6.25 11.0938 7.29931 11.0938 8.59375V10.1562C11.0938 11.4507 10.0444 12.5 8.75 12.5ZM20 16.25C20 14.1792 20.3213 12.1209 20.9524 10.1487L23 3.75H25L27.0476 10.1487C27.6787 12.1209 28 14.1792 28 16.25M20.3671 12.5H27.6329M31.25 2.5V11.25M33.75 35H6.25C3.48858 35 1.25 32.7614 1.25 30C1.25 27.2386 3.48858 25 6.25 25H33.75C36.5114 25 38.75 27.2386 38.75 30C38.75 32.7614 36.5114 35 33.75 35ZM11.25 30C11.25 30.6904 10.6904 31.25 10 31.25C9.30964 31.25 8.75 30.6904 8.75 30C8.75 29.3096 9.30964 28.75 10 28.75C10.6904 28.75 11.25 29.3096 11.25 30ZM16.25 10C16.25 14.1421 12.8921 17.5 8.75 17.5C4.60786 17.5 1.25 14.1421 1.25 10C1.25 5.85786 4.60786 2.5 8.75 2.5C12.8921 2.5 16.25 5.85786 16.25 10ZM31.2501 13.7499C31.2501 14.4403 31.8097 15 32.5001 15H34.9998C36.3805 15 37.5 13.8231 37.5 12.2494V10.3498C37.5 8.77613 36.3807 7.50044 35 7.50044H31.25L31.2501 13.7499Z" stroke="url(#paint0_linear_796_47431)" stroke-width="2" stroke-miterlimit="10"/>
<defs>
<linearGradient id="paint0_linear_796_47431" x1="38.75" y1="2.5" x2="6.58033" y2="39.6195" gradientUnits="userSpaceOnUse">
<stop stop-color="#407A7A"/>
<stop offset="1" stop-color="#002832"/>
</linearGradient>
</defs>
</svg>
