<svg width="41" height="40" viewBox="0 0 41 40" fill="none" xmlns="http://www.w3.org/2000/svg">
<g clip-path="url(#clip0_1032_13672)">
<path d="M6.91602 35L34.416 35C37.1774 35 39.416 32.7614 39.416 30C39.416 27.2386 37.1774 25 34.416 25L6.91602 25C4.15459 25 1.91602 27.2386 1.91602 30C1.91602 32.7614 4.15459 35 6.91602 35Z" stroke="#54ABA3" stroke-width="2" stroke-miterlimit="10"/>
<path d="M16.916 30H30.666" stroke="#54ABA3" stroke-width="2" stroke-miterlimit="10"/>
<path d="M10.666 31.25C11.3564 31.25 11.916 30.6904 11.916 30C11.916 29.3096 11.3564 28.75 10.666 28.75C9.97566 28.75 9.41602 29.3096 9.41602 30C9.41602 30.6904 9.97566 31.25 10.666 31.25Z" stroke="#54ABA3" stroke-width="2" stroke-miterlimit="10"/>
<path d="M14.323 15.6701C13.8733 14.2028 11.8473 12.5 9.41602 12.5C6.99977 12.5 4.98383 14.1819 4.51758 15.6429" stroke="#54ABA3" stroke-width="2" stroke-miterlimit="10"/>
<path d="M9.41602 17.5C13.5582 17.5 16.916 14.1421 16.916 10C16.916 5.85786 13.5582 2.5 9.41602 2.5C5.27388 2.5 1.91602 5.85786 1.91602 10C1.91602 14.1421 5.27388 17.5 9.41602 17.5Z" stroke="#54ABA3" stroke-width="2" stroke-miterlimit="10"/>
<path d="M7.07227 10.1562C7.07227 11.4507 8.12158 12.5 9.41602 12.5C10.7105 12.5 11.7598 11.4507 11.7598 10.1562V8.59375C11.7598 7.29931 10.7105 6.25 9.41602 6.25C8.12158 6.25 7.07227 7.29931 7.07227 8.59375V10.1562Z" stroke="#54ABA3" stroke-width="2" stroke-miterlimit="10"/>
<path d="M31.9162 10.3499L31.9161 13.75C31.9161 14.4404 32.4757 15.0001 33.1661 15.0001H35.6658C37.0465 15.0001 38.166 13.8232 38.166 12.2495V10.3499C38.166 8.77618 37.0467 7.50049 35.666 7.50049H31.916L31.9162 10.3499V10.3499Z" stroke="#54ABA3" stroke-width="2" stroke-miterlimit="10"/>
<path d="M20.666 16.25C20.666 14.1792 20.9873 12.1209 21.6185 10.1487L23.666 3.75H25.666L27.7136 10.1487C28.3447 12.1209 28.666 14.1792 28.666 16.25" stroke="#54ABA3" stroke-width="2" stroke-miterlimit="10"/>
<path d="M21.0332 12.5H28.299" stroke="#54ABA3" stroke-width="2" stroke-miterlimit="10"/>
<path d="M31.916 2.5V11.25" stroke="#54ABA3" stroke-width="2" stroke-miterlimit="10"/>
</g>
<defs>
<clipPath id="clip0_1032_13672">
<rect width="40" height="40" fill="white" transform="translate(0.666016)"/>
</clipPath>
</defs>
</svg>
