<svg width="24" height="24" viewBox="0 0 24 24" fill="none" xmlns="http://www.w3.org/2000/svg">
    <path d="M8.25 15.75C6.17895 15.75 4.5 17.429 4.5 19.5C4.5 21.571 6.17895 23.25 8.25 23.25C10.321 23.25 12 21.571 12 19.5V3.75C12 2.09314 10.6569 0.75 9 0.75C7.34314 0.75 6 2.09314 6 3.75C6 5.40686 7.34314 6.75 9 6.75M4.67276 20.6201C2.48854 20.5147 0.75 18.7104 0.75 16.5C0.75 14.2218 2.59684 12.375 4.875 12.375C5.91052 12.375 6.75 11.5355 6.75 10.5M6.01395 3.84814C5.77005 3.78409 5.514 3.75 5.25 3.75C3.59314 3.75 2.25 5.09314 2.25 6.75C2.25 7.12001 2.31698 7.47443 2.43953 7.80169C1.43959 8.28825 0.75 9.3132 0.75 10.5C0.75 11.678 1.4289 12.6973 2.4168 13.1882M14.25 23.25H18.3M14.25 21H19.05M18 9C18 10.6569 16.6569 12 15 12V18.75H18.75C18.75 14.5629 23.25 12.75 23.25 8.25C23.25 3.75 20.25 0.75 15.75 0.75H14.25" stroke="white" stroke-width="1.5" stroke-miterlimit="10"/>
</svg>
