<svg width="41" height="40" viewBox="0 0 41 40" fill="none" xmlns="http://www.w3.org/2000/svg">
<g clip-path="url(#clip0_796_48529)">
<path d="M2.83398 7.5V11.25M11.584 2.49944H7.83398M24.2299 2.49944H20.334M17.8343 2.49938H14.0839M2.83398 13.75V17.5M29.084 13.75V17.5M29.084 20V23.75M11.584 28.75H7.83398M17.834 28.7499H14.0839M24.084 28.7499H20.334M2.83398 20V23.6771M29.084 7.5V11.25M40.334 23.75H35.334C34.6436 23.75 34.084 23.1904 34.084 22.5V8.75C34.084 8.05963 34.6436 7.5 35.334 7.5H40.334M7.83398 40V35C7.83398 34.3096 8.39361 33.75 9.08398 33.75H22.834C23.5244 33.75 24.084 34.3096 24.084 35V40M2.20898 1.25H3.45898C3.80416 1.25 4.08398 1.52982 4.08398 1.875V3.125C4.08398 3.47018 3.80416 3.75 3.45898 3.75H2.20898C1.86381 3.75 1.58398 3.47018 1.58398 3.125V1.875C1.58398 1.52982 1.86381 1.25 2.20898 1.25ZM28.459 1.25H29.709C30.0542 1.25 30.334 1.52982 30.334 1.875V3.125C30.334 3.47018 30.0542 3.75 29.709 3.75H28.459C28.1138 3.75 27.834 3.47018 27.834 3.125V1.875C27.834 1.52982 28.1138 1.25 28.459 1.25ZM2.20898 27.5H3.45898C3.80416 27.5 4.08398 27.7798 4.08398 28.125V29.375C4.08398 29.7202 3.80416 30 3.45898 30H2.20898C1.86381 30 1.58398 29.7202 1.58398 29.375V28.125C1.58398 27.7798 1.86381 27.5 2.20898 27.5ZM27.6881 25.0729V36.9479L31.6464 32.9896L37.1881 32.1979L27.6881 25.0729ZM9.08398 7.5H22.834C23.5243 7.5 24.084 8.05964 24.084 8.75V22.5C24.084 23.1904 23.5243 23.75 22.834 23.75H9.08398C8.39363 23.75 7.83398 23.1904 7.83398 22.5V8.75C7.83398 8.05964 8.39363 7.5 9.08398 7.5Z" stroke="url(#paint0_linear_796_48529)" stroke-width="2" stroke-miterlimit="10"/>
</g>
<defs>
<linearGradient id="paint0_linear_796_48529" x1="40.334" y1="1.25" x2="1.58434" y2="40.0004" gradientUnits="userSpaceOnUse">
<stop stop-color="#407A7A"/>
<stop offset="1" stop-color="#002832"/>
</linearGradient>
<clipPath id="clip0_796_48529">
<rect width="40" height="40" fill="white" transform="translate(0.333984)"/>
</clipPath>
</defs>
</svg>
