<svg fill="none" xmlns="http://www.w3.org/2000/svg" viewBox="0 0 32 32"><g clip-path="url(#a)"><path d="M9 18v13m0-13 2.5-2.5L9 13l-2.5 2.5L9 18ZM19 4h-6m-2 0H3m16 4H8M6 8H0m19 4h-6m-7 0H2m0 8h24a1 1 0 0 1 1 1v2a1 1 0 0 1-1 1H2a1 1 0 0 1-1-1v-2a1 1 0 0 1 1-1Zm4 7h24a1 1 0 0 1 1 1v2a1 1 0 0 1-1 1H6a1 1 0 0 1-1-1v-2a1 1 0 0 1 1-1ZM30.525 7.173a.956.956 0 0 1 0 1.654l-10.001 6.028c-.667.397-1.524-.068-1.524-.827V1.972c0-.759.857-1.224 1.524-.827l10 6.028Z" stroke="currentColor" stroke-width="2" stroke-miterlimit="10"/></g><defs><clipPath id="a"><path fill="none" d="M0 0h32.001v32H0z"/></clipPath></defs></svg>
