<svg width="41" height="40" viewBox="0 0 41 40" fill="none" xmlns="http://www.w3.org/2000/svg">
<g clip-path="url(#clip0_796_52476)">
<path d="M10.6641 33.75H14.4141M10.6641 33.75C10.6641 35.8211 8.98513 37.5 6.91406 37.5C4.84299 37.5 3.16406 35.8211 3.16406 33.75C3.16406 31.6789 4.84299 30 6.91406 30C8.98513 30 10.6641 31.6789 10.6641 33.75ZM16.9141 33.75H20.6641M23.1641 33.75H26.9141M25.6448 20H29.3948M11.9141 6.25H15.6641M18.1641 6.25H21.9141M24.4141 6.25H28.1641M19.3948 20H23.1448M11.9141 20H16.9141M31.9141 32.5L34.4141 35L40.0391 29.375M36.9141 28.75H30.6641C29.9737 28.75 29.4141 29.3096 29.4141 30V37.5C29.4141 38.1904 29.9737 38.75 30.6641 38.75H38.1641C38.8544 38.75 39.4141 38.1904 39.4141 37.5V33.75M4.41406 17.5L6.91406 20L12.5391 14.375M9.05694 13.75H3.16406C2.47369 13.75 1.91406 14.3096 1.91406 15V22.5C1.91406 23.1904 2.47369 23.75 3.16406 23.75H10.6641C11.3544 23.75 11.9141 23.1904 11.9141 22.5V18.75M35.6641 25V22.5C35.6641 21.1193 34.5448 20 33.1641 20H31.8948M5.66406 10V8.75C5.66406 7.36931 6.78337 6.25 8.16406 6.25H9.41406M28.1641 2.5V13.75L31.9141 10L37.1641 9.25L28.1641 2.5Z" stroke="#002832" stroke-width="2" stroke-miterlimit="10"/>
</g>
<defs>
<clipPath id="clip0_796_52476">
<rect width="40" height="40" fill="white" transform="translate(0.664062)"/>
</clipPath>
</defs>
</svg>
