<svg width="41" height="40" viewBox="0 0 41 40" fill="none" xmlns="http://www.w3.org/2000/svg">
<g clip-path="url(#clip0_1032_13681)">
<path d="M27.834 2.5V13.75L31.584 10L36.834 9.25L27.834 2.5Z" stroke="#54ABA3" stroke-width="2" stroke-miterlimit="10"/>
<path d="M10.334 33.75H14.084" stroke="#54ABA3" stroke-width="2" stroke-miterlimit="10"/>
<path d="M16.584 33.75H20.334" stroke="#54ABA3" stroke-width="2" stroke-miterlimit="10"/>
<path d="M22.834 33.75H26.584" stroke="#54ABA3" stroke-width="2" stroke-miterlimit="10"/>
<path d="M25.3145 20H29.0645" stroke="#54ABA3" stroke-width="2" stroke-miterlimit="10"/>
<path d="M11.584 6.25H15.334" stroke="#54ABA3" stroke-width="2" stroke-miterlimit="10"/>
<path d="M17.834 6.25H21.584" stroke="#54ABA3" stroke-width="2" stroke-miterlimit="10"/>
<path d="M24.084 6.25H27.834" stroke="#54ABA3" stroke-width="2" stroke-miterlimit="10"/>
<path d="M19.0645 20H22.8145" stroke="#54ABA3" stroke-width="2" stroke-miterlimit="10"/>
<path d="M11.584 20H16.584" stroke="#54ABA3" stroke-width="2" stroke-miterlimit="10"/>
<path d="M6.58398 37.5C8.65505 37.5 10.334 35.8211 10.334 33.75C10.334 31.6789 8.65505 30 6.58398 30C4.51292 30 2.83398 31.6789 2.83398 33.75C2.83398 35.8211 4.51292 37.5 6.58398 37.5Z" stroke="#54ABA3" stroke-width="2" stroke-miterlimit="10"/>
<path d="M31.584 32.5L34.084 35L39.709 29.375" stroke="#54ABA3" stroke-width="2" stroke-miterlimit="10"/>
<path d="M36.584 28.75H30.334C29.6436 28.75 29.084 29.3096 29.084 30V37.5C29.084 38.1904 29.6436 38.75 30.334 38.75H37.834C38.5244 38.75 39.084 38.1904 39.084 37.5V33.75" stroke="#54ABA3" stroke-width="2" stroke-miterlimit="10"/>
<path d="M4.08398 17.5L6.58398 20L12.209 14.375" stroke="#54ABA3" stroke-width="2" stroke-miterlimit="10"/>
<path d="M8.72686 13.75H2.83398C2.14361 13.75 1.58398 14.3096 1.58398 15V22.5C1.58398 23.1904 2.14361 23.75 2.83398 23.75H10.334C11.0244 23.75 11.584 23.1904 11.584 22.5V18.75" stroke="#54ABA3" stroke-width="2" stroke-miterlimit="10"/>
<path d="M35.3337 25V22.5C35.3337 21.1193 34.2144 20 32.8337 20H31.5645" stroke="#54ABA3" stroke-width="2" stroke-miterlimit="10"/>
<path d="M5.33398 10V8.75C5.33398 7.36931 6.4533 6.25 7.83398 6.25H9.08398" stroke="#54ABA3" stroke-width="2" stroke-miterlimit="10"/>
</g>
<defs>
<clipPath id="clip0_1032_13681">
<rect width="40" height="40" fill="white" transform="translate(0.333984)"/>
</clipPath>
</defs>
</svg>
