<svg width="24" height="24" viewBox="0 0 24 24" fill="none" xmlns="http://www.w3.org/2000/svg">
    <path d="M1.5 4.5V6.75M6.75 1.49966H4.5M14.3375 1.49966H12M10.5002 1.49963H8.24996M1.5 8.25V10.5M17.25 8.25V10.5M17.25 12V14.25M6.75 17.25H4.5M10.5 17.25H8.24996M14.25 17.25H12M1.5 12V14.2062M17.25 4.5V6.75M24 14.25H21C20.5858 14.25 20.25 13.9142 20.25 13.5V5.25C20.25 4.83578 20.5858 4.5 21 4.5H24M4.5 24V21C4.5 20.5858 4.83578 20.25 5.25 20.25H13.5C13.9142 20.25 14.25 20.5858 14.25 21V24M1.125 0.75H1.875C2.08211 0.75 2.25 0.917893 2.25 1.125V1.875C2.25 2.08211 2.08211 2.25 1.875 2.25H1.125C0.917893 2.25 0.75 2.08211 0.75 1.875V1.125C0.75 0.917893 0.917893 0.75 1.125 0.75ZM16.875 0.75H17.625C17.8321 0.75 18 0.917893 18 1.125V1.875C18 2.08211 17.8321 2.25 17.625 2.25H16.875C16.6679 2.25 16.5 2.08211 16.5 1.875V1.125C16.5 0.917893 16.6679 0.75 16.875 0.75ZM1.125 16.5H1.875C2.08211 16.5 2.25 16.6679 2.25 16.875V17.625C2.25 17.8321 2.08211 18 1.875 18H1.125C0.917893 18 0.75 17.8321 0.75 17.625V16.875C0.75 16.6679 0.917893 16.5 1.125 16.5ZM16.4125 15.0438V22.1688L18.7875 19.7938L22.1125 19.3188L16.4125 15.0438ZM5.25 4.5H13.5C13.9142 4.5 14.25 4.83579 14.25 5.25V13.5C14.25 13.9142 13.9142 14.25 13.5 14.25H5.25C4.83579 14.25 4.5 13.9142 4.5 13.5V5.25C4.5 4.83579 4.83579 4.5 5.25 4.5Z" stroke="currentColor" stroke-width="1.5" stroke-miterlimit="10"/>
</svg>
