<svg width="24" height="24" viewBox="0 0 24 24" fill="none" xmlns="http://www.w3.org/2000/svg">
    <path d="M11.25 22.5L13.5 20.25M13.5 20.25L11.25 18M13.5 20.25H6.75M5.25 6.75C4.47334 6.75 3.84375 6.12041 3.84375 5.34375V4.40625C3.84375 3.62959 4.47334 3 5.25 3C6.02666 3 6.65625 3.62959 6.65625 4.40625V5.34375C6.65625 6.12041 6.02666 6.75 5.25 6.75ZM5.25 6.75C6.69975 6.75 7.90929 7.75909 8.18904 8.63573M5.25 6.75C3.80025 6.75 2.59066 7.75912 2.31091 8.63573M20.25 6V11.25C20.25 11.6642 19.9142 12 19.5 12H14.25M12 3.75H17.25M11.25 12H4.5C4.08578 12 3.75 12.3358 3.75 12.75V18M9.75 5.25C9.75 7.73528 7.73528 9.75 5.25 9.75C2.76472 9.75 0.75 7.73528 0.75 5.25C0.75 2.76472 2.76472 0.75 5.25 0.75C7.73528 0.75 9.75 2.76472 9.75 5.25ZM11.4933 10.5H14.0067C14.1411 10.5 14.25 10.6089 14.25 10.7433V13.2567C14.25 13.3911 14.1411 13.5 14.0067 13.5H11.4933C11.3589 13.5 11.25 13.3911 11.25 13.2567V10.7433C11.25 10.6089 11.3589 10.5 11.4933 10.5ZM17.6715 1.5H22.8285C23.0613 1.5 23.25 1.6887 23.25 1.92146V5.57854C23.25 5.8113 23.0613 6 22.8285 6H17.6715C17.4387 6 17.25 5.8113 17.25 5.57854V1.92146C17.25 1.6887 17.4387 1.5 17.6715 1.5ZM1.17146 18H6.32854C6.56131 18 6.75 18.1887 6.75 18.4215V22.0785C6.75 22.3113 6.56131 22.5 6.32854 22.5H1.17146C0.938695 22.5 0.75 22.3113 0.75 22.0785V18.4215C0.75 18.1887 0.938695 18 1.17146 18ZM23.25 19.5C23.25 21.5711 21.5711 23.25 19.5 23.25C17.4289 23.25 15.75 21.5711 15.75 19.5C15.75 17.4289 17.4289 15.75 19.5 15.75C21.5711 15.75 23.25 17.4289 23.25 19.5ZM21 19.5C21 20.3284 20.3284 21 19.5 21C18.6716 21 18 20.3284 18 19.5C18 18.6716 18.6716 18 19.5 18C20.3284 18 21 18.6716 21 19.5Z" stroke="white" stroke-width="1.5" stroke-miterlimit="10"/>
</svg>
