<svg width="41" height="40" viewBox="0 0 41 40" fill="none" xmlns="http://www.w3.org/2000/svg">
<g clip-path="url(#clip0_796_52226)">
<path d="M6.91797 8.75H19.418M6.91797 8.75V23.75M6.91797 8.75L19.418 23.75M19.418 8.75V23.75M19.418 8.75L6.91797 23.75M19.418 23.75H6.91797M23.168 13.75H32.0965M23.168 8.75H35.668M23.168 28.75H3.16797C2.47759 28.75 1.91797 28.1904 1.91797 27.5V5C1.91797 4.30963 2.47759 3.75 3.16797 3.75H38.168C38.8583 3.75 39.418 4.30963 39.418 5V18.75M36.4002 28.1434L25.7936 38.75H22.2581V35.2144L32.8647 24.6079M36.4002 28.1434L32.8647 24.6079M36.4002 28.1434L39.0518 25.4918C39.54 25.0036 39.54 24.2121 39.0518 23.724L37.2841 21.9563C36.796 21.4681 36.0045 21.4681 35.5163 21.9563L32.8647 24.6079M14.418 38.75H18.168M8.16684 32.5019V28.75M8.16797 35V36.25C8.16797 37.6307 9.28728 38.75 10.668 38.75H11.918" stroke="url(#paint0_linear_796_52226)" stroke-width="2" stroke-miterlimit="10"/>
</g>
<defs>
<linearGradient id="paint0_linear_796_52226" x1="39.418" y1="3.75" x2="4.50147" y2="41.1612" gradientUnits="userSpaceOnUse">
<stop stop-color="#407A7A"/>
<stop offset="1" stop-color="#002832"/>
</linearGradient>
<clipPath id="clip0_796_52226">
<rect width="40" height="40" fill="white" transform="translate(0.667969)"/>
</clipPath>
</defs>
</svg>
