<svg width="41" height="40" viewBox="0 0 41 40" fill="none" xmlns="http://www.w3.org/2000/svg">
<g clip-path="url(#clip0_1032_13658)">
<path d="M19.084 8.75H6.58398V23.75H19.084V8.75Z" stroke="#54ABA3" stroke-width="2" stroke-miterlimit="10"/>
<path d="M6.58398 8.75L19.084 23.75" stroke="#54ABA3" stroke-width="2" stroke-miterlimit="10"/>
<path d="M6.58398 8.75L19.084 23.75" stroke="#54ABA3" stroke-width="2" stroke-miterlimit="10"/>
<path d="M19.084 8.75L6.58398 23.75" stroke="#54ABA3" stroke-width="2" stroke-miterlimit="10"/>
<path d="M22.834 13.75H31.7625" stroke="#54ABA3" stroke-width="2" stroke-miterlimit="10"/>
<path d="M22.834 8.75H35.334" stroke="#54ABA3" stroke-width="2" stroke-miterlimit="10"/>
<path d="M22.834 28.75H2.83398C2.14361 28.75 1.58398 28.1904 1.58398 27.5V5C1.58398 4.30963 2.14361 3.75 2.83398 3.75H37.834C38.5244 3.75 39.084 4.30963 39.084 5V18.75" stroke="#54ABA3" stroke-width="2" stroke-miterlimit="10"/>
<path d="M36.066 28.1434L25.4593 38.75H21.9238V35.2145L32.5304 24.6079L36.066 28.1434Z" stroke="#54ABA3" stroke-width="2" stroke-miterlimit="10"/>
<path d="M36.0668 28.1433L38.7184 25.4917C39.2065 25.0036 39.2065 24.2121 38.7184 23.7239L36.9506 21.9562C36.4625 21.4681 35.671 21.4681 35.1829 21.9562L32.5312 24.6078" stroke="#54ABA3" stroke-width="2" stroke-miterlimit="10"/>
<path d="M14.084 38.75H17.834" stroke="#54ABA3" stroke-width="2" stroke-miterlimit="10"/>
<path d="M7.83203 32.5019V28.75" stroke="#54ABA3" stroke-width="2" stroke-miterlimit="10"/>
<path d="M7.83398 35V36.25C7.83398 37.6307 8.9533 38.75 10.334 38.75H11.584" stroke="#54ABA3" stroke-width="2" stroke-miterlimit="10"/>
</g>
<defs>
<clipPath id="clip0_1032_13658">
<rect width="40" height="40" fill="white" transform="translate(0.333984)"/>
</clipPath>
</defs>
</svg>
