<svg fill="none" xmlns="http://www.w3.org/2000/svg" viewBox="0 0 30 30"><g clip-path="url(#a)"><path d="M3.75 9h22.5m-10.5 14.25H4.5a.75.75 0 0 1-.75-.75v-18a.75.75 0 0 1 .75-.75h21a.75.75 0 0 1 .75.75v12.75M9.75 12l-3 3 3 3M15 18l3-3-3-3m-1.5-.75-2.25 7.5m5.971.75 1.5 6.75c.866 0 1.605-.805 1.747-1.902l.257-1.981c.142-1.098.88-1.903 1.746-1.903l.75 5.786c.888 0 1.669-.757 1.913-1.854L26.22 19.5M6.75 6.375a.375.375 0 1 1-.75 0 .375.375 0 0 1 .75 0Zm3 0a.375.375 0 1 1-.75 0 .375.375 0 0 1 .75 0Zm3 0a.375.375 0 1 1-.75 0 .375.375 0 0 1 .75 0Z" stroke="currentColor" stroke-width="1.5" stroke-miterlimit="10"/></g><defs><clipPath id="a"><path fill="currentColor" d="M3 3h24v24H3z"/></clipPath></defs></svg>
