<svg width="41" height="40" viewBox="0 0 41 40" fill="none" xmlns="http://www.w3.org/2000/svg">
<g clip-path="url(#clip0_796_52278)">
<path d="M14.084 26.25C10.6322 26.25 7.83398 29.0483 7.83398 32.5C7.83398 35.9517 10.6322 38.75 14.084 38.75C17.5357 38.75 20.334 35.9517 20.334 32.5V6.25C20.334 3.48856 18.0954 1.25 15.334 1.25C12.5725 1.25 10.334 3.48856 10.334 6.25C10.334 9.01144 12.5725 11.25 15.334 11.25M8.12192 34.3669C4.48155 34.1911 1.58398 31.1839 1.58398 27.5C1.58398 23.7031 4.66205 20.625 8.45898 20.625C10.1849 20.625 11.584 19.2259 11.584 17.5M10.3572 6.41356C9.95073 6.30681 9.52398 6.25 9.08398 6.25C6.32255 6.25 4.08398 8.48856 4.08398 11.25C4.08398 11.8667 4.19561 12.4574 4.39986 13.0028C2.7333 13.8138 1.58398 15.522 1.58398 17.5C1.58398 19.4633 2.71548 21.1622 4.36198 21.9804M24.084 38.75H30.834M24.084 35H32.084M30.334 15C30.334 17.7614 28.0954 20 25.334 20V31.25H31.584C31.584 24.2715 39.084 21.25 39.084 13.75C39.084 6.25 34.084 1.25 26.584 1.25H24.084" stroke="url(#paint0_linear_796_52278)" stroke-width="2" stroke-miterlimit="10"/>
</g>
<defs>
<linearGradient id="paint0_linear_796_52278" x1="39.084" y1="1.25" x2="1.58433" y2="38.7503" gradientUnits="userSpaceOnUse">
<stop stop-color="#407A7A"/>
<stop offset="1" stop-color="#002832"/>
</linearGradient>
<clipPath id="clip0_796_52278">
<rect width="40" height="40" fill="white" transform="translate(0.333984)"/>
</clipPath>
</defs>
</svg>
