<svg width="40" height="40" viewBox="0 0 40 40" fill="none" xmlns="http://www.w3.org/2000/svg">
<g clip-path="url(#clip0_1032_13646)">
<path d="M13.75 26.25C10.2983 26.25 7.5 29.0483 7.5 32.5C7.5 35.9517 10.2983 38.75 13.75 38.75C17.2017 38.75 20 35.9517 20 32.5V6.25C20 3.48856 17.7614 1.25 15 1.25C12.2386 1.25 10 3.48856 10 6.25C10 9.01144 12.2386 11.25 15 11.25" stroke="currentColor" stroke-width="2" stroke-miterlimit="10"/>
<path d="M7.78794 34.3669C4.14756 34.1911 1.25 31.1839 1.25 27.5C1.25 23.7031 4.32806 20.625 8.125 20.625C9.85087 20.625 11.25 19.2259 11.25 17.5" stroke="currentColor" stroke-width="2" stroke-miterlimit="10"/>
<path d="M10.0233 6.41356C9.61675 6.30681 9.19 6.25 8.75 6.25C5.98856 6.25 3.75 8.48856 3.75 11.25C3.75 11.8667 3.86163 12.4574 4.06588 13.0028C2.39931 13.8138 1.25 15.522 1.25 17.5C1.25 19.4633 2.3815 21.1622 4.028 21.9804" stroke="currentColor" stroke-width="2" stroke-miterlimit="10"/>
<path d="M23.75 38.75H30.5" stroke="currentColor" stroke-width="2" stroke-miterlimit="10"/>
<path d="M23.75 35H31.75" stroke="currentColor" stroke-width="2" stroke-miterlimit="10"/>
<path d="M30 15C30 17.7614 27.7614 20 25 20V31.25H31.25C31.25 24.2715 38.75 21.25 38.75 13.75C38.75 6.25 33.75 1.25 26.25 1.25H23.75" stroke="currentColor" stroke-width="2" stroke-miterlimit="10"/>
</g>
<defs>
<clipPath id="clip0_1032_13646">
<rect width="40" height="40" fill="white"/>
</clipPath>
</defs>
</svg>
