<svg xmlns="http://www.w3.org/2000/svg" fill="none" viewBox="0 0 347 120"><g filter="url(#a)"><g clip-path="url(#b)"><rect width="100" height="64" x="123.336" y="28" fill="#fff" rx="8"/><g filter="url(#c)"><path fill="#fff" d="M98.336 28h150v16h-150z"/></g><g clip-path="url(#d)"><path fill="#F9F9F8" d="M123.336 44h17.333v47h-17.333zM164.668 44h17.333v47h-17.333zM206.004 44h17.333v47h-17.333z"/><rect width="60" height="10" x="131.336" y="52" fill="#18ACB4" rx="5"/><rect width="32" height="2" x="135.336" y="56" fill="#fff" rx="1"/><rect width="111" height="10" x="154.336" y="66" fill="#18ACB4" rx="5"/><rect width="27" height="2" x="158.336" y="70" fill="#fff" rx="1"/></g><mask id="e" width="10" height="56" x="168.336" y="38" fill="#000" maskUnits="userSpaceOnUse"><path fill="#fff" d="M168.336 38h10v56h-10z"/><path fill-rule="evenodd" d="M174.336 45.83a3.001 3.001 0 0 0-1-5.83 3 3 0 0 0-1 5.83V92h2V45.83Z" clip-rule="evenodd"/></mask><path fill="#FF6159" fill-rule="evenodd" d="M174.336 45.83a3.001 3.001 0 0 0-1-5.83 3 3 0 0 0-1 5.83V92h2V45.83Z" clip-rule="evenodd"/><path fill="#fff" d="m174.336 45.83-.667-1.886-1.333.47v1.415h2Zm-2 0h2v-1.415l-1.334-.471-.666 1.885Zm0 46.17h-2v2h2v-2Zm2 0v2h2v-2h-2Zm0-49a1 1 0 0 1-.667.944l1.333 3.771A5 5 0 0 0 178.336 43h-4Zm-1-1a1 1 0 0 1 1 1h4a5 5 0 0 0-5-5v4Zm-1 1a1 1 0 0 1 1-1v-4a5 5 0 0 0-5 5h4Zm.666.944a1 1 0 0 1-.666-.944h-4c0 2.18 1.394 4.03 3.333 4.715l1.333-3.771ZM174.336 92V45.83h-4V92h4Zm0-2h-2v4h2v-4Zm-2-44.17V92h4V45.83h-4Z" mask="url(#e)"/></g><rect width="99" height="63" x="123.836" y="28.5" stroke="#D8DFE5" rx="7.5"/></g><defs><clipPath id="b"><rect width="100" height="64" x="123.336" y="28" fill="#fff" rx="8"/></clipPath><clipPath id="d"><path fill="#fff" d="M123.336 44h100v48h-100z"/></clipPath><filter id="a" width="100" height="65" x="123.336" y="28" color-interpolation-filters="sRGB" filterUnits="userSpaceOnUse"><feFlood flood-opacity="0" result="BackgroundImageFix"/><feColorMatrix in="SourceAlpha" result="hardAlpha" values="0 0 0 0 0 0 0 0 0 0 0 0 0 0 0 0 0 0 127 0"/><feOffset dy="1"/><feComposite in2="hardAlpha" operator="out"/><feColorMatrix values="0 0 0 0 0.0666667 0 0 0 0 0.0941176 0 0 0 0 0.109804 0 0 0 0.08 0"/><feBlend in2="BackgroundImageFix" result="effect1_dropShadow_2870_27150"/><feBlend in="SourceGraphic" in2="effect1_dropShadow_2870_27150" result="shape"/></filter><filter id="c" width="150" height="16" x="98.336" y="28" color-interpolation-filters="sRGB" filterUnits="userSpaceOnUse"><feFlood flood-opacity="0" result="BackgroundImageFix"/><feBlend in="SourceGraphic" in2="BackgroundImageFix" result="shape"/><feColorMatrix in="SourceAlpha" result="hardAlpha" values="0 0 0 0 0 0 0 0 0 0 0 0 0 0 0 0 0 0 127 0"/><feOffset dy="-1"/><feComposite in2="hardAlpha" k2="-1" k3="1" operator="arithmetic"/><feColorMatrix values="0 0 0 0 0.847059 0 0 0 0 0.87451 0 0 0 0 0.898039 0 0 0 1 0"/><feBlend in2="shape" result="effect1_innerShadow_2870_27150"/></filter></defs></svg>
