<svg width="233" height="72" viewBox="0 0 233 72" fill="none" xmlns="http://www.w3.org/2000/svg">
<path d="M55.2401 41.6138C53.5024 41.6138 52.4845 40.2583 52.4845 38.5703C52.4845 36.8823 53.5024 35.5524 55.2401 35.5524C56.4565 35.5524 57.3998 36.3452 57.5984 37.4706H61.3966C61.0987 34.2736 58.5418 32.0485 55.2153 32.0485C51.4419 32.0485 48.6367 34.8107 48.6367 38.5703C48.6367 42.3555 51.4419 45.1176 55.2153 45.1176C58.5418 45.1176 61.0987 42.8926 61.3966 39.6956H57.5984C57.3998 40.821 56.4565 41.6138 55.2401 41.6138Z" fill="#2E6862"/>
<path d="M62.3933 26.6265V44.7852H66.4397V26.6265H62.3933Z" fill="#2E6862"/>
<path d="M70.4225 30.4373C71.7134 30.4373 72.7809 29.4398 72.7809 28.1099C72.7809 26.7544 71.7134 25.757 70.4225 25.757C69.1068 25.757 68.0642 26.7544 68.0642 28.1099C68.0642 29.4398 69.1068 30.4373 70.4225 30.4373ZM68.4365 32.381V44.7852H72.4581V32.381H68.4365Z" fill="#2E6862"/>
<path d="M80.3983 41.6138C78.6606 41.6138 77.6428 40.2583 77.6428 38.5703C77.6428 36.8823 78.6606 35.5524 80.3983 35.5524C81.6148 35.5524 82.5581 36.3452 82.7567 37.4706H86.5549C86.257 34.2736 83.7 32.0485 80.3735 32.0485C76.6002 32.0485 73.795 34.8107 73.795 38.5703C73.795 42.3555 76.6002 45.1176 80.3735 45.1176C83.7 45.1176 86.257 42.8926 86.5549 39.6956H82.7567C82.5581 40.821 81.6148 41.6138 80.3983 41.6138Z" fill="#2E6862"/>
<path d="M96.1409 44.7852H100.957L95.9919 37.445L100.56 32.381H95.7685L91.598 37.0102V26.6265H87.5515V44.7852H91.598V42.3299L93.2612 40.4885L96.1409 44.7852Z" fill="#2E6862"/>
<path d="M116.091 32.0485C114.527 32.0485 113.286 32.5345 112.095 33.5831C111.226 32.5601 109.96 32.0485 108.421 32.0485C107.08 32.0485 106.162 32.4578 105.317 33.1483V32.381H101.271V44.7852H105.317V36.8567C105.913 36.1151 106.608 35.8081 107.403 35.8081C108.421 35.8081 109.265 36.2941 109.265 37.9821V44.7852H113.286V37.4706C113.286 37.2148 113.286 36.9846 113.261 36.7544C113.882 36.0383 114.527 35.8081 115.247 35.8081C116.389 35.8081 117.233 36.422 117.233 38.1099V44.7852H121.255V37.5984C121.255 34.0179 119.219 32.0485 116.091 32.0485Z" fill="#90B2B2"/>
<path d="M131.462 32.381V33.0204C130.569 32.4066 129.501 32.0485 128.161 32.0485C124.909 32.0485 122.178 34.8619 122.178 38.5703C122.178 42.2532 124.909 45.1176 128.161 45.1176C129.501 45.1176 130.569 44.734 131.462 44.1202V44.7852H135.484V32.381H131.462ZM128.98 41.5882C127.341 41.5882 126.125 40.2839 126.125 38.5703C126.125 36.8567 127.341 35.5524 128.98 35.5524C129.849 35.5524 130.693 35.7826 131.462 36.6521V40.4885C130.693 41.358 129.849 41.5882 128.98 41.5882Z" fill="#90B2B2"/>
<path d="M145.836 32.381V32.9948C144.943 32.4066 143.875 32.0485 142.535 32.0485C139.283 32.0485 136.552 34.5805 136.552 38.3657C136.552 41.7161 139.283 44.3504 142.535 44.3504C143.875 44.3504 144.943 44.0179 145.836 43.4552V44.9386C145.836 46.6266 144.769 47.4962 143.404 47.4962C141.914 47.4962 141.07 46.7801 140.871 45.6292H136.9C137.098 48.8517 139.754 51 143.404 51C147.177 51 149.858 48.7494 149.858 44.8619V32.381H145.836ZM143.354 41.0511C141.716 41.0511 140.499 39.7212 140.499 38.3657C140.499 36.5754 141.716 35.4501 143.354 35.4501C144.223 35.4501 145.067 35.7058 145.836 36.601V39.8747C145.067 40.7698 144.223 41.0511 143.354 41.0511Z" fill="#90B2B2"/>
<path d="M153.831 30.4373C155.121 30.4373 156.189 29.4398 156.189 28.1099C156.189 26.7544 155.121 25.757 153.831 25.757C152.515 25.757 151.472 26.7544 151.472 28.1099C151.472 29.4398 152.515 30.4373 153.831 30.4373ZM151.845 32.381V44.7852H155.866V32.381H151.845Z" fill="#90B2B2"/>
<path d="M163.806 41.6138C162.069 41.6138 161.051 40.2583 161.051 38.5703C161.051 36.8823 162.069 35.5524 163.806 35.5524C165.023 35.5524 165.966 36.3452 166.165 37.4706H169.963C169.665 34.2736 167.108 32.0485 163.782 32.0485C160.008 32.0485 157.203 34.8107 157.203 38.5703C157.203 42.3555 160.008 45.1176 163.782 45.1176C167.108 45.1176 169.665 42.8926 169.963 39.6956H166.165C165.966 40.821 165.023 41.6138 163.806 41.6138Z" fill="#90B2B2"/>
<path d="M179.549 44.7852H184.365L179.4 37.445L183.968 32.381H179.177L175.006 37.0102V26.6265H170.96V44.7852H175.006V42.3299L176.669 40.4885L179.549 44.7852Z" fill="#90B2B2"/>
<path fill-rule="evenodd" clip-rule="evenodd" d="M147.04 24.2306C147.326 25.6202 148.388 26.7145 149.737 27.009C148.388 27.3035 147.326 28.3978 147.04 29.7874C146.757 28.4087 145.709 27.3207 144.375 27.0161V27.0019C145.709 26.6973 146.757 25.6093 147.04 24.2306Z" fill="#90B2B2"/>
<path fill-rule="evenodd" clip-rule="evenodd" d="M157.673 21.1289C157.89 22.1864 158.699 23.0191 159.725 23.2432C158.699 23.4674 157.89 24.3001 157.673 25.3576C157.457 24.3084 156.66 23.4804 155.645 23.2486V23.2379C156.66 23.0061 157.457 22.1781 157.673 21.1289Z" fill="#90B2B2"/>
<path fill-rule="evenodd" clip-rule="evenodd" d="M162.488 21C162.666 21.8683 163.33 22.552 164.173 22.7361C163.33 22.9201 162.666 23.6039 162.488 24.4722C162.31 23.6107 161.656 22.9308 160.822 22.7405V22.7317C161.656 22.5413 162.31 21.8615 162.488 21Z" fill="#90B2B2"/>
<path fill-rule="evenodd" clip-rule="evenodd" d="M160.434 24.7811C160.589 25.531 161.162 26.1215 161.89 26.2804C161.162 26.4394 160.589 27.0299 160.434 27.7798C160.281 27.0357 159.716 26.4486 158.996 26.2843V26.2766C159.716 26.1122 160.281 25.5251 160.434 24.7811Z" fill="#90B2B2"/>
</svg>
