<svg width="233" height="72" viewBox="0 0 233 72" fill="none" xmlns="http://www.w3.org/2000/svg">
<path d="M110.514 32.4028V38.567C110.514 40.8042 109.659 41.8752 107.88 41.8752C106.309 41.8752 105.454 40.9708 105.454 38.7336V32.4028H102.635V39.757C102.635 42.6368 104.183 44.4694 106.817 44.4694C108.342 44.4694 109.821 43.7078 110.514 42.5892L110.722 44.16H113.333V32.4028H110.514ZM115.141 40.59C115.141 42.8986 116.943 44.4694 119.785 44.4694C122.604 44.4694 124.568 42.9938 124.568 40.6138C124.568 38.805 123.597 37.9006 121.68 37.4484L119.623 36.9486C118.653 36.7106 118.144 36.2822 118.144 35.6158C118.144 34.7352 118.791 34.2116 119.9 34.2116C120.986 34.2116 121.633 34.8542 121.656 35.8538H124.337C124.314 33.569 122.581 32.0458 120.016 32.0458C117.382 32.0458 115.487 33.4262 115.487 35.7348C115.487 37.615 116.481 38.6146 118.537 39.0906L120.594 39.5904C121.61 39.8284 121.911 40.2568 121.911 40.8518C121.911 41.7086 121.194 42.256 119.877 42.256C118.583 42.256 117.844 41.6134 117.821 40.59H115.141ZM131.821 44.4694C134.801 44.4694 136.881 42.9224 137.366 40.352H134.755C134.432 41.4706 133.415 42.0894 131.867 42.0894C129.995 42.0894 128.932 41.0422 128.724 38.9716L137.32 38.9478V38.0672C137.32 34.402 135.148 32.0458 131.728 32.0458C128.378 32.0458 126.044 34.5924 126.044 38.2814C126.044 41.9228 128.424 44.4694 131.821 44.4694ZM131.751 34.4258C133.438 34.4258 134.524 35.4968 134.524 37.1152H128.794C129.071 35.354 130.088 34.4258 131.751 34.4258ZM138.444 32.4028V34.8304H140.084V44.16H142.88V34.8304H145.606V32.4028H142.88V30.9748C142.88 29.8086 143.226 29.047 144.659 29.047H145.653V26.5718C145.167 26.4766 144.636 26.4528 144.197 26.4528C141.725 26.4528 140.084 27.7856 140.084 30.9748V32.4028H138.444ZM155.146 32.4028V38.567C155.146 40.8042 154.291 41.8752 152.512 41.8752C150.941 41.8752 150.086 40.9708 150.086 38.7336V32.4028H147.267V39.757C147.267 42.6368 148.815 44.4694 151.449 44.4694C152.974 44.4694 154.453 43.7078 155.146 42.5892L155.354 44.16H157.965V32.4028H155.146ZM163.719 44.16V26.4528H160.923V44.16H163.719Z" fill="#2E6862"/>
<path d="M73.4066 19C76.58 19 79.1648 21.6626 79.1648 24.9312V38.2173C79.1648 39.8258 80.4366 41.1394 82.0017 41.1394H83.3839V44.145H82.0017C78.8284 44.145 76.2469 41.4859 76.2469 38.2173V24.9312C76.2469 23.3191 74.9717 22.0056 73.4066 22.0056C71.8416 22.0056 70.5664 23.3191 70.5664 24.9312V38.2173C70.5664 43.2563 73.6534 47.5682 77.9863 49.2425C79.239 49.7295 80.5902 49.9944 82.0034 49.9944C83.5685 49.9944 84.8436 48.6844 84.8436 47.0723V24.9312C84.8436 21.6626 87.4252 19 90.5985 19C93.7717 19 96.3601 21.6626 96.3601 24.9312V38.2173C96.3601 41.4859 93.7717 44.145 90.5985 44.145H89.2197V41.1394H90.5985C92.167 41.1394 93.4421 39.8258 93.4421 38.2173V24.9312C93.4421 23.3191 92.167 22.0056 90.5985 22.0056C89.0368 22.0056 87.7616 23.3191 87.7616 24.9312V47.0723C87.7616 50.341 85.1802 53 82.0034 53C80.6074 53 79.2632 52.7938 77.9863 52.4099C72.021 50.6147 67.6484 44.9306 67.6484 38.2173V24.9312C67.6484 21.6608 70.2299 19 73.4066 19Z" fill="#6F2DE7"/>
<path d="M67.6484 24.9315V38.2176C67.6484 44.9309 72.021 50.615 77.9863 52.4102V49.2446C73.6534 47.5703 70.5664 43.2583 70.5664 38.2193V24.9333C70.5664 23.3212 71.8416 22.0077 73.4066 22.0077V19.0021C70.2299 19.0003 67.6484 21.6611 67.6484 24.9315Z" fill="url(#paint0_linear_1864_12444)"/>
<path d="M73.4062 19V22.0056C74.9713 22.0056 76.2465 23.3191 76.2465 24.9312V38.2173C76.2465 41.4859 78.828 44.145 82.0013 44.145H83.3835V41.1394H82.0013C80.4362 41.1394 79.1645 39.8259 79.1645 38.2173V24.9312C79.1645 21.6608 76.5796 19 73.4062 19Z" fill="url(#paint1_linear_1864_12444)"/>
<path d="M77.9863 49.2425V52.4081C79.2615 52.7921 80.6075 52.9983 82.0034 52.9983C85.1802 52.9983 87.7616 50.3392 87.7616 47.0706V24.9312C87.7616 23.3191 89.0369 22.0056 90.5985 22.0056V19C87.4251 19 84.8437 21.6626 84.8437 24.9312V47.0723C84.8437 48.6844 83.5685 49.9944 82.0034 49.9944C80.5902 49.9944 79.2391 49.7295 77.9863 49.2425Z" fill="url(#paint2_linear_1864_12444)"/>
<path d="M89.2188 41.1394V44.145H90.5975C93.7708 44.145 96.3591 41.4859 96.3591 38.2173V24.9312C96.3591 21.6626 93.7708 19 90.5975 19V22.0056C92.1661 22.0056 93.4412 23.3191 93.4412 24.9312V38.2173C93.4412 39.8259 92.1661 41.1394 90.5975 41.1394H89.2188Z" fill="url(#paint3_linear_1864_12444)"/>
<defs>
<linearGradient id="paint0_linear_1864_12444" x1="74.6179" y1="48.3013" x2="68.3386" y2="20.9907" gradientUnits="userSpaceOnUse">
<stop stop-color="#B7CDCD"/>
<stop offset="1" stop-color="#5D8E8E"/>
</linearGradient>
<linearGradient id="paint1_linear_1864_12444" x1="89.6029" y1="48.9917" x2="78.6153" y2="33.83" gradientUnits="userSpaceOnUse">
<stop stop-color="#4A8181"/>
<stop offset="1" stop-color="#5D8E8E"/>
</linearGradient>
<linearGradient id="paint2_linear_1864_12444" x1="81.3502" y1="50.0704" x2="88.854" y2="29.9762" gradientUnits="userSpaceOnUse">
<stop stop-color="#B7CDCD"/>
<stop offset="1" stop-color="#5D8E8E"/>
</linearGradient>
<linearGradient id="paint3_linear_1864_12444" x1="81.3438" y1="49.8542" x2="93.6707" y2="30.3094" gradientUnits="userSpaceOnUse">
<stop stop-color="#4A8181"/>
<stop offset="1" stop-color="#5D8E8E"/>
</linearGradient>
</defs>
</svg>
