<svg width="233" height="72" viewBox="0 0 233 72" fill="none" xmlns="http://www.w3.org/2000/svg">
<path fill-rule="evenodd" clip-rule="evenodd" d="M53.3187 25.4918L48.0035 36.696C47.7272 37.2784 48.1389 37.9576 48.7682 37.9576H52.0152L49.1131 45.8051C48.7745 46.7208 49.9274 47.4318 50.5511 46.692L60.3666 35.0489C60.8451 34.4814 60.4537 33.5974 59.724 33.5974H55.7152L59.7429 26.3104C60.066 25.726 59.6562 25 59.0033 25H54.0834C53.7582 25 53.4614 25.1909 53.3187 25.4918ZM82.007 45.0337V26.7187H85.419V45.0337H82.007ZM75.4875 45.2812C74.2701 45.2812 73.1808 44.9842 72.2197 44.3902C71.2586 43.7962 70.4977 42.9877 69.937 41.9647C69.3924 40.9252 69.1201 39.7703 69.1201 38.4998C69.1201 37.1963 69.3924 36.033 69.937 35.01C70.4977 33.9705 71.2586 33.1537 72.2197 32.5597C73.1808 31.9657 74.2701 31.6687 75.4875 31.6687C76.6248 31.6687 77.6581 31.8915 78.5871 32.337C79.5323 32.766 80.2691 33.36 80.7977 34.119L78.9476 36.4455C78.7233 36.132 78.443 35.8432 78.1066 35.5792C77.7702 35.3152 77.4018 35.109 77.0013 34.9605C76.6168 34.812 76.2164 34.7377 75.7999 34.7377C75.1431 34.7377 74.5584 34.9028 74.0458 35.2327C73.5332 35.5462 73.1328 35.9917 72.8444 36.5692C72.5561 37.1302 72.4119 37.7655 72.4119 38.475C72.4119 39.168 72.5641 39.795 72.8685 40.356C73.1728 40.917 73.5813 41.3625 74.0939 41.6925C74.6065 42.0225 75.1751 42.1875 75.7999 42.1875C76.2164 42.1875 76.6088 42.1297 76.9773 42.0142C77.3617 41.8823 77.7141 41.6925 78.0345 41.445C78.3549 41.1975 78.6592 40.9087 78.9476 40.5787L80.7977 42.9052C80.2691 43.6147 79.5162 44.1922 78.5391 44.6377C77.578 45.0667 76.5608 45.2812 75.4875 45.2812ZM90.0492 44.415C91.0744 44.9925 92.2277 45.2812 93.5092 45.2812C94.8068 45.2812 95.9601 44.9925 96.9693 44.415C97.9785 43.821 98.7714 43.0125 99.3481 41.9895C99.9408 40.9665 100.237 39.8032 100.237 38.4998C100.237 37.1632 99.9408 35.9835 99.3481 34.9605C98.7714 33.9375 97.9785 33.1372 96.9693 32.5597C95.9601 31.9657 94.8068 31.6687 93.5092 31.6687C92.2277 31.6687 91.0744 31.9657 90.0492 32.5597C89.04 33.1372 88.2391 33.9375 87.6464 34.9605C87.0697 35.9835 86.7814 37.1632 86.7814 38.4998C86.7814 39.8032 87.0697 40.9665 87.6464 41.9895C88.2391 43.0125 89.04 43.821 90.0492 44.415ZM95.1912 41.742C94.7106 42.072 94.15 42.237 93.5092 42.237C92.8845 42.237 92.3239 42.072 91.8273 41.742C91.3307 41.412 90.9382 40.9665 90.6499 40.4055C90.3616 39.8445 90.2254 39.2092 90.2414 38.4998C90.2254 37.7572 90.3616 37.1055 90.6499 36.5445C90.9382 35.9835 91.3307 35.538 91.8273 35.208C92.3239 34.878 92.8845 34.713 93.5092 34.713C94.15 34.713 94.7106 34.878 95.1912 35.208C95.6878 35.5215 96.0722 35.967 96.3446 36.5445C96.6329 37.1055 96.7691 37.7572 96.753 38.4998C96.7691 39.2092 96.6329 39.8445 96.3446 40.4055C96.0722 40.9665 95.6878 41.412 95.1912 41.742ZM106.176 45.2812C105.263 45.2812 104.47 45.075 103.797 44.6625C103.125 44.2335 102.604 43.6313 102.236 42.8557C101.883 42.0637 101.707 41.1232 101.707 40.0342V31.941H105.119V39.3907C105.119 40.3147 105.327 41.0407 105.744 41.5687C106.176 42.0802 106.769 42.336 107.522 42.336C107.906 42.336 108.251 42.2782 108.555 42.1628C108.875 42.0308 109.148 41.8493 109.372 41.6182C109.596 41.3872 109.772 41.115 109.9 40.8015C110.029 40.488 110.093 40.1415 110.093 39.762V31.941H113.505V45.0337H110.261L110.196 43.2183C110.08 43.3835 109.949 43.5432 109.804 43.6972C109.356 44.1922 108.819 44.58 108.194 44.8605C107.57 45.141 106.897 45.2812 106.176 45.2812ZM117.931 44.415C118.828 44.9925 119.829 45.2812 120.935 45.2812C121.527 45.2812 122.088 45.1987 122.617 45.0337C123.161 44.8523 123.642 44.613 124.058 44.316C124.391 44.0749 124.671 43.8143 124.9 43.5342L124.971 45.0337H128.191V26.7187H124.803V33.35C124.606 33.1304 124.382 32.9247 124.13 32.733C123.698 32.403 123.201 32.1472 122.641 31.9658C122.096 31.7677 121.527 31.6687 120.935 31.6687C119.813 31.6687 118.812 31.9657 117.931 32.5597C117.05 33.1537 116.353 33.9622 115.841 34.9852C115.344 36.0082 115.096 37.1798 115.096 38.4998C115.096 39.8032 115.344 40.9748 115.841 42.0142C116.353 43.0373 117.05 43.8375 117.931 44.415ZM123.361 41.8657C122.897 42.1958 122.336 42.3607 121.679 42.3607C121.055 42.3607 120.502 42.1958 120.022 41.8657C119.541 41.5358 119.165 41.082 118.892 40.5045C118.636 39.927 118.508 39.2588 118.508 38.4998C118.508 37.7243 118.636 37.0477 118.892 36.4702C119.165 35.8762 119.541 35.4225 120.022 35.109C120.502 34.779 121.055 34.614 121.679 34.614C122.336 34.614 122.897 34.779 123.361 35.109C123.842 35.4225 124.218 35.8762 124.491 36.4702C124.763 37.0477 124.899 37.7243 124.899 38.4998C124.899 39.2588 124.763 39.927 124.491 40.5045C124.218 41.082 123.842 41.5358 123.361 41.8657ZM134.77 45.2812C133.6 45.2812 132.551 45.0833 131.622 44.6872C130.709 44.2912 129.964 43.7302 129.388 43.0042L131.526 41.1232C132.023 41.6677 132.567 42.0637 133.16 42.3112C133.769 42.5422 134.385 42.6577 135.01 42.6577C135.234 42.6577 135.443 42.633 135.635 42.5835C135.827 42.5175 135.995 42.435 136.139 42.336C136.284 42.2205 136.388 42.0885 136.452 41.94C136.532 41.7915 136.572 41.6182 136.572 41.4202C136.572 41.0572 136.428 40.7767 136.139 40.5787C136.011 40.4797 135.771 40.3725 135.419 40.257C135.082 40.125 134.65 39.9848 134.121 39.8363C133.304 39.6218 132.615 39.3743 132.055 39.0937C131.494 38.7968 131.037 38.4585 130.685 38.079C130.397 37.7655 130.172 37.4025 130.012 36.99C129.868 36.5775 129.796 36.1237 129.796 35.6287C129.796 34.8368 130.02 34.1438 130.469 33.5497C130.917 32.9557 131.51 32.4937 132.247 32.1637C133 31.8337 133.817 31.6687 134.698 31.6687C135.355 31.6687 135.987 31.7512 136.596 31.9162C137.221 32.0812 137.797 32.3205 138.326 32.634C138.871 32.931 139.343 33.2857 139.744 33.6982L137.918 35.802C137.629 35.505 137.301 35.2492 136.932 35.0347C136.564 34.8038 136.196 34.6222 135.827 34.4902C135.459 34.3417 135.122 34.2675 134.818 34.2675C134.546 34.2675 134.297 34.2922 134.073 34.3417C133.865 34.3912 133.689 34.4737 133.544 34.5892C133.4 34.6882 133.288 34.812 133.208 34.9605C133.144 35.109 133.112 35.274 133.112 35.4555C133.112 35.637 133.152 35.8102 133.232 35.9753C133.328 36.1237 133.456 36.264 133.616 36.396C133.777 36.495 134.033 36.6105 134.385 36.7425C134.754 36.8745 135.226 37.023 135.803 37.188C136.572 37.4025 137.221 37.6417 137.749 37.9057C138.278 38.1697 138.702 38.475 139.023 38.8215C139.311 39.1185 139.511 39.465 139.624 39.861C139.752 40.2405 139.816 40.653 139.816 41.0985C139.816 41.907 139.591 42.633 139.143 43.2765C138.71 43.9035 138.11 44.3985 137.341 44.7615C136.588 45.108 135.731 45.2812 134.77 45.2812ZM142.497 35.0842V45.0337H145.909V35.0842H148.528V31.941H145.909V28.6245H142.497V31.941H140.118V35.0842H142.497ZM155.496 45.2812C154.214 45.2812 153.061 44.9925 152.036 44.415C151.027 43.821 150.226 43.0125 149.633 41.9895C149.056 40.9665 148.768 39.8032 148.768 38.4998C148.768 37.1632 149.056 35.9835 149.633 34.9605C150.226 33.9375 151.027 33.1372 152.036 32.5597C153.061 31.9657 154.214 31.6687 155.496 31.6687C156.793 31.6687 157.947 31.9657 158.956 32.5597C159.965 33.1372 160.758 33.9375 161.335 34.9605C161.927 35.9835 162.224 37.1632 162.224 38.4998C162.224 39.8032 161.927 40.9665 161.335 41.9895C160.758 43.0125 159.965 43.821 158.956 44.415C157.947 44.9925 156.793 45.2812 155.496 45.2812ZM155.496 42.237C156.137 42.237 156.697 42.072 157.178 41.742C157.674 41.412 158.059 40.9665 158.331 40.4055C158.62 39.8445 158.756 39.2092 158.74 38.4998C158.756 37.7572 158.62 37.1055 158.331 36.5445C158.059 35.967 157.674 35.5215 157.178 35.208C156.697 34.878 156.137 34.713 155.496 34.713C154.871 34.713 154.31 34.878 153.814 35.208C153.317 35.538 152.925 35.9835 152.637 36.5445C152.348 37.1055 152.212 37.7572 152.228 38.4998C152.212 39.2092 152.348 39.8445 152.637 40.4055C152.925 40.9665 153.317 41.412 153.814 41.742C154.31 42.072 154.871 42.237 155.496 42.237ZM163.79 31.941V45.0337H167.226V38.277C167.226 37.848 167.29 37.4602 167.418 37.1137C167.562 36.7672 167.754 36.4702 167.995 36.2228C168.251 35.9587 168.539 35.7607 168.86 35.6287C169.196 35.4803 169.548 35.406 169.917 35.406C170.205 35.406 170.485 35.4473 170.758 35.5297C171.046 35.5958 171.278 35.67 171.455 35.7525L172.368 31.9162C172.191 31.8337 171.975 31.776 171.719 31.743C171.479 31.6935 171.214 31.6687 170.926 31.6687C170.285 31.6687 169.669 31.8337 169.076 32.1637C168.499 32.4772 167.995 32.9062 167.562 33.4507C167.408 33.6522 167.268 33.8616 167.143 34.0788L167.081 31.941H163.79ZM178.816 45.2812C177.438 45.2812 176.229 44.9925 175.187 44.415C174.162 43.8375 173.361 43.0455 172.785 42.039C172.224 41.0325 171.944 39.8857 171.944 38.5987C171.944 37.5757 172.104 36.6435 172.424 35.802C172.744 34.944 173.193 34.2097 173.77 33.5992C174.346 32.9887 175.027 32.5185 175.812 32.1885C176.613 31.842 177.486 31.6687 178.431 31.6687C179.296 31.6687 180.089 31.8337 180.81 32.1637C181.547 32.4772 182.18 32.931 182.708 33.525C183.253 34.1025 183.669 34.7872 183.958 35.5792C184.246 36.3712 184.382 37.2375 184.366 38.178L184.342 39.267H175.274C175.353 39.6682 175.484 40.0395 175.668 40.3808C175.988 40.9583 176.445 41.4037 177.037 41.7172C177.646 42.0308 178.359 42.1875 179.176 42.1875C179.737 42.1875 180.249 42.0967 180.714 41.9152C181.178 41.7337 181.683 41.4202 182.228 40.9747L183.837 43.326C183.389 43.7385 182.884 44.0933 182.324 44.3902C181.763 44.6872 181.186 44.91 180.594 45.0585C180.001 45.207 179.408 45.2812 178.816 45.2812ZM175.548 36.3465C175.446 36.5703 175.366 36.8178 175.307 37.089H181.122V37.0147C181.09 36.5527 180.946 36.1485 180.69 35.802C180.449 35.4555 180.137 35.1832 179.753 34.9852C179.368 34.7707 178.944 34.6635 178.479 34.6635C177.758 34.6635 177.15 34.812 176.653 35.109C176.173 35.3895 175.804 35.802 175.548 36.3465Z" fill="#2E6862"/>
</svg>
