<svg width="234" height="72" viewBox="0 0 234 72" fill="none" xmlns="http://www.w3.org/2000/svg">
<g clip-path="url(#clip0_1864_12529)">
<path d="M106.592 45.6602C105.214 45.6602 103.926 45.4139 102.729 44.9212C101.532 44.4105 100.48 43.7081 99.5733 42.8142C98.6666 41.9202 97.9591 40.8802 97.4514 39.6944C96.9617 38.4903 96.7168 37.195 96.7168 35.8084C96.7168 34.4401 96.9617 33.163 97.4514 31.9772C97.9591 30.7914 98.6573 29.7606 99.5462 28.8849C100.453 27.9909 101.505 27.2976 102.702 26.805C103.899 26.3125 105.187 26.0662 106.565 26.0662C107.526 26.0662 108.46 26.203 109.367 26.4767C110.292 26.7503 111.126 27.1334 111.87 27.626C112.614 28.1186 113.221 28.6842 113.693 29.3227L111.788 31.3204C110.138 29.7332 108.397 28.9396 106.565 28.9396C105.277 28.9396 104.117 29.2406 103.083 29.8427C102.049 30.4447 101.224 31.2657 100.607 32.3056C100.009 33.3455 99.7093 34.5131 99.7093 35.8084C99.7093 36.7571 99.8908 37.6602 100.253 38.5177C100.616 39.3569 101.115 40.0957 101.75 40.7343C102.403 41.3728 103.146 41.8745 103.981 42.2394C104.833 42.6044 105.731 42.7866 106.674 42.7866C107.635 42.7866 108.506 42.6044 109.285 42.2394C110.084 41.8745 110.718 41.3819 111.19 40.7617C111.68 40.1231 111.925 39.4207 111.925 38.6545V38.4903H106.511V35.5621H114.944C114.999 35.8723 115.035 36.1642 115.053 36.4378C115.071 36.6933 115.08 36.9487 115.08 37.2041C115.08 38.8825 114.699 40.3603 113.938 41.6374C113.194 42.8963 112.178 43.8814 110.891 44.5928C109.603 45.3045 108.17 45.6602 106.592 45.6602Z" fill="#2E6862"/>
<path d="M119.233 51.6807L121.654 46.0704L115.016 31.0193H118.28L122.742 41.5825C122.833 41.7832 122.951 42.1025 123.096 42.5405L123.504 41.391L127.231 31.0193H130.55L124.673 45.3865L122.252 51.6807H119.233Z" fill="#2E6862"/>
<path d="M136.514 45.9914C135.335 45.9914 134.256 45.663 133.277 45.0061C132.316 44.3495 131.545 43.4555 130.964 42.3243C130.384 41.1932 130.094 39.9161 130.094 38.4931C130.094 37.0518 130.384 35.7747 130.964 34.6619C131.563 33.5307 132.361 32.6459 133.358 32.0074C134.374 31.3688 135.508 31.0496 136.759 31.0496C137.829 31.0496 138.772 31.2867 139.588 31.7611C140.423 32.2172 141.057 32.8101 141.493 33.5399V31.0496H144.322V45.7178H141.493V43.5011C141.003 44.1943 140.305 44.7873 139.398 45.2797C138.509 45.7541 137.548 45.9914 136.514 45.9914ZM137.249 43.3917C138.101 43.3917 138.854 43.1817 139.507 42.7621C140.16 42.3425 140.668 41.7679 141.03 41.0381C141.411 40.2901 141.601 39.4418 141.601 38.4931C141.601 37.5626 141.411 36.7326 141.03 36.0028C140.668 35.273 140.16 34.6983 139.507 34.2787C138.854 33.8591 138.101 33.6493 137.249 33.6493C136.414 33.6493 135.671 33.8591 135.018 34.2787C134.383 34.6983 133.875 35.273 133.494 36.0028C133.132 36.7326 132.95 37.5626 132.95 38.4931C132.95 39.4418 133.132 40.2901 133.494 41.0381C133.875 41.7679 134.383 42.3425 135.018 42.7621C135.671 43.1817 136.414 43.3917 137.249 43.3917Z" fill="#2E6862"/>
<path d="M152.37 45.9914C151.191 45.9914 150.112 45.663 149.132 45.0061C148.171 44.3495 147.4 43.4555 146.82 42.3243C146.239 41.1932 145.949 39.9161 145.949 38.4931C145.949 37.0518 146.239 35.7747 146.82 34.6619C147.418 33.5307 148.216 32.6459 149.214 32.0074C150.23 31.3688 151.363 31.0496 152.615 31.0496C153.685 31.0496 154.628 31.2867 155.444 31.7611C156.278 32.2172 156.913 32.8101 157.348 33.5399V31.0496H160.178V45.7178H157.348V43.5011C156.859 44.1943 156.16 44.7873 155.253 45.2797C154.365 45.7541 153.404 45.9914 152.37 45.9914ZM153.104 43.3917C153.957 43.3917 154.709 43.1817 155.362 42.7621C156.015 42.3425 156.523 41.7679 156.886 41.0381C157.267 40.2901 157.457 39.4418 157.457 38.4931C157.457 37.5626 157.267 36.7326 156.886 36.0028C156.523 35.273 156.015 34.6983 155.362 34.2787C154.709 33.8591 153.957 33.6493 153.104 33.6493C152.27 33.6493 151.526 33.8591 150.873 34.2787C150.239 34.6983 149.731 35.273 149.35 36.0028C148.987 36.7326 148.806 37.5626 148.806 38.4931C148.806 39.4418 148.987 40.2901 149.35 41.0381C149.731 41.7679 150.239 42.3425 150.873 42.7621C151.526 43.1817 152.27 43.3917 153.104 43.3917Z" fill="#2E6862"/>
<path d="M162.73 45.7178V31.0496H165.533V33.5946C166.004 32.8831 166.666 32.281 167.518 31.7884C168.389 31.2959 169.287 31.0496 170.212 31.0496C173.477 31.0496 175.109 33.0199 175.109 36.9606V45.7178H172.307V37.1522C172.307 34.6892 171.3 33.5125 169.287 33.6219C168.58 33.6219 167.936 33.777 167.355 34.0872C166.793 34.3791 166.349 34.7804 166.022 35.2913C165.696 35.8021 165.533 36.3768 165.533 37.0153V45.7178H162.73Z" fill="#2E6862"/>
<path d="M82.6504 35.9678C82.6504 39.8694 85.8038 43.0427 89.6815 43.0427C89.6882 43.0427 89.6928 43.0427 89.6995 43.0427V35.97H82.6504V35.9678Z" fill="#90B2B2"/>
<path d="M75.1841 24.3745C75.6818 26.1956 76.8536 27.7162 78.4848 28.6495C79.5412 29.255 80.7402 29.576 81.9528 29.576C84.4549 29.576 86.7738 28.2352 88.0316 26.0704L75.8582 19C75.8582 19 75.8582 19 75.8582 19.0023C74.9284 20.6435 74.6909 22.5511 75.1863 24.3745H75.1841Z" fill="#90B2B2"/>
<path d="M70.125 43.3411C68.4962 42.4078 66.6004 42.1689 64.786 42.6696C63.035 43.1523 61.5668 44.2722 60.6348 45.8247L72.8058 52.8951C74.6496 49.5191 73.4642 45.2534 70.125 43.3411Z" fill="#90B2B2"/>
<path d="M66.658 29.5783C67.8864 29.5783 69.1013 29.2505 70.169 28.629C71.7934 27.6821 72.9562 26.1569 73.4403 24.3313C73.9177 22.533 73.6801 20.6595 72.7729 19.041L60.5996 26.1114C61.8597 28.2512 64.174 29.5783 66.6557 29.5783H66.658Z" fill="#90B2B2"/>
<path d="M83.9598 42.5991C82.1455 42.112 80.2496 42.3648 78.6253 43.3117C75.3156 45.2398 74.1528 49.4851 75.9875 52.8405L88.1587 45.7701C87.2129 44.1994 85.7289 43.0749 83.9598 42.5991Z" fill="#90B2B2"/>
<path d="M66.0312 35.968C66.0312 32.0663 62.8775 28.8931 59 28.8931V43.0406C62.8775 43.0406 66.0312 39.8674 66.0312 35.9657V35.968Z" fill="#90B2B2"/>
</g>
<defs>
<clipPath id="clip0_1864_12529">
<rect width="116.109" height="34" fill="white" transform="translate(59 19)"/>
</clipPath>
</defs>
</svg>
