<svg width="234" height="72" viewBox="0 0 234 72" fill="none" xmlns="http://www.w3.org/2000/svg">
<path fill-rule="evenodd" clip-rule="evenodd" d="M100.426 26.5657L107.802 19H133.576V45.4343L126.199 53H100.426V26.5657ZM113.713 24.6973L114.624 23.7402V23.7629H116.823V26.019L115.912 26.9533H113.713V24.6973ZM113.707 28.4343H116.818V38.2332H113.707V28.4343ZM109.913 31.1689C109.913 31.1689 109.691 30.9638 109.358 30.7815C109.002 30.5992 108.624 30.5308 108.269 30.5308C108.002 30.5308 107.691 30.5764 107.447 30.7131C107.358 30.7587 107.247 30.8499 107.18 30.9638C107.113 31.0777 107.091 31.1917 107.091 31.3284C107.091 31.4651 107.113 31.5791 107.18 31.693C107.247 31.807 107.358 31.8753 107.469 31.9209C107.891 32.1032 108.335 32.2399 108.824 32.3311C109.202 32.3995 109.558 32.5362 109.913 32.6729C110.268 32.8097 110.602 33.0147 110.913 33.2426C111.202 33.4705 111.446 33.7895 111.602 34.1086C111.802 34.496 111.868 34.9062 111.868 35.3391C111.89 35.8633 111.779 36.3646 111.535 36.8204C111.291 37.2761 110.957 37.6635 110.535 37.9598C110.135 38.2332 109.691 38.4156 109.202 38.5295C108.735 38.6662 108.224 38.7118 107.736 38.7118C106.958 38.7118 106.18 38.5751 105.447 38.3244C104.758 38.0965 103.87 37.3445 103.87 37.3445L105.625 35.5215C105.862 35.8024 105.965 35.8524 106.215 35.9752C106.27 36.0018 106.331 36.0318 106.402 36.0684C106.802 36.2735 107.247 36.3874 107.691 36.3874C107.958 36.3874 108.224 36.319 108.447 36.2051C108.535 36.1595 108.669 36.0456 108.735 35.9316C108.802 35.7949 108.802 35.6582 108.802 35.5442C108.802 35.3847 108.758 35.2708 108.669 35.1341C108.602 35.0201 108.469 34.929 108.335 34.8834C107.869 34.6783 107.38 34.5188 106.891 34.4276C106.536 34.3593 106.225 34.2453 105.891 34.1086C105.558 33.9719 105.269 33.7895 105.003 33.5617C104.736 33.3338 104.514 33.0375 104.358 32.7413C104.181 32.3767 104.114 31.9665 104.114 31.5563C104.092 31.0094 104.203 30.508 104.492 30.0295C104.736 29.6193 105.047 29.2775 105.447 29.004C105.847 28.7534 106.269 28.5483 106.714 28.4115C107.158 28.2748 107.647 28.2292 108.113 28.2292C108.847 28.2292 109.535 28.366 110.202 28.5938C110.846 28.7989 111.579 29.3914 111.579 29.3914L109.913 31.1689ZM109.358 42.2209C109.691 42.4032 109.913 42.6083 109.913 42.6083L111.579 40.8308C111.579 40.8308 110.846 40.2383 110.202 40.0332C109.535 39.8054 108.847 39.6686 108.113 39.6686C107.647 39.6686 107.158 39.7142 106.714 39.8509C106.269 39.9877 105.847 40.1928 105.447 40.4434C105.047 40.7169 104.736 41.0587 104.492 41.4689C104.203 41.9475 104.092 42.4488 104.114 42.9957C104.114 43.4059 104.181 43.8161 104.358 44.1807C104.514 44.4769 104.736 44.7732 105.003 45.0011C105.269 45.229 105.558 45.4113 105.891 45.548C106.225 45.6847 106.536 45.7987 106.891 45.867C107.38 45.9582 107.869 46.1177 108.335 46.3228C108.469 46.3684 108.602 46.4595 108.669 46.5735C108.758 46.7102 108.802 46.8241 108.802 46.9836C108.802 47.0976 108.802 47.2343 108.735 47.371C108.669 47.485 108.535 47.5989 108.447 47.6445C108.224 47.7584 107.958 47.8268 107.691 47.8268C107.247 47.8268 106.802 47.7129 106.402 47.5078C106.331 47.4713 106.27 47.4413 106.216 47.4147L106.215 47.4146L106.215 47.4146C105.965 47.2918 105.862 47.2418 105.625 46.9609L103.87 48.7839C103.87 48.7839 104.758 49.5359 105.447 49.7638C106.18 50.0145 106.958 50.1512 107.736 50.1512C108.224 50.1512 108.735 50.1056 109.202 49.9689C109.691 49.855 110.135 49.6726 110.535 49.3992C110.957 49.1029 111.313 48.7155 111.535 48.2598C111.779 47.804 111.89 47.3027 111.868 46.7785C111.868 46.3456 111.802 45.9354 111.602 45.548C111.446 45.229 111.202 44.9099 110.913 44.682C110.602 44.4542 110.268 44.2491 109.913 44.1123L109.913 44.1123C109.557 43.9756 109.202 43.8389 108.824 43.7705C108.335 43.6794 107.891 43.5426 107.469 43.3603C107.358 43.3147 107.247 43.2464 107.18 43.1324C107.113 43.0185 107.091 42.9046 107.091 42.7678C107.091 42.6311 107.113 42.5172 107.18 42.4032C107.247 42.2893 107.358 42.1981 107.447 42.1525C107.691 42.0158 108.002 41.9702 108.269 41.9702C108.624 41.9702 109.002 42.0386 109.358 42.2209ZM123.147 40.0113L120.02 40.0112V40.9568V45.8131C120.02 46.2349 119.859 46.6392 119.572 46.9375C119.285 47.2358 118.896 47.4036 118.491 47.4042C118.085 47.4036 117.696 47.2358 117.41 46.9375C117.123 46.6392 116.962 46.2349 116.961 45.8131V40.0113H113.835V40.9568V46.2743C113.835 48.6194 115.498 50.3258 117.537 50.3258H117.715C118.934 50.3258 119.488 49.9846 120.154 49.4311V50.1229H123.147V49.1775V40.0113Z" fill="#2E6862"/>
</svg>
