<svg width="233" height="72" viewBox="0 0 233 72" fill="none" xmlns="http://www.w3.org/2000/svg">
<g clip-path="url(#clip0_1866_12716)">
<path d="M72.1685 31.7447L72.8967 28.1573C73.023 27.5368 73.625 27.1369 74.227 27.2656C74.8357 27.3943 75.228 28.001 75.1018 28.6215L74.4682 31.7447H82.3933L82.409 31.6666C83.0155 28.6583 81.1149 25.719 78.1636 25.0985L69.5012 23.283L67.7832 31.7447H72.1707H72.1685Z" fill="#2E6862"/>
<path d="M66.0564 40.2433L65.3462 43.7433C65.2358 44.2857 64.7668 44.658 64.246 44.658C64.1693 44.658 64.0926 44.6511 64.016 44.635C63.4072 44.5063 63.0149 43.8996 63.1412 43.2791L63.7567 40.2456H55.5228L55.5092 40.3168C54.9027 43.3251 56.8034 46.2644 59.7547 46.8849L68.7147 48.7625L70.444 40.2456H66.0564V40.2433Z" fill="#2E6862"/>
<path d="M66.5234 37.9475H70.911L71.7046 34.0406H67.3171L66.5234 37.9475Z" fill="#2E6862"/>
<path d="M65.0162 34.0405H61.5666C60.9443 34.0405 60.4415 33.528 60.4415 32.8938C60.4415 32.2595 60.9465 31.747 61.5666 31.747H65.4829L67.2956 22.821L64.7163 22.281C61.765 21.6628 58.879 23.6001 58.2725 26.6083L55.9863 37.9474H64.2225L65.0162 34.0382V34.0405Z" fill="#2E6862"/>
<path d="M73.2087 37.9475H76.4306C77.0528 37.9475 77.5556 38.4599 77.5556 39.0942C77.5556 39.7285 77.0506 40.241 76.4306 40.241H72.742L70.918 49.2198L73.1997 49.6978C76.151 50.316 79.0347 48.3787 79.6434 45.3704L81.9296 34.0383H74.0023L73.2087 37.9475Z" fill="#2E6862"/>
<path d="M89.9717 39.5663V33.4095H88.6289V31.8709H89.9717V28.3044H91.7448V31.8709H93.59V33.4095H91.7448V39.2724C91.7448 41.4219 92.1053 41.8858 92.9682 41.8858C93.2791 41.8858 93.5675 41.8376 93.7365 41.7641L93.928 43.3509C93.4977 43.4727 93.0425 43.5461 92.5874 43.5461C90.8143 43.5461 89.9762 42.4461 89.9762 39.5641L89.9717 39.5663Z" fill="#90B2B2"/>
<path d="M95.1995 39.6143C95.1995 36.9757 97.3804 35.4854 99.8969 35.4854C101.19 35.4854 102.317 35.8275 103.299 36.5348V35.8275C103.299 34.0455 102.292 33.1155 100.375 33.1155C99.2233 33.1155 98.027 33.4829 96.9951 34.0938L96.3485 32.6769C97.5696 31.9443 99.1512 31.5034 100.543 31.5034C103.396 31.5034 104.952 32.8721 104.952 35.5818V43.3506H103.466L103.346 42.471C102.292 43.2288 101.068 43.6675 99.6784 43.6675C96.8261 43.6675 95.1973 42.0072 95.1973 39.612L95.1995 39.6143ZM100.016 42.2047C101.309 42.2047 102.364 41.7408 103.274 41.0335V38.2732C102.364 37.3455 101.237 36.9551 100.016 36.9551C98.0517 36.9551 96.9005 38.0045 96.9005 39.5454C96.9005 41.0863 98.0495 42.2069 100.016 42.2069V42.2047Z" fill="#90B2B2"/>
<path d="M107.923 47.6752L108.667 46.1595C109.985 46.9656 111.375 47.356 112.596 47.356C114.777 47.356 116.047 46.1343 116.047 43.9618C116.047 43.4244 116.072 42.8136 116.095 42.3497C114.946 43.3257 113.747 43.7184 112.38 43.7184C109.072 43.7184 106.916 41.2267 106.916 37.6121C106.916 33.9974 109.241 31.5057 112.693 31.5057C114.585 31.5057 116.264 32.0431 117.796 33.1431V43.8906C117.796 47.1401 115.759 48.9727 112.618 48.9727C110.965 48.9727 109.286 48.4353 107.921 47.6775L107.923 47.6752ZM112.643 42.1063C113.889 42.1063 115.016 41.7159 116.023 40.6893V34.0939C115.04 33.4095 113.961 33.1156 112.715 33.1156C110.271 33.1156 108.714 34.9711 108.714 37.5868C108.714 40.2025 110.246 42.1063 112.643 42.1063V42.1063Z" fill="#90B2B2"/>
<path d="M119.256 32.1166V31.8732H121.101L123.066 36.8081C123.665 38.3467 124.24 39.9358 124.6 40.8865C124.936 39.9588 125.51 38.3467 126.11 36.8081L128.074 31.8732H129.847V32.1166L125.15 43.3529H123.951L119.254 32.1166H119.256Z" fill="#2E6862"/>
<path d="M130.256 37.6601C130.256 34.142 132.581 31.5034 136.008 31.5034C139.051 31.5034 141.327 33.6528 141.327 37.024C141.327 37.3661 141.302 37.6601 141.279 37.7565H132.006V37.8047C132.006 40.4915 133.685 42.1289 136.057 42.1289C137.733 42.1289 138.957 41.5433 139.795 40.1999L141.065 41.1047C140.083 42.8385 138.263 43.718 136.01 43.718C132.606 43.718 130.258 41.4216 130.258 37.6601H130.256ZM132.101 36.2914H139.554C139.362 34.3119 137.925 32.9938 135.96 32.9938C133.996 32.9938 132.461 34.3119 132.101 36.2914Z" fill="#2E6862"/>
<path d="M143.481 31.8708H145.11L145.204 33.3359C146.09 32.1395 147.385 31.5034 148.895 31.5034C151.172 31.5034 152.704 32.9456 152.704 35.4854V43.3506H150.931V35.7793C150.931 34.0455 149.949 33.1178 148.487 33.1178C146.714 33.1178 145.252 34.5094 145.252 36.5877V43.3529H143.479V31.8708H143.481Z" fill="#2E6862"/>
<path d="M155.318 39.736V31.8708H157.091V39.4421C157.091 41.1758 158.074 42.1036 159.536 42.1036C161.286 42.1036 162.771 40.712 162.771 38.6337V31.8685H164.544V43.3482H162.89L162.818 41.9314C161.908 43.1025 160.638 43.7134 159.128 43.7134C156.85 43.7134 155.318 42.2712 155.318 39.7314V39.736Z" fill="#2E6862"/>
<path d="M166.676 37.6601C166.676 34.142 169.001 31.5034 172.428 31.5034C175.472 31.5034 177.747 33.6528 177.747 37.024C177.747 37.3661 177.724 37.6601 177.7 37.7565H168.424V37.8047C168.424 40.4915 170.103 42.1289 172.475 42.1289C174.154 42.1289 175.375 41.5433 176.213 40.1999L177.483 41.1047C176.501 42.8385 174.679 43.718 172.426 43.718C169.024 43.718 166.674 41.4216 166.674 37.6601H166.676ZM168.521 36.2914H175.974C175.782 34.3119 174.345 32.9938 172.378 32.9938C170.411 32.9938 168.879 34.3119 168.521 36.2914Z" fill="#2E6862"/>
</g>
<defs>
<clipPath id="clip0_1866_12716">
<rect width="123" height="28" fill="white" transform="translate(55 22)"/>
</clipPath>
</defs>
</svg>
