<svg width="234" height="72" viewBox="0 0 234 72" fill="none" xmlns="http://www.w3.org/2000/svg">
<path d="M167.911 40.79V37.8299H174.498V34.1462H167.911V31.21H174.988V27.4066H163.549V31.3894C162.675 28.1362 160.194 27 157.247 27C155.535 27 153.752 27.4425 152.488 28.3874V27.4066H139.034V30.1993C137.532 28.2738 135.167 27 132.028 27C127.724 27 124.87 29.3801 123.711 32.5794V27.4066H119.354V34.0744H113.658V27.4066H109.302V40.79H102.458V27.4066H98.1016V44.5874H113.664V37.8718H119.36V44.5874H123.717V39.4206C124.876 42.6199 127.73 45 132.034 45C137.776 45 140.939 40.7661 140.939 36C140.939 34.2718 140.52 32.6213 139.716 31.21H143.589V44.5874H147.946V31.21H150.817C150.799 31.3654 150.782 31.5269 150.782 31.6884C150.759 35.3482 153.455 36.4784 156.216 37.3455C158.348 38.0213 159.472 38.4757 159.472 39.7495C159.472 40.7362 158.93 41.3163 157.293 41.3163C155.843 41.3163 154.69 40.2578 154.527 38.7688H149.978C150.613 43.0266 153.613 45 157.288 45C160.06 45 162.792 43.81 163.543 41.2924V44.5934H175.052V40.79H167.905H167.911ZM132.034 41.1967C129.29 41.1967 127.485 39.0797 127.485 36C127.485 32.9203 129.29 30.8033 132.034 30.8033C134.777 30.8033 136.582 32.9203 136.582 36C136.582 39.0797 134.754 41.1967 132.034 41.1967ZM158.138 34.2419C156.053 33.59 155.092 33.0399 155.092 32.0292C155.092 31.1143 155.913 30.6598 157.084 30.6598C158.394 30.6598 159.146 31.2638 159.448 32.7528H163.549V38.2664C162.867 35.8505 160.567 35.0133 158.138 34.2478V34.2419Z" fill="#2E6862"/>
<path d="M58.9492 45H91.3492L88.9334 41.9691H72.402L75.1633 38.6006L73.2946 36.257L68.6791 41.9691H65.0492L71.4895 33.9573L69.6208 31.6137L58.9492 45ZM75.1403 38.5579L76.9924 40.8653L82.5453 33.9573L80.6766 31.6137L75.1403 38.5579ZM77.0122 27L71.4781 33.942L73.3238 36.257L78.8809 29.3436L77.0122 27Z" fill="#2E6862"/>
</svg>
