<svg width="233" height="72" viewBox="0 0 233 72" fill="none" xmlns="http://www.w3.org/2000/svg">
<g clip-path="url(#clip0_1864_12383)">
<path d="M81.339 48.644C77.4545 50.9304 72.6377 50.9304 68.7754 48.644C67.6877 48.0037 66.3115 48.3924 65.69 49.5128C65.0685 50.6331 65.4458 52.0507 66.5335 52.6909C69.1528 54.2456 72.105 55.0002 75.0572 55.0002C78.0094 55.0002 80.9616 54.2228 83.5809 52.6909C84.6685 52.0507 85.0459 50.6331 84.4243 49.5128C83.8029 48.3924 82.4267 48.0037 81.339 48.644Z" fill="#2E6862"/>
<path d="M82.9813 17C77.4098 17 72.8594 21.6871 72.8594 27.426C72.8594 27.5403 72.8594 27.6546 72.8594 27.769C72.8594 27.8375 72.8594 27.8833 72.8594 27.9518V43.3622C72.8594 44.6425 73.8805 45.6944 75.1235 45.6944C76.3665 45.6944 77.3876 44.6425 77.3876 43.3622V36.1143C78.9857 37.2118 80.9169 37.8519 82.9813 37.8519C88.575 37.8519 93.1032 33.1649 93.1032 27.426C93.1032 21.6871 88.575 17 82.9813 17ZM82.9813 33.2106C79.8959 33.2106 77.3876 30.627 77.3876 27.4488C77.3876 24.2708 79.8959 21.6871 82.9813 21.6871C86.0666 21.6871 88.575 24.2708 88.575 27.4488C88.5972 30.6041 86.0666 33.2106 82.9813 33.2106Z" fill="#2E6862"/>
<path d="M98.0078 44.2311V36.1601V36.1372V31.976C98.0078 31.3587 98.4962 30.8557 99.0955 30.8557C99.6726 30.8557 100.139 31.2672 100.228 31.7245C100.982 31.2215 101.981 30.8557 103.024 30.8557C105.755 30.8557 107.997 33.2564 107.997 36.1601C107.997 39.0639 105.755 41.396 103.024 41.396C102.003 41.396 101.004 41.0759 100.272 40.5272V44.254C100.272 44.8484 99.7614 45.3972 99.0955 45.3972C98.4962 45.3743 98.0078 44.8255 98.0078 44.2311ZM100.272 36.1372C100.272 36.9603 100.538 37.7606 101.071 38.2408C101.582 38.8352 102.27 39.1324 103.024 39.1324C103.712 39.1324 104.423 38.8352 104.956 38.2408C105.422 37.7606 105.755 36.9603 105.755 36.1372C105.755 35.3141 105.422 34.5597 104.956 34.0109C104.423 33.4393 103.735 33.142 103.024 33.142C102.27 33.142 101.582 33.4393 101.071 34.0109C100.538 34.5597 100.272 35.3141 100.272 36.1372Z" fill="#2E6862"/>
<path d="M111.216 40.2528C111.216 40.9159 110.705 41.4189 110.062 41.4189C109.551 41.4189 109.13 41.0302 108.974 40.5501C108.952 40.4586 108.93 40.3671 108.93 40.2528V27.792C108.93 27.1289 109.44 26.6259 110.062 26.6259C110.705 26.6259 111.216 27.1289 111.216 27.792V31.4731C111.882 31.1072 112.614 30.8557 113.414 30.8557C115.9 30.8557 117.875 32.9363 117.875 35.4742V40.2528C117.875 40.9159 117.387 41.4189 116.743 41.4189C116.099 41.4189 115.611 40.9159 115.611 40.2528V35.4742C115.611 34.2396 114.634 33.2107 113.391 33.1878C112.193 33.2107 111.216 34.2167 111.194 35.4742V40.2528H111.216Z" fill="#2E6862"/>
<path d="M119.363 36.1372C119.385 33.2564 121.561 30.8557 124.358 30.8557C127.021 30.8557 129.13 32.9134 129.308 35.7486V35.8629C129.308 35.9086 129.308 36 129.285 36.0458C129.219 36.5488 128.797 36.8918 128.22 36.8918H121.694C121.805 37.3719 122.027 37.9206 122.382 38.2865C122.804 38.7895 123.625 39.1782 124.358 39.2467C125.09 39.3154 125.978 39.1095 126.489 38.7209C126.91 38.2636 127.754 38.3093 128.02 38.6523C128.287 38.9496 128.486 39.5897 128.02 40.0242C127.021 40.9845 125.8 41.4188 124.358 41.4188C121.539 41.396 119.385 38.9952 119.363 36.1372ZM121.583 35.0855H127.376C127.177 34.2395 126.133 33.0049 124.336 32.8449C122.626 32.9363 121.761 34.2167 121.583 35.0855Z" fill="#2E6862"/>
<path d="M139.251 35.2456V40.2985C139.251 40.9158 138.785 41.4188 138.185 41.4188C137.608 41.4188 137.098 40.9158 137.098 40.2985V35.2456C137.098 34.0567 136.143 33.1192 134.967 33.1192C133.813 33.1192 132.925 34.0795 132.925 35.2456V40.2985C132.925 40.3671 132.925 40.4357 132.88 40.5043C132.769 41.0073 132.325 41.4188 131.793 41.4188C131.171 41.4188 130.705 40.9158 130.705 40.2985V35.2456V31.976C130.705 31.3587 131.171 30.8557 131.793 30.8557C132.214 30.8557 132.614 31.1071 132.792 31.5187C133.413 31.1071 134.168 30.8557 134.967 30.8557C137.364 30.8557 139.251 32.8449 139.251 35.2456Z" fill="#2E6862"/>
<path d="M142.114 39.8642C141.226 38.9268 140.693 37.6236 140.693 36.1374C140.693 34.6969 141.226 33.4622 142.114 32.4334C143.046 31.4502 144.223 30.8329 145.643 30.8329C146.997 30.8329 148.218 31.4502 149.062 32.4334C149.994 33.4394 150.504 34.6969 150.504 36.1374C150.504 37.6236 149.994 38.9268 149.062 39.8642C148.218 40.8474 146.997 41.4647 145.643 41.4647C144.223 41.4647 143.024 40.8474 142.114 39.8642ZM142.936 36.1374C142.936 37.0519 143.201 37.7836 143.668 38.378C144.178 38.881 144.866 39.1554 145.643 39.1554C146.353 39.1554 147.02 38.881 147.53 38.378C148.04 37.7836 148.329 37.0519 148.329 36.1374C148.329 35.2685 148.04 34.5141 147.53 33.9424C147.02 33.4851 146.353 33.1422 145.643 33.1422C144.866 33.1422 144.178 33.4851 143.668 33.9424C143.201 34.5141 142.936 35.2914 142.936 36.1374Z" fill="#2E6862"/>
<path d="M160.56 35.2227V35.2913V40.2985C160.56 40.9158 160.071 41.4188 159.473 41.4188C158.896 41.4188 158.363 40.9158 158.363 40.2985V35.2913V35.2227C158.341 34.0567 157.408 33.1192 156.254 33.1192C155.122 33.1192 154.19 34.0795 154.19 35.2913V40.2985C154.19 40.3442 154.167 40.4128 154.167 40.4357V40.5043C154.145 40.55 154.145 40.5958 154.101 40.6415V40.7558C153.923 41.1445 153.502 41.4417 153.08 41.4417C152.991 41.4417 152.947 41.4188 152.88 41.4188C152.392 41.2817 151.992 40.8701 151.992 40.3214V35.2913V35.2685V31.9989C151.992 31.3359 152.48 30.8557 153.08 30.8557C153.502 30.8557 153.901 31.0843 154.057 31.4959C154.722 31.0843 155.477 30.8557 156.254 30.8557C157.541 30.8557 158.696 31.4044 159.473 32.319C160.227 31.4044 161.403 30.8557 162.691 30.8557C165.044 30.8557 166.953 32.8449 166.953 35.2913V40.2985C166.953 40.9158 166.464 41.4188 165.865 41.4188C165.266 41.4188 164.755 40.9158 164.755 40.2985V35.2913C164.755 34.0795 163.823 33.1192 162.691 33.1192C161.537 33.1192 160.605 34.0567 160.56 35.2227Z" fill="#2E6862"/>
</g>
<defs>
<clipPath id="clip0_1864_12383">
<rect width="102.221" height="38" fill="white" transform="translate(65.3906 17)"/>
</clipPath>
</defs>
</svg>
