<svg width="234" height="72" viewBox="0 0 234 72" fill="none" xmlns="http://www.w3.org/2000/svg">
<path fill-rule="evenodd" clip-rule="evenodd" d="M56.6086 26.7667C56.588 26.6317 56.5778 26.4953 56.5779 26.3588C56.492 25.8015 56.234 25.2848 55.8397 24.8804C55.4454 24.4761 54.9345 24.2042 54.378 24.1026C53.8214 24.0011 53.247 24.0749 52.7345 24.3138C52.222 24.5527 51.797 24.9448 51.5185 25.4356C51.2401 25.9264 51.122 26.4914 51.1807 27.0522C51.2395 27.613 51.4721 28.1416 51.8463 28.5644C52.2205 28.9873 52.7176 29.2835 53.2686 29.4118C53.8195 29.54 54.3968 29.494 54.9203 29.2801C55.0065 29.2342 55.0954 29.1933 55.1863 29.1578C55.5027 29.0317 55.8436 28.9787 56.1835 29.0027C56.5233 29.0267 56.8533 29.127 57.1487 29.2963C57.444 29.4655 57.6971 29.6992 57.8889 29.9799C58.0806 30.2605 58.2061 30.5808 58.2559 30.9167C58.2721 31.0162 58.2806 31.1167 58.2815 31.2175C58.3579 31.7766 58.6081 32.2979 58.9969 32.7082C59.3857 33.1184 59.8936 33.3971 60.4494 33.5051C61.0053 33.613 61.581 33.5449 62.096 33.3102C62.611 33.0755 63.0393 32.686 63.3208 32.1964C63.556 31.7852 63.6877 31.3234 63.7045 30.8504C63.7546 30.5145 63.8801 30.1943 64.0718 29.9136C64.2635 29.6328 64.5164 29.3989 64.8116 29.2293C65.1068 29.0597 65.4366 28.9587 65.7764 28.934C66.1163 28.9092 66.4573 28.9613 66.7741 29.0864C66.8661 29.1216 66.9551 29.1642 67.0401 29.2138C67.5625 29.4262 68.1382 29.4712 68.6874 29.3427C69.2365 29.2142 69.7319 28.9185 70.1048 28.4966C70.4777 28.0748 70.7095 27.5477 70.7682 26.9886C70.8268 26.4295 70.7093 25.866 70.432 25.3765C70.1547 24.8869 69.7314 24.4955 69.2207 24.2566C68.7101 24.0177 68.1375 23.9432 67.5824 24.0433C67.0273 24.1434 66.5172 24.4133 66.123 24.8154C65.7288 25.2176 65.47 25.732 65.3826 26.2874C65.3827 26.4239 65.3724 26.5603 65.3519 26.6953C65.2884 27.0545 65.1386 27.3931 64.9153 27.682C64.6919 27.971 64.4017 28.2018 64.0693 28.3546C63.737 28.5074 63.3724 28.5777 63.0069 28.5596C62.6413 28.5414 62.2856 28.4353 61.9702 28.2503C61.5923 28.1049 61.1866 28.046 60.7828 28.0778C60.379 28.1095 59.9876 28.2312 59.6373 28.4338C59.3347 28.5824 58.9989 28.651 58.6621 28.6332C58.3253 28.6153 57.9987 28.5115 57.7137 28.3318C57.426 28.1677 57.1782 27.9424 56.9881 27.6718C56.7979 27.4012 56.6701 27.0922 56.6137 26.7667" fill="#2E6862"/>
<path fill-rule="evenodd" clip-rule="evenodd" d="M70.8969 35.3625C71.0256 35.4108 71.1505 35.4687 71.2704 35.5358C71.7958 35.7369 72.3711 35.7701 72.9163 35.6308C73.4615 35.4915 73.9497 35.1865 74.3132 34.7582C74.6766 34.3299 74.8973 33.7994 74.9446 33.2405C74.9919 32.6816 74.8635 32.1218 74.5772 31.6389C74.2909 31.156 73.8608 30.7738 73.3467 30.5454C72.8326 30.317 72.26 30.2537 71.7081 30.3643C71.1563 30.4749 70.6527 30.7539 70.2672 31.1626C69.8816 31.5712 69.6333 32.0894 69.5565 32.6451C69.5616 32.7436 69.5616 32.8423 69.5565 32.9408C69.5056 33.2762 69.3794 33.5958 69.1875 33.876C68.9956 34.1562 68.7428 34.3897 68.4479 34.5592C68.153 34.7286 67.8236 34.8297 67.4841 34.8549C67.1446 34.8801 66.8038 34.8288 66.4869 34.7048C66.3942 34.6675 66.3036 34.6249 66.2158 34.5773C65.6916 34.3651 65.1139 34.3212 64.5635 34.4519C64.0131 34.5826 63.5174 34.8813 63.1455 35.3063C62.7737 35.7313 62.5443 36.2614 62.4894 36.8226C62.4345 37.3839 62.5568 37.9481 62.8392 38.4367C63.0823 38.8484 63.4187 39.1976 63.8215 39.4564C64.0879 39.6674 64.3031 39.9357 64.4509 40.2411C64.5988 40.5465 64.6757 40.8813 64.6757 41.2204C64.6757 41.5595 64.5988 41.8943 64.4509 42.1997C64.3031 42.5052 64.0879 42.7734 63.8215 42.9844C63.7446 43.0451 63.6644 43.1012 63.581 43.1527C63.1348 43.4972 62.8074 43.9716 62.6442 44.51C62.481 45.0485 62.4902 45.6242 62.6704 46.1572C62.8506 46.6903 63.193 47.1541 63.6499 47.4843C64.1068 47.8146 64.6556 47.9948 65.22 47.9999C65.7844 48.005 66.3364 47.8348 66.7993 47.513C67.2622 47.1911 67.6129 46.7335 67.8029 46.2039C67.9929 45.6742 68.0125 45.0987 67.8592 44.5574C67.7059 44.0161 67.3872 43.5358 66.9474 43.1833C66.8278 43.1157 66.7147 43.0372 66.6097 42.9488C66.3552 42.7378 66.1504 42.4736 66.0098 42.1749C65.8692 41.8762 65.7963 41.5503 65.7963 41.2204C65.7975 40.8205 65.9046 40.428 66.1067 40.0824C66.3088 39.7369 66.5988 39.4506 66.9474 39.2525C67.2655 39.0016 67.5227 38.6825 67.6999 38.3188C67.8771 37.9551 67.9696 37.5562 67.9706 37.152C67.9897 36.8189 68.0937 36.4962 68.2727 36.2143C68.4517 35.9324 68.6999 35.7007 68.9938 35.5409C69.2813 35.3758 69.6017 35.2756 69.9323 35.2474C70.2629 35.2192 70.5957 35.2637 70.9072 35.3778" fill="#90B2B2"/>
<path fill-rule="evenodd" clip-rule="evenodd" d="M51.0573 35.3625C50.9286 35.4108 50.8037 35.4687 50.6838 35.5358C50.1584 35.7369 49.5831 35.7701 49.0379 35.6308C48.4927 35.4915 48.0045 35.1865 47.641 34.7582C47.2776 34.3299 47.0569 33.7994 47.0096 33.2405C46.9623 32.6816 47.0907 32.1218 47.377 31.6389C47.6633 31.156 48.0934 30.7738 48.6075 30.5454C49.1216 30.317 49.6942 30.2537 50.2461 30.3643C50.7979 30.4749 51.3015 30.7539 51.687 31.1626C52.0726 31.5712 52.3209 32.0894 52.3977 32.6451C52.3926 32.7436 52.3926 32.8423 52.3977 32.9408C52.4486 33.2762 52.5748 33.5958 52.7667 33.876C52.9586 34.1562 53.2114 34.3897 53.5063 34.5592C53.8012 34.7286 54.1306 34.8297 54.4701 34.8549C54.8096 34.8801 55.1504 34.8288 55.4673 34.7048C55.56 34.6675 55.6505 34.6249 55.7384 34.5773C56.2626 34.3633 56.8408 34.3183 57.3919 34.4486C57.9431 34.5788 58.4395 34.8778 58.8114 35.3036C59.1833 35.7293 59.4121 36.2604 59.4656 36.8224C59.5191 37.3843 59.3947 37.9489 59.1099 38.4367C58.8692 38.8502 58.5323 39.1999 58.1276 39.4564C57.862 39.668 57.6477 39.9364 57.5003 40.2418C57.353 40.5471 57.2765 40.8816 57.2765 41.2204C57.2765 41.5592 57.353 41.8937 57.5003 42.1991C57.6477 42.5044 57.862 42.7728 58.1276 42.9844C58.2044 43.0451 58.2847 43.1012 58.368 43.1527C58.812 43.4973 59.1373 43.9711 59.2989 44.5082C59.4605 45.0454 59.4504 45.6194 59.27 46.1506C59.0896 46.6818 58.7478 47.1439 58.292 47.4728C57.8362 47.8017 57.2891 47.9812 56.7263 47.9863C56.1636 47.9914 55.6133 47.8219 55.1515 47.5013C54.6898 47.1807 54.3396 46.7249 54.1496 46.197C53.9595 45.6692 53.9389 45.0955 54.0906 44.5555C54.2424 44.0155 54.559 43.5359 54.9966 43.1833C55.3469 42.9874 55.6386 42.7021 55.8416 42.3567C56.0446 42.0113 56.1517 41.6182 56.1517 41.2179C56.1517 40.8176 56.0446 40.4245 55.8416 40.079C55.6386 39.7336 55.3469 39.4483 54.9966 39.2525C54.679 39.0011 54.4222 38.6819 54.2451 38.3183C54.068 37.9547 53.9751 37.5561 53.9734 37.152C53.9543 36.8189 53.8503 36.4962 53.6713 36.2143C53.4922 35.9324 53.2441 35.7007 52.9502 35.5409C52.6627 35.3758 52.3423 35.2756 52.0117 35.2474C51.6811 35.2192 51.3483 35.2637 51.0368 35.3778" fill="#B7CDCD"/>
<path d="M167.636 43.326H168.987V31.7733H173.473V30.6108H163.154V31.7733H167.636V43.326Z" fill="#2E6862"/>
<path d="M161.2 43.326H162.633L156.8 30.6108H155.47L149.633 43.326H151.04C153.69 37.4426 152.933 39.1199 156.125 32.0078L159.195 38.8395H156.125L155.613 39.9306H159.66L161.2 43.326Z" fill="#2E6862"/>
<path d="M137.077 42.1636V31.7733H140.853C144.24 31.7733 146.429 33.9145 146.429 36.9684C146.429 40.0223 144.24 42.1636 140.853 42.1636H137.077ZM135.727 43.326H140.924C145.017 43.326 147.759 40.7106 147.759 36.9684C147.759 33.2263 145.007 30.6108 140.924 30.6108H135.727V43.326Z" fill="#2E6862"/>
<path d="M124.421 41.3479V37.8402H130.58V35.8978H124.421V32.589H131.363V30.6108H122.047V43.326H131.619V41.3479H124.421Z" fill="#2E6862"/>
<path d="M111.027 41.3275L118.542 32.1913V30.6108H108.019V32.6094H115.406L107.891 41.7456V43.326H118.777V41.3275H111.027Z" fill="#2E6862"/>
<path d="M98.8606 43.5096C102.345 43.5096 104.437 41.4703 104.437 37.7842V30.6108H102.104V37.6924C102.104 40.3078 100.938 41.4346 98.881 41.4346C96.8244 41.4346 95.6324 40.3129 95.6324 37.6924V30.6108H93.2637V37.7842C93.2637 41.4906 95.3612 43.5096 98.8606 43.5096Z" fill="#2E6862"/>
<path d="M90.9061 30.6108H88.5732L84.7976 36.8053L81.0629 30.6108H78.5254L83.5391 38.8752V43.326H85.9078V38.8395L90.9061 30.6108Z" fill="#2E6862"/>
<path d="M185.578 43.326H187L181.168 30.6108H179.837L174 43.326H175.422C178.072 37.4426 177.32 39.1199 180.508 32.0078L183.577 38.8395H180.508L179.996 39.9306H184.043L185.578 43.326Z" fill="#2E6862"/>
</svg>
