<svg width="234" height="72" viewBox="0 0 234 72" fill="none" xmlns="http://www.w3.org/2000/svg">
<g clip-path="url(#clip0_1864_12478)">
<path d="M98.9638 33.9618C98.126 33.1491 97.1685 32.8783 96.0434 32.8783C94.6551 32.8783 93.8891 33.3215 93.8891 34.0853C93.8891 34.8733 94.5831 35.3168 96.0911 35.4154C98.3175 35.563 101.142 36.0804 101.142 39.3071C101.142 41.4501 99.4425 43.2975 96.0671 43.2975C94.2 43.2975 92.3327 42.9775 90.6094 41.1298L92.0457 38.9871C92.8834 39.9477 94.7983 40.6622 96.1152 40.6869C97.2162 40.7116 98.2455 40.1204 98.2455 39.2336C98.2455 38.3963 97.5755 38.0513 95.8996 37.9527C93.6735 37.7807 91.0161 36.9427 91.0161 34.1838C91.0161 31.3759 93.841 30.3906 95.9954 30.3906C97.8387 30.3906 99.2271 30.7603 100.592 31.9918L98.9638 33.9618ZM106.7 25.3821V30.76H109.956V33.3462H106.676V38.5927C106.676 39.7507 107.299 40.3175 108.208 40.3175C108.664 40.3175 109.19 40.1696 109.621 39.9477L110.435 42.5092C109.597 42.8546 108.903 43.0019 108.017 43.0266C105.456 43.1252 103.78 41.6228 103.78 38.5927V33.3462H101.578V30.76H103.78V27.6311L106.7 25.3821ZM113.719 37.878C113.91 39.3807 115.179 40.4645 117.238 40.4645C118.315 40.4645 119.727 40.0457 120.398 39.3316L122.265 41.2281C121.02 42.5583 118.985 43.1986 117.19 43.1986C113.12 43.1986 110.703 40.6124 110.703 36.7203C110.703 33.0256 113.144 30.3656 116.974 30.3656C120.924 30.3656 123.39 32.878 122.935 37.878H113.719ZM120.134 35.3904C119.943 33.8138 118.746 33.0256 117.07 33.0256C115.49 33.0256 114.198 33.8138 113.767 35.3904H120.134ZM124.28 47.0437V30.7352H127.008L127.2 32.41C128.11 31.0553 129.69 30.4641 131.03 30.4641C134.669 30.4641 137.087 33.2476 137.087 36.8195C137.087 40.3663 134.908 43.1743 131.126 43.1743C129.881 43.1743 128.038 42.7802 127.2 41.4501V50L124.28 47.0437ZM134.166 36.8192C134.166 34.9224 132.921 33.3706 130.815 33.3706C128.708 33.3706 127.464 34.9224 127.464 36.8192C127.464 38.7157 128.828 40.2674 130.815 40.2674C132.802 40.2678 134.166 38.7157 134.166 36.8192ZM146.044 33.9618C145.207 33.1491 144.249 32.8783 143.124 32.8783C141.736 32.8783 140.97 33.3215 140.97 34.0853C140.97 34.8733 141.664 35.3168 143.172 35.4154C145.399 35.563 148.223 36.0804 148.223 39.3071C148.223 41.4501 146.523 43.2975 143.148 43.2975C141.281 43.2975 139.414 42.9775 137.69 41.1298L139.126 38.9871C139.964 39.9477 141.879 40.6622 143.196 40.6869C144.297 40.7116 145.326 40.1204 145.326 39.2336C145.326 38.3963 144.656 38.0513 142.98 37.9527C140.754 37.7807 138.097 36.9427 138.097 34.1838C138.097 31.3759 140.921 30.3906 143.076 30.3906C144.919 30.3906 146.308 30.7603 147.672 31.9918L146.044 33.9618ZM149.184 42.879H152.106V30.6858H149.184V42.879ZM163.485 30.7352L158.484 39.9231H162.938L162.892 42.8792H152.904L158.814 33.4695H153.783L153.845 30.7352H163.485ZM166.43 37.878C166.622 39.3807 167.891 40.4645 169.95 40.4645C171.027 40.4645 172.44 40.0457 173.109 39.3316L174.976 41.2281C173.731 42.5583 171.697 43.1986 169.902 43.1986C165.833 43.1986 163.415 40.6124 163.415 36.7203C163.415 33.0256 165.857 30.3656 169.686 30.3656C173.636 30.3656 176.102 32.878 175.647 37.878H166.43ZM172.846 35.3904C172.654 33.8138 171.458 33.0256 169.781 33.0256C168.202 33.0256 166.909 33.8138 166.478 35.3904H172.846Z" fill="#2E6862"/>
<path fill-rule="evenodd" clip-rule="evenodd" d="M86.5899 28.5769L81.9336 22.0936H68.6039L64.4954 35.1542L69.1517 41.6376L73.1689 28.5769H86.5899ZM74.9949 29.7985L79.5599 36.2818L75.634 49.3425H62.2129L57.5566 42.8591H70.9777L74.9949 29.7985Z" fill="#2E6862"/>
</g>
<defs>
<clipPath id="clip0_1864_12478">
<rect width="117.975" height="32" fill="white" transform="translate(57.5566 20)"/>
</clipPath>
</defs>
</svg>
