<svg width="234" height="72" viewBox="0 0 234 72" fill="none" xmlns="http://www.w3.org/2000/svg">
<g clip-path="url(#clip0_1866_12682)">
<path d="M93.2707 40.6288C93.2759 39.9714 93.0544 39.5704 92.5293 39.2312C91.1099 38.3165 88.223 36.3832 88.223 36.3832C89.6958 35.4484 91.122 34.4327 92.587 33.4842C93.088 33.1596 93.2733 32.7695 93.2691 32.1521C93.2458 28.7912 93.2406 25.4294 93.2699 22.0676C93.2777 21.2919 93.0552 20.9982 92.2921 21C89.087 21.0073 85.8768 21.0018 82.6777 21.01C80.6954 21.0155 79.4891 22.1112 78.6355 24.0572C77.9603 22.0639 76.6074 21.0164 74.6604 21.0109C71.4682 21.0018 68.214 21.0082 64.9909 21.0027C64.2415 21.0018 63.9941 21.2937 64.0001 22.0776C64.0294 25.4994 64.0251 28.9212 64.0001 32.343C63.9949 33.0005 64.2157 33.4024 64.7417 33.7406C66.1713 34.661 69.0478 36.5859 69.0478 36.5887C69.0478 36.5887 66.1489 38.5392 64.6839 39.4877C64.1829 39.8132 63.9967 40.2033 64.0018 40.8198C64.0251 44.1807 64.0303 47.5426 64.001 50.9043C63.9941 51.681 64.2165 51.9737 64.9796 51.9728C68.1847 51.9655 71.3717 51.9701 74.594 51.9628C76.5764 51.9582 77.7827 50.8616 78.6363 48.9156C79.3115 50.9089 80.6644 51.9573 82.6114 51.9619C85.8682 51.9701 89.0578 51.9647 92.2817 51.9701C93.0311 51.971 93.2785 51.6791 93.2717 50.8953C93.2423 47.4734 93.2465 44.0507 93.2707 40.6288Z" fill="#90B2B2"/>
<path d="M88.2215 36.3832L64.2461 21.2101C64.2461 21.2101 64.347 21.0891 64.6496 21.0282C64.829 20.9927 65.1049 21.0036 65.355 21.0027C65.9922 20.9991 72.9826 21.0082 72.9826 21.0082L88.2215 36.3832Z" fill="url(#paint0_linear_1866_12682)"/>
<path d="M69.0449 36.5859L93.0203 51.7591C93.0203 51.7591 92.9204 51.8801 92.6168 51.941C92.4375 51.9773 92.1616 51.9655 91.9115 51.9674C91.2743 51.971 84.2838 51.9619 84.2838 51.9619L69.0449 36.5859Z" fill="url(#paint1_linear_1866_12682)"/>
</g>
<g clip-path="url(#clip1_1866_12682)">
<path d="M148.988 43.7353H151.322V40.7627H149.59C148.767 40.7627 148.098 40.057 148.098 39.1895V34.4592H151.322V31.6621H148.098V28.6367H144.426V39.024C144.426 42.415 145.705 43.7353 148.988 43.7353Z" fill="#2E6862"/>
<path d="M156.706 28.6367H153.033V43.7353H156.706V28.6367Z" fill="#2E6862"/>
<path d="M164.644 31.0619C161.032 31.0619 158.309 33.9245 158.309 37.721C158.309 41.5175 160.973 44.3355 164.644 44.3355C168.314 44.3355 171 41.482 171 37.6983C171 33.9145 168.268 31.0619 164.644 31.0619ZM164.644 41.0273C162.921 41.0273 161.718 39.6679 161.718 37.721C161.718 35.7741 162.921 34.371 164.644 34.371C166.367 34.371 167.611 35.7705 167.611 37.6992C167.611 39.6279 166.363 41.0273 164.644 41.0273Z" fill="#2E6862"/>
<path d="M122.953 34.5445C124.304 34.5445 125.403 35.7039 125.403 37.1288V43.7351H128.958V36.3486C128.958 33.2114 127.067 31.2618 124.024 31.2618C122.134 31.2618 120.784 32.1538 120.012 33.9125L119.804 34.3872L119.636 33.8943C119.045 32.1475 117.793 31.2609 115.916 31.2609C114.452 31.2609 113.213 31.7646 112.61 32.9031C112.41 33.2814 112.313 33.6306 112.313 33.6306V31.6601H108.619V43.7351H112.206L112.314 36.7732C112.48 35.5075 113.401 34.5445 114.632 34.5445C115.983 34.5445 117.082 35.7039 117.082 37.1288V43.7351H120.528V36.7642C120.693 35.4984 121.723 34.5445 122.953 34.5445Z" fill="#2E6862"/>
<path d="M136.747 31.1858C133.158 31.1858 130.451 34.0547 130.451 37.8585C130.451 41.6622 133.197 44.4429 137.129 44.4429C139.895 44.4429 141.737 42.9908 142.54 41.6313L142.788 41.2112L140.094 39.7326C139.672 40.5901 138.556 41.2039 137.241 41.2039C135.564 41.2039 134.205 40.2073 134.205 38.9779H134.208V38.9742H142.892L142.951 38.4504C142.977 38.2204 142.977 38.0021 142.977 37.7912C142.977 33.7774 140.532 31.184 136.747 31.184V31.1858ZM139.316 36.5327H134.205V36.5272C134.205 35.3251 135.349 34.3503 136.76 34.3503C138.172 34.3503 139.316 35.3251 139.316 36.5272V36.5327Z" fill="#2E6862"/>
</g>
<defs>
<linearGradient id="paint0_linear_1866_12682" x1="76.2343" y1="33.6025" x2="76.2343" y2="20.6708" gradientUnits="userSpaceOnUse">
<stop offset="0.13" stop-color="#2E6862"/>
<stop offset="0.17" stop-color="#2E6862" stop-opacity="0.95"/>
<stop offset="0.56" stop-color="#2E6862" stop-opacity="0.44"/>
<stop offset="0.85" stop-color="#2E6862" stop-opacity="0.12"/>
<stop offset="1" stop-color="#2E6862" stop-opacity="0"/>
</linearGradient>
<linearGradient id="paint1_linear_1866_12682" x1="81.033" y1="39.3668" x2="81.033" y2="52.2983" gradientUnits="userSpaceOnUse">
<stop offset="0.13" stop-color="#2E6862"/>
<stop offset="0.17" stop-color="#2E6862" stop-opacity="0.95"/>
<stop offset="0.56" stop-color="#2E6862" stop-opacity="0.44"/>
<stop offset="0.85" stop-color="#2E6862" stop-opacity="0.12"/>
<stop offset="1" stop-color="#2E6862" stop-opacity="0"/>
</linearGradient>
<clipPath id="clip0_1866_12682">
<rect width="29.3956" height="31" fill="white" transform="translate(64 21)"/>
</clipPath>
<clipPath id="clip1_1866_12682">
<rect width="63.4945" height="16.12" fill="white" transform="translate(107.506 28.4399)"/>
</clipPath>
</defs>
</svg>
