<svg width="233" height="72" viewBox="0 0 233 72" fill="none" xmlns="http://www.w3.org/2000/svg">
<g clip-path="url(#clip0_1864_12471)">
<path fill-rule="evenodd" clip-rule="evenodd" d="M93.6752 35.8995C93.6752 44.6754 86.5611 51.7896 77.7853 51.7896C74.2406 51.7896 70.967 50.629 68.3238 48.6668C68.7762 48.9206 69.2431 49.151 69.7228 49.3565C71.5407 50.1402 73.4994 50.5449 75.4791 50.5457C79.1663 50.5443 82.717 49.1515 85.4217 46.6455C88.1264 44.1395 89.7855 40.7051 90.0677 37.0287C90.1075 36.6823 90.1293 36.3342 90.1331 35.9855C90.1331 35.5425 90.0962 35.0275 90.0512 34.5605C90.0471 34.5159 90.0457 34.4707 90.0443 34.4254C90.0426 34.3731 90.041 34.3208 90.0352 34.2696L90.0225 34.2823C89.9574 33.6733 89.8876 33.2028 89.8876 33.2028H78.3562L77.4604 34.879L75.4014 38.7684H84.1141C83.7917 39.7324 83.31 40.6355 82.689 41.4402C81.8422 42.5486 80.7511 43.4468 79.5007 44.0649C78.2502 44.683 76.874 45.0043 75.4791 45.0039C74.4111 45.0018 73.3519 44.811 72.3503 44.4403C70.5993 43.8003 69.0872 42.6378 68.0185 41.1103C66.9498 39.5827 66.3761 37.7638 66.375 35.8995C66.375 34.7039 66.6104 33.52 67.068 32.4154C67.5255 31.3108 68.1961 30.3071 69.0415 29.4617C69.8869 28.6163 70.8905 27.9456 71.9951 27.4881C73.0997 27.0305 74.2836 26.795 75.4791 26.795C77.4087 26.7921 79.2888 27.4051 80.8458 28.5447L82.0411 26.3084L83.4644 23.6196C81.0895 22.071 78.3144 21.2486 75.4791 21.2532C72.9729 21.254 70.5293 21.8976 68.3714 23.097C71.0063 21.1563 74.2618 20.0095 77.7853 20.0095C86.5611 20.0095 93.6752 27.1237 93.6752 35.8995Z" fill="#90B2B2"/>
<path d="M115.475 39.4075C114.908 40.089 114.195 40.6336 113.387 41.0003C112.666 41.3174 111.885 41.4781 111.097 41.4717C110.09 41.4896 109.095 41.2452 108.211 40.7626C108.179 40.7448 108.152 40.7221 108.121 40.7038C107.329 40.2473 106.676 39.5839 106.233 38.7848C105.751 37.9006 105.506 36.9062 105.524 35.8991C105.506 34.8919 105.751 33.8975 106.233 33.0133C106.676 32.2143 107.329 31.551 108.12 31.0945C108.152 31.0761 108.179 31.0534 108.211 31.0355C109.095 30.5533 110.09 30.309 111.097 30.3264C111.886 30.3199 112.667 30.4791 113.39 30.7935L115.03 27.709C115.016 27.7029 115.004 27.695 114.99 27.689C113.696 27.1439 112.302 26.873 110.898 26.8935C109.347 26.8775 107.814 27.2176 106.415 27.8875C106.298 27.9444 106.174 27.9879 106.059 28.0498C104.658 28.7889 103.487 29.8993 102.676 31.2595C101.845 32.6628 101.419 34.2685 101.444 35.899C101.419 37.5297 101.845 39.1357 102.676 40.5394C103.488 41.8991 104.658 43.0092 106.059 43.7482C106.174 43.8101 106.298 43.8538 106.415 43.9109C107.806 44.5794 109.33 44.9196 110.873 44.9053C112.282 44.9251 113.679 44.654 114.978 44.109C114.995 44.1016 115.01 44.0919 115.027 44.0845C116.207 43.5742 117.247 42.7894 118.063 41.7955L115.475 39.4075Z" fill="#2E6862"/>
<path d="M123.945 43.7356C122.535 42.9953 121.356 41.8807 120.537 40.5142C119.709 39.1189 119.282 37.5216 119.306 35.899C119.282 34.2765 119.709 32.6792 120.537 31.2838C121.356 29.9177 122.535 28.8033 123.945 28.0624C125.451 27.2698 127.132 26.8679 128.834 26.8936C130.532 26.8669 132.209 27.2689 133.71 28.0624C135.116 28.8081 136.294 29.9214 137.118 31.2838C137.954 32.6766 138.385 34.2748 138.362 35.899C138.385 37.5232 137.954 39.1215 137.118 40.5142C136.295 41.877 135.117 42.9905 133.71 43.7356C132.209 44.5298 130.532 44.9321 128.834 44.9054C127.132 44.9312 125.451 44.5289 123.945 43.7356ZM131.62 40.7625C132.442 40.2973 133.118 39.6125 133.573 38.7848C134.055 37.9005 134.3 36.9061 134.282 35.899C134.3 34.8919 134.055 33.8976 133.573 33.0133C133.118 32.1855 132.442 31.5007 131.62 31.0355C130.77 30.5576 129.809 30.313 128.834 30.3264C127.859 30.3129 126.897 30.5575 126.047 31.0355C125.225 31.5006 124.549 32.1854 124.094 33.0133C123.612 33.8975 123.368 34.8919 123.385 35.899C123.367 36.9061 123.612 37.9006 124.094 38.7848C124.549 39.6126 125.225 40.2974 126.047 40.7625C126.897 41.2409 127.859 41.4856 128.834 41.4716C129.809 41.4855 130.77 41.2408 131.62 40.7625Z" fill="#2E6862"/>
<path d="M152.494 44.6065L149.136 39.7556H145.429V44.6065H141.398V27.1913H148.936C150.315 27.1592 151.685 27.4221 152.954 27.9625C154.024 28.4214 154.936 29.1826 155.579 30.1527C156.209 31.1571 156.529 32.3252 156.499 33.5108C156.531 34.6945 156.206 35.8604 155.567 36.8573C154.914 37.8191 153.992 38.5673 152.917 39.0088L156.823 44.6065H152.494ZM151.474 31.2595C150.673 30.6844 149.696 30.4072 148.713 30.4757H145.429V36.5459H148.713C149.698 36.6147 150.676 36.3326 151.474 35.7496C151.792 35.4731 152.042 35.1276 152.206 34.7396C152.37 34.3516 152.443 33.9314 152.419 33.5108C152.445 33.0881 152.373 32.6652 152.209 32.2747C152.045 31.8843 151.794 31.5369 151.474 31.2595Z" fill="#2E6862"/>
<path d="M173.167 41.3726V44.6066H159.684V27.1914H172.844V30.4263H163.689V34.2074H171.774V37.3423H163.689V41.3726L173.167 41.3726Z" fill="#2E6862"/>
</g>
<defs>
<clipPath id="clip0_1864_12471">
<rect width="112.828" height="32" fill="white" transform="translate(60.5859 20)"/>
</clipPath>
</defs>
</svg>
