<svg width="234" height="72" viewBox="0 0 234 72" fill="none" xmlns="http://www.w3.org/2000/svg">
<g clip-path="url(#clip0_1864_12464)">
<path d="M104.007 48.9842C106.586 48.9842 108.786 47.8514 109.818 45.8949L110.057 48.19C110.078 48.3877 110.244 48.5379 110.443 48.5379H113.556C113.771 48.5379 113.944 48.3643 113.944 48.1499V23.3881C113.944 23.1737 113.771 23 113.556 23H110.172C109.957 23 109.784 23.1737 109.784 23.3881V33.7438C108.718 32.0619 106.62 31.0664 104.248 31.0664C99.1241 31.0664 96.0293 34.8422 96.0293 40.1283C96.0293 45.3801 99.0896 48.9842 104.007 48.9842ZM104.935 45.1398C102.012 45.1398 100.224 43.0116 100.224 39.991C100.224 36.9703 102.012 34.8079 104.935 34.8079C107.858 34.8079 109.749 36.936 109.749 39.991C109.749 43.0459 107.858 45.1398 104.935 45.1398Z" fill="#2E6862"/>
<path d="M115.346 40.0069C115.346 45.2929 119.162 48.9314 124.424 48.9314C129.685 48.9314 133.501 45.2929 133.501 40.0069C133.501 34.7207 129.685 31.0823 124.424 31.0823C119.162 31.0823 115.346 34.7207 115.346 40.0069ZM119.541 40.0069C119.541 36.9175 121.535 34.8237 124.424 34.8237C127.312 34.8237 129.306 36.9175 129.306 40.0069C129.306 43.0961 127.312 45.19 124.424 45.19C121.535 45.19 119.541 43.0961 119.541 40.0069Z" fill="#2E6862"/>
<path d="M134.818 43.405C134.604 43.405 134.428 43.5795 134.442 43.7934C134.643 46.9095 137.278 49 141.341 49C145.536 49 148.459 46.8718 148.459 43.4393C148.459 40.8306 147.015 39.5263 144.161 38.8741L141.101 38.1533C139.656 37.8101 138.9 37.1922 138.9 36.231C138.9 34.961 139.863 34.2059 141.513 34.2059C142.984 34.2059 143.913 34.9729 144.095 36.1968C144.126 36.4053 144.295 36.5743 144.506 36.5743H147.723C147.939 36.5743 148.115 36.3973 148.099 36.182C147.871 33.1059 145.348 31.0823 141.685 31.0823C137.765 31.0823 134.946 33.0731 134.946 36.4027C134.946 39.1143 136.424 40.5561 139.485 41.2425L142.545 41.9634C144.058 42.3066 144.505 42.9245 144.505 43.7826C144.505 45.0183 143.439 45.8078 141.479 45.8078C139.723 45.8078 138.653 45.0373 138.452 43.7826C138.419 43.5744 138.25 43.405 138.039 43.405H134.818Z" fill="#2E6862"/>
<path d="M150.203 43.405C149.988 43.405 149.813 43.5795 149.827 43.7934C150.028 46.9095 152.663 49 156.726 49C160.921 49 163.844 46.8718 163.844 43.4393C163.844 40.8306 162.4 39.5263 159.546 38.8741L156.485 38.1533C155.041 37.8101 154.285 37.1922 154.285 36.231C154.285 34.961 155.247 34.2059 156.898 34.2059C158.368 34.2059 159.298 34.9729 159.48 36.1968C159.51 36.4053 159.679 36.5743 159.89 36.5743H163.108C163.324 36.5743 163.5 36.3973 163.484 36.182C163.256 33.1059 160.733 31.0823 157.07 31.0823C153.15 31.0823 150.33 33.0731 150.33 36.4027C150.33 39.1143 151.809 40.5561 154.869 41.2425L157.93 41.9634C159.443 42.3066 159.89 42.9245 159.89 43.7826C159.89 45.0183 158.824 45.8078 156.864 45.8078C155.108 45.8078 154.038 45.0373 153.837 43.7826C153.804 43.5744 153.635 43.405 153.424 43.405H150.203Z" fill="#2E6862"/>
<path fill-rule="evenodd" clip-rule="evenodd" d="M71 23.4223C71 23.2017 71.1788 23.0228 71.3995 23.0228H84.9816C85.2022 23.0228 85.381 23.2017 85.381 23.4223V28.216C85.381 28.4366 85.2022 28.6154 84.9816 28.6154H71.3995C71.1788 28.6154 71 28.4366 71 28.216V23.4223ZM71 43.396C71 43.1754 71.1788 42.9965 71.3995 42.9965H84.9816C85.2022 42.9965 85.381 43.1754 85.381 43.396V48.1897C85.381 48.4103 85.2022 48.5891 84.9816 48.5891H71.3995C71.1788 48.5891 71 48.4103 71 48.1897V43.396ZM85.7805 28.6154C85.5599 28.6154 85.381 28.7943 85.381 29.0149V42.597C85.381 42.8177 85.5599 42.9965 85.7805 42.9965H90.9736C91.1943 42.9965 91.3731 42.8177 91.3731 42.597V29.0149C91.3731 28.7943 91.1943 28.6154 90.9736 28.6154H85.7805Z" fill="#90B2B2"/>
</g>
<defs>
<clipPath id="clip0_1864_12464">
<rect width="92.8433" height="26" fill="white" transform="translate(71 23)"/>
</clipPath>
</defs>
</svg>
