<svg width="233" height="72" viewBox="0 0 233 72" fill="none" xmlns="http://www.w3.org/2000/svg">
<path d="M110.499 32.4V38.6C110.499 40.8 109.599 41.9 107.899 41.9C106.299 41.9 105.499 41 105.499 38.8V32.5H102.699V39.9C102.699 42.8 104.199 44.6 106.899 44.6C108.399 44.6 109.899 43.8 110.599 42.7L110.799 44.3H113.399V32.4H110.499ZM115.099 40.6C115.099 42.9 116.899 44.5 119.699 44.5C122.499 44.5 124.499 43 124.499 40.6C124.499 38.8 123.499 37.9 121.599 37.4L119.499 36.9C118.499 36.7 117.999 36.2 117.999 35.6C117.999 34.7 118.599 34.2 119.799 34.2C120.899 34.2 121.499 34.8 121.599 35.8H124.299C124.299 33.5 122.499 32 119.999 32C117.399 32 115.499 33.4 115.499 35.7C115.499 37.6 116.499 38.6 118.599 39.1L120.699 39.6C121.699 39.8 121.999 40.3 121.999 40.9C121.999 41.8 121.299 42.3 119.999 42.3C118.699 42.3 117.999 41.7 117.899 40.6H115.099ZM131.799 44.5C134.799 44.5 136.899 43 137.299 40.4H134.699C134.399 41.5 133.399 42.1 131.799 42.1C129.899 42.1 128.899 41.1 128.699 39H137.299V38.1C137.299 34.4 135.099 32.1 131.699 32.1C128.399 32.1 125.999 34.6 125.999 38.3C125.999 41.9 128.399 44.5 131.799 44.5ZM131.799 34.4C133.499 34.4 134.599 35.5 134.599 37.1H128.899C129.099 35.4 130.099 34.4 131.799 34.4ZM138.399 32.4V34.8H139.999V44.1H142.799V34.8H145.499V32.4H142.799V31C142.799 29.8 143.099 29.1 144.599 29.1H145.599V26.6C145.099 26.5 144.599 26.5 144.099 26.5C141.599 26.5 139.999 27.8 139.999 31V32.4H138.399ZM155.099 32.4V38.6C155.099 40.8 154.199 41.9 152.499 41.9C150.899 41.9 150.099 41 150.099 38.8V32.5H147.299V39.9C147.299 42.8 148.799 44.6 151.499 44.6C152.999 44.6 154.499 43.8 155.199 42.7L155.399 44.3H157.999V32.4H155.099ZM163.699 44.2V26.5H160.899V44.2H163.699Z" fill="#2E6862"/>
<path d="M96.3992 24.9V38.2C96.3992 41.5 93.7992 44.1 90.5992 44.1H89.1992V41.1H90.5992C92.1992 41.1 93.3992 39.8 93.3992 38.2V24.9C93.3992 23.3 92.0992 22 90.5992 22C88.9992 22 87.7992 23.3 87.7992 24.9V47C87.7992 50.3 85.1992 52.9 81.9992 52.9C80.5992 52.9 79.2992 52.7 77.9992 52.3C71.9992 50.5 67.6992 44.8 67.6992 38.1V24.9C67.6992 21.6 70.2992 19 73.4992 19C76.6992 19 79.2992 21.7 79.2992 24.9V38.2C79.2992 39.8 80.5992 41.1 82.0992 41.1H83.4992V44.1H81.9992C78.7992 44.1 76.1992 41.4 76.1992 38.2V24.9C76.1992 23.3 74.8992 22 73.3992 22C71.7992 22 70.5992 23.3 70.5992 24.9V38.2C70.5992 43.2 73.6992 47.5 77.9992 49.2C79.1992 49.7 80.5992 50 81.9992 50C83.5992 50 84.7992 48.7 84.7992 47.1V24.9C84.7992 21.7 87.3992 19 90.5992 19C93.7992 19 96.3992 21.7 96.3992 24.9Z" fill="#2E6862"/>
</svg>
