<svg width="234" height="72" viewBox="0 0 234 72" fill="none" xmlns="http://www.w3.org/2000/svg">
<path d="M71.4844 44.64L83.7441 51.9059V47.8589V45.6565V45.6377L76.77 41.5153V33.233L74.8797 32.1224L71.4844 30.1083V44.64Z" fill="#90B2B2"/>
<path d="M95.8195 32.1224L93.9475 33.233V41.5153L86.9551 45.6377V45.6565V47.8589V51.8871L99.2148 44.64V30.1083L95.8195 32.1224Z" fill="#2E6862"/>
<path d="M85.3594 20L73.0996 27.2659L76.4949 29.28L78.3669 30.3906L85.3594 26.2494L92.3335 30.3906L94.2055 29.28L97.6191 27.2659L85.3594 20Z" fill="#B7CDCD"/>
<path d="M85.3594 36.433V43.3036L91.1589 39.8589V32.9883L85.3594 36.433Z" fill="#2E6862"/>
<path d="M79.541 39.8589L85.3405 43.3036V36.433L79.541 32.9883V39.8589Z" fill="#90B2B2"/>
<path d="M85.3589 29.5436L79.541 32.9883L85.3589 36.4142L91.1584 32.9883L85.3589 29.5436Z" fill="#B7CDCD"/>
<path d="M116.263 24.4198C116.263 25.1049 116.111 25.6041 115.805 25.9174C115.519 26.211 115.042 26.3578 114.374 26.3578C113.706 26.3578 113.219 26.211 112.914 25.9174C112.627 25.6041 112.484 25.1049 112.484 24.4198C112.484 23.7346 112.627 23.2452 112.914 22.9515C113.219 22.6383 113.706 22.4817 114.374 22.4817C115.042 22.4817 115.519 22.6383 115.805 22.9515C116.111 23.2452 116.263 23.7346 116.263 24.4198ZM108.705 46.7957C108.972 46.8152 109.249 46.825 109.535 46.825C109.802 46.825 110.127 46.825 110.509 46.825C110.967 46.825 111.339 46.7957 111.625 46.7369C111.931 46.6782 112.179 46.5412 112.37 46.3258C112.56 46.1301 112.694 45.8462 112.77 45.4743C112.847 45.1023 112.885 44.5933 112.885 43.9473V28.9126H115.891V43.9473C115.891 44.9848 115.796 45.8462 115.605 46.5314C115.414 47.2166 115.109 47.7647 114.689 48.1758C114.269 48.5869 113.725 48.8708 113.057 49.0274C112.389 49.2036 111.568 49.2917 110.594 49.2917C109.869 49.2917 109.325 49.2819 108.962 49.2623C108.6 49.2623 108.342 49.2525 108.189 49.2329L108.705 46.7957Z" fill="#2E6862"/>
<path d="M121.866 37.6339C121.866 38.4561 121.905 39.1217 121.981 39.6307C122.076 40.1397 122.248 40.541 122.496 40.8346C122.763 41.1283 123.126 41.3338 123.584 41.4513C124.042 41.5492 124.653 41.5981 125.417 41.5981C125.97 41.5981 126.667 41.5981 127.507 41.5981C128.366 41.5981 129.473 41.5785 130.828 41.5394L130.312 44.0941C129.721 44.1137 129.215 44.1235 128.795 44.1235C128.375 44.1431 127.984 44.1528 127.621 44.1528C127.278 44.1528 126.934 44.1528 126.59 44.1528C126.247 44.1528 125.856 44.1528 125.417 44.1528C124.061 44.1528 122.954 43.9962 122.095 43.683C121.256 43.3502 120.588 42.8902 120.091 42.3029C119.614 41.696 119.29 40.9717 119.118 40.1299C118.946 39.2685 118.86 38.3191 118.86 37.2815V35.6371C118.86 34.5212 118.946 33.5228 119.118 32.6419C119.309 31.7414 119.643 30.9877 120.12 30.3808C120.616 29.7543 121.294 29.2747 122.153 28.9419C123.031 28.6091 124.166 28.4427 125.56 28.4427C126.839 28.4427 127.879 28.5993 128.68 28.9126C129.501 29.2062 130.141 29.6173 130.599 30.1459C131.076 30.6549 131.4 31.2519 131.572 31.9371C131.744 32.6027 131.83 33.2977 131.83 34.022V34.4625C131.83 35.1672 131.792 35.7252 131.715 36.1363C131.639 36.5474 131.515 36.8704 131.343 37.1053C131.171 37.3207 130.952 37.4675 130.685 37.5458C130.436 37.6045 130.131 37.6339 129.768 37.6339H121.866ZM125.417 30.88C124.653 30.88 124.042 30.9387 123.584 31.0562C123.126 31.1736 122.763 31.3988 122.496 31.7316C122.248 32.0448 122.076 32.4853 121.981 33.053C121.905 33.6207 121.866 34.3548 121.866 35.2553H128.995V34.2569C128.995 33.6109 128.938 33.0726 128.824 32.6419C128.728 32.1916 128.537 31.8392 128.251 31.5848C127.984 31.3303 127.621 31.1541 127.163 31.0562C126.705 30.9387 126.123 30.88 125.417 30.88Z" fill="#2E6862"/>
<path d="M134.749 25.3301L137.755 24.7721V28.9126H143.195L142.68 31.4673H137.755V38.5148C137.755 39.1608 137.784 39.6894 137.841 40.1005C137.918 40.5116 138.051 40.8248 138.242 41.0402C138.433 41.2555 138.7 41.4023 139.044 41.4807C139.406 41.559 139.865 41.5981 140.418 41.5981H143.023L142.508 44.0941H140.447C139.302 44.0941 138.357 44.006 137.612 43.8298C136.887 43.6536 136.305 43.36 135.866 42.9489C135.446 42.5182 135.15 41.9505 134.978 41.2457C134.826 40.541 134.749 39.66 134.749 38.6029V25.3301Z" fill="#2E6862"/>
<path d="M145.43 28.9126H148.436V44.0941H145.43V28.9126ZM148.808 24.4198C148.808 25.1049 148.656 25.6041 148.35 25.9174C148.064 26.211 147.587 26.3578 146.919 26.3578C146.251 26.3578 145.764 26.211 145.458 25.9174C145.172 25.6041 145.029 25.1049 145.029 24.4198C145.029 23.7346 145.172 23.2452 145.458 22.9515C145.764 22.6383 146.251 22.4817 146.919 22.4817C147.587 22.4817 148.064 22.6383 148.35 22.9515C148.656 23.2452 148.808 23.7346 148.808 24.4198Z" fill="#2E6862"/>
<path d="M158.305 31.4086C157.522 31.4086 156.883 31.4575 156.387 31.5554C155.891 31.6337 155.499 31.8295 155.213 32.1427C154.927 32.4363 154.726 32.867 154.612 33.4347C154.516 34.0024 154.469 34.7659 154.469 35.7252V37.2815C154.469 38.2408 154.526 39.0042 154.64 39.572C154.755 40.1397 154.955 40.5801 155.242 40.8934C155.547 41.187 155.948 41.3828 156.444 41.4807C156.94 41.559 157.561 41.5981 158.305 41.5981C159.355 41.5981 160.176 41.5981 160.767 41.5981C161.378 41.5785 161.913 41.559 162.371 41.5394L161.855 44.0941C161.359 44.1137 160.767 44.1235 160.08 44.1235C159.393 44.1431 158.801 44.1528 158.305 44.1528C157.026 44.1528 155.948 44.0354 155.07 43.8005C154.192 43.5656 153.476 43.174 152.923 42.6259C152.388 42.0777 151.997 41.373 151.749 40.5116C151.52 39.6307 151.405 38.554 151.405 37.2815V35.7252C151.405 34.4527 151.52 33.3858 151.749 32.5244C151.997 31.6435 152.388 30.9289 152.923 30.3808C153.476 29.8327 154.192 29.4411 155.07 29.2062C155.948 28.9713 157.026 28.8538 158.305 28.8538C158.859 28.8538 159.488 28.8636 160.195 28.8832C160.92 28.8832 161.626 28.9028 162.313 28.9419L161.798 31.4967C161.015 31.4575 160.357 31.4379 159.822 31.4379C159.288 31.4184 158.782 31.4086 158.305 31.4086Z" fill="#2E6862"/>
</svg>
