<svg width="233" height="72" viewBox="0 0 233 72" fill="none" xmlns="http://www.w3.org/2000/svg">
<g clip-path="url(#clip0_1864_12512)">
<path fill-rule="evenodd" clip-rule="evenodd" d="M77.9994 35.9889C77.9994 29.3605 72.6166 24 65.9883 24V35.9889H77.9994Z" fill="#B7CDCD"/>
<path fill-rule="evenodd" clip-rule="evenodd" d="M89.9889 35.9889C89.9889 42.6173 84.6284 47.9778 78 47.9778V35.9889H89.9889Z" fill="#2E6862"/>
<path fill-rule="evenodd" clip-rule="evenodd" d="M77.9994 47.9778C77.9994 41.3494 72.6166 35.9889 65.9883 35.9889V47.9778H77.9994Z" fill="#90B2B2"/>
<path fill-rule="evenodd" clip-rule="evenodd" d="M54 35.9889C54 42.6173 59.3605 47.9778 65.9889 47.9778V35.9889H54Z" fill="#B7CDCD"/>
<path fill-rule="evenodd" clip-rule="evenodd" d="M100.376 30.2502C99.1526 30.2502 98.1962 30.6284 97.4399 31.3624C96.7059 32.0742 96.3278 32.9861 96.3055 34.0983H97.7513C97.7513 32.4745 98.8412 31.6293 100.376 31.6293C102.022 31.6293 102.845 32.5413 102.845 34.4097V35.1659L99.1081 35.9444C97.0173 36.3893 95.9941 37.4569 95.9941 39.2363C95.9941 41.0825 97.262 42.3059 99.2638 42.3059C100.932 42.3059 102.289 41.4829 102.912 40.3707L102.934 42.0167H104.313V34.3429C104.313 31.7405 102.912 30.2502 100.376 30.2502ZM102.845 37.4124C102.845 38.2577 102.6 39.0139 102.089 39.6812C101.421 40.5042 100.532 40.9268 99.4195 40.9268C98.1517 40.9268 97.4399 40.2818 97.4399 39.1919C97.4399 38.013 98.1072 37.5236 99.375 37.2122L102.845 36.456V37.4124Z" fill="#2E6862"/>
<path fill-rule="evenodd" clip-rule="evenodd" d="M113.521 30.2502C111.564 30.2502 110.051 31.2957 109.384 32.4745L109.361 30.4949H107.982V46.9546H109.45V40.1038C110.029 41.3049 111.541 42.2836 113.499 42.2836C115.122 42.2836 116.435 41.7053 117.413 40.5932C118.392 39.4588 118.881 38.013 118.881 36.278C118.881 34.5431 118.392 33.0973 117.413 31.9629C116.457 30.8286 115.145 30.2502 113.521 30.2502ZM113.387 31.6293C114.633 31.6293 115.612 32.0742 116.323 32.9416C117.057 33.7869 117.436 34.9212 117.436 36.278C117.436 37.6349 117.057 38.7248 116.301 39.6145C115.545 40.4819 114.589 40.9268 113.365 40.9268C112.298 40.9268 111.363 40.5042 110.585 39.7034C109.829 38.9027 109.428 37.7906 109.428 36.4337V35.9444C109.428 34.6321 109.829 33.5867 110.585 32.8082C111.341 32.0074 112.275 31.6293 113.387 31.6293Z" fill="#2E6862"/>
<path fill-rule="evenodd" clip-rule="evenodd" d="M127.312 30.2502C125.355 30.2502 123.842 31.2957 123.175 32.4745L123.152 30.4949H121.773V46.9546H123.241V40.1038C123.82 41.3049 125.332 42.2836 127.29 42.2836C128.913 42.2836 130.226 41.7053 131.204 40.5932C132.183 39.4588 132.672 38.013 132.672 36.278C132.672 34.5431 132.183 33.0973 131.204 31.9629C130.248 30.8286 128.958 30.2502 127.312 30.2502ZM127.178 31.6293C128.424 31.6293 129.403 32.0742 130.114 32.9416C130.849 33.7869 131.227 34.9212 131.227 36.278C131.227 37.6349 130.849 38.7248 130.092 39.6145C129.336 40.4819 128.38 40.9268 127.156 40.9268C126.089 40.9268 125.154 40.5042 124.376 39.7034C123.62 38.9027 123.219 37.7906 123.219 36.4337V35.9444C123.219 34.6321 123.62 33.5867 124.376 32.8082C125.132 32.0074 126.089 31.6293 127.178 31.6293Z" fill="#2E6862"/>
<path fill-rule="evenodd" clip-rule="evenodd" d="M139.68 25.0454C137.233 25.0454 135.876 26.4245 135.876 28.8934V30.4059H133.896V32.6302H135.876V42.0167H138.323V32.6302H141.103V30.4059H138.323V28.9601C138.323 27.7813 138.857 27.2252 139.902 27.2252C140.347 27.2252 140.77 27.3142 141.214 27.4699V25.2901C140.814 25.1344 140.28 25.0454 139.68 25.0454Z" fill="#2E6862"/>
<path d="M145.573 25.2678H143.148V42.0167H145.573V25.2678Z" fill="#2E6862"/>
<path fill-rule="evenodd" clip-rule="evenodd" d="M153.758 30.1613C152.067 30.1613 150.688 30.7396 149.643 31.874C148.62 33.0083 148.086 34.4764 148.086 36.2335C148.086 38.0575 148.62 39.5255 149.643 40.6154C150.688 41.7275 152.067 42.2613 153.758 42.2613C156.449 42.2613 158.251 40.86 158.985 38.4578H156.605C156.16 39.57 155.248 40.1038 153.825 40.1038C152.001 40.1038 150.733 38.9027 150.622 37.0565H159.096V36.1223C159.096 32.2743 156.961 30.1613 153.758 30.1613ZM153.736 32.2966C155.448 32.2966 156.605 33.4309 156.627 35.1659H150.644C150.8 33.4754 152.001 32.2966 153.736 32.2966Z" fill="#2E6862"/>
<path fill-rule="evenodd" clip-rule="evenodd" d="M166.682 30.1613C164.991 30.1613 163.612 30.7396 162.567 31.874C161.544 33.0083 161.01 34.4764 161.01 36.2335C161.01 38.0575 161.544 39.5255 162.567 40.6154C163.612 41.7275 164.991 42.2613 166.682 42.2613C169.373 42.2613 171.175 40.86 171.909 38.4578H169.529C169.084 39.57 168.172 40.1038 166.748 40.1038C164.924 40.1038 163.657 38.9027 163.545 37.0565H172.02V36.1223C171.998 32.2743 169.885 30.1613 166.682 30.1613ZM166.659 32.2966C168.372 32.2966 169.529 33.4309 169.551 35.1659H163.568C163.723 33.4754 164.925 32.2966 166.659 32.2966Z" fill="#2E6862"/>
<path fill-rule="evenodd" clip-rule="evenodd" d="M174.444 38.6802C174.421 41.0825 175.6 42.1724 177.98 42.1724C178.737 42.1724 179.337 42.0834 179.76 41.9277V39.7701C179.382 39.8814 178.959 39.9481 178.447 39.9481C177.246 39.9481 176.868 39.4365 176.868 38.1687L176.913 32.6524H179.76V30.4059H176.935L176.957 27.5588H174.51" fill="#2E6862"/>
</g>
<defs>
<clipPath id="clip0_1864_12512">
<rect width="125.761" height="24" fill="white" transform="translate(54 24)"/>
</clipPath>
</defs>
</svg>
