<svg width="234" height="72" viewBox="0 0 234 72" fill="none" xmlns="http://www.w3.org/2000/svg">
<g clip-path="url(#clip0_1864_12410)">
<path fill-rule="evenodd" clip-rule="evenodd" d="M85.5349 29.8634C85.8775 30.0688 86.2018 30.3032 86.5047 30.5634V28.4992C86.3004 28.3707 86.0905 28.2507 85.8755 28.1397L85.5349 29.8634ZM84.993 27.746C84.0622 27.393 83.0566 27.2003 82.0075 27.2003C77.2173 27.2003 73.334 31.2177 73.334 36.1734C73.334 39.0064 74.6031 41.5328 76.5853 43.1773C76.6939 43.2674 76.7282 43.4241 76.6638 43.5517L75.3579 46.1371C75.1596 46.5297 75.435 47 75.8632 47H88.1519C88.5801 47 88.8555 46.5297 88.6572 46.1371L87.3513 43.5517C87.2868 43.4241 87.3212 43.2674 87.4298 43.1773C89.412 41.5328 90.6811 39.0064 90.6811 36.1734C90.6811 35.0741 90.49 34.0209 90.1404 33.0476L88.5203 33.3901C88.8631 34.2477 89.0522 35.1877 89.0522 36.1734C89.0522 38.5461 87.958 40.6539 86.2562 41.9874L85.5424 42.5467C85.3205 42.7206 85.2524 43.0348 85.3813 43.29L86.1861 44.8835C86.2853 45.0798 86.1477 45.315 85.9336 45.315H78.0816C77.8674 45.315 77.7298 45.0798 77.8289 44.8835L78.6338 43.29C78.7627 43.0348 78.6946 42.7206 78.4727 42.5467L77.7589 41.9874C76.0571 40.6539 74.9628 38.5461 74.9628 36.1734C74.9628 32.1483 78.1169 28.8854 82.0075 28.8854C82.9467 28.8854 83.8429 29.0755 84.6622 29.4206L84.993 27.746ZM88.0867 32.4884L89.7554 32.1356C89.7023 32.0267 89.6471 31.9191 89.5899 31.8128H87.6527C87.809 32.0291 87.954 32.2546 88.0867 32.4884Z" fill="#2E6862"/>
<path d="M86.0191 27.4161C86.0573 27.2225 86.3248 27.2225 86.363 27.4161L87.0319 30.8013C87.046 30.8726 87.0999 30.9283 87.1687 30.9429L90.4409 31.6348C90.6282 31.6744 90.6282 31.9511 90.4409 31.9907L87.1687 32.6826C87.0999 32.6971 87.046 32.7529 87.0319 32.8242L86.363 36.2094C86.3248 36.403 86.0573 36.403 86.0191 36.2094L85.3502 32.8242C85.3361 32.7529 85.2823 32.6971 85.2134 32.6826L81.9412 31.9907C81.754 31.9511 81.754 31.6744 81.9412 31.6348L85.2134 30.9429C85.2823 30.9283 85.3361 30.8726 85.3502 30.8013L86.0191 27.4161Z" fill="#90B2B2"/>
<path d="M90.4958 25.0726C90.515 24.9758 90.6487 24.9758 90.6679 25.0726L91.0023 26.7652C91.0093 26.8009 91.0362 26.8287 91.0707 26.836L92.7068 27.182C92.8004 27.2017 92.8004 27.3401 92.7068 27.3599L91.0707 27.7059C91.0362 27.7131 91.0093 27.741 91.0023 27.7766L90.6679 29.4692C90.6487 29.5661 90.515 29.5661 90.4958 29.4692L90.1614 27.7766C90.1544 27.741 90.1275 27.7131 90.093 27.7059L88.4569 27.3599C88.3633 27.3401 88.3633 27.2017 88.4569 27.182L90.093 26.836C90.1275 26.8287 90.1544 26.8009 90.1614 26.7652L90.4958 25.0726Z" fill="#90B2B2"/>
<path d="M96.2363 46.0697L99.0975 46.0953V38.9676H102.531C104.546 38.9676 108.303 37.7158 108.303 33.3217C108.303 28.9275 104.546 27.6501 102.257 27.6501H96.2363V46.0697ZM99.1224 36.2596L99.1722 30.4348H102.456C103.078 30.4348 105.417 30.5625 105.417 33.2194C105.417 35.8764 103.377 36.1829 102.407 36.1829C101.685 36.1829 100.143 36.2341 99.1224 36.2596Z" fill="#2E6862"/>
<path d="M108.053 39.7085C108.053 43.3873 110.889 46.5296 114.596 46.5296C118.278 46.5296 121.115 43.3873 121.115 39.7085C121.115 36.0297 118.278 33.0406 114.596 33.0406C110.889 33.0406 108.053 36.0297 108.053 39.7085ZM110.939 39.7341C110.939 37.3071 112.73 35.6721 114.621 35.6721C116.537 35.6721 118.303 37.3071 118.303 39.7341C118.303 42.3144 116.537 43.8472 114.621 43.8472C112.73 43.8472 110.939 42.3144 110.939 39.7341Z" fill="#2E6862"/>
<path d="M128.304 35.7742C126.364 36.0297 125.169 37.8691 125.194 39.6574C125.219 41.8544 126.538 43.6427 128.454 43.796C130.046 43.9238 131.489 42.9786 131.937 41.6245L134.574 42.5698C133.629 45.2267 131.34 46.6829 128.354 46.5551C125.045 46.4275 122.383 43.6427 122.383 39.6318C122.383 35.7997 125.393 33.1173 128.429 32.964C131.812 32.8107 133.778 35.0078 134.475 37.026L131.862 37.8691C130.917 35.8509 129.3 35.6464 128.304 35.7742Z" fill="#2E6862"/>
<path d="M144.795 44.5369L144.919 46.0953H147.681V33.4238H144.745V41.1135C144.745 42.1865 143.725 43.8471 141.958 43.8471C139.794 43.8471 139.271 42.2376 139.271 40.9602V33.4494H136.311V41.2924C136.311 42.4164 136.709 46.4529 140.913 46.4529C143.128 46.4529 144.521 45.2777 144.795 44.5369Z" fill="#2E6862"/>
<path d="M157.561 37.0515L159.999 36.0297C159.104 33.4494 156.167 32.7596 154.277 32.9895C151.441 33.3472 150.097 35.2632 150.097 37.0771C150.097 38.5588 151.366 39.7851 152.759 40.2705C154.028 40.7304 157.486 40.9347 157.411 42.5697C157.362 43.9237 155.397 44.1281 154.401 43.8982C153.406 43.6683 152.486 42.723 152.187 41.8289L149.674 42.9274C150.296 44.6646 152.013 46.504 154.948 46.504C158.556 46.504 160.248 44.4347 160.248 42.5442C160.248 40.9858 159.427 39.4019 156.74 38.7376C154.153 38.0989 152.859 37.9457 152.859 36.8216C152.859 36.0297 153.73 35.4931 154.899 35.4931C155.993 35.4931 157.163 36.0041 157.561 37.0515Z" fill="#2E6862"/>
</g>
<defs>
<clipPath id="clip0_1864_12410">
<rect width="87.3322" height="22" fill="white" transform="translate(73.334 25)"/>
</clipPath>
</defs>
</svg>
