<svg width="234" height="72" viewBox="0 0 234 72" fill="none" xmlns="http://www.w3.org/2000/svg">
<path d="M68.0762 22.3879C68.0762 22.1676 68.2203 21.9733 68.4311 21.9094L70.7859 21.1955C71.107 21.0982 71.431 21.3385 71.431 21.674V28.9647L71.4259 29.0752C71.4003 29.6276 72.5149 30.019 72.9591 29.6896C73.0536 29.6195 73.1513 29.5514 73.2521 29.4854C74.1467 28.878 75.1905 28.5742 76.3833 28.5742C77.8956 28.5742 79.0564 28.8997 79.8659 29.5505C80.6753 30.1797 81.2184 31.0692 81.4953 32.219C81.7722 33.3688 81.9107 34.8658 81.9107 36.7098V43.4017C81.9107 43.6778 81.6868 43.9017 81.4107 43.9017H78.992C78.7158 43.9017 78.492 43.6778 78.492 43.4017V36.6773C78.492 35.419 78.4174 34.4319 78.2683 33.7159C78.1405 33 77.8636 32.4576 77.4376 32.0888C77.0329 31.72 76.4365 31.5356 75.6484 31.5356C75.0094 31.5356 74.3597 31.7308 73.6994 32.1214C73.0604 32.5119 72.5279 33.0868 72.1019 33.8461C71.6759 34.5837 71.4629 35.4624 71.4629 36.482V43.4017C71.4629 43.6778 71.2391 43.9017 70.9629 43.9017H68.5762C68.3 43.9017 68.0762 43.6778 68.0762 43.4017V22.3879Z" fill="#2E6862"/>
<path d="M92.1091 44.2068C90.7885 44.2068 89.5637 43.8922 88.4348 43.2631C87.3272 42.6122 86.4326 41.701 85.751 40.5295C85.0906 39.3363 84.7605 37.9478 84.7605 36.3641C84.7605 34.8021 85.048 33.4353 85.6231 32.2637C86.2196 31.0922 87.0609 30.181 88.1472 29.5302C89.2335 28.8793 90.5116 28.5539 91.9813 28.5539C92.8333 28.5539 93.632 28.7058 94.3776 29.0095C95.1231 29.3132 95.7514 29.6929 96.2626 30.1485C96.5441 30.3874 97.3182 30.1481 97.3276 29.7791L97.3401 29.2897C97.3453 29.0873 97.4887 28.9148 97.6868 28.8727L100.036 28.374C100.347 28.3079 100.64 28.5451 100.64 28.8631V43.3814C100.64 43.6575 100.416 43.8814 100.14 43.8814H97.8689C97.5975 43.8814 97.3756 43.6638 97.369 43.3925C97.3562 42.8636 96.3797 42.5546 95.9652 42.8833C95.7721 43.0365 95.5624 43.1847 95.3361 43.3282C94.3775 43.9139 93.3019 44.2068 92.1091 44.2068ZM92.6842 41.278C93.8983 41.278 94.9207 40.8549 95.7514 40.0088C96.5821 39.141 96.9975 38.0129 96.9975 36.6244C96.9975 35.6915 96.8058 34.6285 96.4224 33.8909C96.039 33.1532 95.5171 32.5783 94.8568 32.1661C94.1965 31.7539 93.4723 31.5478 92.6842 31.5478C91.321 31.5478 90.2666 32.0034 89.5211 32.9146C88.7756 33.8041 88.4028 34.9648 88.4028 36.3966C88.4028 37.8502 88.7649 39.0326 89.4891 39.9438C90.2347 40.8332 91.2997 41.278 92.6842 41.278Z" fill="#2E6862"/>
<path d="M104.452 22.3899C104.452 22.1686 104.597 21.9737 104.809 21.9106L107.228 21.1911C107.548 21.0958 107.87 21.3359 107.87 21.6704V43.3814C107.87 43.6575 107.646 43.8814 107.37 43.8814H104.952C104.676 43.8814 104.452 43.6575 104.452 43.3814V22.3899Z" fill="#2E6862"/>
<path d="M116.042 44.5298C116.098 44.4065 116.102 44.2659 116.052 44.1401L110.329 29.6279C110.199 29.2998 110.441 28.9444 110.794 28.9444H113.595C113.811 28.9444 114.003 29.0829 114.07 29.2879L117.088 38.4468L117.313 39.1849C117.457 39.6576 118.126 39.6576 118.27 39.1849L118.494 38.4468L121.668 29.2808C121.738 29.0795 121.928 28.9444 122.141 28.9444H124.755C125.107 28.9444 125.349 29.2982 125.221 29.626L117.196 50.2148C117.13 50.3854 116.975 50.506 116.794 50.5292L114.001 50.8864C113.612 50.936 113.32 50.5406 113.482 50.1842L116.042 44.5298Z" fill="#2E6862"/>
<path d="M133.673 44.2068C132.224 44.2068 130.914 43.8922 129.743 43.2631C128.593 42.6122 127.677 41.6902 126.995 40.497C126.314 39.2821 125.973 37.861 125.973 36.2339C125.973 34.6936 126.282 33.3485 126.899 32.1987C127.538 31.0271 128.422 30.1268 129.551 29.4976C130.701 28.8685 132.022 28.5539 133.513 28.5539C134.642 28.5539 135.611 28.7058 136.42 29.0095C137.087 29.2359 137.638 29.5113 138.071 29.8355C138.254 29.9723 138.293 30.2239 138.185 30.4247L137.603 31.499L137.158 32.3196C136.998 32.6153 136.597 32.6703 136.334 32.461C135.568 31.8522 134.723 31.5478 133.801 31.5478C132.437 31.5478 131.394 31.9709 130.669 32.817C129.966 33.6631 129.551 34.8238 129.551 36.2339C129.551 37.8393 129.977 39.0543 130.701 39.9438C131.447 40.8332 132.48 41.278 133.801 41.278C134.461 41.278 135.1 41.1804 135.718 40.9851C136.086 40.8726 136.405 40.7493 136.674 40.6151C136.954 40.4755 137.318 40.5603 137.458 40.8399L138.249 42.4099C138.356 42.6223 138.3 42.8827 138.1 43.0112C137.668 43.2886 137.119 43.5462 136.452 43.7838C135.622 44.0658 134.695 44.2068 133.673 44.2068Z" fill="#2E6862"/>
<path d="M147.597 44.2068C146.085 44.2068 144.743 43.8597 143.572 43.1654C142.4 42.4712 141.495 41.5275 140.856 40.3343C140.217 39.141 139.897 37.8176 139.897 36.3641C139.897 34.9322 140.206 33.6197 140.824 32.4265C141.463 31.2332 142.368 30.2895 143.54 29.5953C144.711 28.901 146.064 28.5539 147.597 28.5539C149.131 28.5539 150.473 28.901 151.623 29.5953C152.795 30.2895 153.689 31.2332 154.307 32.4265C154.946 33.6197 155.265 34.9322 155.265 36.3641C155.265 37.8176 154.946 39.141 154.307 40.3343C153.668 41.5275 152.763 42.4712 151.591 43.1654C150.441 43.8597 149.11 44.2068 147.597 44.2068ZM147.693 41.3431C148.929 41.3431 149.898 40.8766 150.601 39.9438C151.325 39.0109 151.687 37.8393 151.687 36.4292C151.687 35.019 151.304 33.8366 150.537 32.8821C149.77 31.9058 148.758 31.4176 147.502 31.4176C146.287 31.4176 145.308 31.8949 144.562 32.8495C143.838 33.8041 143.476 34.9973 143.476 36.4292C143.476 37.8176 143.87 38.9892 144.658 39.9438C145.446 40.8766 146.458 41.3431 147.693 41.3431Z" fill="#2E6862"/>
<path d="M157.992 29.3544C157.992 29.1161 158.16 28.9108 158.394 28.8641L160.813 28.3811C161.122 28.3193 161.411 28.5559 161.411 28.8714V29.3205C161.411 29.8606 162.406 30.161 162.82 29.8137C162.979 29.6798 163.148 29.5528 163.328 29.4326C164.201 28.8468 165.223 28.5539 166.395 28.5539C167.907 28.5539 169.068 28.8793 169.878 29.5302C170.687 30.1593 171.23 31.0488 171.507 32.1987C171.784 33.3485 171.922 34.8454 171.922 36.6895V43.3814C171.922 43.6575 171.698 43.8814 171.422 43.8814H168.972C168.696 43.8814 168.472 43.6575 168.472 43.3814V36.7871C168.472 34.8997 168.291 33.5438 167.929 32.7193C167.566 31.8732 166.821 31.4502 165.692 31.4502C165.053 31.4502 164.403 31.6563 163.743 32.0685C163.083 32.459 162.529 33.0339 162.082 33.7932C161.656 34.5526 161.443 35.4421 161.443 36.4617V43.3814C161.443 43.6575 161.219 43.8814 160.943 43.8814H158.492C158.216 43.8814 157.992 43.6575 157.992 43.3814V29.3544Z" fill="#2E6862"/>
</svg>
