<svg width="233" height="72" viewBox="0 0 233 72" fill="none" xmlns="http://www.w3.org/2000/svg">
<g clip-path="url(#clip0_1866_12685)">
<path fill-rule="evenodd" clip-rule="evenodd" d="M99.6955 29.5624V23.7829C99.6955 23.5555 99.5241 23.3521 99.2914 23.3162C97.5522 23.0051 95.8008 22.7419 94.0371 22.5504C88.2807 21.9043 82.4754 21.9043 76.719 22.5504C74.9553 22.7419 73.2039 23.0051 71.4647 23.3162C71.232 23.3521 71.0605 23.5555 71.0605 23.7829V29.5624C71.0605 29.7179 71.134 29.8615 71.2565 29.9692L76.719 34.4444V28.9641C78.4459 28.7726 80.1728 28.629 81.912 28.5572C84.2268 28.4496 86.5416 28.4496 88.8564 28.5572C90.5833 28.641 92.3102 28.7726 94.0371 28.9641V34.4444L99.4996 29.9692C99.6221 29.8735 99.6955 29.7179 99.6955 29.5624ZM81.9114 35.3778V49.9043L76.5347 45.5009C76.5225 45.4889 76.498 45.477 76.4857 45.4889C74.869 45.6684 73.2523 45.9077 71.6479 46.1949C71.3417 46.2428 71.0723 46.0274 71.0723 45.7282V37.1248C71.0723 36.8376 71.2805 36.5864 71.5744 36.5385C74.9915 35.9163 78.4453 35.5334 81.9114 35.3778ZM99.6961 37.1248V45.7282C99.6961 46.0274 99.4144 46.2547 99.1204 46.1949C97.5037 45.9077 95.887 45.6684 94.2704 45.4889L88.8691 49.9163V35.3778C92.323 35.5334 95.7768 35.9163 99.2062 36.5265C99.4756 36.5864 99.6961 36.8376 99.6961 37.1248Z" fill="url(#paint0_linear_1866_12685)"/>
<path d="M106.627 25.9727V29.7898L115.237 29.8137L114.025 30.8667V46.2786H119.009V29.7898H126.505V25.9727H106.627Z" fill="#2E6862"/>
<path d="M137.148 46.2786L137.001 44.759C136.364 45.2017 135.715 45.5607 135.041 45.8359C134.367 46.1111 133.633 46.3265 132.836 46.4581C132.04 46.6017 131.195 46.6615 130.301 46.6615C128.88 46.6615 127.692 46.482 126.762 46.135C125.819 45.788 125.133 45.3094 124.679 44.7111C124.226 44.1128 124.006 43.4427 124.006 42.6769V41.5761C124.006 40.7983 124.214 40.1162 124.63 39.5299C125.047 38.9436 125.672 38.4769 126.492 38.1419C127.313 37.8068 128.342 37.6393 129.566 37.6393H136.866V35.9641C136.866 35.6051 136.743 35.306 136.498 35.0547C136.254 34.8034 135.862 34.612 135.323 34.4684C134.784 34.3248 134.037 34.265 133.081 34.265C132.163 34.265 131.416 34.3248 130.852 34.4325C130.277 34.5402 129.872 34.7077 129.628 34.9231C129.383 35.1385 129.26 35.4496 129.26 35.8444V36.2632H124.618V35.665C124.618 34.7077 124.912 33.882 125.5 33.1761C126.088 32.4701 127.019 31.9316 128.268 31.5607C129.517 31.1897 131.134 31.0103 133.118 31.0103C135.176 31.0103 136.829 31.2017 138.078 31.5726C139.328 31.9556 140.234 32.506 140.785 33.2239C141.336 33.9538 141.606 34.8034 141.606 35.7726V46.2547H137.148V46.2786ZM133.498 43.1556C134.184 43.0239 134.796 42.8444 135.359 42.6171C135.923 42.3897 136.425 42.1265 136.878 41.8273V40.6068H130.485C129.787 40.6068 129.334 40.7145 129.089 40.9299C128.856 41.1453 128.733 41.4325 128.733 41.7675V42.2462C128.733 42.5692 128.844 42.7966 129.064 42.9282C129.285 43.0718 129.591 43.1675 129.97 43.2393C130.35 43.3111 130.803 43.347 131.33 43.347C132.102 43.347 132.812 43.2872 133.498 43.1556Z" fill="#2E6862"/>
<path d="M161.937 31.4052V46.2787H157.417L157.234 44.6992C156.646 45.0342 156.009 45.3573 155.323 45.6684C154.637 45.9795 153.878 46.2188 153.045 46.3983C152.212 46.5778 151.257 46.6616 150.167 46.6616C148.869 46.6616 147.754 46.4581 146.848 46.0513C145.941 45.6445 145.243 45.094 144.766 44.4C144.288 43.706 144.043 42.8923 144.043 41.9829V31.4171H148.869V40.9419C148.869 41.3966 148.954 41.7556 149.138 42.0188C149.322 42.2821 149.616 42.4735 150.02 42.6171C150.424 42.7607 151 42.8205 151.734 42.8205C152.249 42.8205 152.763 42.7727 153.314 42.6769C153.853 42.5812 154.368 42.4496 154.858 42.294C155.348 42.1385 155.788 41.971 156.168 41.8154C156.56 41.6599 156.866 41.5043 157.087 41.3727V31.4291H161.937V31.4052Z" fill="#2E6862"/>
</g>
<defs>
<linearGradient id="paint0_linear_1866_12685" x1="71" y1="36" x2="100" y2="36" gradientUnits="userSpaceOnUse">
<stop stop-color="#90B2B2"/>
<stop offset="0.5" stop-color="#2E6862"/>
<stop offset="1" stop-color="#90B2B2"/>
</linearGradient>
<clipPath id="clip0_1866_12685">
<rect width="91" height="28" fill="white" transform="translate(71 22)"/>
</clipPath>
</defs>
</svg>
