<svg width="234" height="72" viewBox="0 0 234 72" fill="none" xmlns="http://www.w3.org/2000/svg">
<path d="M93.4844 42.0048L94.7122 40.4842C95.8403 41.5031 96.9351 42.0571 98.3784 42.0571C99.639 42.0571 100.435 41.4343 100.435 40.5365V40.5018C100.435 39.654 99.9707 39.1529 97.8144 38.6517C95.3423 38.0471 93.9486 37.2527 93.9486 35.0406V35.0059C93.9486 32.9318 95.6074 31.4976 97.9137 31.4976C99.6221 31.4976 100.932 32.0335 102.127 33.0182L101.033 34.6252C99.9712 33.8132 98.9424 33.3813 97.8809 33.3813C96.6863 33.3813 95.9898 34.0041 95.9898 34.8161V34.8508C95.9898 35.7844 96.5205 36.1986 98.7602 36.7521C101.199 37.4084 102.476 38.2727 102.476 40.2939V40.3285C102.476 42.6094 100.768 43.9402 98.3288 43.9402C96.5369 43.9402 94.8781 43.3186 93.4844 42.0048ZM103.534 37.7544V37.7198C103.534 34.2803 106.006 31.4635 109.506 31.4635C111.662 31.4635 112.956 32.2409 114.068 33.3466L112.757 34.9195C111.811 34.0206 110.833 33.4336 109.489 33.4336C107.3 33.4336 105.674 35.3167 105.674 37.6851V37.7198C105.674 40.0865 107.283 42.0042 109.506 42.0042C110.916 42.0042 111.845 41.4173 112.84 40.4496L114.151 41.8315C112.973 43.1623 111.596 43.9743 109.44 43.9743C106.055 43.9749 103.534 41.2269 103.534 37.7544ZM115.473 31.6709H117.513V36.6998H123.054V31.6709H125.094V43.7675H123.054V38.6699H117.513V43.7675H115.473V31.6709ZM126.731 37.7544V37.7198C126.731 34.332 129.253 31.4635 132.819 31.4635C136.386 31.4635 138.875 34.2803 138.875 37.6851V37.7198C138.875 41.107 136.353 43.9749 132.787 43.9749C129.22 43.9749 126.731 41.1581 126.731 37.7544ZM136.734 37.7544V37.7198C136.734 35.3684 135.109 33.4342 132.786 33.4342C130.48 33.4342 128.871 35.3343 128.871 37.6857V37.7203C128.871 40.0706 130.497 42.0048 132.819 42.0048C135.125 42.0048 136.734 40.1046 136.734 37.7544ZM140.511 31.6709H142.552V41.8321H148.656V43.768H140.511V31.6709ZM154.043 31.584H155.935L161.044 43.7675H158.888L157.71 40.8473H152.219L151.024 43.7675H148.934L154.043 31.584ZM154.89 30.1162C154.508 29.9605 154.193 29.8225 153.928 29.8225C153.447 29.8225 153.248 30.0986 152.999 30.6691L151.887 30.306C152.236 28.9417 152.734 28.1808 153.746 28.1808C154.227 28.1808 154.757 28.3882 155.222 28.5786C155.604 28.7167 155.919 28.8548 156.184 28.8548C156.666 28.8548 156.847 28.5786 157.096 28.0251L158.225 28.3712C157.843 29.7355 157.362 30.4964 156.366 30.4964C155.851 30.4958 155.354 30.3055 154.89 30.1162ZM156.963 38.9642L154.957 34.1251L152.966 38.9642H156.963ZM162.201 31.6709H167.377C168.837 31.6709 169.981 32.1198 170.727 32.8807C171.342 33.5546 171.69 34.4365 171.69 35.49V35.5247C171.69 37.5118 170.546 38.7045 168.937 39.1881L172.072 43.768H169.65L166.796 39.5512H164.241V43.768H162.2V31.6709H162.201ZM167.228 37.6675C168.687 37.6675 169.616 36.8902 169.616 35.6457V35.6111C169.616 34.2967 168.738 33.6063 167.211 33.6063H164.241V37.6669H167.228V37.6675ZM173.476 31.6709H175.516V43.7675H173.476V31.6709ZM177.008 42.0048L178.235 40.4842C179.363 41.5031 180.458 42.0571 181.901 42.0571C183.162 42.0571 183.958 41.4343 183.958 40.5365V40.5018C183.958 39.654 183.494 39.1529 181.338 38.6517C178.865 38.0471 177.472 37.2527 177.472 35.0406V35.0059C177.472 32.9318 179.131 31.4976 181.437 31.4976C183.145 31.4976 184.456 32.0335 185.651 33.0182L184.556 34.6252C183.494 33.8132 182.466 33.3813 181.404 33.3813C180.21 33.3813 179.513 34.0041 179.513 34.8161V34.8508C179.513 35.7844 180.044 36.1986 182.283 36.7521C184.722 37.4084 186 38.2727 186 40.2939V40.3285C186 42.6094 184.291 43.9402 181.853 43.9402C180.06 43.9402 178.401 43.3186 177.008 42.0048Z" fill="#2E6862"/>
<path d="M79.6906 39.4563L79.6524 44.2721C79.6491 44.6641 79.438 45.0216 79.1031 45.2011L68.7139 50.7664C68.1297 51.0795 67.4364 51.0778 66.8538 50.7618L56.5475 45.175C56.2126 44.9937 56.0026 44.6329 56.0026 44.2397V39.4654L66.9089 45.3659C67.4936 45.6824 68.1891 45.6818 68.7733 45.3659L79.6906 39.4563ZM87.3654 31.3249L68.7646 21.2382C68.1782 20.9205 67.48 20.9205 66.8942 21.2387L55.0354 27.6808L70.5194 36.0918L68.313 37.2913C68.02 37.4504 67.6709 37.4504 67.3775 37.2913L52.3593 29.1338L48.3261 31.3243C47.8913 31.5607 47.8913 32.209 48.3261 32.4454L52.5268 34.7274V38.5664C52.0331 38.7289 51.6731 39.204 51.6731 39.7722C51.6731 40.474 52.2191 41.0422 52.8923 41.0422C53.5659 41.0422 54.112 40.4734 54.112 39.7722C54.112 39.2045 53.7519 38.7295 53.2583 38.5664V35.1252L66.8554 42.5105C67.4391 42.8276 68.134 42.8287 68.7188 42.5139L80.6495 36.0918L65.165 27.6808L67.3775 26.4784C67.6704 26.3193 68.0195 26.3193 68.3124 26.4784L83.3333 34.636L87.3654 32.446C87.8013 32.2096 87.8013 31.5607 87.3654 31.3249Z" fill="#2E6862"/>
</svg>
