<svg width="234" height="72" viewBox="0 0 234 72" fill="none" xmlns="http://www.w3.org/2000/svg">
<g clip-path="url(#clip0_1864_12394)">
<path d="M69.2676 36H58.2676V47H69.2676V36Z" fill="#2E6862"/>
</g>
<rect x="74.7676" y="25" width="5.5" height="22" fill="#2E6862"/>
<rect x="58.2676" y="30.5" width="5.5" height="22" transform="rotate(-90 58.2676 30.5)" fill="#2E6862"/>
<path d="M98.8301 26.6088C101.47 26.6088 103.661 27.5346 105.403 29.3863C107.163 31.238 108.043 33.5205 108.043 36.2338C108.043 38.9288 107.163 41.2113 105.403 43.0813C103.661 44.933 101.47 45.8588 98.8301 45.8588H91.2676V26.6088H98.8301ZM98.8301 42.8338C100.645 42.8338 102.121 42.2105 103.258 40.9638C104.413 39.7171 104.99 38.1405 104.99 36.2338C104.99 34.3088 104.413 32.7321 103.258 31.5038C102.121 30.2571 100.645 29.6338 98.8301 29.6338H94.4301V42.8338H98.8301Z" fill="#2E6862"/>
<path d="M113.071 40.2488C113.291 41.2938 113.795 42.1005 114.583 42.6688C115.372 43.2188 116.334 43.4938 117.471 43.4938C119.047 43.4938 120.23 42.9255 121.018 41.7888L123.466 43.2188C122.109 45.2172 120.102 46.2163 117.443 46.2163C115.207 46.2163 113.401 45.538 112.026 44.1813C110.651 42.8063 109.963 41.0738 109.963 38.9838C109.963 36.9305 110.642 35.2163 111.998 33.8413C113.355 32.448 115.097 31.7513 117.223 31.7513C119.24 31.7513 120.89 32.4571 122.173 33.8688C123.475 35.2805 124.126 36.9946 124.126 39.0113C124.126 39.323 124.089 39.7355 124.016 40.2488H113.071ZM113.043 37.8288H121.128C120.927 36.7105 120.459 35.8671 119.726 35.2988C119.011 34.7305 118.167 34.4463 117.196 34.4463C116.096 34.4463 115.179 34.7488 114.446 35.3538C113.712 35.9588 113.245 36.7838 113.043 37.8288Z" fill="#2E6862"/>
<path d="M133.514 29.1113C131.351 28.9096 130.269 29.8171 130.269 31.8338V32.1088H133.514V34.9688H130.269V45.8588H127.299V34.9688H125.209V32.1088H127.299V31.8338C127.299 29.9455 127.822 28.5155 128.867 27.5438C129.93 26.5538 131.479 26.123 133.514 26.2513V29.1113Z" fill="#2E6862"/>
<path d="M145.498 32.1088H148.468V45.8588H145.498V43.8788C144.379 45.4372 142.775 46.2163 140.685 46.2163C138.797 46.2163 137.184 45.5197 135.845 44.1263C134.507 42.7146 133.838 41.0005 133.838 38.9838C133.838 36.9488 134.507 35.2346 135.845 33.8413C137.184 32.448 138.797 31.7513 140.685 31.7513C142.775 31.7513 144.379 32.5213 145.498 34.0613V32.1088ZM138.045 42.1463C138.87 42.9713 139.906 43.3838 141.153 43.3838C142.399 43.3838 143.435 42.9713 144.26 42.1463C145.085 41.303 145.498 40.2488 145.498 38.9838C145.498 37.7188 145.085 36.6738 144.26 35.8488C143.435 35.0055 142.399 34.5838 141.153 34.5838C139.906 34.5838 138.87 35.0055 138.045 35.8488C137.22 36.6738 136.808 37.7188 136.808 38.9838C136.808 40.2488 137.22 41.303 138.045 42.1463Z" fill="#2E6862"/>
<path d="M161.197 32.1088H164.167V45.8588H161.197V44.0988C160.299 45.5105 158.878 46.2163 156.935 46.2163C155.358 46.2163 154.084 45.7122 153.112 44.7038C152.14 43.6955 151.655 42.3113 151.655 40.5513V32.1088H154.625V40.2488C154.625 41.2755 154.9 42.0638 155.45 42.6138C156 43.1638 156.751 43.4388 157.705 43.4388C158.75 43.4388 159.593 43.118 160.235 42.4763C160.876 41.8163 161.197 40.8171 161.197 39.4788V32.1088Z" fill="#2E6862"/>
<path d="M167.64 45.8588V25.7838H170.61V45.8588H167.64Z" fill="#2E6862"/>
<path d="M181.731 34.9688H178.321V41.5688C178.321 42.1372 178.449 42.5497 178.706 42.8063C178.963 43.0447 179.338 43.1822 179.833 43.2188C180.347 43.2372 180.979 43.228 181.731 43.1913V45.8588C179.458 46.1338 177.826 45.9413 176.836 45.2813C175.846 44.603 175.351 43.3655 175.351 41.5688V34.9688H172.821V32.1088H175.351V29.1388L178.321 28.2588V32.1088H181.731V34.9688Z" fill="#2E6862"/>
<defs>
<clipPath id="clip0_1864_12394">
<path d="M58.2676 41.5C58.2676 38.4624 60.73 36 63.7676 36C66.8051 36 69.2676 38.4624 69.2676 41.5C69.2676 44.5376 66.8051 47 63.7676 47H58.2676V41.5Z" fill="white"/>
</clipPath>
</defs>
</svg>
