<svg width="233" height="72" viewBox="0 0 233 72" fill="none" xmlns="http://www.w3.org/2000/svg">
<g clip-path="url(#clip0_1864_12543)">
<path d="M120.26 23.7672C120.581 23.7648 120.901 23.7919 121.217 23.8482C121.378 23.8722 121.529 23.9369 121.658 24.036C121.777 24.1416 121.867 24.2775 121.916 24.4294C122.016 24.7342 122.06 25.0545 122.045 25.375V31.5014L123.279 30.9785C123.609 30.8504 123.947 30.7444 124.29 30.6612C124.759 30.5432 125.241 30.4861 125.724 30.4912C126.407 30.4444 127.093 30.5345 127.741 30.7561C128.388 30.9776 128.986 31.3263 129.497 31.7815C129.97 32.3211 130.33 32.9503 130.555 33.6317C130.78 34.3132 130.866 35.0329 130.808 35.7482V44.0976L130.667 44.1211C130.293 44.1773 129.916 44.2043 129.538 44.2021C129.217 44.2061 128.897 44.1807 128.581 44.126C128.42 44.1019 128.269 44.0373 128.14 43.9382C128.021 43.8325 127.931 43.6966 127.882 43.5447C127.859 43.4856 127.841 43.433 127.817 43.3828C127.757 43.2526 127.735 43.1082 127.753 42.9659V36.0526C127.79 35.6033 127.73 35.1514 127.578 34.727C127.426 34.3027 127.185 33.9158 126.871 33.5924C126.313 33.101 125.591 32.837 124.847 32.8525C124.394 32.8522 123.942 32.9173 123.507 33.046C123.126 33.1533 122.763 33.3196 122.432 33.539L122.05 33.8029V44.092L121.909 44.1154C121.536 44.1716 121.159 44.1987 120.781 44.1964C120.46 44.2005 120.139 44.175 119.823 44.1203C119.663 44.0963 119.511 44.0316 119.383 43.9325C119.263 43.8269 119.174 43.691 119.125 43.5391C119.101 43.48 119.083 43.4273 119.06 43.3772C119.001 43.2481 118.979 43.1052 118.996 42.9643V23.8976L119.184 23.862C119.539 23.8008 119.899 23.7691 120.26 23.7672Z" fill="#2E6862"/>
<path d="M153.322 30.492C154.885 30.3834 156.435 30.8514 157.676 31.8075C158.168 32.2679 158.552 32.8315 158.8 33.4579C159.048 34.0843 159.154 34.7578 159.11 35.4301V44.1041L158.969 44.1276C158.596 44.1838 158.218 44.2108 157.841 44.2086C157.52 44.2126 157.199 44.1872 156.883 44.1325C156.723 44.1084 156.571 44.0438 156.443 43.9446C156.323 43.839 156.234 43.7031 156.184 43.5512C156.161 43.4921 156.143 43.4395 156.12 43.3893C156.06 43.2591 156.037 43.1147 156.055 42.9724V35.6187C156.08 35.236 156.022 34.8525 155.886 34.494C155.75 34.1354 155.539 33.81 155.267 33.5398C154.727 33.0734 154.029 32.83 153.316 32.859C152.855 32.8593 152.397 32.9224 151.953 33.0468C151.498 33.17 151.072 33.3813 150.698 33.6686L150.357 33.9325V44.092L150.217 44.1155C149.843 44.1716 149.466 44.1987 149.088 44.1964C148.767 44.2005 148.447 44.175 148.13 44.1203C147.968 44.0962 147.815 44.0307 147.686 43.9301C147.566 43.8245 147.477 43.6886 147.428 43.5366C147.404 43.4776 147.387 43.4249 147.363 43.3747C147.304 43.2465 147.282 43.1045 147.298 42.9643V33.6216C147.28 33.3082 147.347 32.9957 147.493 32.7174C147.674 32.4353 147.905 32.1885 148.174 31.9888C148.825 31.5095 149.555 31.1481 150.331 30.921C151.299 30.6228 152.309 30.478 153.322 30.492Z" fill="#2E6862"/>
<path d="M110.803 44.3616C109.829 44.3616 108.858 44.2728 107.9 44.096C107.349 44.0369 106.82 43.8436 106.36 43.5332C105.9 43.2228 105.524 42.8046 105.263 42.3151C105.016 41.7586 104.895 41.1542 104.91 40.5455C104.872 40.0761 104.93 39.6039 105.08 39.1576C105.23 38.7112 105.47 38.3002 105.784 37.9493C106.635 37.2469 107.693 36.8431 108.795 36.7998L112.438 36.374L113.228 36.2793V35.2771C113.244 34.8593 113.142 34.4453 112.934 34.0828C112.726 33.7202 112.42 33.4237 112.051 33.2274C111.281 32.8664 110.436 32.6996 109.587 32.7417C108.823 32.7404 108.062 32.8317 107.32 33.0137C106.869 33.1251 106.424 33.2603 105.987 33.4184C105.969 33.3796 105.948 33.3375 105.921 33.2897C105.804 33.0357 105.744 32.7596 105.744 32.4802C105.725 32.2214 105.787 31.9631 105.921 31.7411C106.111 31.5105 106.355 31.3299 106.631 31.2149C107.167 31.0026 107.729 30.8593 108.302 30.7883C108.944 30.6808 109.593 30.6266 110.244 30.6264H110.321C111.141 30.6242 111.957 30.7273 112.75 30.9332C113.399 31.0985 114.009 31.3919 114.543 31.7961C115.017 32.1669 115.392 32.6487 115.636 33.199C115.915 33.8711 116.048 34.5944 116.028 35.3216V42.1856C116.044 42.3108 116.034 42.4381 115.999 42.5593C115.963 42.6805 115.903 42.7931 115.822 42.8899C115.487 43.3284 115.028 43.6563 114.505 43.8313L114.464 43.8443L114.422 43.8605C113.251 44.2238 112.029 44.393 110.803 44.3616ZM113.248 37.9072L112.276 37.993L110.28 38.1703C109.694 38.1991 109.123 38.3679 108.616 38.6625C108.325 38.834 108.086 39.0801 107.923 39.3752C107.76 39.6703 107.679 40.0037 107.689 40.3407C107.682 40.653 107.743 40.963 107.869 41.2489C107.995 41.5348 108.182 41.7896 108.417 41.9953C109.003 42.4418 109.733 42.6568 110.467 42.5992C110.872 42.5964 111.276 42.5552 111.673 42.4762C112.089 42.4148 112.488 42.2729 112.849 42.0585L113.248 41.7978V37.9121V37.9072Z" fill="#2E6862"/>
<path d="M139.12 44.3616C138.147 44.3615 137.176 44.2726 136.219 44.0961C135.667 44.0374 135.138 43.8444 134.677 43.5339C134.217 43.2235 133.84 42.805 133.579 42.3151C133.332 41.7583 133.211 41.1542 133.224 40.5455C133.186 40.0759 133.245 39.6036 133.395 39.1573C133.546 38.711 133.786 38.3 134.101 37.9493C134.95 37.246 136.008 36.842 137.11 36.7998L140.753 36.374L141.539 36.2793V35.2771C141.556 34.8595 141.455 34.4456 141.247 34.0831C141.039 33.7205 140.733 33.4239 140.364 33.2274C139.595 32.8657 138.749 32.6989 137.901 32.7417C137.137 32.7408 136.376 32.8321 135.634 33.0137C135.183 33.1253 134.738 33.2604 134.301 33.4184C134.29 33.395 134.276 33.3788 134.267 33.3504L134.259 33.3326L134.236 33.2873C134.118 33.0337 134.058 32.7574 134.059 32.4778C134.039 32.2189 134.101 31.9603 134.236 31.7387C134.426 31.5082 134.67 31.3283 134.947 31.2149C135.482 31.0024 136.043 30.8591 136.614 30.7883C137.256 30.6811 137.906 30.6269 138.557 30.6264H138.634C139.453 30.6237 140.27 30.7268 141.063 30.9332C141.714 31.0983 142.326 31.3913 142.863 31.7953C143.336 32.1654 143.709 32.6472 143.949 33.1974C144.228 33.8701 144.363 34.5937 144.344 35.3216V42.1856C144.36 42.311 144.349 42.4382 144.313 42.5594C144.277 42.6805 144.217 42.793 144.136 42.8899C143.801 43.3271 143.343 43.6548 142.822 43.8313L142.78 43.8443L142.739 43.8605C141.568 44.2238 140.345 44.3931 139.12 44.3616ZM141.568 37.9073L140.596 37.9955L138.6 38.1793C138.014 38.2081 137.443 38.3768 136.936 38.6714C136.646 38.8428 136.407 39.0882 136.244 39.3824C136.081 39.6767 135.999 40.0091 136.007 40.3455C136.001 40.6577 136.063 40.9675 136.189 41.2533C136.314 41.5391 136.501 41.794 136.736 42.0002C137.321 42.4467 138.051 42.6617 138.785 42.6041C139.19 42.5982 139.594 42.557 139.992 42.4811C140.407 42.4196 140.806 42.2777 141.167 42.0633L141.565 41.8019V37.9121L141.568 37.9073Z" fill="#2E6862"/>
<path d="M167.431 44.3616C166.458 44.3614 165.488 44.2725 164.532 44.096C163.98 44.0369 163.452 43.8436 162.992 43.5332C162.532 43.2228 162.155 42.8046 161.894 42.3151C161.646 41.7589 161.524 41.1545 161.537 40.5455C161.499 40.076 161.557 39.6038 161.707 39.1575C161.858 38.7112 162.097 38.3001 162.412 37.9493C163.262 37.247 164.32 36.8432 165.422 36.7998L169.065 36.374L169.852 36.2793V35.2771C169.869 34.8594 169.767 34.4455 169.559 34.0829C169.351 33.7203 169.045 33.4238 168.676 33.2274C167.908 32.8658 167.063 32.699 166.215 32.7417C165.451 32.7404 164.69 32.8317 163.948 33.0137C163.496 33.1249 163.05 33.26 162.612 33.4184C162.605 33.4014 162.596 33.3828 162.587 33.3642C162.575 33.3401 162.564 33.3152 162.555 33.2897C162.439 33.0357 162.378 32.7596 162.378 32.4802C162.359 32.2214 162.421 31.9631 162.555 31.7411C162.746 31.5114 162.99 31.3309 163.265 31.2149C163.8 31.0024 164.361 30.859 164.933 30.7883C165.579 30.6951 166.231 30.6486 166.884 30.649L166.872 30.6264H166.949C167.768 30.6242 168.585 30.7273 169.378 30.9332C170.028 31.0978 170.639 31.391 171.175 31.7953C171.648 32.1654 172.021 32.6472 172.261 33.1974C172.542 33.8693 172.677 34.5936 172.655 35.3216V42.1856C172.671 42.3108 172.661 42.4378 172.625 42.5589C172.59 42.68 172.53 42.7927 172.45 42.8899C172.115 43.3281 171.656 43.656 171.133 43.8313L171.091 43.8443L171.05 43.8605C169.879 44.2238 168.656 44.3931 167.431 44.3616ZM169.875 37.9072L168.903 37.993L166.91 38.1768C166.325 38.2052 165.755 38.374 165.249 38.669C164.959 38.8399 164.72 39.0852 164.557 39.3796C164.393 39.6739 164.312 40.0066 164.321 40.3431C164.314 40.6553 164.376 40.9652 164.502 41.2511C164.628 41.5369 164.814 41.7917 165.049 41.9978C165.636 42.444 166.367 42.6589 167.102 42.6017C167.506 42.5959 167.909 42.5548 168.306 42.4786C168.719 42.4184 169.117 42.2764 169.475 42.0609L169.88 41.7994V37.9121L169.875 37.9072Z" fill="#2E6862"/>
<path d="M79.6947 35.4803C80.4883 35.4803 81.1316 34.8369 81.1316 34.0433C81.1316 33.2498 80.4883 32.6064 79.6947 32.6064C78.9011 32.6064 78.2578 33.2498 78.2578 34.0433C78.2578 34.8369 78.9011 35.4803 79.6947 35.4803Z" fill="#2E6862"/>
<path d="M81.9072 31.1672C82.762 31.1672 83.455 30.4742 83.455 29.6193C83.455 28.7645 82.762 28.0715 81.9072 28.0715C81.0524 28.0715 80.3594 28.7645 80.3594 29.6193C80.3594 30.4742 81.0524 31.1672 81.9072 31.1672Z" fill="#2E6862"/>
<path d="M77.4834 31.1672C78.3382 31.1672 79.0312 30.4742 79.0312 29.6193C79.0312 28.7645 78.3382 28.0715 77.4834 28.0715C76.6285 28.0715 75.9355 28.7645 75.9355 29.6193C75.9355 30.4742 76.6285 31.1672 77.4834 31.1672Z" fill="#2E6862"/>
<path d="M61.9949 52.7393C62.5444 52.7393 62.9898 52.2939 62.9898 51.7444C62.9898 51.1949 62.5444 50.7495 61.9949 50.7495C61.4454 50.7495 61 51.1949 61 51.7444C61 52.2939 61.4454 52.7393 61.9949 52.7393Z" fill="#2E6862"/>
<path d="M66.4207 52.7393C66.9702 52.7393 67.4156 52.2939 67.4156 51.7444C67.4156 51.1949 66.9702 50.7495 66.4207 50.7495C65.8712 50.7495 65.4258 51.1949 65.4258 51.7444C65.4258 52.2939 65.8712 52.7393 66.4207 52.7393Z" fill="#2E6862"/>
<path d="M70.8445 52.7393C71.394 52.7393 71.8394 52.2939 71.8394 51.7444C71.8394 51.1949 71.394 50.7495 70.8445 50.7495C70.295 50.7495 69.8496 51.1949 69.8496 51.7444C69.8496 52.2939 70.295 52.7393 70.8445 52.7393Z" fill="#2E6862"/>
<path d="M64.2066 48.4246C64.8168 48.4246 65.3116 47.9299 65.3116 47.3196C65.3116 46.7093 64.8168 46.2146 64.2066 46.2146C63.5963 46.2146 63.1016 46.7093 63.1016 47.3196C63.1016 47.9299 63.5963 48.4246 64.2066 48.4246Z" fill="#2E6862"/>
<path d="M68.6323 48.4246C69.2426 48.4246 69.7373 47.9299 69.7373 47.3196C69.7373 46.7093 69.2426 46.2146 68.6323 46.2146C68.0221 46.2146 67.5273 46.7093 67.5273 47.3196C67.5273 47.9299 68.0221 48.4246 68.6323 48.4246Z" fill="#2E6862"/>
<path d="M73.0562 48.4246C73.6664 48.4246 74.1612 47.9299 74.1612 47.3196C74.1612 46.7093 73.6664 46.2146 73.0562 46.2146C72.4459 46.2146 71.9512 46.7093 71.9512 47.3196C71.9512 47.9299 72.4459 48.4246 73.0562 48.4246Z" fill="#2E6862"/>
<path d="M66.419 44.1091C67.0906 44.1091 67.6349 43.5647 67.6349 42.8932C67.6349 42.2216 67.0906 41.6772 66.419 41.6772C65.7475 41.6772 65.2031 42.2216 65.2031 42.8932C65.2031 43.5647 65.7475 44.1091 66.419 44.1091Z" fill="#2E6862"/>
<path d="M70.8448 44.1091C71.5163 44.1091 72.0607 43.5647 72.0607 42.8932C72.0607 42.2216 71.5163 41.6772 70.8448 41.6772C70.1733 41.6772 69.6289 42.2216 69.6289 42.8932C69.6289 43.5647 70.1733 44.1091 70.8448 44.1091Z" fill="#2E6862"/>
<path d="M75.2686 44.1091C75.9402 44.1091 76.4845 43.5647 76.4845 42.8932C76.4845 42.2216 75.9402 41.6772 75.2686 41.6772C74.5971 41.6772 74.0527 42.2216 74.0527 42.8932C74.0527 43.5647 74.5971 44.1091 75.2686 44.1091Z" fill="#2E6862"/>
<path d="M68.6315 39.7958C69.3643 39.7958 69.9583 39.2018 69.9583 38.469C69.9583 37.7362 69.3643 37.1422 68.6315 37.1422C67.8987 37.1422 67.3047 37.7362 67.3047 38.469C67.3047 39.2018 67.8987 39.7958 68.6315 39.7958Z" fill="#2E6862"/>
<path d="M73.0573 39.7958C73.7901 39.7958 74.3841 39.2018 74.3841 38.469C74.3841 37.7362 73.7901 37.1422 73.0573 37.1422C72.3245 37.1422 71.7305 37.7362 71.7305 38.469C71.7305 39.2018 72.3245 39.7958 73.0573 39.7958Z" fill="#2E6862"/>
<path d="M77.4831 39.7958C78.2158 39.7958 78.8099 39.2018 78.8099 38.469C78.8099 37.7362 78.2158 37.1422 77.4831 37.1422C76.7503 37.1422 76.1562 37.7362 76.1562 38.469C76.1562 39.2018 76.7503 39.7958 77.4831 39.7958Z" fill="#2E6862"/>
<path d="M70.8451 35.4803C71.6387 35.4803 72.282 34.8369 72.282 34.0433C72.282 33.2498 71.6387 32.6064 70.8451 32.6064C70.0515 32.6064 69.4082 33.2498 69.4082 34.0433C69.4082 34.8369 70.0515 35.4803 70.8451 35.4803Z" fill="#2E6862"/>
<path d="M75.2709 35.4803C76.0645 35.4803 76.7078 34.8369 76.7078 34.0433C76.7078 33.2498 76.0645 32.6064 75.2709 32.6064C74.4773 32.6064 73.834 33.2498 73.834 34.0433C73.834 34.8369 74.4773 35.4803 75.2709 35.4803Z" fill="#2E6862"/>
<path d="M73.0576 31.1672C73.9124 31.1672 74.6054 30.4742 74.6054 29.6193C74.6054 28.7645 73.9124 28.0715 73.0576 28.0715C72.2027 28.0715 71.5098 28.7645 71.5098 29.6193C71.5098 30.4742 72.2027 31.1672 73.0576 31.1672Z" fill="#2E6862"/>
<path d="M75.2712 26.8516C76.1868 26.8516 76.9291 26.1093 76.9291 25.1937C76.9291 24.278 76.1868 23.5358 75.2712 23.5358C74.3556 23.5358 73.6133 24.278 73.6133 25.1937C73.6133 26.1093 74.3556 26.8516 75.2712 26.8516Z" fill="#2E6862"/>
<path d="M79.695 26.8516C80.6107 26.8516 81.3529 26.1093 81.3529 25.1937C81.3529 24.278 80.6107 23.5358 79.695 23.5358C78.7794 23.5358 78.0371 24.278 78.0371 25.1937C78.0371 26.1093 78.7794 26.8516 79.695 26.8516Z" fill="#2E6862"/>
<path d="M84.1208 26.8516C85.0364 26.8516 85.7787 26.1093 85.7787 25.1937C85.7787 24.278 85.0364 23.5358 84.1208 23.5358C83.2052 23.5358 82.4629 24.278 82.4629 25.1937C82.4629 26.1093 83.2052 26.8516 84.1208 26.8516Z" fill="#2E6862"/>
<path d="M77.4837 22.5376C78.4605 22.5376 79.2525 21.7457 79.2525 20.7688C79.2525 19.7919 78.4605 19 77.4837 19C76.5068 19 75.7148 19.7919 75.7148 20.7688C75.7148 21.7457 76.5068 22.5376 77.4837 22.5376Z" fill="#2E6862"/>
<path d="M81.9075 22.5376C82.8844 22.5376 83.6763 21.7457 83.6763 20.7688C83.6763 19.7919 82.8844 19 81.9075 19C80.9306 19 80.1387 19.7919 80.1387 20.7688C80.1387 21.7457 80.9306 22.5376 81.9075 22.5376Z" fill="#2E6862"/>
<path d="M97.3953 52.7393C97.9448 52.7393 98.3902 52.2939 98.3902 51.7444C98.3902 51.1949 97.9448 50.7495 97.3953 50.7495C96.8458 50.7495 96.4004 51.1949 96.4004 51.7444C96.4004 52.2939 96.8458 52.7393 97.3953 52.7393Z" fill="#90B2B2"/>
<path d="M92.9715 52.7393C93.5209 52.7393 93.9664 52.2939 93.9664 51.7444C93.9664 51.1949 93.5209 50.7495 92.9715 50.7495C92.422 50.7495 91.9766 51.1949 91.9766 51.7444C91.9766 52.2939 92.422 52.7393 92.9715 52.7393Z" fill="#B7CDCD"/>
<path d="M88.5457 52.7393C89.0952 52.7393 89.5406 52.2939 89.5406 51.7444C89.5406 51.1949 89.0952 50.7495 88.5457 50.7495C87.9962 50.7495 87.5508 51.1949 87.5508 51.7444C87.5508 52.2939 87.9962 52.7393 88.5457 52.7393Z" fill="#B7CDCD"/>
<path d="M95.1812 48.4246C95.7914 48.4246 96.2862 47.9299 96.2862 47.3196C96.2862 46.7093 95.7914 46.2146 95.1812 46.2146C94.5709 46.2146 94.0762 46.7093 94.0762 47.3196C94.0762 47.9299 94.5709 48.4246 95.1812 48.4246Z" fill="#90B2B2"/>
<path d="M90.7573 48.4246C91.3676 48.4246 91.8623 47.9299 91.8623 47.3196C91.8623 46.7093 91.3676 46.2146 90.7573 46.2146C90.1471 46.2146 89.6523 46.7093 89.6523 47.3196C89.6523 47.9299 90.1471 48.4246 90.7573 48.4246Z" fill="#B7CDCD"/>
<path d="M86.3316 48.4246C86.9418 48.4246 87.4366 47.9299 87.4366 47.3196C87.4366 46.7093 86.9418 46.2146 86.3316 46.2146C85.7213 46.2146 85.2266 46.7093 85.2266 47.3196C85.2266 47.9299 85.7213 48.4246 86.3316 48.4246Z" fill="#B7CDCD"/>
<path d="M92.9698 44.1091C93.6413 44.1091 94.1857 43.5647 94.1857 42.8932C94.1857 42.2216 93.6413 41.6772 92.9698 41.6772C92.2983 41.6772 91.7539 42.2216 91.7539 42.8932C91.7539 43.5647 92.2983 44.1091 92.9698 44.1091Z" fill="#90B2B2"/>
<path d="M88.544 44.1091C89.2156 44.1091 89.7599 43.5647 89.7599 42.8932C89.7599 42.2216 89.2156 41.6772 88.544 41.6772C87.8725 41.6772 87.3281 42.2216 87.3281 42.8932C87.3281 43.5647 87.8725 44.1091 88.544 44.1091Z" fill="#B7CDCD"/>
<path d="M84.1202 44.1091C84.7917 44.1091 85.3361 43.5647 85.3361 42.8932C85.3361 42.2216 84.7917 41.6772 84.1202 41.6772C83.4487 41.6772 82.9043 42.2216 82.9043 42.8932C82.9043 43.5647 83.4487 44.1091 84.1202 44.1091Z" fill="#B7CDCD"/>
<path d="M90.7585 39.7958C91.4912 39.7958 92.0853 39.2018 92.0853 38.469C92.0853 37.7362 91.4912 37.1422 90.7585 37.1422C90.0257 37.1422 89.4316 37.7362 89.4316 38.469C89.4316 39.2018 90.0257 39.7958 90.7585 39.7958Z" fill="#90B2B2"/>
<path d="M86.3327 39.7958C87.0654 39.7958 87.6595 39.2018 87.6595 38.469C87.6595 37.7362 87.0654 37.1422 86.3327 37.1422C85.5999 37.1422 85.0059 37.7362 85.0059 38.469C85.0059 39.2018 85.5999 39.7958 86.3327 39.7958Z" fill="#B7CDCD"/>
<path d="M81.9069 39.7958C82.6397 39.7958 83.2337 39.2018 83.2337 38.469C83.2337 37.7362 82.6397 37.1422 81.9069 37.1422C81.1741 37.1422 80.5801 37.7362 80.5801 38.469C80.5801 39.2018 81.1741 39.7958 81.9069 39.7958Z" fill="#B7CDCD"/>
<path d="M88.5443 35.4803C89.3379 35.4803 89.9812 34.8369 89.9812 34.0433C89.9812 33.2498 89.3379 32.6064 88.5443 32.6064C87.7507 32.6064 87.1074 33.2498 87.1074 34.0433C87.1074 34.8369 87.7507 35.4803 88.5443 35.4803Z" fill="#90B2B2"/>
<path d="M84.1205 35.4803C84.9141 35.4803 85.5574 34.8369 85.5574 34.0433C85.5574 33.2498 84.9141 32.6064 84.1205 32.6064C83.3269 32.6064 82.6836 33.2498 82.6836 34.0433C82.6836 34.8369 83.3269 35.4803 84.1205 35.4803Z" fill="#B7CDCD"/>
<path d="M86.333 31.1672C87.1878 31.1672 87.8808 30.4742 87.8808 29.6193C87.8808 28.7645 87.1878 28.0715 86.333 28.0715C85.4781 28.0715 84.7852 28.7645 84.7852 29.6193C84.7852 30.4742 85.4781 31.1672 86.333 31.1672Z" fill="#90B2B2"/>
</g>
<defs>
<clipPath id="clip0_1864_12543">
<rect width="111.714" height="34" fill="white" transform="translate(61 19)"/>
</clipPath>
</defs>
</svg>
