<svg width="234" height="72" viewBox="0 0 234 72" fill="none" xmlns="http://www.w3.org/2000/svg">
<g clip-path="url(#clip0_1866_12764)">
<mask id="mask0_1866_12764" style="mask-type:luminance" maskUnits="userSpaceOnUse" x="60" y="23" width="114" height="26">
<path d="M174 23H60V49H174V23Z" fill="white"/>
</mask>
<g mask="url(#mask0_1866_12764)">
<path d="M82.9088 41.4301C81.83 41.0437 80.8609 40.3954 80.086 39.5421C78.8355 38.1725 78.1434 36.3736 78.149 34.5075C78.1449 33.4918 78.3507 32.4865 78.7532 31.5563C78.7532 31.5455 78.7639 31.5347 78.7687 31.5239L78.7923 31.4712C78.8029 31.4497 78.8159 31.4245 78.8277 31.3957C78.8396 31.3669 78.8455 31.3574 78.8538 31.337L78.862 31.3153C79.1415 30.6578 79.2848 29.9491 79.283 29.2332C79.283 26.1465 76.6873 23.4255 73.3844 23.0383C73.2922 23.0275 73.201 23.0191 73.1265 23.0119C72.9109 22.9851 72.6922 23.0002 72.482 23.0563C72.4701 23.0591 72.4582 23.0627 72.4466 23.067L72.4017 23.0826L61.1731 27.3153C61.1206 27.3312 61.0692 27.3508 61.0194 27.374L60.9839 27.3884C60.6974 27.5081 60.4517 27.7101 60.2769 27.9695C60.1021 28.2289 60.0059 28.5344 60 28.8484V48.2747C59.9992 48.3696 60.017 48.4638 60.0523 48.5518C60.0876 48.6397 60.1398 48.7198 60.2057 48.7872C60.2717 48.8545 60.3502 48.9081 60.4367 48.9446C60.5231 48.9811 60.6159 48.9999 60.7096 48.9999C60.8271 48.9997 60.9428 48.9706 61.0466 48.9148L68.1337 45.0789C68.4329 45.4641 68.7615 45.8248 69.1165 46.1578C70.2766 47.2365 71.6799 48.0107 73.2034 48.4125C73.2629 48.4282 73.3241 48.4363 73.3855 48.4365C73.5142 48.4368 73.6405 48.4016 73.751 48.3346L83.0377 42.7331C83.1565 42.664 83.2532 42.5616 83.3159 42.4382C83.3786 42.3147 83.4047 42.1756 83.391 42.0374C83.3774 41.8993 83.3246 41.7681 83.2391 41.6597C83.1535 41.5512 83.0388 41.4703 82.9088 41.4265V41.4301ZM61.4298 47.064V28.8436C61.4298 28.7957 61.4901 28.7441 61.5539 28.7118L61.5859 28.6986L61.619 28.6878L61.6426 28.6794C61.7147 28.6602 61.7894 28.6533 61.8638 28.659C65.1265 28.8892 67.6867 31.1248 67.6867 33.7547C67.6849 34.3475 67.5523 34.9324 67.2989 35.4665L67.2906 35.4844L67.2823 35.5013C67.2717 35.5217 67.2598 35.5432 67.2504 35.5648C67.2409 35.5863 67.2326 35.6007 67.2255 35.6175L67.2173 35.6343C67.209 35.6499 67.1995 35.6667 67.1924 35.6823C66.6008 36.9202 66.2939 38.2781 66.2949 39.6535C66.2949 39.8573 66.3031 40.06 66.3161 40.2625C66.3161 40.3285 66.328 40.3932 66.3339 40.4579C66.3469 40.5946 66.3599 40.7324 66.3788 40.8691C66.3895 40.9434 66.4013 41.0177 66.4131 41.092C66.4344 41.2191 66.4569 41.3449 66.4829 41.4696C66.4983 41.5451 66.5136 41.6207 66.5314 41.695C66.5609 41.822 66.594 41.9479 66.6295 42.0726C66.6484 42.1421 66.6674 42.2104 66.6875 42.2787C66.7324 42.4238 66.7809 42.5664 66.8329 42.7079C66.8495 42.7546 66.8649 42.8014 66.8826 42.8481C66.9536 43.0352 67.0324 43.2194 67.1191 43.4007C67.1392 43.4427 67.1617 43.4834 67.1818 43.5206C67.2362 43.6405 67.2906 43.7496 67.3509 43.8622L61.4298 47.064Z" fill="#90B2B2"/>
<path d="M94.0889 29.0824C96.2318 29.0824 97.8708 29.482 99.0061 30.2811C100.141 31.0802 100.709 32.2969 100.71 33.9312C100.71 35.973 99.7172 37.3555 97.7313 38.0787C98.0033 38.4119 98.3104 38.8175 98.6525 39.2954C98.9947 39.7733 99.3447 40.2927 99.7026 40.8538C100.06 41.4132 100.403 41.9849 100.732 42.5691C101.06 43.1532 101.353 43.7286 101.61 44.2952H98.5886C98.3166 43.775 98.0238 43.2503 97.71 42.7213C97.3962 42.1923 97.0785 41.678 96.7569 41.1786C96.4352 40.6791 96.1175 40.2088 95.8037 39.7677C95.4899 39.3266 95.1971 38.9318 94.9251 38.5834C94.724 38.5978 94.5526 38.6049 94.4106 38.6049H92.6959V44.2952H89.9961V29.4516C90.6882 29.3021 91.3901 29.2039 92.0963 29.1579C92.8389 29.1076 93.5032 29.0824 94.0889 29.0824ZM94.2817 31.4499C93.7102 31.4499 93.1815 31.4714 92.6959 31.5146V36.3801H93.8784C94.4586 36.3853 95.0383 36.3488 95.6133 36.2711C96.051 36.2188 96.4758 36.0864 96.8668 35.8803C97.188 35.7072 97.4527 35.4432 97.6284 35.1203C97.811 34.744 97.8981 34.3274 97.8814 33.9084C97.8944 33.502 97.8061 33.0988 97.6249 32.7361C97.4534 32.4177 97.1973 32.1545 96.8858 31.9761C96.5294 31.7755 96.1412 31.6396 95.7386 31.5745C95.2576 31.4895 94.77 31.4478 94.2817 31.4499Z" fill="#2E6862"/>
<path d="M112.378 43.9391C111.879 44.0685 111.229 44.2024 110.429 44.3406C109.558 44.4834 108.676 44.5523 107.793 44.5468C106.894 44.5468 106.14 44.4166 105.532 44.156C104.964 43.9239 104.463 43.5504 104.075 43.07C103.699 42.5802 103.432 42.0133 103.293 41.4086C103.13 40.7148 103.051 40.0036 103.057 39.2904V32.9265H105.647V38.8781C105.647 40.0936 105.822 40.9622 106.172 41.4841C106.522 42.006 107.135 42.2664 108.012 42.2656C108.326 42.2656 108.658 42.2513 109.009 42.2225C109.272 42.2066 109.533 42.1702 109.79 42.1134V32.9265H112.383L112.378 43.9391Z" fill="#2E6862"/>
<path d="M115.244 33.2959C115.886 33.1213 116.537 32.9837 117.194 32.8835C118.073 32.7471 118.962 32.6818 119.852 32.6882C120.764 32.6882 121.528 32.8148 122.143 33.0682C122.714 33.2897 123.22 33.6563 123.611 34.1326C123.989 34.6162 124.253 35.1807 124.383 35.7832C124.539 36.4777 124.614 37.188 124.608 37.9001V44.2856H122.016V38.3137C122.023 37.7917 121.983 37.2701 121.897 36.7554C121.84 36.3849 121.709 36.0302 121.512 35.7125C121.334 35.4481 121.08 35.2452 120.785 35.1311C120.424 34.9993 120.042 34.9367 119.659 34.9465C119.315 34.9475 118.972 34.9691 118.631 35.0113C118.274 35.0552 118.009 35.0916 117.838 35.1203V44.2856H115.244V33.2959Z" fill="#2E6862"/>
<path d="M126.78 38.6169C126.775 37.8145 126.907 37.0173 127.17 36.2603C127.411 35.5594 127.785 34.9137 128.273 34.3603C128.76 33.8188 129.356 33.3892 130.02 33.1005C130.752 32.7867 131.54 32.6312 132.334 32.6438C133.361 32.6392 134.379 32.8388 135.33 33.2311L134.771 35.3816C134.443 35.2414 134.103 35.1322 133.754 35.0556C133.357 34.9661 132.951 34.9223 132.544 34.9249C131.529 34.9249 130.757 35.2469 130.229 35.8911C129.701 36.5352 129.437 37.4438 129.437 38.6169C129.437 39.7461 129.687 40.6403 130.187 41.2997C130.687 41.9589 131.529 42.2882 132.715 42.2873C133.154 42.2877 133.591 42.2444 134.022 42.1579C134.402 42.0852 134.775 41.976 135.136 41.8319L135.501 44.0039C135.085 44.189 134.648 44.3203 134.2 44.3947C133.611 44.5119 133.012 44.5701 132.411 44.5685C131.558 44.5878 130.711 44.4362 129.916 44.1226C129.244 43.8521 128.643 43.4288 128.159 42.8855C127.683 42.3376 127.329 41.6931 127.119 40.9951C126.886 40.2248 126.772 39.4226 126.78 38.6169Z" fill="#2E6862"/>
<path d="M137.299 44.2854V27.8631L139.891 27.4352V33.0572C140.216 32.945 140.55 32.8576 140.888 32.7958C141.259 32.7245 141.635 32.6884 142.012 32.688C142.912 32.688 143.658 32.8145 144.251 33.0679C144.805 33.2947 145.294 33.6611 145.67 34.1323C146.04 34.615 146.3 35.1752 146.43 35.7722C146.588 36.4701 146.663 37.1842 146.657 37.8999V44.2854H144.069V38.3135C144.076 37.7915 144.036 37.2699 143.95 36.7552C143.893 36.3846 143.761 36.0298 143.564 35.7122C143.389 35.4476 143.139 35.2432 142.847 35.1261C142.49 34.9936 142.112 34.9309 141.732 34.9415C141.38 34.9423 141.027 34.9789 140.682 35.0505C140.415 35.1004 140.15 35.1656 139.89 35.246V44.2806L137.299 44.2854Z" fill="#2E6862"/>
<path d="M152.256 29.6038C152.267 29.8223 152.229 30.0404 152.148 30.2428C152.066 30.4453 151.942 30.6272 151.783 30.7761C151.482 31.0616 151.082 31.2176 150.668 31.2113C150.249 31.2199 149.842 31.0641 149.533 30.7761C149.375 30.6274 149.251 30.4454 149.169 30.2429C149.088 30.0405 149.05 29.8223 149.06 29.6038C149.06 29.0964 149.218 28.6968 149.533 28.4051C149.842 28.1179 150.249 27.9625 150.668 27.9712C151.082 27.9651 151.481 28.1205 151.783 28.4051C152.099 28.6976 152.256 29.0972 152.256 29.6038ZM151.979 44.2856H149.385V32.9267H151.979V44.2856Z" fill="#2E6862"/>
<path d="M157.799 42.3964C158.485 42.3964 158.985 42.3133 159.3 42.1471C159.614 41.9809 159.772 41.6948 159.773 41.2888C159.773 41.1029 159.726 40.9199 159.639 40.7568C159.55 40.5936 159.423 40.4555 159.269 40.355C158.934 40.1089 158.383 39.8408 157.613 39.5507C157.17 39.3902 156.736 39.2054 156.312 38.9969C155.944 38.8176 155.601 38.5877 155.294 38.3136C155.006 38.0499 154.777 37.7276 154.62 37.3679C154.443 36.9386 154.358 36.4761 154.37 36.0109C154.37 34.972 154.749 34.1501 155.506 33.5452C156.263 32.9402 157.292 32.6398 158.591 32.6437C159.224 32.6415 159.856 32.7038 160.477 32.8296C160.936 32.9145 161.387 33.0348 161.828 33.1892L161.355 35.3181C161.002 35.1652 160.636 35.0448 160.262 34.9585C159.756 34.8432 159.238 34.7885 158.719 34.7954C158.191 34.7954 157.762 34.8862 157.433 35.0675C157.28 35.1436 157.151 35.2635 157.064 35.4126C156.976 35.5617 156.934 35.7333 156.942 35.9067C156.938 36.0783 156.971 36.2486 157.037 36.4065C157.114 36.5663 157.228 36.7044 157.37 36.808C157.563 36.9534 157.771 37.0771 157.99 37.1772C158.299 37.3214 158.615 37.4482 158.937 37.5572C159.471 37.7543 159.993 37.9828 160.5 38.2417C160.891 38.4382 161.25 38.6945 161.564 39.0017C161.837 39.2741 162.045 39.6045 162.175 39.9691C162.313 40.3891 162.378 40.8298 162.368 41.2721C162.368 42.3581 161.972 43.1796 161.178 43.7366C160.386 44.2936 159.253 44.5733 157.782 44.5757C156.797 44.5757 156.004 44.4926 155.404 44.3263C154.973 44.2134 154.549 44.0765 154.133 43.9164L154.582 41.7228C155.034 41.9039 155.497 42.0564 155.967 42.1795C156.566 42.332 157.182 42.4049 157.799 42.3964Z" fill="#2E6862"/>
<path d="M163.886 38.6612C163.868 37.7648 164.017 36.873 164.325 36.0325C164.585 35.3326 164.982 34.6936 165.494 34.1541C165.966 33.6626 166.535 33.2779 167.164 33.0249C167.777 32.7738 168.432 32.6444 169.093 32.6437C170.635 32.6437 171.838 33.1288 172.704 34.0989C173.568 35.0691 174.002 36.5171 174.004 38.4431C174.004 38.5877 174.001 38.7508 173.994 38.9321C173.987 39.1135 173.976 39.2766 173.962 39.4212H166.564C166.636 40.333 166.953 41.0387 167.517 41.5381C168.083 42.0376 168.9 42.2873 169.972 42.2873C170.55 42.2925 171.129 42.2343 171.696 42.1135C172.117 42.0289 172.529 41.9053 172.928 41.7443L173.271 43.8948C173.08 43.9863 172.883 44.0625 172.68 44.1226C172.398 44.2105 172.112 44.2834 171.822 44.3408C171.501 44.4054 171.154 44.4598 170.782 44.5037C170.406 44.5472 170.027 44.5688 169.647 44.5685C168.661 44.5685 167.804 44.4198 167.075 44.1226C166.389 43.8559 165.774 43.4325 165.276 42.8855C164.799 42.3458 164.441 41.7091 164.227 41.0179C163.991 40.2553 163.877 39.4601 163.886 38.6612ZM171.407 37.4877C171.409 37.1379 171.358 36.79 171.257 36.4556C171.165 36.1474 171.016 35.8601 170.817 35.6093C170.624 35.3708 170.382 35.178 170.107 35.0447C169.796 34.8998 169.455 34.8293 169.112 34.8386C168.749 34.8302 168.389 34.9082 168.062 35.0663C167.771 35.2118 167.512 35.4157 167.301 35.6657C167.091 35.9163 166.928 36.2035 166.819 36.5131C166.704 36.8289 166.626 37.1565 166.582 37.4901L171.407 37.4877Z" fill="#2E6862"/>
</g>
</g>
<defs>
<clipPath id="clip0_1866_12764">
<rect width="114" height="26" fill="white" transform="translate(60 23)"/>
</clipPath>
</defs>
</svg>
