<svg width="234" height="72" viewBox="0 0 234 72" fill="none" xmlns="http://www.w3.org/2000/svg">
<path d="M70.3344 50C78.0664 50 84.3344 43.732 84.3344 36C84.3344 34.1698 83.9831 32.4215 83.3445 30.819C81.554 31.8567 79.9643 33.2044 78.6489 34.7972C78.7052 35.19 78.7344 35.5916 78.7344 36C78.7344 39.9982 75.9411 43.344 72.1996 44.1923C70.6558 46.2081 68.8635 48.0137 66.8691 49.5679C66.9699 49.5936 67.0711 49.6181 67.1727 49.6415C68.1888 49.8762 69.2471 50 70.3344 50Z" fill="#90B2B2"/>
<path d="M63.2197 48.06C66.109 46.1341 68.5989 43.6504 70.5369 40.7434L74.791 34.3623C76.5751 31.6862 78.9528 29.4654 81.7328 27.8694C80.5967 26.2796 79.1364 24.9374 77.4483 23.9396C74.5592 25.8654 72.0694 28.3491 70.1314 31.256L65.8774 37.637C64.0933 40.3132 61.7154 42.534 58.9355 44.13C60.0715 45.7198 61.5318 47.0621 63.2197 48.06Z" fill="#90B2B2"/>
<path d="M57.3239 41.1809C59.1144 40.1431 60.704 38.7953 62.0194 37.2025C61.9631 36.8098 61.934 36.4083 61.934 36C61.934 32.0019 64.7272 28.6562 68.4686 27.8079C70.0123 25.792 71.8047 23.9863 73.799 22.4321C73.6983 22.4065 73.5973 22.3819 73.4956 22.3585C72.4796 22.124 71.4213 22 70.334 22C62.602 22 56.334 28.268 56.334 36C56.334 37.8303 56.6852 39.5784 57.3239 41.1809Z" fill="#90B2B2"/>
<path fill-rule="evenodd" clip-rule="evenodd" d="M174.289 34.0735V27.6429H177.562V44.357H174.289V42.7787C173.733 43.7072 172.363 44.3572 170.924 44.3572C167.952 44.3572 165.608 41.7108 165.608 38.4145C165.608 35.1181 167.952 32.4949 170.924 32.4949C172.339 32.4949 173.733 33.1449 174.289 34.0735ZM168.811 38.4145C168.811 40.0395 170.042 41.2466 171.643 41.2466C172.78 41.2466 173.802 40.643 174.289 39.8305V37.0449C173.802 36.2091 172.78 35.5824 171.643 35.5824C170.042 35.5824 168.811 36.7895 168.811 38.4145ZM95.334 36.0003C95.334 31.2414 98.8857 27.6433 103.621 27.6433C108.357 27.6433 111.932 31.2414 111.932 36.0003C111.932 40.7591 108.357 44.3572 103.621 44.3572C98.8857 44.3572 95.334 40.7591 95.334 36.0003ZM108.38 36.0003C108.38 33.1449 106.337 30.9861 103.621 30.9861C100.905 30.9861 98.8625 33.1449 98.8625 36.0003C98.8625 38.8556 100.905 41.0145 103.621 41.0145C106.337 41.0145 108.38 38.8556 108.38 36.0003ZM117.137 34.0736C117.764 33.0986 118.971 32.495 120.248 32.495C123.126 32.495 124.89 34.4681 124.89 37.6717V44.357H121.617V38.2288C121.617 36.6503 120.758 35.745 119.412 35.745C118.507 35.745 117.601 36.2556 117.137 37.045V44.357H113.864V32.7271H117.137V34.0736ZM129.602 44.3569H132.133L134.454 38.1124L136.752 44.3569H139.329L143.438 32.9589H139.909L138.029 39.2034L135.731 32.9589H133.177L130.902 39.2034L128.999 32.9589H125.493L129.602 44.3569ZM152.391 34.0736V32.7271H155.664V44.357H152.391V42.7787C151.834 43.7072 150.464 44.3572 149.025 44.3572C146.053 44.3572 143.709 41.7109 143.709 38.4145C143.709 35.1181 146.053 32.495 149.025 32.495C150.441 32.495 151.834 33.145 152.391 34.0736ZM146.912 38.4145C146.912 40.0395 148.142 41.2467 149.744 41.2467C150.882 41.2467 151.903 40.643 152.391 39.8305V37.045C151.903 36.2092 150.882 35.5825 149.744 35.5825C148.142 35.5825 146.912 36.7895 146.912 38.4145ZM163.969 32.495C163.017 32.495 161.787 33.0986 161.23 34.0736V32.7271H157.957V44.357H161.23V37.2306C161.787 36.1163 162.971 35.5128 163.714 35.5128C164.178 35.5128 164.736 35.6056 165.269 35.7681V32.7039C165.014 32.5646 164.549 32.495 163.969 32.495Z" fill="#2E6862"/>
</svg>
