<svg width="233" height="72" viewBox="0 0 233 72" fill="none" xmlns="http://www.w3.org/2000/svg">
<g clip-path="url(#clip0_1864_12497)">
<path fill-rule="evenodd" clip-rule="evenodd" d="M72.0293 43.3674C75.7615 43.3674 77.9599 41.5779 77.9599 39.0803C77.9599 33.7076 70.3932 35.1996 70.3932 33.761C70.3932 33.2458 71.0415 32.8662 72.0149 32.8662C73.5835 32.8662 75.0703 33.5455 75.8556 34.3027L77.4507 31.3455C75.863 30.1929 73.9478 29.5835 71.9884 29.6072C68.3911 29.6072 66.391 31.6164 66.391 33.9169C66.391 39.2342 73.9884 37.5535 73.9884 39.1809C73.9884 39.7514 73.4751 40.1023 72.2317 40.1023C70.6897 40.1023 68.6079 39.2077 67.6344 38.3395L65.9043 41.3255C67.2602 42.5814 69.6672 43.3674 72.0293 43.3674Z" fill="#2E6862"/>
<path fill-rule="evenodd" clip-rule="evenodd" d="M80.7755 28.7679C81.4101 28.7679 82.0187 28.5149 82.4674 28.0647C82.9162 27.6143 83.1683 27.0036 83.1683 26.3668C83.1683 25.73 82.9162 25.1193 82.4674 24.669C82.0187 24.2187 81.4101 23.9657 80.7755 23.9657C80.1409 23.9657 79.5323 24.2187 79.0836 24.669C78.6349 25.1193 78.3828 25.73 78.3828 26.3668C78.3828 27.0036 78.6349 27.6143 79.0836 28.0647C79.5323 28.5149 80.1409 28.7679 80.7755 28.7679ZM82.8676 43.0432V29.9356H78.6937V43.0432H82.8676Z" fill="#2E6862"/>
<path fill-rule="evenodd" clip-rule="evenodd" d="M105.108 43.0433V33.5456C105.108 30.8592 103.593 29.6094 101.186 29.6094C99.1303 29.6094 97.4267 30.8038 96.6699 31.9428C96.13 30.3974 94.858 29.6094 92.9665 29.6094C90.9112 29.6094 89.2341 30.7771 88.6718 31.5364V29.9357H84.5039V43.0433H88.6677V34.5758C89.1011 34.034 89.8844 33.3014 91.0216 33.3014C92.2649 33.3014 92.7251 34.0607 92.7251 35.0642V43.0433H96.8889V34.5758C97.2978 34.034 98.1057 33.3014 99.2407 33.3014C100.484 33.3014 100.973 34.0607 100.973 35.0642V43.0433H105.108Z" fill="#2E6862"/>
<path fill-rule="evenodd" clip-rule="evenodd" d="M114.81 43.3674C118.082 43.3674 120.536 40.9254 120.536 36.4761C120.536 32.0268 118.082 29.6093 114.81 29.6093C114.068 29.601 113.334 29.7631 112.663 30.0832C111.993 30.4034 111.405 30.873 110.943 31.4563V29.9356H106.779V48.0343H110.943V41.4958C112.025 42.799 113.35 43.3674 114.81 43.3674ZM113.432 39.6734C112.538 39.6734 111.456 39.1583 110.943 38.4791V34.4936C111.456 33.7897 112.538 33.3013 113.432 33.3013C115.054 33.3013 116.295 34.5224 116.295 36.4761C116.295 38.4298 115.054 39.6775 113.432 39.6775V39.6734Z" fill="#2E6862"/>
<path d="M125.486 24.9426H121.322V43.0412H125.486V24.9426Z" fill="#2E6862"/>
<path fill-rule="evenodd" clip-rule="evenodd" d="M133.404 43.3675C135.404 43.3675 137.567 42.7991 138.866 41.6315L137.062 38.8895C136.306 39.5955 134.79 40.0038 133.87 40.0038C131.978 40.0038 130.896 39.0271 130.598 37.8594H139.899V36.9092C139.899 32.4599 137.087 29.6094 133.22 29.6094C129.129 29.6094 126.297 32.6754 126.297 36.4761C126.297 40.7366 129.381 43.3675 133.41 43.3675H133.404ZM135.917 35.0109H130.536C130.698 34.0607 131.401 32.975 133.213 32.975C135.134 32.9709 135.811 34.0873 135.917 35.0109Z" fill="#2E6862"/>
<path fill-rule="evenodd" clip-rule="evenodd" d="M144.726 43.0432V34.6845C145.268 33.9518 146.702 33.4901 147.784 33.4901C148.128 33.4753 148.473 33.5119 148.806 33.5988V29.5826C147.264 29.5826 145.589 30.4774 144.716 31.5364V29.9356H140.562V43.0432H144.726Z" fill="#2E6862"/>
<path fill-rule="evenodd" clip-rule="evenodd" d="M155.567 43.3675C160.055 43.3675 162.706 40.1662 162.706 36.4761C162.706 32.7862 160.047 29.6094 155.567 29.6094C151.133 29.6094 148.482 32.7842 148.482 36.4761C148.482 40.168 151.141 43.3675 155.567 43.3675ZM155.567 39.6735C153.781 39.6735 152.755 38.237 152.755 36.472C152.755 34.7071 153.777 33.2972 155.567 33.2972C157.407 33.2972 158.43 34.7338 158.43 36.472C158.43 38.2103 157.405 39.6776 155.567 39.6776V39.6735Z" fill="#2E6862"/>
<path fill-rule="evenodd" clip-rule="evenodd" d="M165.594 43.3409C166.092 43.3352 166.578 43.1819 166.99 42.9001C167.402 42.6183 167.722 42.2204 167.909 41.7569C168.096 41.2932 168.143 40.7843 168.043 40.2941C167.944 39.8039 167.702 39.3542 167.348 39.0016C166.994 38.649 166.545 38.409 166.055 38.312C165.566 38.215 165.06 38.2651 164.599 38.4562C164.138 38.6473 163.744 38.9707 163.465 39.3859C163.187 39.8012 163.038 40.2896 163.035 40.7899C163.044 41.4667 163.316 42.113 163.795 42.5901C164.273 43.0669 164.919 43.3366 165.594 43.3409Z" fill="#90B2B2"/>
</g>
<defs>
<clipPath id="clip0_1864_12497">
<rect width="102.6" height="36" fill="white" transform="translate(65.6992 18)"/>
</clipPath>
</defs>
</svg>
