<svg width="327" height="240" viewBox="0 0 327 240" fill="none" xmlns="http://www.w3.org/2000/svg">
<mask id="mask0_1032_12509" style="mask-type:alpha" maskUnits="userSpaceOnUse" x="0" y="0" width="327" height="240">
<rect width="327" height="240" fill="url(#paint0_radial_1032_12509)"/>
</mask>
<g mask="url(#mask0_1032_12509)">
<path d="M163 7.5L103 47V106L163 67V7.5Z" fill="#BCDCDC" fill-opacity="0.16"/>
<path d="M103 -32L43 7L43 67L103 106L163 67V7L103 -32Z" stroke="#BCDCDC"/>
<path d="M163 67L103 106V165L163 205L223 165V106L163 67Z" stroke="#BCDCDC"/>
<path d="M43 8L-17 47L-17 106L43 146L103 106V47L43 8Z" stroke="#BCDCDC"/>
<path d="M103 47L163 7.5" stroke="#BCDCDC"/>
<path d="M319 75.5L259 114V174L319 135V75.5Z" fill="#BCDCDC" fill-opacity="0.16"/>
<path d="M259 36L199 75V135L259 174L319 135V75L259 36Z" stroke="#BCDCDC"/>
<path d="M319 75L259 114V174L319 214L379 174V114L319 75Z" stroke="#BCDCDC"/>
<path d="M259 114L199 75" stroke="#BCDCDC"/>
</g>
<defs>
<radialGradient id="paint0_radial_1032_12509" cx="0" cy="0" r="1" gradientUnits="userSpaceOnUse" gradientTransform="translate(163.971 9.4347e-06) rotate(90.024) scale(240 163.971)">
<stop offset="0.419798" stop-color="#D9D9D9"/>
<stop offset="1" stop-color="#D9D9D9" stop-opacity="0"/>
</radialGradient>
</defs>
</svg>
