<svg width="33" height="36" viewBox="0 0 33 36" fill="none" xmlns="http://www.w3.org/2000/svg">
<path d="M30.9858 1.71151C31.0071 1.15964 31.4717 0.729486 32.0236 0.750741C32.5755 0.771996 33.0056 1.23661 32.9844 1.78849L30.9858 1.71151ZM0.829659 34.2327C0.286921 34.1305 -0.0701714 33.6076 0.0320721 33.0649L1.69822 24.2204C1.80046 23.6777 2.32332 23.3206 2.86606 23.4229C3.4088 23.5251 3.76589 24.048 3.66365 24.5907L2.18263 32.4524L10.0443 33.9334C10.5871 34.0357 10.9442 34.5585 10.8419 35.1013C10.7397 35.644 10.2168 36.0011 9.67409 35.8989L0.829659 34.2327ZM32.9844 1.78849C32.7011 9.14304 29.5279 14.0106 24.0833 18.637C21.3846 20.9302 18.1135 23.1779 14.3579 25.648C10.5873 28.128 6.32846 30.8319 1.57876 34.0758L0.450808 32.4242C5.21853 29.1681 9.52234 26.4345 13.2589 23.977C17.0105 21.5096 20.1912 19.3198 22.7883 17.113C27.9353 12.7394 30.7299 8.35696 30.9858 1.71151L32.9844 1.78849Z" fill="#DADADA"/>
</svg>
