<svg width="148" height="24" viewBox="0 0 148 24" fill="none" xmlns="http://www.w3.org/2000/svg">
<g clip-path="url(#clip0_1101_6336)">
<path d="M7.87657 14.8351L5.55993 14.2747C4.60018 14.0439 3.73971 13.5164 3.73971 12.5934C3.73971 11.5384 4.66637 10.6813 5.99016 10.6813C7.14848 10.6813 8.27371 11.4395 8.27371 12.5274H11.3515C11.3515 9.32962 8.53846 7.94501 5.92397 7.94501C2.74687 7.94501 0.496422 9.98896 0.496422 12.4945C0.496422 14.7362 1.82022 16.2197 4.66637 16.978L6.71825 17.4725C7.87657 17.7362 8.67084 18.2637 8.67084 19.2527C8.67084 20.4065 7.57871 21.2637 5.82469 21.2637C4.10376 21.2637 3.01163 20.2087 3.01163 19.0219H0C0.0661896 22.2197 2.97853 23.9999 5.82469 23.9999C8.9687 23.9999 11.8479 22.2527 11.8479 19.3186C11.8479 17.6703 11.153 15.6593 7.87657 14.8351Z" fill="black"/>
<path d="M21.8765 7.94501C17.5079 7.94501 13.9668 11.0769 13.9668 15.923C13.9668 20.7692 17.4418 23.9999 21.8765 23.9999C24.7888 23.9999 27.5357 22.6153 28.8926 20.0769L26.3443 18.7912C25.4838 20.2087 23.8291 20.9999 22.0088 20.9999C19.5598 20.9999 17.7065 19.7142 17.2763 17.2417H29.4552C29.4883 16.7472 29.5214 16.2857 29.5214 15.8571C29.5545 11.0769 26.245 7.94501 21.8765 7.94501ZM17.3425 14.6703C17.8058 12.1318 19.5598 10.912 21.9426 10.912C24.2924 10.912 26.0464 12.2967 26.3774 14.6703H17.3425Z" fill="black"/>
<path d="M50.9325 7.94501C49.3771 7.94501 46.9942 8.50545 45.7035 11.1428C44.7769 9.13182 42.9236 7.94501 40.7062 7.94501C38.6212 7.94501 36.5363 9.06589 35.9075 10.8461V8.34061H32.6973V23.5714H35.9075V15.3956C35.9075 12.2967 37.9262 11.0109 39.945 11.0109C41.8314 11.0109 43.1552 12.5604 43.1552 15.0329V23.5714H46.3985V15.956C46.3985 12.7582 47.7223 10.978 50.2375 11.0109C52.2894 11.0109 53.6132 12.5604 53.6132 15.0329V23.5714H56.8565V14.8681C56.8234 10.5164 54.7384 7.94501 50.9325 7.94501Z" fill="black"/>
<path d="M63.9719 8.3407H60.7617V23.5715H63.9719V8.3407Z" fill="black"/>
<path d="M98.6883 10.6153C97.6955 8.90105 95.6105 7.94501 93.3932 7.94501C89.0578 7.94501 85.8145 11.4065 85.8145 15.956C85.8145 20.6703 89.2563 23.9999 93.2608 23.9999C95.6105 23.9999 97.7286 22.7802 98.6883 21.0329V23.6043H101.899V8.34061H98.6883V10.6153ZM93.8234 20.967C91.1427 20.967 89.0578 18.6923 89.0578 15.956C89.0578 13.2527 91.1096 10.978 93.7572 10.978C96.2062 10.978 98.6883 13.0219 98.6883 15.956C98.6553 18.8241 96.3717 20.967 93.8234 20.967Z" fill="black"/>
<path d="M79.4609 2.67033V23.5714H82.6711V0H79.4609V2.67033Z" fill="black"/>
<path d="M110.338 11.011H113.614V8.34069H110.338V2.63739H107.128V8.34069H104.348V11.011H107.128V23.5715H110.338V20.7033V11.011Z" fill="black"/>
<path d="M72.8086 2.93405H72.6101V0.065918H69.5984V8.27471H66.8516V10.945H69.5984V23.5714H72.8086V10.945H76.085V8.27471H72.8086V2.93405Z" fill="black"/>
<path d="M72.8086 2.93405H75.8203V0.065918H72.6101V2.93405H72.8086Z" fill="black"/>
<path d="M148.099 20.7033H110.338V23.5714H148.099V20.7033Z" fill="black"/>
</g>
<defs>
<clipPath id="clip0_1101_6336">
<rect width="148" height="24" fill="white"/>
</clipPath>
</defs>
</svg>
