<svg width="44" height="20" viewBox="0 0 44 20" fill="none" xmlns="http://www.w3.org/2000/svg">
<path d="M0 15.7286H2.55975C2.55975 16.7618 3.48496 17.6716 4.98072 17.6716C6.4919 17.6716 7.41712 16.916 7.41712 15.9291C7.41712 15.0655 6.70779 14.6029 5.73631 14.3871L3.96299 13.9707C1.5266 13.3231 0.400924 12.0586 0.400924 10.1157C0.400924 7.98768 2.34387 6.21436 5.05782 6.21436C7.30917 6.21436 9.71473 7.38629 9.71473 10.1465H7.07787C7.07787 9.19045 6.09098 8.54281 5.11951 8.54281C3.96299 8.54281 3.17656 9.2984 3.17656 10.1928C3.17656 11.01 3.93215 11.4572 4.74942 11.6577L6.73863 12.1357C9.5451 12.845 10.1619 14.5721 10.1619 15.9908C10.1619 18.4888 7.69468 20 4.99614 20C2.55975 20 0.0462606 18.4888 0 15.7286Z" fill="black"/>
<path d="M17.4864 17.1935V8.8512H20.2158V6.55359H17.4864V2.46723H20.2158V0H14.7416V6.55359H12.3823V8.8512H14.7416V19.6608H43.6853V17.1935H17.4864Z" fill="black"/>
</svg>
