<svg width="148" height="24" viewBox="0 0 148 24" fill="none" xmlns="http://www.w3.org/2000/svg">
<g clip-path="url(#clip0_1034_14391)">
<path d="M7.87657 14.8349L5.55993 14.2745C4.60018 14.0437 3.73971 13.5163 3.73971 12.5932C3.73971 11.5382 4.66637 10.6811 5.99016 10.6811C7.14848 10.6811 8.27371 11.4393 8.27371 12.5272H11.3515C11.3515 9.32944 8.53846 7.94482 5.92397 7.94482C2.74687 7.94482 0.496422 9.98878 0.496422 12.4943C0.496422 14.736 1.82022 16.2195 4.66637 16.9778L6.71825 17.4723C7.87657 17.736 8.67084 18.2635 8.67084 19.2525C8.67084 20.4064 7.57871 21.2635 5.82469 21.2635C4.10376 21.2635 3.01163 20.2086 3.01163 19.0217H0C0.0661896 22.2195 2.97853 23.9998 5.82469 23.9998C8.9687 23.9998 11.8479 22.2525 11.8479 19.3184C11.8479 17.6701 11.153 15.6591 7.87657 14.8349Z" fill="#002832"/>
<path d="M21.8757 7.94482C17.5071 7.94482 13.966 11.0767 13.966 15.9228C13.966 20.769 17.441 23.9998 21.8757 23.9998C24.788 23.9998 27.5349 22.6151 28.8918 20.0767L26.3435 18.791C25.483 20.2086 23.8283 20.9998 22.008 20.9998C19.559 20.9998 17.7057 19.714 17.2755 17.2415H29.4544C29.4875 16.747 29.5206 16.2855 29.5206 15.8569C29.5537 11.0767 26.2442 7.94482 21.8757 7.94482ZM17.3417 14.6701C17.805 12.1316 19.559 10.9119 21.9419 10.9119C24.2916 10.9119 26.0456 12.2965 26.3766 14.6701H17.3417Z" fill="#002832"/>
<path d="M50.9329 7.94482C49.3775 7.94482 46.9947 8.50526 45.704 11.1426C44.7773 9.13164 42.924 7.94482 40.7066 7.94482C38.6217 7.94482 36.5367 9.0657 35.9079 10.8459V8.34043H32.6977V23.5712H35.9079V15.3954C35.9079 12.2965 37.9267 11.0108 39.9455 11.0108C41.8319 11.0108 43.1557 12.5602 43.1557 15.0327V23.5712H46.399V15.9558C46.399 12.758 47.7227 10.9778 50.238 11.0108C52.2898 11.0108 53.6136 12.5602 53.6136 15.0327V23.5712H56.8569V14.8679C56.8238 10.5163 54.7388 7.94482 50.9329 7.94482Z" fill="#002832"/>
<path d="M63.9723 8.34082H60.7621V23.5716H63.9723V8.34082Z" fill="#002832"/>
<path d="M98.6887 10.6152C97.6959 8.90087 95.6109 7.94482 93.3935 7.94482C89.0581 7.94482 85.8148 11.4064 85.8148 15.9558C85.8148 20.6701 89.2567 23.9998 93.2612 23.9998C95.6109 23.9998 97.729 22.78 98.6887 21.0327V23.6042H101.899V8.34043H98.6887V10.6152ZM93.8238 20.9668C91.1431 20.9668 89.0581 18.6921 89.0581 15.9558C89.0581 13.2525 91.11 10.9778 93.7576 10.9778C96.2066 10.9778 98.6887 13.0217 98.6887 15.9558C98.6556 18.8239 96.3721 20.9668 93.8238 20.9668Z" fill="#002832"/>
<path d="M79.4607 2.67033V23.5714H82.6709V0H79.4607V2.67033Z" fill="#002832"/>
<path d="M110.338 11.0108H113.615V8.3405H110.338V2.63721H107.128V8.3405H104.348V11.0108H107.128V23.5713H110.338V20.7031V11.0108Z" fill="#002832"/>
<path d="M72.8086 2.93405H72.61V0.065918H69.5984V8.27471H66.8515V10.945H69.5984V23.5714H72.8086V10.945H76.085V8.27471H72.8086V2.93405Z" fill="#002832"/>
<path d="M72.8086 2.93405H75.8202V0.065918H72.61V2.93405H72.8086Z" fill="#002832"/>
<path d="M148.099 20.7031H110.338V23.5713H148.099V20.7031Z" fill="#002832"/>
</g>
<defs>
<clipPath id="clip0_1034_14391">
<rect width="148" height="24" fill="white"/>
</clipPath>
</defs>
</svg>
