<svg width="536" height="460" viewBox="0 0 536 460" fill="none" xmlns="http://www.w3.org/2000/svg">
<g filter="url(#filter0_dd_2055_13598)">
<g clip-path="url(#clip0_2055_13598)">
<rect x="56" y="150" width="391" height="222" rx="12" fill="white"/>
<rect width="391" height="48" transform="translate(56 150)" fill="white"/>
<path d="M85.866 178.224H82.09V188H80.282V178.224H76.49V176.64H85.866V178.224ZM89.0973 188.16C88.4359 188.16 87.8386 188.043 87.3053 187.808C86.7826 187.573 86.3346 187.259 85.9613 186.864C85.5879 186.469 85.2999 186.011 85.0973 185.488C84.8946 184.955 84.7933 184.4 84.7933 183.824C84.7933 183.248 84.8946 182.699 85.0973 182.176C85.2999 181.643 85.5879 181.179 85.9613 180.784C86.3453 180.389 86.7986 180.075 87.3213 179.84C87.8546 179.605 88.4466 179.488 89.0973 179.488C89.7479 179.488 90.3346 179.605 90.8573 179.84C91.3906 180.075 91.8439 180.389 92.2173 180.784C92.6013 181.179 92.8946 181.643 93.0972 182.176C93.2999 182.699 93.4013 183.248 93.4013 183.824C93.4013 184.4 93.2999 184.955 93.0972 185.488C92.8946 186.011 92.6013 186.469 92.2173 186.864C91.8439 187.259 91.3906 187.573 90.8573 187.808C90.3346 188.043 89.7479 188.16 89.0973 188.16ZM86.6013 183.84C86.6013 184.245 86.6653 184.619 86.7933 184.96C86.9213 185.301 87.0973 185.6 87.3213 185.856C87.5453 186.101 87.8066 186.299 88.1053 186.448C88.4146 186.587 88.7453 186.656 89.0973 186.656C89.4493 186.656 89.7746 186.587 90.0733 186.448C90.3826 186.299 90.6493 186.096 90.8733 185.84C91.0973 185.584 91.2733 185.285 91.4013 184.944C91.5293 184.603 91.5933 184.229 91.5933 183.824C91.5933 183.429 91.5293 183.061 91.4013 182.72C91.2733 182.368 91.0973 182.064 90.8733 181.808C90.6493 181.552 90.3826 181.355 90.0733 181.216C89.7746 181.067 89.4493 180.992 89.0973 180.992C88.7559 180.992 88.4306 181.067 88.1213 181.216C87.8226 181.365 87.5613 181.568 87.3373 181.824C87.1133 182.08 86.9319 182.384 86.7933 182.736C86.6653 183.077 86.6013 183.445 86.6013 183.84ZM99.5089 187.568C99.2849 187.675 98.9755 187.797 98.5809 187.936C98.1862 188.064 97.7649 188.128 97.3169 188.128C97.0395 188.128 96.7782 188.091 96.5329 188.016C96.2875 187.941 96.0689 187.829 95.8769 187.68C95.6955 187.531 95.5515 187.339 95.4449 187.104C95.3382 186.859 95.2849 186.565 95.2849 186.224V180.992H94.1809V179.632H95.2849V176.88H97.0449V179.632H98.8689V180.992H97.0449V185.664C97.0662 185.963 97.1569 186.181 97.3169 186.32C97.4875 186.448 97.6955 186.512 97.9409 186.512C98.1862 186.512 98.4209 186.469 98.6449 186.384C98.8689 186.299 99.0342 186.229 99.1409 186.176L99.5089 187.568ZM102.952 188.16C102.547 188.16 102.168 188.096 101.816 187.968C101.475 187.829 101.176 187.643 100.92 187.408C100.675 187.173 100.477 186.896 100.328 186.576C100.189 186.256 100.12 185.909 100.12 185.536C100.12 185.141 100.205 184.784 100.376 184.464C100.547 184.144 100.787 183.867 101.096 183.632C101.416 183.397 101.789 183.216 102.216 183.088C102.653 182.96 103.133 182.896 103.656 182.896C104.051 182.896 104.44 182.933 104.824 183.008C105.208 183.072 105.555 183.163 105.864 183.28V182.704C105.864 182.085 105.688 181.605 105.336 181.264C104.984 180.912 104.477 180.736 103.816 180.736C103.368 180.736 102.925 180.821 102.488 180.992C102.061 181.152 101.619 181.387 101.16 181.696L100.616 180.576C101.693 179.851 102.813 179.488 103.976 179.488C105.128 179.488 106.024 179.781 106.664 180.368C107.304 180.955 107.624 181.797 107.624 182.896V185.92C107.624 186.293 107.779 186.485 108.088 186.496V188C107.917 188.032 107.768 188.053 107.64 188.064C107.523 188.075 107.405 188.08 107.288 188.08C106.947 188.08 106.68 187.995 106.488 187.824C106.307 187.653 106.195 187.435 106.152 187.168L106.104 186.64C105.731 187.131 105.267 187.509 104.712 187.776C104.168 188.032 103.581 188.16 102.952 188.16ZM103.432 186.864C103.859 186.864 104.259 186.789 104.632 186.64C105.016 186.48 105.315 186.261 105.528 185.984C105.752 185.792 105.864 185.589 105.864 185.376V184.272C105.565 184.155 105.245 184.064 104.904 184C104.573 183.936 104.248 183.904 103.928 183.904C103.299 183.904 102.781 184.043 102.376 184.32C101.981 184.587 101.784 184.944 101.784 185.392C101.784 185.808 101.939 186.16 102.248 186.448C102.557 186.725 102.952 186.864 103.432 186.864ZM109.775 176.32H111.535V185.584C111.535 185.893 111.615 186.139 111.775 186.32C111.935 186.491 112.159 186.576 112.447 186.576C112.564 186.576 112.698 186.555 112.847 186.512C113.007 186.469 113.156 186.421 113.295 186.368L113.551 187.744C113.295 187.861 112.991 187.952 112.639 188.016C112.287 188.091 111.972 188.128 111.695 188.128C111.087 188.128 110.612 187.963 110.271 187.632C109.94 187.301 109.775 186.832 109.775 186.224V176.32ZM120.601 188.16C119.726 188.16 119.065 187.877 118.617 187.312C118.169 186.736 117.945 185.883 117.945 184.752V179.632H119.705V184.4C119.705 185.904 120.238 186.656 121.305 186.656C121.806 186.656 122.281 186.501 122.729 186.192C123.177 185.883 123.523 185.435 123.769 184.848V179.632H125.529V185.92C125.529 186.123 125.561 186.267 125.625 186.352C125.699 186.437 125.827 186.485 126.009 186.496V188C125.827 188.032 125.678 188.053 125.561 188.064C125.443 188.075 125.331 188.08 125.225 188.08C124.905 188.08 124.633 187.995 124.409 187.824C124.185 187.643 124.067 187.413 124.057 187.136L124.025 186.304C123.651 186.912 123.166 187.376 122.569 187.696C121.971 188.005 121.315 188.16 120.601 188.16ZM132.527 188.16C131.855 188.16 131.263 188 130.751 187.68C130.239 187.36 129.833 186.944 129.535 186.432V191.408H127.775V179.632H129.327V181.136C129.647 180.635 130.057 180.235 130.559 179.936C131.071 179.637 131.647 179.488 132.287 179.488C132.863 179.488 133.391 179.605 133.871 179.84C134.351 180.075 134.767 180.389 135.119 180.784C135.471 181.179 135.743 181.637 135.935 182.16C136.137 182.683 136.239 183.232 136.239 183.808C136.239 184.416 136.148 184.987 135.967 185.52C135.785 186.043 135.529 186.501 135.199 186.896C134.868 187.28 134.473 187.589 134.015 187.824C133.567 188.048 133.071 188.16 132.527 188.16ZM131.951 186.656C132.324 186.656 132.66 186.576 132.959 186.416C133.268 186.256 133.529 186.043 133.743 185.776C133.967 185.509 134.137 185.205 134.255 184.864C134.372 184.523 134.431 184.171 134.431 183.808C134.431 183.424 134.361 183.061 134.223 182.72C134.095 182.379 133.913 182.08 133.679 181.824C133.455 181.568 133.183 181.365 132.863 181.216C132.543 181.067 132.196 180.992 131.823 180.992C131.599 180.992 131.364 181.035 131.119 181.12C130.873 181.205 130.644 181.323 130.431 181.472C130.217 181.621 130.031 181.797 129.871 182C129.711 182.192 129.599 182.405 129.535 182.64V184.832C129.641 185.088 129.78 185.328 129.951 185.552C130.121 185.776 130.308 185.968 130.511 186.128C130.724 186.288 130.953 186.416 131.199 186.512C131.444 186.608 131.695 186.656 131.951 186.656ZM142.368 187.568C142.144 187.675 141.835 187.797 141.44 187.936C141.046 188.064 140.624 188.128 140.176 188.128C139.899 188.128 139.638 188.091 139.392 188.016C139.147 187.941 138.928 187.829 138.736 187.68C138.555 187.531 138.411 187.339 138.304 187.104C138.198 186.859 138.144 186.565 138.144 186.224V180.992H137.04V179.632H138.144V176.88H139.904V179.632H141.728V180.992H139.904V185.664C139.926 185.963 140.016 186.181 140.176 186.32C140.347 186.448 140.555 186.512 140.8 186.512C141.046 186.512 141.28 186.469 141.504 186.384C141.728 186.299 141.894 186.229 142 186.176L142.368 187.568ZM143.587 188V179.632H145.347V188H143.587ZM143.587 178.256V176.32H145.347V178.256H143.587ZM160.262 188H158.502V183.312C158.502 182.533 158.374 181.963 158.118 181.6C157.862 181.237 157.489 181.056 156.998 181.056C156.497 181.056 156.038 181.243 155.622 181.616C155.217 181.979 154.924 182.453 154.742 183.04V188H152.982V183.312C152.982 182.523 152.854 181.952 152.598 181.6C152.342 181.237 151.974 181.056 151.494 181.056C150.993 181.056 150.534 181.237 150.118 181.6C149.702 181.963 149.404 182.437 149.222 183.024V188H147.462V179.632H149.062V181.312C149.393 180.725 149.825 180.277 150.358 179.968C150.902 179.648 151.521 179.488 152.214 179.488C152.908 179.488 153.452 179.669 153.846 180.032C154.252 180.395 154.502 180.848 154.598 181.392C154.95 180.773 155.393 180.304 155.926 179.984C156.46 179.653 157.068 179.488 157.75 179.488C158.241 179.488 158.646 179.584 158.966 179.776C159.297 179.957 159.558 180.203 159.75 180.512C159.942 180.821 160.076 181.184 160.15 181.6C160.225 182.005 160.262 182.437 160.262 182.896V188ZM166.082 188.16C165.432 188.16 164.84 188.048 164.306 187.824C163.773 187.589 163.314 187.275 162.93 186.88C162.557 186.485 162.264 186.027 162.05 185.504C161.848 184.981 161.746 184.427 161.746 183.84C161.746 183.253 161.848 182.699 162.05 182.176C162.264 181.643 162.557 181.179 162.93 180.784C163.314 180.379 163.773 180.064 164.306 179.84C164.84 179.605 165.437 179.488 166.098 179.488C166.749 179.488 167.336 179.605 167.858 179.84C168.392 180.075 168.845 180.389 169.218 180.784C169.592 181.168 169.874 181.621 170.066 182.144C170.269 182.656 170.37 183.195 170.37 183.76C170.37 183.888 170.365 184.011 170.354 184.128C170.344 184.235 170.333 184.325 170.322 184.4H163.618C163.65 184.773 163.736 185.109 163.874 185.408C164.024 185.707 164.21 185.968 164.434 186.192C164.669 186.405 164.93 186.571 165.218 186.688C165.517 186.805 165.826 186.864 166.146 186.864C166.381 186.864 166.61 186.837 166.834 186.784C167.069 186.72 167.282 186.635 167.474 186.528C167.666 186.411 167.837 186.272 167.986 186.112C168.136 185.952 168.253 185.776 168.338 185.584L169.842 186.016C169.554 186.645 169.074 187.163 168.402 187.568C167.741 187.963 166.968 188.16 166.082 188.16ZM168.626 183.184C168.594 182.832 168.504 182.507 168.354 182.208C168.216 181.909 168.034 181.659 167.81 181.456C167.586 181.243 167.325 181.077 167.026 180.96C166.728 180.843 166.413 180.784 166.082 180.784C165.752 180.784 165.437 180.843 165.138 180.96C164.85 181.077 164.594 181.243 164.37 181.456C164.146 181.659 163.965 181.909 163.826 182.208C163.688 182.507 163.602 182.832 163.57 183.184H168.626Z" fill="#222426"/>
<g filter="url(#filter1_d_2055_13598)">
<rect x="318" y="166" width="109" height="32" rx="6" fill="white"/>
<path d="M331.158 187V177.06H332.726V185.614H338.06V187H331.158ZM341.084 187.14C340.729 187.14 340.398 187.084 340.09 186.972C339.791 186.851 339.53 186.687 339.306 186.482C339.091 186.277 338.919 186.034 338.788 185.754C338.667 185.474 338.606 185.171 338.606 184.844C338.606 184.499 338.681 184.186 338.83 183.906C338.979 183.626 339.189 183.383 339.46 183.178C339.74 182.973 340.067 182.814 340.44 182.702C340.823 182.59 341.243 182.534 341.7 182.534C342.045 182.534 342.386 182.567 342.722 182.632C343.058 182.688 343.361 182.767 343.632 182.87V182.366C343.632 181.825 343.478 181.405 343.17 181.106C342.862 180.798 342.419 180.644 341.84 180.644C341.448 180.644 341.061 180.719 340.678 180.868C340.305 181.008 339.917 181.213 339.516 181.484L339.04 180.504C339.983 179.869 340.963 179.552 341.98 179.552C342.988 179.552 343.772 179.809 344.332 180.322C344.892 180.835 345.172 181.573 345.172 182.534V185.18C345.172 185.507 345.307 185.675 345.578 185.684V187C345.429 187.028 345.298 187.047 345.186 187.056C345.083 187.065 344.981 187.07 344.878 187.07C344.579 187.07 344.346 186.995 344.178 186.846C344.019 186.697 343.921 186.505 343.884 186.272L343.842 185.81C343.515 186.239 343.109 186.571 342.624 186.804C342.148 187.028 341.635 187.14 341.084 187.14ZM341.504 186.006C341.877 186.006 342.227 185.941 342.554 185.81C342.89 185.67 343.151 185.479 343.338 185.236C343.534 185.068 343.632 184.891 343.632 184.704V183.738C343.371 183.635 343.091 183.556 342.792 183.5C342.503 183.444 342.218 183.416 341.938 183.416C341.387 183.416 340.935 183.537 340.58 183.78C340.235 184.013 340.062 184.326 340.062 184.718C340.062 185.082 340.197 185.39 340.468 185.642C340.739 185.885 341.084 186.006 341.504 186.006ZM349.7 187.14C349.112 187.14 348.524 187.047 347.936 186.86C347.358 186.664 346.858 186.389 346.438 186.034L347.054 185.054C347.493 185.371 347.927 185.614 348.356 185.782C348.786 185.941 349.224 186.02 349.672 186.02C350.13 186.02 350.489 185.931 350.75 185.754C351.021 185.577 351.156 185.325 351.156 184.998C351.156 184.69 351.007 184.466 350.708 184.326C350.41 184.186 349.943 184.032 349.308 183.864C348.851 183.743 348.459 183.626 348.132 183.514C347.806 183.402 347.54 183.271 347.334 183.122C347.129 182.973 346.98 182.8 346.886 182.604C346.793 182.408 346.746 182.17 346.746 181.89C346.746 181.517 346.816 181.185 346.956 180.896C347.106 180.607 347.306 180.364 347.558 180.168C347.82 179.963 348.123 179.809 348.468 179.706C348.814 179.603 349.187 179.552 349.588 179.552C350.139 179.552 350.652 179.636 351.128 179.804C351.604 179.972 352.029 180.215 352.402 180.532L351.744 181.456C351.063 180.915 350.34 180.644 349.574 180.644C349.182 180.644 348.851 180.728 348.58 180.896C348.319 181.055 348.188 181.311 348.188 181.666C348.188 181.815 348.216 181.941 348.272 182.044C348.328 182.147 348.417 182.235 348.538 182.31C348.669 182.385 348.832 182.455 349.028 182.52C349.234 182.576 349.486 182.641 349.784 182.716C350.279 182.837 350.704 182.959 351.058 183.08C351.422 183.201 351.721 183.346 351.954 183.514C352.188 183.673 352.36 183.864 352.472 184.088C352.584 184.303 352.64 184.564 352.64 184.872C352.64 185.572 352.374 186.127 351.842 186.538C351.32 186.939 350.606 187.14 349.7 187.14ZM358.06 186.622C357.864 186.715 357.593 186.823 357.248 186.944C356.902 187.056 356.534 187.112 356.142 187.112C355.899 187.112 355.67 187.079 355.456 187.014C355.241 186.949 355.05 186.851 354.882 186.72C354.723 186.589 354.597 186.421 354.504 186.216C354.41 186.001 354.364 185.745 354.364 185.446V180.868H353.398V179.678H354.364V177.27H355.904V179.678H357.5V180.868H355.904V184.956C355.922 185.217 356.002 185.409 356.142 185.53C356.291 185.642 356.473 185.698 356.688 185.698C356.902 185.698 357.108 185.661 357.304 185.586C357.5 185.511 357.644 185.451 357.738 185.404L358.06 186.622ZM371.33 179.678H372.8L369.72 187H368.446L367.088 183.598L365.73 187H364.456L361.362 179.678H362.832L365.198 185.516L366.262 182.8L364.988 179.692H366.248L367.088 181.988L367.914 179.692H369.174L367.914 182.8L368.978 185.516L371.33 179.678ZM376.882 187.14C376.312 187.14 375.794 187.042 375.328 186.846C374.861 186.641 374.46 186.365 374.124 186.02C373.797 185.675 373.54 185.273 373.354 184.816C373.176 184.359 373.088 183.873 373.088 183.36C373.088 182.847 373.176 182.361 373.354 181.904C373.54 181.437 373.797 181.031 374.124 180.686C374.46 180.331 374.861 180.056 375.328 179.86C375.794 179.655 376.317 179.552 376.896 179.552C377.465 179.552 377.978 179.655 378.436 179.86C378.902 180.065 379.299 180.341 379.626 180.686C379.952 181.022 380.2 181.419 380.368 181.876C380.545 182.324 380.634 182.795 380.634 183.29C380.634 183.402 380.629 183.509 380.62 183.612C380.61 183.705 380.601 183.785 380.592 183.85H374.726C374.754 184.177 374.828 184.471 374.95 184.732C375.08 184.993 375.244 185.222 375.44 185.418C375.645 185.605 375.874 185.749 376.126 185.852C376.387 185.955 376.658 186.006 376.938 186.006C377.143 186.006 377.344 185.983 377.54 185.936C377.745 185.88 377.932 185.805 378.1 185.712C378.268 185.609 378.417 185.488 378.548 185.348C378.678 185.208 378.781 185.054 378.856 184.886L380.172 185.264C379.92 185.815 379.5 186.267 378.912 186.622C378.333 186.967 377.656 187.14 376.882 187.14ZM379.108 182.786C379.08 182.478 379 182.193 378.87 181.932C378.748 181.671 378.59 181.451 378.394 181.274C378.198 181.087 377.969 180.943 377.708 180.84C377.446 180.737 377.171 180.686 376.882 180.686C376.592 180.686 376.317 180.737 376.056 180.84C375.804 180.943 375.58 181.087 375.384 181.274C375.188 181.451 375.029 181.671 374.908 181.932C374.786 182.193 374.712 182.478 374.684 182.786H379.108ZM385.208 187.14C384.638 187.14 384.12 187.042 383.654 186.846C383.187 186.641 382.786 186.365 382.45 186.02C382.123 185.675 381.866 185.273 381.68 184.816C381.502 184.359 381.414 183.873 381.414 183.36C381.414 182.847 381.502 182.361 381.68 181.904C381.866 181.437 382.123 181.031 382.45 180.686C382.786 180.331 383.187 180.056 383.654 179.86C384.12 179.655 384.643 179.552 385.222 179.552C385.791 179.552 386.304 179.655 386.762 179.86C387.228 180.065 387.625 180.341 387.952 180.686C388.278 181.022 388.526 181.419 388.694 181.876C388.871 182.324 388.96 182.795 388.96 183.29C388.96 183.402 388.955 183.509 388.946 183.612C388.936 183.705 388.927 183.785 388.918 183.85H383.052C383.08 184.177 383.154 184.471 383.276 184.732C383.406 184.993 383.57 185.222 383.766 185.418C383.971 185.605 384.2 185.749 384.452 185.852C384.713 185.955 384.984 186.006 385.264 186.006C385.469 186.006 385.67 185.983 385.866 185.936C386.071 185.88 386.258 185.805 386.426 185.712C386.594 185.609 386.743 185.488 386.874 185.348C387.004 185.208 387.107 185.054 387.182 184.886L388.498 185.264C388.246 185.815 387.826 186.267 387.238 186.622C386.659 186.967 385.982 187.14 385.208 187.14ZM387.434 182.786C387.406 182.478 387.326 182.193 387.196 181.932C387.074 181.671 386.916 181.451 386.72 181.274C386.524 181.087 386.295 180.943 386.034 180.84C385.772 180.737 385.497 180.686 385.208 180.686C384.918 180.686 384.643 180.737 384.382 180.84C384.13 180.943 383.906 181.087 383.71 181.274C383.514 181.451 383.355 181.671 383.234 181.932C383.112 182.193 383.038 182.478 383.01 182.786H387.434ZM395.312 187L392.974 183.626L391.756 184.774V187H390.216V176.78H391.756V183.262L395.116 179.692H396.796L393.954 182.758L396.95 187H395.312Z" fill="#104378"/>
<path d="M416 180L411 185L406 180" stroke="#6363F2" stroke-width="1.5" stroke-linecap="round" stroke-linejoin="round"/>
<rect x="318.5" y="166.5" width="108" height="31" rx="5.5" stroke="#D4E2F1"/>
</g>
<rect x="76.5" y="218.5" width="350" height="133" rx="7.5" fill="#FAFDFF"/>
<g filter="url(#filter2_i_2055_13598)">
<rect x="128" y="242" width="114" height="76" fill="#F0F7FF"/>
</g>
<path d="M94.1667 245.04V246H89.8587V245.04H91.5627V240.36C91.4907 240.456 91.3787 240.56 91.2267 240.672C91.0747 240.776 90.9027 240.876 90.7107 240.972C90.5267 241.06 90.3347 241.136 90.1347 241.2C89.9347 241.264 89.7587 241.296 89.6067 241.296V240.288C89.7827 240.288 89.9787 240.24 90.1947 240.144C90.4107 240.04 90.6147 239.924 90.8067 239.796C91.0067 239.66 91.1747 239.532 91.3107 239.412C91.4547 239.284 91.5387 239.196 91.5627 239.148H92.6427V245.04H94.1667ZM101.177 242.484C101.177 243.012 101.101 243.5 100.949 243.948C100.797 244.388 100.585 244.772 100.313 245.1C100.041 245.42 99.717 245.672 99.341 245.856C98.973 246.032 98.573 246.12 98.141 246.12C97.701 246.12 97.293 246.032 96.917 245.856C96.549 245.672 96.229 245.42 95.957 245.1C95.693 244.772 95.485 244.388 95.333 243.948C95.181 243.5 95.105 243.012 95.105 242.484C95.105 241.956 95.181 241.472 95.333 241.032C95.485 240.584 95.693 240.2 95.957 239.88C96.229 239.552 96.549 239.296 96.917 239.112C97.293 238.928 97.701 238.836 98.141 238.836C98.573 238.836 98.973 238.928 99.341 239.112C99.717 239.296 100.041 239.552 100.313 239.88C100.585 240.2 100.797 240.584 100.949 241.032C101.101 241.472 101.177 241.956 101.177 242.484ZM100.109 242.484C100.109 242.092 100.061 241.732 99.965 241.404C99.869 241.076 99.733 240.796 99.557 240.564C99.381 240.324 99.173 240.14 98.933 240.012C98.693 239.884 98.429 239.82 98.141 239.82C97.845 239.82 97.573 239.884 97.325 240.012C97.085 240.14 96.877 240.324 96.701 240.564C96.533 240.796 96.401 241.076 96.305 241.404C96.209 241.732 96.161 242.092 96.161 242.484C96.161 242.884 96.209 243.248 96.305 243.576C96.401 243.896 96.533 244.172 96.701 244.404C96.877 244.636 97.085 244.816 97.325 244.944C97.573 245.072 97.845 245.136 98.141 245.136C98.429 245.136 98.693 245.072 98.933 244.944C99.173 244.816 99.381 244.636 99.557 244.404C99.733 244.172 99.869 243.896 99.965 243.576C100.061 243.248 100.109 242.884 100.109 242.484ZM108.548 242.484C108.548 243.012 108.472 243.5 108.32 243.948C108.168 244.388 107.956 244.772 107.684 245.1C107.412 245.42 107.088 245.672 106.712 245.856C106.344 246.032 105.944 246.12 105.512 246.12C105.072 246.12 104.664 246.032 104.288 245.856C103.92 245.672 103.6 245.42 103.328 245.1C103.064 244.772 102.856 244.388 102.704 243.948C102.552 243.5 102.476 243.012 102.476 242.484C102.476 241.956 102.552 241.472 102.704 241.032C102.856 240.584 103.064 240.2 103.328 239.88C103.6 239.552 103.92 239.296 104.288 239.112C104.664 238.928 105.072 238.836 105.512 238.836C105.944 238.836 106.344 238.928 106.712 239.112C107.088 239.296 107.412 239.552 107.684 239.88C107.956 240.2 108.168 240.584 108.32 241.032C108.472 241.472 108.548 241.956 108.548 242.484ZM107.48 242.484C107.48 242.092 107.432 241.732 107.336 241.404C107.24 241.076 107.104 240.796 106.928 240.564C106.752 240.324 106.544 240.14 106.304 240.012C106.064 239.884 105.8 239.82 105.512 239.82C105.216 239.82 104.944 239.884 104.696 240.012C104.456 240.14 104.248 240.324 104.072 240.564C103.904 240.796 103.772 241.076 103.676 241.404C103.58 241.732 103.532 242.092 103.532 242.484C103.532 242.884 103.58 243.248 103.676 243.576C103.772 243.896 103.904 244.172 104.072 244.404C104.248 244.636 104.456 244.816 104.696 244.944C104.944 245.072 105.216 245.136 105.512 245.136C105.8 245.136 106.064 245.072 106.304 244.944C106.544 244.816 106.752 244.636 106.928 244.404C107.104 244.172 107.24 243.896 107.336 243.576C107.432 243.248 107.48 242.884 107.48 242.484ZM111.491 240.864C111.235 240.864 110.995 240.82 110.771 240.732C110.547 240.636 110.351 240.512 110.183 240.36C110.015 240.2 109.883 240.012 109.787 239.796C109.691 239.58 109.643 239.352 109.643 239.112C109.643 238.872 109.691 238.644 109.787 238.428C109.883 238.212 110.015 238.028 110.183 237.876C110.351 237.716 110.547 237.592 110.771 237.504C110.995 237.408 111.235 237.36 111.491 237.36C111.747 237.36 111.987 237.408 112.211 237.504C112.435 237.592 112.631 237.716 112.799 237.876C112.967 238.028 113.099 238.212 113.195 238.428C113.291 238.644 113.339 238.872 113.339 239.112C113.339 239.352 113.291 239.58 113.195 239.796C113.099 240.012 112.967 240.2 112.799 240.36C112.631 240.512 112.435 240.636 112.211 240.732C111.987 240.82 111.747 240.864 111.491 240.864ZM111.491 240.288C111.643 240.288 111.783 240.256 111.911 240.192C112.047 240.128 112.163 240.044 112.259 239.94C112.355 239.828 112.431 239.704 112.487 239.568C112.543 239.424 112.571 239.272 112.571 239.112C112.571 238.952 112.539 238.8 112.475 238.656C112.419 238.512 112.343 238.388 112.247 238.284C112.151 238.172 112.035 238.088 111.899 238.032C111.771 237.968 111.635 237.936 111.491 237.936C111.339 237.936 111.195 237.968 111.059 238.032C110.931 238.096 110.819 238.184 110.723 238.296C110.627 238.4 110.551 238.524 110.495 238.668C110.439 238.812 110.411 238.96 110.411 239.112C110.411 239.272 110.439 239.424 110.495 239.568C110.551 239.712 110.627 239.84 110.723 239.952C110.827 240.056 110.943 240.14 111.071 240.204C111.207 240.26 111.347 240.288 111.491 240.288ZM115.703 246.12C115.447 246.12 115.207 246.076 114.983 245.988C114.759 245.892 114.563 245.768 114.395 245.616C114.227 245.456 114.095 245.268 113.999 245.052C113.903 244.836 113.855 244.608 113.855 244.368C113.855 244.128 113.903 243.9 113.999 243.684C114.095 243.468 114.227 243.284 114.395 243.132C114.563 242.972 114.759 242.848 114.983 242.76C115.207 242.664 115.447 242.616 115.703 242.616C115.959 242.616 116.199 242.664 116.423 242.76C116.647 242.848 116.843 242.972 117.011 243.132C117.179 243.284 117.311 243.468 117.407 243.684C117.503 243.9 117.551 244.128 117.551 244.368C117.551 244.608 117.503 244.836 117.407 245.052C117.311 245.268 117.179 245.456 117.011 245.616C116.843 245.768 116.647 245.892 116.423 245.988C116.199 246.076 115.959 246.12 115.703 246.12ZM115.703 245.544C115.855 245.544 115.995 245.512 116.123 245.448C116.259 245.384 116.375 245.3 116.471 245.196C116.567 245.084 116.643 244.96 116.699 244.824C116.755 244.68 116.783 244.528 116.783 244.368C116.783 244.208 116.751 244.056 116.687 243.912C116.631 243.768 116.555 243.644 116.459 243.54C116.363 243.428 116.247 243.344 116.111 243.288C115.983 243.224 115.847 243.192 115.703 243.192C115.551 243.192 115.407 243.224 115.271 243.288C115.143 243.352 115.031 243.44 114.935 243.552C114.839 243.656 114.763 243.78 114.707 243.924C114.651 244.068 114.623 244.216 114.623 244.368C114.623 244.528 114.651 244.68 114.707 244.824C114.763 244.968 114.839 245.096 114.935 245.208C115.039 245.312 115.155 245.396 115.283 245.46C115.419 245.516 115.559 245.544 115.703 245.544ZM110.051 245.604L113.411 241.56L116.627 237.42L117.143 237.864L113.819 241.884L110.555 246.06L110.051 245.604Z" fill="black"/>
<line x1="128.5" y1="241.5" x2="410.5" y2="241.5" stroke="#D4E2F1" stroke-linecap="round" stroke-dasharray="4 4"/>
<line x1="128.5" y1="260.5" x2="410.5" y2="260.5" stroke="#D4E2F1" stroke-linecap="round" stroke-dasharray="4 4"/>
<path d="M98.6259 280.232C99.0179 280.232 99.3819 280.3 99.7179 280.436C100.062 280.564 100.358 280.748 100.606 280.988C100.854 281.228 101.05 281.516 101.194 281.852C101.338 282.188 101.41 282.556 101.41 282.956C101.41 283.38 101.33 283.764 101.17 284.108C101.018 284.46 100.806 284.76 100.534 285.008C100.262 285.256 99.9419 285.448 99.5739 285.584C99.2059 285.72 98.8139 285.788 98.3979 285.788C97.7899 285.788 97.2419 285.644 96.7539 285.356C96.2659 285.068 95.8979 284.684 95.6499 284.204L96.3099 283.628C96.5339 283.996 96.8299 284.292 97.1979 284.516C97.5739 284.74 97.9779 284.852 98.4099 284.852C98.6819 284.852 98.9339 284.804 99.1659 284.708C99.4059 284.62 99.6099 284.492 99.7779 284.324C99.9539 284.164 100.09 283.968 100.186 283.736C100.282 283.504 100.33 283.248 100.33 282.968C100.33 282.704 100.282 282.46 100.186 282.236C100.09 282.012 99.9579 281.82 99.7899 281.66C99.6299 281.5 99.4379 281.376 99.2139 281.288C98.9899 281.2 98.7499 281.156 98.4939 281.156C98.1499 281.156 97.8259 281.232 97.5219 281.384C97.2259 281.536 96.9819 281.752 96.7899 282.032H95.8419C95.8499 281.992 95.8699 281.892 95.9019 281.732C95.9339 281.564 95.9739 281.364 96.0219 281.132C96.0699 280.892 96.1219 280.628 96.1779 280.34C96.2339 280.052 96.2899 279.76 96.3459 279.464C96.4819 278.776 96.6339 278.004 96.8019 277.148H100.942V278.12H97.5819L97.0659 280.832C97.2419 280.648 97.4619 280.504 97.7259 280.4C97.9899 280.288 98.2899 280.232 98.6259 280.232ZM108.548 280.484C108.548 281.012 108.472 281.5 108.32 281.948C108.168 282.388 107.956 282.772 107.684 283.1C107.412 283.42 107.088 283.672 106.712 283.856C106.344 284.032 105.944 284.12 105.512 284.12C105.072 284.12 104.664 284.032 104.288 283.856C103.92 283.672 103.6 283.42 103.328 283.1C103.064 282.772 102.856 282.388 102.704 281.948C102.552 281.5 102.476 281.012 102.476 280.484C102.476 279.956 102.552 279.472 102.704 279.032C102.856 278.584 103.064 278.2 103.328 277.88C103.6 277.552 103.92 277.296 104.288 277.112C104.664 276.928 105.072 276.836 105.512 276.836C105.944 276.836 106.344 276.928 106.712 277.112C107.088 277.296 107.412 277.552 107.684 277.88C107.956 278.2 108.168 278.584 108.32 279.032C108.472 279.472 108.548 279.956 108.548 280.484ZM107.48 280.484C107.48 280.092 107.432 279.732 107.336 279.404C107.24 279.076 107.104 278.796 106.928 278.564C106.752 278.324 106.544 278.14 106.304 278.012C106.064 277.884 105.8 277.82 105.512 277.82C105.216 277.82 104.944 277.884 104.696 278.012C104.456 278.14 104.248 278.324 104.072 278.564C103.904 278.796 103.772 279.076 103.676 279.404C103.58 279.732 103.532 280.092 103.532 280.484C103.532 280.884 103.58 281.248 103.676 281.576C103.772 281.896 103.904 282.172 104.072 282.404C104.248 282.636 104.456 282.816 104.696 282.944C104.944 283.072 105.216 283.136 105.512 283.136C105.8 283.136 106.064 283.072 106.304 282.944C106.544 282.816 106.752 282.636 106.928 282.404C107.104 282.172 107.24 281.896 107.336 281.576C107.432 281.248 107.48 280.884 107.48 280.484ZM111.491 278.864C111.235 278.864 110.995 278.82 110.771 278.732C110.547 278.636 110.351 278.512 110.183 278.36C110.015 278.2 109.883 278.012 109.787 277.796C109.691 277.58 109.643 277.352 109.643 277.112C109.643 276.872 109.691 276.644 109.787 276.428C109.883 276.212 110.015 276.028 110.183 275.876C110.351 275.716 110.547 275.592 110.771 275.504C110.995 275.408 111.235 275.36 111.491 275.36C111.747 275.36 111.987 275.408 112.211 275.504C112.435 275.592 112.631 275.716 112.799 275.876C112.967 276.028 113.099 276.212 113.195 276.428C113.291 276.644 113.339 276.872 113.339 277.112C113.339 277.352 113.291 277.58 113.195 277.796C113.099 278.012 112.967 278.2 112.799 278.36C112.631 278.512 112.435 278.636 112.211 278.732C111.987 278.82 111.747 278.864 111.491 278.864ZM111.491 278.288C111.643 278.288 111.783 278.256 111.911 278.192C112.047 278.128 112.163 278.044 112.259 277.94C112.355 277.828 112.431 277.704 112.487 277.568C112.543 277.424 112.571 277.272 112.571 277.112C112.571 276.952 112.539 276.8 112.475 276.656C112.419 276.512 112.343 276.388 112.247 276.284C112.151 276.172 112.035 276.088 111.899 276.032C111.771 275.968 111.635 275.936 111.491 275.936C111.339 275.936 111.195 275.968 111.059 276.032C110.931 276.096 110.819 276.184 110.723 276.296C110.627 276.4 110.551 276.524 110.495 276.668C110.439 276.812 110.411 276.96 110.411 277.112C110.411 277.272 110.439 277.424 110.495 277.568C110.551 277.712 110.627 277.84 110.723 277.952C110.827 278.056 110.943 278.14 111.071 278.204C111.207 278.26 111.347 278.288 111.491 278.288ZM115.703 284.12C115.447 284.12 115.207 284.076 114.983 283.988C114.759 283.892 114.563 283.768 114.395 283.616C114.227 283.456 114.095 283.268 113.999 283.052C113.903 282.836 113.855 282.608 113.855 282.368C113.855 282.128 113.903 281.9 113.999 281.684C114.095 281.468 114.227 281.284 114.395 281.132C114.563 280.972 114.759 280.848 114.983 280.76C115.207 280.664 115.447 280.616 115.703 280.616C115.959 280.616 116.199 280.664 116.423 280.76C116.647 280.848 116.843 280.972 117.011 281.132C117.179 281.284 117.311 281.468 117.407 281.684C117.503 281.9 117.551 282.128 117.551 282.368C117.551 282.608 117.503 282.836 117.407 283.052C117.311 283.268 117.179 283.456 117.011 283.616C116.843 283.768 116.647 283.892 116.423 283.988C116.199 284.076 115.959 284.12 115.703 284.12ZM115.703 283.544C115.855 283.544 115.995 283.512 116.123 283.448C116.259 283.384 116.375 283.3 116.471 283.196C116.567 283.084 116.643 282.96 116.699 282.824C116.755 282.68 116.783 282.528 116.783 282.368C116.783 282.208 116.751 282.056 116.687 281.912C116.631 281.768 116.555 281.644 116.459 281.54C116.363 281.428 116.247 281.344 116.111 281.288C115.983 281.224 115.847 281.192 115.703 281.192C115.551 281.192 115.407 281.224 115.271 281.288C115.143 281.352 115.031 281.44 114.935 281.552C114.839 281.656 114.763 281.78 114.707 281.924C114.651 282.068 114.623 282.216 114.623 282.368C114.623 282.528 114.651 282.68 114.707 282.824C114.763 282.968 114.839 283.096 114.935 283.208C115.039 283.312 115.155 283.396 115.283 283.46C115.419 283.516 115.559 283.544 115.703 283.544ZM110.051 283.604L113.411 279.56L116.627 275.42L117.143 275.864L113.819 279.884L110.555 284.06L110.051 283.604Z" fill="black"/>
<line x1="128.5" y1="279.5" x2="410.5" y2="279.5" stroke="#D4E2F1" stroke-linecap="round" stroke-dasharray="4 4"/>
<line x1="128.5" y1="298.5" x2="410.5" y2="298.5" stroke="#D4E2F1" stroke-linecap="round" stroke-dasharray="4 4"/>
<path d="M108.548 318.484C108.548 319.012 108.472 319.5 108.32 319.948C108.168 320.388 107.956 320.772 107.684 321.1C107.412 321.42 107.088 321.672 106.712 321.856C106.344 322.032 105.944 322.12 105.512 322.12C105.072 322.12 104.664 322.032 104.288 321.856C103.92 321.672 103.6 321.42 103.328 321.1C103.064 320.772 102.856 320.388 102.704 319.948C102.552 319.5 102.476 319.012 102.476 318.484C102.476 317.956 102.552 317.472 102.704 317.032C102.856 316.584 103.064 316.2 103.328 315.88C103.6 315.552 103.92 315.296 104.288 315.112C104.664 314.928 105.072 314.836 105.512 314.836C105.944 314.836 106.344 314.928 106.712 315.112C107.088 315.296 107.412 315.552 107.684 315.88C107.956 316.2 108.168 316.584 108.32 317.032C108.472 317.472 108.548 317.956 108.548 318.484ZM107.48 318.484C107.48 318.092 107.432 317.732 107.336 317.404C107.24 317.076 107.104 316.796 106.928 316.564C106.752 316.324 106.544 316.14 106.304 316.012C106.064 315.884 105.8 315.82 105.512 315.82C105.216 315.82 104.944 315.884 104.696 316.012C104.456 316.14 104.248 316.324 104.072 316.564C103.904 316.796 103.772 317.076 103.676 317.404C103.58 317.732 103.532 318.092 103.532 318.484C103.532 318.884 103.58 319.248 103.676 319.576C103.772 319.896 103.904 320.172 104.072 320.404C104.248 320.636 104.456 320.816 104.696 320.944C104.944 321.072 105.216 321.136 105.512 321.136C105.8 321.136 106.064 321.072 106.304 320.944C106.544 320.816 106.752 320.636 106.928 320.404C107.104 320.172 107.24 319.896 107.336 319.576C107.432 319.248 107.48 318.884 107.48 318.484ZM111.491 316.864C111.235 316.864 110.995 316.82 110.771 316.732C110.547 316.636 110.351 316.512 110.183 316.36C110.015 316.2 109.883 316.012 109.787 315.796C109.691 315.58 109.643 315.352 109.643 315.112C109.643 314.872 109.691 314.644 109.787 314.428C109.883 314.212 110.015 314.028 110.183 313.876C110.351 313.716 110.547 313.592 110.771 313.504C110.995 313.408 111.235 313.36 111.491 313.36C111.747 313.36 111.987 313.408 112.211 313.504C112.435 313.592 112.631 313.716 112.799 313.876C112.967 314.028 113.099 314.212 113.195 314.428C113.291 314.644 113.339 314.872 113.339 315.112C113.339 315.352 113.291 315.58 113.195 315.796C113.099 316.012 112.967 316.2 112.799 316.36C112.631 316.512 112.435 316.636 112.211 316.732C111.987 316.82 111.747 316.864 111.491 316.864ZM111.491 316.288C111.643 316.288 111.783 316.256 111.911 316.192C112.047 316.128 112.163 316.044 112.259 315.94C112.355 315.828 112.431 315.704 112.487 315.568C112.543 315.424 112.571 315.272 112.571 315.112C112.571 314.952 112.539 314.8 112.475 314.656C112.419 314.512 112.343 314.388 112.247 314.284C112.151 314.172 112.035 314.088 111.899 314.032C111.771 313.968 111.635 313.936 111.491 313.936C111.339 313.936 111.195 313.968 111.059 314.032C110.931 314.096 110.819 314.184 110.723 314.296C110.627 314.4 110.551 314.524 110.495 314.668C110.439 314.812 110.411 314.96 110.411 315.112C110.411 315.272 110.439 315.424 110.495 315.568C110.551 315.712 110.627 315.84 110.723 315.952C110.827 316.056 110.943 316.14 111.071 316.204C111.207 316.26 111.347 316.288 111.491 316.288ZM115.703 322.12C115.447 322.12 115.207 322.076 114.983 321.988C114.759 321.892 114.563 321.768 114.395 321.616C114.227 321.456 114.095 321.268 113.999 321.052C113.903 320.836 113.855 320.608 113.855 320.368C113.855 320.128 113.903 319.9 113.999 319.684C114.095 319.468 114.227 319.284 114.395 319.132C114.563 318.972 114.759 318.848 114.983 318.76C115.207 318.664 115.447 318.616 115.703 318.616C115.959 318.616 116.199 318.664 116.423 318.76C116.647 318.848 116.843 318.972 117.011 319.132C117.179 319.284 117.311 319.468 117.407 319.684C117.503 319.9 117.551 320.128 117.551 320.368C117.551 320.608 117.503 320.836 117.407 321.052C117.311 321.268 117.179 321.456 117.011 321.616C116.843 321.768 116.647 321.892 116.423 321.988C116.199 322.076 115.959 322.12 115.703 322.12ZM115.703 321.544C115.855 321.544 115.995 321.512 116.123 321.448C116.259 321.384 116.375 321.3 116.471 321.196C116.567 321.084 116.643 320.96 116.699 320.824C116.755 320.68 116.783 320.528 116.783 320.368C116.783 320.208 116.751 320.056 116.687 319.912C116.631 319.768 116.555 319.644 116.459 319.54C116.363 319.428 116.247 319.344 116.111 319.288C115.983 319.224 115.847 319.192 115.703 319.192C115.551 319.192 115.407 319.224 115.271 319.288C115.143 319.352 115.031 319.44 114.935 319.552C114.839 319.656 114.763 319.78 114.707 319.924C114.651 320.068 114.623 320.216 114.623 320.368C114.623 320.528 114.651 320.68 114.707 320.824C114.763 320.968 114.839 321.096 114.935 321.208C115.039 321.312 115.155 321.396 115.283 321.46C115.419 321.516 115.559 321.544 115.703 321.544ZM110.051 321.604L113.411 317.56L116.627 313.42L117.143 313.864L113.819 317.884L110.555 322.06L110.051 321.604Z" fill="black"/>
<line x1="128.5" y1="317.5" x2="410.5" y2="317.5" stroke="#D4E2F1" stroke-linecap="round"/>
<path d="M141.112 337.04V338H136.804V337.04H138.508V332.36C138.436 332.456 138.324 332.56 138.172 332.672C138.02 332.776 137.848 332.876 137.656 332.972C137.472 333.06 137.28 333.136 137.08 333.2C136.88 333.264 136.704 333.296 136.552 333.296V332.288C136.728 332.288 136.924 332.24 137.14 332.144C137.356 332.04 137.56 331.924 137.752 331.796C137.952 331.66 138.12 331.532 138.256 331.412C138.4 331.284 138.484 331.196 138.508 331.148H139.588V337.04H141.112ZM141.918 338C141.918 337.68 141.942 337.38 141.99 337.1C142.046 336.82 142.146 336.552 142.29 336.296C142.434 336.04 142.63 335.796 142.878 335.564C143.134 335.332 143.466 335.1 143.874 334.868C144.114 334.74 144.358 334.616 144.606 334.496C144.854 334.368 145.078 334.236 145.278 334.1C145.486 333.956 145.654 333.804 145.782 333.644C145.918 333.484 145.986 333.296 145.986 333.08C145.986 332.944 145.954 332.808 145.89 332.672C145.826 332.536 145.734 332.416 145.614 332.312C145.494 332.208 145.342 332.124 145.158 332.06C144.982 331.996 144.778 331.964 144.546 331.964C144.306 331.964 144.086 332 143.886 332.072C143.694 332.136 143.522 332.22 143.37 332.324C143.218 332.42 143.086 332.524 142.974 332.636C142.862 332.748 142.77 332.848 142.698 332.936L142.014 332.168C142.078 332.096 142.186 332 142.338 331.88C142.49 331.752 142.682 331.624 142.914 331.496C143.146 331.368 143.414 331.26 143.718 331.172C144.022 331.076 144.362 331.028 144.738 331.028C145.106 331.028 145.438 331.08 145.734 331.184C146.03 331.28 146.278 331.416 146.478 331.592C146.686 331.768 146.846 331.976 146.958 332.216C147.07 332.448 147.126 332.696 147.126 332.96C147.126 333.272 147.058 333.544 146.922 333.776C146.786 334.008 146.618 334.212 146.418 334.388C146.226 334.564 146.018 334.716 145.794 334.844C145.57 334.964 145.37 335.068 145.194 335.156C145.018 335.244 144.818 335.352 144.594 335.48C144.378 335.6 144.17 335.74 143.97 335.9C143.77 336.052 143.594 336.224 143.442 336.416C143.298 336.608 143.206 336.816 143.166 337.04H147.258V338H141.918ZM148.592 338V336.656H149.48V338H148.592ZM156.97 334.484C156.97 335.012 156.894 335.5 156.742 335.948C156.59 336.388 156.378 336.772 156.106 337.1C155.834 337.42 155.51 337.672 155.134 337.856C154.766 338.032 154.366 338.12 153.934 338.12C153.494 338.12 153.086 338.032 152.71 337.856C152.342 337.672 152.022 337.42 151.75 337.1C151.486 336.772 151.278 336.388 151.126 335.948C150.974 335.5 150.898 335.012 150.898 334.484C150.898 333.956 150.974 333.472 151.126 333.032C151.278 332.584 151.486 332.2 151.75 331.88C152.022 331.552 152.342 331.296 152.71 331.112C153.086 330.928 153.494 330.836 153.934 330.836C154.366 330.836 154.766 330.928 155.134 331.112C155.51 331.296 155.834 331.552 156.106 331.88C156.378 332.2 156.59 332.584 156.742 333.032C156.894 333.472 156.97 333.956 156.97 334.484ZM155.902 334.484C155.902 334.092 155.854 333.732 155.758 333.404C155.662 333.076 155.526 332.796 155.35 332.564C155.174 332.324 154.966 332.14 154.726 332.012C154.486 331.884 154.222 331.82 153.934 331.82C153.638 331.82 153.366 331.884 153.118 332.012C152.878 332.14 152.67 332.324 152.494 332.564C152.326 332.796 152.194 333.076 152.098 333.404C152.002 333.732 151.954 334.092 151.954 334.484C151.954 334.884 152.002 335.248 152.098 335.576C152.194 335.896 152.326 336.172 152.494 336.404C152.67 336.636 152.878 336.816 153.118 336.944C153.366 337.072 153.638 337.136 153.934 337.136C154.222 337.136 154.486 337.072 154.726 336.944C154.966 336.816 155.174 336.636 155.35 336.404C155.526 336.172 155.662 335.896 155.758 335.576C155.854 335.248 155.902 334.884 155.902 334.484ZM160.993 334.232C161.385 334.232 161.749 334.3 162.085 334.436C162.429 334.564 162.725 334.748 162.973 334.988C163.221 335.228 163.417 335.516 163.561 335.852C163.705 336.188 163.777 336.556 163.777 336.956C163.777 337.38 163.697 337.764 163.537 338.108C163.385 338.46 163.173 338.76 162.901 339.008C162.629 339.256 162.309 339.448 161.941 339.584C161.573 339.72 161.181 339.788 160.765 339.788C160.157 339.788 159.609 339.644 159.121 339.356C158.633 339.068 158.265 338.684 158.017 338.204L158.677 337.628C158.901 337.996 159.197 338.292 159.565 338.516C159.941 338.74 160.345 338.852 160.777 338.852C161.049 338.852 161.301 338.804 161.533 338.708C161.773 338.62 161.977 338.492 162.145 338.324C162.321 338.164 162.457 337.968 162.553 337.736C162.649 337.504 162.697 337.248 162.697 336.968C162.697 336.704 162.649 336.46 162.553 336.236C162.457 336.012 162.325 335.82 162.157 335.66C161.997 335.5 161.805 335.376 161.581 335.288C161.357 335.2 161.117 335.156 160.861 335.156C160.517 335.156 160.193 335.232 159.889 335.384C159.593 335.536 159.349 335.752 159.157 336.032H158.209C158.217 335.992 158.237 335.892 158.269 335.732C158.301 335.564 158.341 335.364 158.389 335.132C158.437 334.892 158.489 334.628 158.545 334.34C158.601 334.052 158.657 333.76 158.713 333.464C158.849 332.776 159.001 332.004 159.169 331.148H163.309V332.12H159.949L159.433 334.832C159.609 334.648 159.829 334.504 160.093 334.4C160.357 334.288 160.657 334.232 160.993 334.232Z" fill="black"/>
<path d="M215.69 337.04V338H211.382V337.04H213.086V332.36C213.014 332.456 212.902 332.56 212.75 332.672C212.598 332.776 212.426 332.876 212.234 332.972C212.05 333.06 211.858 333.136 211.658 333.2C211.458 333.264 211.282 333.296 211.13 333.296V332.288C211.306 332.288 211.502 332.24 211.718 332.144C211.934 332.04 212.138 331.924 212.33 331.796C212.53 331.66 212.698 331.532 212.834 331.412C212.978 331.284 213.062 331.196 213.086 331.148H214.166V337.04H215.69ZM220.276 335.168C220.788 335.256 221.192 335.492 221.488 335.876C221.792 336.26 221.944 336.736 221.944 337.304C221.944 337.672 221.876 338.008 221.74 338.312C221.604 338.616 221.408 338.876 221.152 339.092C220.904 339.308 220.604 339.472 220.252 339.584C219.9 339.704 219.508 339.764 219.076 339.764C218.468 339.764 217.932 339.648 217.468 339.416C217.012 339.192 216.656 338.872 216.4 338.456L217.108 337.748C217.292 338.076 217.54 338.332 217.852 338.516C218.164 338.708 218.572 338.804 219.076 338.804C219.628 338.804 220.06 338.68 220.372 338.432C220.692 338.184 220.852 337.808 220.852 337.304C220.852 336.8 220.68 336.4 220.336 336.104C220 335.8 219.508 335.648 218.86 335.648H218.548V334.76H218.884C219.46 334.76 219.9 334.624 220.204 334.352C220.516 334.072 220.672 333.72 220.672 333.296C220.672 332.872 220.524 332.556 220.228 332.348C219.932 332.14 219.56 332.036 219.112 332.036C218.672 332.036 218.284 332.132 217.948 332.324C217.62 332.508 217.364 332.768 217.18 333.104L216.532 332.432C216.636 332.232 216.776 332.052 216.952 331.892C217.136 331.724 217.344 331.58 217.576 331.46C217.816 331.34 218.072 331.248 218.344 331.184C218.624 331.12 218.916 331.088 219.22 331.088C219.596 331.088 219.94 331.14 220.252 331.244C220.572 331.348 220.844 331.492 221.068 331.676C221.3 331.86 221.476 332.084 221.596 332.348C221.724 332.612 221.788 332.904 221.788 333.224C221.788 333.464 221.752 333.692 221.68 333.908C221.616 334.124 221.516 334.32 221.38 334.496C221.252 334.672 221.092 334.82 220.9 334.94C220.716 335.052 220.508 335.128 220.276 335.168ZM223.229 338V336.656H224.117V338H223.229ZM231.607 334.484C231.607 335.012 231.531 335.5 231.379 335.948C231.227 336.388 231.015 336.772 230.743 337.1C230.471 337.42 230.147 337.672 229.771 337.856C229.403 338.032 229.003 338.12 228.571 338.12C228.131 338.12 227.723 338.032 227.347 337.856C226.979 337.672 226.659 337.42 226.387 337.1C226.123 336.772 225.915 336.388 225.763 335.948C225.611 335.5 225.535 335.012 225.535 334.484C225.535 333.956 225.611 333.472 225.763 333.032C225.915 332.584 226.123 332.2 226.387 331.88C226.659 331.552 226.979 331.296 227.347 331.112C227.723 330.928 228.131 330.836 228.571 330.836C229.003 330.836 229.403 330.928 229.771 331.112C230.147 331.296 230.471 331.552 230.743 331.88C231.015 332.2 231.227 332.584 231.379 333.032C231.531 333.472 231.607 333.956 231.607 334.484ZM230.539 334.484C230.539 334.092 230.491 333.732 230.395 333.404C230.299 333.076 230.163 332.796 229.987 332.564C229.811 332.324 229.603 332.14 229.363 332.012C229.123 331.884 228.859 331.82 228.571 331.82C228.275 331.82 228.003 331.884 227.755 332.012C227.515 332.14 227.307 332.324 227.131 332.564C226.963 332.796 226.831 333.076 226.735 333.404C226.639 333.732 226.591 334.092 226.591 334.484C226.591 334.884 226.639 335.248 226.735 335.576C226.831 335.896 226.963 336.172 227.131 336.404C227.307 336.636 227.515 336.816 227.755 336.944C228.003 337.072 228.275 337.136 228.571 337.136C228.859 337.136 229.123 337.072 229.363 336.944C229.603 336.816 229.811 336.636 229.987 336.404C230.163 336.172 230.299 335.896 230.395 335.576C230.491 335.248 230.539 334.884 230.539 334.484ZM235.63 334.232C236.022 334.232 236.386 334.3 236.722 334.436C237.066 334.564 237.362 334.748 237.61 334.988C237.858 335.228 238.054 335.516 238.198 335.852C238.342 336.188 238.414 336.556 238.414 336.956C238.414 337.38 238.334 337.764 238.174 338.108C238.022 338.46 237.81 338.76 237.538 339.008C237.266 339.256 236.946 339.448 236.578 339.584C236.21 339.72 235.818 339.788 235.402 339.788C234.794 339.788 234.246 339.644 233.758 339.356C233.27 339.068 232.902 338.684 232.654 338.204L233.314 337.628C233.538 337.996 233.834 338.292 234.202 338.516C234.578 338.74 234.982 338.852 235.414 338.852C235.686 338.852 235.938 338.804 236.17 338.708C236.41 338.62 236.614 338.492 236.782 338.324C236.958 338.164 237.094 337.968 237.19 337.736C237.286 337.504 237.334 337.248 237.334 336.968C237.334 336.704 237.286 336.46 237.19 336.236C237.094 336.012 236.962 335.82 236.794 335.66C236.634 335.5 236.442 335.376 236.218 335.288C235.994 335.2 235.754 335.156 235.498 335.156C235.154 335.156 234.83 335.232 234.526 335.384C234.23 335.536 233.986 335.752 233.794 336.032H232.846C232.854 335.992 232.874 335.892 232.906 335.732C232.938 335.564 232.978 335.364 233.026 335.132C233.074 334.892 233.126 334.628 233.182 334.34C233.238 334.052 233.294 333.76 233.35 333.464C233.486 332.776 233.638 332.004 233.806 331.148H237.946V332.12H234.586L234.07 334.832C234.246 334.648 234.466 334.504 234.73 334.4C234.994 334.288 235.294 334.232 235.63 334.232Z" fill="black"/>
<path d="M290.268 337.04V338H285.96V337.04H287.664V332.36C287.592 332.456 287.48 332.56 287.328 332.672C287.176 332.776 287.004 332.876 286.812 332.972C286.628 333.06 286.436 333.136 286.236 333.2C286.036 333.264 285.86 333.296 285.708 333.296V332.288C285.884 332.288 286.08 332.24 286.296 332.144C286.512 332.04 286.716 331.924 286.908 331.796C287.108 331.66 287.276 331.532 287.412 331.412C287.556 331.284 287.64 331.196 287.664 331.148H288.744V337.04H290.268ZM294.699 339.524V337.496H290.847V336.56L295.035 331.148H295.755V336.536H296.811V337.496H295.755V339.524H294.699ZM291.939 336.536H294.807V332.78L291.939 336.536ZM298.018 338V336.656H298.906V338H298.018ZM306.396 334.484C306.396 335.012 306.32 335.5 306.168 335.948C306.016 336.388 305.804 336.772 305.532 337.1C305.26 337.42 304.936 337.672 304.56 337.856C304.192 338.032 303.792 338.12 303.36 338.12C302.92 338.12 302.512 338.032 302.136 337.856C301.768 337.672 301.448 337.42 301.176 337.1C300.912 336.772 300.704 336.388 300.552 335.948C300.4 335.5 300.324 335.012 300.324 334.484C300.324 333.956 300.4 333.472 300.552 333.032C300.704 332.584 300.912 332.2 301.176 331.88C301.448 331.552 301.768 331.296 302.136 331.112C302.512 330.928 302.92 330.836 303.36 330.836C303.792 330.836 304.192 330.928 304.56 331.112C304.936 331.296 305.26 331.552 305.532 331.88C305.804 332.2 306.016 332.584 306.168 333.032C306.32 333.472 306.396 333.956 306.396 334.484ZM305.328 334.484C305.328 334.092 305.28 333.732 305.184 333.404C305.088 333.076 304.952 332.796 304.776 332.564C304.6 332.324 304.392 332.14 304.152 332.012C303.912 331.884 303.648 331.82 303.36 331.82C303.064 331.82 302.792 331.884 302.544 332.012C302.304 332.14 302.096 332.324 301.92 332.564C301.752 332.796 301.62 333.076 301.524 333.404C301.428 333.732 301.38 334.092 301.38 334.484C301.38 334.884 301.428 335.248 301.524 335.576C301.62 335.896 301.752 336.172 301.92 336.404C302.096 336.636 302.304 336.816 302.544 336.944C302.792 337.072 303.064 337.136 303.36 337.136C303.648 337.136 303.912 337.072 304.152 336.944C304.392 336.816 304.6 336.636 304.776 336.404C304.952 336.172 305.088 335.896 305.184 335.576C305.28 335.248 305.328 334.884 305.328 334.484ZM310.419 334.232C310.811 334.232 311.175 334.3 311.511 334.436C311.855 334.564 312.151 334.748 312.399 334.988C312.647 335.228 312.843 335.516 312.987 335.852C313.131 336.188 313.203 336.556 313.203 336.956C313.203 337.38 313.123 337.764 312.963 338.108C312.811 338.46 312.599 338.76 312.327 339.008C312.055 339.256 311.735 339.448 311.367 339.584C310.999 339.72 310.607 339.788 310.191 339.788C309.583 339.788 309.035 339.644 308.547 339.356C308.059 339.068 307.691 338.684 307.443 338.204L308.103 337.628C308.327 337.996 308.623 338.292 308.991 338.516C309.367 338.74 309.771 338.852 310.203 338.852C310.475 338.852 310.727 338.804 310.959 338.708C311.199 338.62 311.403 338.492 311.571 338.324C311.747 338.164 311.883 337.968 311.979 337.736C312.075 337.504 312.123 337.248 312.123 336.968C312.123 336.704 312.075 336.46 311.979 336.236C311.883 336.012 311.751 335.82 311.583 335.66C311.423 335.5 311.231 335.376 311.007 335.288C310.783 335.2 310.543 335.156 310.287 335.156C309.943 335.156 309.619 335.232 309.315 335.384C309.019 335.536 308.775 335.752 308.583 336.032H307.635C307.643 335.992 307.663 335.892 307.695 335.732C307.727 335.564 307.767 335.364 307.815 335.132C307.863 334.892 307.915 334.628 307.971 334.34C308.027 334.052 308.083 333.76 308.139 333.464C308.275 332.776 308.427 332.004 308.595 331.148H312.735V332.12H309.375L308.859 334.832C309.035 334.648 309.255 334.504 309.519 334.4C309.783 334.288 310.083 334.232 310.419 334.232Z" fill="black"/>
<path d="M371.764 337.04V338H367.456V337.04H369.16V332.36C369.088 332.456 368.976 332.56 368.824 332.672C368.672 332.776 368.5 332.876 368.308 332.972C368.124 333.06 367.932 333.136 367.732 333.2C367.532 333.264 367.356 333.296 367.204 333.296V332.288C367.38 332.288 367.576 332.24 367.792 332.144C368.008 332.04 368.212 331.924 368.404 331.796C368.604 331.66 368.772 331.532 368.908 331.412C369.052 331.284 369.136 331.196 369.16 331.148H370.24V337.04H371.764ZM375.426 334.232C375.818 334.232 376.182 334.3 376.518 334.436C376.862 334.564 377.158 334.748 377.406 334.988C377.654 335.228 377.85 335.516 377.994 335.852C378.138 336.188 378.21 336.556 378.21 336.956C378.21 337.38 378.13 337.764 377.97 338.108C377.818 338.46 377.606 338.76 377.334 339.008C377.062 339.256 376.742 339.448 376.374 339.584C376.006 339.72 375.614 339.788 375.198 339.788C374.59 339.788 374.042 339.644 373.554 339.356C373.066 339.068 372.698 338.684 372.45 338.204L373.11 337.628C373.334 337.996 373.63 338.292 373.998 338.516C374.374 338.74 374.778 338.852 375.21 338.852C375.482 338.852 375.734 338.804 375.966 338.708C376.206 338.62 376.41 338.492 376.578 338.324C376.754 338.164 376.89 337.968 376.986 337.736C377.082 337.504 377.13 337.248 377.13 336.968C377.13 336.704 377.082 336.46 376.986 336.236C376.89 336.012 376.758 335.82 376.59 335.66C376.43 335.5 376.238 335.376 376.014 335.288C375.79 335.2 375.55 335.156 375.294 335.156C374.95 335.156 374.626 335.232 374.322 335.384C374.026 335.536 373.782 335.752 373.59 336.032H372.642C372.65 335.992 372.67 335.892 372.702 335.732C372.734 335.564 372.774 335.364 372.822 335.132C372.87 334.892 372.922 334.628 372.978 334.34C373.034 334.052 373.09 333.76 373.146 333.464C373.282 332.776 373.434 332.004 373.602 331.148H377.742V332.12H374.382L373.866 334.832C374.042 334.648 374.262 334.504 374.526 334.4C374.79 334.288 375.09 334.232 375.426 334.232ZM379.397 338V336.656H380.285V338H379.397ZM387.774 334.484C387.774 335.012 387.698 335.5 387.546 335.948C387.394 336.388 387.182 336.772 386.91 337.1C386.638 337.42 386.314 337.672 385.938 337.856C385.57 338.032 385.17 338.12 384.738 338.12C384.298 338.12 383.89 338.032 383.514 337.856C383.146 337.672 382.826 337.42 382.554 337.1C382.29 336.772 382.082 336.388 381.93 335.948C381.778 335.5 381.702 335.012 381.702 334.484C381.702 333.956 381.778 333.472 381.93 333.032C382.082 332.584 382.29 332.2 382.554 331.88C382.826 331.552 383.146 331.296 383.514 331.112C383.89 330.928 384.298 330.836 384.738 330.836C385.17 330.836 385.57 330.928 385.938 331.112C386.314 331.296 386.638 331.552 386.91 331.88C387.182 332.2 387.394 332.584 387.546 333.032C387.698 333.472 387.774 333.956 387.774 334.484ZM386.706 334.484C386.706 334.092 386.658 333.732 386.562 333.404C386.466 333.076 386.33 332.796 386.154 332.564C385.978 332.324 385.77 332.14 385.53 332.012C385.29 331.884 385.026 331.82 384.738 331.82C384.442 331.82 384.17 331.884 383.922 332.012C383.682 332.14 383.474 332.324 383.298 332.564C383.13 332.796 382.998 333.076 382.902 333.404C382.806 333.732 382.758 334.092 382.758 334.484C382.758 334.884 382.806 335.248 382.902 335.576C382.998 335.896 383.13 336.172 383.298 336.404C383.474 336.636 383.682 336.816 383.922 336.944C384.17 337.072 384.442 337.136 384.738 337.136C385.026 337.136 385.29 337.072 385.53 336.944C385.77 336.816 385.978 336.636 386.154 336.404C386.33 336.172 386.466 335.896 386.562 335.576C386.658 335.248 386.706 334.884 386.706 334.484ZM391.797 334.232C392.189 334.232 392.553 334.3 392.889 334.436C393.233 334.564 393.529 334.748 393.777 334.988C394.025 335.228 394.221 335.516 394.365 335.852C394.509 336.188 394.581 336.556 394.581 336.956C394.581 337.38 394.501 337.764 394.341 338.108C394.189 338.46 393.977 338.76 393.705 339.008C393.433 339.256 393.113 339.448 392.745 339.584C392.377 339.72 391.985 339.788 391.569 339.788C390.961 339.788 390.413 339.644 389.925 339.356C389.437 339.068 389.069 338.684 388.821 338.204L389.481 337.628C389.705 337.996 390.001 338.292 390.369 338.516C390.745 338.74 391.149 338.852 391.581 338.852C391.853 338.852 392.105 338.804 392.337 338.708C392.577 338.62 392.781 338.492 392.949 338.324C393.125 338.164 393.261 337.968 393.357 337.736C393.453 337.504 393.501 337.248 393.501 336.968C393.501 336.704 393.453 336.46 393.357 336.236C393.261 336.012 393.129 335.82 392.961 335.66C392.801 335.5 392.609 335.376 392.385 335.288C392.161 335.2 391.921 335.156 391.665 335.156C391.321 335.156 390.997 335.232 390.693 335.384C390.397 335.536 390.153 335.752 389.961 336.032H389.013C389.021 335.992 389.041 335.892 389.073 335.732C389.105 335.564 389.145 335.364 389.193 335.132C389.241 334.892 389.293 334.628 389.349 334.34C389.405 334.052 389.461 333.76 389.517 333.464C389.653 332.776 389.805 332.004 389.973 331.148H394.113V332.12H390.753L390.237 334.832C390.413 334.648 390.633 334.504 390.897 334.4C391.161 334.288 391.461 334.232 391.797 334.232Z" fill="black"/>
<path d="M128.5 254.25L163.812 250.25L199.125 253.25L234.438 248.25L269.75 250.25H305.062L340.375 252.25L375.688 250.25H411" stroke="#0C5CE5" stroke-width="2"/>
<circle cx="242" cy="249.5" r="4" fill="#0C5CE5"/>
<g filter="url(#filter3_d_2055_13598)">
<rect x="219.5" y="213.5" width="44" height="24" rx="6" fill="white" shape-rendering="crispEdges"/>
<path d="M227.976 225.95C227.976 225.474 228.069 225.026 228.256 224.606C228.443 224.186 228.695 223.822 229.012 223.514C229.339 223.197 229.721 222.949 230.16 222.772C230.599 222.595 231.07 222.506 231.574 222.506C232.115 222.506 232.61 222.609 233.058 222.814C233.506 223.01 233.889 223.299 234.206 223.682C234.523 224.055 234.766 224.517 234.934 225.068C235.111 225.609 235.2 226.225 235.2 226.916C235.2 227.868 235.107 228.703 234.92 229.422C234.743 230.131 234.491 230.724 234.164 231.2C233.837 231.685 233.436 232.049 232.96 232.292C232.493 232.535 231.975 232.656 231.406 232.656C230.771 232.656 230.188 232.511 229.656 232.222C229.133 231.933 228.709 231.522 228.382 230.99L229.292 230.038C229.507 230.43 229.801 230.738 230.174 230.962C230.557 231.195 230.977 231.312 231.434 231.312C232.134 231.312 232.689 231.018 233.1 230.43C233.52 229.833 233.739 228.997 233.758 227.924C233.562 228.344 233.254 228.675 232.834 228.918C232.423 229.161 231.952 229.282 231.42 229.282C230.935 229.282 230.482 229.198 230.062 229.03C229.642 228.853 229.278 228.615 228.97 228.316C228.662 228.017 228.419 227.667 228.242 227.266C228.065 226.855 227.976 226.417 227.976 225.95ZM231.56 223.822C231.271 223.822 230.995 223.878 230.734 223.99C230.482 224.102 230.258 224.256 230.062 224.452C229.875 224.648 229.726 224.877 229.614 225.138C229.502 225.39 229.446 225.661 229.446 225.95C229.446 226.239 229.502 226.51 229.614 226.762C229.726 227.014 229.875 227.238 230.062 227.434C230.258 227.621 230.482 227.77 230.734 227.882C230.995 227.994 231.271 228.05 231.56 228.05C231.849 228.05 232.12 227.994 232.372 227.882C232.633 227.77 232.857 227.621 233.044 227.434C233.24 227.238 233.394 227.014 233.506 226.762C233.618 226.51 233.674 226.239 233.674 225.95C233.674 225.661 233.618 225.39 233.506 225.138C233.394 224.877 233.24 224.648 233.044 224.452C232.857 224.256 232.633 224.102 232.372 223.99C232.12 223.878 231.849 223.822 231.56 223.822ZM243.5 227.63C243.5 228.078 243.402 228.489 243.206 228.862C243.019 229.226 242.763 229.539 242.436 229.8C242.109 230.061 241.731 230.262 241.302 230.402C240.873 230.542 240.415 230.612 239.93 230.612C239.435 230.612 238.969 230.537 238.53 230.388C238.101 230.229 237.727 230.015 237.41 229.744C237.093 229.473 236.841 229.151 236.654 228.778C236.477 228.405 236.388 227.999 236.388 227.56C236.388 227.271 236.439 227 236.542 226.748C236.645 226.496 236.775 226.272 236.934 226.076C237.102 225.871 237.289 225.693 237.494 225.544C237.699 225.395 237.905 225.273 238.11 225.18C237.727 225.012 237.401 224.755 237.13 224.41C236.859 224.065 236.724 223.673 236.724 223.234C236.724 222.805 236.822 222.427 237.018 222.1C237.214 221.764 237.466 221.484 237.774 221.26C238.082 221.027 238.427 220.854 238.81 220.742C239.193 220.621 239.571 220.56 239.944 220.56C240.317 220.56 240.695 220.621 241.078 220.742C241.47 220.854 241.82 221.022 242.128 221.246C242.445 221.47 242.702 221.75 242.898 222.086C243.094 222.413 243.192 222.791 243.192 223.22C243.192 223.659 243.052 224.055 242.772 224.41C242.501 224.755 242.17 225.012 241.778 225.18C242.002 225.283 242.217 225.413 242.422 225.572C242.637 225.721 242.823 225.903 242.982 226.118C243.141 226.323 243.267 226.552 243.36 226.804C243.453 227.056 243.5 227.331 243.5 227.63ZM241.946 227.532C241.946 227.261 241.885 227.023 241.764 226.818C241.652 226.603 241.498 226.421 241.302 226.272C241.115 226.123 240.901 226.011 240.658 225.936C240.425 225.861 240.187 225.824 239.944 225.824C239.692 225.824 239.445 225.866 239.202 225.95C238.969 226.025 238.759 226.137 238.572 226.286C238.395 226.435 238.25 226.617 238.138 226.832C238.026 227.037 237.97 227.271 237.97 227.532C237.97 227.793 238.026 228.031 238.138 228.246C238.259 228.451 238.413 228.629 238.6 228.778C238.787 228.918 238.997 229.03 239.23 229.114C239.473 229.189 239.715 229.226 239.958 229.226C240.21 229.226 240.453 229.184 240.686 229.1C240.929 229.016 241.143 228.899 241.33 228.75C241.517 228.601 241.666 228.423 241.778 228.218C241.89 228.013 241.946 227.784 241.946 227.532ZM238.278 223.29C238.278 223.514 238.329 223.71 238.432 223.878C238.535 224.046 238.665 224.186 238.824 224.298C238.983 224.41 239.16 224.499 239.356 224.564C239.552 224.62 239.748 224.648 239.944 224.648C240.14 224.648 240.336 224.62 240.532 224.564C240.737 224.499 240.919 224.41 241.078 224.298C241.237 224.177 241.367 224.032 241.47 223.864C241.573 223.687 241.624 223.486 241.624 223.262C241.624 223.057 241.577 222.875 241.484 222.716C241.391 222.548 241.265 222.408 241.106 222.296C240.957 222.175 240.779 222.086 240.574 222.03C240.378 221.965 240.168 221.932 239.944 221.932C239.72 221.932 239.505 221.965 239.3 222.03C239.104 222.095 238.927 222.189 238.768 222.31C238.619 222.422 238.497 222.562 238.404 222.73C238.32 222.898 238.278 223.085 238.278 223.29ZM246.882 224.578C246.574 224.578 246.285 224.527 246.014 224.424C245.744 224.312 245.506 224.163 245.3 223.976C245.104 223.789 244.946 223.57 244.824 223.318C244.712 223.066 244.656 222.795 244.656 222.506C244.656 222.217 244.712 221.946 244.824 221.694C244.946 221.442 245.104 221.223 245.3 221.036C245.506 220.84 245.744 220.691 246.014 220.588C246.285 220.476 246.574 220.42 246.882 220.42C247.19 220.42 247.48 220.476 247.75 220.588C248.021 220.691 248.254 220.84 248.45 221.036C248.656 221.223 248.814 221.442 248.926 221.694C249.048 221.946 249.108 222.217 249.108 222.506C249.108 222.795 249.048 223.066 248.926 223.318C248.814 223.57 248.656 223.789 248.45 223.976C248.254 224.163 248.021 224.312 247.75 224.424C247.48 224.527 247.19 224.578 246.882 224.578ZM246.882 223.78C247.041 223.78 247.186 223.747 247.316 223.682C247.456 223.607 247.578 223.514 247.68 223.402C247.783 223.281 247.862 223.145 247.918 222.996C247.984 222.837 248.016 222.674 248.016 222.506C248.016 222.329 247.984 222.161 247.918 222.002C247.862 221.843 247.783 221.708 247.68 221.596C247.578 221.475 247.456 221.381 247.316 221.316C247.176 221.251 247.032 221.218 246.882 221.218C246.565 221.218 246.294 221.349 246.07 221.61C245.856 221.862 245.748 222.161 245.748 222.506C245.748 222.683 245.776 222.851 245.832 223.01C245.898 223.159 245.982 223.295 246.084 223.416C246.187 223.528 246.304 223.617 246.434 223.682C246.574 223.747 246.724 223.78 246.882 223.78ZM252.034 230.64C251.726 230.64 251.437 230.589 251.166 230.486C250.896 230.374 250.658 230.225 250.452 230.038C250.256 229.842 250.098 229.618 249.976 229.366C249.864 229.114 249.808 228.843 249.808 228.554C249.808 228.265 249.864 227.994 249.976 227.742C250.098 227.49 250.256 227.271 250.452 227.084C250.658 226.897 250.896 226.753 251.166 226.65C251.437 226.538 251.726 226.482 252.034 226.482C252.342 226.482 252.632 226.538 252.902 226.65C253.173 226.753 253.406 226.897 253.602 227.084C253.808 227.271 253.966 227.49 254.078 227.742C254.2 227.994 254.26 228.265 254.26 228.554C254.26 228.843 254.2 229.114 254.078 229.366C253.966 229.618 253.808 229.842 253.602 230.038C253.406 230.225 253.173 230.374 252.902 230.486C252.632 230.589 252.342 230.64 252.034 230.64ZM252.034 229.842C252.352 229.842 252.618 229.716 252.832 229.464C253.056 229.212 253.168 228.909 253.168 228.554C253.168 228.377 253.136 228.213 253.07 228.064C253.014 227.905 252.93 227.77 252.818 227.658C252.716 227.537 252.594 227.443 252.454 227.378C252.324 227.313 252.184 227.28 252.034 227.28C251.876 227.28 251.726 227.317 251.586 227.392C251.456 227.457 251.339 227.551 251.236 227.672C251.134 227.784 251.05 227.919 250.984 228.078C250.928 228.227 250.9 228.386 250.9 228.554C250.9 228.731 250.928 228.899 250.984 229.058C251.05 229.217 251.134 229.357 251.236 229.478C251.339 229.59 251.456 229.679 251.586 229.744C251.726 229.809 251.876 229.842 252.034 229.842ZM245.286 229.94L249.22 225.278L252.916 220.476L253.644 221.106L249.78 225.712L246 230.584L245.286 229.94Z" fill="black"/>
<rect x="220" y="214" width="43" height="23" rx="5.5" stroke="#D4E2F1" shape-rendering="crispEdges"/>
</g>
<rect x="76.5" y="218.5" width="350" height="133" rx="7.5" stroke="#D4E2F1"/>
</g>
<rect x="56.5" y="150.5" width="390" height="221" rx="11.5" stroke="#D8DFE5"/>
</g>
<g filter="url(#filter4_dd_2055_13598)">
<rect x="274" y="88" width="206" height="176" rx="12" fill="white" shape-rendering="crispEdges"/>
<rect x="349" y="112" width="56" height="56" rx="28" fill="#EAF6FF"/>
<path d="M387.248 124L394.811 140L387.248 156H380.808L388.372 140L380.808 124H387.248H387.248ZM374.987 137.593L377.717 132.407L377.405 131.199L374.002 124H367.562L374.186 138.01L374.987 137.593ZM377.405 147.727L375.046 142.412L374.186 141.99L367.562 156H374.002L377.406 148.8V147.727H377.405Z" fill="#40B4E5"/>
<path d="M380.81 156L373.246 140L380.81 124H387.249L379.685 140L387.249 156H380.81ZM367.564 156L360 140L367.564 124H374.003L366.439 140L374.003 156H367.564Z" fill="#003764"/>
<path d="M366.296 193.168C365.869 193.456 365.405 193.68 364.904 193.84C364.413 194 363.891 194.08 363.336 194.08C362.525 194.08 361.784 193.915 361.112 193.584C360.451 193.253 359.88 192.821 359.4 192.288C358.92 191.755 358.547 191.141 358.28 190.448C358.024 189.755 357.896 189.045 357.896 188.32C357.896 187.563 358.035 186.837 358.312 186.144C358.589 185.451 358.968 184.837 359.448 184.304C359.939 183.771 360.515 183.349 361.176 183.04C361.848 182.72 362.579 182.56 363.368 182.56C364.179 182.56 364.915 182.731 365.576 183.072C366.248 183.403 366.819 183.84 367.288 184.384C367.768 184.928 368.136 185.547 368.392 186.24C368.659 186.923 368.792 187.621 368.792 188.336C368.792 189.093 368.659 189.813 368.392 190.496C368.125 191.168 367.752 191.771 367.272 192.304L368.76 194H367.032L366.296 193.168ZM363.352 192.464C363.704 192.464 364.035 192.416 364.344 192.32C364.653 192.224 364.936 192.091 365.192 191.92L363.576 190.048H365.304L366.12 190.992C366.397 190.619 366.605 190.203 366.744 189.744C366.883 189.275 366.952 188.8 366.952 188.32C366.952 187.776 366.867 187.259 366.696 186.768C366.525 186.267 366.28 185.824 365.96 185.44C365.651 185.056 365.272 184.752 364.824 184.528C364.387 184.293 363.896 184.176 363.352 184.176C362.776 184.176 362.264 184.299 361.816 184.544C361.368 184.779 360.989 185.093 360.68 185.488C360.371 185.872 360.131 186.315 359.96 186.816C359.8 187.307 359.72 187.808 359.72 188.32C359.72 188.853 359.805 189.371 359.976 189.872C360.147 190.373 360.387 190.816 360.696 191.2C361.016 191.584 361.4 191.893 361.848 192.128C362.296 192.352 362.797 192.464 363.352 192.464ZM372.968 194.16C372.093 194.16 371.432 193.877 370.984 193.312C370.536 192.736 370.312 191.883 370.312 190.752V185.632H372.072V190.4C372.072 191.904 372.605 192.656 373.672 192.656C374.173 192.656 374.648 192.501 375.096 192.192C375.544 191.883 375.891 191.435 376.136 190.848V185.632H377.896V191.92C377.896 192.123 377.928 192.267 377.992 192.352C378.067 192.437 378.195 192.485 378.376 192.496V194C378.195 194.032 378.045 194.053 377.928 194.064C377.811 194.075 377.699 194.08 377.592 194.08C377.272 194.08 377 193.995 376.776 193.824C376.552 193.643 376.435 193.413 376.424 193.136L376.392 192.304C376.019 192.912 375.533 193.376 374.936 193.696C374.339 194.005 373.683 194.16 372.968 194.16ZM382.366 194.16C381.961 194.16 381.582 194.096 381.23 193.968C380.889 193.829 380.59 193.643 380.334 193.408C380.089 193.173 379.891 192.896 379.742 192.576C379.603 192.256 379.534 191.909 379.534 191.536C379.534 191.141 379.619 190.784 379.79 190.464C379.961 190.144 380.201 189.867 380.51 189.632C380.83 189.397 381.203 189.216 381.63 189.088C382.067 188.96 382.547 188.896 383.07 188.896C383.465 188.896 383.854 188.933 384.238 189.008C384.622 189.072 384.969 189.163 385.278 189.28V188.704C385.278 188.085 385.102 187.605 384.75 187.264C384.398 186.912 383.891 186.736 383.23 186.736C382.782 186.736 382.339 186.821 381.902 186.992C381.475 187.152 381.033 187.387 380.574 187.696L380.03 186.576C381.107 185.851 382.227 185.488 383.39 185.488C384.542 185.488 385.438 185.781 386.078 186.368C386.718 186.955 387.038 187.797 387.038 188.896V191.92C387.038 192.293 387.193 192.485 387.502 192.496V194C387.331 194.032 387.182 194.053 387.054 194.064C386.937 194.075 386.819 194.08 386.702 194.08C386.361 194.08 386.094 193.995 385.902 193.824C385.721 193.653 385.609 193.435 385.566 193.168L385.518 192.64C385.145 193.131 384.681 193.509 384.126 193.776C383.582 194.032 382.995 194.16 382.366 194.16ZM382.846 192.864C383.273 192.864 383.673 192.789 384.046 192.64C384.43 192.48 384.729 192.261 384.942 191.984C385.166 191.792 385.278 191.589 385.278 191.376V190.272C384.979 190.155 384.659 190.064 384.318 190C383.987 189.936 383.662 189.904 383.342 189.904C382.713 189.904 382.195 190.043 381.79 190.32C381.395 190.587 381.198 190.944 381.198 191.392C381.198 191.808 381.353 192.16 381.662 192.448C381.971 192.725 382.366 192.864 382.846 192.864ZM389.258 195.968C389.418 196 389.573 196.027 389.722 196.048C389.882 196.069 390.01 196.08 390.106 196.08C390.245 196.08 390.362 196.048 390.458 195.984C390.565 195.931 390.671 195.829 390.778 195.68C390.885 195.531 390.991 195.317 391.098 195.04C391.215 194.773 391.349 194.427 391.498 194L388.058 185.632H389.866L392.458 192.448L394.762 185.632H396.426L392.634 195.936C392.463 196.416 392.165 196.816 391.738 197.136C391.322 197.467 390.783 197.632 390.122 197.632C389.994 197.632 389.861 197.621 389.722 197.6C389.583 197.589 389.429 197.557 389.258 197.504V195.968Z" fill="#222426"/>
<g filter="url(#filter5_d_2055_13598)">
<rect x="290" y="216" width="83" height="32" rx="6" fill="white"/>
<path d="M326.422 235.306V237H319.52V227.06H326.296V228.754H321.452V231.148H325.638V232.716H321.452V235.306H326.422ZM330.443 237.14C329.939 237.14 329.472 237.042 329.043 236.846C328.613 236.65 328.245 236.379 327.937 236.034C327.629 235.689 327.386 235.287 327.209 234.83C327.041 234.363 326.957 233.864 326.957 233.332C326.957 232.8 327.036 232.305 327.195 231.848C327.363 231.391 327.591 230.989 327.881 230.644C328.17 230.299 328.515 230.028 328.917 229.832C329.318 229.636 329.757 229.538 330.233 229.538C330.774 229.538 331.259 229.669 331.689 229.93C332.127 230.191 332.468 230.532 332.711 230.952V226.78H334.587V234.844C334.587 235.04 334.619 235.18 334.685 235.264C334.75 235.348 334.862 235.395 335.021 235.404V237C334.694 237.065 334.428 237.098 334.223 237.098C333.887 237.098 333.611 237.014 333.397 236.846C333.182 236.678 333.061 236.459 333.033 236.188L332.991 235.726C332.72 236.193 332.351 236.547 331.885 236.79C331.427 237.023 330.947 237.14 330.443 237.14ZM330.933 235.544C331.11 235.544 331.292 235.516 331.479 235.46C331.665 235.395 331.838 235.306 331.997 235.194C332.155 235.082 332.295 234.951 332.417 234.802C332.547 234.653 332.645 234.489 332.711 234.312V232.562C332.636 232.357 332.529 232.17 332.389 232.002C332.258 231.825 332.104 231.675 331.927 231.554C331.759 231.423 331.577 231.321 331.381 231.246C331.194 231.171 331.007 231.134 330.821 231.134C330.541 231.134 330.279 231.195 330.037 231.316C329.803 231.437 329.603 231.605 329.435 231.82C329.267 232.025 329.136 232.263 329.043 232.534C328.949 232.805 328.903 233.085 328.903 233.374C328.903 233.682 328.954 233.967 329.057 234.228C329.159 234.489 329.299 234.718 329.477 234.914C329.654 235.11 329.864 235.264 330.107 235.376C330.359 235.488 330.634 235.544 330.933 235.544ZM336.428 237V229.664H338.304V237H336.428ZM336.428 228.642V226.78H338.304V228.642H336.428ZM344.393 236.622C344.141 236.734 343.833 236.846 343.469 236.958C343.105 237.07 342.722 237.126 342.321 237.126C342.059 237.126 341.812 237.093 341.579 237.028C341.355 236.963 341.154 236.86 340.977 236.72C340.809 236.571 340.673 236.384 340.571 236.16C340.468 235.927 340.417 235.647 340.417 235.32V231.106H339.451V229.664H340.417V227.284H342.293V229.664H343.833V231.106H342.293V234.69C342.293 234.951 342.358 235.138 342.489 235.25C342.629 235.353 342.797 235.404 342.993 235.404C343.189 235.404 343.38 235.371 343.567 235.306C343.753 235.241 343.903 235.185 344.015 235.138L344.393 236.622Z" fill="#104378"/>
<rect x="290.5" y="216.5" width="82" height="31" rx="5.5" stroke="#D4E2F1"/>
</g>
<rect x="381.5" y="216.5" width="82" height="31" rx="5.5" fill="white"/>
<path d="M396.254 237V227.06H400.65C401.107 227.06 401.527 227.158 401.91 227.354C402.302 227.541 402.638 227.793 402.918 228.11C403.198 228.418 403.417 228.773 403.576 229.174C403.734 229.566 403.814 229.963 403.814 230.364C403.814 231.008 403.65 231.596 403.324 232.128C403.006 232.651 402.572 233.029 402.022 233.262L404.29 237H402.12L400.09 233.668H398.186V237H396.254ZM398.186 231.974H400.608C400.785 231.974 400.948 231.932 401.098 231.848C401.256 231.764 401.392 231.652 401.504 231.512C401.616 231.363 401.704 231.19 401.77 230.994C401.835 230.798 401.868 230.588 401.868 230.364C401.868 230.131 401.83 229.916 401.756 229.72C401.681 229.524 401.578 229.356 401.448 229.216C401.326 229.067 401.182 228.955 401.014 228.88C400.855 228.796 400.692 228.754 400.524 228.754H398.186V231.974ZM408.579 237.14C407.991 237.14 407.459 237.042 406.983 236.846C406.507 236.641 406.101 236.365 405.765 236.02C405.429 235.675 405.168 235.273 404.981 234.816C404.804 234.359 404.715 233.878 404.715 233.374C404.715 232.851 404.804 232.361 404.981 231.904C405.159 231.437 405.415 231.031 405.751 230.686C406.087 230.331 406.493 230.051 406.969 229.846C407.455 229.641 407.996 229.538 408.593 229.538C409.191 229.538 409.723 229.641 410.189 229.846C410.665 230.051 411.067 230.327 411.393 230.672C411.729 231.017 411.981 231.419 412.149 231.876C412.327 232.333 412.415 232.809 412.415 233.304C412.415 233.425 412.411 233.542 412.401 233.654C412.401 233.766 412.392 233.859 412.373 233.934H406.703C406.731 234.223 406.801 234.48 406.913 234.704C407.025 234.928 407.17 235.119 407.347 235.278C407.525 235.437 407.725 235.558 407.949 235.642C408.173 235.726 408.407 235.768 408.649 235.768C409.023 235.768 409.373 235.679 409.699 235.502C410.035 235.315 410.264 235.073 410.385 234.774L411.995 235.222C411.725 235.782 411.291 236.244 410.693 236.608C410.105 236.963 409.401 237.14 408.579 237.14ZM410.483 232.716C410.437 232.165 410.231 231.727 409.867 231.4C409.513 231.064 409.079 230.896 408.565 230.896C408.313 230.896 408.075 230.943 407.851 231.036C407.637 231.12 407.445 231.241 407.277 231.4C407.109 231.559 406.969 231.75 406.857 231.974C406.755 232.198 406.694 232.445 406.675 232.716H410.483ZM424.954 237H423.078V232.884C423.078 232.296 422.975 231.867 422.77 231.596C422.574 231.325 422.299 231.19 421.944 231.19C421.571 231.19 421.221 231.335 420.894 231.624C420.567 231.904 420.334 232.273 420.194 232.73V237H418.318V232.884C418.318 232.296 418.215 231.867 418.01 231.596C417.814 231.325 417.539 231.19 417.184 231.19C416.82 231.19 416.47 231.33 416.134 231.61C415.807 231.89 415.574 232.259 415.434 232.716V237H413.558V229.664H415.252V231.022C415.523 230.546 415.891 230.182 416.358 229.93C416.834 229.669 417.375 229.538 417.982 229.538C418.598 229.538 419.074 229.687 419.41 229.986C419.746 230.285 419.961 230.653 420.054 231.092C420.353 230.588 420.731 230.205 421.188 229.944C421.645 229.673 422.168 229.538 422.756 229.538C423.204 229.538 423.573 229.622 423.862 229.79C424.151 229.958 424.375 230.177 424.534 230.448C424.693 230.719 424.8 231.027 424.856 231.372C424.921 231.717 424.954 232.067 424.954 232.422V237ZM429.975 237.14C429.378 237.14 428.841 237.037 428.365 236.832C427.889 236.627 427.483 236.351 427.147 236.006C426.821 235.651 426.569 235.245 426.391 234.788C426.214 234.331 426.125 233.85 426.125 233.346C426.125 232.833 426.214 232.347 426.391 231.89C426.569 231.433 426.821 231.031 427.147 230.686C427.483 230.331 427.889 230.051 428.365 229.846C428.841 229.641 429.378 229.538 429.975 229.538C430.573 229.538 431.105 229.641 431.571 229.846C432.047 230.051 432.449 230.331 432.775 230.686C433.111 231.031 433.368 231.433 433.545 231.89C433.723 232.347 433.811 232.833 433.811 233.346C433.811 233.85 433.723 234.331 433.545 234.788C433.368 235.245 433.116 235.651 432.789 236.006C432.463 236.351 432.061 236.627 431.585 236.832C431.109 237.037 430.573 237.14 429.975 237.14ZM428.057 233.346C428.057 233.673 428.104 233.971 428.197 234.242C428.3 234.503 428.435 234.732 428.603 234.928C428.781 235.124 428.986 235.278 429.219 235.39C429.453 235.493 429.705 235.544 429.975 235.544C430.246 235.544 430.498 235.493 430.731 235.39C430.965 235.278 431.165 235.124 431.333 234.928C431.511 234.732 431.646 234.499 431.739 234.228C431.842 233.957 431.893 233.659 431.893 233.332C431.893 233.015 431.842 232.721 431.739 232.45C431.646 232.179 431.511 231.946 431.333 231.75C431.165 231.554 430.965 231.405 430.731 231.302C430.498 231.19 430.246 231.134 429.975 231.134C429.705 231.134 429.453 231.19 429.219 231.302C428.986 231.414 428.781 231.568 428.603 231.764C428.435 231.96 428.3 232.193 428.197 232.464C428.104 232.735 428.057 233.029 428.057 233.346ZM436.792 237L434.09 229.664H436.022L437.884 235.474L439.76 229.664H441.524L438.822 237H436.792ZM445.657 237.14C445.069 237.14 444.537 237.042 444.061 236.846C443.585 236.641 443.179 236.365 442.843 236.02C442.507 235.675 442.246 235.273 442.059 234.816C441.882 234.359 441.793 233.878 441.793 233.374C441.793 232.851 441.882 232.361 442.059 231.904C442.237 231.437 442.493 231.031 442.829 230.686C443.165 230.331 443.571 230.051 444.047 229.846C444.533 229.641 445.074 229.538 445.671 229.538C446.269 229.538 446.801 229.641 447.267 229.846C447.743 230.051 448.145 230.327 448.471 230.672C448.807 231.017 449.059 231.419 449.227 231.876C449.405 232.333 449.493 232.809 449.493 233.304C449.493 233.425 449.489 233.542 449.479 233.654C449.479 233.766 449.47 233.859 449.451 233.934H443.781C443.809 234.223 443.879 234.48 443.991 234.704C444.103 234.928 444.248 235.119 444.425 235.278C444.603 235.437 444.803 235.558 445.027 235.642C445.251 235.726 445.485 235.768 445.727 235.768C446.101 235.768 446.451 235.679 446.777 235.502C447.113 235.315 447.342 235.073 447.463 234.774L449.073 235.222C448.803 235.782 448.369 236.244 447.771 236.608C447.183 236.963 446.479 237.14 445.657 237.14ZM447.561 232.716C447.515 232.165 447.309 231.727 446.945 231.4C446.591 231.064 446.157 230.896 445.643 230.896C445.391 230.896 445.153 230.943 444.929 231.036C444.715 231.12 444.523 231.241 444.355 231.4C444.187 231.559 444.047 231.75 443.935 231.974C443.833 232.198 443.772 232.445 443.753 232.716H447.561Z" fill="#FF3232"/>
<rect x="381.5" y="216.5" width="82" height="31" rx="5.5" stroke="#FF3232"/>
<rect x="274.5" y="88.5" width="205" height="175" rx="11.5" stroke="#D8DFE5" shape-rendering="crispEdges"/>
</g>
<defs>
<filter id="filter0_dd_2055_13598" x="42" y="144" width="419" height="250" filterUnits="userSpaceOnUse" color-interpolation-filters="sRGB">
<feFlood flood-opacity="0" result="BackgroundImageFix"/>
<feColorMatrix in="SourceAlpha" type="matrix" values="0 0 0 0 0 0 0 0 0 0 0 0 0 0 0 0 0 0 127 0" result="hardAlpha"/>
<feOffset dy="8"/>
<feGaussianBlur stdDeviation="7"/>
<feComposite in2="hardAlpha" operator="out"/>
<feColorMatrix type="matrix" values="0 0 0 0 0 0 0 0 0 0 0 0 0 0 0 0 0 0 0.08 0"/>
<feBlend mode="normal" in2="BackgroundImageFix" result="effect1_dropShadow_2055_13598"/>
<feColorMatrix in="SourceAlpha" type="matrix" values="0 0 0 0 0 0 0 0 0 0 0 0 0 0 0 0 0 0 127 0" result="hardAlpha"/>
<feOffset dy="2"/>
<feGaussianBlur stdDeviation="0.5"/>
<feComposite in2="hardAlpha" operator="out"/>
<feColorMatrix type="matrix" values="0 0 0 0 0 0 0 0 0 0 0 0 0 0 0 0 0 0 0.06 0"/>
<feBlend mode="normal" in2="effect1_dropShadow_2055_13598" result="effect2_dropShadow_2055_13598"/>
<feBlend mode="normal" in="SourceGraphic" in2="effect2_dropShadow_2055_13598" result="shape"/>
</filter>
<filter id="filter1_d_2055_13598" x="317" y="166" width="111" height="35" filterUnits="userSpaceOnUse" color-interpolation-filters="sRGB">
<feFlood flood-opacity="0" result="BackgroundImageFix"/>
<feColorMatrix in="SourceAlpha" type="matrix" values="0 0 0 0 0 0 0 0 0 0 0 0 0 0 0 0 0 0 127 0" result="hardAlpha"/>
<feOffset dy="2"/>
<feGaussianBlur stdDeviation="0.5"/>
<feComposite in2="hardAlpha" operator="out"/>
<feColorMatrix type="matrix" values="0 0 0 0 0.9395 0 0 0 0 0.949638 0 0 0 0 0.9605 0 0 0 1 0"/>
<feBlend mode="normal" in2="BackgroundImageFix" result="effect1_dropShadow_2055_13598"/>
<feBlend mode="normal" in="SourceGraphic" in2="effect1_dropShadow_2055_13598" result="shape"/>
</filter>
<filter id="filter2_i_2055_13598" x="128" y="242" width="114" height="76" filterUnits="userSpaceOnUse" color-interpolation-filters="sRGB">
<feFlood flood-opacity="0" result="BackgroundImageFix"/>
<feBlend mode="normal" in="SourceGraphic" in2="BackgroundImageFix" result="shape"/>
<feColorMatrix in="SourceAlpha" type="matrix" values="0 0 0 0 0 0 0 0 0 0 0 0 0 0 0 0 0 0 127 0" result="hardAlpha"/>
<feOffset dx="-1"/>
<feComposite in2="hardAlpha" operator="arithmetic" k2="-1" k3="1"/>
<feColorMatrix type="matrix" values="0 0 0 0 0.831373 0 0 0 0 0.886275 0 0 0 0 0.945098 0 0 0 1 0"/>
<feBlend mode="normal" in2="shape" result="effect1_innerShadow_2055_13598"/>
</filter>
<filter id="filter3_d_2055_13598" x="218.5" y="213.5" width="46" height="27" filterUnits="userSpaceOnUse" color-interpolation-filters="sRGB">
<feFlood flood-opacity="0" result="BackgroundImageFix"/>
<feColorMatrix in="SourceAlpha" type="matrix" values="0 0 0 0 0 0 0 0 0 0 0 0 0 0 0 0 0 0 127 0" result="hardAlpha"/>
<feOffset dy="2"/>
<feGaussianBlur stdDeviation="0.5"/>
<feComposite in2="hardAlpha" operator="out"/>
<feColorMatrix type="matrix" values="0 0 0 0 0 0 0 0 0 0 0 0 0 0 0 0 0 0 0.16 0"/>
<feBlend mode="normal" in2="BackgroundImageFix" result="effect1_dropShadow_2055_13598"/>
<feBlend mode="normal" in="SourceGraphic" in2="effect1_dropShadow_2055_13598" result="shape"/>
</filter>
<filter id="filter4_dd_2055_13598" x="260" y="82" width="234" height="204" filterUnits="userSpaceOnUse" color-interpolation-filters="sRGB">
<feFlood flood-opacity="0" result="BackgroundImageFix"/>
<feColorMatrix in="SourceAlpha" type="matrix" values="0 0 0 0 0 0 0 0 0 0 0 0 0 0 0 0 0 0 127 0" result="hardAlpha"/>
<feOffset dy="8"/>
<feGaussianBlur stdDeviation="7"/>
<feComposite in2="hardAlpha" operator="out"/>
<feColorMatrix type="matrix" values="0 0 0 0 0 0 0 0 0 0 0 0 0 0 0 0 0 0 0.08 0"/>
<feBlend mode="normal" in2="BackgroundImageFix" result="effect1_dropShadow_2055_13598"/>
<feColorMatrix in="SourceAlpha" type="matrix" values="0 0 0 0 0 0 0 0 0 0 0 0 0 0 0 0 0 0 127 0" result="hardAlpha"/>
<feOffset dy="2"/>
<feGaussianBlur stdDeviation="0.5"/>
<feComposite in2="hardAlpha" operator="out"/>
<feColorMatrix type="matrix" values="0 0 0 0 0 0 0 0 0 0 0 0 0 0 0 0 0 0 0.06 0"/>
<feBlend mode="normal" in2="effect1_dropShadow_2055_13598" result="effect2_dropShadow_2055_13598"/>
<feBlend mode="normal" in="SourceGraphic" in2="effect2_dropShadow_2055_13598" result="shape"/>
</filter>
<filter id="filter5_d_2055_13598" x="289" y="216" width="85" height="35" filterUnits="userSpaceOnUse" color-interpolation-filters="sRGB">
<feFlood flood-opacity="0" result="BackgroundImageFix"/>
<feColorMatrix in="SourceAlpha" type="matrix" values="0 0 0 0 0 0 0 0 0 0 0 0 0 0 0 0 0 0 127 0" result="hardAlpha"/>
<feOffset dy="2"/>
<feGaussianBlur stdDeviation="0.5"/>
<feComposite in2="hardAlpha" operator="out"/>
<feColorMatrix type="matrix" values="0 0 0 0 0.9395 0 0 0 0 0.949638 0 0 0 0 0.9605 0 0 0 1 0"/>
<feBlend mode="normal" in2="BackgroundImageFix" result="effect1_dropShadow_2055_13598"/>
<feBlend mode="normal" in="SourceGraphic" in2="effect1_dropShadow_2055_13598" result="shape"/>
</filter>
<clipPath id="clip0_2055_13598">
<rect x="56" y="150" width="391" height="222" rx="12" fill="white"/>
</clipPath>
</defs>
</svg>
