<svg width="347" height="120" viewBox="0 0 347 120" fill="none" xmlns="http://www.w3.org/2000/svg">
<g clip-path="url(#clip0_1657_13133)">
<mask id="path-1-inside-1_1657_13133" fill="white">
<path d="M0 0H346.667V120H0V0Z"/>
</mask>
<path d="M0 0H346.667V120H0V0Z" fill="#481B97" fill-opacity="0.04"/>
<mask id="mask0_1657_13133" style="mask-type:alpha" maskUnits="userSpaceOnUse" x="0" y="0" width="346" height="189">
<rect width="346" height="188.299" fill="url(#paint0_radial_1657_13133)"/>
</mask>
<g mask="url(#mask0_1657_13133)">
<path d="M127.885 5.88477L80.8105 36.8757V83.1659L127.885 52.5673V5.88477Z" fill="#DED5EC" fill-opacity="0.16"/>
<path d="M80.8092 -25.1055L33.7344 5.49317L33.7344 52.568L80.8092 83.1666L127.884 52.568V5.49317L80.8092 -25.1055Z" stroke="#DED5EC"/>
<path d="M127.885 52.5684L80.8105 83.167V129.457L127.885 160.84L174.96 129.457V83.167L127.885 52.5684Z" stroke="#DED5EC"/>
<path d="M33.735 6.27734L-13.3398 36.876L-13.3398 83.1662L33.735 114.549L80.8098 83.1662V36.876L33.735 6.27734Z" stroke="#DED5EC"/>
<path d="M80.8105 36.8757L127.885 5.88477" stroke="#DED5EC"/>
<path d="M339.721 59.2363L292.646 89.4427V136.518L339.721 105.919V59.2363Z" fill="#DED5EC" fill-opacity="0.16"/>
<path d="M292.647 28.2461L245.572 58.8447V105.92L292.647 136.518L339.722 105.92V58.8447L292.647 28.2461Z" stroke="#DED5EC"/>
<path d="M339.721 58.8457L292.646 89.4443V136.519L339.721 167.902L386.796 136.519V89.4443L339.721 58.8457Z" stroke="#DED5EC"/>
<path d="M292.647 89.4443L245.572 58.8457" stroke="#DED5EC"/>
</g>
<g filter="url(#filter0_d_1657_13133)">
<g clip-path="url(#clip1_1657_13133)">
<rect x="123.334" y="28" width="100" height="64" rx="8" fill="white"/>
<g filter="url(#filter1_i_1657_13133)">
<rect width="150" height="16" transform="translate(98.334 28)" fill="white"/>
</g>
<g clip-path="url(#clip2_1657_13133)">
<rect x="123.334" y="44" width="17.3333" height="47" fill="#F9F9F8"/>
<rect x="164.668" y="44" width="17.3333" height="47" fill="#F9F9F8"/>
<rect x="206" y="44" width="17.3333" height="47" fill="#F9F9F8"/>
<rect x="131.334" y="52" width="60" height="10" rx="5" fill="#481B97"/>
<rect x="135.334" y="56" width="32" height="2" rx="1" fill="white"/>
<rect x="154.334" y="66" width="111" height="10" rx="5" fill="#481B97"/>
<rect x="158.334" y="70" width="27" height="2" rx="1" fill="white"/>
</g>
<mask id="path-22-outside-2_1657_13133" maskUnits="userSpaceOnUse" x="168.334" y="38" width="10" height="56" fill="black">
<rect fill="white" x="168.334" y="38" width="10" height="56"/>
<path fill-rule="evenodd" clip-rule="evenodd" d="M174.334 45.8293C175.499 45.4175 176.334 44.3062 176.334 43C176.334 41.3431 174.991 40 173.334 40C171.677 40 170.334 41.3431 170.334 43C170.334 44.3062 171.169 45.4175 172.334 45.8293V92H174.334V45.8293Z"/>
</mask>
<path fill-rule="evenodd" clip-rule="evenodd" d="M174.334 45.8293C175.499 45.4175 176.334 44.3062 176.334 43C176.334 41.3431 174.991 40 173.334 40C171.677 40 170.334 41.3431 170.334 43C170.334 44.3062 171.169 45.4175 172.334 45.8293V92H174.334V45.8293Z" fill="#FF6159"/>
<path d="M174.334 45.8293L173.667 43.9436L172.334 44.4149V45.8293H174.334ZM172.334 45.8293H174.334V44.4149L173 43.9436L172.334 45.8293ZM172.334 92H170.334V94H172.334V92ZM174.334 92V94H176.334V92H174.334ZM174.334 43C174.334 43.4323 174.059 43.8054 173.667 43.9436L175 47.715C176.94 47.0295 178.334 45.1802 178.334 43H174.334ZM173.334 42C173.886 42 174.334 42.4477 174.334 43H178.334C178.334 40.2386 176.095 38 173.334 38V42ZM172.334 43C172.334 42.4477 172.782 42 173.334 42V38C170.573 38 168.334 40.2386 168.334 43H172.334ZM173 43.9436C172.609 43.8054 172.334 43.4323 172.334 43H168.334C168.334 45.1802 169.728 47.0295 171.667 47.715L173 43.9436ZM174.334 92V45.8293H170.334V92H174.334ZM174.334 90H172.334V94H174.334V90ZM172.334 45.8293V92H176.334V45.8293H172.334Z" fill="white" mask="url(#path-22-outside-2_1657_13133)"/>
</g>
<rect x="123.834" y="28.5" width="99" height="63" rx="7.5" stroke="#D8DFE5"/>
</g>
</g>
<path d="M346.667 119H0V121H346.667V119Z" fill="black" fill-opacity="0.08" mask="url(#path-1-inside-1_1657_13133)"/>
<defs>
<filter id="filter0_d_1657_13133" x="123.334" y="28" width="100" height="65" filterUnits="userSpaceOnUse" color-interpolation-filters="sRGB">
<feFlood flood-opacity="0" result="BackgroundImageFix"/>
<feColorMatrix in="SourceAlpha" type="matrix" values="0 0 0 0 0 0 0 0 0 0 0 0 0 0 0 0 0 0 127 0" result="hardAlpha"/>
<feOffset dy="1"/>
<feComposite in2="hardAlpha" operator="out"/>
<feColorMatrix type="matrix" values="0 0 0 0 0.0666667 0 0 0 0 0.0941176 0 0 0 0 0.109804 0 0 0 0.08 0"/>
<feBlend mode="normal" in2="BackgroundImageFix" result="effect1_dropShadow_1657_13133"/>
<feBlend mode="normal" in="SourceGraphic" in2="effect1_dropShadow_1657_13133" result="shape"/>
</filter>
<filter id="filter1_i_1657_13133" x="98.334" y="28" width="150" height="16" filterUnits="userSpaceOnUse" color-interpolation-filters="sRGB">
<feFlood flood-opacity="0" result="BackgroundImageFix"/>
<feBlend mode="normal" in="SourceGraphic" in2="BackgroundImageFix" result="shape"/>
<feColorMatrix in="SourceAlpha" type="matrix" values="0 0 0 0 0 0 0 0 0 0 0 0 0 0 0 0 0 0 127 0" result="hardAlpha"/>
<feOffset dy="-1"/>
<feComposite in2="hardAlpha" operator="arithmetic" k2="-1" k3="1"/>
<feColorMatrix type="matrix" values="0 0 0 0 0.847059 0 0 0 0 0.87451 0 0 0 0 0.898039 0 0 0 1 0"/>
<feBlend mode="normal" in2="shape" result="effect1_innerShadow_1657_13133"/>
</filter>
<radialGradient id="paint0_radial_1657_13133" cx="0" cy="0" r="1" gradientUnits="userSpaceOnUse" gradientTransform="translate(173.499 7.40228e-06) rotate(90.0323) scale(188.299 173.499)">
<stop offset="0.419798" stop-color="#D9D9D9"/>
<stop offset="1" stop-color="#D9D9D9" stop-opacity="0"/>
</radialGradient>
<clipPath id="clip0_1657_13133">
<path d="M0 0H346.667V120H0V0Z" fill="white"/>
</clipPath>
<clipPath id="clip1_1657_13133">
<rect x="123.334" y="28" width="100" height="64" rx="8" fill="white"/>
</clipPath>
<clipPath id="clip2_1657_13133">
<rect width="100" height="48" fill="white" transform="translate(123.334 44)"/>
</clipPath>
</defs>
</svg>
