<svg width="284" height="168" viewBox="0 0 284 168" fill="none" xmlns="http://www.w3.org/2000/svg">
    <defs>
        <filter id="glow">
            <!-- filter processes -->
            <fegaussianblur class="blur" result="coloredBlur" stddeviation="2"></fegaussianblur>
            <femerge>
                <femergenode in="coloredBlur"></femergenode>
                <femergenode in="coloredBlur"></femergenode>
                <femergenode in="coloredBlur"></femergenode>
                <femergenode in="SourceGraphic"></femergenode>
            </femerge>
        </filter>
    </defs>
    <circle cx="82" cy="84" r="48" stroke="#DED5EC" />
    <circle cx="82" cy="84" r="72" stroke="#DED5EC" />
    <circle cx="202" cy="84" r="72" stroke="#DED5EC" />
    <circle cx="202" cy="84" r="48" stroke="#DED5EC" />
    <path class="glow-line"
        d="M153.5 91.9996C151.5 122.5 122.5 156 82 156C43.5 156 10 123.999 10 83.9996C10 44 43 11.9996 82 11.9996C121 11.9996 150.5 42 153.5 76.9996C153.836 85 154.5 92 154.5 92C158.5 114.5 179 132.5 202 132C224 132 250 114.5 250 83.9996C250 53.4992 224 35.9996 202 35.9996C180 35.9996 158 52 154.5 76.9996C154.055 79.7891 154 82 154 82C154 82 153.603 89.0708 153.5 91.9996Z"
        stroke="#D1B9F3" stroke-width="2" filter="url(#glow)" />
    <g filter="url(#filter1_dd_5_93)">
        <rect x="50" y="52" width="64" height="64" rx="32" fill="white" shape-rendering="crispEdges" />
        <path
            d="M86.8797 92.1892C86.5486 92.4421 86.4471 92.8991 86.6393 93.2703L87.84 95.5882C87.988 95.8736 87.7826 96.2157 87.4632 96.2157H75.7493C75.4298 96.2157 75.2245 95.8736 75.3724 95.5882L76.5731 93.2703C76.7654 92.8991 76.6638 92.4421 76.3328 92.1892L75.2679 91.3756C72.7291 89.4359 71.0966 86.3701 71.0966 82.9189C71.0966 77.0643 75.8019 72.3182 81.6062 72.3182C84.1568 72.3182 86.4952 73.2347 88.3153 74.7589V71.7564C86.359 70.5575 84.0625 69.8672 81.6062 69.8672C74.4599 69.8672 68.6667 75.7106 68.6667 82.9189C68.6667 87.0397 70.56 90.7144 73.5171 93.1064C73.6791 93.2374 73.7304 93.4654 73.6342 93.651L71.6861 97.4116C71.3902 97.9827 71.801 98.6667 72.4399 98.6667H90.7726C91.4114 98.6667 91.8223 97.9827 91.5264 97.4116L89.5783 93.651C89.4821 93.4654 89.5334 93.2374 89.6953 93.1064C92.6525 90.7144 94.5458 87.0397 94.5458 82.9189C94.5458 80.6169 93.955 78.454 92.9178 76.5763H90.0279C91.3392 78.3449 92.1158 80.5404 92.1158 82.9189C92.1158 86.3701 90.4833 89.4359 87.9445 91.3756L86.8797 92.1892Z"
            fill="#491797" />
        <path
            d="M87.5912 70.1812C87.6482 69.8995 88.0473 69.8995 88.1043 70.1812L89.1022 75.105C89.1232 75.2087 89.2035 75.2898 89.3063 75.311L94.1879 76.3174C94.4672 76.3749 94.4672 76.7775 94.1879 76.835L89.3063 77.8414C89.2035 77.8626 89.1232 77.9437 89.1022 78.0474L88.1043 82.9713C88.0473 83.2529 87.6482 83.2529 87.5912 82.9713L86.5934 78.0474C86.5723 77.9437 86.492 77.8626 86.3892 77.8414L81.5076 76.835C81.2283 76.7775 81.2283 76.3749 81.5076 76.3174L86.3892 75.311C86.492 75.2898 86.5723 75.2087 86.5934 75.105L87.5912 70.1812Z"
            fill="#A477E9" />
        <path fill-rule="evenodd" clip-rule="evenodd"
            d="M86.5932 75.105C86.5721 75.2087 86.4918 75.2897 86.389 75.3109L81.5074 76.3173C81.2281 76.3749 81.2281 76.7774 81.5074 76.835L86.389 77.8414C86.4918 77.8626 86.5721 77.9436 86.5932 78.0473L87.591 82.9712C87.648 83.2529 88.0471 83.2529 88.1041 82.9712L89.102 78.0473C89.1229 77.9436 89.2032 77.8626 89.3061 77.8414L94.1877 76.835C94.4669 76.7774 94.4669 76.3749 94.1877 76.3173L89.3061 75.3109C89.2032 75.2897 89.1229 75.2087 89.102 75.105L88.1041 70.1811C88.0471 69.8994 87.648 69.8994 87.591 70.1811L86.5932 75.105ZM90.3259 74.0763L89.4792 69.8976C89.1162 68.1064 86.5789 68.1064 86.2159 69.8976L85.3692 74.0763L81.2264 74.9303C79.4505 75.2965 79.4505 77.8558 81.2264 78.2219L85.3692 79.076L86.2159 83.2546C86.5789 85.0459 89.1162 85.0459 89.4792 83.2546L90.3259 79.076L94.4687 78.2219C96.2446 77.8558 96.2446 75.2965 94.4687 74.9303L90.3259 74.0763Z"
            fill="white" />
        <path
            d="M94.2688 66.7723C94.2974 66.6315 94.4969 66.6315 94.5255 66.7723L95.0244 69.2342C95.0349 69.2861 95.075 69.3266 95.1264 69.3372L97.5672 69.8404C97.7069 69.8692 97.7069 70.0705 97.5672 70.0992L95.1264 70.6024C95.075 70.613 95.0349 70.6536 95.0244 70.7054L94.5255 73.1673C94.4969 73.3082 94.2974 73.3082 94.2688 73.1673L93.77 70.7054C93.7594 70.6536 93.7193 70.613 93.6679 70.6024L91.2271 70.0992C91.0874 70.0705 91.0874 69.8692 91.2271 69.8404L93.6679 69.3372C93.7193 69.3266 93.7594 69.2861 93.77 69.2342L94.2688 66.7723Z"
            fill="#A477E9" />
        <rect x="50.5" y="52.5" width="63" height="63" rx="31.5" stroke="#D8DFE5" shape-rendering="crispEdges" />
    </g>
    <g filter="url(#filter2_dd_5_93)">
        <g clip-path="url(#clip0_5_93)">
            <rect x="170" y="52" width="64" height="64" rx="32" fill="#002832" />
            <rect x="170" y="52" width="64" height="64" rx="32" fill="url(#paint1_radial_5_93)"
                style="mix-blend-mode:overlay" />
            <path
                d="M187.333 90.8744H190.405C190.405 92.1142 191.515 93.2059 193.31 93.2059C195.124 93.2059 196.234 92.2992 196.234 91.115C196.234 90.0788 195.383 89.5236 194.217 89.2646L192.089 88.765C189.165 87.9878 187.814 86.4705 187.814 84.1389C187.814 81.5854 190.146 79.4574 193.403 79.4574C196.104 79.4574 198.991 80.8637 198.991 84.1759H195.827C195.827 83.0287 194.642 82.2515 193.477 82.2515C192.089 82.2515 191.145 83.1582 191.145 84.2315C191.145 85.2122 192.052 85.7488 193.033 85.9894L195.42 86.563C198.787 87.4142 199.528 89.4866 199.528 91.189C199.528 94.1867 196.567 96.0001 193.329 96.0001C190.405 96.0001 187.389 94.1867 187.333 90.8744Z"
                fill="white" />
            <path
                d="M208.124 92.6321V82.6214H211.399V79.8642H208.124V74.9607H211.399V72H204.83V79.8642H201.999V82.6214H204.83V95.5927H239.563V92.6321H208.124Z"
                fill="white" />
        </g>
    </g>

    <defs>

        <filter id="filter1_dd_5_93" x="46" y="49" width="72" height="72" filterUnits="userSpaceOnUse"
            color-interpolation-filters="sRGB">
            <feFlood flood-opacity="0" result="BackgroundImageFix" />
            <feColorMatrix in="SourceAlpha" type="matrix" values="0 0 0 0 0 0 0 0 0 0 0 0 0 0 0 0 0 0 127 0"
                result="hardAlpha" />
            <feOffset dy="1" />
            <feGaussianBlur stdDeviation="2" />
            <feColorMatrix type="matrix" values="0 0 0 0 0.0666667 0 0 0 0 0.0941176 0 0 0 0 0.109804 0 0 0 0.16 0" />
            <feBlend mode="normal" in2="BackgroundImageFix" result="effect1_dropShadow_5_93" />
            <feColorMatrix in="SourceAlpha" type="matrix" values="0 0 0 0 0 0 0 0 0 0 0 0 0 0 0 0 0 0 127 0"
                result="hardAlpha" />
            <feOffset />
            <feGaussianBlur stdDeviation="0.5" />
            <feComposite in2="hardAlpha" operator="out" />
            <feColorMatrix type="matrix" values="0 0 0 0 0.0666667 0 0 0 0 0.0941176 0 0 0 0 0.109804 0 0 0 0.16 0" />
            <feBlend mode="normal" in2="effect1_dropShadow_5_93" result="effect2_dropShadow_5_93" />
            <feBlend mode="normal" in="SourceGraphic" in2="effect2_dropShadow_5_93" result="shape" />
        </filter>
        <filter id="filter2_dd_5_93" x="166" y="49" width="72" height="72" filterUnits="userSpaceOnUse"
            color-interpolation-filters="sRGB">
            <feFlood flood-opacity="0" result="BackgroundImageFix" />
            <feColorMatrix in="SourceAlpha" type="matrix" values="0 0 0 0 0 0 0 0 0 0 0 0 0 0 0 0 0 0 127 0"
                result="hardAlpha" />
            <feOffset dy="1" />
            <feGaussianBlur stdDeviation="2" />
            <feColorMatrix type="matrix" values="0 0 0 0 0.0666667 0 0 0 0 0.0941176 0 0 0 0 0.109804 0 0 0 0.16 0" />
            <feBlend mode="normal" in2="BackgroundImageFix" result="effect1_dropShadow_5_93" />
            <feColorMatrix in="SourceAlpha" type="matrix" values="0 0 0 0 0 0 0 0 0 0 0 0 0 0 0 0 0 0 127 0"
                result="hardAlpha" />
            <feOffset />
            <feGaussianBlur stdDeviation="0.5" />
            <feComposite in2="hardAlpha" operator="out" />
            <feColorMatrix type="matrix" values="0 0 0 0 0.0666667 0 0 0 0 0.0941176 0 0 0 0 0.109804 0 0 0 0.16 0" />
            <feBlend mode="normal" in2="effect1_dropShadow_5_93" result="effect2_dropShadow_5_93" />
            <feBlend mode="normal" in="SourceGraphic" in2="effect2_dropShadow_5_93" result="shape" />
        </filter>
        <radialGradient id="paint1_radial_5_93" cx="0" cy="0" r="1" gradientUnits="userSpaceOnUse"
            gradientTransform="translate(234 52) rotate(116.419) scale(55.0142 43.9317)">
            <stop stop-color="white" />
            <stop offset="1" stop-color="white" stop-opacity="0" />
        </radialGradient>
        <clipPath id="clip0_5_93">
            <rect x="170" y="52" width="64" height="64" rx="32" fill="white" />
        </clipPath>
        <filter id="filter0_f_5_93" x="32" y="34" width="96.0003" height="67.0003" filterUnits="userSpaceOnUse"
            color-interpolation-filters="sRGB">
            <feFlood flood-opacity="0" result="BackgroundImageFix" />
            <feBlend mode="normal" in="SourceGraphic" in2="BackgroundImageFix" result="shape" />
            <feGaussianBlur stdDeviation="0.5" result="effect1_foregroundBlur_5_93" />
        </filter>
        <linearGradient id="glow-gradient" x1="125.907" y1="65.736" x2="42.4901" y2="63.2608"
            gradientUnits="userSpaceOnUse">
            <stop stop-color="#481B97" />
            <stop offset="1" stop-color="#481B97" stop-opacity="0" />
        </linearGradient>
    </defs>
</svg>